G75*
%MOIN*%
%OFA0B0*%
%FSLAX25Y25*%
%IPPOS*%
%LPD*%
%AMOC8*
5,1,8,0,0,1.08239X$1,22.5*
%
%ADD10C,0.00000*%
%ADD11C,0.05200*%
%ADD12R,0.05150X0.05150*%
%ADD13C,0.05150*%
%ADD14C,0.05937*%
%ADD15C,0.07050*%
%ADD16C,0.05000*%
%ADD17C,0.03200*%
%ADD18C,0.01600*%
%ADD19C,0.05906*%
%ADD20R,0.05000X0.05000*%
%ADD21C,0.04724*%
%ADD22C,0.05315*%
D10*
X0023540Y0001000D02*
X0023540Y0235980D01*
X0338501Y0235980D01*
X0338501Y0001000D01*
X0023540Y0001000D01*
X0027634Y0011000D02*
X0027636Y0011153D01*
X0027642Y0011307D01*
X0027652Y0011460D01*
X0027666Y0011612D01*
X0027684Y0011765D01*
X0027706Y0011916D01*
X0027731Y0012067D01*
X0027761Y0012218D01*
X0027795Y0012368D01*
X0027832Y0012516D01*
X0027873Y0012664D01*
X0027918Y0012810D01*
X0027967Y0012956D01*
X0028020Y0013100D01*
X0028076Y0013242D01*
X0028136Y0013383D01*
X0028200Y0013523D01*
X0028267Y0013661D01*
X0028338Y0013797D01*
X0028413Y0013931D01*
X0028490Y0014063D01*
X0028572Y0014193D01*
X0028656Y0014321D01*
X0028744Y0014447D01*
X0028835Y0014570D01*
X0028929Y0014691D01*
X0029027Y0014809D01*
X0029127Y0014925D01*
X0029231Y0015038D01*
X0029337Y0015149D01*
X0029446Y0015257D01*
X0029558Y0015362D01*
X0029672Y0015463D01*
X0029790Y0015562D01*
X0029909Y0015658D01*
X0030031Y0015751D01*
X0030156Y0015840D01*
X0030283Y0015927D01*
X0030412Y0016009D01*
X0030543Y0016089D01*
X0030676Y0016165D01*
X0030811Y0016238D01*
X0030948Y0016307D01*
X0031087Y0016372D01*
X0031227Y0016434D01*
X0031369Y0016492D01*
X0031512Y0016547D01*
X0031657Y0016598D01*
X0031803Y0016645D01*
X0031950Y0016688D01*
X0032098Y0016727D01*
X0032247Y0016763D01*
X0032397Y0016794D01*
X0032548Y0016822D01*
X0032699Y0016846D01*
X0032852Y0016866D01*
X0033004Y0016882D01*
X0033157Y0016894D01*
X0033310Y0016902D01*
X0033463Y0016906D01*
X0033617Y0016906D01*
X0033770Y0016902D01*
X0033923Y0016894D01*
X0034076Y0016882D01*
X0034228Y0016866D01*
X0034381Y0016846D01*
X0034532Y0016822D01*
X0034683Y0016794D01*
X0034833Y0016763D01*
X0034982Y0016727D01*
X0035130Y0016688D01*
X0035277Y0016645D01*
X0035423Y0016598D01*
X0035568Y0016547D01*
X0035711Y0016492D01*
X0035853Y0016434D01*
X0035993Y0016372D01*
X0036132Y0016307D01*
X0036269Y0016238D01*
X0036404Y0016165D01*
X0036537Y0016089D01*
X0036668Y0016009D01*
X0036797Y0015927D01*
X0036924Y0015840D01*
X0037049Y0015751D01*
X0037171Y0015658D01*
X0037290Y0015562D01*
X0037408Y0015463D01*
X0037522Y0015362D01*
X0037634Y0015257D01*
X0037743Y0015149D01*
X0037849Y0015038D01*
X0037953Y0014925D01*
X0038053Y0014809D01*
X0038151Y0014691D01*
X0038245Y0014570D01*
X0038336Y0014447D01*
X0038424Y0014321D01*
X0038508Y0014193D01*
X0038590Y0014063D01*
X0038667Y0013931D01*
X0038742Y0013797D01*
X0038813Y0013661D01*
X0038880Y0013523D01*
X0038944Y0013383D01*
X0039004Y0013242D01*
X0039060Y0013100D01*
X0039113Y0012956D01*
X0039162Y0012810D01*
X0039207Y0012664D01*
X0039248Y0012516D01*
X0039285Y0012368D01*
X0039319Y0012218D01*
X0039349Y0012067D01*
X0039374Y0011916D01*
X0039396Y0011765D01*
X0039414Y0011612D01*
X0039428Y0011460D01*
X0039438Y0011307D01*
X0039444Y0011153D01*
X0039446Y0011000D01*
X0039444Y0010847D01*
X0039438Y0010693D01*
X0039428Y0010540D01*
X0039414Y0010388D01*
X0039396Y0010235D01*
X0039374Y0010084D01*
X0039349Y0009933D01*
X0039319Y0009782D01*
X0039285Y0009632D01*
X0039248Y0009484D01*
X0039207Y0009336D01*
X0039162Y0009190D01*
X0039113Y0009044D01*
X0039060Y0008900D01*
X0039004Y0008758D01*
X0038944Y0008617D01*
X0038880Y0008477D01*
X0038813Y0008339D01*
X0038742Y0008203D01*
X0038667Y0008069D01*
X0038590Y0007937D01*
X0038508Y0007807D01*
X0038424Y0007679D01*
X0038336Y0007553D01*
X0038245Y0007430D01*
X0038151Y0007309D01*
X0038053Y0007191D01*
X0037953Y0007075D01*
X0037849Y0006962D01*
X0037743Y0006851D01*
X0037634Y0006743D01*
X0037522Y0006638D01*
X0037408Y0006537D01*
X0037290Y0006438D01*
X0037171Y0006342D01*
X0037049Y0006249D01*
X0036924Y0006160D01*
X0036797Y0006073D01*
X0036668Y0005991D01*
X0036537Y0005911D01*
X0036404Y0005835D01*
X0036269Y0005762D01*
X0036132Y0005693D01*
X0035993Y0005628D01*
X0035853Y0005566D01*
X0035711Y0005508D01*
X0035568Y0005453D01*
X0035423Y0005402D01*
X0035277Y0005355D01*
X0035130Y0005312D01*
X0034982Y0005273D01*
X0034833Y0005237D01*
X0034683Y0005206D01*
X0034532Y0005178D01*
X0034381Y0005154D01*
X0034228Y0005134D01*
X0034076Y0005118D01*
X0033923Y0005106D01*
X0033770Y0005098D01*
X0033617Y0005094D01*
X0033463Y0005094D01*
X0033310Y0005098D01*
X0033157Y0005106D01*
X0033004Y0005118D01*
X0032852Y0005134D01*
X0032699Y0005154D01*
X0032548Y0005178D01*
X0032397Y0005206D01*
X0032247Y0005237D01*
X0032098Y0005273D01*
X0031950Y0005312D01*
X0031803Y0005355D01*
X0031657Y0005402D01*
X0031512Y0005453D01*
X0031369Y0005508D01*
X0031227Y0005566D01*
X0031087Y0005628D01*
X0030948Y0005693D01*
X0030811Y0005762D01*
X0030676Y0005835D01*
X0030543Y0005911D01*
X0030412Y0005991D01*
X0030283Y0006073D01*
X0030156Y0006160D01*
X0030031Y0006249D01*
X0029909Y0006342D01*
X0029790Y0006438D01*
X0029672Y0006537D01*
X0029558Y0006638D01*
X0029446Y0006743D01*
X0029337Y0006851D01*
X0029231Y0006962D01*
X0029127Y0007075D01*
X0029027Y0007191D01*
X0028929Y0007309D01*
X0028835Y0007430D01*
X0028744Y0007553D01*
X0028656Y0007679D01*
X0028572Y0007807D01*
X0028490Y0007937D01*
X0028413Y0008069D01*
X0028338Y0008203D01*
X0028267Y0008339D01*
X0028200Y0008477D01*
X0028136Y0008617D01*
X0028076Y0008758D01*
X0028020Y0008900D01*
X0027967Y0009044D01*
X0027918Y0009190D01*
X0027873Y0009336D01*
X0027832Y0009484D01*
X0027795Y0009632D01*
X0027761Y0009782D01*
X0027731Y0009933D01*
X0027706Y0010084D01*
X0027684Y0010235D01*
X0027666Y0010388D01*
X0027652Y0010540D01*
X0027642Y0010693D01*
X0027636Y0010847D01*
X0027634Y0011000D01*
X0322634Y0011000D02*
X0322636Y0011153D01*
X0322642Y0011307D01*
X0322652Y0011460D01*
X0322666Y0011612D01*
X0322684Y0011765D01*
X0322706Y0011916D01*
X0322731Y0012067D01*
X0322761Y0012218D01*
X0322795Y0012368D01*
X0322832Y0012516D01*
X0322873Y0012664D01*
X0322918Y0012810D01*
X0322967Y0012956D01*
X0323020Y0013100D01*
X0323076Y0013242D01*
X0323136Y0013383D01*
X0323200Y0013523D01*
X0323267Y0013661D01*
X0323338Y0013797D01*
X0323413Y0013931D01*
X0323490Y0014063D01*
X0323572Y0014193D01*
X0323656Y0014321D01*
X0323744Y0014447D01*
X0323835Y0014570D01*
X0323929Y0014691D01*
X0324027Y0014809D01*
X0324127Y0014925D01*
X0324231Y0015038D01*
X0324337Y0015149D01*
X0324446Y0015257D01*
X0324558Y0015362D01*
X0324672Y0015463D01*
X0324790Y0015562D01*
X0324909Y0015658D01*
X0325031Y0015751D01*
X0325156Y0015840D01*
X0325283Y0015927D01*
X0325412Y0016009D01*
X0325543Y0016089D01*
X0325676Y0016165D01*
X0325811Y0016238D01*
X0325948Y0016307D01*
X0326087Y0016372D01*
X0326227Y0016434D01*
X0326369Y0016492D01*
X0326512Y0016547D01*
X0326657Y0016598D01*
X0326803Y0016645D01*
X0326950Y0016688D01*
X0327098Y0016727D01*
X0327247Y0016763D01*
X0327397Y0016794D01*
X0327548Y0016822D01*
X0327699Y0016846D01*
X0327852Y0016866D01*
X0328004Y0016882D01*
X0328157Y0016894D01*
X0328310Y0016902D01*
X0328463Y0016906D01*
X0328617Y0016906D01*
X0328770Y0016902D01*
X0328923Y0016894D01*
X0329076Y0016882D01*
X0329228Y0016866D01*
X0329381Y0016846D01*
X0329532Y0016822D01*
X0329683Y0016794D01*
X0329833Y0016763D01*
X0329982Y0016727D01*
X0330130Y0016688D01*
X0330277Y0016645D01*
X0330423Y0016598D01*
X0330568Y0016547D01*
X0330711Y0016492D01*
X0330853Y0016434D01*
X0330993Y0016372D01*
X0331132Y0016307D01*
X0331269Y0016238D01*
X0331404Y0016165D01*
X0331537Y0016089D01*
X0331668Y0016009D01*
X0331797Y0015927D01*
X0331924Y0015840D01*
X0332049Y0015751D01*
X0332171Y0015658D01*
X0332290Y0015562D01*
X0332408Y0015463D01*
X0332522Y0015362D01*
X0332634Y0015257D01*
X0332743Y0015149D01*
X0332849Y0015038D01*
X0332953Y0014925D01*
X0333053Y0014809D01*
X0333151Y0014691D01*
X0333245Y0014570D01*
X0333336Y0014447D01*
X0333424Y0014321D01*
X0333508Y0014193D01*
X0333590Y0014063D01*
X0333667Y0013931D01*
X0333742Y0013797D01*
X0333813Y0013661D01*
X0333880Y0013523D01*
X0333944Y0013383D01*
X0334004Y0013242D01*
X0334060Y0013100D01*
X0334113Y0012956D01*
X0334162Y0012810D01*
X0334207Y0012664D01*
X0334248Y0012516D01*
X0334285Y0012368D01*
X0334319Y0012218D01*
X0334349Y0012067D01*
X0334374Y0011916D01*
X0334396Y0011765D01*
X0334414Y0011612D01*
X0334428Y0011460D01*
X0334438Y0011307D01*
X0334444Y0011153D01*
X0334446Y0011000D01*
X0334444Y0010847D01*
X0334438Y0010693D01*
X0334428Y0010540D01*
X0334414Y0010388D01*
X0334396Y0010235D01*
X0334374Y0010084D01*
X0334349Y0009933D01*
X0334319Y0009782D01*
X0334285Y0009632D01*
X0334248Y0009484D01*
X0334207Y0009336D01*
X0334162Y0009190D01*
X0334113Y0009044D01*
X0334060Y0008900D01*
X0334004Y0008758D01*
X0333944Y0008617D01*
X0333880Y0008477D01*
X0333813Y0008339D01*
X0333742Y0008203D01*
X0333667Y0008069D01*
X0333590Y0007937D01*
X0333508Y0007807D01*
X0333424Y0007679D01*
X0333336Y0007553D01*
X0333245Y0007430D01*
X0333151Y0007309D01*
X0333053Y0007191D01*
X0332953Y0007075D01*
X0332849Y0006962D01*
X0332743Y0006851D01*
X0332634Y0006743D01*
X0332522Y0006638D01*
X0332408Y0006537D01*
X0332290Y0006438D01*
X0332171Y0006342D01*
X0332049Y0006249D01*
X0331924Y0006160D01*
X0331797Y0006073D01*
X0331668Y0005991D01*
X0331537Y0005911D01*
X0331404Y0005835D01*
X0331269Y0005762D01*
X0331132Y0005693D01*
X0330993Y0005628D01*
X0330853Y0005566D01*
X0330711Y0005508D01*
X0330568Y0005453D01*
X0330423Y0005402D01*
X0330277Y0005355D01*
X0330130Y0005312D01*
X0329982Y0005273D01*
X0329833Y0005237D01*
X0329683Y0005206D01*
X0329532Y0005178D01*
X0329381Y0005154D01*
X0329228Y0005134D01*
X0329076Y0005118D01*
X0328923Y0005106D01*
X0328770Y0005098D01*
X0328617Y0005094D01*
X0328463Y0005094D01*
X0328310Y0005098D01*
X0328157Y0005106D01*
X0328004Y0005118D01*
X0327852Y0005134D01*
X0327699Y0005154D01*
X0327548Y0005178D01*
X0327397Y0005206D01*
X0327247Y0005237D01*
X0327098Y0005273D01*
X0326950Y0005312D01*
X0326803Y0005355D01*
X0326657Y0005402D01*
X0326512Y0005453D01*
X0326369Y0005508D01*
X0326227Y0005566D01*
X0326087Y0005628D01*
X0325948Y0005693D01*
X0325811Y0005762D01*
X0325676Y0005835D01*
X0325543Y0005911D01*
X0325412Y0005991D01*
X0325283Y0006073D01*
X0325156Y0006160D01*
X0325031Y0006249D01*
X0324909Y0006342D01*
X0324790Y0006438D01*
X0324672Y0006537D01*
X0324558Y0006638D01*
X0324446Y0006743D01*
X0324337Y0006851D01*
X0324231Y0006962D01*
X0324127Y0007075D01*
X0324027Y0007191D01*
X0323929Y0007309D01*
X0323835Y0007430D01*
X0323744Y0007553D01*
X0323656Y0007679D01*
X0323572Y0007807D01*
X0323490Y0007937D01*
X0323413Y0008069D01*
X0323338Y0008203D01*
X0323267Y0008339D01*
X0323200Y0008477D01*
X0323136Y0008617D01*
X0323076Y0008758D01*
X0323020Y0008900D01*
X0322967Y0009044D01*
X0322918Y0009190D01*
X0322873Y0009336D01*
X0322832Y0009484D01*
X0322795Y0009632D01*
X0322761Y0009782D01*
X0322731Y0009933D01*
X0322706Y0010084D01*
X0322684Y0010235D01*
X0322666Y0010388D01*
X0322652Y0010540D01*
X0322642Y0010693D01*
X0322636Y0010847D01*
X0322634Y0011000D01*
X0322634Y0146000D02*
X0322636Y0146153D01*
X0322642Y0146307D01*
X0322652Y0146460D01*
X0322666Y0146612D01*
X0322684Y0146765D01*
X0322706Y0146916D01*
X0322731Y0147067D01*
X0322761Y0147218D01*
X0322795Y0147368D01*
X0322832Y0147516D01*
X0322873Y0147664D01*
X0322918Y0147810D01*
X0322967Y0147956D01*
X0323020Y0148100D01*
X0323076Y0148242D01*
X0323136Y0148383D01*
X0323200Y0148523D01*
X0323267Y0148661D01*
X0323338Y0148797D01*
X0323413Y0148931D01*
X0323490Y0149063D01*
X0323572Y0149193D01*
X0323656Y0149321D01*
X0323744Y0149447D01*
X0323835Y0149570D01*
X0323929Y0149691D01*
X0324027Y0149809D01*
X0324127Y0149925D01*
X0324231Y0150038D01*
X0324337Y0150149D01*
X0324446Y0150257D01*
X0324558Y0150362D01*
X0324672Y0150463D01*
X0324790Y0150562D01*
X0324909Y0150658D01*
X0325031Y0150751D01*
X0325156Y0150840D01*
X0325283Y0150927D01*
X0325412Y0151009D01*
X0325543Y0151089D01*
X0325676Y0151165D01*
X0325811Y0151238D01*
X0325948Y0151307D01*
X0326087Y0151372D01*
X0326227Y0151434D01*
X0326369Y0151492D01*
X0326512Y0151547D01*
X0326657Y0151598D01*
X0326803Y0151645D01*
X0326950Y0151688D01*
X0327098Y0151727D01*
X0327247Y0151763D01*
X0327397Y0151794D01*
X0327548Y0151822D01*
X0327699Y0151846D01*
X0327852Y0151866D01*
X0328004Y0151882D01*
X0328157Y0151894D01*
X0328310Y0151902D01*
X0328463Y0151906D01*
X0328617Y0151906D01*
X0328770Y0151902D01*
X0328923Y0151894D01*
X0329076Y0151882D01*
X0329228Y0151866D01*
X0329381Y0151846D01*
X0329532Y0151822D01*
X0329683Y0151794D01*
X0329833Y0151763D01*
X0329982Y0151727D01*
X0330130Y0151688D01*
X0330277Y0151645D01*
X0330423Y0151598D01*
X0330568Y0151547D01*
X0330711Y0151492D01*
X0330853Y0151434D01*
X0330993Y0151372D01*
X0331132Y0151307D01*
X0331269Y0151238D01*
X0331404Y0151165D01*
X0331537Y0151089D01*
X0331668Y0151009D01*
X0331797Y0150927D01*
X0331924Y0150840D01*
X0332049Y0150751D01*
X0332171Y0150658D01*
X0332290Y0150562D01*
X0332408Y0150463D01*
X0332522Y0150362D01*
X0332634Y0150257D01*
X0332743Y0150149D01*
X0332849Y0150038D01*
X0332953Y0149925D01*
X0333053Y0149809D01*
X0333151Y0149691D01*
X0333245Y0149570D01*
X0333336Y0149447D01*
X0333424Y0149321D01*
X0333508Y0149193D01*
X0333590Y0149063D01*
X0333667Y0148931D01*
X0333742Y0148797D01*
X0333813Y0148661D01*
X0333880Y0148523D01*
X0333944Y0148383D01*
X0334004Y0148242D01*
X0334060Y0148100D01*
X0334113Y0147956D01*
X0334162Y0147810D01*
X0334207Y0147664D01*
X0334248Y0147516D01*
X0334285Y0147368D01*
X0334319Y0147218D01*
X0334349Y0147067D01*
X0334374Y0146916D01*
X0334396Y0146765D01*
X0334414Y0146612D01*
X0334428Y0146460D01*
X0334438Y0146307D01*
X0334444Y0146153D01*
X0334446Y0146000D01*
X0334444Y0145847D01*
X0334438Y0145693D01*
X0334428Y0145540D01*
X0334414Y0145388D01*
X0334396Y0145235D01*
X0334374Y0145084D01*
X0334349Y0144933D01*
X0334319Y0144782D01*
X0334285Y0144632D01*
X0334248Y0144484D01*
X0334207Y0144336D01*
X0334162Y0144190D01*
X0334113Y0144044D01*
X0334060Y0143900D01*
X0334004Y0143758D01*
X0333944Y0143617D01*
X0333880Y0143477D01*
X0333813Y0143339D01*
X0333742Y0143203D01*
X0333667Y0143069D01*
X0333590Y0142937D01*
X0333508Y0142807D01*
X0333424Y0142679D01*
X0333336Y0142553D01*
X0333245Y0142430D01*
X0333151Y0142309D01*
X0333053Y0142191D01*
X0332953Y0142075D01*
X0332849Y0141962D01*
X0332743Y0141851D01*
X0332634Y0141743D01*
X0332522Y0141638D01*
X0332408Y0141537D01*
X0332290Y0141438D01*
X0332171Y0141342D01*
X0332049Y0141249D01*
X0331924Y0141160D01*
X0331797Y0141073D01*
X0331668Y0140991D01*
X0331537Y0140911D01*
X0331404Y0140835D01*
X0331269Y0140762D01*
X0331132Y0140693D01*
X0330993Y0140628D01*
X0330853Y0140566D01*
X0330711Y0140508D01*
X0330568Y0140453D01*
X0330423Y0140402D01*
X0330277Y0140355D01*
X0330130Y0140312D01*
X0329982Y0140273D01*
X0329833Y0140237D01*
X0329683Y0140206D01*
X0329532Y0140178D01*
X0329381Y0140154D01*
X0329228Y0140134D01*
X0329076Y0140118D01*
X0328923Y0140106D01*
X0328770Y0140098D01*
X0328617Y0140094D01*
X0328463Y0140094D01*
X0328310Y0140098D01*
X0328157Y0140106D01*
X0328004Y0140118D01*
X0327852Y0140134D01*
X0327699Y0140154D01*
X0327548Y0140178D01*
X0327397Y0140206D01*
X0327247Y0140237D01*
X0327098Y0140273D01*
X0326950Y0140312D01*
X0326803Y0140355D01*
X0326657Y0140402D01*
X0326512Y0140453D01*
X0326369Y0140508D01*
X0326227Y0140566D01*
X0326087Y0140628D01*
X0325948Y0140693D01*
X0325811Y0140762D01*
X0325676Y0140835D01*
X0325543Y0140911D01*
X0325412Y0140991D01*
X0325283Y0141073D01*
X0325156Y0141160D01*
X0325031Y0141249D01*
X0324909Y0141342D01*
X0324790Y0141438D01*
X0324672Y0141537D01*
X0324558Y0141638D01*
X0324446Y0141743D01*
X0324337Y0141851D01*
X0324231Y0141962D01*
X0324127Y0142075D01*
X0324027Y0142191D01*
X0323929Y0142309D01*
X0323835Y0142430D01*
X0323744Y0142553D01*
X0323656Y0142679D01*
X0323572Y0142807D01*
X0323490Y0142937D01*
X0323413Y0143069D01*
X0323338Y0143203D01*
X0323267Y0143339D01*
X0323200Y0143477D01*
X0323136Y0143617D01*
X0323076Y0143758D01*
X0323020Y0143900D01*
X0322967Y0144044D01*
X0322918Y0144190D01*
X0322873Y0144336D01*
X0322832Y0144484D01*
X0322795Y0144632D01*
X0322761Y0144782D01*
X0322731Y0144933D01*
X0322706Y0145084D01*
X0322684Y0145235D01*
X0322666Y0145388D01*
X0322652Y0145540D01*
X0322642Y0145693D01*
X0322636Y0145847D01*
X0322634Y0146000D01*
X0322634Y0176000D02*
X0322636Y0176153D01*
X0322642Y0176307D01*
X0322652Y0176460D01*
X0322666Y0176612D01*
X0322684Y0176765D01*
X0322706Y0176916D01*
X0322731Y0177067D01*
X0322761Y0177218D01*
X0322795Y0177368D01*
X0322832Y0177516D01*
X0322873Y0177664D01*
X0322918Y0177810D01*
X0322967Y0177956D01*
X0323020Y0178100D01*
X0323076Y0178242D01*
X0323136Y0178383D01*
X0323200Y0178523D01*
X0323267Y0178661D01*
X0323338Y0178797D01*
X0323413Y0178931D01*
X0323490Y0179063D01*
X0323572Y0179193D01*
X0323656Y0179321D01*
X0323744Y0179447D01*
X0323835Y0179570D01*
X0323929Y0179691D01*
X0324027Y0179809D01*
X0324127Y0179925D01*
X0324231Y0180038D01*
X0324337Y0180149D01*
X0324446Y0180257D01*
X0324558Y0180362D01*
X0324672Y0180463D01*
X0324790Y0180562D01*
X0324909Y0180658D01*
X0325031Y0180751D01*
X0325156Y0180840D01*
X0325283Y0180927D01*
X0325412Y0181009D01*
X0325543Y0181089D01*
X0325676Y0181165D01*
X0325811Y0181238D01*
X0325948Y0181307D01*
X0326087Y0181372D01*
X0326227Y0181434D01*
X0326369Y0181492D01*
X0326512Y0181547D01*
X0326657Y0181598D01*
X0326803Y0181645D01*
X0326950Y0181688D01*
X0327098Y0181727D01*
X0327247Y0181763D01*
X0327397Y0181794D01*
X0327548Y0181822D01*
X0327699Y0181846D01*
X0327852Y0181866D01*
X0328004Y0181882D01*
X0328157Y0181894D01*
X0328310Y0181902D01*
X0328463Y0181906D01*
X0328617Y0181906D01*
X0328770Y0181902D01*
X0328923Y0181894D01*
X0329076Y0181882D01*
X0329228Y0181866D01*
X0329381Y0181846D01*
X0329532Y0181822D01*
X0329683Y0181794D01*
X0329833Y0181763D01*
X0329982Y0181727D01*
X0330130Y0181688D01*
X0330277Y0181645D01*
X0330423Y0181598D01*
X0330568Y0181547D01*
X0330711Y0181492D01*
X0330853Y0181434D01*
X0330993Y0181372D01*
X0331132Y0181307D01*
X0331269Y0181238D01*
X0331404Y0181165D01*
X0331537Y0181089D01*
X0331668Y0181009D01*
X0331797Y0180927D01*
X0331924Y0180840D01*
X0332049Y0180751D01*
X0332171Y0180658D01*
X0332290Y0180562D01*
X0332408Y0180463D01*
X0332522Y0180362D01*
X0332634Y0180257D01*
X0332743Y0180149D01*
X0332849Y0180038D01*
X0332953Y0179925D01*
X0333053Y0179809D01*
X0333151Y0179691D01*
X0333245Y0179570D01*
X0333336Y0179447D01*
X0333424Y0179321D01*
X0333508Y0179193D01*
X0333590Y0179063D01*
X0333667Y0178931D01*
X0333742Y0178797D01*
X0333813Y0178661D01*
X0333880Y0178523D01*
X0333944Y0178383D01*
X0334004Y0178242D01*
X0334060Y0178100D01*
X0334113Y0177956D01*
X0334162Y0177810D01*
X0334207Y0177664D01*
X0334248Y0177516D01*
X0334285Y0177368D01*
X0334319Y0177218D01*
X0334349Y0177067D01*
X0334374Y0176916D01*
X0334396Y0176765D01*
X0334414Y0176612D01*
X0334428Y0176460D01*
X0334438Y0176307D01*
X0334444Y0176153D01*
X0334446Y0176000D01*
X0334444Y0175847D01*
X0334438Y0175693D01*
X0334428Y0175540D01*
X0334414Y0175388D01*
X0334396Y0175235D01*
X0334374Y0175084D01*
X0334349Y0174933D01*
X0334319Y0174782D01*
X0334285Y0174632D01*
X0334248Y0174484D01*
X0334207Y0174336D01*
X0334162Y0174190D01*
X0334113Y0174044D01*
X0334060Y0173900D01*
X0334004Y0173758D01*
X0333944Y0173617D01*
X0333880Y0173477D01*
X0333813Y0173339D01*
X0333742Y0173203D01*
X0333667Y0173069D01*
X0333590Y0172937D01*
X0333508Y0172807D01*
X0333424Y0172679D01*
X0333336Y0172553D01*
X0333245Y0172430D01*
X0333151Y0172309D01*
X0333053Y0172191D01*
X0332953Y0172075D01*
X0332849Y0171962D01*
X0332743Y0171851D01*
X0332634Y0171743D01*
X0332522Y0171638D01*
X0332408Y0171537D01*
X0332290Y0171438D01*
X0332171Y0171342D01*
X0332049Y0171249D01*
X0331924Y0171160D01*
X0331797Y0171073D01*
X0331668Y0170991D01*
X0331537Y0170911D01*
X0331404Y0170835D01*
X0331269Y0170762D01*
X0331132Y0170693D01*
X0330993Y0170628D01*
X0330853Y0170566D01*
X0330711Y0170508D01*
X0330568Y0170453D01*
X0330423Y0170402D01*
X0330277Y0170355D01*
X0330130Y0170312D01*
X0329982Y0170273D01*
X0329833Y0170237D01*
X0329683Y0170206D01*
X0329532Y0170178D01*
X0329381Y0170154D01*
X0329228Y0170134D01*
X0329076Y0170118D01*
X0328923Y0170106D01*
X0328770Y0170098D01*
X0328617Y0170094D01*
X0328463Y0170094D01*
X0328310Y0170098D01*
X0328157Y0170106D01*
X0328004Y0170118D01*
X0327852Y0170134D01*
X0327699Y0170154D01*
X0327548Y0170178D01*
X0327397Y0170206D01*
X0327247Y0170237D01*
X0327098Y0170273D01*
X0326950Y0170312D01*
X0326803Y0170355D01*
X0326657Y0170402D01*
X0326512Y0170453D01*
X0326369Y0170508D01*
X0326227Y0170566D01*
X0326087Y0170628D01*
X0325948Y0170693D01*
X0325811Y0170762D01*
X0325676Y0170835D01*
X0325543Y0170911D01*
X0325412Y0170991D01*
X0325283Y0171073D01*
X0325156Y0171160D01*
X0325031Y0171249D01*
X0324909Y0171342D01*
X0324790Y0171438D01*
X0324672Y0171537D01*
X0324558Y0171638D01*
X0324446Y0171743D01*
X0324337Y0171851D01*
X0324231Y0171962D01*
X0324127Y0172075D01*
X0324027Y0172191D01*
X0323929Y0172309D01*
X0323835Y0172430D01*
X0323744Y0172553D01*
X0323656Y0172679D01*
X0323572Y0172807D01*
X0323490Y0172937D01*
X0323413Y0173069D01*
X0323338Y0173203D01*
X0323267Y0173339D01*
X0323200Y0173477D01*
X0323136Y0173617D01*
X0323076Y0173758D01*
X0323020Y0173900D01*
X0322967Y0174044D01*
X0322918Y0174190D01*
X0322873Y0174336D01*
X0322832Y0174484D01*
X0322795Y0174632D01*
X0322761Y0174782D01*
X0322731Y0174933D01*
X0322706Y0175084D01*
X0322684Y0175235D01*
X0322666Y0175388D01*
X0322652Y0175540D01*
X0322642Y0175693D01*
X0322636Y0175847D01*
X0322634Y0176000D01*
X0322634Y0226000D02*
X0322636Y0226153D01*
X0322642Y0226307D01*
X0322652Y0226460D01*
X0322666Y0226612D01*
X0322684Y0226765D01*
X0322706Y0226916D01*
X0322731Y0227067D01*
X0322761Y0227218D01*
X0322795Y0227368D01*
X0322832Y0227516D01*
X0322873Y0227664D01*
X0322918Y0227810D01*
X0322967Y0227956D01*
X0323020Y0228100D01*
X0323076Y0228242D01*
X0323136Y0228383D01*
X0323200Y0228523D01*
X0323267Y0228661D01*
X0323338Y0228797D01*
X0323413Y0228931D01*
X0323490Y0229063D01*
X0323572Y0229193D01*
X0323656Y0229321D01*
X0323744Y0229447D01*
X0323835Y0229570D01*
X0323929Y0229691D01*
X0324027Y0229809D01*
X0324127Y0229925D01*
X0324231Y0230038D01*
X0324337Y0230149D01*
X0324446Y0230257D01*
X0324558Y0230362D01*
X0324672Y0230463D01*
X0324790Y0230562D01*
X0324909Y0230658D01*
X0325031Y0230751D01*
X0325156Y0230840D01*
X0325283Y0230927D01*
X0325412Y0231009D01*
X0325543Y0231089D01*
X0325676Y0231165D01*
X0325811Y0231238D01*
X0325948Y0231307D01*
X0326087Y0231372D01*
X0326227Y0231434D01*
X0326369Y0231492D01*
X0326512Y0231547D01*
X0326657Y0231598D01*
X0326803Y0231645D01*
X0326950Y0231688D01*
X0327098Y0231727D01*
X0327247Y0231763D01*
X0327397Y0231794D01*
X0327548Y0231822D01*
X0327699Y0231846D01*
X0327852Y0231866D01*
X0328004Y0231882D01*
X0328157Y0231894D01*
X0328310Y0231902D01*
X0328463Y0231906D01*
X0328617Y0231906D01*
X0328770Y0231902D01*
X0328923Y0231894D01*
X0329076Y0231882D01*
X0329228Y0231866D01*
X0329381Y0231846D01*
X0329532Y0231822D01*
X0329683Y0231794D01*
X0329833Y0231763D01*
X0329982Y0231727D01*
X0330130Y0231688D01*
X0330277Y0231645D01*
X0330423Y0231598D01*
X0330568Y0231547D01*
X0330711Y0231492D01*
X0330853Y0231434D01*
X0330993Y0231372D01*
X0331132Y0231307D01*
X0331269Y0231238D01*
X0331404Y0231165D01*
X0331537Y0231089D01*
X0331668Y0231009D01*
X0331797Y0230927D01*
X0331924Y0230840D01*
X0332049Y0230751D01*
X0332171Y0230658D01*
X0332290Y0230562D01*
X0332408Y0230463D01*
X0332522Y0230362D01*
X0332634Y0230257D01*
X0332743Y0230149D01*
X0332849Y0230038D01*
X0332953Y0229925D01*
X0333053Y0229809D01*
X0333151Y0229691D01*
X0333245Y0229570D01*
X0333336Y0229447D01*
X0333424Y0229321D01*
X0333508Y0229193D01*
X0333590Y0229063D01*
X0333667Y0228931D01*
X0333742Y0228797D01*
X0333813Y0228661D01*
X0333880Y0228523D01*
X0333944Y0228383D01*
X0334004Y0228242D01*
X0334060Y0228100D01*
X0334113Y0227956D01*
X0334162Y0227810D01*
X0334207Y0227664D01*
X0334248Y0227516D01*
X0334285Y0227368D01*
X0334319Y0227218D01*
X0334349Y0227067D01*
X0334374Y0226916D01*
X0334396Y0226765D01*
X0334414Y0226612D01*
X0334428Y0226460D01*
X0334438Y0226307D01*
X0334444Y0226153D01*
X0334446Y0226000D01*
X0334444Y0225847D01*
X0334438Y0225693D01*
X0334428Y0225540D01*
X0334414Y0225388D01*
X0334396Y0225235D01*
X0334374Y0225084D01*
X0334349Y0224933D01*
X0334319Y0224782D01*
X0334285Y0224632D01*
X0334248Y0224484D01*
X0334207Y0224336D01*
X0334162Y0224190D01*
X0334113Y0224044D01*
X0334060Y0223900D01*
X0334004Y0223758D01*
X0333944Y0223617D01*
X0333880Y0223477D01*
X0333813Y0223339D01*
X0333742Y0223203D01*
X0333667Y0223069D01*
X0333590Y0222937D01*
X0333508Y0222807D01*
X0333424Y0222679D01*
X0333336Y0222553D01*
X0333245Y0222430D01*
X0333151Y0222309D01*
X0333053Y0222191D01*
X0332953Y0222075D01*
X0332849Y0221962D01*
X0332743Y0221851D01*
X0332634Y0221743D01*
X0332522Y0221638D01*
X0332408Y0221537D01*
X0332290Y0221438D01*
X0332171Y0221342D01*
X0332049Y0221249D01*
X0331924Y0221160D01*
X0331797Y0221073D01*
X0331668Y0220991D01*
X0331537Y0220911D01*
X0331404Y0220835D01*
X0331269Y0220762D01*
X0331132Y0220693D01*
X0330993Y0220628D01*
X0330853Y0220566D01*
X0330711Y0220508D01*
X0330568Y0220453D01*
X0330423Y0220402D01*
X0330277Y0220355D01*
X0330130Y0220312D01*
X0329982Y0220273D01*
X0329833Y0220237D01*
X0329683Y0220206D01*
X0329532Y0220178D01*
X0329381Y0220154D01*
X0329228Y0220134D01*
X0329076Y0220118D01*
X0328923Y0220106D01*
X0328770Y0220098D01*
X0328617Y0220094D01*
X0328463Y0220094D01*
X0328310Y0220098D01*
X0328157Y0220106D01*
X0328004Y0220118D01*
X0327852Y0220134D01*
X0327699Y0220154D01*
X0327548Y0220178D01*
X0327397Y0220206D01*
X0327247Y0220237D01*
X0327098Y0220273D01*
X0326950Y0220312D01*
X0326803Y0220355D01*
X0326657Y0220402D01*
X0326512Y0220453D01*
X0326369Y0220508D01*
X0326227Y0220566D01*
X0326087Y0220628D01*
X0325948Y0220693D01*
X0325811Y0220762D01*
X0325676Y0220835D01*
X0325543Y0220911D01*
X0325412Y0220991D01*
X0325283Y0221073D01*
X0325156Y0221160D01*
X0325031Y0221249D01*
X0324909Y0221342D01*
X0324790Y0221438D01*
X0324672Y0221537D01*
X0324558Y0221638D01*
X0324446Y0221743D01*
X0324337Y0221851D01*
X0324231Y0221962D01*
X0324127Y0222075D01*
X0324027Y0222191D01*
X0323929Y0222309D01*
X0323835Y0222430D01*
X0323744Y0222553D01*
X0323656Y0222679D01*
X0323572Y0222807D01*
X0323490Y0222937D01*
X0323413Y0223069D01*
X0323338Y0223203D01*
X0323267Y0223339D01*
X0323200Y0223477D01*
X0323136Y0223617D01*
X0323076Y0223758D01*
X0323020Y0223900D01*
X0322967Y0224044D01*
X0322918Y0224190D01*
X0322873Y0224336D01*
X0322832Y0224484D01*
X0322795Y0224632D01*
X0322761Y0224782D01*
X0322731Y0224933D01*
X0322706Y0225084D01*
X0322684Y0225235D01*
X0322666Y0225388D01*
X0322652Y0225540D01*
X0322642Y0225693D01*
X0322636Y0225847D01*
X0322634Y0226000D01*
D11*
X0318540Y0123600D02*
X0318540Y0118400D01*
X0308540Y0118400D02*
X0308540Y0123600D01*
X0298540Y0123600D02*
X0298540Y0118400D01*
X0288540Y0118400D02*
X0288540Y0123600D01*
X0278540Y0123600D02*
X0278540Y0118400D01*
X0268540Y0118400D02*
X0268540Y0123600D01*
X0258540Y0123600D02*
X0258540Y0118400D01*
X0248540Y0118400D02*
X0248540Y0123600D01*
X0238540Y0123600D02*
X0238540Y0118400D01*
X0218540Y0118400D02*
X0218540Y0123600D01*
X0208540Y0123600D02*
X0208540Y0118400D01*
X0198540Y0118400D02*
X0198540Y0123600D01*
X0188540Y0123600D02*
X0188540Y0118400D01*
X0178540Y0118400D02*
X0178540Y0123600D01*
X0168540Y0123600D02*
X0168540Y0118400D01*
X0158540Y0118400D02*
X0158540Y0123600D01*
X0148540Y0123600D02*
X0148540Y0118400D01*
X0138540Y0118400D02*
X0138540Y0123600D01*
X0118540Y0123600D02*
X0118540Y0118400D01*
X0108540Y0118400D02*
X0108540Y0123600D01*
X0098540Y0123600D02*
X0098540Y0118400D01*
X0088540Y0118400D02*
X0088540Y0123600D01*
X0078540Y0123600D02*
X0078540Y0118400D01*
X0068540Y0118400D02*
X0068540Y0123600D01*
X0058540Y0123600D02*
X0058540Y0118400D01*
X0048540Y0118400D02*
X0048540Y0123600D01*
X0038540Y0123600D02*
X0038540Y0118400D01*
X0038540Y0093600D02*
X0038540Y0088400D01*
X0048540Y0088400D02*
X0048540Y0093600D01*
X0058540Y0093600D02*
X0058540Y0088400D01*
X0068540Y0088400D02*
X0068540Y0093600D01*
X0078540Y0093600D02*
X0078540Y0088400D01*
X0088540Y0088400D02*
X0088540Y0093600D01*
X0098540Y0093600D02*
X0098540Y0088400D01*
X0108540Y0088400D02*
X0108540Y0093600D01*
X0118540Y0093600D02*
X0118540Y0088400D01*
X0138540Y0088400D02*
X0138540Y0093600D01*
X0148540Y0093600D02*
X0148540Y0088400D01*
X0158540Y0088400D02*
X0158540Y0093600D01*
X0168540Y0093600D02*
X0168540Y0088400D01*
X0178540Y0088400D02*
X0178540Y0093600D01*
X0188540Y0093600D02*
X0188540Y0088400D01*
X0198540Y0088400D02*
X0198540Y0093600D01*
X0208540Y0093600D02*
X0208540Y0088400D01*
X0218540Y0088400D02*
X0218540Y0093600D01*
X0238540Y0093600D02*
X0238540Y0088400D01*
X0248540Y0088400D02*
X0248540Y0093600D01*
X0258540Y0093600D02*
X0258540Y0088400D01*
X0268540Y0088400D02*
X0268540Y0093600D01*
X0278540Y0093600D02*
X0278540Y0088400D01*
X0288540Y0088400D02*
X0288540Y0093600D01*
X0298540Y0093600D02*
X0298540Y0088400D01*
X0308540Y0088400D02*
X0308540Y0093600D01*
X0318540Y0093600D02*
X0318540Y0088400D01*
D12*
X0283540Y0031000D03*
X0283540Y0021000D03*
X0113540Y0011000D03*
X0113540Y0071000D03*
X0123540Y0171000D03*
X0173540Y0221000D03*
X0123540Y0231000D03*
X0293540Y0221000D03*
X0303540Y0221000D03*
X0313540Y0221000D03*
X0293540Y0181000D03*
D13*
X0283540Y0181000D03*
X0273540Y0181000D03*
X0263540Y0181000D03*
X0263540Y0171000D03*
X0253540Y0171000D03*
X0243540Y0171000D03*
X0233540Y0171000D03*
X0223540Y0171000D03*
X0213540Y0171000D03*
X0203540Y0171000D03*
X0193540Y0171000D03*
X0183540Y0171000D03*
X0173540Y0171000D03*
X0163540Y0171000D03*
X0153540Y0171000D03*
X0143540Y0171000D03*
X0133540Y0171000D03*
X0163540Y0191000D03*
X0173540Y0191000D03*
X0173540Y0201000D03*
X0163540Y0201000D03*
X0163540Y0211000D03*
X0173540Y0211000D03*
X0163540Y0221000D03*
X0163540Y0231000D03*
X0153540Y0231000D03*
X0143540Y0231000D03*
X0133540Y0231000D03*
X0173540Y0231000D03*
X0183540Y0231000D03*
X0193540Y0231000D03*
X0203540Y0231000D03*
X0213540Y0231000D03*
X0223540Y0231000D03*
X0233540Y0231000D03*
X0243540Y0231000D03*
X0253540Y0231000D03*
X0263540Y0231000D03*
X0273540Y0231000D03*
X0283540Y0231000D03*
X0293540Y0231000D03*
X0303540Y0231000D03*
X0313540Y0231000D03*
X0283540Y0220685D03*
X0273540Y0220685D03*
X0263540Y0220685D03*
X0253540Y0220685D03*
X0223540Y0220685D03*
X0213540Y0220685D03*
X0203540Y0220685D03*
X0193540Y0220685D03*
X0273540Y0171000D03*
X0283540Y0171000D03*
X0293540Y0171000D03*
X0303540Y0171000D03*
X0313540Y0171000D03*
X0303540Y0071000D03*
X0293540Y0071000D03*
X0283540Y0071000D03*
X0273540Y0071000D03*
X0263540Y0071000D03*
X0253540Y0071000D03*
X0243540Y0071000D03*
X0233540Y0071000D03*
X0223540Y0071000D03*
X0213540Y0071000D03*
X0203540Y0071000D03*
X0193540Y0071000D03*
X0183540Y0071000D03*
X0173540Y0071000D03*
X0163540Y0071000D03*
X0153540Y0071000D03*
X0143540Y0071000D03*
X0133540Y0071000D03*
X0123540Y0071000D03*
X0123540Y0011000D03*
X0133540Y0011000D03*
X0143540Y0011000D03*
X0153540Y0011000D03*
X0163540Y0011000D03*
X0173540Y0011000D03*
X0183540Y0011000D03*
X0193540Y0011000D03*
X0203540Y0011000D03*
X0213540Y0011000D03*
X0223540Y0011000D03*
X0233540Y0011000D03*
X0243540Y0011000D03*
X0253540Y0011000D03*
X0263540Y0011000D03*
X0273540Y0011000D03*
X0283540Y0011000D03*
X0293540Y0011000D03*
X0303540Y0011000D03*
X0293540Y0031000D03*
X0293540Y0041000D03*
X0283540Y0041000D03*
X0283540Y0051000D03*
X0293540Y0051000D03*
X0293540Y0061000D03*
X0283540Y0061000D03*
X0273540Y0021000D03*
X0263540Y0021000D03*
X0253540Y0021000D03*
D14*
X0248540Y0138031D02*
X0248540Y0143969D01*
X0238540Y0143969D02*
X0238540Y0138031D01*
X0258540Y0138031D02*
X0258540Y0143969D01*
X0268540Y0143969D02*
X0268540Y0138031D01*
X0278540Y0138031D02*
X0278540Y0143969D01*
X0288540Y0143969D02*
X0288540Y0138031D01*
X0298540Y0138031D02*
X0298540Y0143969D01*
X0308540Y0143969D02*
X0308540Y0138031D01*
X0208540Y0138031D02*
X0208540Y0143969D01*
X0198540Y0143969D02*
X0198540Y0138031D01*
X0188540Y0138031D02*
X0188540Y0143969D01*
X0178540Y0143969D02*
X0178540Y0138031D01*
X0168540Y0138031D02*
X0168540Y0143969D01*
X0158540Y0143969D02*
X0158540Y0138031D01*
X0148540Y0138031D02*
X0148540Y0143969D01*
X0138540Y0143969D02*
X0138540Y0138031D01*
X0108540Y0138031D02*
X0108540Y0143969D01*
X0098540Y0143969D02*
X0098540Y0138031D01*
X0088540Y0138031D02*
X0088540Y0143969D01*
X0078540Y0143969D02*
X0078540Y0138031D01*
X0068540Y0138031D02*
X0068540Y0143969D01*
X0058540Y0143969D02*
X0058540Y0138031D01*
X0048540Y0138031D02*
X0048540Y0143969D01*
X0038540Y0143969D02*
X0038540Y0138031D01*
D15*
X0063698Y0029525D02*
X0063698Y0022475D01*
X0083383Y0022475D02*
X0083383Y0029525D01*
D16*
X0213540Y0181315D03*
X0223540Y0181315D03*
D17*
X0223225Y0191000D02*
X0222991Y0190997D01*
X0222757Y0190989D01*
X0222523Y0190975D01*
X0222290Y0190955D01*
X0222058Y0190929D01*
X0221826Y0190898D01*
X0221594Y0190862D01*
X0221364Y0190820D01*
X0221135Y0190772D01*
X0220907Y0190719D01*
X0220681Y0190660D01*
X0220456Y0190596D01*
X0220232Y0190526D01*
X0220010Y0190451D01*
X0219791Y0190371D01*
X0219573Y0190285D01*
X0219357Y0190194D01*
X0219144Y0190098D01*
X0218933Y0189997D01*
X0218724Y0189891D01*
X0218518Y0189779D01*
X0218315Y0189663D01*
X0218115Y0189542D01*
X0217917Y0189416D01*
X0217723Y0189286D01*
X0217532Y0189150D01*
X0217345Y0189010D01*
X0217160Y0188866D01*
X0216980Y0188717D01*
X0216803Y0188564D01*
X0216629Y0188407D01*
X0216460Y0188246D01*
X0216294Y0188080D01*
X0216133Y0187911D01*
X0215976Y0187737D01*
X0215823Y0187560D01*
X0215674Y0187380D01*
X0215530Y0187195D01*
X0215390Y0187008D01*
X0215254Y0186817D01*
X0215124Y0186623D01*
X0214998Y0186425D01*
X0214877Y0186225D01*
X0214761Y0186022D01*
X0214649Y0185816D01*
X0214543Y0185607D01*
X0214442Y0185396D01*
X0214346Y0185183D01*
X0214255Y0184967D01*
X0214169Y0184749D01*
X0214089Y0184530D01*
X0214014Y0184308D01*
X0213944Y0184084D01*
X0213880Y0183859D01*
X0213821Y0183633D01*
X0213768Y0183405D01*
X0213720Y0183176D01*
X0213678Y0182946D01*
X0213642Y0182714D01*
X0213611Y0182482D01*
X0213585Y0182250D01*
X0213565Y0182017D01*
X0213551Y0181783D01*
X0213543Y0181549D01*
X0213540Y0181315D01*
X0223540Y0181315D02*
X0223542Y0181282D01*
X0223547Y0181250D01*
X0223555Y0181218D01*
X0223567Y0181187D01*
X0223582Y0181158D01*
X0223600Y0181130D01*
X0223621Y0181104D01*
X0223644Y0181081D01*
X0223670Y0181060D01*
X0223698Y0181042D01*
X0223727Y0181027D01*
X0223758Y0181015D01*
X0223790Y0181007D01*
X0223822Y0181002D01*
X0223855Y0181000D01*
X0233540Y0181000D01*
X0233540Y0191000D02*
X0223225Y0191000D01*
X0233540Y0191000D02*
X0234023Y0190994D01*
X0234506Y0190977D01*
X0234989Y0190947D01*
X0235470Y0190907D01*
X0235951Y0190854D01*
X0236430Y0190790D01*
X0236907Y0190715D01*
X0237383Y0190627D01*
X0237856Y0190529D01*
X0238326Y0190419D01*
X0238794Y0190298D01*
X0239259Y0190165D01*
X0239720Y0190021D01*
X0240178Y0189866D01*
X0240632Y0189700D01*
X0241082Y0189523D01*
X0241527Y0189336D01*
X0241968Y0189137D01*
X0242404Y0188929D01*
X0242834Y0188709D01*
X0243260Y0188479D01*
X0243679Y0188239D01*
X0244093Y0187989D01*
X0244500Y0187729D01*
X0244901Y0187460D01*
X0245296Y0187180D01*
X0245683Y0186892D01*
X0246064Y0186593D01*
X0246437Y0186286D01*
X0246802Y0185970D01*
X0247160Y0185645D01*
X0247510Y0185312D01*
X0247852Y0184970D01*
X0248185Y0184620D01*
X0248510Y0184262D01*
X0248826Y0183897D01*
X0249133Y0183524D01*
X0249432Y0183143D01*
X0249720Y0182756D01*
X0250000Y0182361D01*
X0250269Y0181960D01*
X0250529Y0181553D01*
X0250779Y0181139D01*
X0251019Y0180720D01*
X0251249Y0180294D01*
X0251469Y0179864D01*
X0251677Y0179428D01*
X0251876Y0178987D01*
X0252063Y0178542D01*
X0252240Y0178092D01*
X0252406Y0177638D01*
X0252561Y0177180D01*
X0252705Y0176719D01*
X0252838Y0176254D01*
X0252959Y0175786D01*
X0253069Y0175316D01*
X0253167Y0174843D01*
X0253255Y0174367D01*
X0253330Y0173890D01*
X0253394Y0173411D01*
X0253447Y0172930D01*
X0253487Y0172449D01*
X0253517Y0171966D01*
X0253534Y0171483D01*
X0253540Y0171000D01*
X0263540Y0171000D02*
X0263540Y0181000D01*
X0273540Y0181000D02*
X0273540Y0171000D01*
X0293540Y0181000D02*
X0293782Y0180997D01*
X0294023Y0180988D01*
X0294264Y0180974D01*
X0294505Y0180953D01*
X0294745Y0180927D01*
X0294985Y0180895D01*
X0295224Y0180857D01*
X0295461Y0180814D01*
X0295698Y0180764D01*
X0295933Y0180709D01*
X0296167Y0180649D01*
X0296399Y0180582D01*
X0296630Y0180511D01*
X0296859Y0180433D01*
X0297086Y0180350D01*
X0297311Y0180262D01*
X0297534Y0180168D01*
X0297754Y0180069D01*
X0297972Y0179964D01*
X0298187Y0179855D01*
X0298400Y0179740D01*
X0298610Y0179620D01*
X0298816Y0179495D01*
X0299020Y0179365D01*
X0299221Y0179230D01*
X0299418Y0179090D01*
X0299612Y0178946D01*
X0299802Y0178797D01*
X0299988Y0178643D01*
X0300171Y0178485D01*
X0300350Y0178323D01*
X0300525Y0178156D01*
X0300696Y0177985D01*
X0300863Y0177810D01*
X0301025Y0177631D01*
X0301183Y0177448D01*
X0301337Y0177262D01*
X0301486Y0177072D01*
X0301630Y0176878D01*
X0301770Y0176681D01*
X0301905Y0176480D01*
X0302035Y0176276D01*
X0302160Y0176070D01*
X0302280Y0175860D01*
X0302395Y0175647D01*
X0302504Y0175432D01*
X0302609Y0175214D01*
X0302708Y0174994D01*
X0302802Y0174771D01*
X0302890Y0174546D01*
X0302973Y0174319D01*
X0303051Y0174090D01*
X0303122Y0173859D01*
X0303189Y0173627D01*
X0303249Y0173393D01*
X0303304Y0173158D01*
X0303354Y0172921D01*
X0303397Y0172684D01*
X0303435Y0172445D01*
X0303467Y0172205D01*
X0303493Y0171965D01*
X0303514Y0171724D01*
X0303528Y0171483D01*
X0303537Y0171242D01*
X0303540Y0171000D01*
X0313540Y0171000D01*
X0313540Y0196000D02*
X0313540Y0221000D01*
X0303540Y0221000D02*
X0303540Y0231000D01*
X0278225Y0206000D02*
X0277870Y0206004D01*
X0277516Y0206017D01*
X0277161Y0206039D01*
X0276808Y0206069D01*
X0276455Y0206107D01*
X0276103Y0206154D01*
X0275753Y0206210D01*
X0275404Y0206274D01*
X0275056Y0206346D01*
X0274711Y0206427D01*
X0274367Y0206516D01*
X0274026Y0206613D01*
X0273687Y0206719D01*
X0273351Y0206832D01*
X0273018Y0206954D01*
X0272687Y0207084D01*
X0272360Y0207222D01*
X0272037Y0207368D01*
X0271717Y0207521D01*
X0271401Y0207682D01*
X0271088Y0207851D01*
X0270780Y0208027D01*
X0270477Y0208211D01*
X0270177Y0208401D01*
X0269883Y0208599D01*
X0269593Y0208805D01*
X0269309Y0209017D01*
X0269029Y0209235D01*
X0268755Y0209461D01*
X0268487Y0209693D01*
X0268224Y0209932D01*
X0267967Y0210176D01*
X0267716Y0210427D01*
X0267472Y0210684D01*
X0267233Y0210947D01*
X0267001Y0211215D01*
X0266775Y0211489D01*
X0266557Y0211769D01*
X0266345Y0212053D01*
X0266139Y0212343D01*
X0265941Y0212637D01*
X0265751Y0212937D01*
X0265567Y0213240D01*
X0265391Y0213548D01*
X0265222Y0213861D01*
X0265061Y0214177D01*
X0264908Y0214497D01*
X0264762Y0214820D01*
X0264624Y0215147D01*
X0264494Y0215478D01*
X0264372Y0215811D01*
X0264259Y0216147D01*
X0264153Y0216486D01*
X0264056Y0216827D01*
X0263967Y0217171D01*
X0263886Y0217516D01*
X0263814Y0217864D01*
X0263750Y0218213D01*
X0263694Y0218563D01*
X0263647Y0218915D01*
X0263609Y0219268D01*
X0263579Y0219621D01*
X0263557Y0219976D01*
X0263544Y0220330D01*
X0263540Y0220685D01*
X0263540Y0216000D01*
X0263538Y0215860D01*
X0263532Y0215720D01*
X0263522Y0215580D01*
X0263509Y0215440D01*
X0263491Y0215301D01*
X0263469Y0215162D01*
X0263444Y0215025D01*
X0263415Y0214887D01*
X0263382Y0214751D01*
X0263345Y0214616D01*
X0263304Y0214482D01*
X0263259Y0214349D01*
X0263211Y0214217D01*
X0263159Y0214087D01*
X0263104Y0213958D01*
X0263045Y0213831D01*
X0262982Y0213705D01*
X0262916Y0213581D01*
X0262847Y0213460D01*
X0262774Y0213340D01*
X0262697Y0213222D01*
X0262618Y0213107D01*
X0262535Y0212993D01*
X0262449Y0212883D01*
X0262360Y0212774D01*
X0262268Y0212668D01*
X0262173Y0212565D01*
X0262076Y0212464D01*
X0261975Y0212367D01*
X0261872Y0212272D01*
X0261766Y0212180D01*
X0261657Y0212091D01*
X0261547Y0212005D01*
X0261433Y0211922D01*
X0261318Y0211843D01*
X0261200Y0211766D01*
X0261080Y0211693D01*
X0260959Y0211624D01*
X0260835Y0211558D01*
X0260709Y0211495D01*
X0260582Y0211436D01*
X0260453Y0211381D01*
X0260323Y0211329D01*
X0260191Y0211281D01*
X0260058Y0211236D01*
X0259924Y0211195D01*
X0259789Y0211158D01*
X0259653Y0211125D01*
X0259515Y0211096D01*
X0259378Y0211071D01*
X0259239Y0211049D01*
X0259100Y0211031D01*
X0258960Y0211018D01*
X0258820Y0211008D01*
X0258680Y0211002D01*
X0258540Y0211000D01*
X0278225Y0206000D02*
X0278540Y0206000D01*
X0298540Y0181000D02*
X0298902Y0181004D01*
X0299265Y0181018D01*
X0299627Y0181039D01*
X0299988Y0181070D01*
X0300348Y0181109D01*
X0300707Y0181157D01*
X0301065Y0181214D01*
X0301422Y0181279D01*
X0301777Y0181353D01*
X0302130Y0181436D01*
X0302481Y0181527D01*
X0302829Y0181626D01*
X0303175Y0181734D01*
X0303519Y0181850D01*
X0303859Y0181975D01*
X0304196Y0182107D01*
X0304530Y0182248D01*
X0304861Y0182397D01*
X0305188Y0182554D01*
X0305511Y0182718D01*
X0305830Y0182890D01*
X0306144Y0183070D01*
X0306455Y0183258D01*
X0306760Y0183453D01*
X0307061Y0183655D01*
X0307357Y0183865D01*
X0307647Y0184081D01*
X0307933Y0184305D01*
X0308213Y0184535D01*
X0308487Y0184772D01*
X0308755Y0185016D01*
X0309018Y0185266D01*
X0309274Y0185522D01*
X0309524Y0185785D01*
X0309768Y0186053D01*
X0310005Y0186327D01*
X0310235Y0186607D01*
X0310459Y0186893D01*
X0310675Y0187183D01*
X0310885Y0187479D01*
X0311087Y0187780D01*
X0311282Y0188085D01*
X0311470Y0188396D01*
X0311650Y0188710D01*
X0311822Y0189029D01*
X0311986Y0189352D01*
X0312143Y0189679D01*
X0312292Y0190010D01*
X0312433Y0190344D01*
X0312565Y0190681D01*
X0312690Y0191021D01*
X0312806Y0191365D01*
X0312914Y0191711D01*
X0313013Y0192059D01*
X0313104Y0192410D01*
X0313187Y0192763D01*
X0313261Y0193118D01*
X0313326Y0193475D01*
X0313383Y0193833D01*
X0313431Y0194192D01*
X0313470Y0194552D01*
X0313501Y0194913D01*
X0313522Y0195275D01*
X0313536Y0195638D01*
X0313540Y0196000D01*
X0293540Y0191000D02*
X0293536Y0191362D01*
X0293522Y0191725D01*
X0293501Y0192087D01*
X0293470Y0192448D01*
X0293431Y0192808D01*
X0293383Y0193167D01*
X0293326Y0193525D01*
X0293261Y0193882D01*
X0293187Y0194237D01*
X0293104Y0194590D01*
X0293013Y0194941D01*
X0292914Y0195289D01*
X0292806Y0195635D01*
X0292690Y0195979D01*
X0292565Y0196319D01*
X0292433Y0196656D01*
X0292292Y0196990D01*
X0292143Y0197321D01*
X0291986Y0197648D01*
X0291822Y0197971D01*
X0291650Y0198290D01*
X0291470Y0198604D01*
X0291282Y0198915D01*
X0291087Y0199220D01*
X0290885Y0199521D01*
X0290675Y0199817D01*
X0290459Y0200107D01*
X0290235Y0200393D01*
X0290005Y0200673D01*
X0289768Y0200947D01*
X0289524Y0201215D01*
X0289274Y0201478D01*
X0289018Y0201734D01*
X0288755Y0201984D01*
X0288487Y0202228D01*
X0288213Y0202465D01*
X0287933Y0202695D01*
X0287647Y0202919D01*
X0287357Y0203135D01*
X0287061Y0203345D01*
X0286760Y0203547D01*
X0286455Y0203742D01*
X0286144Y0203930D01*
X0285830Y0204110D01*
X0285511Y0204282D01*
X0285188Y0204446D01*
X0284861Y0204603D01*
X0284530Y0204752D01*
X0284196Y0204893D01*
X0283859Y0205025D01*
X0283519Y0205150D01*
X0283175Y0205266D01*
X0282829Y0205374D01*
X0282481Y0205473D01*
X0282130Y0205564D01*
X0281777Y0205647D01*
X0281422Y0205721D01*
X0281065Y0205786D01*
X0280707Y0205843D01*
X0280348Y0205891D01*
X0279988Y0205930D01*
X0279627Y0205961D01*
X0279265Y0205982D01*
X0278902Y0205996D01*
X0278540Y0206000D01*
X0243540Y0171000D02*
X0243537Y0171242D01*
X0243528Y0171483D01*
X0243514Y0171724D01*
X0243493Y0171965D01*
X0243467Y0172205D01*
X0243435Y0172445D01*
X0243397Y0172684D01*
X0243354Y0172921D01*
X0243304Y0173158D01*
X0243249Y0173393D01*
X0243189Y0173627D01*
X0243122Y0173859D01*
X0243051Y0174090D01*
X0242973Y0174319D01*
X0242890Y0174546D01*
X0242802Y0174771D01*
X0242708Y0174994D01*
X0242609Y0175214D01*
X0242504Y0175432D01*
X0242395Y0175647D01*
X0242280Y0175860D01*
X0242160Y0176070D01*
X0242035Y0176276D01*
X0241905Y0176480D01*
X0241770Y0176681D01*
X0241630Y0176878D01*
X0241486Y0177072D01*
X0241337Y0177262D01*
X0241183Y0177448D01*
X0241025Y0177631D01*
X0240863Y0177810D01*
X0240696Y0177985D01*
X0240525Y0178156D01*
X0240350Y0178323D01*
X0240171Y0178485D01*
X0239988Y0178643D01*
X0239802Y0178797D01*
X0239612Y0178946D01*
X0239418Y0179090D01*
X0239221Y0179230D01*
X0239020Y0179365D01*
X0238816Y0179495D01*
X0238610Y0179620D01*
X0238400Y0179740D01*
X0238187Y0179855D01*
X0237972Y0179964D01*
X0237754Y0180069D01*
X0237534Y0180168D01*
X0237311Y0180262D01*
X0237086Y0180350D01*
X0236859Y0180433D01*
X0236630Y0180511D01*
X0236399Y0180582D01*
X0236167Y0180649D01*
X0235933Y0180709D01*
X0235698Y0180764D01*
X0235461Y0180814D01*
X0235224Y0180857D01*
X0234985Y0180895D01*
X0234745Y0180927D01*
X0234505Y0180953D01*
X0234264Y0180974D01*
X0234023Y0180988D01*
X0233782Y0180997D01*
X0233540Y0181000D01*
X0198540Y0211000D02*
X0188540Y0211000D01*
X0188400Y0211002D01*
X0188260Y0211008D01*
X0188120Y0211018D01*
X0187980Y0211031D01*
X0187841Y0211049D01*
X0187702Y0211071D01*
X0187565Y0211096D01*
X0187427Y0211125D01*
X0187291Y0211158D01*
X0187156Y0211195D01*
X0187022Y0211236D01*
X0186889Y0211281D01*
X0186757Y0211329D01*
X0186627Y0211381D01*
X0186498Y0211436D01*
X0186371Y0211495D01*
X0186245Y0211558D01*
X0186121Y0211624D01*
X0186000Y0211693D01*
X0185880Y0211766D01*
X0185762Y0211843D01*
X0185647Y0211922D01*
X0185533Y0212005D01*
X0185423Y0212091D01*
X0185314Y0212180D01*
X0185208Y0212272D01*
X0185105Y0212367D01*
X0185004Y0212464D01*
X0184907Y0212565D01*
X0184812Y0212668D01*
X0184720Y0212774D01*
X0184631Y0212883D01*
X0184545Y0212993D01*
X0184462Y0213107D01*
X0184383Y0213222D01*
X0184306Y0213340D01*
X0184233Y0213460D01*
X0184164Y0213581D01*
X0184098Y0213705D01*
X0184035Y0213831D01*
X0183976Y0213958D01*
X0183921Y0214087D01*
X0183869Y0214217D01*
X0183821Y0214349D01*
X0183776Y0214482D01*
X0183735Y0214616D01*
X0183698Y0214751D01*
X0183665Y0214887D01*
X0183636Y0215025D01*
X0183611Y0215162D01*
X0183589Y0215301D01*
X0183571Y0215440D01*
X0183558Y0215580D01*
X0183548Y0215720D01*
X0183542Y0215860D01*
X0183540Y0216000D01*
X0183538Y0216140D01*
X0183532Y0216280D01*
X0183522Y0216420D01*
X0183509Y0216560D01*
X0183491Y0216699D01*
X0183469Y0216838D01*
X0183444Y0216975D01*
X0183415Y0217113D01*
X0183382Y0217249D01*
X0183345Y0217384D01*
X0183304Y0217518D01*
X0183259Y0217651D01*
X0183211Y0217783D01*
X0183159Y0217913D01*
X0183104Y0218042D01*
X0183045Y0218169D01*
X0182982Y0218295D01*
X0182916Y0218419D01*
X0182847Y0218540D01*
X0182774Y0218660D01*
X0182697Y0218778D01*
X0182618Y0218893D01*
X0182535Y0219007D01*
X0182449Y0219117D01*
X0182360Y0219226D01*
X0182268Y0219332D01*
X0182173Y0219435D01*
X0182076Y0219536D01*
X0181975Y0219633D01*
X0181872Y0219728D01*
X0181766Y0219820D01*
X0181657Y0219909D01*
X0181547Y0219995D01*
X0181433Y0220078D01*
X0181318Y0220157D01*
X0181200Y0220234D01*
X0181080Y0220307D01*
X0180959Y0220376D01*
X0180835Y0220442D01*
X0180709Y0220505D01*
X0180582Y0220564D01*
X0180453Y0220619D01*
X0180323Y0220671D01*
X0180191Y0220719D01*
X0180058Y0220764D01*
X0179924Y0220805D01*
X0179789Y0220842D01*
X0179653Y0220875D01*
X0179515Y0220904D01*
X0179378Y0220929D01*
X0179239Y0220951D01*
X0179100Y0220969D01*
X0178960Y0220982D01*
X0178820Y0220992D01*
X0178680Y0220998D01*
X0178540Y0221000D01*
X0173540Y0221000D01*
X0163540Y0221000D02*
X0133540Y0221000D01*
X0133298Y0221003D01*
X0133057Y0221012D01*
X0132816Y0221026D01*
X0132575Y0221047D01*
X0132335Y0221073D01*
X0132095Y0221105D01*
X0131856Y0221143D01*
X0131619Y0221186D01*
X0131382Y0221236D01*
X0131147Y0221291D01*
X0130913Y0221351D01*
X0130681Y0221418D01*
X0130450Y0221489D01*
X0130221Y0221567D01*
X0129994Y0221650D01*
X0129769Y0221738D01*
X0129546Y0221832D01*
X0129326Y0221931D01*
X0129108Y0222036D01*
X0128893Y0222145D01*
X0128680Y0222260D01*
X0128470Y0222380D01*
X0128264Y0222505D01*
X0128060Y0222635D01*
X0127859Y0222770D01*
X0127662Y0222910D01*
X0127468Y0223054D01*
X0127278Y0223203D01*
X0127092Y0223357D01*
X0126909Y0223515D01*
X0126730Y0223677D01*
X0126555Y0223844D01*
X0126384Y0224015D01*
X0126217Y0224190D01*
X0126055Y0224369D01*
X0125897Y0224552D01*
X0125743Y0224738D01*
X0125594Y0224928D01*
X0125450Y0225122D01*
X0125310Y0225319D01*
X0125175Y0225520D01*
X0125045Y0225724D01*
X0124920Y0225930D01*
X0124800Y0226140D01*
X0124685Y0226353D01*
X0124576Y0226568D01*
X0124471Y0226786D01*
X0124372Y0227006D01*
X0124278Y0227229D01*
X0124190Y0227454D01*
X0124107Y0227681D01*
X0124029Y0227910D01*
X0123958Y0228141D01*
X0123891Y0228373D01*
X0123831Y0228607D01*
X0123776Y0228842D01*
X0123726Y0229079D01*
X0123683Y0229316D01*
X0123645Y0229555D01*
X0123613Y0229795D01*
X0123587Y0230035D01*
X0123566Y0230276D01*
X0123552Y0230517D01*
X0123543Y0230758D01*
X0123540Y0231000D01*
X0163540Y0191000D02*
X0163540Y0171000D01*
X0158540Y0141000D02*
X0158540Y0121000D01*
X0148540Y0121000D02*
X0148540Y0141000D01*
X0138540Y0141000D02*
X0138540Y0121000D01*
X0108540Y0121000D02*
X0108540Y0141000D01*
X0098540Y0141000D02*
X0098540Y0121000D01*
X0088540Y0121000D02*
X0088540Y0141000D01*
X0078540Y0141000D02*
X0078540Y0121000D01*
X0068540Y0121000D02*
X0068540Y0141000D01*
X0058540Y0141000D02*
X0058540Y0121000D01*
X0048540Y0121000D02*
X0048540Y0141000D01*
X0038540Y0141000D02*
X0038540Y0121000D01*
X0168540Y0121000D02*
X0168540Y0141000D01*
X0178540Y0141000D02*
X0178540Y0121000D01*
X0188540Y0121000D02*
X0188540Y0141000D01*
X0198540Y0141000D02*
X0198540Y0121000D01*
X0208540Y0121000D02*
X0208540Y0141000D01*
X0238540Y0141000D02*
X0238540Y0121000D01*
X0248540Y0121000D02*
X0248540Y0141000D01*
X0258540Y0141000D02*
X0258540Y0121000D01*
X0268540Y0121000D02*
X0268540Y0141000D01*
X0278540Y0141000D02*
X0278540Y0121000D01*
X0288540Y0121000D02*
X0288540Y0141000D01*
X0298540Y0141000D02*
X0298540Y0121000D01*
X0308540Y0121000D02*
X0308540Y0141000D01*
X0318540Y0091000D02*
X0318540Y0036000D01*
X0303540Y0021000D01*
X0303540Y0011000D01*
X0293540Y0011000D01*
X0283540Y0021000D01*
X0263540Y0021000D02*
X0263540Y0011000D01*
X0253540Y0011000D02*
X0253540Y0021000D01*
X0208540Y0211000D02*
X0208400Y0211002D01*
X0208260Y0211008D01*
X0208120Y0211018D01*
X0207980Y0211031D01*
X0207841Y0211049D01*
X0207702Y0211071D01*
X0207565Y0211096D01*
X0207427Y0211125D01*
X0207291Y0211158D01*
X0207156Y0211195D01*
X0207022Y0211236D01*
X0206889Y0211281D01*
X0206757Y0211329D01*
X0206627Y0211381D01*
X0206498Y0211436D01*
X0206371Y0211495D01*
X0206245Y0211558D01*
X0206121Y0211624D01*
X0206000Y0211693D01*
X0205880Y0211766D01*
X0205762Y0211843D01*
X0205647Y0211922D01*
X0205533Y0212005D01*
X0205423Y0212091D01*
X0205314Y0212180D01*
X0205208Y0212272D01*
X0205105Y0212367D01*
X0205004Y0212464D01*
X0204907Y0212565D01*
X0204812Y0212668D01*
X0204720Y0212774D01*
X0204631Y0212883D01*
X0204545Y0212993D01*
X0204462Y0213107D01*
X0204383Y0213222D01*
X0204306Y0213340D01*
X0204233Y0213460D01*
X0204164Y0213581D01*
X0204098Y0213705D01*
X0204035Y0213831D01*
X0203976Y0213958D01*
X0203921Y0214087D01*
X0203869Y0214217D01*
X0203821Y0214349D01*
X0203776Y0214482D01*
X0203735Y0214616D01*
X0203698Y0214751D01*
X0203665Y0214887D01*
X0203636Y0215025D01*
X0203611Y0215162D01*
X0203589Y0215301D01*
X0203571Y0215440D01*
X0203558Y0215580D01*
X0203548Y0215720D01*
X0203542Y0215860D01*
X0203540Y0216000D01*
X0203540Y0220685D01*
X0203540Y0216000D02*
X0203538Y0215860D01*
X0203532Y0215720D01*
X0203522Y0215580D01*
X0203509Y0215440D01*
X0203491Y0215301D01*
X0203469Y0215162D01*
X0203444Y0215025D01*
X0203415Y0214887D01*
X0203382Y0214751D01*
X0203345Y0214616D01*
X0203304Y0214482D01*
X0203259Y0214349D01*
X0203211Y0214217D01*
X0203159Y0214087D01*
X0203104Y0213958D01*
X0203045Y0213831D01*
X0202982Y0213705D01*
X0202916Y0213581D01*
X0202847Y0213460D01*
X0202774Y0213340D01*
X0202697Y0213222D01*
X0202618Y0213107D01*
X0202535Y0212993D01*
X0202449Y0212883D01*
X0202360Y0212774D01*
X0202268Y0212668D01*
X0202173Y0212565D01*
X0202076Y0212464D01*
X0201975Y0212367D01*
X0201872Y0212272D01*
X0201766Y0212180D01*
X0201657Y0212091D01*
X0201547Y0212005D01*
X0201433Y0211922D01*
X0201318Y0211843D01*
X0201200Y0211766D01*
X0201080Y0211693D01*
X0200959Y0211624D01*
X0200835Y0211558D01*
X0200709Y0211495D01*
X0200582Y0211436D01*
X0200453Y0211381D01*
X0200323Y0211329D01*
X0200191Y0211281D01*
X0200058Y0211236D01*
X0199924Y0211195D01*
X0199789Y0211158D01*
X0199653Y0211125D01*
X0199515Y0211096D01*
X0199378Y0211071D01*
X0199239Y0211049D01*
X0199100Y0211031D01*
X0198960Y0211018D01*
X0198820Y0211008D01*
X0198680Y0211002D01*
X0198540Y0211000D01*
D18*
X0197265Y0215111D02*
X0194848Y0214110D01*
X0192233Y0214110D01*
X0189816Y0215111D01*
X0187966Y0216961D01*
X0186966Y0219377D01*
X0186966Y0221200D01*
X0177915Y0221200D01*
X0177915Y0221000D01*
X0173540Y0221000D01*
X0173540Y0221000D01*
X0177915Y0221000D01*
X0177915Y0218188D01*
X0177792Y0217730D01*
X0177555Y0217320D01*
X0177220Y0216985D01*
X0176824Y0216756D01*
X0177265Y0216574D01*
X0179114Y0214724D01*
X0180115Y0212308D01*
X0180115Y0209692D01*
X0179114Y0207276D01*
X0177839Y0206000D01*
X0178039Y0205800D01*
X0181347Y0205800D01*
X0185111Y0204791D01*
X0185111Y0204791D01*
X0188486Y0202843D01*
X0188486Y0202843D01*
X0189863Y0201465D01*
X0190459Y0200869D01*
X0207532Y0183796D01*
X0208030Y0184997D01*
X0208519Y0185486D01*
X0208982Y0187215D01*
X0208982Y0187215D01*
X0210994Y0190700D01*
X0210994Y0190700D01*
X0213840Y0193546D01*
X0213840Y0193546D01*
X0217326Y0195558D01*
X0217326Y0195558D01*
X0221213Y0196600D01*
X0236425Y0196600D01*
X0242049Y0195316D01*
X0242049Y0195316D01*
X0247247Y0192813D01*
X0247247Y0192813D01*
X0251757Y0189216D01*
X0251757Y0189216D01*
X0255354Y0184706D01*
X0255354Y0184706D01*
X0256966Y0181359D01*
X0256966Y0182308D01*
X0257966Y0184724D01*
X0259816Y0186574D01*
X0262233Y0187575D01*
X0264848Y0187575D01*
X0267265Y0186574D01*
X0268540Y0185298D01*
X0269816Y0186574D01*
X0272233Y0187575D01*
X0274848Y0187575D01*
X0277265Y0186574D01*
X0278540Y0185298D01*
X0279816Y0186574D01*
X0282233Y0187575D01*
X0284848Y0187575D01*
X0287265Y0186574D01*
X0289114Y0184724D01*
X0289297Y0184284D01*
X0289525Y0184680D01*
X0289860Y0185015D01*
X0290271Y0185252D01*
X0290729Y0185375D01*
X0293540Y0185375D01*
X0293540Y0181000D01*
X0293540Y0181000D01*
X0293540Y0185375D01*
X0296352Y0185375D01*
X0296810Y0185252D01*
X0297220Y0185015D01*
X0297555Y0184680D01*
X0297792Y0184270D01*
X0297915Y0183812D01*
X0297915Y0181000D01*
X0293540Y0181000D01*
X0293540Y0181000D01*
X0297915Y0181000D01*
X0297915Y0178188D01*
X0297792Y0177730D01*
X0297555Y0177320D01*
X0297220Y0176985D01*
X0296824Y0176756D01*
X0297265Y0176574D01*
X0297839Y0176000D01*
X0313540Y0176000D01*
X0313540Y0221000D01*
X0313540Y0221000D01*
X0313540Y0216625D01*
X0310729Y0216625D01*
X0310271Y0216748D01*
X0309860Y0216985D01*
X0309852Y0216993D01*
X0309506Y0216159D01*
X0308381Y0215034D01*
X0306911Y0214425D01*
X0300170Y0214425D01*
X0298700Y0215034D01*
X0298540Y0215194D01*
X0298381Y0215034D01*
X0296911Y0214425D01*
X0290170Y0214425D01*
X0288700Y0215034D01*
X0287944Y0215790D01*
X0287265Y0215111D01*
X0284848Y0214110D01*
X0282233Y0214110D01*
X0279816Y0215111D01*
X0278540Y0216387D01*
X0277265Y0215111D01*
X0274848Y0214110D01*
X0272233Y0214110D01*
X0269816Y0215111D01*
X0267966Y0216961D01*
X0267333Y0218491D01*
X0267282Y0218392D01*
X0266877Y0217835D01*
X0266390Y0217348D01*
X0265833Y0216943D01*
X0265220Y0216631D01*
X0264565Y0216418D01*
X0263885Y0216310D01*
X0263540Y0216310D01*
X0263540Y0220685D01*
X0263540Y0220685D01*
X0263540Y0216310D01*
X0263196Y0216310D01*
X0262516Y0216418D01*
X0261861Y0216631D01*
X0261247Y0216943D01*
X0260690Y0217348D01*
X0260203Y0217835D01*
X0259799Y0218392D01*
X0259748Y0218491D01*
X0259114Y0216961D01*
X0257265Y0215111D01*
X0254848Y0214110D01*
X0252233Y0214110D01*
X0249816Y0215111D01*
X0247966Y0216961D01*
X0246966Y0219377D01*
X0246966Y0221200D01*
X0240198Y0221200D01*
X0240198Y0219676D01*
X0239184Y0217229D01*
X0238340Y0216385D01*
X0238340Y0208115D01*
X0239184Y0207271D01*
X0240198Y0204824D01*
X0240198Y0202176D01*
X0239184Y0199729D01*
X0237311Y0197856D01*
X0234865Y0196843D01*
X0232216Y0196843D01*
X0229769Y0197856D01*
X0227896Y0199729D01*
X0226883Y0202176D01*
X0226883Y0204824D01*
X0227896Y0207271D01*
X0228740Y0208115D01*
X0228740Y0216385D01*
X0228639Y0216486D01*
X0227265Y0215111D01*
X0224848Y0214110D01*
X0222233Y0214110D01*
X0219816Y0215111D01*
X0218540Y0216387D01*
X0217265Y0215111D01*
X0214848Y0214110D01*
X0212233Y0214110D01*
X0209816Y0215111D01*
X0207966Y0216961D01*
X0207333Y0218491D01*
X0207282Y0218392D01*
X0206877Y0217835D01*
X0206390Y0217348D01*
X0205833Y0216943D01*
X0205220Y0216631D01*
X0204565Y0216418D01*
X0203885Y0216310D01*
X0203540Y0216310D01*
X0203540Y0220685D01*
X0203540Y0220685D01*
X0203540Y0216310D01*
X0203196Y0216310D01*
X0202516Y0216418D01*
X0201861Y0216631D01*
X0201247Y0216943D01*
X0200690Y0217348D01*
X0200203Y0217835D01*
X0199799Y0218392D01*
X0199748Y0218491D01*
X0199114Y0216961D01*
X0197265Y0215111D01*
X0197354Y0215201D02*
X0209727Y0215201D01*
X0208128Y0216799D02*
X0205550Y0216799D01*
X0203540Y0216799D02*
X0203540Y0216799D01*
X0203540Y0218398D02*
X0203540Y0218398D01*
X0203540Y0219996D02*
X0203540Y0219996D01*
X0201531Y0216799D02*
X0198953Y0216799D01*
X0199709Y0218398D02*
X0199796Y0218398D01*
X0207285Y0218398D02*
X0207371Y0218398D01*
X0217354Y0215201D02*
X0219727Y0215201D01*
X0227354Y0215201D02*
X0228740Y0215201D01*
X0228740Y0213602D02*
X0179579Y0213602D01*
X0180115Y0212003D02*
X0228740Y0212003D01*
X0228740Y0210405D02*
X0180115Y0210405D01*
X0179748Y0208806D02*
X0228740Y0208806D01*
X0227870Y0207208D02*
X0179046Y0207208D01*
X0182058Y0205609D02*
X0227208Y0205609D01*
X0226883Y0204011D02*
X0186463Y0204011D01*
X0188916Y0202412D02*
X0226883Y0202412D01*
X0227447Y0200814D02*
X0190515Y0200814D01*
X0192113Y0199215D02*
X0228410Y0199215D01*
X0230347Y0197617D02*
X0193712Y0197617D01*
X0195310Y0196018D02*
X0219042Y0196018D01*
X0215354Y0194420D02*
X0196909Y0194420D01*
X0198507Y0192821D02*
X0213115Y0192821D01*
X0211517Y0191223D02*
X0200106Y0191223D01*
X0201704Y0189624D02*
X0210373Y0189624D01*
X0209450Y0188026D02*
X0203303Y0188026D01*
X0204901Y0186427D02*
X0208771Y0186427D01*
X0207960Y0184829D02*
X0206500Y0184829D01*
X0213540Y0171000D02*
X0186469Y0198071D01*
X0179398Y0201000D02*
X0173540Y0201000D01*
X0168540Y0206000D02*
X0163540Y0206000D01*
X0168540Y0206000D02*
X0168680Y0206002D01*
X0168820Y0206008D01*
X0168960Y0206018D01*
X0169100Y0206031D01*
X0169239Y0206049D01*
X0169378Y0206071D01*
X0169515Y0206096D01*
X0169653Y0206125D01*
X0169789Y0206158D01*
X0169924Y0206195D01*
X0170058Y0206236D01*
X0170191Y0206281D01*
X0170323Y0206329D01*
X0170453Y0206381D01*
X0170582Y0206436D01*
X0170709Y0206495D01*
X0170835Y0206558D01*
X0170959Y0206624D01*
X0171080Y0206693D01*
X0171200Y0206766D01*
X0171318Y0206843D01*
X0171433Y0206922D01*
X0171547Y0207005D01*
X0171657Y0207091D01*
X0171766Y0207180D01*
X0171872Y0207272D01*
X0171975Y0207367D01*
X0172076Y0207464D01*
X0172173Y0207565D01*
X0172268Y0207668D01*
X0172360Y0207774D01*
X0172449Y0207883D01*
X0172535Y0207993D01*
X0172618Y0208107D01*
X0172697Y0208222D01*
X0172774Y0208340D01*
X0172847Y0208460D01*
X0172916Y0208581D01*
X0172982Y0208705D01*
X0173045Y0208831D01*
X0173104Y0208958D01*
X0173159Y0209087D01*
X0173211Y0209217D01*
X0173259Y0209349D01*
X0173304Y0209482D01*
X0173345Y0209616D01*
X0173382Y0209751D01*
X0173415Y0209887D01*
X0173444Y0210025D01*
X0173469Y0210162D01*
X0173491Y0210301D01*
X0173509Y0210440D01*
X0173522Y0210580D01*
X0173532Y0210720D01*
X0173538Y0210860D01*
X0173540Y0211000D01*
X0178638Y0215201D02*
X0189727Y0215201D01*
X0188128Y0216799D02*
X0176899Y0216799D01*
X0177915Y0218398D02*
X0187371Y0218398D01*
X0186966Y0219996D02*
X0177915Y0219996D01*
X0170256Y0225244D02*
X0169860Y0225015D01*
X0169525Y0224680D01*
X0169297Y0224284D01*
X0169114Y0224724D01*
X0167839Y0226000D01*
X0169242Y0226000D01*
X0169816Y0225426D01*
X0170256Y0225244D01*
X0169637Y0224792D02*
X0169047Y0224792D01*
X0168540Y0226000D02*
X0138540Y0226000D01*
X0138400Y0226002D01*
X0138260Y0226008D01*
X0138120Y0226018D01*
X0137980Y0226031D01*
X0137841Y0226049D01*
X0137702Y0226071D01*
X0137565Y0226096D01*
X0137427Y0226125D01*
X0137291Y0226158D01*
X0137156Y0226195D01*
X0137022Y0226236D01*
X0136889Y0226281D01*
X0136757Y0226329D01*
X0136627Y0226381D01*
X0136498Y0226436D01*
X0136371Y0226495D01*
X0136245Y0226558D01*
X0136121Y0226624D01*
X0136000Y0226693D01*
X0135880Y0226766D01*
X0135762Y0226843D01*
X0135647Y0226922D01*
X0135533Y0227005D01*
X0135423Y0227091D01*
X0135314Y0227180D01*
X0135208Y0227272D01*
X0135105Y0227367D01*
X0135004Y0227464D01*
X0134907Y0227565D01*
X0134812Y0227668D01*
X0134720Y0227774D01*
X0134631Y0227883D01*
X0134545Y0227993D01*
X0134462Y0228107D01*
X0134383Y0228222D01*
X0134306Y0228340D01*
X0134233Y0228460D01*
X0134164Y0228581D01*
X0134098Y0228705D01*
X0134035Y0228831D01*
X0133976Y0228958D01*
X0133921Y0229087D01*
X0133869Y0229217D01*
X0133821Y0229349D01*
X0133776Y0229482D01*
X0133735Y0229616D01*
X0133698Y0229751D01*
X0133665Y0229887D01*
X0133636Y0230025D01*
X0133611Y0230162D01*
X0133589Y0230301D01*
X0133571Y0230440D01*
X0133558Y0230580D01*
X0133548Y0230720D01*
X0133542Y0230860D01*
X0133540Y0231000D01*
X0168540Y0226000D02*
X0168680Y0225998D01*
X0168820Y0225992D01*
X0168960Y0225982D01*
X0169100Y0225969D01*
X0169239Y0225951D01*
X0169378Y0225929D01*
X0169515Y0225904D01*
X0169653Y0225875D01*
X0169789Y0225842D01*
X0169924Y0225805D01*
X0170058Y0225764D01*
X0170191Y0225719D01*
X0170323Y0225671D01*
X0170453Y0225619D01*
X0170582Y0225564D01*
X0170709Y0225505D01*
X0170835Y0225442D01*
X0170959Y0225376D01*
X0171080Y0225307D01*
X0171200Y0225234D01*
X0171318Y0225157D01*
X0171433Y0225078D01*
X0171547Y0224995D01*
X0171657Y0224909D01*
X0171766Y0224820D01*
X0171872Y0224728D01*
X0171975Y0224633D01*
X0172076Y0224536D01*
X0172173Y0224435D01*
X0172268Y0224332D01*
X0172360Y0224226D01*
X0172449Y0224117D01*
X0172535Y0224007D01*
X0172618Y0223893D01*
X0172697Y0223778D01*
X0172774Y0223660D01*
X0172847Y0223540D01*
X0172916Y0223419D01*
X0172982Y0223295D01*
X0173045Y0223169D01*
X0173104Y0223042D01*
X0173159Y0222913D01*
X0173211Y0222783D01*
X0173259Y0222651D01*
X0173304Y0222518D01*
X0173345Y0222384D01*
X0173382Y0222249D01*
X0173415Y0222113D01*
X0173444Y0221975D01*
X0173469Y0221838D01*
X0173491Y0221699D01*
X0173509Y0221560D01*
X0173522Y0221420D01*
X0173532Y0221280D01*
X0173538Y0221140D01*
X0173540Y0221000D01*
X0178540Y0226000D02*
X0218540Y0226000D01*
X0218680Y0225998D01*
X0218820Y0225992D01*
X0218960Y0225982D01*
X0219100Y0225969D01*
X0219239Y0225951D01*
X0219378Y0225929D01*
X0219515Y0225904D01*
X0219653Y0225875D01*
X0219789Y0225842D01*
X0219924Y0225805D01*
X0220058Y0225764D01*
X0220191Y0225719D01*
X0220323Y0225671D01*
X0220453Y0225619D01*
X0220582Y0225564D01*
X0220709Y0225505D01*
X0220835Y0225442D01*
X0220959Y0225376D01*
X0221080Y0225307D01*
X0221200Y0225234D01*
X0221318Y0225157D01*
X0221433Y0225078D01*
X0221547Y0224995D01*
X0221657Y0224909D01*
X0221766Y0224820D01*
X0221872Y0224728D01*
X0221975Y0224633D01*
X0222076Y0224536D01*
X0222173Y0224435D01*
X0222268Y0224332D01*
X0222360Y0224226D01*
X0222449Y0224117D01*
X0222535Y0224007D01*
X0222618Y0223893D01*
X0222697Y0223778D01*
X0222774Y0223660D01*
X0222847Y0223540D01*
X0222916Y0223419D01*
X0222982Y0223295D01*
X0223045Y0223169D01*
X0223104Y0223042D01*
X0223159Y0222913D01*
X0223211Y0222783D01*
X0223259Y0222651D01*
X0223304Y0222518D01*
X0223345Y0222384D01*
X0223382Y0222249D01*
X0223415Y0222113D01*
X0223444Y0221975D01*
X0223469Y0221838D01*
X0223491Y0221699D01*
X0223509Y0221560D01*
X0223522Y0221420D01*
X0223532Y0221280D01*
X0223538Y0221140D01*
X0223540Y0221000D01*
X0223540Y0220685D01*
X0223540Y0221000D02*
X0223542Y0221140D01*
X0223548Y0221280D01*
X0223558Y0221420D01*
X0223571Y0221560D01*
X0223589Y0221699D01*
X0223611Y0221838D01*
X0223636Y0221975D01*
X0223665Y0222113D01*
X0223698Y0222249D01*
X0223735Y0222384D01*
X0223776Y0222518D01*
X0223821Y0222651D01*
X0223869Y0222783D01*
X0223921Y0222913D01*
X0223976Y0223042D01*
X0224035Y0223169D01*
X0224098Y0223295D01*
X0224164Y0223419D01*
X0224233Y0223540D01*
X0224306Y0223660D01*
X0224383Y0223778D01*
X0224462Y0223893D01*
X0224545Y0224007D01*
X0224631Y0224117D01*
X0224720Y0224226D01*
X0224812Y0224332D01*
X0224907Y0224435D01*
X0225004Y0224536D01*
X0225105Y0224633D01*
X0225208Y0224728D01*
X0225314Y0224820D01*
X0225423Y0224909D01*
X0225533Y0224995D01*
X0225647Y0225078D01*
X0225762Y0225157D01*
X0225880Y0225234D01*
X0226000Y0225307D01*
X0226121Y0225376D01*
X0226245Y0225442D01*
X0226371Y0225505D01*
X0226498Y0225564D01*
X0226627Y0225619D01*
X0226757Y0225671D01*
X0226889Y0225719D01*
X0227022Y0225764D01*
X0227156Y0225805D01*
X0227291Y0225842D01*
X0227427Y0225875D01*
X0227565Y0225904D01*
X0227702Y0225929D01*
X0227841Y0225951D01*
X0227980Y0225969D01*
X0228120Y0225982D01*
X0228260Y0225992D01*
X0228400Y0225998D01*
X0228540Y0226000D01*
X0278540Y0226000D01*
X0278680Y0225998D01*
X0278820Y0225992D01*
X0278960Y0225982D01*
X0279100Y0225969D01*
X0279239Y0225951D01*
X0279378Y0225929D01*
X0279515Y0225904D01*
X0279653Y0225875D01*
X0279789Y0225842D01*
X0279924Y0225805D01*
X0280058Y0225764D01*
X0280191Y0225719D01*
X0280323Y0225671D01*
X0280453Y0225619D01*
X0280582Y0225564D01*
X0280709Y0225505D01*
X0280835Y0225442D01*
X0280959Y0225376D01*
X0281080Y0225307D01*
X0281200Y0225234D01*
X0281318Y0225157D01*
X0281433Y0225078D01*
X0281547Y0224995D01*
X0281657Y0224909D01*
X0281766Y0224820D01*
X0281872Y0224728D01*
X0281975Y0224633D01*
X0282076Y0224536D01*
X0282173Y0224435D01*
X0282268Y0224332D01*
X0282360Y0224226D01*
X0282449Y0224117D01*
X0282535Y0224007D01*
X0282618Y0223893D01*
X0282697Y0223778D01*
X0282774Y0223660D01*
X0282847Y0223540D01*
X0282916Y0223419D01*
X0282982Y0223295D01*
X0283045Y0223169D01*
X0283104Y0223042D01*
X0283159Y0222913D01*
X0283211Y0222783D01*
X0283259Y0222651D01*
X0283304Y0222518D01*
X0283345Y0222384D01*
X0283382Y0222249D01*
X0283415Y0222113D01*
X0283444Y0221975D01*
X0283469Y0221838D01*
X0283491Y0221699D01*
X0283509Y0221560D01*
X0283522Y0221420D01*
X0283532Y0221280D01*
X0283538Y0221140D01*
X0283540Y0221000D01*
X0283540Y0220685D01*
X0279727Y0215201D02*
X0277354Y0215201D01*
X0269727Y0215201D02*
X0257354Y0215201D01*
X0258953Y0216799D02*
X0261531Y0216799D01*
X0263540Y0216799D02*
X0263540Y0216799D01*
X0263540Y0218398D02*
X0263540Y0218398D01*
X0263540Y0219996D02*
X0263540Y0219996D01*
X0265550Y0216799D02*
X0268128Y0216799D01*
X0267371Y0218398D02*
X0267285Y0218398D01*
X0259796Y0218398D02*
X0259709Y0218398D01*
X0249727Y0215201D02*
X0238340Y0215201D01*
X0238340Y0213602D02*
X0313540Y0213602D01*
X0313540Y0215201D02*
X0308547Y0215201D01*
X0309771Y0216799D02*
X0310182Y0216799D01*
X0313540Y0216799D02*
X0313540Y0216799D01*
X0313540Y0218398D02*
X0313540Y0218398D01*
X0313540Y0219996D02*
X0313540Y0219996D01*
X0313540Y0212003D02*
X0238340Y0212003D01*
X0238340Y0210405D02*
X0313540Y0210405D01*
X0313540Y0208806D02*
X0238340Y0208806D01*
X0239210Y0207208D02*
X0313540Y0207208D01*
X0313540Y0205609D02*
X0239873Y0205609D01*
X0240198Y0204011D02*
X0313540Y0204011D01*
X0313540Y0202412D02*
X0240198Y0202412D01*
X0239634Y0200814D02*
X0313540Y0200814D01*
X0313540Y0199215D02*
X0238671Y0199215D01*
X0236734Y0197617D02*
X0313540Y0197617D01*
X0313540Y0196018D02*
X0238973Y0196018D01*
X0243910Y0194420D02*
X0313540Y0194420D01*
X0313540Y0192821D02*
X0247230Y0192821D01*
X0249241Y0191223D02*
X0313540Y0191223D01*
X0313540Y0189624D02*
X0251245Y0189624D01*
X0251757Y0189216D02*
X0251757Y0189216D01*
X0252706Y0188026D02*
X0313540Y0188026D01*
X0313540Y0186427D02*
X0287411Y0186427D01*
X0289010Y0184829D02*
X0289674Y0184829D01*
X0293540Y0184829D02*
X0293540Y0184829D01*
X0293540Y0183230D02*
X0293540Y0183230D01*
X0293540Y0181632D02*
X0293540Y0181632D01*
X0297915Y0181632D02*
X0313540Y0181632D01*
X0313540Y0183230D02*
X0297915Y0183230D01*
X0297407Y0184829D02*
X0313540Y0184829D01*
X0313540Y0180033D02*
X0297915Y0180033D01*
X0297915Y0178435D02*
X0313540Y0178435D01*
X0313540Y0176836D02*
X0296963Y0176836D01*
X0279669Y0186427D02*
X0277411Y0186427D01*
X0269669Y0186427D02*
X0267411Y0186427D01*
X0259669Y0186427D02*
X0253981Y0186427D01*
X0255256Y0184829D02*
X0258071Y0184829D01*
X0257348Y0183230D02*
X0256064Y0183230D01*
X0256834Y0181632D02*
X0256966Y0181632D01*
X0233540Y0203500D02*
X0233540Y0221000D01*
X0239668Y0218398D02*
X0247371Y0218398D01*
X0246966Y0219996D02*
X0240198Y0219996D01*
X0238754Y0216799D02*
X0248128Y0216799D01*
X0287354Y0215201D02*
X0288533Y0215201D01*
X0287313Y0150137D02*
X0285046Y0149198D01*
X0283540Y0147692D01*
X0282035Y0149198D01*
X0279767Y0150137D01*
X0277313Y0150137D01*
X0275046Y0149198D01*
X0273540Y0147692D01*
X0272035Y0149198D01*
X0269767Y0150137D01*
X0267313Y0150137D01*
X0265046Y0149198D01*
X0263540Y0147692D01*
X0262035Y0149198D01*
X0259767Y0150137D01*
X0257313Y0150137D01*
X0255046Y0149198D01*
X0253540Y0147692D01*
X0252035Y0149198D01*
X0249767Y0150137D01*
X0247313Y0150137D01*
X0245046Y0149198D01*
X0243540Y0147692D01*
X0242035Y0149198D01*
X0239767Y0150137D01*
X0237313Y0150137D01*
X0235046Y0149198D01*
X0233311Y0147463D01*
X0232372Y0145195D01*
X0232372Y0136804D01*
X0233311Y0134537D01*
X0233740Y0134108D01*
X0233740Y0127002D01*
X0233623Y0126885D01*
X0232740Y0124754D01*
X0232740Y0117246D01*
X0233623Y0115115D01*
X0235255Y0113483D01*
X0237387Y0112600D01*
X0239694Y0112600D01*
X0241826Y0113483D01*
X0243457Y0115115D01*
X0243540Y0115315D01*
X0243623Y0115115D01*
X0245255Y0113483D01*
X0247387Y0112600D01*
X0249694Y0112600D01*
X0251826Y0113483D01*
X0253457Y0115115D01*
X0253540Y0115315D01*
X0253623Y0115115D01*
X0255255Y0113483D01*
X0257387Y0112600D01*
X0259694Y0112600D01*
X0261826Y0113483D01*
X0263457Y0115115D01*
X0263540Y0115315D01*
X0263623Y0115115D01*
X0265255Y0113483D01*
X0267387Y0112600D01*
X0269694Y0112600D01*
X0271826Y0113483D01*
X0273457Y0115115D01*
X0273540Y0115315D01*
X0273623Y0115115D01*
X0275255Y0113483D01*
X0277387Y0112600D01*
X0279694Y0112600D01*
X0281826Y0113483D01*
X0283457Y0115115D01*
X0283540Y0115315D01*
X0283623Y0115115D01*
X0285255Y0113483D01*
X0287387Y0112600D01*
X0289694Y0112600D01*
X0291826Y0113483D01*
X0293457Y0115115D01*
X0293540Y0115315D01*
X0293623Y0115115D01*
X0295255Y0113483D01*
X0297387Y0112600D01*
X0299694Y0112600D01*
X0301826Y0113483D01*
X0303457Y0115115D01*
X0303540Y0115315D01*
X0303623Y0115115D01*
X0305255Y0113483D01*
X0307387Y0112600D01*
X0309694Y0112600D01*
X0311826Y0113483D01*
X0313457Y0115115D01*
X0313540Y0115315D01*
X0313623Y0115115D01*
X0315255Y0113483D01*
X0317387Y0112600D01*
X0319694Y0112600D01*
X0321826Y0113483D01*
X0323457Y0115115D01*
X0324340Y0117246D01*
X0324340Y0124754D01*
X0323457Y0126885D01*
X0321826Y0128517D01*
X0319694Y0129400D01*
X0317387Y0129400D01*
X0315255Y0128517D01*
X0313623Y0126885D01*
X0313540Y0126685D01*
X0313457Y0126885D01*
X0313340Y0127002D01*
X0313340Y0134108D01*
X0313540Y0134308D01*
X0313540Y0131000D01*
X0333540Y0131000D01*
X0333540Y0026000D01*
X0313540Y0026000D01*
X0313540Y0006000D01*
X0286560Y0006000D01*
X0286812Y0006104D01*
X0288436Y0007729D01*
X0289314Y0009849D01*
X0289486Y0009321D01*
X0289799Y0008707D01*
X0290203Y0008150D01*
X0290690Y0007663D01*
X0291247Y0007258D01*
X0291861Y0006946D01*
X0292516Y0006733D01*
X0293196Y0006625D01*
X0293540Y0006625D01*
X0293540Y0011000D01*
X0293540Y0015375D01*
X0293196Y0015375D01*
X0292516Y0015267D01*
X0291861Y0015054D01*
X0291247Y0014742D01*
X0290690Y0014337D01*
X0290203Y0013850D01*
X0289799Y0013293D01*
X0289486Y0012679D01*
X0289314Y0012151D01*
X0288436Y0014271D01*
X0286812Y0015896D01*
X0285050Y0016625D01*
X0286352Y0016625D01*
X0286810Y0016748D01*
X0287220Y0016985D01*
X0287555Y0017320D01*
X0287792Y0017730D01*
X0287915Y0018188D01*
X0287915Y0021000D01*
X0287915Y0023812D01*
X0287792Y0024270D01*
X0287555Y0024680D01*
X0287220Y0025015D01*
X0286810Y0025252D01*
X0286352Y0025375D01*
X0283540Y0025375D01*
X0280729Y0025375D01*
X0280271Y0025252D01*
X0279860Y0025015D01*
X0279525Y0024680D01*
X0279288Y0024270D01*
X0279166Y0023812D01*
X0279166Y0022510D01*
X0278436Y0024271D01*
X0277540Y0025167D01*
X0277540Y0031796D01*
X0276931Y0033266D01*
X0261931Y0048266D01*
X0260806Y0049391D01*
X0259336Y0050000D01*
X0155197Y0050000D01*
X0137952Y0067245D01*
X0138436Y0067729D01*
X0138540Y0067981D01*
X0138645Y0067729D01*
X0140269Y0066104D01*
X0142392Y0065225D01*
X0144689Y0065225D01*
X0146812Y0066104D01*
X0148436Y0067729D01*
X0148540Y0067981D01*
X0148645Y0067729D01*
X0150269Y0066104D01*
X0152392Y0065225D01*
X0154689Y0065225D01*
X0156812Y0066104D01*
X0158436Y0067729D01*
X0158540Y0067981D01*
X0158645Y0067729D01*
X0160269Y0066104D01*
X0162392Y0065225D01*
X0164689Y0065225D01*
X0166812Y0066104D01*
X0168436Y0067729D01*
X0168540Y0067981D01*
X0168645Y0067729D01*
X0170269Y0066104D01*
X0172392Y0065225D01*
X0174689Y0065225D01*
X0176812Y0066104D01*
X0178436Y0067729D01*
X0178540Y0067981D01*
X0178645Y0067729D01*
X0180269Y0066104D01*
X0182392Y0065225D01*
X0184689Y0065225D01*
X0186812Y0066104D01*
X0188436Y0067729D01*
X0188540Y0067981D01*
X0188645Y0067729D01*
X0190269Y0066104D01*
X0192392Y0065225D01*
X0194689Y0065225D01*
X0196812Y0066104D01*
X0198436Y0067729D01*
X0198540Y0067981D01*
X0198645Y0067729D01*
X0200269Y0066104D01*
X0202392Y0065225D01*
X0204689Y0065225D01*
X0206812Y0066104D01*
X0208436Y0067729D01*
X0208540Y0067981D01*
X0208645Y0067729D01*
X0210269Y0066104D01*
X0212392Y0065225D01*
X0214689Y0065225D01*
X0216812Y0066104D01*
X0218436Y0067729D01*
X0218540Y0067981D01*
X0218645Y0067729D01*
X0220269Y0066104D01*
X0222392Y0065225D01*
X0224689Y0065225D01*
X0226812Y0066104D01*
X0228436Y0067729D01*
X0228540Y0067981D01*
X0228645Y0067729D01*
X0230269Y0066104D01*
X0232392Y0065225D01*
X0234689Y0065225D01*
X0236812Y0066104D01*
X0238436Y0067729D01*
X0238540Y0067981D01*
X0238645Y0067729D01*
X0240269Y0066104D01*
X0242392Y0065225D01*
X0244689Y0065225D01*
X0246812Y0066104D01*
X0248436Y0067729D01*
X0248540Y0067981D01*
X0248645Y0067729D01*
X0250269Y0066104D01*
X0252392Y0065225D01*
X0254689Y0065225D01*
X0256812Y0066104D01*
X0258436Y0067729D01*
X0258540Y0067981D01*
X0258645Y0067729D01*
X0260269Y0066104D01*
X0262392Y0065225D01*
X0264689Y0065225D01*
X0266812Y0066104D01*
X0268436Y0067729D01*
X0268540Y0067981D01*
X0268645Y0067729D01*
X0269540Y0066833D01*
X0269540Y0060204D01*
X0270149Y0058734D01*
X0275149Y0053734D01*
X0276275Y0052609D01*
X0277745Y0052000D01*
X0277766Y0052000D01*
X0277766Y0049851D01*
X0278645Y0047729D01*
X0280269Y0046104D01*
X0280521Y0046000D01*
X0280269Y0045896D01*
X0278645Y0044271D01*
X0277766Y0042149D01*
X0277766Y0039851D01*
X0278645Y0037729D01*
X0280269Y0036104D01*
X0282031Y0035375D01*
X0280729Y0035375D01*
X0280271Y0035252D01*
X0279860Y0035015D01*
X0279525Y0034680D01*
X0279288Y0034270D01*
X0279166Y0033812D01*
X0279166Y0031000D01*
X0279166Y0028188D01*
X0279288Y0027730D01*
X0279525Y0027320D01*
X0279860Y0026985D01*
X0280271Y0026748D01*
X0280729Y0026625D01*
X0283540Y0026625D01*
X0283540Y0031000D01*
X0283540Y0031000D01*
X0279166Y0031000D01*
X0283540Y0031000D01*
X0283540Y0031000D01*
X0283540Y0021000D01*
X0283540Y0025375D01*
X0283540Y0021000D01*
X0283540Y0021000D01*
X0287915Y0021000D01*
X0283540Y0021000D01*
X0283540Y0021000D01*
X0283540Y0021781D02*
X0283540Y0021781D01*
X0283540Y0023379D02*
X0283540Y0023379D01*
X0283540Y0024978D02*
X0283540Y0024978D01*
X0283540Y0026625D02*
X0286352Y0026625D01*
X0286810Y0026748D01*
X0287220Y0026985D01*
X0287555Y0027320D01*
X0287792Y0027730D01*
X0287915Y0028188D01*
X0287915Y0029490D01*
X0288645Y0027729D01*
X0290269Y0026104D01*
X0292392Y0025225D01*
X0294689Y0025225D01*
X0296812Y0026104D01*
X0298436Y0027729D01*
X0299315Y0029851D01*
X0299315Y0032149D01*
X0298436Y0034271D01*
X0296812Y0035896D01*
X0296560Y0036000D01*
X0296812Y0036104D01*
X0297707Y0037000D01*
X0304336Y0037000D01*
X0305806Y0037609D01*
X0306931Y0038734D01*
X0311931Y0043734D01*
X0312540Y0045204D01*
X0312540Y0066796D01*
X0311931Y0068266D01*
X0310806Y0069391D01*
X0309315Y0070882D01*
X0309315Y0072149D01*
X0308436Y0074271D01*
X0306812Y0075896D01*
X0304689Y0076775D01*
X0302392Y0076775D01*
X0300269Y0075896D01*
X0298645Y0074271D01*
X0298540Y0074019D01*
X0298436Y0074271D01*
X0297952Y0074755D01*
X0306263Y0083066D01*
X0307387Y0082600D01*
X0309694Y0082600D01*
X0311826Y0083483D01*
X0313457Y0085115D01*
X0314311Y0087177D01*
X0314463Y0086711D01*
X0314777Y0086094D01*
X0315184Y0085534D01*
X0315674Y0085044D01*
X0316234Y0084637D01*
X0316851Y0084322D01*
X0317510Y0084108D01*
X0318194Y0084000D01*
X0318540Y0084000D01*
X0318540Y0091000D01*
X0318540Y0098000D01*
X0318194Y0098000D01*
X0317510Y0097892D01*
X0316851Y0097678D01*
X0316234Y0097363D01*
X0315674Y0096956D01*
X0315184Y0096466D01*
X0314777Y0095906D01*
X0314463Y0095289D01*
X0314311Y0094823D01*
X0313602Y0096536D01*
X0313753Y0096687D01*
X0314240Y0097863D01*
X0314240Y0104137D01*
X0313753Y0105313D01*
X0312853Y0106213D01*
X0311677Y0106700D01*
X0305404Y0106700D01*
X0304228Y0106213D01*
X0303540Y0105525D01*
X0302853Y0106213D01*
X0301677Y0106700D01*
X0295404Y0106700D01*
X0294228Y0106213D01*
X0293540Y0105525D01*
X0292853Y0106213D01*
X0291677Y0106700D01*
X0285404Y0106700D01*
X0284228Y0106213D01*
X0283540Y0105525D01*
X0282853Y0106213D01*
X0281677Y0106700D01*
X0275404Y0106700D01*
X0274228Y0106213D01*
X0273328Y0105313D01*
X0272840Y0104137D01*
X0272840Y0097863D01*
X0273096Y0097247D01*
X0271826Y0098517D01*
X0269694Y0099400D01*
X0267387Y0099400D01*
X0265255Y0098517D01*
X0263985Y0097247D01*
X0264240Y0097863D01*
X0264240Y0104137D01*
X0263753Y0105313D01*
X0262853Y0106213D01*
X0261677Y0106700D01*
X0255404Y0106700D01*
X0254228Y0106213D01*
X0253540Y0105525D01*
X0252853Y0106213D01*
X0251677Y0106700D01*
X0245404Y0106700D01*
X0244228Y0106213D01*
X0243540Y0105525D01*
X0242853Y0106213D01*
X0241677Y0106700D01*
X0235404Y0106700D01*
X0234228Y0106213D01*
X0233328Y0105313D01*
X0232840Y0104137D01*
X0232840Y0097863D01*
X0233328Y0096687D01*
X0233479Y0096536D01*
X0232740Y0094754D01*
X0232740Y0091196D01*
X0225770Y0085000D01*
X0221346Y0085000D01*
X0221407Y0085044D01*
X0221896Y0085534D01*
X0222304Y0086094D01*
X0222618Y0086711D01*
X0222832Y0087370D01*
X0222940Y0088054D01*
X0222940Y0091000D01*
X0222940Y0093946D01*
X0222832Y0094630D01*
X0222618Y0095289D01*
X0222304Y0095906D01*
X0221896Y0096466D01*
X0221407Y0096956D01*
X0220846Y0097363D01*
X0220229Y0097678D01*
X0219571Y0097892D01*
X0218887Y0098000D01*
X0218540Y0098000D01*
X0218194Y0098000D01*
X0217510Y0097892D01*
X0216851Y0097678D01*
X0216234Y0097363D01*
X0215674Y0096956D01*
X0215184Y0096466D01*
X0214777Y0095906D01*
X0214463Y0095289D01*
X0214311Y0094823D01*
X0213602Y0096536D01*
X0213753Y0096687D01*
X0214240Y0097863D01*
X0214240Y0104137D01*
X0213753Y0105313D01*
X0212853Y0106213D01*
X0211677Y0106700D01*
X0205404Y0106700D01*
X0204228Y0106213D01*
X0203328Y0105313D01*
X0202840Y0104137D01*
X0202840Y0097863D01*
X0203096Y0097247D01*
X0201826Y0098517D01*
X0199694Y0099400D01*
X0197387Y0099400D01*
X0195255Y0098517D01*
X0193623Y0096885D01*
X0193540Y0096685D01*
X0193457Y0096885D01*
X0191826Y0098517D01*
X0189694Y0099400D01*
X0187387Y0099400D01*
X0185255Y0098517D01*
X0183623Y0096885D01*
X0183540Y0096685D01*
X0183457Y0096885D01*
X0181826Y0098517D01*
X0179694Y0099400D01*
X0177387Y0099400D01*
X0175255Y0098517D01*
X0173623Y0096885D01*
X0173540Y0096685D01*
X0173457Y0096885D01*
X0171826Y0098517D01*
X0169694Y0099400D01*
X0167387Y0099400D01*
X0165255Y0098517D01*
X0163985Y0097247D01*
X0164240Y0097863D01*
X0164240Y0104137D01*
X0163753Y0105313D01*
X0162853Y0106213D01*
X0161677Y0106700D01*
X0155404Y0106700D01*
X0154228Y0106213D01*
X0153540Y0105525D01*
X0152853Y0106213D01*
X0151677Y0106700D01*
X0145404Y0106700D01*
X0144228Y0106213D01*
X0143328Y0105313D01*
X0142840Y0104137D01*
X0142840Y0097863D01*
X0143096Y0097247D01*
X0141826Y0098517D01*
X0139694Y0099400D01*
X0137387Y0099400D01*
X0135255Y0098517D01*
X0133623Y0096885D01*
X0132842Y0095000D01*
X0127745Y0095000D01*
X0126275Y0094391D01*
X0125149Y0093266D01*
X0122940Y0091057D01*
X0122940Y0093946D01*
X0122832Y0094630D01*
X0122618Y0095289D01*
X0122304Y0095906D01*
X0121896Y0096466D01*
X0121407Y0096956D01*
X0120846Y0097363D01*
X0120229Y0097678D01*
X0119571Y0097892D01*
X0118887Y0098000D01*
X0118540Y0098000D01*
X0118194Y0098000D01*
X0117510Y0097892D01*
X0116851Y0097678D01*
X0116234Y0097363D01*
X0115674Y0096956D01*
X0115184Y0096466D01*
X0114777Y0095906D01*
X0114463Y0095289D01*
X0114311Y0094823D01*
X0113457Y0096885D01*
X0111826Y0098517D01*
X0109694Y0099400D01*
X0107387Y0099400D01*
X0105255Y0098517D01*
X0103985Y0097247D01*
X0104240Y0097863D01*
X0104240Y0104137D01*
X0103753Y0105313D01*
X0102853Y0106213D01*
X0101677Y0106700D01*
X0095404Y0106700D01*
X0094228Y0106213D01*
X0093540Y0105525D01*
X0092853Y0106213D01*
X0091677Y0106700D01*
X0085404Y0106700D01*
X0084228Y0106213D01*
X0083328Y0105313D01*
X0082840Y0104137D01*
X0082840Y0097863D01*
X0083096Y0097247D01*
X0081826Y0098517D01*
X0079694Y0099400D01*
X0077387Y0099400D01*
X0075255Y0098517D01*
X0073623Y0096885D01*
X0073540Y0096685D01*
X0073457Y0096885D01*
X0071826Y0098517D01*
X0069694Y0099400D01*
X0067387Y0099400D01*
X0065255Y0098517D01*
X0063623Y0096885D01*
X0063540Y0096685D01*
X0063457Y0096885D01*
X0061826Y0098517D01*
X0059694Y0099400D01*
X0057387Y0099400D01*
X0055255Y0098517D01*
X0053623Y0096885D01*
X0053540Y0096685D01*
X0053457Y0096885D01*
X0051826Y0098517D01*
X0049694Y0099400D01*
X0047387Y0099400D01*
X0045255Y0098517D01*
X0043623Y0096885D01*
X0043540Y0096685D01*
X0043457Y0096885D01*
X0041826Y0098517D01*
X0039694Y0099400D01*
X0037387Y0099400D01*
X0035255Y0098517D01*
X0033623Y0096885D01*
X0032740Y0094754D01*
X0032740Y0087246D01*
X0033623Y0085115D01*
X0034540Y0084198D01*
X0034540Y0060204D01*
X0035149Y0058734D01*
X0052525Y0041359D01*
X0053995Y0040750D01*
X0079383Y0040750D01*
X0085930Y0034204D01*
X0085427Y0034460D01*
X0084630Y0034719D01*
X0083802Y0034850D01*
X0083758Y0034850D01*
X0083758Y0026375D01*
X0088708Y0026375D01*
X0088708Y0029944D01*
X0088577Y0030772D01*
X0088318Y0031569D01*
X0088061Y0032072D01*
X0099540Y0020593D01*
X0099540Y0016454D01*
X0100149Y0014984D01*
X0101275Y0013859D01*
X0102745Y0013250D01*
X0107766Y0013250D01*
X0107766Y0007789D01*
X0108253Y0006613D01*
X0108865Y0006000D01*
X0043540Y0006000D01*
X0043540Y0021000D01*
X0028540Y0021000D01*
X0028540Y0151000D01*
X0313540Y0151000D01*
X0313540Y0147692D01*
X0312035Y0149198D01*
X0309767Y0150137D01*
X0307313Y0150137D01*
X0305046Y0149198D01*
X0303540Y0147692D01*
X0302035Y0149198D01*
X0299767Y0150137D01*
X0297313Y0150137D01*
X0295046Y0149198D01*
X0293540Y0147692D01*
X0292035Y0149198D01*
X0289767Y0150137D01*
X0287313Y0150137D01*
X0286166Y0149662D02*
X0280915Y0149662D01*
X0283169Y0148063D02*
X0283911Y0148063D01*
X0290915Y0149662D02*
X0296166Y0149662D01*
X0293911Y0148063D02*
X0293169Y0148063D01*
X0300915Y0149662D02*
X0306166Y0149662D01*
X0303911Y0148063D02*
X0303169Y0148063D01*
X0310915Y0149662D02*
X0313540Y0149662D01*
X0313540Y0148063D02*
X0313169Y0148063D01*
X0313340Y0133676D02*
X0313540Y0133676D01*
X0313540Y0132078D02*
X0313340Y0132078D01*
X0313340Y0130479D02*
X0333540Y0130479D01*
X0333540Y0128881D02*
X0320947Y0128881D01*
X0323060Y0127282D02*
X0333540Y0127282D01*
X0333540Y0125684D02*
X0323955Y0125684D01*
X0324340Y0124085D02*
X0333540Y0124085D01*
X0333540Y0122487D02*
X0324340Y0122487D01*
X0324340Y0120888D02*
X0333540Y0120888D01*
X0333540Y0119290D02*
X0324340Y0119290D01*
X0324340Y0117691D02*
X0333540Y0117691D01*
X0333540Y0116093D02*
X0323863Y0116093D01*
X0322837Y0114494D02*
X0333540Y0114494D01*
X0333540Y0112896D02*
X0320408Y0112896D01*
X0316673Y0112896D02*
X0310408Y0112896D01*
X0312837Y0114494D02*
X0314244Y0114494D01*
X0306673Y0112896D02*
X0300408Y0112896D01*
X0302837Y0114494D02*
X0304244Y0114494D01*
X0296673Y0112896D02*
X0290408Y0112896D01*
X0292837Y0114494D02*
X0294244Y0114494D01*
X0286673Y0112896D02*
X0280408Y0112896D01*
X0282837Y0114494D02*
X0284244Y0114494D01*
X0276673Y0112896D02*
X0270408Y0112896D01*
X0272837Y0114494D02*
X0274244Y0114494D01*
X0266673Y0112896D02*
X0260408Y0112896D01*
X0262837Y0114494D02*
X0264244Y0114494D01*
X0256673Y0112896D02*
X0250408Y0112896D01*
X0252837Y0114494D02*
X0254244Y0114494D01*
X0246673Y0112896D02*
X0240408Y0112896D01*
X0242837Y0114494D02*
X0244244Y0114494D01*
X0236673Y0112896D02*
X0220408Y0112896D01*
X0219694Y0112600D02*
X0221826Y0113483D01*
X0223457Y0115115D01*
X0224340Y0117246D01*
X0224340Y0124754D01*
X0223457Y0126885D01*
X0221826Y0128517D01*
X0219694Y0129400D01*
X0217387Y0129400D01*
X0215255Y0128517D01*
X0213623Y0126885D01*
X0213540Y0126685D01*
X0213457Y0126885D01*
X0213340Y0127002D01*
X0213340Y0134108D01*
X0213770Y0134537D01*
X0214709Y0136804D01*
X0214709Y0145195D01*
X0213770Y0147463D01*
X0212035Y0149198D01*
X0209767Y0150137D01*
X0207313Y0150137D01*
X0205046Y0149198D01*
X0203540Y0147692D01*
X0202035Y0149198D01*
X0199767Y0150137D01*
X0197313Y0150137D01*
X0195046Y0149198D01*
X0193540Y0147692D01*
X0192035Y0149198D01*
X0189767Y0150137D01*
X0187313Y0150137D01*
X0185046Y0149198D01*
X0183540Y0147692D01*
X0182035Y0149198D01*
X0179767Y0150137D01*
X0177313Y0150137D01*
X0175046Y0149198D01*
X0173540Y0147692D01*
X0172035Y0149198D01*
X0169767Y0150137D01*
X0167313Y0150137D01*
X0165046Y0149198D01*
X0163540Y0147692D01*
X0162035Y0149198D01*
X0159767Y0150137D01*
X0157313Y0150137D01*
X0155046Y0149198D01*
X0153540Y0147692D01*
X0152035Y0149198D01*
X0149767Y0150137D01*
X0147313Y0150137D01*
X0145046Y0149198D01*
X0143540Y0147692D01*
X0142035Y0149198D01*
X0139767Y0150137D01*
X0137313Y0150137D01*
X0135046Y0149198D01*
X0133311Y0147463D01*
X0132372Y0145195D01*
X0132372Y0136804D01*
X0133311Y0134537D01*
X0133740Y0134108D01*
X0133740Y0127002D01*
X0133623Y0126885D01*
X0132740Y0124754D01*
X0132740Y0117246D01*
X0133623Y0115115D01*
X0135255Y0113483D01*
X0137387Y0112600D01*
X0139694Y0112600D01*
X0141826Y0113483D01*
X0143457Y0115115D01*
X0143540Y0115315D01*
X0143623Y0115115D01*
X0145255Y0113483D01*
X0147387Y0112600D01*
X0149694Y0112600D01*
X0151826Y0113483D01*
X0153457Y0115115D01*
X0153540Y0115315D01*
X0153623Y0115115D01*
X0155255Y0113483D01*
X0157387Y0112600D01*
X0159694Y0112600D01*
X0161826Y0113483D01*
X0163457Y0115115D01*
X0163540Y0115315D01*
X0163623Y0115115D01*
X0165255Y0113483D01*
X0167387Y0112600D01*
X0169694Y0112600D01*
X0171826Y0113483D01*
X0173457Y0115115D01*
X0173540Y0115315D01*
X0173623Y0115115D01*
X0175255Y0113483D01*
X0177387Y0112600D01*
X0179694Y0112600D01*
X0181826Y0113483D01*
X0183457Y0115115D01*
X0183540Y0115315D01*
X0183623Y0115115D01*
X0185255Y0113483D01*
X0187387Y0112600D01*
X0189694Y0112600D01*
X0191826Y0113483D01*
X0193457Y0115115D01*
X0193540Y0115315D01*
X0193623Y0115115D01*
X0195255Y0113483D01*
X0197387Y0112600D01*
X0199694Y0112600D01*
X0201826Y0113483D01*
X0203457Y0115115D01*
X0203540Y0115315D01*
X0203623Y0115115D01*
X0205255Y0113483D01*
X0207387Y0112600D01*
X0209694Y0112600D01*
X0211826Y0113483D01*
X0213457Y0115115D01*
X0213540Y0115315D01*
X0213623Y0115115D01*
X0215255Y0113483D01*
X0217387Y0112600D01*
X0219694Y0112600D01*
X0216673Y0112896D02*
X0210408Y0112896D01*
X0212837Y0114494D02*
X0214244Y0114494D01*
X0222837Y0114494D02*
X0234244Y0114494D01*
X0233218Y0116093D02*
X0223863Y0116093D01*
X0224340Y0117691D02*
X0232740Y0117691D01*
X0232740Y0119290D02*
X0224340Y0119290D01*
X0224340Y0120888D02*
X0232740Y0120888D01*
X0232740Y0122487D02*
X0224340Y0122487D01*
X0224340Y0124085D02*
X0232740Y0124085D01*
X0233126Y0125684D02*
X0223955Y0125684D01*
X0223060Y0127282D02*
X0233740Y0127282D01*
X0233740Y0128881D02*
X0220947Y0128881D01*
X0216133Y0128881D02*
X0213340Y0128881D01*
X0213340Y0130479D02*
X0233740Y0130479D01*
X0233740Y0132078D02*
X0213340Y0132078D01*
X0213340Y0133676D02*
X0233740Y0133676D01*
X0233005Y0135275D02*
X0214075Y0135275D01*
X0214709Y0136873D02*
X0232372Y0136873D01*
X0232372Y0138472D02*
X0214709Y0138472D01*
X0214709Y0140070D02*
X0232372Y0140070D01*
X0232372Y0141669D02*
X0214709Y0141669D01*
X0214709Y0143268D02*
X0232372Y0143268D01*
X0232372Y0144866D02*
X0214709Y0144866D01*
X0214183Y0146465D02*
X0232898Y0146465D01*
X0233911Y0148063D02*
X0213169Y0148063D01*
X0210915Y0149662D02*
X0236166Y0149662D01*
X0240915Y0149662D02*
X0246166Y0149662D01*
X0243911Y0148063D02*
X0243169Y0148063D01*
X0250915Y0149662D02*
X0256166Y0149662D01*
X0253911Y0148063D02*
X0253169Y0148063D01*
X0260915Y0149662D02*
X0266166Y0149662D01*
X0263911Y0148063D02*
X0263169Y0148063D01*
X0270915Y0149662D02*
X0276166Y0149662D01*
X0273911Y0148063D02*
X0273169Y0148063D01*
X0313340Y0128881D02*
X0316133Y0128881D01*
X0314020Y0127282D02*
X0313340Y0127282D01*
X0333540Y0111297D02*
X0028540Y0111297D01*
X0028540Y0109699D02*
X0333540Y0109699D01*
X0333540Y0108100D02*
X0028540Y0108100D01*
X0028540Y0106502D02*
X0084925Y0106502D01*
X0083158Y0104903D02*
X0028540Y0104903D01*
X0028540Y0103305D02*
X0082840Y0103305D01*
X0082840Y0101706D02*
X0028540Y0101706D01*
X0028540Y0100108D02*
X0082840Y0100108D01*
X0082840Y0098509D02*
X0081834Y0098509D01*
X0075247Y0098509D02*
X0071834Y0098509D01*
X0073432Y0096911D02*
X0073649Y0096911D01*
X0065247Y0098509D02*
X0061834Y0098509D01*
X0063432Y0096911D02*
X0063649Y0096911D01*
X0058540Y0091000D02*
X0058540Y0081000D01*
X0068540Y0081000D01*
X0124790Y0024750D01*
X0126040Y0024750D01*
X0143540Y0011000D01*
X0143540Y0016000D02*
X0093540Y0066000D01*
X0093540Y0076000D01*
X0108540Y0091000D01*
X0114109Y0095312D02*
X0114474Y0095312D01*
X0113432Y0096911D02*
X0115628Y0096911D01*
X0118540Y0096911D02*
X0118540Y0096911D01*
X0118540Y0098000D02*
X0118540Y0091000D01*
X0118540Y0091000D01*
X0118540Y0098000D01*
X0118540Y0095312D02*
X0118540Y0095312D01*
X0118540Y0093714D02*
X0118540Y0093714D01*
X0118540Y0092115D02*
X0118540Y0092115D01*
X0122940Y0092115D02*
X0123999Y0092115D01*
X0122940Y0093714D02*
X0125597Y0093714D01*
X0122606Y0095312D02*
X0132972Y0095312D01*
X0133649Y0096911D02*
X0121452Y0096911D01*
X0128540Y0091000D02*
X0138540Y0091000D01*
X0136768Y0083124D02*
X0127667Y0083124D01*
X0119293Y0076000D01*
X0108540Y0076000D01*
X0108540Y0066000D01*
X0113915Y0066000D01*
X0156040Y0023875D01*
X0209681Y0023875D01*
X0218481Y0023825D01*
X0232728Y0023825D01*
X0233053Y0011000D01*
X0233540Y0011000D01*
X0223728Y0011000D02*
X0223728Y0020325D01*
X0148540Y0020325D01*
X0148540Y0021000D01*
X0102290Y0067250D01*
X0102290Y0074750D01*
X0108540Y0081000D01*
X0118540Y0081000D01*
X0128540Y0091000D01*
X0135247Y0098509D02*
X0111834Y0098509D01*
X0105247Y0098509D02*
X0104240Y0098509D01*
X0104240Y0100108D02*
X0142840Y0100108D01*
X0142840Y0101706D02*
X0104240Y0101706D01*
X0104240Y0103305D02*
X0142840Y0103305D01*
X0143158Y0104903D02*
X0103923Y0104903D01*
X0102155Y0106502D02*
X0144925Y0106502D01*
X0152155Y0106502D02*
X0154925Y0106502D01*
X0162155Y0106502D02*
X0204925Y0106502D01*
X0203158Y0104903D02*
X0163923Y0104903D01*
X0164240Y0103305D02*
X0202840Y0103305D01*
X0202840Y0101706D02*
X0164240Y0101706D01*
X0164240Y0100108D02*
X0202840Y0100108D01*
X0202840Y0098509D02*
X0201834Y0098509D01*
X0195247Y0098509D02*
X0191834Y0098509D01*
X0193432Y0096911D02*
X0193649Y0096911D01*
X0198540Y0091000D02*
X0183540Y0076000D01*
X0178540Y0076000D01*
X0173540Y0071000D01*
X0169835Y0066539D02*
X0167246Y0066539D01*
X0163540Y0071000D02*
X0168540Y0076000D01*
X0173540Y0076000D01*
X0188540Y0091000D01*
X0183649Y0096911D02*
X0183432Y0096911D01*
X0181834Y0098509D02*
X0185247Y0098509D01*
X0175247Y0098509D02*
X0171834Y0098509D01*
X0173432Y0096911D02*
X0173649Y0096911D01*
X0178540Y0091000D02*
X0163540Y0076000D01*
X0158540Y0076000D01*
X0153540Y0071000D01*
X0149835Y0066539D02*
X0147246Y0066539D01*
X0143540Y0071000D02*
X0148540Y0076000D01*
X0153540Y0076000D01*
X0168540Y0091000D01*
X0165247Y0098509D02*
X0164240Y0098509D01*
X0158540Y0091000D02*
X0147290Y0078500D01*
X0132290Y0078500D01*
X0128540Y0076000D01*
X0128540Y0059750D01*
X0158540Y0029750D01*
X0243540Y0029750D01*
X0243540Y0011000D01*
X0223728Y0011000D02*
X0223540Y0011000D01*
X0213540Y0011000D02*
X0213540Y0016000D01*
X0143540Y0016000D01*
X0133540Y0011000D02*
X0121040Y0021000D01*
X0113540Y0021000D01*
X0063540Y0071000D01*
X0048540Y0071000D01*
X0048540Y0091000D01*
X0043649Y0096911D02*
X0043432Y0096911D01*
X0041834Y0098509D02*
X0045247Y0098509D01*
X0051834Y0098509D02*
X0055247Y0098509D01*
X0053649Y0096911D02*
X0053432Y0096911D01*
X0038540Y0091000D02*
X0038540Y0061000D01*
X0054790Y0044750D01*
X0081040Y0044750D01*
X0103540Y0022250D01*
X0103540Y0017250D01*
X0117290Y0017250D01*
X0123540Y0011000D01*
X0107766Y0010591D02*
X0043540Y0010591D01*
X0043540Y0008993D02*
X0107766Y0008993D01*
X0107929Y0007394D02*
X0043540Y0007394D01*
X0043540Y0012190D02*
X0107766Y0012190D01*
X0101446Y0013788D02*
X0043540Y0013788D01*
X0043540Y0015387D02*
X0099983Y0015387D01*
X0099540Y0016985D02*
X0067719Y0016985D01*
X0067507Y0016774D02*
X0069399Y0018666D01*
X0070423Y0021137D01*
X0070423Y0030863D01*
X0069399Y0033334D01*
X0067507Y0035226D01*
X0065036Y0036250D01*
X0062360Y0036250D01*
X0059888Y0035226D01*
X0057997Y0033334D01*
X0056973Y0030863D01*
X0056973Y0021137D01*
X0057997Y0018666D01*
X0059888Y0016774D01*
X0062360Y0015750D01*
X0065036Y0015750D01*
X0067507Y0016774D01*
X0069317Y0018584D02*
X0079744Y0018584D01*
X0079914Y0018413D02*
X0080592Y0017921D01*
X0081339Y0017540D01*
X0082136Y0017281D01*
X0082964Y0017150D01*
X0083008Y0017150D01*
X0083008Y0025625D01*
X0083758Y0025625D01*
X0083758Y0026375D01*
X0083008Y0026375D01*
X0083008Y0034850D01*
X0082964Y0034850D01*
X0082136Y0034719D01*
X0081339Y0034460D01*
X0080592Y0034079D01*
X0079914Y0033587D01*
X0079321Y0032994D01*
X0078829Y0032316D01*
X0078448Y0031569D01*
X0078189Y0030772D01*
X0078058Y0029944D01*
X0078058Y0026375D01*
X0083008Y0026375D01*
X0083008Y0025625D01*
X0078058Y0025625D01*
X0078058Y0022056D01*
X0078189Y0021228D01*
X0078448Y0020431D01*
X0078829Y0019684D01*
X0079321Y0019006D01*
X0079914Y0018413D01*
X0078575Y0020182D02*
X0070027Y0020182D01*
X0070423Y0021781D02*
X0078101Y0021781D01*
X0078058Y0023379D02*
X0070423Y0023379D01*
X0070423Y0024978D02*
X0078058Y0024978D01*
X0078058Y0026576D02*
X0070423Y0026576D01*
X0070423Y0028175D02*
X0078058Y0028175D01*
X0078058Y0029773D02*
X0070423Y0029773D01*
X0070212Y0031372D02*
X0078384Y0031372D01*
X0079304Y0032970D02*
X0069550Y0032970D01*
X0068165Y0034569D02*
X0081674Y0034569D01*
X0083008Y0034569D02*
X0083758Y0034569D01*
X0085092Y0034569D02*
X0085565Y0034569D01*
X0083966Y0036167D02*
X0065235Y0036167D01*
X0062160Y0036167D02*
X0028540Y0036167D01*
X0028540Y0034569D02*
X0059231Y0034569D01*
X0057846Y0032970D02*
X0028540Y0032970D01*
X0028540Y0031372D02*
X0057184Y0031372D01*
X0056973Y0029773D02*
X0028540Y0029773D01*
X0028540Y0028175D02*
X0056973Y0028175D01*
X0056973Y0026576D02*
X0028540Y0026576D01*
X0028540Y0024978D02*
X0056973Y0024978D01*
X0056973Y0023379D02*
X0028540Y0023379D01*
X0028540Y0021781D02*
X0056973Y0021781D01*
X0057368Y0020182D02*
X0043540Y0020182D01*
X0043540Y0018584D02*
X0058079Y0018584D01*
X0059677Y0016985D02*
X0043540Y0016985D01*
X0028540Y0037766D02*
X0082368Y0037766D01*
X0080769Y0039364D02*
X0028540Y0039364D01*
X0028540Y0040963D02*
X0053481Y0040963D01*
X0051322Y0042561D02*
X0028540Y0042561D01*
X0028540Y0044160D02*
X0049724Y0044160D01*
X0048125Y0045758D02*
X0028540Y0045758D01*
X0028540Y0047357D02*
X0046527Y0047357D01*
X0044928Y0048955D02*
X0028540Y0048955D01*
X0028540Y0050554D02*
X0043330Y0050554D01*
X0041731Y0052152D02*
X0028540Y0052152D01*
X0028540Y0053751D02*
X0040133Y0053751D01*
X0038534Y0055349D02*
X0028540Y0055349D01*
X0028540Y0056948D02*
X0036936Y0056948D01*
X0035337Y0058546D02*
X0028540Y0058546D01*
X0028540Y0060145D02*
X0034565Y0060145D01*
X0034540Y0061743D02*
X0028540Y0061743D01*
X0028540Y0063342D02*
X0034540Y0063342D01*
X0034540Y0064940D02*
X0028540Y0064940D01*
X0028540Y0066539D02*
X0034540Y0066539D01*
X0034540Y0068137D02*
X0028540Y0068137D01*
X0028540Y0069736D02*
X0034540Y0069736D01*
X0034540Y0071334D02*
X0028540Y0071334D01*
X0028540Y0072933D02*
X0034540Y0072933D01*
X0034540Y0074532D02*
X0028540Y0074532D01*
X0028540Y0076130D02*
X0034540Y0076130D01*
X0034540Y0077729D02*
X0028540Y0077729D01*
X0028540Y0079327D02*
X0034540Y0079327D01*
X0034540Y0080926D02*
X0028540Y0080926D01*
X0028540Y0082524D02*
X0034540Y0082524D01*
X0034540Y0084123D02*
X0028540Y0084123D01*
X0028540Y0085721D02*
X0033372Y0085721D01*
X0032740Y0087320D02*
X0028540Y0087320D01*
X0028540Y0088918D02*
X0032740Y0088918D01*
X0032740Y0090517D02*
X0028540Y0090517D01*
X0028540Y0092115D02*
X0032740Y0092115D01*
X0032740Y0093714D02*
X0028540Y0093714D01*
X0028540Y0095312D02*
X0032972Y0095312D01*
X0033649Y0096911D02*
X0028540Y0096911D01*
X0028540Y0098509D02*
X0035247Y0098509D01*
X0037387Y0112600D02*
X0035255Y0113483D01*
X0033623Y0115115D01*
X0032740Y0117246D01*
X0032740Y0124754D01*
X0033623Y0126885D01*
X0033740Y0127002D01*
X0033740Y0134108D01*
X0033311Y0134537D01*
X0032372Y0136804D01*
X0032372Y0145195D01*
X0033311Y0147463D01*
X0035046Y0149198D01*
X0037313Y0150137D01*
X0039767Y0150137D01*
X0042035Y0149198D01*
X0043540Y0147692D01*
X0045046Y0149198D01*
X0047313Y0150137D01*
X0049767Y0150137D01*
X0052035Y0149198D01*
X0053540Y0147692D01*
X0055046Y0149198D01*
X0057313Y0150137D01*
X0059767Y0150137D01*
X0062035Y0149198D01*
X0063540Y0147692D01*
X0065046Y0149198D01*
X0067313Y0150137D01*
X0069767Y0150137D01*
X0072035Y0149198D01*
X0073540Y0147692D01*
X0075046Y0149198D01*
X0077313Y0150137D01*
X0079767Y0150137D01*
X0082035Y0149198D01*
X0083540Y0147692D01*
X0085046Y0149198D01*
X0087313Y0150137D01*
X0089767Y0150137D01*
X0092035Y0149198D01*
X0093540Y0147692D01*
X0095046Y0149198D01*
X0097313Y0150137D01*
X0099767Y0150137D01*
X0102035Y0149198D01*
X0103540Y0147692D01*
X0105046Y0149198D01*
X0107313Y0150137D01*
X0109767Y0150137D01*
X0112035Y0149198D01*
X0113770Y0147463D01*
X0114709Y0145195D01*
X0114709Y0136804D01*
X0113770Y0134537D01*
X0113340Y0134108D01*
X0113340Y0127002D01*
X0113457Y0126885D01*
X0113540Y0126685D01*
X0113623Y0126885D01*
X0115255Y0128517D01*
X0117387Y0129400D01*
X0119694Y0129400D01*
X0121826Y0128517D01*
X0123457Y0126885D01*
X0124340Y0124754D01*
X0124340Y0117246D01*
X0123457Y0115115D01*
X0121826Y0113483D01*
X0119694Y0112600D01*
X0117387Y0112600D01*
X0115255Y0113483D01*
X0113623Y0115115D01*
X0113540Y0115315D01*
X0113457Y0115115D01*
X0111826Y0113483D01*
X0109694Y0112600D01*
X0107387Y0112600D01*
X0105255Y0113483D01*
X0103623Y0115115D01*
X0103540Y0115315D01*
X0103457Y0115115D01*
X0101826Y0113483D01*
X0099694Y0112600D01*
X0097387Y0112600D01*
X0095255Y0113483D01*
X0093623Y0115115D01*
X0093540Y0115315D01*
X0093457Y0115115D01*
X0091826Y0113483D01*
X0089694Y0112600D01*
X0087387Y0112600D01*
X0085255Y0113483D01*
X0083623Y0115115D01*
X0083540Y0115315D01*
X0083457Y0115115D01*
X0081826Y0113483D01*
X0079694Y0112600D01*
X0077387Y0112600D01*
X0075255Y0113483D01*
X0073623Y0115115D01*
X0073540Y0115315D01*
X0073457Y0115115D01*
X0071826Y0113483D01*
X0069694Y0112600D01*
X0067387Y0112600D01*
X0065255Y0113483D01*
X0063623Y0115115D01*
X0063540Y0115315D01*
X0063457Y0115115D01*
X0061826Y0113483D01*
X0059694Y0112600D01*
X0057387Y0112600D01*
X0055255Y0113483D01*
X0053623Y0115115D01*
X0053540Y0115315D01*
X0053457Y0115115D01*
X0051826Y0113483D01*
X0049694Y0112600D01*
X0047387Y0112600D01*
X0045255Y0113483D01*
X0043623Y0115115D01*
X0043540Y0115315D01*
X0043457Y0115115D01*
X0041826Y0113483D01*
X0039694Y0112600D01*
X0037387Y0112600D01*
X0036673Y0112896D02*
X0028540Y0112896D01*
X0028540Y0114494D02*
X0034244Y0114494D01*
X0033218Y0116093D02*
X0028540Y0116093D01*
X0028540Y0117691D02*
X0032740Y0117691D01*
X0032740Y0119290D02*
X0028540Y0119290D01*
X0028540Y0120888D02*
X0032740Y0120888D01*
X0032740Y0122487D02*
X0028540Y0122487D01*
X0028540Y0124085D02*
X0032740Y0124085D01*
X0033126Y0125684D02*
X0028540Y0125684D01*
X0028540Y0127282D02*
X0033740Y0127282D01*
X0033740Y0128881D02*
X0028540Y0128881D01*
X0028540Y0130479D02*
X0033740Y0130479D01*
X0033740Y0132078D02*
X0028540Y0132078D01*
X0028540Y0133676D02*
X0033740Y0133676D01*
X0033005Y0135275D02*
X0028540Y0135275D01*
X0028540Y0136873D02*
X0032372Y0136873D01*
X0032372Y0138472D02*
X0028540Y0138472D01*
X0028540Y0140070D02*
X0032372Y0140070D01*
X0032372Y0141669D02*
X0028540Y0141669D01*
X0028540Y0143268D02*
X0032372Y0143268D01*
X0032372Y0144866D02*
X0028540Y0144866D01*
X0028540Y0146465D02*
X0032898Y0146465D01*
X0033911Y0148063D02*
X0028540Y0148063D01*
X0028540Y0149662D02*
X0036166Y0149662D01*
X0040915Y0149662D02*
X0046166Y0149662D01*
X0043911Y0148063D02*
X0043169Y0148063D01*
X0050915Y0149662D02*
X0056166Y0149662D01*
X0053911Y0148063D02*
X0053169Y0148063D01*
X0060915Y0149662D02*
X0066166Y0149662D01*
X0063911Y0148063D02*
X0063169Y0148063D01*
X0070915Y0149662D02*
X0076166Y0149662D01*
X0073911Y0148063D02*
X0073169Y0148063D01*
X0080915Y0149662D02*
X0086166Y0149662D01*
X0083911Y0148063D02*
X0083169Y0148063D01*
X0090915Y0149662D02*
X0096166Y0149662D01*
X0093911Y0148063D02*
X0093169Y0148063D01*
X0100915Y0149662D02*
X0106166Y0149662D01*
X0103911Y0148063D02*
X0103169Y0148063D01*
X0110915Y0149662D02*
X0136166Y0149662D01*
X0133911Y0148063D02*
X0113169Y0148063D01*
X0114183Y0146465D02*
X0132898Y0146465D01*
X0132372Y0144866D02*
X0114709Y0144866D01*
X0114709Y0143268D02*
X0132372Y0143268D01*
X0132372Y0141669D02*
X0114709Y0141669D01*
X0114709Y0140070D02*
X0132372Y0140070D01*
X0132372Y0138472D02*
X0114709Y0138472D01*
X0114709Y0136873D02*
X0132372Y0136873D01*
X0133005Y0135275D02*
X0114075Y0135275D01*
X0113340Y0133676D02*
X0133740Y0133676D01*
X0133740Y0132078D02*
X0113340Y0132078D01*
X0113340Y0130479D02*
X0133740Y0130479D01*
X0133740Y0128881D02*
X0120947Y0128881D01*
X0123060Y0127282D02*
X0133740Y0127282D01*
X0133126Y0125684D02*
X0123955Y0125684D01*
X0124340Y0124085D02*
X0132740Y0124085D01*
X0132740Y0122487D02*
X0124340Y0122487D01*
X0124340Y0120888D02*
X0132740Y0120888D01*
X0132740Y0119290D02*
X0124340Y0119290D01*
X0124340Y0117691D02*
X0132740Y0117691D01*
X0133218Y0116093D02*
X0123863Y0116093D01*
X0122837Y0114494D02*
X0134244Y0114494D01*
X0136673Y0112896D02*
X0120408Y0112896D01*
X0116673Y0112896D02*
X0110408Y0112896D01*
X0112837Y0114494D02*
X0114244Y0114494D01*
X0106673Y0112896D02*
X0100408Y0112896D01*
X0102837Y0114494D02*
X0104244Y0114494D01*
X0096673Y0112896D02*
X0090408Y0112896D01*
X0092837Y0114494D02*
X0094244Y0114494D01*
X0086673Y0112896D02*
X0080408Y0112896D01*
X0082837Y0114494D02*
X0084244Y0114494D01*
X0076673Y0112896D02*
X0070408Y0112896D01*
X0072837Y0114494D02*
X0074244Y0114494D01*
X0066673Y0112896D02*
X0060408Y0112896D01*
X0062837Y0114494D02*
X0064244Y0114494D01*
X0056673Y0112896D02*
X0050408Y0112896D01*
X0052837Y0114494D02*
X0054244Y0114494D01*
X0046673Y0112896D02*
X0040408Y0112896D01*
X0042837Y0114494D02*
X0044244Y0114494D01*
X0092155Y0106502D02*
X0094925Y0106502D01*
X0113340Y0127282D02*
X0114020Y0127282D01*
X0113340Y0128881D02*
X0116133Y0128881D01*
X0140408Y0112896D02*
X0146673Y0112896D01*
X0144244Y0114494D02*
X0142837Y0114494D01*
X0150408Y0112896D02*
X0156673Y0112896D01*
X0154244Y0114494D02*
X0152837Y0114494D01*
X0160408Y0112896D02*
X0166673Y0112896D01*
X0164244Y0114494D02*
X0162837Y0114494D01*
X0170408Y0112896D02*
X0176673Y0112896D01*
X0174244Y0114494D02*
X0172837Y0114494D01*
X0180408Y0112896D02*
X0186673Y0112896D01*
X0184244Y0114494D02*
X0182837Y0114494D01*
X0190408Y0112896D02*
X0196673Y0112896D01*
X0194244Y0114494D02*
X0192837Y0114494D01*
X0200408Y0112896D02*
X0206673Y0112896D01*
X0204244Y0114494D02*
X0202837Y0114494D01*
X0212155Y0106502D02*
X0234925Y0106502D01*
X0233158Y0104903D02*
X0213923Y0104903D01*
X0214240Y0103305D02*
X0232840Y0103305D01*
X0232840Y0101706D02*
X0214240Y0101706D01*
X0214240Y0100108D02*
X0232840Y0100108D01*
X0232840Y0098509D02*
X0214240Y0098509D01*
X0213846Y0096911D02*
X0215628Y0096911D01*
X0214474Y0095312D02*
X0214109Y0095312D01*
X0218540Y0095312D02*
X0218540Y0095312D01*
X0218540Y0093714D02*
X0218540Y0093714D01*
X0218540Y0092115D02*
X0218540Y0092115D01*
X0218540Y0091000D02*
X0218540Y0098000D01*
X0218540Y0091000D01*
X0218540Y0091000D01*
X0222940Y0091000D01*
X0218540Y0091000D01*
X0218540Y0091000D01*
X0222940Y0090517D02*
X0231976Y0090517D01*
X0232740Y0092115D02*
X0222940Y0092115D01*
X0222940Y0093714D02*
X0232740Y0093714D01*
X0232972Y0095312D02*
X0222606Y0095312D01*
X0221452Y0096911D02*
X0233235Y0096911D01*
X0238540Y0091000D02*
X0227290Y0081000D01*
X0208540Y0081000D01*
X0203540Y0076000D01*
X0198540Y0076000D01*
X0193540Y0071000D01*
X0197246Y0066539D02*
X0199835Y0066539D01*
X0203540Y0071000D02*
X0208540Y0076000D01*
X0231040Y0076000D01*
X0236040Y0081000D01*
X0237290Y0081000D01*
X0248540Y0091000D01*
X0243540Y0081000D02*
X0273540Y0081000D01*
X0278540Y0091000D01*
X0272840Y0098509D02*
X0271834Y0098509D01*
X0272840Y0100108D02*
X0264240Y0100108D01*
X0264240Y0101706D02*
X0272840Y0101706D01*
X0272840Y0103305D02*
X0264240Y0103305D01*
X0263923Y0104903D02*
X0273158Y0104903D01*
X0274925Y0106502D02*
X0262155Y0106502D01*
X0254925Y0106502D02*
X0252155Y0106502D01*
X0244925Y0106502D02*
X0242155Y0106502D01*
X0264240Y0098509D02*
X0265247Y0098509D01*
X0282155Y0106502D02*
X0284925Y0106502D01*
X0292155Y0106502D02*
X0294925Y0106502D01*
X0302155Y0106502D02*
X0304925Y0106502D01*
X0312155Y0106502D02*
X0333540Y0106502D01*
X0333540Y0104903D02*
X0313923Y0104903D01*
X0314240Y0103305D02*
X0333540Y0103305D01*
X0333540Y0101706D02*
X0314240Y0101706D01*
X0314240Y0100108D02*
X0333540Y0100108D01*
X0333540Y0098509D02*
X0314240Y0098509D01*
X0313846Y0096911D02*
X0315628Y0096911D01*
X0314474Y0095312D02*
X0314109Y0095312D01*
X0318540Y0095312D02*
X0318540Y0095312D01*
X0318540Y0093714D02*
X0318540Y0093714D01*
X0318540Y0092115D02*
X0318540Y0092115D01*
X0318540Y0091000D02*
X0318540Y0091000D01*
X0318540Y0091000D01*
X0318540Y0098000D01*
X0318887Y0098000D01*
X0319571Y0097892D01*
X0320229Y0097678D01*
X0320846Y0097363D01*
X0321407Y0096956D01*
X0321896Y0096466D01*
X0322304Y0095906D01*
X0322618Y0095289D01*
X0322832Y0094630D01*
X0322940Y0093946D01*
X0322940Y0091000D01*
X0318540Y0091000D01*
X0318540Y0084000D01*
X0318887Y0084000D01*
X0319571Y0084108D01*
X0320229Y0084322D01*
X0320846Y0084637D01*
X0321407Y0085044D01*
X0321896Y0085534D01*
X0322304Y0086094D01*
X0322618Y0086711D01*
X0322832Y0087370D01*
X0322940Y0088054D01*
X0322940Y0091000D01*
X0318540Y0091000D01*
X0318540Y0091000D01*
X0318540Y0090517D02*
X0318540Y0090517D01*
X0318540Y0088918D02*
X0318540Y0088918D01*
X0318540Y0087320D02*
X0318540Y0087320D01*
X0318540Y0085721D02*
X0318540Y0085721D01*
X0318540Y0084123D02*
X0318540Y0084123D01*
X0317466Y0084123D02*
X0312465Y0084123D01*
X0313709Y0085721D02*
X0315048Y0085721D01*
X0319615Y0084123D02*
X0333540Y0084123D01*
X0333540Y0085721D02*
X0322033Y0085721D01*
X0322816Y0087320D02*
X0333540Y0087320D01*
X0333540Y0088918D02*
X0322940Y0088918D01*
X0322940Y0090517D02*
X0333540Y0090517D01*
X0333540Y0092115D02*
X0322940Y0092115D01*
X0322940Y0093714D02*
X0333540Y0093714D01*
X0333540Y0095312D02*
X0322606Y0095312D01*
X0321452Y0096911D02*
X0333540Y0096911D01*
X0318540Y0096911D02*
X0318540Y0096911D01*
X0308540Y0091000D02*
X0293540Y0076000D01*
X0268540Y0076000D01*
X0263540Y0071000D01*
X0259835Y0066539D02*
X0257246Y0066539D01*
X0249835Y0066539D02*
X0247246Y0066539D01*
X0239835Y0066539D02*
X0237246Y0066539D01*
X0233540Y0071000D02*
X0243540Y0081000D01*
X0230177Y0088918D02*
X0222940Y0088918D01*
X0222816Y0087320D02*
X0228379Y0087320D01*
X0226581Y0085721D02*
X0222033Y0085721D01*
X0218540Y0096911D02*
X0218540Y0096911D01*
X0208540Y0091000D02*
X0193540Y0076000D01*
X0188540Y0076000D01*
X0183540Y0071000D01*
X0187246Y0066539D02*
X0189835Y0066539D01*
X0179835Y0066539D02*
X0177246Y0066539D01*
X0159835Y0066539D02*
X0157246Y0066539D01*
X0148249Y0056948D02*
X0271936Y0056948D01*
X0273534Y0055349D02*
X0149848Y0055349D01*
X0151446Y0053751D02*
X0275133Y0053751D01*
X0277377Y0052152D02*
X0153045Y0052152D01*
X0154643Y0050554D02*
X0277766Y0050554D01*
X0278137Y0048955D02*
X0261242Y0048955D01*
X0262840Y0047357D02*
X0279017Y0047357D01*
X0280132Y0045758D02*
X0264439Y0045758D01*
X0266037Y0044160D02*
X0278599Y0044160D01*
X0277936Y0042561D02*
X0267636Y0042561D01*
X0269234Y0040963D02*
X0277766Y0040963D01*
X0277967Y0039364D02*
X0270833Y0039364D01*
X0272431Y0037766D02*
X0278629Y0037766D01*
X0280206Y0036167D02*
X0274030Y0036167D01*
X0275628Y0034569D02*
X0279461Y0034569D01*
X0279166Y0032970D02*
X0277054Y0032970D01*
X0277540Y0031372D02*
X0279166Y0031372D01*
X0279166Y0029773D02*
X0277540Y0029773D01*
X0277540Y0028175D02*
X0279169Y0028175D01*
X0277540Y0026576D02*
X0289797Y0026576D01*
X0288460Y0028175D02*
X0287912Y0028175D01*
X0287258Y0024978D02*
X0313540Y0024978D01*
X0313540Y0023379D02*
X0287915Y0023379D01*
X0287915Y0021781D02*
X0313540Y0021781D01*
X0313540Y0020182D02*
X0287915Y0020182D01*
X0287915Y0018584D02*
X0313540Y0018584D01*
X0313540Y0016985D02*
X0287221Y0016985D01*
X0287321Y0015387D02*
X0313540Y0015387D01*
X0313540Y0013788D02*
X0306922Y0013788D01*
X0306877Y0013850D02*
X0306390Y0014337D01*
X0305833Y0014742D01*
X0305220Y0015054D01*
X0304565Y0015267D01*
X0303885Y0015375D01*
X0303540Y0015375D01*
X0303196Y0015375D01*
X0302516Y0015267D01*
X0301861Y0015054D01*
X0301247Y0014742D01*
X0300690Y0014337D01*
X0300203Y0013850D01*
X0299799Y0013293D01*
X0299486Y0012679D01*
X0299273Y0012024D01*
X0299166Y0011344D01*
X0299166Y0011000D01*
X0299166Y0010656D01*
X0299273Y0009976D01*
X0299486Y0009321D01*
X0299799Y0008707D01*
X0300203Y0008150D01*
X0300690Y0007663D01*
X0301247Y0007258D01*
X0301861Y0006946D01*
X0302516Y0006733D01*
X0303196Y0006625D01*
X0303540Y0006625D01*
X0303540Y0011000D01*
X0303540Y0011000D01*
X0299166Y0011000D01*
X0303540Y0011000D01*
X0303540Y0015375D01*
X0303540Y0011000D01*
X0303540Y0011000D01*
X0303540Y0011000D01*
X0303540Y0006625D01*
X0303885Y0006625D01*
X0304565Y0006733D01*
X0305220Y0006946D01*
X0305833Y0007258D01*
X0306390Y0007663D01*
X0306877Y0008150D01*
X0307282Y0008707D01*
X0307595Y0009321D01*
X0307807Y0009976D01*
X0307915Y0010656D01*
X0307915Y0011000D01*
X0307915Y0011344D01*
X0307807Y0012024D01*
X0307595Y0012679D01*
X0307282Y0013293D01*
X0306877Y0013850D01*
X0307754Y0012190D02*
X0313540Y0012190D01*
X0313540Y0010591D02*
X0307905Y0010591D01*
X0307915Y0011000D02*
X0303540Y0011000D01*
X0307915Y0011000D01*
X0307427Y0008993D02*
X0313540Y0008993D01*
X0313540Y0007394D02*
X0306020Y0007394D01*
X0303540Y0007394D02*
X0303540Y0007394D01*
X0303540Y0008993D02*
X0303540Y0008993D01*
X0303540Y0010591D02*
X0303540Y0010591D01*
X0303540Y0011000D02*
X0303540Y0011000D01*
X0303540Y0012190D02*
X0303540Y0012190D01*
X0303540Y0013788D02*
X0303540Y0013788D01*
X0300158Y0013788D02*
X0296922Y0013788D01*
X0296877Y0013850D02*
X0296390Y0014337D01*
X0295833Y0014742D01*
X0295220Y0015054D01*
X0294565Y0015267D01*
X0293885Y0015375D01*
X0293540Y0015375D01*
X0293540Y0011000D01*
X0293540Y0011000D01*
X0293540Y0011000D01*
X0293540Y0006625D01*
X0293885Y0006625D01*
X0294565Y0006733D01*
X0295220Y0006946D01*
X0295833Y0007258D01*
X0296390Y0007663D01*
X0296877Y0008150D01*
X0297282Y0008707D01*
X0297595Y0009321D01*
X0297807Y0009976D01*
X0297915Y0010656D01*
X0297915Y0011000D01*
X0297915Y0011344D01*
X0297807Y0012024D01*
X0297595Y0012679D01*
X0297282Y0013293D01*
X0296877Y0013850D01*
X0297754Y0012190D02*
X0299327Y0012190D01*
X0299176Y0010591D02*
X0297905Y0010591D01*
X0297915Y0011000D02*
X0293540Y0011000D01*
X0297915Y0011000D01*
X0297427Y0008993D02*
X0299653Y0008993D01*
X0301061Y0007394D02*
X0296020Y0007394D01*
X0293540Y0007394D02*
X0293540Y0007394D01*
X0293540Y0008993D02*
X0293540Y0008993D01*
X0293540Y0010591D02*
X0293540Y0010591D01*
X0293540Y0011000D02*
X0293540Y0011000D01*
X0293540Y0012190D02*
X0293540Y0012190D01*
X0293540Y0013788D02*
X0293540Y0013788D01*
X0290158Y0013788D02*
X0288636Y0013788D01*
X0289298Y0012190D02*
X0289327Y0012190D01*
X0289653Y0008993D02*
X0288959Y0008993D01*
X0288101Y0007394D02*
X0291061Y0007394D01*
X0283540Y0011000D02*
X0278540Y0016000D01*
X0268540Y0016000D01*
X0268540Y0026000D01*
X0258540Y0036000D01*
X0173540Y0036000D01*
X0153540Y0046000D02*
X0133540Y0066000D01*
X0133540Y0071000D01*
X0138658Y0066539D02*
X0139835Y0066539D01*
X0140257Y0064940D02*
X0269540Y0064940D01*
X0269540Y0063342D02*
X0141855Y0063342D01*
X0143454Y0061743D02*
X0269540Y0061743D01*
X0269565Y0060145D02*
X0145052Y0060145D01*
X0146651Y0058546D02*
X0270337Y0058546D01*
X0273540Y0061000D02*
X0278540Y0056000D01*
X0288540Y0056000D01*
X0293540Y0051000D01*
X0288540Y0046000D02*
X0283540Y0051000D01*
X0288540Y0046000D02*
X0298540Y0046000D01*
X0303540Y0051000D01*
X0303540Y0061000D01*
X0293540Y0071000D01*
X0298176Y0074532D02*
X0298905Y0074532D01*
X0299327Y0076130D02*
X0300835Y0076130D01*
X0300926Y0077729D02*
X0333540Y0077729D01*
X0333540Y0079327D02*
X0302524Y0079327D01*
X0304123Y0080926D02*
X0333540Y0080926D01*
X0333540Y0082524D02*
X0305721Y0082524D01*
X0306246Y0076130D02*
X0333540Y0076130D01*
X0333540Y0074532D02*
X0308176Y0074532D01*
X0308990Y0072933D02*
X0333540Y0072933D01*
X0333540Y0071334D02*
X0309315Y0071334D01*
X0310461Y0069736D02*
X0333540Y0069736D01*
X0333540Y0068137D02*
X0311985Y0068137D01*
X0312540Y0066539D02*
X0333540Y0066539D01*
X0333540Y0064940D02*
X0312540Y0064940D01*
X0312540Y0063342D02*
X0333540Y0063342D01*
X0333540Y0061743D02*
X0312540Y0061743D01*
X0312540Y0060145D02*
X0333540Y0060145D01*
X0333540Y0058546D02*
X0312540Y0058546D01*
X0312540Y0056948D02*
X0333540Y0056948D01*
X0333540Y0055349D02*
X0312540Y0055349D01*
X0312540Y0053751D02*
X0333540Y0053751D01*
X0333540Y0052152D02*
X0312540Y0052152D01*
X0312540Y0050554D02*
X0333540Y0050554D01*
X0333540Y0048955D02*
X0312540Y0048955D01*
X0312540Y0047357D02*
X0333540Y0047357D01*
X0333540Y0045758D02*
X0312540Y0045758D01*
X0312108Y0044160D02*
X0333540Y0044160D01*
X0333540Y0042561D02*
X0310758Y0042561D01*
X0309160Y0040963D02*
X0333540Y0040963D01*
X0333540Y0039364D02*
X0307561Y0039364D01*
X0305963Y0037766D02*
X0333540Y0037766D01*
X0333540Y0036167D02*
X0296874Y0036167D01*
X0298138Y0034569D02*
X0333540Y0034569D01*
X0333540Y0032970D02*
X0298975Y0032970D01*
X0299315Y0031372D02*
X0333540Y0031372D01*
X0333540Y0029773D02*
X0299283Y0029773D01*
X0298621Y0028175D02*
X0333540Y0028175D01*
X0333540Y0026576D02*
X0297283Y0026576D01*
X0283540Y0026625D02*
X0283540Y0031000D01*
X0283540Y0029773D02*
X0283540Y0029773D01*
X0283540Y0028175D02*
X0283540Y0028175D01*
X0279823Y0024978D02*
X0277729Y0024978D01*
X0278805Y0023379D02*
X0279166Y0023379D01*
X0273540Y0021000D02*
X0273540Y0031000D01*
X0258540Y0046000D01*
X0153540Y0046000D01*
X0124540Y0061032D02*
X0124540Y0066729D01*
X0123885Y0066625D01*
X0123540Y0066625D01*
X0123540Y0071000D01*
X0123540Y0071000D01*
X0123540Y0066625D01*
X0123196Y0066625D01*
X0122516Y0066733D01*
X0121861Y0066946D01*
X0121247Y0067258D01*
X0120690Y0067663D01*
X0120203Y0068150D01*
X0119799Y0068707D01*
X0119486Y0069321D01*
X0119315Y0069847D01*
X0119315Y0067789D01*
X0118866Y0066706D01*
X0124540Y0061032D01*
X0124540Y0061743D02*
X0123829Y0061743D01*
X0124540Y0063342D02*
X0122230Y0063342D01*
X0120632Y0064940D02*
X0124540Y0064940D01*
X0124540Y0066539D02*
X0119033Y0066539D01*
X0119315Y0068137D02*
X0120216Y0068137D01*
X0119351Y0069736D02*
X0119315Y0069736D01*
X0123540Y0069736D02*
X0123540Y0069736D01*
X0123540Y0068137D02*
X0123540Y0068137D01*
X0136842Y0083050D02*
X0141840Y0083050D01*
X0148540Y0091000D01*
X0142840Y0098509D02*
X0141834Y0098509D01*
X0136768Y0083124D02*
X0136842Y0083050D01*
X0207246Y0066539D02*
X0209835Y0066539D01*
X0217246Y0066539D02*
X0219835Y0066539D01*
X0227246Y0066539D02*
X0229835Y0066539D01*
X0267246Y0066539D02*
X0269540Y0066539D01*
X0273540Y0071000D02*
X0273540Y0061000D01*
X0283540Y0061000D02*
X0283540Y0071000D01*
X0303540Y0071000D02*
X0308540Y0066000D01*
X0308540Y0046000D01*
X0303540Y0041000D01*
X0293540Y0041000D01*
X0214020Y0127282D02*
X0213340Y0127282D01*
X0203911Y0148063D02*
X0203169Y0148063D01*
X0200915Y0149662D02*
X0206166Y0149662D01*
X0196166Y0149662D02*
X0190915Y0149662D01*
X0193169Y0148063D02*
X0193911Y0148063D01*
X0186166Y0149662D02*
X0180915Y0149662D01*
X0183169Y0148063D02*
X0183911Y0148063D01*
X0176166Y0149662D02*
X0170915Y0149662D01*
X0173169Y0148063D02*
X0173911Y0148063D01*
X0166166Y0149662D02*
X0160915Y0149662D01*
X0163169Y0148063D02*
X0163911Y0148063D01*
X0156166Y0149662D02*
X0150915Y0149662D01*
X0153169Y0148063D02*
X0153911Y0148063D01*
X0146166Y0149662D02*
X0140915Y0149662D01*
X0143169Y0148063D02*
X0143911Y0148063D01*
X0153540Y0171000D02*
X0153540Y0196000D01*
X0153543Y0196242D01*
X0153552Y0196483D01*
X0153566Y0196724D01*
X0153587Y0196965D01*
X0153613Y0197205D01*
X0153645Y0197445D01*
X0153683Y0197684D01*
X0153726Y0197921D01*
X0153776Y0198158D01*
X0153831Y0198393D01*
X0153891Y0198627D01*
X0153958Y0198859D01*
X0154029Y0199090D01*
X0154107Y0199319D01*
X0154190Y0199546D01*
X0154278Y0199771D01*
X0154372Y0199994D01*
X0154471Y0200214D01*
X0154576Y0200432D01*
X0154685Y0200647D01*
X0154800Y0200860D01*
X0154920Y0201070D01*
X0155045Y0201276D01*
X0155175Y0201480D01*
X0155310Y0201681D01*
X0155450Y0201878D01*
X0155594Y0202072D01*
X0155743Y0202262D01*
X0155897Y0202448D01*
X0156055Y0202631D01*
X0156217Y0202810D01*
X0156384Y0202985D01*
X0156555Y0203156D01*
X0156730Y0203323D01*
X0156909Y0203485D01*
X0157092Y0203643D01*
X0157278Y0203797D01*
X0157468Y0203946D01*
X0157662Y0204090D01*
X0157859Y0204230D01*
X0158060Y0204365D01*
X0158264Y0204495D01*
X0158470Y0204620D01*
X0158680Y0204740D01*
X0158893Y0204855D01*
X0159108Y0204964D01*
X0159326Y0205069D01*
X0159546Y0205168D01*
X0159769Y0205262D01*
X0159994Y0205350D01*
X0160221Y0205433D01*
X0160450Y0205511D01*
X0160681Y0205582D01*
X0160913Y0205649D01*
X0161147Y0205709D01*
X0161382Y0205764D01*
X0161619Y0205814D01*
X0161856Y0205857D01*
X0162095Y0205895D01*
X0162335Y0205927D01*
X0162575Y0205953D01*
X0162816Y0205974D01*
X0163057Y0205988D01*
X0163298Y0205997D01*
X0163540Y0206000D01*
X0179398Y0201000D02*
X0179636Y0200997D01*
X0179874Y0200989D01*
X0180111Y0200975D01*
X0180349Y0200955D01*
X0180585Y0200929D01*
X0180821Y0200898D01*
X0181056Y0200862D01*
X0181291Y0200819D01*
X0181524Y0200771D01*
X0181756Y0200718D01*
X0181986Y0200659D01*
X0182215Y0200595D01*
X0182443Y0200525D01*
X0182669Y0200450D01*
X0182893Y0200369D01*
X0183115Y0200284D01*
X0183335Y0200193D01*
X0183552Y0200096D01*
X0183767Y0199995D01*
X0183980Y0199888D01*
X0184190Y0199777D01*
X0184398Y0199660D01*
X0184603Y0199539D01*
X0184804Y0199413D01*
X0185003Y0199281D01*
X0185199Y0199146D01*
X0185391Y0199005D01*
X0185580Y0198861D01*
X0185765Y0198711D01*
X0185947Y0198557D01*
X0186125Y0198400D01*
X0186299Y0198237D01*
X0186469Y0198071D01*
X0178540Y0226000D02*
X0178400Y0226002D01*
X0178260Y0226008D01*
X0178120Y0226018D01*
X0177980Y0226031D01*
X0177841Y0226049D01*
X0177702Y0226071D01*
X0177565Y0226096D01*
X0177427Y0226125D01*
X0177291Y0226158D01*
X0177156Y0226195D01*
X0177022Y0226236D01*
X0176889Y0226281D01*
X0176757Y0226329D01*
X0176627Y0226381D01*
X0176498Y0226436D01*
X0176371Y0226495D01*
X0176245Y0226558D01*
X0176121Y0226624D01*
X0176000Y0226693D01*
X0175880Y0226766D01*
X0175762Y0226843D01*
X0175647Y0226922D01*
X0175533Y0227005D01*
X0175423Y0227091D01*
X0175314Y0227180D01*
X0175208Y0227272D01*
X0175105Y0227367D01*
X0175004Y0227464D01*
X0174907Y0227565D01*
X0174812Y0227668D01*
X0174720Y0227774D01*
X0174631Y0227883D01*
X0174545Y0227993D01*
X0174462Y0228107D01*
X0174383Y0228222D01*
X0174306Y0228340D01*
X0174233Y0228460D01*
X0174164Y0228581D01*
X0174098Y0228705D01*
X0174035Y0228831D01*
X0173976Y0228958D01*
X0173921Y0229087D01*
X0173869Y0229217D01*
X0173821Y0229349D01*
X0173776Y0229482D01*
X0173735Y0229616D01*
X0173698Y0229751D01*
X0173665Y0229887D01*
X0173636Y0230025D01*
X0173611Y0230162D01*
X0173589Y0230301D01*
X0173571Y0230440D01*
X0173558Y0230580D01*
X0173548Y0230720D01*
X0173542Y0230860D01*
X0173540Y0231000D01*
X0088762Y0031372D02*
X0088382Y0031372D01*
X0088708Y0029773D02*
X0090360Y0029773D01*
X0091959Y0028175D02*
X0088708Y0028175D01*
X0088708Y0026576D02*
X0093557Y0026576D01*
X0095156Y0024978D02*
X0088708Y0024978D01*
X0088708Y0025625D02*
X0083758Y0025625D01*
X0083758Y0017150D01*
X0083802Y0017150D01*
X0084630Y0017281D01*
X0085427Y0017540D01*
X0086174Y0017921D01*
X0086852Y0018413D01*
X0087445Y0019006D01*
X0087937Y0019684D01*
X0088318Y0020431D01*
X0088577Y0021228D01*
X0088708Y0022056D01*
X0088708Y0025625D01*
X0088708Y0023379D02*
X0096754Y0023379D01*
X0098353Y0021781D02*
X0088664Y0021781D01*
X0088191Y0020182D02*
X0099540Y0020182D01*
X0099540Y0018584D02*
X0087022Y0018584D01*
X0083758Y0018584D02*
X0083008Y0018584D01*
X0083008Y0020182D02*
X0083758Y0020182D01*
X0083758Y0021781D02*
X0083008Y0021781D01*
X0083008Y0023379D02*
X0083758Y0023379D01*
X0083758Y0024978D02*
X0083008Y0024978D01*
X0083008Y0026576D02*
X0083758Y0026576D01*
X0083758Y0028175D02*
X0083008Y0028175D01*
X0083008Y0029773D02*
X0083758Y0029773D01*
X0083758Y0031372D02*
X0083008Y0031372D01*
X0083008Y0032970D02*
X0083758Y0032970D01*
D19*
X0033540Y0031000D03*
X0123540Y0141000D03*
X0223540Y0141000D03*
X0323540Y0036000D03*
D20*
X0308540Y0101000D03*
X0298540Y0101000D03*
X0288540Y0101000D03*
X0278540Y0101000D03*
X0278540Y0111000D03*
X0288540Y0111000D03*
X0298540Y0111000D03*
X0308540Y0111000D03*
X0258540Y0111000D03*
X0248540Y0111000D03*
X0238540Y0111000D03*
X0238540Y0101000D03*
X0248540Y0101000D03*
X0258540Y0101000D03*
X0208540Y0101000D03*
X0208540Y0111000D03*
X0158540Y0111000D03*
X0148540Y0111000D03*
X0148540Y0101000D03*
X0158540Y0101000D03*
X0098540Y0101000D03*
X0088540Y0101000D03*
X0088540Y0111000D03*
X0098540Y0111000D03*
D21*
X0173540Y0036000D03*
D22*
X0258540Y0196000D03*
X0233540Y0203500D03*
X0218540Y0201000D03*
X0233540Y0221000D03*
M02*
