G75*
%MOIN*%
%OFA0B0*%
%FSLAX25Y25*%
%IPPOS*%
%LPD*%
%AMOC8*
5,1,8,0,0,1.08239X$1,22.5*
%
%ADD10C,0.00000*%
%ADD11C,0.00800*%
%ADD12C,0.00600*%
%ADD13C,0.00500*%
%ADD14C,0.00300*%
%ADD15C,0.00200*%
D10*
X0023540Y0001000D02*
X0023540Y0155980D01*
X0338501Y0155980D01*
X0338501Y0001000D01*
X0023540Y0001000D01*
X0027634Y0011000D02*
X0027636Y0011153D01*
X0027642Y0011307D01*
X0027652Y0011460D01*
X0027666Y0011612D01*
X0027684Y0011765D01*
X0027706Y0011916D01*
X0027731Y0012067D01*
X0027761Y0012218D01*
X0027795Y0012368D01*
X0027832Y0012516D01*
X0027873Y0012664D01*
X0027918Y0012810D01*
X0027967Y0012956D01*
X0028020Y0013100D01*
X0028076Y0013242D01*
X0028136Y0013383D01*
X0028200Y0013523D01*
X0028267Y0013661D01*
X0028338Y0013797D01*
X0028413Y0013931D01*
X0028490Y0014063D01*
X0028572Y0014193D01*
X0028656Y0014321D01*
X0028744Y0014447D01*
X0028835Y0014570D01*
X0028929Y0014691D01*
X0029027Y0014809D01*
X0029127Y0014925D01*
X0029231Y0015038D01*
X0029337Y0015149D01*
X0029446Y0015257D01*
X0029558Y0015362D01*
X0029672Y0015463D01*
X0029790Y0015562D01*
X0029909Y0015658D01*
X0030031Y0015751D01*
X0030156Y0015840D01*
X0030283Y0015927D01*
X0030412Y0016009D01*
X0030543Y0016089D01*
X0030676Y0016165D01*
X0030811Y0016238D01*
X0030948Y0016307D01*
X0031087Y0016372D01*
X0031227Y0016434D01*
X0031369Y0016492D01*
X0031512Y0016547D01*
X0031657Y0016598D01*
X0031803Y0016645D01*
X0031950Y0016688D01*
X0032098Y0016727D01*
X0032247Y0016763D01*
X0032397Y0016794D01*
X0032548Y0016822D01*
X0032699Y0016846D01*
X0032852Y0016866D01*
X0033004Y0016882D01*
X0033157Y0016894D01*
X0033310Y0016902D01*
X0033463Y0016906D01*
X0033617Y0016906D01*
X0033770Y0016902D01*
X0033923Y0016894D01*
X0034076Y0016882D01*
X0034228Y0016866D01*
X0034381Y0016846D01*
X0034532Y0016822D01*
X0034683Y0016794D01*
X0034833Y0016763D01*
X0034982Y0016727D01*
X0035130Y0016688D01*
X0035277Y0016645D01*
X0035423Y0016598D01*
X0035568Y0016547D01*
X0035711Y0016492D01*
X0035853Y0016434D01*
X0035993Y0016372D01*
X0036132Y0016307D01*
X0036269Y0016238D01*
X0036404Y0016165D01*
X0036537Y0016089D01*
X0036668Y0016009D01*
X0036797Y0015927D01*
X0036924Y0015840D01*
X0037049Y0015751D01*
X0037171Y0015658D01*
X0037290Y0015562D01*
X0037408Y0015463D01*
X0037522Y0015362D01*
X0037634Y0015257D01*
X0037743Y0015149D01*
X0037849Y0015038D01*
X0037953Y0014925D01*
X0038053Y0014809D01*
X0038151Y0014691D01*
X0038245Y0014570D01*
X0038336Y0014447D01*
X0038424Y0014321D01*
X0038508Y0014193D01*
X0038590Y0014063D01*
X0038667Y0013931D01*
X0038742Y0013797D01*
X0038813Y0013661D01*
X0038880Y0013523D01*
X0038944Y0013383D01*
X0039004Y0013242D01*
X0039060Y0013100D01*
X0039113Y0012956D01*
X0039162Y0012810D01*
X0039207Y0012664D01*
X0039248Y0012516D01*
X0039285Y0012368D01*
X0039319Y0012218D01*
X0039349Y0012067D01*
X0039374Y0011916D01*
X0039396Y0011765D01*
X0039414Y0011612D01*
X0039428Y0011460D01*
X0039438Y0011307D01*
X0039444Y0011153D01*
X0039446Y0011000D01*
X0039444Y0010847D01*
X0039438Y0010693D01*
X0039428Y0010540D01*
X0039414Y0010388D01*
X0039396Y0010235D01*
X0039374Y0010084D01*
X0039349Y0009933D01*
X0039319Y0009782D01*
X0039285Y0009632D01*
X0039248Y0009484D01*
X0039207Y0009336D01*
X0039162Y0009190D01*
X0039113Y0009044D01*
X0039060Y0008900D01*
X0039004Y0008758D01*
X0038944Y0008617D01*
X0038880Y0008477D01*
X0038813Y0008339D01*
X0038742Y0008203D01*
X0038667Y0008069D01*
X0038590Y0007937D01*
X0038508Y0007807D01*
X0038424Y0007679D01*
X0038336Y0007553D01*
X0038245Y0007430D01*
X0038151Y0007309D01*
X0038053Y0007191D01*
X0037953Y0007075D01*
X0037849Y0006962D01*
X0037743Y0006851D01*
X0037634Y0006743D01*
X0037522Y0006638D01*
X0037408Y0006537D01*
X0037290Y0006438D01*
X0037171Y0006342D01*
X0037049Y0006249D01*
X0036924Y0006160D01*
X0036797Y0006073D01*
X0036668Y0005991D01*
X0036537Y0005911D01*
X0036404Y0005835D01*
X0036269Y0005762D01*
X0036132Y0005693D01*
X0035993Y0005628D01*
X0035853Y0005566D01*
X0035711Y0005508D01*
X0035568Y0005453D01*
X0035423Y0005402D01*
X0035277Y0005355D01*
X0035130Y0005312D01*
X0034982Y0005273D01*
X0034833Y0005237D01*
X0034683Y0005206D01*
X0034532Y0005178D01*
X0034381Y0005154D01*
X0034228Y0005134D01*
X0034076Y0005118D01*
X0033923Y0005106D01*
X0033770Y0005098D01*
X0033617Y0005094D01*
X0033463Y0005094D01*
X0033310Y0005098D01*
X0033157Y0005106D01*
X0033004Y0005118D01*
X0032852Y0005134D01*
X0032699Y0005154D01*
X0032548Y0005178D01*
X0032397Y0005206D01*
X0032247Y0005237D01*
X0032098Y0005273D01*
X0031950Y0005312D01*
X0031803Y0005355D01*
X0031657Y0005402D01*
X0031512Y0005453D01*
X0031369Y0005508D01*
X0031227Y0005566D01*
X0031087Y0005628D01*
X0030948Y0005693D01*
X0030811Y0005762D01*
X0030676Y0005835D01*
X0030543Y0005911D01*
X0030412Y0005991D01*
X0030283Y0006073D01*
X0030156Y0006160D01*
X0030031Y0006249D01*
X0029909Y0006342D01*
X0029790Y0006438D01*
X0029672Y0006537D01*
X0029558Y0006638D01*
X0029446Y0006743D01*
X0029337Y0006851D01*
X0029231Y0006962D01*
X0029127Y0007075D01*
X0029027Y0007191D01*
X0028929Y0007309D01*
X0028835Y0007430D01*
X0028744Y0007553D01*
X0028656Y0007679D01*
X0028572Y0007807D01*
X0028490Y0007937D01*
X0028413Y0008069D01*
X0028338Y0008203D01*
X0028267Y0008339D01*
X0028200Y0008477D01*
X0028136Y0008617D01*
X0028076Y0008758D01*
X0028020Y0008900D01*
X0027967Y0009044D01*
X0027918Y0009190D01*
X0027873Y0009336D01*
X0027832Y0009484D01*
X0027795Y0009632D01*
X0027761Y0009782D01*
X0027731Y0009933D01*
X0027706Y0010084D01*
X0027684Y0010235D01*
X0027666Y0010388D01*
X0027652Y0010540D01*
X0027642Y0010693D01*
X0027636Y0010847D01*
X0027634Y0011000D01*
X0322634Y0011000D02*
X0322636Y0011153D01*
X0322642Y0011307D01*
X0322652Y0011460D01*
X0322666Y0011612D01*
X0322684Y0011765D01*
X0322706Y0011916D01*
X0322731Y0012067D01*
X0322761Y0012218D01*
X0322795Y0012368D01*
X0322832Y0012516D01*
X0322873Y0012664D01*
X0322918Y0012810D01*
X0322967Y0012956D01*
X0323020Y0013100D01*
X0323076Y0013242D01*
X0323136Y0013383D01*
X0323200Y0013523D01*
X0323267Y0013661D01*
X0323338Y0013797D01*
X0323413Y0013931D01*
X0323490Y0014063D01*
X0323572Y0014193D01*
X0323656Y0014321D01*
X0323744Y0014447D01*
X0323835Y0014570D01*
X0323929Y0014691D01*
X0324027Y0014809D01*
X0324127Y0014925D01*
X0324231Y0015038D01*
X0324337Y0015149D01*
X0324446Y0015257D01*
X0324558Y0015362D01*
X0324672Y0015463D01*
X0324790Y0015562D01*
X0324909Y0015658D01*
X0325031Y0015751D01*
X0325156Y0015840D01*
X0325283Y0015927D01*
X0325412Y0016009D01*
X0325543Y0016089D01*
X0325676Y0016165D01*
X0325811Y0016238D01*
X0325948Y0016307D01*
X0326087Y0016372D01*
X0326227Y0016434D01*
X0326369Y0016492D01*
X0326512Y0016547D01*
X0326657Y0016598D01*
X0326803Y0016645D01*
X0326950Y0016688D01*
X0327098Y0016727D01*
X0327247Y0016763D01*
X0327397Y0016794D01*
X0327548Y0016822D01*
X0327699Y0016846D01*
X0327852Y0016866D01*
X0328004Y0016882D01*
X0328157Y0016894D01*
X0328310Y0016902D01*
X0328463Y0016906D01*
X0328617Y0016906D01*
X0328770Y0016902D01*
X0328923Y0016894D01*
X0329076Y0016882D01*
X0329228Y0016866D01*
X0329381Y0016846D01*
X0329532Y0016822D01*
X0329683Y0016794D01*
X0329833Y0016763D01*
X0329982Y0016727D01*
X0330130Y0016688D01*
X0330277Y0016645D01*
X0330423Y0016598D01*
X0330568Y0016547D01*
X0330711Y0016492D01*
X0330853Y0016434D01*
X0330993Y0016372D01*
X0331132Y0016307D01*
X0331269Y0016238D01*
X0331404Y0016165D01*
X0331537Y0016089D01*
X0331668Y0016009D01*
X0331797Y0015927D01*
X0331924Y0015840D01*
X0332049Y0015751D01*
X0332171Y0015658D01*
X0332290Y0015562D01*
X0332408Y0015463D01*
X0332522Y0015362D01*
X0332634Y0015257D01*
X0332743Y0015149D01*
X0332849Y0015038D01*
X0332953Y0014925D01*
X0333053Y0014809D01*
X0333151Y0014691D01*
X0333245Y0014570D01*
X0333336Y0014447D01*
X0333424Y0014321D01*
X0333508Y0014193D01*
X0333590Y0014063D01*
X0333667Y0013931D01*
X0333742Y0013797D01*
X0333813Y0013661D01*
X0333880Y0013523D01*
X0333944Y0013383D01*
X0334004Y0013242D01*
X0334060Y0013100D01*
X0334113Y0012956D01*
X0334162Y0012810D01*
X0334207Y0012664D01*
X0334248Y0012516D01*
X0334285Y0012368D01*
X0334319Y0012218D01*
X0334349Y0012067D01*
X0334374Y0011916D01*
X0334396Y0011765D01*
X0334414Y0011612D01*
X0334428Y0011460D01*
X0334438Y0011307D01*
X0334444Y0011153D01*
X0334446Y0011000D01*
X0334444Y0010847D01*
X0334438Y0010693D01*
X0334428Y0010540D01*
X0334414Y0010388D01*
X0334396Y0010235D01*
X0334374Y0010084D01*
X0334349Y0009933D01*
X0334319Y0009782D01*
X0334285Y0009632D01*
X0334248Y0009484D01*
X0334207Y0009336D01*
X0334162Y0009190D01*
X0334113Y0009044D01*
X0334060Y0008900D01*
X0334004Y0008758D01*
X0333944Y0008617D01*
X0333880Y0008477D01*
X0333813Y0008339D01*
X0333742Y0008203D01*
X0333667Y0008069D01*
X0333590Y0007937D01*
X0333508Y0007807D01*
X0333424Y0007679D01*
X0333336Y0007553D01*
X0333245Y0007430D01*
X0333151Y0007309D01*
X0333053Y0007191D01*
X0332953Y0007075D01*
X0332849Y0006962D01*
X0332743Y0006851D01*
X0332634Y0006743D01*
X0332522Y0006638D01*
X0332408Y0006537D01*
X0332290Y0006438D01*
X0332171Y0006342D01*
X0332049Y0006249D01*
X0331924Y0006160D01*
X0331797Y0006073D01*
X0331668Y0005991D01*
X0331537Y0005911D01*
X0331404Y0005835D01*
X0331269Y0005762D01*
X0331132Y0005693D01*
X0330993Y0005628D01*
X0330853Y0005566D01*
X0330711Y0005508D01*
X0330568Y0005453D01*
X0330423Y0005402D01*
X0330277Y0005355D01*
X0330130Y0005312D01*
X0329982Y0005273D01*
X0329833Y0005237D01*
X0329683Y0005206D01*
X0329532Y0005178D01*
X0329381Y0005154D01*
X0329228Y0005134D01*
X0329076Y0005118D01*
X0328923Y0005106D01*
X0328770Y0005098D01*
X0328617Y0005094D01*
X0328463Y0005094D01*
X0328310Y0005098D01*
X0328157Y0005106D01*
X0328004Y0005118D01*
X0327852Y0005134D01*
X0327699Y0005154D01*
X0327548Y0005178D01*
X0327397Y0005206D01*
X0327247Y0005237D01*
X0327098Y0005273D01*
X0326950Y0005312D01*
X0326803Y0005355D01*
X0326657Y0005402D01*
X0326512Y0005453D01*
X0326369Y0005508D01*
X0326227Y0005566D01*
X0326087Y0005628D01*
X0325948Y0005693D01*
X0325811Y0005762D01*
X0325676Y0005835D01*
X0325543Y0005911D01*
X0325412Y0005991D01*
X0325283Y0006073D01*
X0325156Y0006160D01*
X0325031Y0006249D01*
X0324909Y0006342D01*
X0324790Y0006438D01*
X0324672Y0006537D01*
X0324558Y0006638D01*
X0324446Y0006743D01*
X0324337Y0006851D01*
X0324231Y0006962D01*
X0324127Y0007075D01*
X0324027Y0007191D01*
X0323929Y0007309D01*
X0323835Y0007430D01*
X0323744Y0007553D01*
X0323656Y0007679D01*
X0323572Y0007807D01*
X0323490Y0007937D01*
X0323413Y0008069D01*
X0323338Y0008203D01*
X0323267Y0008339D01*
X0323200Y0008477D01*
X0323136Y0008617D01*
X0323076Y0008758D01*
X0323020Y0008900D01*
X0322967Y0009044D01*
X0322918Y0009190D01*
X0322873Y0009336D01*
X0322832Y0009484D01*
X0322795Y0009632D01*
X0322761Y0009782D01*
X0322731Y0009933D01*
X0322706Y0010084D01*
X0322684Y0010235D01*
X0322666Y0010388D01*
X0322652Y0010540D01*
X0322642Y0010693D01*
X0322636Y0010847D01*
X0322634Y0011000D01*
X0322634Y0146000D02*
X0322636Y0146153D01*
X0322642Y0146307D01*
X0322652Y0146460D01*
X0322666Y0146612D01*
X0322684Y0146765D01*
X0322706Y0146916D01*
X0322731Y0147067D01*
X0322761Y0147218D01*
X0322795Y0147368D01*
X0322832Y0147516D01*
X0322873Y0147664D01*
X0322918Y0147810D01*
X0322967Y0147956D01*
X0323020Y0148100D01*
X0323076Y0148242D01*
X0323136Y0148383D01*
X0323200Y0148523D01*
X0323267Y0148661D01*
X0323338Y0148797D01*
X0323413Y0148931D01*
X0323490Y0149063D01*
X0323572Y0149193D01*
X0323656Y0149321D01*
X0323744Y0149447D01*
X0323835Y0149570D01*
X0323929Y0149691D01*
X0324027Y0149809D01*
X0324127Y0149925D01*
X0324231Y0150038D01*
X0324337Y0150149D01*
X0324446Y0150257D01*
X0324558Y0150362D01*
X0324672Y0150463D01*
X0324790Y0150562D01*
X0324909Y0150658D01*
X0325031Y0150751D01*
X0325156Y0150840D01*
X0325283Y0150927D01*
X0325412Y0151009D01*
X0325543Y0151089D01*
X0325676Y0151165D01*
X0325811Y0151238D01*
X0325948Y0151307D01*
X0326087Y0151372D01*
X0326227Y0151434D01*
X0326369Y0151492D01*
X0326512Y0151547D01*
X0326657Y0151598D01*
X0326803Y0151645D01*
X0326950Y0151688D01*
X0327098Y0151727D01*
X0327247Y0151763D01*
X0327397Y0151794D01*
X0327548Y0151822D01*
X0327699Y0151846D01*
X0327852Y0151866D01*
X0328004Y0151882D01*
X0328157Y0151894D01*
X0328310Y0151902D01*
X0328463Y0151906D01*
X0328617Y0151906D01*
X0328770Y0151902D01*
X0328923Y0151894D01*
X0329076Y0151882D01*
X0329228Y0151866D01*
X0329381Y0151846D01*
X0329532Y0151822D01*
X0329683Y0151794D01*
X0329833Y0151763D01*
X0329982Y0151727D01*
X0330130Y0151688D01*
X0330277Y0151645D01*
X0330423Y0151598D01*
X0330568Y0151547D01*
X0330711Y0151492D01*
X0330853Y0151434D01*
X0330993Y0151372D01*
X0331132Y0151307D01*
X0331269Y0151238D01*
X0331404Y0151165D01*
X0331537Y0151089D01*
X0331668Y0151009D01*
X0331797Y0150927D01*
X0331924Y0150840D01*
X0332049Y0150751D01*
X0332171Y0150658D01*
X0332290Y0150562D01*
X0332408Y0150463D01*
X0332522Y0150362D01*
X0332634Y0150257D01*
X0332743Y0150149D01*
X0332849Y0150038D01*
X0332953Y0149925D01*
X0333053Y0149809D01*
X0333151Y0149691D01*
X0333245Y0149570D01*
X0333336Y0149447D01*
X0333424Y0149321D01*
X0333508Y0149193D01*
X0333590Y0149063D01*
X0333667Y0148931D01*
X0333742Y0148797D01*
X0333813Y0148661D01*
X0333880Y0148523D01*
X0333944Y0148383D01*
X0334004Y0148242D01*
X0334060Y0148100D01*
X0334113Y0147956D01*
X0334162Y0147810D01*
X0334207Y0147664D01*
X0334248Y0147516D01*
X0334285Y0147368D01*
X0334319Y0147218D01*
X0334349Y0147067D01*
X0334374Y0146916D01*
X0334396Y0146765D01*
X0334414Y0146612D01*
X0334428Y0146460D01*
X0334438Y0146307D01*
X0334444Y0146153D01*
X0334446Y0146000D01*
X0334444Y0145847D01*
X0334438Y0145693D01*
X0334428Y0145540D01*
X0334414Y0145388D01*
X0334396Y0145235D01*
X0334374Y0145084D01*
X0334349Y0144933D01*
X0334319Y0144782D01*
X0334285Y0144632D01*
X0334248Y0144484D01*
X0334207Y0144336D01*
X0334162Y0144190D01*
X0334113Y0144044D01*
X0334060Y0143900D01*
X0334004Y0143758D01*
X0333944Y0143617D01*
X0333880Y0143477D01*
X0333813Y0143339D01*
X0333742Y0143203D01*
X0333667Y0143069D01*
X0333590Y0142937D01*
X0333508Y0142807D01*
X0333424Y0142679D01*
X0333336Y0142553D01*
X0333245Y0142430D01*
X0333151Y0142309D01*
X0333053Y0142191D01*
X0332953Y0142075D01*
X0332849Y0141962D01*
X0332743Y0141851D01*
X0332634Y0141743D01*
X0332522Y0141638D01*
X0332408Y0141537D01*
X0332290Y0141438D01*
X0332171Y0141342D01*
X0332049Y0141249D01*
X0331924Y0141160D01*
X0331797Y0141073D01*
X0331668Y0140991D01*
X0331537Y0140911D01*
X0331404Y0140835D01*
X0331269Y0140762D01*
X0331132Y0140693D01*
X0330993Y0140628D01*
X0330853Y0140566D01*
X0330711Y0140508D01*
X0330568Y0140453D01*
X0330423Y0140402D01*
X0330277Y0140355D01*
X0330130Y0140312D01*
X0329982Y0140273D01*
X0329833Y0140237D01*
X0329683Y0140206D01*
X0329532Y0140178D01*
X0329381Y0140154D01*
X0329228Y0140134D01*
X0329076Y0140118D01*
X0328923Y0140106D01*
X0328770Y0140098D01*
X0328617Y0140094D01*
X0328463Y0140094D01*
X0328310Y0140098D01*
X0328157Y0140106D01*
X0328004Y0140118D01*
X0327852Y0140134D01*
X0327699Y0140154D01*
X0327548Y0140178D01*
X0327397Y0140206D01*
X0327247Y0140237D01*
X0327098Y0140273D01*
X0326950Y0140312D01*
X0326803Y0140355D01*
X0326657Y0140402D01*
X0326512Y0140453D01*
X0326369Y0140508D01*
X0326227Y0140566D01*
X0326087Y0140628D01*
X0325948Y0140693D01*
X0325811Y0140762D01*
X0325676Y0140835D01*
X0325543Y0140911D01*
X0325412Y0140991D01*
X0325283Y0141073D01*
X0325156Y0141160D01*
X0325031Y0141249D01*
X0324909Y0141342D01*
X0324790Y0141438D01*
X0324672Y0141537D01*
X0324558Y0141638D01*
X0324446Y0141743D01*
X0324337Y0141851D01*
X0324231Y0141962D01*
X0324127Y0142075D01*
X0324027Y0142191D01*
X0323929Y0142309D01*
X0323835Y0142430D01*
X0323744Y0142553D01*
X0323656Y0142679D01*
X0323572Y0142807D01*
X0323490Y0142937D01*
X0323413Y0143069D01*
X0323338Y0143203D01*
X0323267Y0143339D01*
X0323200Y0143477D01*
X0323136Y0143617D01*
X0323076Y0143758D01*
X0323020Y0143900D01*
X0322967Y0144044D01*
X0322918Y0144190D01*
X0322873Y0144336D01*
X0322832Y0144484D01*
X0322795Y0144632D01*
X0322761Y0144782D01*
X0322731Y0144933D01*
X0322706Y0145084D01*
X0322684Y0145235D01*
X0322666Y0145388D01*
X0322652Y0145540D01*
X0322642Y0145693D01*
X0322636Y0145847D01*
X0322634Y0146000D01*
D11*
X0157398Y0057143D02*
X0157398Y0055608D01*
X0157398Y0052539D02*
X0157398Y0046400D01*
X0158932Y0046400D02*
X0155863Y0046400D01*
X0151259Y0047935D02*
X0149725Y0046400D01*
X0151259Y0047935D02*
X0151259Y0054073D01*
X0149725Y0052539D02*
X0152794Y0052539D01*
X0157398Y0052539D02*
X0158932Y0052539D01*
X0162002Y0052539D02*
X0166606Y0052539D01*
X0168140Y0051004D01*
X0168140Y0047935D01*
X0166606Y0046400D01*
X0162002Y0046400D01*
X0162002Y0044865D02*
X0162002Y0052539D01*
X0146655Y0051004D02*
X0145121Y0052539D01*
X0142051Y0052539D01*
X0140517Y0051004D01*
X0140517Y0046400D01*
X0137447Y0047935D02*
X0135913Y0046400D01*
X0131309Y0046400D01*
X0131309Y0052539D01*
X0128240Y0052539D02*
X0123636Y0052539D01*
X0122101Y0051004D01*
X0122101Y0047935D01*
X0123636Y0046400D01*
X0128240Y0046400D01*
X0128240Y0055608D01*
X0137447Y0052539D02*
X0137447Y0047935D01*
X0146655Y0046400D02*
X0146655Y0055608D01*
X0162002Y0044865D02*
X0163536Y0043331D01*
X0165071Y0043331D01*
X0119032Y0046400D02*
X0117497Y0046400D01*
X0117497Y0047935D01*
X0119032Y0047935D01*
X0119032Y0046400D01*
X0114428Y0047935D02*
X0112893Y0046400D01*
X0108289Y0046400D01*
X0105220Y0047935D02*
X0103685Y0046400D01*
X0100616Y0046400D01*
X0099081Y0047935D01*
X0099081Y0051004D01*
X0100616Y0052539D01*
X0103685Y0052539D01*
X0105220Y0051004D01*
X0105220Y0047935D01*
X0096012Y0046400D02*
X0096012Y0052539D01*
X0094477Y0052539D01*
X0092943Y0051004D01*
X0091408Y0052539D01*
X0089874Y0051004D01*
X0089874Y0046400D01*
X0092943Y0046400D02*
X0092943Y0051004D01*
X0086804Y0046400D02*
X0080666Y0055608D01*
X0077596Y0052539D02*
X0077596Y0047935D01*
X0076062Y0046400D01*
X0074527Y0047935D01*
X0072992Y0046400D01*
X0071458Y0047935D01*
X0071458Y0052539D01*
X0066854Y0052539D02*
X0063785Y0052539D01*
X0062250Y0051004D01*
X0062250Y0046400D01*
X0066854Y0046400D01*
X0068389Y0047935D01*
X0066854Y0049469D01*
X0062250Y0049469D01*
X0059181Y0051004D02*
X0057646Y0052539D01*
X0053042Y0052539D01*
X0049973Y0051004D02*
X0048438Y0052539D01*
X0043834Y0052539D01*
X0040765Y0051004D02*
X0037696Y0051004D01*
X0034626Y0052539D02*
X0033092Y0052539D01*
X0033092Y0046400D01*
X0034626Y0046400D02*
X0031557Y0046400D01*
X0028488Y0046400D02*
X0025419Y0046400D01*
X0026953Y0046400D02*
X0026953Y0055608D01*
X0028488Y0055608D01*
X0033092Y0055608D02*
X0033092Y0057143D01*
X0037696Y0055608D02*
X0039230Y0054073D01*
X0039230Y0046400D01*
X0043834Y0047935D02*
X0045369Y0049469D01*
X0048438Y0049469D01*
X0049973Y0051004D01*
X0053042Y0047935D02*
X0054577Y0049469D01*
X0057646Y0049469D01*
X0059181Y0051004D01*
X0054577Y0046400D02*
X0053042Y0047935D01*
X0054577Y0046400D02*
X0059181Y0046400D01*
X0049973Y0046400D02*
X0045369Y0046400D01*
X0043834Y0047935D01*
X0022349Y0047935D02*
X0020815Y0046400D01*
X0016211Y0046400D01*
X0016211Y0051004D01*
X0017745Y0052539D01*
X0020815Y0052539D01*
X0020815Y0049469D02*
X0016211Y0049469D01*
X0013141Y0046400D02*
X0007003Y0055608D01*
X0020815Y0049469D02*
X0022349Y0047935D01*
X0108289Y0052539D02*
X0112893Y0052539D01*
X0114428Y0051004D01*
X0114428Y0047935D01*
D12*
X0107173Y0070050D02*
X0105038Y0070050D01*
X0103970Y0071118D01*
X0103970Y0072185D01*
X0105038Y0073253D01*
X0106105Y0073253D01*
X0105038Y0073253D02*
X0103970Y0074320D01*
X0103970Y0075388D01*
X0105038Y0076455D01*
X0107173Y0076455D01*
X0108240Y0075388D01*
X0101795Y0074320D02*
X0099660Y0070050D01*
X0097525Y0074320D01*
X0095349Y0075388D02*
X0094282Y0076455D01*
X0092147Y0076455D01*
X0091079Y0075388D01*
X0091079Y0074320D01*
X0092147Y0073253D01*
X0091079Y0072185D01*
X0091079Y0071118D01*
X0092147Y0070050D01*
X0094282Y0070050D01*
X0095349Y0071118D01*
X0093214Y0073253D02*
X0092147Y0073253D01*
X0107173Y0070050D02*
X0108240Y0071118D01*
X0092173Y0016455D02*
X0090038Y0016455D01*
X0088970Y0015388D01*
X0088970Y0013253D02*
X0091105Y0013253D01*
X0088970Y0013253D02*
X0088970Y0011118D01*
X0090038Y0010050D01*
X0092173Y0010050D01*
X0093240Y0011118D01*
X0093240Y0015388D01*
X0092173Y0016455D01*
X0086795Y0014320D02*
X0083592Y0014320D01*
X0082525Y0013253D01*
X0082525Y0010050D01*
X0080349Y0011118D02*
X0080349Y0013253D01*
X0079282Y0014320D01*
X0076079Y0014320D01*
X0076079Y0016455D02*
X0076079Y0010050D01*
X0079282Y0010050D01*
X0080349Y0011118D01*
X0086795Y0010050D02*
X0086795Y0014320D01*
X0237525Y0017550D02*
X0241795Y0021820D01*
X0243970Y0023955D02*
X0248240Y0023955D01*
X0246105Y0023955D02*
X0246105Y0017550D01*
X0241795Y0017550D02*
X0237525Y0021820D01*
X0289829Y0021820D02*
X0293032Y0021820D01*
X0294099Y0020753D01*
X0294099Y0018618D01*
X0293032Y0017550D01*
X0289829Y0017550D01*
X0289829Y0023955D01*
X0296275Y0020753D02*
X0296275Y0017550D01*
X0300545Y0017550D02*
X0300545Y0021820D01*
X0297342Y0021820D01*
X0296275Y0020753D01*
X0302720Y0020753D02*
X0302720Y0018618D01*
X0303788Y0017550D01*
X0305923Y0017550D01*
X0306990Y0018618D01*
X0306990Y0022888D01*
X0305923Y0023955D01*
X0303788Y0023955D01*
X0302720Y0022888D01*
X0302720Y0020753D02*
X0304855Y0020753D01*
D13*
X0303540Y0026000D02*
X0298540Y0026000D01*
X0298540Y0066000D01*
X0298540Y0071000D01*
X0303540Y0071000D01*
X0303540Y0026000D01*
X0298540Y0026000D02*
X0288540Y0026000D01*
X0288540Y0036000D01*
X0278540Y0036000D01*
X0278540Y0066000D01*
X0278540Y0071000D01*
X0298540Y0071000D01*
X0298540Y0066000D02*
X0278540Y0066000D01*
X0278540Y0036000D02*
X0278540Y0026000D01*
X0288540Y0026000D01*
D14*
X0299690Y0040150D02*
X0301625Y0040150D01*
X0302593Y0041117D01*
X0301625Y0042085D01*
X0299690Y0042085D01*
X0299690Y0043097D02*
X0301625Y0043097D01*
X0301625Y0044548D01*
X0301142Y0045031D01*
X0299690Y0045031D01*
X0300174Y0046527D02*
X0299690Y0047011D01*
X0300174Y0046527D02*
X0302109Y0046527D01*
X0301625Y0046043D02*
X0301625Y0047011D01*
X0300174Y0048007D02*
X0300174Y0048491D01*
X0299690Y0048491D01*
X0299690Y0048007D01*
X0300174Y0048007D01*
X0300174Y0049481D02*
X0299690Y0049964D01*
X0299690Y0050932D01*
X0300174Y0051416D01*
X0300658Y0051416D01*
X0301142Y0050932D01*
X0301142Y0049964D01*
X0301625Y0049481D01*
X0302109Y0049481D01*
X0302593Y0049964D01*
X0302593Y0050932D01*
X0302109Y0051416D01*
X0301625Y0052427D02*
X0301625Y0052911D01*
X0299690Y0052911D01*
X0299690Y0052427D02*
X0299690Y0053395D01*
X0300174Y0054391D02*
X0301142Y0054391D01*
X0301625Y0054875D01*
X0301625Y0056326D01*
X0302593Y0056326D02*
X0299690Y0056326D01*
X0299690Y0054875D01*
X0300174Y0054391D01*
X0302593Y0052911D02*
X0303077Y0052911D01*
X0301142Y0057338D02*
X0301625Y0057822D01*
X0301625Y0058789D01*
X0301142Y0059273D01*
X0300658Y0059273D01*
X0300658Y0057338D01*
X0300174Y0057338D02*
X0301142Y0057338D01*
X0300174Y0057338D02*
X0299690Y0057822D01*
X0299690Y0058789D01*
X0301142Y0042085D02*
X0301142Y0040150D01*
D15*
X0301539Y0067700D02*
X0301539Y0069168D01*
X0300438Y0069168D01*
X0300071Y0068801D01*
X0300071Y0067700D01*
X0299329Y0067700D02*
X0299329Y0069902D01*
X0298228Y0069902D01*
X0297861Y0069535D01*
X0297861Y0068801D01*
X0298228Y0068434D01*
X0299329Y0068434D01*
X0298595Y0068434D02*
X0297861Y0067700D01*
X0297119Y0067700D02*
X0297119Y0069902D01*
X0295652Y0069902D01*
X0296386Y0068801D02*
X0297119Y0068801D01*
X0292700Y0069535D02*
X0292333Y0069902D01*
X0291599Y0069902D01*
X0291232Y0069535D01*
X0291232Y0069168D01*
X0292700Y0067700D01*
X0291232Y0067700D01*
X0290490Y0068801D02*
X0289022Y0068801D01*
X0289389Y0069902D02*
X0290490Y0068801D01*
X0289389Y0067700D02*
X0289389Y0069902D01*
X0288280Y0069902D02*
X0288280Y0067700D01*
X0286812Y0067700D01*
X0286070Y0068067D02*
X0284602Y0069535D01*
X0284602Y0068067D01*
X0284969Y0067700D01*
X0285703Y0067700D01*
X0286070Y0068067D01*
X0286070Y0069535D01*
X0285703Y0069902D01*
X0284969Y0069902D01*
X0284602Y0069535D01*
X0283860Y0069168D02*
X0283126Y0069902D01*
X0283126Y0067700D01*
X0283860Y0067700D02*
X0282392Y0067700D01*
X0281650Y0068801D02*
X0280182Y0068801D01*
X0280916Y0069535D02*
X0280916Y0068067D01*
M02*
