G75*
%MOIN*%
%OFA0B0*%
%FSLAX25Y25*%
%IPPOS*%
%LPD*%
%AMOC8*
5,1,8,0,0,1.08239X$1,22.5*
%
%ADD10C,0.00000*%
%ADD11C,0.12211*%
%ADD12C,0.05600*%
%ADD13R,0.05550X0.05550*%
%ADD14C,0.05550*%
%ADD15C,0.06337*%
%ADD16C,0.07450*%
%ADD17C,0.06306*%
%ADD18R,0.05400X0.05400*%
%ADD19C,0.05124*%
D10*
X0023540Y0001000D02*
X0023540Y0155980D01*
X0338501Y0155980D01*
X0338501Y0001000D01*
X0023540Y0001000D01*
X0027634Y0011000D02*
X0027636Y0011153D01*
X0027642Y0011307D01*
X0027652Y0011460D01*
X0027666Y0011612D01*
X0027684Y0011765D01*
X0027706Y0011916D01*
X0027731Y0012067D01*
X0027761Y0012218D01*
X0027795Y0012368D01*
X0027832Y0012516D01*
X0027873Y0012664D01*
X0027918Y0012810D01*
X0027967Y0012956D01*
X0028020Y0013100D01*
X0028076Y0013242D01*
X0028136Y0013383D01*
X0028200Y0013523D01*
X0028267Y0013661D01*
X0028338Y0013797D01*
X0028413Y0013931D01*
X0028490Y0014063D01*
X0028572Y0014193D01*
X0028656Y0014321D01*
X0028744Y0014447D01*
X0028835Y0014570D01*
X0028929Y0014691D01*
X0029027Y0014809D01*
X0029127Y0014925D01*
X0029231Y0015038D01*
X0029337Y0015149D01*
X0029446Y0015257D01*
X0029558Y0015362D01*
X0029672Y0015463D01*
X0029790Y0015562D01*
X0029909Y0015658D01*
X0030031Y0015751D01*
X0030156Y0015840D01*
X0030283Y0015927D01*
X0030412Y0016009D01*
X0030543Y0016089D01*
X0030676Y0016165D01*
X0030811Y0016238D01*
X0030948Y0016307D01*
X0031087Y0016372D01*
X0031227Y0016434D01*
X0031369Y0016492D01*
X0031512Y0016547D01*
X0031657Y0016598D01*
X0031803Y0016645D01*
X0031950Y0016688D01*
X0032098Y0016727D01*
X0032247Y0016763D01*
X0032397Y0016794D01*
X0032548Y0016822D01*
X0032699Y0016846D01*
X0032852Y0016866D01*
X0033004Y0016882D01*
X0033157Y0016894D01*
X0033310Y0016902D01*
X0033463Y0016906D01*
X0033617Y0016906D01*
X0033770Y0016902D01*
X0033923Y0016894D01*
X0034076Y0016882D01*
X0034228Y0016866D01*
X0034381Y0016846D01*
X0034532Y0016822D01*
X0034683Y0016794D01*
X0034833Y0016763D01*
X0034982Y0016727D01*
X0035130Y0016688D01*
X0035277Y0016645D01*
X0035423Y0016598D01*
X0035568Y0016547D01*
X0035711Y0016492D01*
X0035853Y0016434D01*
X0035993Y0016372D01*
X0036132Y0016307D01*
X0036269Y0016238D01*
X0036404Y0016165D01*
X0036537Y0016089D01*
X0036668Y0016009D01*
X0036797Y0015927D01*
X0036924Y0015840D01*
X0037049Y0015751D01*
X0037171Y0015658D01*
X0037290Y0015562D01*
X0037408Y0015463D01*
X0037522Y0015362D01*
X0037634Y0015257D01*
X0037743Y0015149D01*
X0037849Y0015038D01*
X0037953Y0014925D01*
X0038053Y0014809D01*
X0038151Y0014691D01*
X0038245Y0014570D01*
X0038336Y0014447D01*
X0038424Y0014321D01*
X0038508Y0014193D01*
X0038590Y0014063D01*
X0038667Y0013931D01*
X0038742Y0013797D01*
X0038813Y0013661D01*
X0038880Y0013523D01*
X0038944Y0013383D01*
X0039004Y0013242D01*
X0039060Y0013100D01*
X0039113Y0012956D01*
X0039162Y0012810D01*
X0039207Y0012664D01*
X0039248Y0012516D01*
X0039285Y0012368D01*
X0039319Y0012218D01*
X0039349Y0012067D01*
X0039374Y0011916D01*
X0039396Y0011765D01*
X0039414Y0011612D01*
X0039428Y0011460D01*
X0039438Y0011307D01*
X0039444Y0011153D01*
X0039446Y0011000D01*
X0039444Y0010847D01*
X0039438Y0010693D01*
X0039428Y0010540D01*
X0039414Y0010388D01*
X0039396Y0010235D01*
X0039374Y0010084D01*
X0039349Y0009933D01*
X0039319Y0009782D01*
X0039285Y0009632D01*
X0039248Y0009484D01*
X0039207Y0009336D01*
X0039162Y0009190D01*
X0039113Y0009044D01*
X0039060Y0008900D01*
X0039004Y0008758D01*
X0038944Y0008617D01*
X0038880Y0008477D01*
X0038813Y0008339D01*
X0038742Y0008203D01*
X0038667Y0008069D01*
X0038590Y0007937D01*
X0038508Y0007807D01*
X0038424Y0007679D01*
X0038336Y0007553D01*
X0038245Y0007430D01*
X0038151Y0007309D01*
X0038053Y0007191D01*
X0037953Y0007075D01*
X0037849Y0006962D01*
X0037743Y0006851D01*
X0037634Y0006743D01*
X0037522Y0006638D01*
X0037408Y0006537D01*
X0037290Y0006438D01*
X0037171Y0006342D01*
X0037049Y0006249D01*
X0036924Y0006160D01*
X0036797Y0006073D01*
X0036668Y0005991D01*
X0036537Y0005911D01*
X0036404Y0005835D01*
X0036269Y0005762D01*
X0036132Y0005693D01*
X0035993Y0005628D01*
X0035853Y0005566D01*
X0035711Y0005508D01*
X0035568Y0005453D01*
X0035423Y0005402D01*
X0035277Y0005355D01*
X0035130Y0005312D01*
X0034982Y0005273D01*
X0034833Y0005237D01*
X0034683Y0005206D01*
X0034532Y0005178D01*
X0034381Y0005154D01*
X0034228Y0005134D01*
X0034076Y0005118D01*
X0033923Y0005106D01*
X0033770Y0005098D01*
X0033617Y0005094D01*
X0033463Y0005094D01*
X0033310Y0005098D01*
X0033157Y0005106D01*
X0033004Y0005118D01*
X0032852Y0005134D01*
X0032699Y0005154D01*
X0032548Y0005178D01*
X0032397Y0005206D01*
X0032247Y0005237D01*
X0032098Y0005273D01*
X0031950Y0005312D01*
X0031803Y0005355D01*
X0031657Y0005402D01*
X0031512Y0005453D01*
X0031369Y0005508D01*
X0031227Y0005566D01*
X0031087Y0005628D01*
X0030948Y0005693D01*
X0030811Y0005762D01*
X0030676Y0005835D01*
X0030543Y0005911D01*
X0030412Y0005991D01*
X0030283Y0006073D01*
X0030156Y0006160D01*
X0030031Y0006249D01*
X0029909Y0006342D01*
X0029790Y0006438D01*
X0029672Y0006537D01*
X0029558Y0006638D01*
X0029446Y0006743D01*
X0029337Y0006851D01*
X0029231Y0006962D01*
X0029127Y0007075D01*
X0029027Y0007191D01*
X0028929Y0007309D01*
X0028835Y0007430D01*
X0028744Y0007553D01*
X0028656Y0007679D01*
X0028572Y0007807D01*
X0028490Y0007937D01*
X0028413Y0008069D01*
X0028338Y0008203D01*
X0028267Y0008339D01*
X0028200Y0008477D01*
X0028136Y0008617D01*
X0028076Y0008758D01*
X0028020Y0008900D01*
X0027967Y0009044D01*
X0027918Y0009190D01*
X0027873Y0009336D01*
X0027832Y0009484D01*
X0027795Y0009632D01*
X0027761Y0009782D01*
X0027731Y0009933D01*
X0027706Y0010084D01*
X0027684Y0010235D01*
X0027666Y0010388D01*
X0027652Y0010540D01*
X0027642Y0010693D01*
X0027636Y0010847D01*
X0027634Y0011000D01*
X0322634Y0011000D02*
X0322636Y0011153D01*
X0322642Y0011307D01*
X0322652Y0011460D01*
X0322666Y0011612D01*
X0322684Y0011765D01*
X0322706Y0011916D01*
X0322731Y0012067D01*
X0322761Y0012218D01*
X0322795Y0012368D01*
X0322832Y0012516D01*
X0322873Y0012664D01*
X0322918Y0012810D01*
X0322967Y0012956D01*
X0323020Y0013100D01*
X0323076Y0013242D01*
X0323136Y0013383D01*
X0323200Y0013523D01*
X0323267Y0013661D01*
X0323338Y0013797D01*
X0323413Y0013931D01*
X0323490Y0014063D01*
X0323572Y0014193D01*
X0323656Y0014321D01*
X0323744Y0014447D01*
X0323835Y0014570D01*
X0323929Y0014691D01*
X0324027Y0014809D01*
X0324127Y0014925D01*
X0324231Y0015038D01*
X0324337Y0015149D01*
X0324446Y0015257D01*
X0324558Y0015362D01*
X0324672Y0015463D01*
X0324790Y0015562D01*
X0324909Y0015658D01*
X0325031Y0015751D01*
X0325156Y0015840D01*
X0325283Y0015927D01*
X0325412Y0016009D01*
X0325543Y0016089D01*
X0325676Y0016165D01*
X0325811Y0016238D01*
X0325948Y0016307D01*
X0326087Y0016372D01*
X0326227Y0016434D01*
X0326369Y0016492D01*
X0326512Y0016547D01*
X0326657Y0016598D01*
X0326803Y0016645D01*
X0326950Y0016688D01*
X0327098Y0016727D01*
X0327247Y0016763D01*
X0327397Y0016794D01*
X0327548Y0016822D01*
X0327699Y0016846D01*
X0327852Y0016866D01*
X0328004Y0016882D01*
X0328157Y0016894D01*
X0328310Y0016902D01*
X0328463Y0016906D01*
X0328617Y0016906D01*
X0328770Y0016902D01*
X0328923Y0016894D01*
X0329076Y0016882D01*
X0329228Y0016866D01*
X0329381Y0016846D01*
X0329532Y0016822D01*
X0329683Y0016794D01*
X0329833Y0016763D01*
X0329982Y0016727D01*
X0330130Y0016688D01*
X0330277Y0016645D01*
X0330423Y0016598D01*
X0330568Y0016547D01*
X0330711Y0016492D01*
X0330853Y0016434D01*
X0330993Y0016372D01*
X0331132Y0016307D01*
X0331269Y0016238D01*
X0331404Y0016165D01*
X0331537Y0016089D01*
X0331668Y0016009D01*
X0331797Y0015927D01*
X0331924Y0015840D01*
X0332049Y0015751D01*
X0332171Y0015658D01*
X0332290Y0015562D01*
X0332408Y0015463D01*
X0332522Y0015362D01*
X0332634Y0015257D01*
X0332743Y0015149D01*
X0332849Y0015038D01*
X0332953Y0014925D01*
X0333053Y0014809D01*
X0333151Y0014691D01*
X0333245Y0014570D01*
X0333336Y0014447D01*
X0333424Y0014321D01*
X0333508Y0014193D01*
X0333590Y0014063D01*
X0333667Y0013931D01*
X0333742Y0013797D01*
X0333813Y0013661D01*
X0333880Y0013523D01*
X0333944Y0013383D01*
X0334004Y0013242D01*
X0334060Y0013100D01*
X0334113Y0012956D01*
X0334162Y0012810D01*
X0334207Y0012664D01*
X0334248Y0012516D01*
X0334285Y0012368D01*
X0334319Y0012218D01*
X0334349Y0012067D01*
X0334374Y0011916D01*
X0334396Y0011765D01*
X0334414Y0011612D01*
X0334428Y0011460D01*
X0334438Y0011307D01*
X0334444Y0011153D01*
X0334446Y0011000D01*
X0334444Y0010847D01*
X0334438Y0010693D01*
X0334428Y0010540D01*
X0334414Y0010388D01*
X0334396Y0010235D01*
X0334374Y0010084D01*
X0334349Y0009933D01*
X0334319Y0009782D01*
X0334285Y0009632D01*
X0334248Y0009484D01*
X0334207Y0009336D01*
X0334162Y0009190D01*
X0334113Y0009044D01*
X0334060Y0008900D01*
X0334004Y0008758D01*
X0333944Y0008617D01*
X0333880Y0008477D01*
X0333813Y0008339D01*
X0333742Y0008203D01*
X0333667Y0008069D01*
X0333590Y0007937D01*
X0333508Y0007807D01*
X0333424Y0007679D01*
X0333336Y0007553D01*
X0333245Y0007430D01*
X0333151Y0007309D01*
X0333053Y0007191D01*
X0332953Y0007075D01*
X0332849Y0006962D01*
X0332743Y0006851D01*
X0332634Y0006743D01*
X0332522Y0006638D01*
X0332408Y0006537D01*
X0332290Y0006438D01*
X0332171Y0006342D01*
X0332049Y0006249D01*
X0331924Y0006160D01*
X0331797Y0006073D01*
X0331668Y0005991D01*
X0331537Y0005911D01*
X0331404Y0005835D01*
X0331269Y0005762D01*
X0331132Y0005693D01*
X0330993Y0005628D01*
X0330853Y0005566D01*
X0330711Y0005508D01*
X0330568Y0005453D01*
X0330423Y0005402D01*
X0330277Y0005355D01*
X0330130Y0005312D01*
X0329982Y0005273D01*
X0329833Y0005237D01*
X0329683Y0005206D01*
X0329532Y0005178D01*
X0329381Y0005154D01*
X0329228Y0005134D01*
X0329076Y0005118D01*
X0328923Y0005106D01*
X0328770Y0005098D01*
X0328617Y0005094D01*
X0328463Y0005094D01*
X0328310Y0005098D01*
X0328157Y0005106D01*
X0328004Y0005118D01*
X0327852Y0005134D01*
X0327699Y0005154D01*
X0327548Y0005178D01*
X0327397Y0005206D01*
X0327247Y0005237D01*
X0327098Y0005273D01*
X0326950Y0005312D01*
X0326803Y0005355D01*
X0326657Y0005402D01*
X0326512Y0005453D01*
X0326369Y0005508D01*
X0326227Y0005566D01*
X0326087Y0005628D01*
X0325948Y0005693D01*
X0325811Y0005762D01*
X0325676Y0005835D01*
X0325543Y0005911D01*
X0325412Y0005991D01*
X0325283Y0006073D01*
X0325156Y0006160D01*
X0325031Y0006249D01*
X0324909Y0006342D01*
X0324790Y0006438D01*
X0324672Y0006537D01*
X0324558Y0006638D01*
X0324446Y0006743D01*
X0324337Y0006851D01*
X0324231Y0006962D01*
X0324127Y0007075D01*
X0324027Y0007191D01*
X0323929Y0007309D01*
X0323835Y0007430D01*
X0323744Y0007553D01*
X0323656Y0007679D01*
X0323572Y0007807D01*
X0323490Y0007937D01*
X0323413Y0008069D01*
X0323338Y0008203D01*
X0323267Y0008339D01*
X0323200Y0008477D01*
X0323136Y0008617D01*
X0323076Y0008758D01*
X0323020Y0008900D01*
X0322967Y0009044D01*
X0322918Y0009190D01*
X0322873Y0009336D01*
X0322832Y0009484D01*
X0322795Y0009632D01*
X0322761Y0009782D01*
X0322731Y0009933D01*
X0322706Y0010084D01*
X0322684Y0010235D01*
X0322666Y0010388D01*
X0322652Y0010540D01*
X0322642Y0010693D01*
X0322636Y0010847D01*
X0322634Y0011000D01*
X0322634Y0146000D02*
X0322636Y0146153D01*
X0322642Y0146307D01*
X0322652Y0146460D01*
X0322666Y0146612D01*
X0322684Y0146765D01*
X0322706Y0146916D01*
X0322731Y0147067D01*
X0322761Y0147218D01*
X0322795Y0147368D01*
X0322832Y0147516D01*
X0322873Y0147664D01*
X0322918Y0147810D01*
X0322967Y0147956D01*
X0323020Y0148100D01*
X0323076Y0148242D01*
X0323136Y0148383D01*
X0323200Y0148523D01*
X0323267Y0148661D01*
X0323338Y0148797D01*
X0323413Y0148931D01*
X0323490Y0149063D01*
X0323572Y0149193D01*
X0323656Y0149321D01*
X0323744Y0149447D01*
X0323835Y0149570D01*
X0323929Y0149691D01*
X0324027Y0149809D01*
X0324127Y0149925D01*
X0324231Y0150038D01*
X0324337Y0150149D01*
X0324446Y0150257D01*
X0324558Y0150362D01*
X0324672Y0150463D01*
X0324790Y0150562D01*
X0324909Y0150658D01*
X0325031Y0150751D01*
X0325156Y0150840D01*
X0325283Y0150927D01*
X0325412Y0151009D01*
X0325543Y0151089D01*
X0325676Y0151165D01*
X0325811Y0151238D01*
X0325948Y0151307D01*
X0326087Y0151372D01*
X0326227Y0151434D01*
X0326369Y0151492D01*
X0326512Y0151547D01*
X0326657Y0151598D01*
X0326803Y0151645D01*
X0326950Y0151688D01*
X0327098Y0151727D01*
X0327247Y0151763D01*
X0327397Y0151794D01*
X0327548Y0151822D01*
X0327699Y0151846D01*
X0327852Y0151866D01*
X0328004Y0151882D01*
X0328157Y0151894D01*
X0328310Y0151902D01*
X0328463Y0151906D01*
X0328617Y0151906D01*
X0328770Y0151902D01*
X0328923Y0151894D01*
X0329076Y0151882D01*
X0329228Y0151866D01*
X0329381Y0151846D01*
X0329532Y0151822D01*
X0329683Y0151794D01*
X0329833Y0151763D01*
X0329982Y0151727D01*
X0330130Y0151688D01*
X0330277Y0151645D01*
X0330423Y0151598D01*
X0330568Y0151547D01*
X0330711Y0151492D01*
X0330853Y0151434D01*
X0330993Y0151372D01*
X0331132Y0151307D01*
X0331269Y0151238D01*
X0331404Y0151165D01*
X0331537Y0151089D01*
X0331668Y0151009D01*
X0331797Y0150927D01*
X0331924Y0150840D01*
X0332049Y0150751D01*
X0332171Y0150658D01*
X0332290Y0150562D01*
X0332408Y0150463D01*
X0332522Y0150362D01*
X0332634Y0150257D01*
X0332743Y0150149D01*
X0332849Y0150038D01*
X0332953Y0149925D01*
X0333053Y0149809D01*
X0333151Y0149691D01*
X0333245Y0149570D01*
X0333336Y0149447D01*
X0333424Y0149321D01*
X0333508Y0149193D01*
X0333590Y0149063D01*
X0333667Y0148931D01*
X0333742Y0148797D01*
X0333813Y0148661D01*
X0333880Y0148523D01*
X0333944Y0148383D01*
X0334004Y0148242D01*
X0334060Y0148100D01*
X0334113Y0147956D01*
X0334162Y0147810D01*
X0334207Y0147664D01*
X0334248Y0147516D01*
X0334285Y0147368D01*
X0334319Y0147218D01*
X0334349Y0147067D01*
X0334374Y0146916D01*
X0334396Y0146765D01*
X0334414Y0146612D01*
X0334428Y0146460D01*
X0334438Y0146307D01*
X0334444Y0146153D01*
X0334446Y0146000D01*
X0334444Y0145847D01*
X0334438Y0145693D01*
X0334428Y0145540D01*
X0334414Y0145388D01*
X0334396Y0145235D01*
X0334374Y0145084D01*
X0334349Y0144933D01*
X0334319Y0144782D01*
X0334285Y0144632D01*
X0334248Y0144484D01*
X0334207Y0144336D01*
X0334162Y0144190D01*
X0334113Y0144044D01*
X0334060Y0143900D01*
X0334004Y0143758D01*
X0333944Y0143617D01*
X0333880Y0143477D01*
X0333813Y0143339D01*
X0333742Y0143203D01*
X0333667Y0143069D01*
X0333590Y0142937D01*
X0333508Y0142807D01*
X0333424Y0142679D01*
X0333336Y0142553D01*
X0333245Y0142430D01*
X0333151Y0142309D01*
X0333053Y0142191D01*
X0332953Y0142075D01*
X0332849Y0141962D01*
X0332743Y0141851D01*
X0332634Y0141743D01*
X0332522Y0141638D01*
X0332408Y0141537D01*
X0332290Y0141438D01*
X0332171Y0141342D01*
X0332049Y0141249D01*
X0331924Y0141160D01*
X0331797Y0141073D01*
X0331668Y0140991D01*
X0331537Y0140911D01*
X0331404Y0140835D01*
X0331269Y0140762D01*
X0331132Y0140693D01*
X0330993Y0140628D01*
X0330853Y0140566D01*
X0330711Y0140508D01*
X0330568Y0140453D01*
X0330423Y0140402D01*
X0330277Y0140355D01*
X0330130Y0140312D01*
X0329982Y0140273D01*
X0329833Y0140237D01*
X0329683Y0140206D01*
X0329532Y0140178D01*
X0329381Y0140154D01*
X0329228Y0140134D01*
X0329076Y0140118D01*
X0328923Y0140106D01*
X0328770Y0140098D01*
X0328617Y0140094D01*
X0328463Y0140094D01*
X0328310Y0140098D01*
X0328157Y0140106D01*
X0328004Y0140118D01*
X0327852Y0140134D01*
X0327699Y0140154D01*
X0327548Y0140178D01*
X0327397Y0140206D01*
X0327247Y0140237D01*
X0327098Y0140273D01*
X0326950Y0140312D01*
X0326803Y0140355D01*
X0326657Y0140402D01*
X0326512Y0140453D01*
X0326369Y0140508D01*
X0326227Y0140566D01*
X0326087Y0140628D01*
X0325948Y0140693D01*
X0325811Y0140762D01*
X0325676Y0140835D01*
X0325543Y0140911D01*
X0325412Y0140991D01*
X0325283Y0141073D01*
X0325156Y0141160D01*
X0325031Y0141249D01*
X0324909Y0141342D01*
X0324790Y0141438D01*
X0324672Y0141537D01*
X0324558Y0141638D01*
X0324446Y0141743D01*
X0324337Y0141851D01*
X0324231Y0141962D01*
X0324127Y0142075D01*
X0324027Y0142191D01*
X0323929Y0142309D01*
X0323835Y0142430D01*
X0323744Y0142553D01*
X0323656Y0142679D01*
X0323572Y0142807D01*
X0323490Y0142937D01*
X0323413Y0143069D01*
X0323338Y0143203D01*
X0323267Y0143339D01*
X0323200Y0143477D01*
X0323136Y0143617D01*
X0323076Y0143758D01*
X0323020Y0143900D01*
X0322967Y0144044D01*
X0322918Y0144190D01*
X0322873Y0144336D01*
X0322832Y0144484D01*
X0322795Y0144632D01*
X0322761Y0144782D01*
X0322731Y0144933D01*
X0322706Y0145084D01*
X0322684Y0145235D01*
X0322666Y0145388D01*
X0322652Y0145540D01*
X0322642Y0145693D01*
X0322636Y0145847D01*
X0322634Y0146000D01*
D11*
X0328540Y0146000D03*
X0328540Y0011000D03*
X0033540Y0011000D03*
D12*
X0038540Y0088400D02*
X0038540Y0093600D01*
X0048540Y0093600D02*
X0048540Y0088400D01*
X0058540Y0088400D02*
X0058540Y0093600D01*
X0068540Y0093600D02*
X0068540Y0088400D01*
X0078540Y0088400D02*
X0078540Y0093600D01*
X0088540Y0093600D02*
X0088540Y0088400D01*
X0098540Y0088400D02*
X0098540Y0093600D01*
X0108540Y0093600D02*
X0108540Y0088400D01*
X0118540Y0088400D02*
X0118540Y0093600D01*
X0138540Y0093600D02*
X0138540Y0088400D01*
X0148540Y0088400D02*
X0148540Y0093600D01*
X0158540Y0093600D02*
X0158540Y0088400D01*
X0168540Y0088400D02*
X0168540Y0093600D01*
X0178540Y0093600D02*
X0178540Y0088400D01*
X0188540Y0088400D02*
X0188540Y0093600D01*
X0198540Y0093600D02*
X0198540Y0088400D01*
X0208540Y0088400D02*
X0208540Y0093600D01*
X0218540Y0093600D02*
X0218540Y0088400D01*
X0238540Y0088400D02*
X0238540Y0093600D01*
X0248540Y0093600D02*
X0248540Y0088400D01*
X0258540Y0088400D02*
X0258540Y0093600D01*
X0268540Y0093600D02*
X0268540Y0088400D01*
X0278540Y0088400D02*
X0278540Y0093600D01*
X0288540Y0093600D02*
X0288540Y0088400D01*
X0298540Y0088400D02*
X0298540Y0093600D01*
X0308540Y0093600D02*
X0308540Y0088400D01*
X0318540Y0088400D02*
X0318540Y0093600D01*
X0318540Y0118400D02*
X0318540Y0123600D01*
X0308540Y0123600D02*
X0308540Y0118400D01*
X0298540Y0118400D02*
X0298540Y0123600D01*
X0288540Y0123600D02*
X0288540Y0118400D01*
X0278540Y0118400D02*
X0278540Y0123600D01*
X0268540Y0123600D02*
X0268540Y0118400D01*
X0258540Y0118400D02*
X0258540Y0123600D01*
X0248540Y0123600D02*
X0248540Y0118400D01*
X0238540Y0118400D02*
X0238540Y0123600D01*
X0218540Y0123600D02*
X0218540Y0118400D01*
X0208540Y0118400D02*
X0208540Y0123600D01*
X0198540Y0123600D02*
X0198540Y0118400D01*
X0188540Y0118400D02*
X0188540Y0123600D01*
X0178540Y0123600D02*
X0178540Y0118400D01*
X0168540Y0118400D02*
X0168540Y0123600D01*
X0158540Y0123600D02*
X0158540Y0118400D01*
X0148540Y0118400D02*
X0148540Y0123600D01*
X0138540Y0123600D02*
X0138540Y0118400D01*
X0118540Y0118400D02*
X0118540Y0123600D01*
X0108540Y0123600D02*
X0108540Y0118400D01*
X0098540Y0118400D02*
X0098540Y0123600D01*
X0088540Y0123600D02*
X0088540Y0118400D01*
X0078540Y0118400D02*
X0078540Y0123600D01*
X0068540Y0123600D02*
X0068540Y0118400D01*
X0058540Y0118400D02*
X0058540Y0123600D01*
X0048540Y0123600D02*
X0048540Y0118400D01*
X0038540Y0118400D02*
X0038540Y0123600D01*
D13*
X0113540Y0071000D03*
X0113540Y0011000D03*
X0283540Y0021000D03*
X0283540Y0031000D03*
D14*
X0293540Y0031000D03*
X0273540Y0021000D03*
X0263540Y0021000D03*
X0253540Y0021000D03*
X0253540Y0011000D03*
X0243540Y0011000D03*
X0233540Y0011000D03*
X0223540Y0011000D03*
X0213540Y0011000D03*
X0203540Y0011000D03*
X0193540Y0011000D03*
X0183540Y0011000D03*
X0173540Y0011000D03*
X0163540Y0011000D03*
X0153540Y0011000D03*
X0143540Y0011000D03*
X0133540Y0011000D03*
X0123540Y0011000D03*
X0123540Y0071000D03*
X0133540Y0071000D03*
X0143540Y0071000D03*
X0153540Y0071000D03*
X0163540Y0071000D03*
X0173540Y0071000D03*
X0183540Y0071000D03*
X0193540Y0071000D03*
X0203540Y0071000D03*
X0213540Y0071000D03*
X0223540Y0071000D03*
X0233540Y0071000D03*
X0243540Y0071000D03*
X0253540Y0071000D03*
X0263540Y0071000D03*
X0273540Y0071000D03*
X0283540Y0071000D03*
X0293540Y0071000D03*
X0303540Y0071000D03*
X0293540Y0061000D03*
X0283540Y0061000D03*
X0283540Y0051000D03*
X0293540Y0051000D03*
X0293540Y0041000D03*
X0283540Y0041000D03*
X0283540Y0011000D03*
X0273540Y0011000D03*
X0263540Y0011000D03*
X0293540Y0011000D03*
X0303540Y0011000D03*
D15*
X0298540Y0138031D02*
X0298540Y0143969D01*
X0288540Y0143969D02*
X0288540Y0138031D01*
X0278540Y0138031D02*
X0278540Y0143969D01*
X0268540Y0143969D02*
X0268540Y0138031D01*
X0258540Y0138031D02*
X0258540Y0143969D01*
X0248540Y0143969D02*
X0248540Y0138031D01*
X0238540Y0138031D02*
X0238540Y0143969D01*
X0208540Y0143969D02*
X0208540Y0138031D01*
X0198540Y0138031D02*
X0198540Y0143969D01*
X0188540Y0143969D02*
X0188540Y0138031D01*
X0178540Y0138031D02*
X0178540Y0143969D01*
X0168540Y0143969D02*
X0168540Y0138031D01*
X0158540Y0138031D02*
X0158540Y0143969D01*
X0148540Y0143969D02*
X0148540Y0138031D01*
X0138540Y0138031D02*
X0138540Y0143969D01*
X0108540Y0143969D02*
X0108540Y0138031D01*
X0098540Y0138031D02*
X0098540Y0143969D01*
X0088540Y0143969D02*
X0088540Y0138031D01*
X0078540Y0138031D02*
X0078540Y0143969D01*
X0068540Y0143969D02*
X0068540Y0138031D01*
X0058540Y0138031D02*
X0058540Y0143969D01*
X0048540Y0143969D02*
X0048540Y0138031D01*
X0038540Y0138031D02*
X0038540Y0143969D01*
X0308540Y0143969D02*
X0308540Y0138031D01*
D16*
X0083383Y0029525D02*
X0083383Y0022475D01*
X0063698Y0022475D02*
X0063698Y0029525D01*
D17*
X0033540Y0031000D03*
X0123540Y0141000D03*
X0223540Y0141000D03*
X0323540Y0036000D03*
D18*
X0308540Y0101000D03*
X0298540Y0101000D03*
X0288540Y0101000D03*
X0278540Y0101000D03*
X0278540Y0111000D03*
X0288540Y0111000D03*
X0298540Y0111000D03*
X0308540Y0111000D03*
X0258540Y0111000D03*
X0248540Y0111000D03*
X0238540Y0111000D03*
X0238540Y0101000D03*
X0248540Y0101000D03*
X0258540Y0101000D03*
X0208540Y0101000D03*
X0208540Y0111000D03*
X0158540Y0111000D03*
X0148540Y0111000D03*
X0148540Y0101000D03*
X0158540Y0101000D03*
X0098540Y0101000D03*
X0088540Y0101000D03*
X0088540Y0111000D03*
X0098540Y0111000D03*
D19*
X0173540Y0036000D03*
M02*
