%
M48
M72
T01C0.03150
T02C0.03543
T03C0.03600
T04C0.04331
T05C0.08661
%
T01
X6300Y6250
X16300Y6250
X26300Y6250
X36300Y6250
X46300Y6250
X56300Y6250
X66300Y6250
X76300Y6250
X86300Y6250
X96300Y6250
X106300Y6250
X116300Y6250
X126300Y6250
X136300Y6250
X146300Y6250
X146300Y16250
X156300Y16250
X166300Y16250
X166300Y6250
X156300Y6250
X176300Y6250
X186300Y6250
X196300Y6250
X176300Y16250
X176300Y56250
X186300Y56250
X186300Y66250
X176300Y66250
X166300Y66250
X156300Y66250
X146300Y66250
X136300Y66250
X126300Y66250
X116300Y66250
X106300Y66250
X96300Y66250
X86300Y66250
X76300Y66250
X66300Y66250
X56300Y66250
X46300Y66250
X46300Y56250
X56300Y56250
X56300Y46250
X46300Y46250
X46300Y36250
X56300Y36250
X56300Y26250
X46300Y26250
X76300Y55935
X86300Y55935
X96300Y55935
X106300Y55935
X136300Y55935
X146300Y55935
X156300Y55935
X166300Y55935
X196300Y56250
X196300Y66250
X196300Y86250
X186300Y86250
X176300Y86250
X176300Y96250
X166300Y96250
X156300Y96250
X156300Y86250
X166300Y86250
X146300Y86250
X136300Y86250
X126300Y86250
X116300Y86250
X106300Y86250
X96300Y86250
X86300Y86250
X76300Y86250
X66300Y86250
X56300Y86250
X46300Y86250
X36300Y86250
X26300Y86250
X16300Y86250
X6300Y86250
X6300Y66250
X16300Y66250
X26300Y66250
X36300Y66250
X46300Y106250
X56300Y106250
X56300Y116250
X46300Y116250
X46300Y126250
X56300Y126250
X56300Y136250
X46300Y136250
X46300Y146250
X56300Y146250
X66300Y146250
X76300Y146250
X86300Y146250
X96300Y146250
X106300Y146250
X116300Y146250
X126300Y146250
X136300Y146250
X146300Y146250
X156300Y146250
X166300Y146250
X176300Y146250
X186300Y146250
X186300Y136250
X176300Y136250
X166300Y135935
X156300Y135935
X146300Y135935
X136300Y135935
X106300Y135935
X96300Y135935
X86300Y135935
X76300Y135935
X76300Y166250
X66300Y166250
X56300Y166250
X46300Y166250
X36300Y166250
X26300Y166250
X16300Y166250
X6300Y166250
X6300Y146250
X16300Y146250
X26300Y146250
X36300Y146250
X86300Y166250
X96300Y166250
X106300Y166250
X116300Y166250
X126300Y166250
X136300Y166250
X146300Y166250
X146300Y176250
X156300Y176250
X166300Y176250
X166300Y166250
X156300Y166250
X176300Y166250
X186300Y166250
X196300Y166250
X176300Y176250
X196300Y146250
X196300Y136250
X146300Y96250
X56300Y186250
X46300Y186250
X46300Y196250
X56300Y196250
X56300Y206250
X46300Y206250
X46300Y216250
X56300Y216250
X56300Y226250
X46300Y226250
X36300Y226250
X26300Y226250
X16300Y226250
X6300Y226250
X66300Y226250
X76300Y226250
X86300Y226250
X96300Y226250
X106300Y226250
X116300Y226250
X126300Y226250
X136300Y226250
X146300Y226250
X156300Y226250
X166300Y226250
X176300Y226250
X186300Y226250
X186300Y216250
X176300Y216250
X166300Y215935
X156300Y215935
X146300Y215935
X136300Y215935
X106300Y215935
X96300Y215935
X86300Y215935
X76300Y215935
X196300Y216250
X196300Y226250
T02
X141300Y191250
X116300Y198750
X101300Y196250
X116300Y216250
X116300Y136250
X116300Y118750
X101300Y116250
X141300Y111250
X116300Y56250
X116300Y38750
X101300Y36250
X141300Y31250
T03
X206851Y32313
X206851Y40187
X206851Y50030
X206851Y22470
X206851Y102470
X206851Y112313
X206851Y120187
X206851Y130030
X206851Y182470
X206851Y192313
X206851Y200187
X206851Y210030
T04
X216694Y205108
X216694Y187392
X216694Y125108
X216694Y107392
X216694Y45108
X216694Y27392
T05
X216300Y13415
X216300Y59085
X216300Y93415
X216300Y139085
X216300Y173415
X216300Y219085
M30
