G75*
%MOIN*%
%OFA0B0*%
%FSLAX25Y25*%
%IPPOS*%
%LPD*%
%AMOC8*
5,1,8,0,0,1.08239X$1,22.5*
%
%ADD10C,0.00000*%
%ADD11R,0.05150X0.05150*%
%ADD12C,0.05150*%
%ADD13C,0.05600*%
%ADD14C,0.12661*%
%ADD15C,0.01600*%
%ADD16C,0.05315*%
%ADD17C,0.02400*%
D10*
X0001300Y0001250D02*
X0001300Y0231211D01*
X0226339Y0231250D01*
X0226300Y0001250D01*
X0001300Y0001250D01*
X0214529Y0027392D02*
X0214531Y0027485D01*
X0214537Y0027577D01*
X0214547Y0027669D01*
X0214561Y0027760D01*
X0214578Y0027851D01*
X0214600Y0027941D01*
X0214625Y0028030D01*
X0214654Y0028118D01*
X0214687Y0028204D01*
X0214724Y0028289D01*
X0214764Y0028373D01*
X0214808Y0028454D01*
X0214855Y0028534D01*
X0214905Y0028612D01*
X0214959Y0028687D01*
X0215016Y0028760D01*
X0215076Y0028830D01*
X0215139Y0028898D01*
X0215205Y0028963D01*
X0215273Y0029025D01*
X0215344Y0029085D01*
X0215418Y0029141D01*
X0215494Y0029194D01*
X0215572Y0029243D01*
X0215652Y0029290D01*
X0215734Y0029332D01*
X0215818Y0029372D01*
X0215903Y0029407D01*
X0215990Y0029439D01*
X0216078Y0029468D01*
X0216167Y0029492D01*
X0216257Y0029513D01*
X0216348Y0029529D01*
X0216440Y0029542D01*
X0216532Y0029551D01*
X0216625Y0029556D01*
X0216717Y0029557D01*
X0216810Y0029554D01*
X0216902Y0029547D01*
X0216994Y0029536D01*
X0217085Y0029521D01*
X0217176Y0029503D01*
X0217266Y0029480D01*
X0217354Y0029454D01*
X0217442Y0029424D01*
X0217528Y0029390D01*
X0217612Y0029353D01*
X0217695Y0029311D01*
X0217776Y0029267D01*
X0217856Y0029219D01*
X0217933Y0029168D01*
X0218007Y0029113D01*
X0218080Y0029055D01*
X0218150Y0028995D01*
X0218217Y0028931D01*
X0218281Y0028865D01*
X0218343Y0028795D01*
X0218401Y0028724D01*
X0218456Y0028650D01*
X0218508Y0028573D01*
X0218557Y0028494D01*
X0218603Y0028414D01*
X0218645Y0028331D01*
X0218683Y0028247D01*
X0218718Y0028161D01*
X0218749Y0028074D01*
X0218776Y0027986D01*
X0218799Y0027896D01*
X0218819Y0027806D01*
X0218835Y0027715D01*
X0218847Y0027623D01*
X0218855Y0027531D01*
X0218859Y0027438D01*
X0218859Y0027346D01*
X0218855Y0027253D01*
X0218847Y0027161D01*
X0218835Y0027069D01*
X0218819Y0026978D01*
X0218799Y0026888D01*
X0218776Y0026798D01*
X0218749Y0026710D01*
X0218718Y0026623D01*
X0218683Y0026537D01*
X0218645Y0026453D01*
X0218603Y0026370D01*
X0218557Y0026290D01*
X0218508Y0026211D01*
X0218456Y0026134D01*
X0218401Y0026060D01*
X0218343Y0025989D01*
X0218281Y0025919D01*
X0218217Y0025853D01*
X0218150Y0025789D01*
X0218080Y0025729D01*
X0218007Y0025671D01*
X0217933Y0025616D01*
X0217856Y0025565D01*
X0217777Y0025517D01*
X0217695Y0025473D01*
X0217612Y0025431D01*
X0217528Y0025394D01*
X0217442Y0025360D01*
X0217354Y0025330D01*
X0217266Y0025304D01*
X0217176Y0025281D01*
X0217085Y0025263D01*
X0216994Y0025248D01*
X0216902Y0025237D01*
X0216810Y0025230D01*
X0216717Y0025227D01*
X0216625Y0025228D01*
X0216532Y0025233D01*
X0216440Y0025242D01*
X0216348Y0025255D01*
X0216257Y0025271D01*
X0216167Y0025292D01*
X0216078Y0025316D01*
X0215990Y0025345D01*
X0215903Y0025377D01*
X0215818Y0025412D01*
X0215734Y0025452D01*
X0215652Y0025494D01*
X0215572Y0025541D01*
X0215494Y0025590D01*
X0215418Y0025643D01*
X0215344Y0025699D01*
X0215273Y0025759D01*
X0215205Y0025821D01*
X0215139Y0025886D01*
X0215076Y0025954D01*
X0215016Y0026024D01*
X0214959Y0026097D01*
X0214905Y0026172D01*
X0214855Y0026250D01*
X0214808Y0026330D01*
X0214764Y0026411D01*
X0214724Y0026495D01*
X0214687Y0026580D01*
X0214654Y0026666D01*
X0214625Y0026754D01*
X0214600Y0026843D01*
X0214578Y0026933D01*
X0214561Y0027024D01*
X0214547Y0027115D01*
X0214537Y0027207D01*
X0214531Y0027299D01*
X0214529Y0027392D01*
X0214529Y0045108D02*
X0214531Y0045201D01*
X0214537Y0045293D01*
X0214547Y0045385D01*
X0214561Y0045476D01*
X0214578Y0045567D01*
X0214600Y0045657D01*
X0214625Y0045746D01*
X0214654Y0045834D01*
X0214687Y0045920D01*
X0214724Y0046005D01*
X0214764Y0046089D01*
X0214808Y0046170D01*
X0214855Y0046250D01*
X0214905Y0046328D01*
X0214959Y0046403D01*
X0215016Y0046476D01*
X0215076Y0046546D01*
X0215139Y0046614D01*
X0215205Y0046679D01*
X0215273Y0046741D01*
X0215344Y0046801D01*
X0215418Y0046857D01*
X0215494Y0046910D01*
X0215572Y0046959D01*
X0215652Y0047006D01*
X0215734Y0047048D01*
X0215818Y0047088D01*
X0215903Y0047123D01*
X0215990Y0047155D01*
X0216078Y0047184D01*
X0216167Y0047208D01*
X0216257Y0047229D01*
X0216348Y0047245D01*
X0216440Y0047258D01*
X0216532Y0047267D01*
X0216625Y0047272D01*
X0216717Y0047273D01*
X0216810Y0047270D01*
X0216902Y0047263D01*
X0216994Y0047252D01*
X0217085Y0047237D01*
X0217176Y0047219D01*
X0217266Y0047196D01*
X0217354Y0047170D01*
X0217442Y0047140D01*
X0217528Y0047106D01*
X0217612Y0047069D01*
X0217695Y0047027D01*
X0217776Y0046983D01*
X0217856Y0046935D01*
X0217933Y0046884D01*
X0218007Y0046829D01*
X0218080Y0046771D01*
X0218150Y0046711D01*
X0218217Y0046647D01*
X0218281Y0046581D01*
X0218343Y0046511D01*
X0218401Y0046440D01*
X0218456Y0046366D01*
X0218508Y0046289D01*
X0218557Y0046210D01*
X0218603Y0046130D01*
X0218645Y0046047D01*
X0218683Y0045963D01*
X0218718Y0045877D01*
X0218749Y0045790D01*
X0218776Y0045702D01*
X0218799Y0045612D01*
X0218819Y0045522D01*
X0218835Y0045431D01*
X0218847Y0045339D01*
X0218855Y0045247D01*
X0218859Y0045154D01*
X0218859Y0045062D01*
X0218855Y0044969D01*
X0218847Y0044877D01*
X0218835Y0044785D01*
X0218819Y0044694D01*
X0218799Y0044604D01*
X0218776Y0044514D01*
X0218749Y0044426D01*
X0218718Y0044339D01*
X0218683Y0044253D01*
X0218645Y0044169D01*
X0218603Y0044086D01*
X0218557Y0044006D01*
X0218508Y0043927D01*
X0218456Y0043850D01*
X0218401Y0043776D01*
X0218343Y0043705D01*
X0218281Y0043635D01*
X0218217Y0043569D01*
X0218150Y0043505D01*
X0218080Y0043445D01*
X0218007Y0043387D01*
X0217933Y0043332D01*
X0217856Y0043281D01*
X0217777Y0043233D01*
X0217695Y0043189D01*
X0217612Y0043147D01*
X0217528Y0043110D01*
X0217442Y0043076D01*
X0217354Y0043046D01*
X0217266Y0043020D01*
X0217176Y0042997D01*
X0217085Y0042979D01*
X0216994Y0042964D01*
X0216902Y0042953D01*
X0216810Y0042946D01*
X0216717Y0042943D01*
X0216625Y0042944D01*
X0216532Y0042949D01*
X0216440Y0042958D01*
X0216348Y0042971D01*
X0216257Y0042987D01*
X0216167Y0043008D01*
X0216078Y0043032D01*
X0215990Y0043061D01*
X0215903Y0043093D01*
X0215818Y0043128D01*
X0215734Y0043168D01*
X0215652Y0043210D01*
X0215572Y0043257D01*
X0215494Y0043306D01*
X0215418Y0043359D01*
X0215344Y0043415D01*
X0215273Y0043475D01*
X0215205Y0043537D01*
X0215139Y0043602D01*
X0215076Y0043670D01*
X0215016Y0043740D01*
X0214959Y0043813D01*
X0214905Y0043888D01*
X0214855Y0043966D01*
X0214808Y0044046D01*
X0214764Y0044127D01*
X0214724Y0044211D01*
X0214687Y0044296D01*
X0214654Y0044382D01*
X0214625Y0044470D01*
X0214600Y0044559D01*
X0214578Y0044649D01*
X0214561Y0044740D01*
X0214547Y0044831D01*
X0214537Y0044923D01*
X0214531Y0045015D01*
X0214529Y0045108D01*
X0214529Y0107392D02*
X0214531Y0107485D01*
X0214537Y0107577D01*
X0214547Y0107669D01*
X0214561Y0107760D01*
X0214578Y0107851D01*
X0214600Y0107941D01*
X0214625Y0108030D01*
X0214654Y0108118D01*
X0214687Y0108204D01*
X0214724Y0108289D01*
X0214764Y0108373D01*
X0214808Y0108454D01*
X0214855Y0108534D01*
X0214905Y0108612D01*
X0214959Y0108687D01*
X0215016Y0108760D01*
X0215076Y0108830D01*
X0215139Y0108898D01*
X0215205Y0108963D01*
X0215273Y0109025D01*
X0215344Y0109085D01*
X0215418Y0109141D01*
X0215494Y0109194D01*
X0215572Y0109243D01*
X0215652Y0109290D01*
X0215734Y0109332D01*
X0215818Y0109372D01*
X0215903Y0109407D01*
X0215990Y0109439D01*
X0216078Y0109468D01*
X0216167Y0109492D01*
X0216257Y0109513D01*
X0216348Y0109529D01*
X0216440Y0109542D01*
X0216532Y0109551D01*
X0216625Y0109556D01*
X0216717Y0109557D01*
X0216810Y0109554D01*
X0216902Y0109547D01*
X0216994Y0109536D01*
X0217085Y0109521D01*
X0217176Y0109503D01*
X0217266Y0109480D01*
X0217354Y0109454D01*
X0217442Y0109424D01*
X0217528Y0109390D01*
X0217612Y0109353D01*
X0217695Y0109311D01*
X0217776Y0109267D01*
X0217856Y0109219D01*
X0217933Y0109168D01*
X0218007Y0109113D01*
X0218080Y0109055D01*
X0218150Y0108995D01*
X0218217Y0108931D01*
X0218281Y0108865D01*
X0218343Y0108795D01*
X0218401Y0108724D01*
X0218456Y0108650D01*
X0218508Y0108573D01*
X0218557Y0108494D01*
X0218603Y0108414D01*
X0218645Y0108331D01*
X0218683Y0108247D01*
X0218718Y0108161D01*
X0218749Y0108074D01*
X0218776Y0107986D01*
X0218799Y0107896D01*
X0218819Y0107806D01*
X0218835Y0107715D01*
X0218847Y0107623D01*
X0218855Y0107531D01*
X0218859Y0107438D01*
X0218859Y0107346D01*
X0218855Y0107253D01*
X0218847Y0107161D01*
X0218835Y0107069D01*
X0218819Y0106978D01*
X0218799Y0106888D01*
X0218776Y0106798D01*
X0218749Y0106710D01*
X0218718Y0106623D01*
X0218683Y0106537D01*
X0218645Y0106453D01*
X0218603Y0106370D01*
X0218557Y0106290D01*
X0218508Y0106211D01*
X0218456Y0106134D01*
X0218401Y0106060D01*
X0218343Y0105989D01*
X0218281Y0105919D01*
X0218217Y0105853D01*
X0218150Y0105789D01*
X0218080Y0105729D01*
X0218007Y0105671D01*
X0217933Y0105616D01*
X0217856Y0105565D01*
X0217777Y0105517D01*
X0217695Y0105473D01*
X0217612Y0105431D01*
X0217528Y0105394D01*
X0217442Y0105360D01*
X0217354Y0105330D01*
X0217266Y0105304D01*
X0217176Y0105281D01*
X0217085Y0105263D01*
X0216994Y0105248D01*
X0216902Y0105237D01*
X0216810Y0105230D01*
X0216717Y0105227D01*
X0216625Y0105228D01*
X0216532Y0105233D01*
X0216440Y0105242D01*
X0216348Y0105255D01*
X0216257Y0105271D01*
X0216167Y0105292D01*
X0216078Y0105316D01*
X0215990Y0105345D01*
X0215903Y0105377D01*
X0215818Y0105412D01*
X0215734Y0105452D01*
X0215652Y0105494D01*
X0215572Y0105541D01*
X0215494Y0105590D01*
X0215418Y0105643D01*
X0215344Y0105699D01*
X0215273Y0105759D01*
X0215205Y0105821D01*
X0215139Y0105886D01*
X0215076Y0105954D01*
X0215016Y0106024D01*
X0214959Y0106097D01*
X0214905Y0106172D01*
X0214855Y0106250D01*
X0214808Y0106330D01*
X0214764Y0106411D01*
X0214724Y0106495D01*
X0214687Y0106580D01*
X0214654Y0106666D01*
X0214625Y0106754D01*
X0214600Y0106843D01*
X0214578Y0106933D01*
X0214561Y0107024D01*
X0214547Y0107115D01*
X0214537Y0107207D01*
X0214531Y0107299D01*
X0214529Y0107392D01*
X0214529Y0125108D02*
X0214531Y0125201D01*
X0214537Y0125293D01*
X0214547Y0125385D01*
X0214561Y0125476D01*
X0214578Y0125567D01*
X0214600Y0125657D01*
X0214625Y0125746D01*
X0214654Y0125834D01*
X0214687Y0125920D01*
X0214724Y0126005D01*
X0214764Y0126089D01*
X0214808Y0126170D01*
X0214855Y0126250D01*
X0214905Y0126328D01*
X0214959Y0126403D01*
X0215016Y0126476D01*
X0215076Y0126546D01*
X0215139Y0126614D01*
X0215205Y0126679D01*
X0215273Y0126741D01*
X0215344Y0126801D01*
X0215418Y0126857D01*
X0215494Y0126910D01*
X0215572Y0126959D01*
X0215652Y0127006D01*
X0215734Y0127048D01*
X0215818Y0127088D01*
X0215903Y0127123D01*
X0215990Y0127155D01*
X0216078Y0127184D01*
X0216167Y0127208D01*
X0216257Y0127229D01*
X0216348Y0127245D01*
X0216440Y0127258D01*
X0216532Y0127267D01*
X0216625Y0127272D01*
X0216717Y0127273D01*
X0216810Y0127270D01*
X0216902Y0127263D01*
X0216994Y0127252D01*
X0217085Y0127237D01*
X0217176Y0127219D01*
X0217266Y0127196D01*
X0217354Y0127170D01*
X0217442Y0127140D01*
X0217528Y0127106D01*
X0217612Y0127069D01*
X0217695Y0127027D01*
X0217776Y0126983D01*
X0217856Y0126935D01*
X0217933Y0126884D01*
X0218007Y0126829D01*
X0218080Y0126771D01*
X0218150Y0126711D01*
X0218217Y0126647D01*
X0218281Y0126581D01*
X0218343Y0126511D01*
X0218401Y0126440D01*
X0218456Y0126366D01*
X0218508Y0126289D01*
X0218557Y0126210D01*
X0218603Y0126130D01*
X0218645Y0126047D01*
X0218683Y0125963D01*
X0218718Y0125877D01*
X0218749Y0125790D01*
X0218776Y0125702D01*
X0218799Y0125612D01*
X0218819Y0125522D01*
X0218835Y0125431D01*
X0218847Y0125339D01*
X0218855Y0125247D01*
X0218859Y0125154D01*
X0218859Y0125062D01*
X0218855Y0124969D01*
X0218847Y0124877D01*
X0218835Y0124785D01*
X0218819Y0124694D01*
X0218799Y0124604D01*
X0218776Y0124514D01*
X0218749Y0124426D01*
X0218718Y0124339D01*
X0218683Y0124253D01*
X0218645Y0124169D01*
X0218603Y0124086D01*
X0218557Y0124006D01*
X0218508Y0123927D01*
X0218456Y0123850D01*
X0218401Y0123776D01*
X0218343Y0123705D01*
X0218281Y0123635D01*
X0218217Y0123569D01*
X0218150Y0123505D01*
X0218080Y0123445D01*
X0218007Y0123387D01*
X0217933Y0123332D01*
X0217856Y0123281D01*
X0217777Y0123233D01*
X0217695Y0123189D01*
X0217612Y0123147D01*
X0217528Y0123110D01*
X0217442Y0123076D01*
X0217354Y0123046D01*
X0217266Y0123020D01*
X0217176Y0122997D01*
X0217085Y0122979D01*
X0216994Y0122964D01*
X0216902Y0122953D01*
X0216810Y0122946D01*
X0216717Y0122943D01*
X0216625Y0122944D01*
X0216532Y0122949D01*
X0216440Y0122958D01*
X0216348Y0122971D01*
X0216257Y0122987D01*
X0216167Y0123008D01*
X0216078Y0123032D01*
X0215990Y0123061D01*
X0215903Y0123093D01*
X0215818Y0123128D01*
X0215734Y0123168D01*
X0215652Y0123210D01*
X0215572Y0123257D01*
X0215494Y0123306D01*
X0215418Y0123359D01*
X0215344Y0123415D01*
X0215273Y0123475D01*
X0215205Y0123537D01*
X0215139Y0123602D01*
X0215076Y0123670D01*
X0215016Y0123740D01*
X0214959Y0123813D01*
X0214905Y0123888D01*
X0214855Y0123966D01*
X0214808Y0124046D01*
X0214764Y0124127D01*
X0214724Y0124211D01*
X0214687Y0124296D01*
X0214654Y0124382D01*
X0214625Y0124470D01*
X0214600Y0124559D01*
X0214578Y0124649D01*
X0214561Y0124740D01*
X0214547Y0124831D01*
X0214537Y0124923D01*
X0214531Y0125015D01*
X0214529Y0125108D01*
X0214529Y0187392D02*
X0214531Y0187485D01*
X0214537Y0187577D01*
X0214547Y0187669D01*
X0214561Y0187760D01*
X0214578Y0187851D01*
X0214600Y0187941D01*
X0214625Y0188030D01*
X0214654Y0188118D01*
X0214687Y0188204D01*
X0214724Y0188289D01*
X0214764Y0188373D01*
X0214808Y0188454D01*
X0214855Y0188534D01*
X0214905Y0188612D01*
X0214959Y0188687D01*
X0215016Y0188760D01*
X0215076Y0188830D01*
X0215139Y0188898D01*
X0215205Y0188963D01*
X0215273Y0189025D01*
X0215344Y0189085D01*
X0215418Y0189141D01*
X0215494Y0189194D01*
X0215572Y0189243D01*
X0215652Y0189290D01*
X0215734Y0189332D01*
X0215818Y0189372D01*
X0215903Y0189407D01*
X0215990Y0189439D01*
X0216078Y0189468D01*
X0216167Y0189492D01*
X0216257Y0189513D01*
X0216348Y0189529D01*
X0216440Y0189542D01*
X0216532Y0189551D01*
X0216625Y0189556D01*
X0216717Y0189557D01*
X0216810Y0189554D01*
X0216902Y0189547D01*
X0216994Y0189536D01*
X0217085Y0189521D01*
X0217176Y0189503D01*
X0217266Y0189480D01*
X0217354Y0189454D01*
X0217442Y0189424D01*
X0217528Y0189390D01*
X0217612Y0189353D01*
X0217695Y0189311D01*
X0217776Y0189267D01*
X0217856Y0189219D01*
X0217933Y0189168D01*
X0218007Y0189113D01*
X0218080Y0189055D01*
X0218150Y0188995D01*
X0218217Y0188931D01*
X0218281Y0188865D01*
X0218343Y0188795D01*
X0218401Y0188724D01*
X0218456Y0188650D01*
X0218508Y0188573D01*
X0218557Y0188494D01*
X0218603Y0188414D01*
X0218645Y0188331D01*
X0218683Y0188247D01*
X0218718Y0188161D01*
X0218749Y0188074D01*
X0218776Y0187986D01*
X0218799Y0187896D01*
X0218819Y0187806D01*
X0218835Y0187715D01*
X0218847Y0187623D01*
X0218855Y0187531D01*
X0218859Y0187438D01*
X0218859Y0187346D01*
X0218855Y0187253D01*
X0218847Y0187161D01*
X0218835Y0187069D01*
X0218819Y0186978D01*
X0218799Y0186888D01*
X0218776Y0186798D01*
X0218749Y0186710D01*
X0218718Y0186623D01*
X0218683Y0186537D01*
X0218645Y0186453D01*
X0218603Y0186370D01*
X0218557Y0186290D01*
X0218508Y0186211D01*
X0218456Y0186134D01*
X0218401Y0186060D01*
X0218343Y0185989D01*
X0218281Y0185919D01*
X0218217Y0185853D01*
X0218150Y0185789D01*
X0218080Y0185729D01*
X0218007Y0185671D01*
X0217933Y0185616D01*
X0217856Y0185565D01*
X0217777Y0185517D01*
X0217695Y0185473D01*
X0217612Y0185431D01*
X0217528Y0185394D01*
X0217442Y0185360D01*
X0217354Y0185330D01*
X0217266Y0185304D01*
X0217176Y0185281D01*
X0217085Y0185263D01*
X0216994Y0185248D01*
X0216902Y0185237D01*
X0216810Y0185230D01*
X0216717Y0185227D01*
X0216625Y0185228D01*
X0216532Y0185233D01*
X0216440Y0185242D01*
X0216348Y0185255D01*
X0216257Y0185271D01*
X0216167Y0185292D01*
X0216078Y0185316D01*
X0215990Y0185345D01*
X0215903Y0185377D01*
X0215818Y0185412D01*
X0215734Y0185452D01*
X0215652Y0185494D01*
X0215572Y0185541D01*
X0215494Y0185590D01*
X0215418Y0185643D01*
X0215344Y0185699D01*
X0215273Y0185759D01*
X0215205Y0185821D01*
X0215139Y0185886D01*
X0215076Y0185954D01*
X0215016Y0186024D01*
X0214959Y0186097D01*
X0214905Y0186172D01*
X0214855Y0186250D01*
X0214808Y0186330D01*
X0214764Y0186411D01*
X0214724Y0186495D01*
X0214687Y0186580D01*
X0214654Y0186666D01*
X0214625Y0186754D01*
X0214600Y0186843D01*
X0214578Y0186933D01*
X0214561Y0187024D01*
X0214547Y0187115D01*
X0214537Y0187207D01*
X0214531Y0187299D01*
X0214529Y0187392D01*
X0214529Y0205108D02*
X0214531Y0205201D01*
X0214537Y0205293D01*
X0214547Y0205385D01*
X0214561Y0205476D01*
X0214578Y0205567D01*
X0214600Y0205657D01*
X0214625Y0205746D01*
X0214654Y0205834D01*
X0214687Y0205920D01*
X0214724Y0206005D01*
X0214764Y0206089D01*
X0214808Y0206170D01*
X0214855Y0206250D01*
X0214905Y0206328D01*
X0214959Y0206403D01*
X0215016Y0206476D01*
X0215076Y0206546D01*
X0215139Y0206614D01*
X0215205Y0206679D01*
X0215273Y0206741D01*
X0215344Y0206801D01*
X0215418Y0206857D01*
X0215494Y0206910D01*
X0215572Y0206959D01*
X0215652Y0207006D01*
X0215734Y0207048D01*
X0215818Y0207088D01*
X0215903Y0207123D01*
X0215990Y0207155D01*
X0216078Y0207184D01*
X0216167Y0207208D01*
X0216257Y0207229D01*
X0216348Y0207245D01*
X0216440Y0207258D01*
X0216532Y0207267D01*
X0216625Y0207272D01*
X0216717Y0207273D01*
X0216810Y0207270D01*
X0216902Y0207263D01*
X0216994Y0207252D01*
X0217085Y0207237D01*
X0217176Y0207219D01*
X0217266Y0207196D01*
X0217354Y0207170D01*
X0217442Y0207140D01*
X0217528Y0207106D01*
X0217612Y0207069D01*
X0217695Y0207027D01*
X0217776Y0206983D01*
X0217856Y0206935D01*
X0217933Y0206884D01*
X0218007Y0206829D01*
X0218080Y0206771D01*
X0218150Y0206711D01*
X0218217Y0206647D01*
X0218281Y0206581D01*
X0218343Y0206511D01*
X0218401Y0206440D01*
X0218456Y0206366D01*
X0218508Y0206289D01*
X0218557Y0206210D01*
X0218603Y0206130D01*
X0218645Y0206047D01*
X0218683Y0205963D01*
X0218718Y0205877D01*
X0218749Y0205790D01*
X0218776Y0205702D01*
X0218799Y0205612D01*
X0218819Y0205522D01*
X0218835Y0205431D01*
X0218847Y0205339D01*
X0218855Y0205247D01*
X0218859Y0205154D01*
X0218859Y0205062D01*
X0218855Y0204969D01*
X0218847Y0204877D01*
X0218835Y0204785D01*
X0218819Y0204694D01*
X0218799Y0204604D01*
X0218776Y0204514D01*
X0218749Y0204426D01*
X0218718Y0204339D01*
X0218683Y0204253D01*
X0218645Y0204169D01*
X0218603Y0204086D01*
X0218557Y0204006D01*
X0218508Y0203927D01*
X0218456Y0203850D01*
X0218401Y0203776D01*
X0218343Y0203705D01*
X0218281Y0203635D01*
X0218217Y0203569D01*
X0218150Y0203505D01*
X0218080Y0203445D01*
X0218007Y0203387D01*
X0217933Y0203332D01*
X0217856Y0203281D01*
X0217777Y0203233D01*
X0217695Y0203189D01*
X0217612Y0203147D01*
X0217528Y0203110D01*
X0217442Y0203076D01*
X0217354Y0203046D01*
X0217266Y0203020D01*
X0217176Y0202997D01*
X0217085Y0202979D01*
X0216994Y0202964D01*
X0216902Y0202953D01*
X0216810Y0202946D01*
X0216717Y0202943D01*
X0216625Y0202944D01*
X0216532Y0202949D01*
X0216440Y0202958D01*
X0216348Y0202971D01*
X0216257Y0202987D01*
X0216167Y0203008D01*
X0216078Y0203032D01*
X0215990Y0203061D01*
X0215903Y0203093D01*
X0215818Y0203128D01*
X0215734Y0203168D01*
X0215652Y0203210D01*
X0215572Y0203257D01*
X0215494Y0203306D01*
X0215418Y0203359D01*
X0215344Y0203415D01*
X0215273Y0203475D01*
X0215205Y0203537D01*
X0215139Y0203602D01*
X0215076Y0203670D01*
X0215016Y0203740D01*
X0214959Y0203813D01*
X0214905Y0203888D01*
X0214855Y0203966D01*
X0214808Y0204046D01*
X0214764Y0204127D01*
X0214724Y0204211D01*
X0214687Y0204296D01*
X0214654Y0204382D01*
X0214625Y0204470D01*
X0214600Y0204559D01*
X0214578Y0204649D01*
X0214561Y0204740D01*
X0214547Y0204831D01*
X0214537Y0204923D01*
X0214531Y0205015D01*
X0214529Y0205108D01*
D11*
X0196300Y0216250D03*
X0186300Y0216250D03*
X0176300Y0216250D03*
X0176300Y0176250D03*
X0176300Y0136250D03*
X0186300Y0136250D03*
X0196300Y0136250D03*
X0176300Y0096250D03*
X0176300Y0056250D03*
X0186300Y0056250D03*
X0196300Y0056250D03*
X0176300Y0016250D03*
X0056300Y0056250D03*
X0006300Y0066250D03*
X0006300Y0086250D03*
X0056300Y0136250D03*
X0006300Y0146250D03*
X0006300Y0166250D03*
X0056300Y0216250D03*
X0006300Y0226250D03*
X0006300Y0006250D03*
D12*
X0016300Y0006250D03*
X0026300Y0006250D03*
X0036300Y0006250D03*
X0046300Y0006250D03*
X0056300Y0006250D03*
X0066300Y0006250D03*
X0076300Y0006250D03*
X0086300Y0006250D03*
X0096300Y0006250D03*
X0106300Y0006250D03*
X0116300Y0006250D03*
X0126300Y0006250D03*
X0136300Y0006250D03*
X0146300Y0006250D03*
X0146300Y0016250D03*
X0156300Y0016250D03*
X0166300Y0016250D03*
X0166300Y0006250D03*
X0156300Y0006250D03*
X0176300Y0006250D03*
X0186300Y0006250D03*
X0196300Y0006250D03*
X0166300Y0055935D03*
X0156300Y0055935D03*
X0146300Y0055935D03*
X0136300Y0055935D03*
X0136300Y0066250D03*
X0146300Y0066250D03*
X0156300Y0066250D03*
X0166300Y0066250D03*
X0176300Y0066250D03*
X0186300Y0066250D03*
X0196300Y0066250D03*
X0196300Y0086250D03*
X0186300Y0086250D03*
X0176300Y0086250D03*
X0166300Y0086250D03*
X0156300Y0086250D03*
X0156300Y0096250D03*
X0166300Y0096250D03*
X0146300Y0096250D03*
X0146300Y0086250D03*
X0136300Y0086250D03*
X0126300Y0086250D03*
X0116300Y0086250D03*
X0106300Y0086250D03*
X0096300Y0086250D03*
X0086300Y0086250D03*
X0076300Y0086250D03*
X0066300Y0086250D03*
X0056300Y0086250D03*
X0046300Y0086250D03*
X0036300Y0086250D03*
X0026300Y0086250D03*
X0016300Y0086250D03*
X0016300Y0066250D03*
X0026300Y0066250D03*
X0036300Y0066250D03*
X0046300Y0066250D03*
X0056300Y0066250D03*
X0066300Y0066250D03*
X0076300Y0066250D03*
X0086300Y0066250D03*
X0096300Y0066250D03*
X0106300Y0066250D03*
X0116300Y0066250D03*
X0126300Y0066250D03*
X0106300Y0055935D03*
X0096300Y0055935D03*
X0086300Y0055935D03*
X0076300Y0055935D03*
X0056300Y0046250D03*
X0046300Y0046250D03*
X0046300Y0036250D03*
X0056300Y0036250D03*
X0056300Y0026250D03*
X0046300Y0026250D03*
X0046300Y0056250D03*
X0046300Y0106250D03*
X0056300Y0106250D03*
X0056300Y0116250D03*
X0046300Y0116250D03*
X0046300Y0126250D03*
X0056300Y0126250D03*
X0046300Y0136250D03*
X0046300Y0146250D03*
X0056300Y0146250D03*
X0066300Y0146250D03*
X0076300Y0146250D03*
X0086300Y0146250D03*
X0096300Y0146250D03*
X0106300Y0146250D03*
X0116300Y0146250D03*
X0126300Y0146250D03*
X0136300Y0146250D03*
X0146300Y0146250D03*
X0156300Y0146250D03*
X0166300Y0146250D03*
X0176300Y0146250D03*
X0186300Y0146250D03*
X0196300Y0146250D03*
X0196300Y0166250D03*
X0186300Y0166250D03*
X0176300Y0166250D03*
X0166300Y0166250D03*
X0156300Y0166250D03*
X0156300Y0176250D03*
X0166300Y0176250D03*
X0146300Y0176250D03*
X0146300Y0166250D03*
X0136300Y0166250D03*
X0126300Y0166250D03*
X0116300Y0166250D03*
X0106300Y0166250D03*
X0096300Y0166250D03*
X0086300Y0166250D03*
X0076300Y0166250D03*
X0066300Y0166250D03*
X0056300Y0166250D03*
X0046300Y0166250D03*
X0036300Y0166250D03*
X0026300Y0166250D03*
X0016300Y0166250D03*
X0016300Y0146250D03*
X0026300Y0146250D03*
X0036300Y0146250D03*
X0076300Y0135935D03*
X0086300Y0135935D03*
X0096300Y0135935D03*
X0106300Y0135935D03*
X0136300Y0135935D03*
X0146300Y0135935D03*
X0156300Y0135935D03*
X0166300Y0135935D03*
X0166300Y0215935D03*
X0156300Y0215935D03*
X0146300Y0215935D03*
X0136300Y0215935D03*
X0136300Y0226250D03*
X0146300Y0226250D03*
X0156300Y0226250D03*
X0166300Y0226250D03*
X0176300Y0226250D03*
X0186300Y0226250D03*
X0196300Y0226250D03*
X0126300Y0226250D03*
X0116300Y0226250D03*
X0106300Y0226250D03*
X0096300Y0226250D03*
X0086300Y0226250D03*
X0076300Y0226250D03*
X0066300Y0226250D03*
X0056300Y0226250D03*
X0046300Y0226250D03*
X0046300Y0216250D03*
X0036300Y0226250D03*
X0026300Y0226250D03*
X0016300Y0226250D03*
X0046300Y0206250D03*
X0056300Y0206250D03*
X0056300Y0196250D03*
X0046300Y0196250D03*
X0046300Y0186250D03*
X0056300Y0186250D03*
X0076300Y0215935D03*
X0086300Y0215935D03*
X0096300Y0215935D03*
X0106300Y0215935D03*
D13*
X0206851Y0210030D03*
X0206851Y0200187D03*
X0206851Y0192313D03*
X0206851Y0182470D03*
X0206851Y0130030D03*
X0206851Y0120187D03*
X0206851Y0112313D03*
X0206851Y0102470D03*
X0206851Y0050030D03*
X0206851Y0040187D03*
X0206851Y0032313D03*
X0206851Y0022470D03*
D14*
X0216300Y0013415D03*
X0216300Y0059085D03*
X0216300Y0093415D03*
X0216300Y0139085D03*
X0216300Y0173415D03*
X0216300Y0219085D03*
D15*
X0206209Y0216830D02*
X0205499Y0216830D01*
X0202999Y0215794D01*
X0202435Y0215230D01*
X0200675Y0215230D01*
X0200675Y0216250D01*
X0200675Y0219062D01*
X0200552Y0219520D01*
X0200315Y0219930D01*
X0199980Y0220265D01*
X0199584Y0220494D01*
X0200024Y0220676D01*
X0200598Y0221250D01*
X0206185Y0221250D01*
X0205969Y0220445D01*
X0205969Y0217725D01*
X0206209Y0216830D01*
X0206150Y0217049D02*
X0200675Y0217049D01*
X0200675Y0216250D02*
X0196300Y0216250D01*
X0196300Y0216250D01*
X0200675Y0216250D01*
X0200675Y0215451D02*
X0202656Y0215451D01*
X0200675Y0218648D02*
X0205969Y0218648D01*
X0205969Y0220246D02*
X0199999Y0220246D01*
X0201877Y0204830D02*
X0201086Y0204039D01*
X0200051Y0201540D01*
X0200051Y0198834D01*
X0201086Y0196335D01*
X0201172Y0196250D01*
X0201086Y0196165D01*
X0200051Y0193666D01*
X0200051Y0190960D01*
X0201086Y0188461D01*
X0202999Y0186548D01*
X0204043Y0186116D01*
X0203854Y0185979D01*
X0203342Y0185467D01*
X0202917Y0184881D01*
X0202588Y0184236D01*
X0202364Y0183548D01*
X0202251Y0182833D01*
X0202251Y0182570D01*
X0206751Y0182570D01*
X0206751Y0182370D01*
X0206951Y0182370D01*
X0206951Y0177884D01*
X0206673Y0177403D01*
X0205969Y0174775D01*
X0205969Y0172055D01*
X0206185Y0171250D01*
X0180598Y0171250D01*
X0180024Y0171824D01*
X0179584Y0172006D01*
X0179980Y0172235D01*
X0180315Y0172570D01*
X0180552Y0172980D01*
X0180675Y0173438D01*
X0180675Y0176250D01*
X0180675Y0179062D01*
X0180552Y0179520D01*
X0180315Y0179930D01*
X0179980Y0180265D01*
X0179570Y0180502D01*
X0179112Y0180625D01*
X0176300Y0180625D01*
X0173488Y0180625D01*
X0173030Y0180502D01*
X0172620Y0180265D01*
X0172285Y0179930D01*
X0172056Y0179534D01*
X0171874Y0179974D01*
X0171100Y0180748D01*
X0171100Y0197214D01*
X0172013Y0197459D01*
X0175387Y0199407D01*
X0175387Y0199407D01*
X0178143Y0202163D01*
X0179683Y0204830D01*
X0201877Y0204830D01*
X0201308Y0204261D02*
X0179354Y0204261D01*
X0178432Y0202662D02*
X0200516Y0202662D01*
X0200051Y0201064D02*
X0177044Y0201064D01*
X0178143Y0202163D02*
X0178143Y0202163D01*
X0175446Y0199465D02*
X0200051Y0199465D01*
X0200452Y0197867D02*
X0172720Y0197867D01*
X0172013Y0197459D02*
X0172013Y0197459D01*
X0171100Y0196268D02*
X0201153Y0196268D01*
X0200467Y0194670D02*
X0171100Y0194670D01*
X0171100Y0193071D02*
X0200051Y0193071D01*
X0200051Y0191473D02*
X0171100Y0191473D01*
X0171100Y0189874D02*
X0200501Y0189874D01*
X0201272Y0188276D02*
X0171100Y0188276D01*
X0171100Y0186677D02*
X0202870Y0186677D01*
X0203060Y0185079D02*
X0171100Y0185079D01*
X0171100Y0183480D02*
X0202354Y0183480D01*
X0202251Y0182370D02*
X0202251Y0182108D01*
X0202364Y0181393D01*
X0202588Y0180705D01*
X0202917Y0180060D01*
X0203342Y0179474D01*
X0203854Y0178962D01*
X0204440Y0178536D01*
X0205085Y0178207D01*
X0205774Y0177984D01*
X0206489Y0177870D01*
X0206751Y0177870D01*
X0206751Y0182370D01*
X0202251Y0182370D01*
X0202287Y0181882D02*
X0171100Y0181882D01*
X0171565Y0180283D02*
X0172651Y0180283D01*
X0176300Y0180283D02*
X0176300Y0180283D01*
X0176300Y0180625D02*
X0176300Y0176250D01*
X0176300Y0176250D01*
X0180675Y0176250D01*
X0176300Y0176250D01*
X0176300Y0176250D01*
X0176300Y0180625D01*
X0176300Y0178685D02*
X0176300Y0178685D01*
X0176300Y0177086D02*
X0176300Y0177086D01*
X0180675Y0177086D02*
X0206588Y0177086D01*
X0206751Y0178685D02*
X0206951Y0178685D01*
X0206951Y0180283D02*
X0206751Y0180283D01*
X0206751Y0181882D02*
X0206951Y0181882D01*
X0202803Y0180283D02*
X0179949Y0180283D01*
X0180675Y0178685D02*
X0204236Y0178685D01*
X0206160Y0175488D02*
X0180675Y0175488D01*
X0180675Y0173889D02*
X0205969Y0173889D01*
X0205969Y0172291D02*
X0180036Y0172291D01*
X0166300Y0176250D02*
X0166300Y0201250D01*
X0161500Y0201250D02*
X0161500Y0180748D01*
X0161300Y0180548D01*
X0160024Y0181824D01*
X0157608Y0182825D01*
X0154992Y0182825D01*
X0152576Y0181824D01*
X0151300Y0180548D01*
X0150024Y0181824D01*
X0147608Y0182825D01*
X0144992Y0182825D01*
X0142576Y0181824D01*
X0140726Y0179974D01*
X0139725Y0177558D01*
X0139725Y0174942D01*
X0140726Y0172526D01*
X0142002Y0171250D01*
X0140598Y0171250D01*
X0140024Y0171824D01*
X0137608Y0172825D01*
X0134992Y0172825D01*
X0132576Y0171824D01*
X0132002Y0171250D01*
X0131100Y0171250D01*
X0131100Y0185984D01*
X0131305Y0187829D01*
X0131305Y0187829D01*
X0130666Y0192025D01*
X0128963Y0195912D01*
X0128963Y0195912D01*
X0126311Y0199227D01*
X0123289Y0201450D01*
X0161300Y0201450D01*
X0161331Y0201448D01*
X0161391Y0201428D01*
X0161441Y0201391D01*
X0161478Y0201341D01*
X0161498Y0201281D01*
X0161500Y0201250D01*
X0161500Y0201064D02*
X0123814Y0201064D01*
X0125987Y0199465D02*
X0161500Y0199465D01*
X0161500Y0197867D02*
X0127399Y0197867D01*
X0126311Y0199227D02*
X0126311Y0199227D01*
X0126311Y0199227D01*
X0128678Y0196268D02*
X0161500Y0196268D01*
X0161500Y0194670D02*
X0129507Y0194670D01*
X0130207Y0193071D02*
X0161500Y0193071D01*
X0161500Y0191473D02*
X0130750Y0191473D01*
X0130666Y0192025D02*
X0130666Y0192025D01*
X0130993Y0189874D02*
X0161500Y0189874D01*
X0161500Y0188276D02*
X0131237Y0188276D01*
X0131177Y0186677D02*
X0161500Y0186677D01*
X0161500Y0185079D02*
X0131100Y0185079D01*
X0131100Y0183480D02*
X0161500Y0183480D01*
X0161500Y0181882D02*
X0159884Y0181882D01*
X0152716Y0181882D02*
X0149884Y0181882D01*
X0142716Y0181882D02*
X0131100Y0181882D01*
X0131100Y0180283D02*
X0141035Y0180283D01*
X0140192Y0178685D02*
X0131100Y0178685D01*
X0131100Y0177086D02*
X0139725Y0177086D01*
X0139725Y0175488D02*
X0131100Y0175488D01*
X0131100Y0173889D02*
X0140161Y0173889D01*
X0140961Y0172291D02*
X0138897Y0172291D01*
X0133703Y0172291D02*
X0131100Y0172291D01*
X0126300Y0166250D02*
X0126300Y0186250D01*
X0121500Y0186516D02*
X0121424Y0185831D01*
X0121500Y0185569D01*
X0121500Y0171250D01*
X0120598Y0171250D01*
X0120481Y0171367D01*
X0120091Y0172820D01*
X0120091Y0172820D01*
X0118143Y0176195D01*
X0118143Y0176195D01*
X0116765Y0177573D01*
X0116167Y0178171D01*
X0093232Y0201106D01*
X0092888Y0201450D01*
X0110212Y0201450D01*
X0109643Y0200074D01*
X0109643Y0197426D01*
X0110656Y0194979D01*
X0112529Y0193106D01*
X0114976Y0192093D01*
X0117624Y0192093D01*
X0118962Y0192646D01*
X0119566Y0192202D01*
X0120629Y0190873D01*
X0121312Y0189314D01*
X0121568Y0187632D01*
X0121555Y0187336D01*
X0121500Y0187205D01*
X0121500Y0186516D01*
X0121500Y0186677D02*
X0107661Y0186677D01*
X0109259Y0185079D02*
X0121500Y0185079D01*
X0121500Y0183480D02*
X0110858Y0183480D01*
X0112456Y0181882D02*
X0121500Y0181882D01*
X0121500Y0180283D02*
X0114055Y0180283D01*
X0115653Y0178685D02*
X0121500Y0178685D01*
X0121500Y0177086D02*
X0117252Y0177086D01*
X0116765Y0177573D02*
X0116765Y0177573D01*
X0118551Y0175488D02*
X0121500Y0175488D01*
X0121500Y0173889D02*
X0119474Y0173889D01*
X0120233Y0172291D02*
X0121500Y0172291D01*
X0116300Y0167108D02*
X0116300Y0166250D01*
X0113371Y0174179D02*
X0089229Y0198321D01*
X0093274Y0201064D02*
X0110052Y0201064D01*
X0109643Y0199465D02*
X0094873Y0199465D01*
X0096471Y0197867D02*
X0109643Y0197867D01*
X0110122Y0196268D02*
X0098070Y0196268D01*
X0099668Y0194670D02*
X0110965Y0194670D01*
X0112613Y0193071D02*
X0101267Y0193071D01*
X0102865Y0191473D02*
X0120149Y0191473D01*
X0121066Y0189874D02*
X0104464Y0189874D01*
X0106062Y0188276D02*
X0121470Y0188276D01*
X0126300Y0186250D02*
X0126327Y0186522D01*
X0126347Y0186795D01*
X0126361Y0187068D01*
X0126368Y0187342D01*
X0126368Y0187615D01*
X0126362Y0187889D01*
X0126350Y0188162D01*
X0126330Y0188435D01*
X0126304Y0188707D01*
X0126272Y0188979D01*
X0126233Y0189249D01*
X0126187Y0189519D01*
X0126135Y0189788D01*
X0126077Y0190055D01*
X0126012Y0190320D01*
X0125941Y0190585D01*
X0125863Y0190847D01*
X0125779Y0191107D01*
X0125689Y0191365D01*
X0125592Y0191621D01*
X0125489Y0191875D01*
X0125381Y0192126D01*
X0125266Y0192374D01*
X0125145Y0192619D01*
X0125018Y0192862D01*
X0124886Y0193101D01*
X0124748Y0193337D01*
X0124604Y0193570D01*
X0124454Y0193799D01*
X0124299Y0194024D01*
X0124139Y0194246D01*
X0123973Y0194464D01*
X0123803Y0194677D01*
X0123627Y0194887D01*
X0123446Y0195092D01*
X0123260Y0195292D01*
X0123069Y0195488D01*
X0122874Y0195680D01*
X0122674Y0195867D01*
X0122469Y0196048D01*
X0122261Y0196225D01*
X0122048Y0196397D01*
X0121831Y0196563D01*
X0121610Y0196724D01*
X0121385Y0196880D01*
X0121156Y0197031D01*
X0120924Y0197175D01*
X0120689Y0197315D01*
X0120450Y0197448D01*
X0120208Y0197575D01*
X0119963Y0197697D01*
X0119715Y0197813D01*
X0119465Y0197923D01*
X0119211Y0198026D01*
X0118956Y0198124D01*
X0118698Y0198215D01*
X0118438Y0198300D01*
X0118176Y0198379D01*
X0117912Y0198451D01*
X0117647Y0198517D01*
X0117380Y0198577D01*
X0117112Y0198630D01*
X0116842Y0198676D01*
X0116571Y0198716D01*
X0116300Y0198750D01*
X0131615Y0211250D02*
X0080985Y0211250D01*
X0080851Y0211252D01*
X0080718Y0211258D01*
X0080584Y0211267D01*
X0080451Y0211281D01*
X0080318Y0211298D01*
X0080186Y0211319D01*
X0080055Y0211343D01*
X0079924Y0211372D01*
X0079794Y0211404D01*
X0079665Y0211440D01*
X0079537Y0211479D01*
X0079411Y0211522D01*
X0079285Y0211569D01*
X0079161Y0211620D01*
X0079039Y0211673D01*
X0078918Y0211731D01*
X0078799Y0211791D01*
X0078681Y0211856D01*
X0078566Y0211923D01*
X0078452Y0211994D01*
X0078341Y0212068D01*
X0078231Y0212145D01*
X0078124Y0212225D01*
X0078019Y0212308D01*
X0077917Y0212394D01*
X0077817Y0212483D01*
X0077720Y0212575D01*
X0077625Y0212670D01*
X0077533Y0212767D01*
X0077444Y0212867D01*
X0077358Y0212969D01*
X0077275Y0213074D01*
X0077195Y0213181D01*
X0077118Y0213291D01*
X0077044Y0213402D01*
X0076973Y0213516D01*
X0076906Y0213631D01*
X0076841Y0213749D01*
X0076781Y0213868D01*
X0076723Y0213989D01*
X0076670Y0214111D01*
X0076619Y0214235D01*
X0076572Y0214361D01*
X0076529Y0214487D01*
X0076490Y0214615D01*
X0076454Y0214744D01*
X0076422Y0214874D01*
X0076393Y0215005D01*
X0076369Y0215136D01*
X0076348Y0215268D01*
X0076331Y0215401D01*
X0076317Y0215534D01*
X0076308Y0215668D01*
X0076302Y0215801D01*
X0076300Y0215935D01*
X0070757Y0215935D01*
X0068800Y0211250D02*
X0036300Y0211250D01*
X0041300Y0206250D02*
X0046300Y0206250D01*
X0041300Y0206250D02*
X0041160Y0206248D01*
X0041020Y0206242D01*
X0040880Y0206232D01*
X0040740Y0206219D01*
X0040601Y0206201D01*
X0040462Y0206179D01*
X0040325Y0206154D01*
X0040187Y0206125D01*
X0040051Y0206092D01*
X0039916Y0206055D01*
X0039782Y0206014D01*
X0039649Y0205969D01*
X0039517Y0205921D01*
X0039387Y0205869D01*
X0039258Y0205814D01*
X0039131Y0205755D01*
X0039005Y0205692D01*
X0038881Y0205626D01*
X0038760Y0205557D01*
X0038640Y0205484D01*
X0038522Y0205407D01*
X0038407Y0205328D01*
X0038293Y0205245D01*
X0038183Y0205159D01*
X0038074Y0205070D01*
X0037968Y0204978D01*
X0037865Y0204883D01*
X0037764Y0204786D01*
X0037667Y0204685D01*
X0037572Y0204582D01*
X0037480Y0204476D01*
X0037391Y0204367D01*
X0037305Y0204257D01*
X0037222Y0204143D01*
X0037143Y0204028D01*
X0037066Y0203910D01*
X0036993Y0203790D01*
X0036924Y0203669D01*
X0036858Y0203545D01*
X0036795Y0203419D01*
X0036736Y0203292D01*
X0036681Y0203163D01*
X0036629Y0203033D01*
X0036581Y0202901D01*
X0036536Y0202768D01*
X0036495Y0202634D01*
X0036458Y0202499D01*
X0036425Y0202363D01*
X0036396Y0202225D01*
X0036371Y0202088D01*
X0036349Y0201949D01*
X0036331Y0201810D01*
X0036318Y0201670D01*
X0036308Y0201530D01*
X0036302Y0201390D01*
X0036300Y0201250D01*
X0036300Y0186250D01*
X0036303Y0186008D01*
X0036312Y0185767D01*
X0036326Y0185526D01*
X0036347Y0185285D01*
X0036373Y0185045D01*
X0036405Y0184805D01*
X0036443Y0184566D01*
X0036486Y0184329D01*
X0036536Y0184092D01*
X0036591Y0183857D01*
X0036651Y0183623D01*
X0036718Y0183391D01*
X0036789Y0183160D01*
X0036867Y0182931D01*
X0036950Y0182704D01*
X0037038Y0182479D01*
X0037132Y0182256D01*
X0037231Y0182036D01*
X0037336Y0181818D01*
X0037445Y0181603D01*
X0037560Y0181390D01*
X0037680Y0181180D01*
X0037805Y0180974D01*
X0037935Y0180770D01*
X0038070Y0180569D01*
X0038210Y0180372D01*
X0038354Y0180178D01*
X0038503Y0179988D01*
X0038657Y0179802D01*
X0038815Y0179619D01*
X0038977Y0179440D01*
X0039144Y0179265D01*
X0039315Y0179094D01*
X0039490Y0178927D01*
X0039669Y0178765D01*
X0039852Y0178607D01*
X0040038Y0178453D01*
X0040228Y0178304D01*
X0040422Y0178160D01*
X0040619Y0178020D01*
X0040820Y0177885D01*
X0041024Y0177755D01*
X0041230Y0177630D01*
X0041440Y0177510D01*
X0041653Y0177395D01*
X0041868Y0177286D01*
X0042086Y0177181D01*
X0042306Y0177082D01*
X0042529Y0176988D01*
X0042754Y0176900D01*
X0042981Y0176817D01*
X0043210Y0176739D01*
X0043441Y0176668D01*
X0043673Y0176601D01*
X0043907Y0176541D01*
X0044142Y0176486D01*
X0044379Y0176436D01*
X0044616Y0176393D01*
X0044855Y0176355D01*
X0045095Y0176323D01*
X0045335Y0176297D01*
X0045576Y0176276D01*
X0045817Y0176262D01*
X0046058Y0176253D01*
X0046300Y0176250D01*
X0072158Y0176250D01*
X0079229Y0173321D02*
X0086300Y0166250D01*
X0106300Y0166250D02*
X0106294Y0166733D01*
X0106277Y0167216D01*
X0106247Y0167699D01*
X0106207Y0168180D01*
X0106154Y0168661D01*
X0106090Y0169140D01*
X0106015Y0169617D01*
X0105927Y0170093D01*
X0105829Y0170566D01*
X0105719Y0171036D01*
X0105598Y0171504D01*
X0105465Y0171969D01*
X0105321Y0172430D01*
X0105166Y0172888D01*
X0105000Y0173342D01*
X0104823Y0173792D01*
X0104636Y0174237D01*
X0104437Y0174678D01*
X0104229Y0175114D01*
X0104009Y0175544D01*
X0103779Y0175970D01*
X0103539Y0176389D01*
X0103289Y0176803D01*
X0103029Y0177210D01*
X0102760Y0177611D01*
X0102480Y0178006D01*
X0102192Y0178393D01*
X0101893Y0178774D01*
X0101586Y0179147D01*
X0101270Y0179512D01*
X0100945Y0179870D01*
X0100612Y0180220D01*
X0100270Y0180562D01*
X0099920Y0180895D01*
X0099562Y0181220D01*
X0099197Y0181536D01*
X0098824Y0181843D01*
X0098443Y0182142D01*
X0098056Y0182430D01*
X0097661Y0182710D01*
X0097260Y0182979D01*
X0096853Y0183239D01*
X0096439Y0183489D01*
X0096020Y0183729D01*
X0095594Y0183959D01*
X0095164Y0184179D01*
X0094728Y0184387D01*
X0094287Y0184586D01*
X0093842Y0184773D01*
X0093392Y0184950D01*
X0092938Y0185116D01*
X0092480Y0185271D01*
X0092019Y0185415D01*
X0091554Y0185548D01*
X0091086Y0185669D01*
X0090616Y0185779D01*
X0090143Y0185877D01*
X0089667Y0185965D01*
X0089190Y0186040D01*
X0088711Y0186104D01*
X0088230Y0186157D01*
X0087749Y0186197D01*
X0087266Y0186227D01*
X0086783Y0186244D01*
X0086300Y0186250D01*
X0056300Y0186250D01*
X0046300Y0196250D02*
X0046302Y0196390D01*
X0046308Y0196530D01*
X0046318Y0196670D01*
X0046331Y0196810D01*
X0046349Y0196949D01*
X0046371Y0197088D01*
X0046396Y0197225D01*
X0046425Y0197363D01*
X0046458Y0197499D01*
X0046495Y0197634D01*
X0046536Y0197768D01*
X0046581Y0197901D01*
X0046629Y0198033D01*
X0046681Y0198163D01*
X0046736Y0198292D01*
X0046795Y0198419D01*
X0046858Y0198545D01*
X0046924Y0198669D01*
X0046993Y0198790D01*
X0047066Y0198910D01*
X0047143Y0199028D01*
X0047222Y0199143D01*
X0047305Y0199257D01*
X0047391Y0199367D01*
X0047480Y0199476D01*
X0047572Y0199582D01*
X0047667Y0199685D01*
X0047764Y0199786D01*
X0047865Y0199883D01*
X0047968Y0199978D01*
X0048074Y0200070D01*
X0048183Y0200159D01*
X0048293Y0200245D01*
X0048407Y0200328D01*
X0048522Y0200407D01*
X0048640Y0200484D01*
X0048760Y0200557D01*
X0048881Y0200626D01*
X0049005Y0200692D01*
X0049131Y0200755D01*
X0049258Y0200814D01*
X0049387Y0200869D01*
X0049517Y0200921D01*
X0049649Y0200969D01*
X0049782Y0201014D01*
X0049916Y0201055D01*
X0050051Y0201092D01*
X0050187Y0201125D01*
X0050325Y0201154D01*
X0050462Y0201179D01*
X0050601Y0201201D01*
X0050740Y0201219D01*
X0050880Y0201232D01*
X0051020Y0201242D01*
X0051160Y0201248D01*
X0051300Y0201250D01*
X0082158Y0201250D01*
X0073800Y0206250D02*
X0161300Y0206250D01*
X0161440Y0206248D01*
X0161580Y0206242D01*
X0161720Y0206232D01*
X0161860Y0206219D01*
X0161999Y0206201D01*
X0162138Y0206179D01*
X0162275Y0206154D01*
X0162413Y0206125D01*
X0162549Y0206092D01*
X0162684Y0206055D01*
X0162818Y0206014D01*
X0162951Y0205969D01*
X0163083Y0205921D01*
X0163213Y0205869D01*
X0163342Y0205814D01*
X0163469Y0205755D01*
X0163595Y0205692D01*
X0163719Y0205626D01*
X0163840Y0205557D01*
X0163960Y0205484D01*
X0164078Y0205407D01*
X0164193Y0205328D01*
X0164307Y0205245D01*
X0164417Y0205159D01*
X0164526Y0205070D01*
X0164632Y0204978D01*
X0164735Y0204883D01*
X0164836Y0204786D01*
X0164933Y0204685D01*
X0165028Y0204582D01*
X0165120Y0204476D01*
X0165209Y0204367D01*
X0165295Y0204257D01*
X0165378Y0204143D01*
X0165457Y0204028D01*
X0165534Y0203910D01*
X0165607Y0203790D01*
X0165676Y0203669D01*
X0165742Y0203545D01*
X0165805Y0203419D01*
X0165864Y0203292D01*
X0165919Y0203163D01*
X0165971Y0203033D01*
X0166019Y0202901D01*
X0166064Y0202768D01*
X0166105Y0202634D01*
X0166142Y0202499D01*
X0166175Y0202363D01*
X0166204Y0202225D01*
X0166229Y0202088D01*
X0166251Y0201949D01*
X0166269Y0201810D01*
X0166282Y0201670D01*
X0166292Y0201530D01*
X0166298Y0201390D01*
X0166300Y0201250D01*
X0166542Y0201253D01*
X0166783Y0201262D01*
X0167024Y0201276D01*
X0167265Y0201297D01*
X0167505Y0201323D01*
X0167745Y0201355D01*
X0167984Y0201393D01*
X0168221Y0201436D01*
X0168458Y0201486D01*
X0168693Y0201541D01*
X0168927Y0201601D01*
X0169159Y0201668D01*
X0169390Y0201739D01*
X0169619Y0201817D01*
X0169846Y0201900D01*
X0170071Y0201988D01*
X0170294Y0202082D01*
X0170514Y0202181D01*
X0170732Y0202286D01*
X0170947Y0202395D01*
X0171160Y0202510D01*
X0171370Y0202630D01*
X0171576Y0202755D01*
X0171780Y0202885D01*
X0171981Y0203020D01*
X0172178Y0203160D01*
X0172372Y0203304D01*
X0172562Y0203453D01*
X0172748Y0203607D01*
X0172931Y0203765D01*
X0173110Y0203927D01*
X0173285Y0204094D01*
X0173456Y0204265D01*
X0173623Y0204440D01*
X0173785Y0204619D01*
X0173943Y0204802D01*
X0174097Y0204988D01*
X0174246Y0205178D01*
X0174390Y0205372D01*
X0174530Y0205569D01*
X0174665Y0205770D01*
X0174795Y0205974D01*
X0174920Y0206180D01*
X0175040Y0206390D01*
X0175155Y0206603D01*
X0175264Y0206818D01*
X0175369Y0207036D01*
X0175468Y0207256D01*
X0175562Y0207479D01*
X0175650Y0207704D01*
X0175733Y0207931D01*
X0175811Y0208160D01*
X0175882Y0208391D01*
X0175949Y0208623D01*
X0176009Y0208857D01*
X0176064Y0209092D01*
X0176114Y0209329D01*
X0176157Y0209566D01*
X0176195Y0209805D01*
X0176227Y0210045D01*
X0176253Y0210285D01*
X0176274Y0210526D01*
X0176288Y0210767D01*
X0176297Y0211008D01*
X0176300Y0211250D01*
X0156300Y0215935D02*
X0156300Y0216250D01*
X0156298Y0216390D01*
X0156292Y0216530D01*
X0156282Y0216670D01*
X0156269Y0216810D01*
X0156251Y0216949D01*
X0156229Y0217088D01*
X0156204Y0217225D01*
X0156175Y0217363D01*
X0156142Y0217499D01*
X0156105Y0217634D01*
X0156064Y0217768D01*
X0156019Y0217901D01*
X0155971Y0218033D01*
X0155919Y0218163D01*
X0155864Y0218292D01*
X0155805Y0218419D01*
X0155742Y0218545D01*
X0155676Y0218669D01*
X0155607Y0218790D01*
X0155534Y0218910D01*
X0155457Y0219028D01*
X0155378Y0219143D01*
X0155295Y0219257D01*
X0155209Y0219367D01*
X0155120Y0219476D01*
X0155028Y0219582D01*
X0154933Y0219685D01*
X0154836Y0219786D01*
X0154735Y0219883D01*
X0154632Y0219978D01*
X0154526Y0220070D01*
X0154417Y0220159D01*
X0154307Y0220245D01*
X0154193Y0220328D01*
X0154078Y0220407D01*
X0153960Y0220484D01*
X0153840Y0220557D01*
X0153719Y0220626D01*
X0153595Y0220692D01*
X0153469Y0220755D01*
X0153342Y0220814D01*
X0153213Y0220869D01*
X0153083Y0220921D01*
X0152951Y0220969D01*
X0152818Y0221014D01*
X0152684Y0221055D01*
X0152549Y0221092D01*
X0152413Y0221125D01*
X0152275Y0221154D01*
X0152138Y0221179D01*
X0151999Y0221201D01*
X0151860Y0221219D01*
X0151720Y0221232D01*
X0151580Y0221242D01*
X0151440Y0221248D01*
X0151300Y0221250D01*
X0101300Y0221250D01*
X0101160Y0221248D01*
X0101020Y0221242D01*
X0100880Y0221232D01*
X0100740Y0221219D01*
X0100601Y0221201D01*
X0100462Y0221179D01*
X0100325Y0221154D01*
X0100187Y0221125D01*
X0100051Y0221092D01*
X0099916Y0221055D01*
X0099782Y0221014D01*
X0099649Y0220969D01*
X0099517Y0220921D01*
X0099387Y0220869D01*
X0099258Y0220814D01*
X0099131Y0220755D01*
X0099005Y0220692D01*
X0098881Y0220626D01*
X0098760Y0220557D01*
X0098640Y0220484D01*
X0098522Y0220407D01*
X0098407Y0220328D01*
X0098293Y0220245D01*
X0098183Y0220159D01*
X0098074Y0220070D01*
X0097968Y0219978D01*
X0097865Y0219883D01*
X0097764Y0219786D01*
X0097667Y0219685D01*
X0097572Y0219582D01*
X0097480Y0219476D01*
X0097391Y0219367D01*
X0097305Y0219257D01*
X0097222Y0219143D01*
X0097143Y0219028D01*
X0097066Y0218910D01*
X0096993Y0218790D01*
X0096924Y0218669D01*
X0096858Y0218545D01*
X0096795Y0218419D01*
X0096736Y0218292D01*
X0096681Y0218163D01*
X0096629Y0218033D01*
X0096581Y0217901D01*
X0096536Y0217768D01*
X0096495Y0217634D01*
X0096458Y0217499D01*
X0096425Y0217363D01*
X0096396Y0217225D01*
X0096371Y0217088D01*
X0096349Y0216949D01*
X0096331Y0216810D01*
X0096318Y0216670D01*
X0096308Y0216530D01*
X0096302Y0216390D01*
X0096300Y0216250D01*
X0096300Y0215935D01*
X0096300Y0216250D01*
X0096298Y0216390D01*
X0096292Y0216530D01*
X0096282Y0216670D01*
X0096269Y0216810D01*
X0096251Y0216949D01*
X0096229Y0217088D01*
X0096204Y0217225D01*
X0096175Y0217363D01*
X0096142Y0217499D01*
X0096105Y0217634D01*
X0096064Y0217768D01*
X0096019Y0217901D01*
X0095971Y0218033D01*
X0095919Y0218163D01*
X0095864Y0218292D01*
X0095805Y0218419D01*
X0095742Y0218545D01*
X0095676Y0218669D01*
X0095607Y0218790D01*
X0095534Y0218910D01*
X0095457Y0219028D01*
X0095378Y0219143D01*
X0095295Y0219257D01*
X0095209Y0219367D01*
X0095120Y0219476D01*
X0095028Y0219582D01*
X0094933Y0219685D01*
X0094836Y0219786D01*
X0094735Y0219883D01*
X0094632Y0219978D01*
X0094526Y0220070D01*
X0094417Y0220159D01*
X0094307Y0220245D01*
X0094193Y0220328D01*
X0094078Y0220407D01*
X0093960Y0220484D01*
X0093840Y0220557D01*
X0093719Y0220626D01*
X0093595Y0220692D01*
X0093469Y0220755D01*
X0093342Y0220814D01*
X0093213Y0220869D01*
X0093083Y0220921D01*
X0092951Y0220969D01*
X0092818Y0221014D01*
X0092684Y0221055D01*
X0092549Y0221092D01*
X0092413Y0221125D01*
X0092275Y0221154D01*
X0092138Y0221179D01*
X0091999Y0221201D01*
X0091860Y0221219D01*
X0091720Y0221232D01*
X0091580Y0221242D01*
X0091440Y0221248D01*
X0091300Y0221250D01*
X0071300Y0221250D01*
X0070757Y0215935D02*
X0070519Y0215938D01*
X0070281Y0215946D01*
X0070044Y0215960D01*
X0069806Y0215980D01*
X0069570Y0216006D01*
X0069334Y0216037D01*
X0069099Y0216073D01*
X0068864Y0216116D01*
X0068631Y0216164D01*
X0068399Y0216217D01*
X0068169Y0216276D01*
X0067940Y0216340D01*
X0067712Y0216410D01*
X0067486Y0216485D01*
X0067262Y0216566D01*
X0067040Y0216651D01*
X0066820Y0216742D01*
X0066603Y0216839D01*
X0066388Y0216940D01*
X0066175Y0217047D01*
X0065965Y0217158D01*
X0065757Y0217275D01*
X0065552Y0217396D01*
X0065351Y0217522D01*
X0065152Y0217654D01*
X0064956Y0217789D01*
X0064764Y0217930D01*
X0064575Y0218074D01*
X0064390Y0218224D01*
X0064208Y0218378D01*
X0064030Y0218535D01*
X0063856Y0218698D01*
X0063686Y0218864D01*
X0061300Y0221250D01*
X0051300Y0221250D01*
X0051160Y0221248D01*
X0051020Y0221242D01*
X0050880Y0221232D01*
X0050740Y0221219D01*
X0050601Y0221201D01*
X0050462Y0221179D01*
X0050325Y0221154D01*
X0050187Y0221125D01*
X0050051Y0221092D01*
X0049916Y0221055D01*
X0049782Y0221014D01*
X0049649Y0220969D01*
X0049517Y0220921D01*
X0049387Y0220869D01*
X0049258Y0220814D01*
X0049131Y0220755D01*
X0049005Y0220692D01*
X0048881Y0220626D01*
X0048760Y0220557D01*
X0048640Y0220484D01*
X0048522Y0220407D01*
X0048407Y0220328D01*
X0048293Y0220245D01*
X0048183Y0220159D01*
X0048074Y0220070D01*
X0047968Y0219978D01*
X0047865Y0219883D01*
X0047764Y0219786D01*
X0047667Y0219685D01*
X0047572Y0219582D01*
X0047480Y0219476D01*
X0047391Y0219367D01*
X0047305Y0219257D01*
X0047222Y0219143D01*
X0047143Y0219028D01*
X0047066Y0218910D01*
X0046993Y0218790D01*
X0046924Y0218669D01*
X0046858Y0218545D01*
X0046795Y0218419D01*
X0046736Y0218292D01*
X0046681Y0218163D01*
X0046629Y0218033D01*
X0046581Y0217901D01*
X0046536Y0217768D01*
X0046495Y0217634D01*
X0046458Y0217499D01*
X0046425Y0217363D01*
X0046396Y0217225D01*
X0046371Y0217088D01*
X0046349Y0216949D01*
X0046331Y0216810D01*
X0046318Y0216670D01*
X0046308Y0216530D01*
X0046302Y0216390D01*
X0046300Y0216250D01*
X0036300Y0211250D02*
X0036058Y0211253D01*
X0035817Y0211262D01*
X0035576Y0211276D01*
X0035335Y0211297D01*
X0035095Y0211323D01*
X0034855Y0211355D01*
X0034616Y0211393D01*
X0034379Y0211436D01*
X0034142Y0211486D01*
X0033907Y0211541D01*
X0033673Y0211601D01*
X0033441Y0211668D01*
X0033210Y0211739D01*
X0032981Y0211817D01*
X0032754Y0211900D01*
X0032529Y0211988D01*
X0032306Y0212082D01*
X0032086Y0212181D01*
X0031868Y0212286D01*
X0031653Y0212395D01*
X0031440Y0212510D01*
X0031230Y0212630D01*
X0031024Y0212755D01*
X0030820Y0212885D01*
X0030619Y0213020D01*
X0030422Y0213160D01*
X0030228Y0213304D01*
X0030038Y0213453D01*
X0029852Y0213607D01*
X0029669Y0213765D01*
X0029490Y0213927D01*
X0029315Y0214094D01*
X0029144Y0214265D01*
X0028977Y0214440D01*
X0028815Y0214619D01*
X0028657Y0214802D01*
X0028503Y0214988D01*
X0028354Y0215178D01*
X0028210Y0215372D01*
X0028070Y0215569D01*
X0027935Y0215770D01*
X0027805Y0215974D01*
X0027680Y0216180D01*
X0027560Y0216390D01*
X0027445Y0216603D01*
X0027336Y0216818D01*
X0027231Y0217036D01*
X0027132Y0217256D01*
X0027038Y0217479D01*
X0026950Y0217704D01*
X0026867Y0217931D01*
X0026789Y0218160D01*
X0026718Y0218391D01*
X0026651Y0218623D01*
X0026591Y0218857D01*
X0026536Y0219092D01*
X0026486Y0219329D01*
X0026443Y0219566D01*
X0026405Y0219805D01*
X0026373Y0220045D01*
X0026347Y0220285D01*
X0026326Y0220526D01*
X0026312Y0220767D01*
X0026303Y0221008D01*
X0026300Y0221250D01*
X0026300Y0226250D01*
X0068800Y0211250D02*
X0068898Y0211248D01*
X0068996Y0211242D01*
X0069094Y0211233D01*
X0069191Y0211219D01*
X0069288Y0211202D01*
X0069384Y0211181D01*
X0069479Y0211156D01*
X0069573Y0211128D01*
X0069665Y0211095D01*
X0069757Y0211060D01*
X0069847Y0211020D01*
X0069935Y0210978D01*
X0070022Y0210931D01*
X0070106Y0210882D01*
X0070189Y0210829D01*
X0070269Y0210773D01*
X0070348Y0210713D01*
X0070424Y0210651D01*
X0070497Y0210586D01*
X0070568Y0210518D01*
X0070636Y0210447D01*
X0070701Y0210374D01*
X0070763Y0210298D01*
X0070823Y0210219D01*
X0070879Y0210139D01*
X0070932Y0210056D01*
X0070981Y0209972D01*
X0071028Y0209885D01*
X0071070Y0209797D01*
X0071110Y0209707D01*
X0071145Y0209615D01*
X0071178Y0209523D01*
X0071206Y0209429D01*
X0071231Y0209334D01*
X0071252Y0209238D01*
X0071269Y0209141D01*
X0071283Y0209044D01*
X0071292Y0208946D01*
X0071298Y0208848D01*
X0071300Y0208750D01*
X0071302Y0208652D01*
X0071308Y0208554D01*
X0071317Y0208456D01*
X0071331Y0208359D01*
X0071348Y0208262D01*
X0071369Y0208166D01*
X0071394Y0208071D01*
X0071422Y0207977D01*
X0071455Y0207885D01*
X0071490Y0207793D01*
X0071530Y0207703D01*
X0071572Y0207615D01*
X0071619Y0207528D01*
X0071668Y0207444D01*
X0071721Y0207361D01*
X0071777Y0207281D01*
X0071837Y0207202D01*
X0071899Y0207126D01*
X0071964Y0207053D01*
X0072032Y0206982D01*
X0072103Y0206914D01*
X0072176Y0206849D01*
X0072252Y0206787D01*
X0072331Y0206727D01*
X0072411Y0206671D01*
X0072494Y0206618D01*
X0072578Y0206569D01*
X0072665Y0206522D01*
X0072753Y0206480D01*
X0072843Y0206440D01*
X0072935Y0206405D01*
X0073027Y0206372D01*
X0073121Y0206344D01*
X0073216Y0206319D01*
X0073312Y0206298D01*
X0073409Y0206281D01*
X0073506Y0206267D01*
X0073604Y0206258D01*
X0073702Y0206252D01*
X0073800Y0206250D01*
X0082158Y0201250D02*
X0082396Y0201247D01*
X0082634Y0201239D01*
X0082871Y0201225D01*
X0083109Y0201205D01*
X0083345Y0201179D01*
X0083581Y0201148D01*
X0083816Y0201112D01*
X0084051Y0201069D01*
X0084284Y0201021D01*
X0084516Y0200968D01*
X0084746Y0200909D01*
X0084975Y0200845D01*
X0085203Y0200775D01*
X0085429Y0200700D01*
X0085653Y0200619D01*
X0085875Y0200534D01*
X0086095Y0200443D01*
X0086312Y0200346D01*
X0086527Y0200245D01*
X0086740Y0200138D01*
X0086950Y0200027D01*
X0087158Y0199910D01*
X0087363Y0199789D01*
X0087564Y0199663D01*
X0087763Y0199531D01*
X0087959Y0199396D01*
X0088151Y0199255D01*
X0088340Y0199111D01*
X0088525Y0198961D01*
X0088707Y0198807D01*
X0088885Y0198650D01*
X0089059Y0198487D01*
X0089229Y0198321D01*
X0071300Y0221250D02*
X0071160Y0221252D01*
X0071020Y0221258D01*
X0070880Y0221268D01*
X0070740Y0221281D01*
X0070601Y0221299D01*
X0070462Y0221321D01*
X0070325Y0221346D01*
X0070187Y0221375D01*
X0070051Y0221408D01*
X0069916Y0221445D01*
X0069782Y0221486D01*
X0069649Y0221531D01*
X0069517Y0221579D01*
X0069387Y0221631D01*
X0069258Y0221686D01*
X0069131Y0221745D01*
X0069005Y0221808D01*
X0068881Y0221874D01*
X0068760Y0221943D01*
X0068640Y0222016D01*
X0068522Y0222093D01*
X0068407Y0222172D01*
X0068293Y0222255D01*
X0068183Y0222341D01*
X0068074Y0222430D01*
X0067968Y0222522D01*
X0067865Y0222617D01*
X0067764Y0222714D01*
X0067667Y0222815D01*
X0067572Y0222918D01*
X0067480Y0223024D01*
X0067391Y0223133D01*
X0067305Y0223243D01*
X0067222Y0223357D01*
X0067143Y0223472D01*
X0067066Y0223590D01*
X0066993Y0223710D01*
X0066924Y0223831D01*
X0066858Y0223955D01*
X0066795Y0224081D01*
X0066736Y0224208D01*
X0066681Y0224337D01*
X0066629Y0224467D01*
X0066581Y0224599D01*
X0066536Y0224732D01*
X0066495Y0224866D01*
X0066458Y0225001D01*
X0066425Y0225137D01*
X0066396Y0225275D01*
X0066371Y0225412D01*
X0066349Y0225551D01*
X0066331Y0225690D01*
X0066318Y0225830D01*
X0066308Y0225970D01*
X0066302Y0226110D01*
X0066300Y0226250D01*
X0131615Y0211250D02*
X0131749Y0211252D01*
X0131882Y0211258D01*
X0132016Y0211267D01*
X0132149Y0211281D01*
X0132282Y0211298D01*
X0132414Y0211319D01*
X0132545Y0211343D01*
X0132676Y0211372D01*
X0132806Y0211404D01*
X0132935Y0211440D01*
X0133063Y0211479D01*
X0133189Y0211522D01*
X0133315Y0211569D01*
X0133439Y0211620D01*
X0133561Y0211673D01*
X0133682Y0211731D01*
X0133801Y0211791D01*
X0133919Y0211856D01*
X0134034Y0211923D01*
X0134148Y0211994D01*
X0134259Y0212068D01*
X0134369Y0212145D01*
X0134476Y0212225D01*
X0134581Y0212308D01*
X0134683Y0212394D01*
X0134783Y0212483D01*
X0134880Y0212575D01*
X0134975Y0212670D01*
X0135067Y0212767D01*
X0135156Y0212867D01*
X0135242Y0212969D01*
X0135325Y0213074D01*
X0135405Y0213181D01*
X0135482Y0213291D01*
X0135556Y0213402D01*
X0135627Y0213516D01*
X0135694Y0213631D01*
X0135759Y0213749D01*
X0135819Y0213868D01*
X0135877Y0213989D01*
X0135930Y0214111D01*
X0135981Y0214235D01*
X0136028Y0214361D01*
X0136071Y0214487D01*
X0136110Y0214615D01*
X0136146Y0214744D01*
X0136178Y0214874D01*
X0136207Y0215005D01*
X0136231Y0215136D01*
X0136252Y0215268D01*
X0136269Y0215401D01*
X0136283Y0215534D01*
X0136292Y0215668D01*
X0136298Y0215801D01*
X0136300Y0215935D01*
X0140713Y0211050D02*
X0141874Y0212211D01*
X0142508Y0213741D01*
X0142558Y0213642D01*
X0142963Y0213085D01*
X0143450Y0212598D01*
X0144007Y0212193D01*
X0144621Y0211881D01*
X0145276Y0211668D01*
X0145956Y0211560D01*
X0146300Y0211560D01*
X0146644Y0211560D01*
X0147324Y0211668D01*
X0147979Y0211881D01*
X0148593Y0212193D01*
X0149150Y0212598D01*
X0149637Y0213085D01*
X0150042Y0213642D01*
X0150092Y0213741D01*
X0150726Y0212211D01*
X0151887Y0211050D01*
X0140713Y0211050D01*
X0141892Y0212253D02*
X0143924Y0212253D01*
X0146300Y0212253D02*
X0146300Y0212253D01*
X0146300Y0211560D02*
X0146300Y0215935D01*
X0146300Y0215935D01*
X0146300Y0211560D01*
X0146300Y0213852D02*
X0146300Y0213852D01*
X0146300Y0215451D02*
X0146300Y0215451D01*
X0148676Y0212253D02*
X0150708Y0212253D01*
X0113371Y0174179D02*
X0113537Y0174009D01*
X0113700Y0173835D01*
X0113857Y0173657D01*
X0114011Y0173475D01*
X0114161Y0173290D01*
X0114305Y0173101D01*
X0114446Y0172909D01*
X0114581Y0172713D01*
X0114713Y0172514D01*
X0114839Y0172313D01*
X0114960Y0172108D01*
X0115077Y0171900D01*
X0115188Y0171690D01*
X0115295Y0171477D01*
X0115396Y0171262D01*
X0115493Y0171045D01*
X0115584Y0170825D01*
X0115669Y0170603D01*
X0115750Y0170379D01*
X0115825Y0170153D01*
X0115895Y0169925D01*
X0115959Y0169696D01*
X0116018Y0169466D01*
X0116071Y0169234D01*
X0116119Y0169001D01*
X0116162Y0168766D01*
X0116198Y0168531D01*
X0116229Y0168295D01*
X0116255Y0168059D01*
X0116275Y0167821D01*
X0116289Y0167584D01*
X0116297Y0167346D01*
X0116300Y0167108D01*
X0101300Y0141250D02*
X0151300Y0141250D01*
X0151440Y0141248D01*
X0151580Y0141242D01*
X0151720Y0141232D01*
X0151860Y0141219D01*
X0151999Y0141201D01*
X0152138Y0141179D01*
X0152275Y0141154D01*
X0152413Y0141125D01*
X0152549Y0141092D01*
X0152684Y0141055D01*
X0152818Y0141014D01*
X0152951Y0140969D01*
X0153083Y0140921D01*
X0153213Y0140869D01*
X0153342Y0140814D01*
X0153469Y0140755D01*
X0153595Y0140692D01*
X0153719Y0140626D01*
X0153840Y0140557D01*
X0153960Y0140484D01*
X0154078Y0140407D01*
X0154193Y0140328D01*
X0154307Y0140245D01*
X0154417Y0140159D01*
X0154526Y0140070D01*
X0154632Y0139978D01*
X0154735Y0139883D01*
X0154836Y0139786D01*
X0154933Y0139685D01*
X0155028Y0139582D01*
X0155120Y0139476D01*
X0155209Y0139367D01*
X0155295Y0139257D01*
X0155378Y0139143D01*
X0155457Y0139028D01*
X0155534Y0138910D01*
X0155607Y0138790D01*
X0155676Y0138669D01*
X0155742Y0138545D01*
X0155805Y0138419D01*
X0155864Y0138292D01*
X0155919Y0138163D01*
X0155971Y0138033D01*
X0156019Y0137901D01*
X0156064Y0137768D01*
X0156105Y0137634D01*
X0156142Y0137499D01*
X0156175Y0137363D01*
X0156204Y0137225D01*
X0156229Y0137088D01*
X0156251Y0136949D01*
X0156269Y0136810D01*
X0156282Y0136670D01*
X0156292Y0136530D01*
X0156298Y0136390D01*
X0156300Y0136250D01*
X0156300Y0135935D01*
X0151887Y0131050D02*
X0140713Y0131050D01*
X0141874Y0132211D01*
X0142508Y0133741D01*
X0142558Y0133642D01*
X0142963Y0133085D01*
X0143450Y0132598D01*
X0144007Y0132193D01*
X0144621Y0131881D01*
X0145276Y0131668D01*
X0145956Y0131560D01*
X0146300Y0131560D01*
X0146644Y0131560D01*
X0147324Y0131668D01*
X0147979Y0131881D01*
X0148593Y0132193D01*
X0149150Y0132598D01*
X0149637Y0133085D01*
X0150042Y0133642D01*
X0150092Y0133741D01*
X0150726Y0132211D01*
X0151887Y0131050D01*
X0150678Y0132328D02*
X0148778Y0132328D01*
X0146300Y0132328D02*
X0146300Y0132328D01*
X0146300Y0131560D02*
X0146300Y0135935D01*
X0146300Y0135935D01*
X0146300Y0131560D01*
X0146300Y0133926D02*
X0146300Y0133926D01*
X0146300Y0135525D02*
X0146300Y0135525D01*
X0143822Y0132328D02*
X0141922Y0132328D01*
X0131615Y0131250D02*
X0080985Y0131250D01*
X0080851Y0131252D01*
X0080718Y0131258D01*
X0080584Y0131267D01*
X0080451Y0131281D01*
X0080318Y0131298D01*
X0080186Y0131319D01*
X0080055Y0131343D01*
X0079924Y0131372D01*
X0079794Y0131404D01*
X0079665Y0131440D01*
X0079537Y0131479D01*
X0079411Y0131522D01*
X0079285Y0131569D01*
X0079161Y0131620D01*
X0079039Y0131673D01*
X0078918Y0131731D01*
X0078799Y0131791D01*
X0078681Y0131856D01*
X0078566Y0131923D01*
X0078452Y0131994D01*
X0078341Y0132068D01*
X0078231Y0132145D01*
X0078124Y0132225D01*
X0078019Y0132308D01*
X0077917Y0132394D01*
X0077817Y0132483D01*
X0077720Y0132575D01*
X0077625Y0132670D01*
X0077533Y0132767D01*
X0077444Y0132867D01*
X0077358Y0132969D01*
X0077275Y0133074D01*
X0077195Y0133181D01*
X0077118Y0133291D01*
X0077044Y0133402D01*
X0076973Y0133516D01*
X0076906Y0133631D01*
X0076841Y0133749D01*
X0076781Y0133868D01*
X0076723Y0133989D01*
X0076670Y0134111D01*
X0076619Y0134235D01*
X0076572Y0134361D01*
X0076529Y0134487D01*
X0076490Y0134615D01*
X0076454Y0134744D01*
X0076422Y0134874D01*
X0076393Y0135005D01*
X0076369Y0135136D01*
X0076348Y0135268D01*
X0076331Y0135401D01*
X0076317Y0135534D01*
X0076308Y0135668D01*
X0076302Y0135801D01*
X0076300Y0135935D01*
X0070757Y0135935D01*
X0068800Y0131250D02*
X0036300Y0131250D01*
X0041300Y0126250D02*
X0046300Y0126250D01*
X0041300Y0126250D02*
X0041160Y0126248D01*
X0041020Y0126242D01*
X0040880Y0126232D01*
X0040740Y0126219D01*
X0040601Y0126201D01*
X0040462Y0126179D01*
X0040325Y0126154D01*
X0040187Y0126125D01*
X0040051Y0126092D01*
X0039916Y0126055D01*
X0039782Y0126014D01*
X0039649Y0125969D01*
X0039517Y0125921D01*
X0039387Y0125869D01*
X0039258Y0125814D01*
X0039131Y0125755D01*
X0039005Y0125692D01*
X0038881Y0125626D01*
X0038760Y0125557D01*
X0038640Y0125484D01*
X0038522Y0125407D01*
X0038407Y0125328D01*
X0038293Y0125245D01*
X0038183Y0125159D01*
X0038074Y0125070D01*
X0037968Y0124978D01*
X0037865Y0124883D01*
X0037764Y0124786D01*
X0037667Y0124685D01*
X0037572Y0124582D01*
X0037480Y0124476D01*
X0037391Y0124367D01*
X0037305Y0124257D01*
X0037222Y0124143D01*
X0037143Y0124028D01*
X0037066Y0123910D01*
X0036993Y0123790D01*
X0036924Y0123669D01*
X0036858Y0123545D01*
X0036795Y0123419D01*
X0036736Y0123292D01*
X0036681Y0123163D01*
X0036629Y0123033D01*
X0036581Y0122901D01*
X0036536Y0122768D01*
X0036495Y0122634D01*
X0036458Y0122499D01*
X0036425Y0122363D01*
X0036396Y0122225D01*
X0036371Y0122088D01*
X0036349Y0121949D01*
X0036331Y0121810D01*
X0036318Y0121670D01*
X0036308Y0121530D01*
X0036302Y0121390D01*
X0036300Y0121250D01*
X0036300Y0106250D01*
X0036303Y0106008D01*
X0036312Y0105767D01*
X0036326Y0105526D01*
X0036347Y0105285D01*
X0036373Y0105045D01*
X0036405Y0104805D01*
X0036443Y0104566D01*
X0036486Y0104329D01*
X0036536Y0104092D01*
X0036591Y0103857D01*
X0036651Y0103623D01*
X0036718Y0103391D01*
X0036789Y0103160D01*
X0036867Y0102931D01*
X0036950Y0102704D01*
X0037038Y0102479D01*
X0037132Y0102256D01*
X0037231Y0102036D01*
X0037336Y0101818D01*
X0037445Y0101603D01*
X0037560Y0101390D01*
X0037680Y0101180D01*
X0037805Y0100974D01*
X0037935Y0100770D01*
X0038070Y0100569D01*
X0038210Y0100372D01*
X0038354Y0100178D01*
X0038503Y0099988D01*
X0038657Y0099802D01*
X0038815Y0099619D01*
X0038977Y0099440D01*
X0039144Y0099265D01*
X0039315Y0099094D01*
X0039490Y0098927D01*
X0039669Y0098765D01*
X0039852Y0098607D01*
X0040038Y0098453D01*
X0040228Y0098304D01*
X0040422Y0098160D01*
X0040619Y0098020D01*
X0040820Y0097885D01*
X0041024Y0097755D01*
X0041230Y0097630D01*
X0041440Y0097510D01*
X0041653Y0097395D01*
X0041868Y0097286D01*
X0042086Y0097181D01*
X0042306Y0097082D01*
X0042529Y0096988D01*
X0042754Y0096900D01*
X0042981Y0096817D01*
X0043210Y0096739D01*
X0043441Y0096668D01*
X0043673Y0096601D01*
X0043907Y0096541D01*
X0044142Y0096486D01*
X0044379Y0096436D01*
X0044616Y0096393D01*
X0044855Y0096355D01*
X0045095Y0096323D01*
X0045335Y0096297D01*
X0045576Y0096276D01*
X0045817Y0096262D01*
X0046058Y0096253D01*
X0046300Y0096250D01*
X0072158Y0096250D01*
X0079229Y0093321D02*
X0086300Y0086250D01*
X0106300Y0086250D02*
X0106294Y0086733D01*
X0106277Y0087216D01*
X0106247Y0087699D01*
X0106207Y0088180D01*
X0106154Y0088661D01*
X0106090Y0089140D01*
X0106015Y0089617D01*
X0105927Y0090093D01*
X0105829Y0090566D01*
X0105719Y0091036D01*
X0105598Y0091504D01*
X0105465Y0091969D01*
X0105321Y0092430D01*
X0105166Y0092888D01*
X0105000Y0093342D01*
X0104823Y0093792D01*
X0104636Y0094237D01*
X0104437Y0094678D01*
X0104229Y0095114D01*
X0104009Y0095544D01*
X0103779Y0095970D01*
X0103539Y0096389D01*
X0103289Y0096803D01*
X0103029Y0097210D01*
X0102760Y0097611D01*
X0102480Y0098006D01*
X0102192Y0098393D01*
X0101893Y0098774D01*
X0101586Y0099147D01*
X0101270Y0099512D01*
X0100945Y0099870D01*
X0100612Y0100220D01*
X0100270Y0100562D01*
X0099920Y0100895D01*
X0099562Y0101220D01*
X0099197Y0101536D01*
X0098824Y0101843D01*
X0098443Y0102142D01*
X0098056Y0102430D01*
X0097661Y0102710D01*
X0097260Y0102979D01*
X0096853Y0103239D01*
X0096439Y0103489D01*
X0096020Y0103729D01*
X0095594Y0103959D01*
X0095164Y0104179D01*
X0094728Y0104387D01*
X0094287Y0104586D01*
X0093842Y0104773D01*
X0093392Y0104950D01*
X0092938Y0105116D01*
X0092480Y0105271D01*
X0092019Y0105415D01*
X0091554Y0105548D01*
X0091086Y0105669D01*
X0090616Y0105779D01*
X0090143Y0105877D01*
X0089667Y0105965D01*
X0089190Y0106040D01*
X0088711Y0106104D01*
X0088230Y0106157D01*
X0087749Y0106197D01*
X0087266Y0106227D01*
X0086783Y0106244D01*
X0086300Y0106250D01*
X0056300Y0106250D01*
X0046300Y0116250D02*
X0046302Y0116390D01*
X0046308Y0116530D01*
X0046318Y0116670D01*
X0046331Y0116810D01*
X0046349Y0116949D01*
X0046371Y0117088D01*
X0046396Y0117225D01*
X0046425Y0117363D01*
X0046458Y0117499D01*
X0046495Y0117634D01*
X0046536Y0117768D01*
X0046581Y0117901D01*
X0046629Y0118033D01*
X0046681Y0118163D01*
X0046736Y0118292D01*
X0046795Y0118419D01*
X0046858Y0118545D01*
X0046924Y0118669D01*
X0046993Y0118790D01*
X0047066Y0118910D01*
X0047143Y0119028D01*
X0047222Y0119143D01*
X0047305Y0119257D01*
X0047391Y0119367D01*
X0047480Y0119476D01*
X0047572Y0119582D01*
X0047667Y0119685D01*
X0047764Y0119786D01*
X0047865Y0119883D01*
X0047968Y0119978D01*
X0048074Y0120070D01*
X0048183Y0120159D01*
X0048293Y0120245D01*
X0048407Y0120328D01*
X0048522Y0120407D01*
X0048640Y0120484D01*
X0048760Y0120557D01*
X0048881Y0120626D01*
X0049005Y0120692D01*
X0049131Y0120755D01*
X0049258Y0120814D01*
X0049387Y0120869D01*
X0049517Y0120921D01*
X0049649Y0120969D01*
X0049782Y0121014D01*
X0049916Y0121055D01*
X0050051Y0121092D01*
X0050187Y0121125D01*
X0050325Y0121154D01*
X0050462Y0121179D01*
X0050601Y0121201D01*
X0050740Y0121219D01*
X0050880Y0121232D01*
X0051020Y0121242D01*
X0051160Y0121248D01*
X0051300Y0121250D01*
X0082158Y0121250D01*
X0089229Y0118321D02*
X0113371Y0094179D01*
X0116765Y0097573D02*
X0116765Y0097573D01*
X0116163Y0098175D01*
X0093235Y0121103D01*
X0092888Y0121450D01*
X0110212Y0121450D01*
X0109643Y0120074D01*
X0109643Y0117426D01*
X0110656Y0114979D01*
X0112529Y0113106D01*
X0114976Y0112093D01*
X0117624Y0112093D01*
X0118962Y0112646D01*
X0119566Y0112202D01*
X0120629Y0110873D01*
X0121312Y0109314D01*
X0121568Y0107632D01*
X0121555Y0107336D01*
X0121500Y0107205D01*
X0121500Y0106516D01*
X0121424Y0105831D01*
X0121500Y0105569D01*
X0121500Y0091250D01*
X0120598Y0091250D01*
X0120481Y0091367D01*
X0120091Y0092820D01*
X0120091Y0092820D01*
X0118143Y0096195D01*
X0116765Y0097573D01*
X0117178Y0097161D02*
X0121500Y0097161D01*
X0121500Y0098759D02*
X0115579Y0098759D01*
X0113980Y0100358D02*
X0121500Y0100358D01*
X0121500Y0101956D02*
X0112382Y0101956D01*
X0110783Y0103555D02*
X0121500Y0103555D01*
X0121500Y0105153D02*
X0109185Y0105153D01*
X0107586Y0106752D02*
X0121500Y0106752D01*
X0121458Y0108350D02*
X0105988Y0108350D01*
X0104389Y0109949D02*
X0121034Y0109949D01*
X0120089Y0111547D02*
X0102791Y0111547D01*
X0101192Y0113146D02*
X0112489Y0113146D01*
X0110891Y0114744D02*
X0099594Y0114744D01*
X0097995Y0116343D02*
X0110091Y0116343D01*
X0109643Y0117941D02*
X0096397Y0117941D01*
X0094798Y0119540D02*
X0109643Y0119540D01*
X0110083Y0121138D02*
X0093200Y0121138D01*
X0089229Y0118321D02*
X0089059Y0118487D01*
X0088885Y0118650D01*
X0088707Y0118807D01*
X0088525Y0118961D01*
X0088340Y0119111D01*
X0088151Y0119255D01*
X0087959Y0119396D01*
X0087763Y0119531D01*
X0087564Y0119663D01*
X0087363Y0119789D01*
X0087158Y0119910D01*
X0086950Y0120027D01*
X0086740Y0120138D01*
X0086527Y0120245D01*
X0086312Y0120346D01*
X0086095Y0120443D01*
X0085875Y0120534D01*
X0085653Y0120619D01*
X0085429Y0120700D01*
X0085203Y0120775D01*
X0084975Y0120845D01*
X0084746Y0120909D01*
X0084516Y0120968D01*
X0084284Y0121021D01*
X0084051Y0121069D01*
X0083816Y0121112D01*
X0083581Y0121148D01*
X0083345Y0121179D01*
X0083109Y0121205D01*
X0082871Y0121225D01*
X0082634Y0121239D01*
X0082396Y0121247D01*
X0082158Y0121250D01*
X0073800Y0126250D02*
X0161300Y0126250D01*
X0161300Y0121450D02*
X0161331Y0121448D01*
X0161391Y0121428D01*
X0161441Y0121391D01*
X0161478Y0121341D01*
X0161498Y0121281D01*
X0161500Y0121250D01*
X0161500Y0100748D01*
X0161300Y0100548D01*
X0160024Y0101824D01*
X0157608Y0102825D01*
X0154992Y0102825D01*
X0152576Y0101824D01*
X0151300Y0100548D01*
X0150024Y0101824D01*
X0147608Y0102825D01*
X0144992Y0102825D01*
X0142576Y0101824D01*
X0140726Y0099974D01*
X0139725Y0097558D01*
X0139725Y0094942D01*
X0140726Y0092526D01*
X0142002Y0091250D01*
X0140598Y0091250D01*
X0140024Y0091824D01*
X0137608Y0092825D01*
X0134992Y0092825D01*
X0132576Y0091824D01*
X0132002Y0091250D01*
X0131100Y0091250D01*
X0131100Y0105984D01*
X0131305Y0107829D01*
X0131305Y0107829D01*
X0130666Y0112025D01*
X0128963Y0115912D01*
X0128963Y0115912D01*
X0126311Y0119227D01*
X0123289Y0121450D01*
X0161300Y0121450D01*
X0161300Y0126250D02*
X0161440Y0126248D01*
X0161580Y0126242D01*
X0161720Y0126232D01*
X0161860Y0126219D01*
X0161999Y0126201D01*
X0162138Y0126179D01*
X0162275Y0126154D01*
X0162413Y0126125D01*
X0162549Y0126092D01*
X0162684Y0126055D01*
X0162818Y0126014D01*
X0162951Y0125969D01*
X0163083Y0125921D01*
X0163213Y0125869D01*
X0163342Y0125814D01*
X0163469Y0125755D01*
X0163595Y0125692D01*
X0163719Y0125626D01*
X0163840Y0125557D01*
X0163960Y0125484D01*
X0164078Y0125407D01*
X0164193Y0125328D01*
X0164307Y0125245D01*
X0164417Y0125159D01*
X0164526Y0125070D01*
X0164632Y0124978D01*
X0164735Y0124883D01*
X0164836Y0124786D01*
X0164933Y0124685D01*
X0165028Y0124582D01*
X0165120Y0124476D01*
X0165209Y0124367D01*
X0165295Y0124257D01*
X0165378Y0124143D01*
X0165457Y0124028D01*
X0165534Y0123910D01*
X0165607Y0123790D01*
X0165676Y0123669D01*
X0165742Y0123545D01*
X0165805Y0123419D01*
X0165864Y0123292D01*
X0165919Y0123163D01*
X0165971Y0123033D01*
X0166019Y0122901D01*
X0166064Y0122768D01*
X0166105Y0122634D01*
X0166142Y0122499D01*
X0166175Y0122363D01*
X0166204Y0122225D01*
X0166229Y0122088D01*
X0166251Y0121949D01*
X0166269Y0121810D01*
X0166282Y0121670D01*
X0166292Y0121530D01*
X0166298Y0121390D01*
X0166300Y0121250D01*
X0166300Y0096250D01*
X0171100Y0100748D02*
X0171100Y0117214D01*
X0172013Y0117459D01*
X0175387Y0119407D01*
X0175387Y0119407D01*
X0178143Y0122163D01*
X0179683Y0124830D01*
X0201877Y0124830D01*
X0201086Y0124039D01*
X0200051Y0121540D01*
X0200051Y0118834D01*
X0201086Y0116335D01*
X0201172Y0116250D01*
X0201086Y0116165D01*
X0200051Y0113666D01*
X0200051Y0110960D01*
X0201086Y0108461D01*
X0202999Y0106548D01*
X0204043Y0106116D01*
X0203854Y0105979D01*
X0203342Y0105467D01*
X0202917Y0104881D01*
X0202588Y0104236D01*
X0202364Y0103548D01*
X0202251Y0102833D01*
X0202251Y0102570D01*
X0206751Y0102570D01*
X0206751Y0102370D01*
X0206951Y0102370D01*
X0206951Y0097884D01*
X0206673Y0097403D01*
X0205969Y0094775D01*
X0205969Y0092055D01*
X0206185Y0091250D01*
X0180598Y0091250D01*
X0180024Y0091824D01*
X0179584Y0092006D01*
X0179980Y0092235D01*
X0180315Y0092570D01*
X0180552Y0092980D01*
X0180675Y0093438D01*
X0180675Y0096250D01*
X0180675Y0099062D01*
X0180552Y0099520D01*
X0180315Y0099930D01*
X0179980Y0100265D01*
X0179570Y0100502D01*
X0179112Y0100625D01*
X0176300Y0100625D01*
X0173488Y0100625D01*
X0173030Y0100502D01*
X0172620Y0100265D01*
X0172285Y0099930D01*
X0172056Y0099534D01*
X0171874Y0099974D01*
X0171100Y0100748D01*
X0171490Y0100358D02*
X0172780Y0100358D01*
X0171100Y0101956D02*
X0202275Y0101956D01*
X0202251Y0102108D02*
X0202364Y0101393D01*
X0202588Y0100705D01*
X0202917Y0100060D01*
X0203342Y0099474D01*
X0203854Y0098962D01*
X0204440Y0098536D01*
X0205085Y0098207D01*
X0205774Y0097984D01*
X0206489Y0097870D01*
X0206751Y0097870D01*
X0206751Y0102370D01*
X0202251Y0102370D01*
X0202251Y0102108D01*
X0202367Y0103555D02*
X0171100Y0103555D01*
X0171100Y0105153D02*
X0203114Y0105153D01*
X0202796Y0106752D02*
X0171100Y0106752D01*
X0171100Y0108350D02*
X0201197Y0108350D01*
X0200470Y0109949D02*
X0171100Y0109949D01*
X0171100Y0111547D02*
X0200051Y0111547D01*
X0200051Y0113146D02*
X0171100Y0113146D01*
X0171100Y0114744D02*
X0200498Y0114744D01*
X0201083Y0116343D02*
X0171100Y0116343D01*
X0172013Y0117459D02*
X0172013Y0117459D01*
X0172849Y0117941D02*
X0200421Y0117941D01*
X0200051Y0119540D02*
X0175520Y0119540D01*
X0177119Y0121138D02*
X0200051Y0121138D01*
X0200547Y0122737D02*
X0178474Y0122737D01*
X0178143Y0122163D02*
X0178143Y0122163D01*
X0179397Y0124335D02*
X0201383Y0124335D01*
X0200675Y0135230D02*
X0200675Y0136250D01*
X0200675Y0139062D01*
X0200552Y0139520D01*
X0200315Y0139930D01*
X0199980Y0140265D01*
X0199584Y0140494D01*
X0200024Y0140676D01*
X0200598Y0141250D01*
X0206185Y0141250D01*
X0205969Y0140445D01*
X0205969Y0137725D01*
X0206209Y0136830D01*
X0205499Y0136830D01*
X0202999Y0135794D01*
X0202435Y0135230D01*
X0200675Y0135230D01*
X0200675Y0135525D02*
X0202730Y0135525D01*
X0200675Y0136250D02*
X0196300Y0136250D01*
X0200675Y0136250D01*
X0200675Y0137123D02*
X0206130Y0137123D01*
X0205969Y0138722D02*
X0200675Y0138722D01*
X0199884Y0140320D02*
X0205969Y0140320D01*
X0196300Y0136250D02*
X0196300Y0136250D01*
X0176300Y0131250D02*
X0176297Y0131008D01*
X0176288Y0130767D01*
X0176274Y0130526D01*
X0176253Y0130285D01*
X0176227Y0130045D01*
X0176195Y0129805D01*
X0176157Y0129566D01*
X0176114Y0129329D01*
X0176064Y0129092D01*
X0176009Y0128857D01*
X0175949Y0128623D01*
X0175882Y0128391D01*
X0175811Y0128160D01*
X0175733Y0127931D01*
X0175650Y0127704D01*
X0175562Y0127479D01*
X0175468Y0127256D01*
X0175369Y0127036D01*
X0175264Y0126818D01*
X0175155Y0126603D01*
X0175040Y0126390D01*
X0174920Y0126180D01*
X0174795Y0125974D01*
X0174665Y0125770D01*
X0174530Y0125569D01*
X0174390Y0125372D01*
X0174246Y0125178D01*
X0174097Y0124988D01*
X0173943Y0124802D01*
X0173785Y0124619D01*
X0173623Y0124440D01*
X0173456Y0124265D01*
X0173285Y0124094D01*
X0173110Y0123927D01*
X0172931Y0123765D01*
X0172748Y0123607D01*
X0172562Y0123453D01*
X0172372Y0123304D01*
X0172178Y0123160D01*
X0171981Y0123020D01*
X0171780Y0122885D01*
X0171576Y0122755D01*
X0171370Y0122630D01*
X0171160Y0122510D01*
X0170947Y0122395D01*
X0170732Y0122286D01*
X0170514Y0122181D01*
X0170294Y0122082D01*
X0170071Y0121988D01*
X0169846Y0121900D01*
X0169619Y0121817D01*
X0169390Y0121739D01*
X0169159Y0121668D01*
X0168927Y0121601D01*
X0168693Y0121541D01*
X0168458Y0121486D01*
X0168221Y0121436D01*
X0167984Y0121393D01*
X0167745Y0121355D01*
X0167505Y0121323D01*
X0167265Y0121297D01*
X0167024Y0121276D01*
X0166783Y0121262D01*
X0166542Y0121253D01*
X0166300Y0121250D01*
X0161500Y0121138D02*
X0123713Y0121138D01*
X0125886Y0119540D02*
X0161500Y0119540D01*
X0161500Y0117941D02*
X0127340Y0117941D01*
X0126311Y0119227D02*
X0126311Y0119227D01*
X0126311Y0119227D01*
X0128618Y0116343D02*
X0161500Y0116343D01*
X0161500Y0114744D02*
X0129475Y0114744D01*
X0130175Y0113146D02*
X0161500Y0113146D01*
X0161500Y0111547D02*
X0130739Y0111547D01*
X0130666Y0112025D02*
X0130666Y0112025D01*
X0130982Y0109949D02*
X0161500Y0109949D01*
X0161500Y0108350D02*
X0131226Y0108350D01*
X0131185Y0106752D02*
X0161500Y0106752D01*
X0161500Y0105153D02*
X0131100Y0105153D01*
X0131100Y0103555D02*
X0161500Y0103555D01*
X0161500Y0101956D02*
X0159705Y0101956D01*
X0152895Y0101956D02*
X0149705Y0101956D01*
X0142895Y0101956D02*
X0131100Y0101956D01*
X0131100Y0100358D02*
X0141110Y0100358D01*
X0140223Y0098759D02*
X0131100Y0098759D01*
X0131100Y0097161D02*
X0139725Y0097161D01*
X0139725Y0095562D02*
X0131100Y0095562D01*
X0131100Y0093964D02*
X0140130Y0093964D01*
X0140887Y0092365D02*
X0138718Y0092365D01*
X0133882Y0092365D02*
X0131100Y0092365D01*
X0126300Y0086250D02*
X0126300Y0106250D01*
X0126327Y0106522D01*
X0126347Y0106795D01*
X0126361Y0107068D01*
X0126368Y0107342D01*
X0126368Y0107615D01*
X0126362Y0107889D01*
X0126350Y0108162D01*
X0126330Y0108435D01*
X0126304Y0108707D01*
X0126272Y0108979D01*
X0126233Y0109249D01*
X0126187Y0109519D01*
X0126135Y0109788D01*
X0126077Y0110055D01*
X0126012Y0110320D01*
X0125941Y0110585D01*
X0125863Y0110847D01*
X0125779Y0111107D01*
X0125689Y0111365D01*
X0125592Y0111621D01*
X0125489Y0111875D01*
X0125381Y0112126D01*
X0125266Y0112374D01*
X0125145Y0112619D01*
X0125018Y0112862D01*
X0124886Y0113101D01*
X0124748Y0113337D01*
X0124604Y0113570D01*
X0124454Y0113799D01*
X0124299Y0114024D01*
X0124139Y0114246D01*
X0123973Y0114464D01*
X0123803Y0114677D01*
X0123627Y0114887D01*
X0123446Y0115092D01*
X0123260Y0115292D01*
X0123069Y0115488D01*
X0122874Y0115680D01*
X0122674Y0115867D01*
X0122469Y0116048D01*
X0122261Y0116225D01*
X0122048Y0116397D01*
X0121831Y0116563D01*
X0121610Y0116724D01*
X0121385Y0116880D01*
X0121156Y0117031D01*
X0120924Y0117175D01*
X0120689Y0117315D01*
X0120450Y0117448D01*
X0120208Y0117575D01*
X0119963Y0117697D01*
X0119715Y0117813D01*
X0119465Y0117923D01*
X0119211Y0118026D01*
X0118956Y0118124D01*
X0118698Y0118215D01*
X0118438Y0118300D01*
X0118176Y0118379D01*
X0117912Y0118451D01*
X0117647Y0118517D01*
X0117380Y0118577D01*
X0117112Y0118630D01*
X0116842Y0118676D01*
X0116571Y0118716D01*
X0116300Y0118750D01*
X0131615Y0131250D02*
X0131749Y0131252D01*
X0131882Y0131258D01*
X0132016Y0131267D01*
X0132149Y0131281D01*
X0132282Y0131298D01*
X0132414Y0131319D01*
X0132545Y0131343D01*
X0132676Y0131372D01*
X0132806Y0131404D01*
X0132935Y0131440D01*
X0133063Y0131479D01*
X0133189Y0131522D01*
X0133315Y0131569D01*
X0133439Y0131620D01*
X0133561Y0131673D01*
X0133682Y0131731D01*
X0133801Y0131791D01*
X0133919Y0131856D01*
X0134034Y0131923D01*
X0134148Y0131994D01*
X0134259Y0132068D01*
X0134369Y0132145D01*
X0134476Y0132225D01*
X0134581Y0132308D01*
X0134683Y0132394D01*
X0134783Y0132483D01*
X0134880Y0132575D01*
X0134975Y0132670D01*
X0135067Y0132767D01*
X0135156Y0132867D01*
X0135242Y0132969D01*
X0135325Y0133074D01*
X0135405Y0133181D01*
X0135482Y0133291D01*
X0135556Y0133402D01*
X0135627Y0133516D01*
X0135694Y0133631D01*
X0135759Y0133749D01*
X0135819Y0133868D01*
X0135877Y0133989D01*
X0135930Y0134111D01*
X0135981Y0134235D01*
X0136028Y0134361D01*
X0136071Y0134487D01*
X0136110Y0134615D01*
X0136146Y0134744D01*
X0136178Y0134874D01*
X0136207Y0135005D01*
X0136231Y0135136D01*
X0136252Y0135268D01*
X0136269Y0135401D01*
X0136283Y0135534D01*
X0136292Y0135668D01*
X0136298Y0135801D01*
X0136300Y0135935D01*
X0101300Y0141250D02*
X0101160Y0141248D01*
X0101020Y0141242D01*
X0100880Y0141232D01*
X0100740Y0141219D01*
X0100601Y0141201D01*
X0100462Y0141179D01*
X0100325Y0141154D01*
X0100187Y0141125D01*
X0100051Y0141092D01*
X0099916Y0141055D01*
X0099782Y0141014D01*
X0099649Y0140969D01*
X0099517Y0140921D01*
X0099387Y0140869D01*
X0099258Y0140814D01*
X0099131Y0140755D01*
X0099005Y0140692D01*
X0098881Y0140626D01*
X0098760Y0140557D01*
X0098640Y0140484D01*
X0098522Y0140407D01*
X0098407Y0140328D01*
X0098293Y0140245D01*
X0098183Y0140159D01*
X0098074Y0140070D01*
X0097968Y0139978D01*
X0097865Y0139883D01*
X0097764Y0139786D01*
X0097667Y0139685D01*
X0097572Y0139582D01*
X0097480Y0139476D01*
X0097391Y0139367D01*
X0097305Y0139257D01*
X0097222Y0139143D01*
X0097143Y0139028D01*
X0097066Y0138910D01*
X0096993Y0138790D01*
X0096924Y0138669D01*
X0096858Y0138545D01*
X0096795Y0138419D01*
X0096736Y0138292D01*
X0096681Y0138163D01*
X0096629Y0138033D01*
X0096581Y0137901D01*
X0096536Y0137768D01*
X0096495Y0137634D01*
X0096458Y0137499D01*
X0096425Y0137363D01*
X0096396Y0137225D01*
X0096371Y0137088D01*
X0096349Y0136949D01*
X0096331Y0136810D01*
X0096318Y0136670D01*
X0096308Y0136530D01*
X0096302Y0136390D01*
X0096300Y0136250D01*
X0096300Y0135935D01*
X0096300Y0136250D01*
X0096298Y0136390D01*
X0096292Y0136530D01*
X0096282Y0136670D01*
X0096269Y0136810D01*
X0096251Y0136949D01*
X0096229Y0137088D01*
X0096204Y0137225D01*
X0096175Y0137363D01*
X0096142Y0137499D01*
X0096105Y0137634D01*
X0096064Y0137768D01*
X0096019Y0137901D01*
X0095971Y0138033D01*
X0095919Y0138163D01*
X0095864Y0138292D01*
X0095805Y0138419D01*
X0095742Y0138545D01*
X0095676Y0138669D01*
X0095607Y0138790D01*
X0095534Y0138910D01*
X0095457Y0139028D01*
X0095378Y0139143D01*
X0095295Y0139257D01*
X0095209Y0139367D01*
X0095120Y0139476D01*
X0095028Y0139582D01*
X0094933Y0139685D01*
X0094836Y0139786D01*
X0094735Y0139883D01*
X0094632Y0139978D01*
X0094526Y0140070D01*
X0094417Y0140159D01*
X0094307Y0140245D01*
X0094193Y0140328D01*
X0094078Y0140407D01*
X0093960Y0140484D01*
X0093840Y0140557D01*
X0093719Y0140626D01*
X0093595Y0140692D01*
X0093469Y0140755D01*
X0093342Y0140814D01*
X0093213Y0140869D01*
X0093083Y0140921D01*
X0092951Y0140969D01*
X0092818Y0141014D01*
X0092684Y0141055D01*
X0092549Y0141092D01*
X0092413Y0141125D01*
X0092275Y0141154D01*
X0092138Y0141179D01*
X0091999Y0141201D01*
X0091860Y0141219D01*
X0091720Y0141232D01*
X0091580Y0141242D01*
X0091440Y0141248D01*
X0091300Y0141250D01*
X0071300Y0141250D01*
X0070757Y0135935D02*
X0070519Y0135938D01*
X0070281Y0135946D01*
X0070044Y0135960D01*
X0069806Y0135980D01*
X0069570Y0136006D01*
X0069334Y0136037D01*
X0069099Y0136073D01*
X0068864Y0136116D01*
X0068631Y0136164D01*
X0068399Y0136217D01*
X0068169Y0136276D01*
X0067940Y0136340D01*
X0067712Y0136410D01*
X0067486Y0136485D01*
X0067262Y0136566D01*
X0067040Y0136651D01*
X0066820Y0136742D01*
X0066603Y0136839D01*
X0066388Y0136940D01*
X0066175Y0137047D01*
X0065965Y0137158D01*
X0065757Y0137275D01*
X0065552Y0137396D01*
X0065351Y0137522D01*
X0065152Y0137654D01*
X0064956Y0137789D01*
X0064764Y0137930D01*
X0064575Y0138074D01*
X0064390Y0138224D01*
X0064208Y0138378D01*
X0064030Y0138535D01*
X0063856Y0138698D01*
X0063686Y0138864D01*
X0061300Y0141250D01*
X0051300Y0141250D01*
X0051160Y0141248D01*
X0051020Y0141242D01*
X0050880Y0141232D01*
X0050740Y0141219D01*
X0050601Y0141201D01*
X0050462Y0141179D01*
X0050325Y0141154D01*
X0050187Y0141125D01*
X0050051Y0141092D01*
X0049916Y0141055D01*
X0049782Y0141014D01*
X0049649Y0140969D01*
X0049517Y0140921D01*
X0049387Y0140869D01*
X0049258Y0140814D01*
X0049131Y0140755D01*
X0049005Y0140692D01*
X0048881Y0140626D01*
X0048760Y0140557D01*
X0048640Y0140484D01*
X0048522Y0140407D01*
X0048407Y0140328D01*
X0048293Y0140245D01*
X0048183Y0140159D01*
X0048074Y0140070D01*
X0047968Y0139978D01*
X0047865Y0139883D01*
X0047764Y0139786D01*
X0047667Y0139685D01*
X0047572Y0139582D01*
X0047480Y0139476D01*
X0047391Y0139367D01*
X0047305Y0139257D01*
X0047222Y0139143D01*
X0047143Y0139028D01*
X0047066Y0138910D01*
X0046993Y0138790D01*
X0046924Y0138669D01*
X0046858Y0138545D01*
X0046795Y0138419D01*
X0046736Y0138292D01*
X0046681Y0138163D01*
X0046629Y0138033D01*
X0046581Y0137901D01*
X0046536Y0137768D01*
X0046495Y0137634D01*
X0046458Y0137499D01*
X0046425Y0137363D01*
X0046396Y0137225D01*
X0046371Y0137088D01*
X0046349Y0136949D01*
X0046331Y0136810D01*
X0046318Y0136670D01*
X0046308Y0136530D01*
X0046302Y0136390D01*
X0046300Y0136250D01*
X0036300Y0131250D02*
X0036058Y0131253D01*
X0035817Y0131262D01*
X0035576Y0131276D01*
X0035335Y0131297D01*
X0035095Y0131323D01*
X0034855Y0131355D01*
X0034616Y0131393D01*
X0034379Y0131436D01*
X0034142Y0131486D01*
X0033907Y0131541D01*
X0033673Y0131601D01*
X0033441Y0131668D01*
X0033210Y0131739D01*
X0032981Y0131817D01*
X0032754Y0131900D01*
X0032529Y0131988D01*
X0032306Y0132082D01*
X0032086Y0132181D01*
X0031868Y0132286D01*
X0031653Y0132395D01*
X0031440Y0132510D01*
X0031230Y0132630D01*
X0031024Y0132755D01*
X0030820Y0132885D01*
X0030619Y0133020D01*
X0030422Y0133160D01*
X0030228Y0133304D01*
X0030038Y0133453D01*
X0029852Y0133607D01*
X0029669Y0133765D01*
X0029490Y0133927D01*
X0029315Y0134094D01*
X0029144Y0134265D01*
X0028977Y0134440D01*
X0028815Y0134619D01*
X0028657Y0134802D01*
X0028503Y0134988D01*
X0028354Y0135178D01*
X0028210Y0135372D01*
X0028070Y0135569D01*
X0027935Y0135770D01*
X0027805Y0135974D01*
X0027680Y0136180D01*
X0027560Y0136390D01*
X0027445Y0136603D01*
X0027336Y0136818D01*
X0027231Y0137036D01*
X0027132Y0137256D01*
X0027038Y0137479D01*
X0026950Y0137704D01*
X0026867Y0137931D01*
X0026789Y0138160D01*
X0026718Y0138391D01*
X0026651Y0138623D01*
X0026591Y0138857D01*
X0026536Y0139092D01*
X0026486Y0139329D01*
X0026443Y0139566D01*
X0026405Y0139805D01*
X0026373Y0140045D01*
X0026347Y0140285D01*
X0026326Y0140526D01*
X0026312Y0140767D01*
X0026303Y0141008D01*
X0026300Y0141250D01*
X0026300Y0146250D01*
X0068800Y0131250D02*
X0068898Y0131248D01*
X0068996Y0131242D01*
X0069094Y0131233D01*
X0069191Y0131219D01*
X0069288Y0131202D01*
X0069384Y0131181D01*
X0069479Y0131156D01*
X0069573Y0131128D01*
X0069665Y0131095D01*
X0069757Y0131060D01*
X0069847Y0131020D01*
X0069935Y0130978D01*
X0070022Y0130931D01*
X0070106Y0130882D01*
X0070189Y0130829D01*
X0070269Y0130773D01*
X0070348Y0130713D01*
X0070424Y0130651D01*
X0070497Y0130586D01*
X0070568Y0130518D01*
X0070636Y0130447D01*
X0070701Y0130374D01*
X0070763Y0130298D01*
X0070823Y0130219D01*
X0070879Y0130139D01*
X0070932Y0130056D01*
X0070981Y0129972D01*
X0071028Y0129885D01*
X0071070Y0129797D01*
X0071110Y0129707D01*
X0071145Y0129615D01*
X0071178Y0129523D01*
X0071206Y0129429D01*
X0071231Y0129334D01*
X0071252Y0129238D01*
X0071269Y0129141D01*
X0071283Y0129044D01*
X0071292Y0128946D01*
X0071298Y0128848D01*
X0071300Y0128750D01*
X0071302Y0128652D01*
X0071308Y0128554D01*
X0071317Y0128456D01*
X0071331Y0128359D01*
X0071348Y0128262D01*
X0071369Y0128166D01*
X0071394Y0128071D01*
X0071422Y0127977D01*
X0071455Y0127885D01*
X0071490Y0127793D01*
X0071530Y0127703D01*
X0071572Y0127615D01*
X0071619Y0127528D01*
X0071668Y0127444D01*
X0071721Y0127361D01*
X0071777Y0127281D01*
X0071837Y0127202D01*
X0071899Y0127126D01*
X0071964Y0127053D01*
X0072032Y0126982D01*
X0072103Y0126914D01*
X0072176Y0126849D01*
X0072252Y0126787D01*
X0072331Y0126727D01*
X0072411Y0126671D01*
X0072494Y0126618D01*
X0072578Y0126569D01*
X0072665Y0126522D01*
X0072753Y0126480D01*
X0072843Y0126440D01*
X0072935Y0126405D01*
X0073027Y0126372D01*
X0073121Y0126344D01*
X0073216Y0126319D01*
X0073312Y0126298D01*
X0073409Y0126281D01*
X0073506Y0126267D01*
X0073604Y0126258D01*
X0073702Y0126252D01*
X0073800Y0126250D01*
X0071300Y0141250D02*
X0071160Y0141252D01*
X0071020Y0141258D01*
X0070880Y0141268D01*
X0070740Y0141281D01*
X0070601Y0141299D01*
X0070462Y0141321D01*
X0070325Y0141346D01*
X0070187Y0141375D01*
X0070051Y0141408D01*
X0069916Y0141445D01*
X0069782Y0141486D01*
X0069649Y0141531D01*
X0069517Y0141579D01*
X0069387Y0141631D01*
X0069258Y0141686D01*
X0069131Y0141745D01*
X0069005Y0141808D01*
X0068881Y0141874D01*
X0068760Y0141943D01*
X0068640Y0142016D01*
X0068522Y0142093D01*
X0068407Y0142172D01*
X0068293Y0142255D01*
X0068183Y0142341D01*
X0068074Y0142430D01*
X0067968Y0142522D01*
X0067865Y0142617D01*
X0067764Y0142714D01*
X0067667Y0142815D01*
X0067572Y0142918D01*
X0067480Y0143024D01*
X0067391Y0143133D01*
X0067305Y0143243D01*
X0067222Y0143357D01*
X0067143Y0143472D01*
X0067066Y0143590D01*
X0066993Y0143710D01*
X0066924Y0143831D01*
X0066858Y0143955D01*
X0066795Y0144081D01*
X0066736Y0144208D01*
X0066681Y0144337D01*
X0066629Y0144467D01*
X0066581Y0144599D01*
X0066536Y0144732D01*
X0066495Y0144866D01*
X0066458Y0145001D01*
X0066425Y0145137D01*
X0066396Y0145275D01*
X0066371Y0145412D01*
X0066349Y0145551D01*
X0066331Y0145690D01*
X0066318Y0145830D01*
X0066308Y0145970D01*
X0066302Y0146110D01*
X0066300Y0146250D01*
X0079229Y0173321D02*
X0079059Y0173487D01*
X0078885Y0173650D01*
X0078707Y0173807D01*
X0078525Y0173961D01*
X0078340Y0174111D01*
X0078151Y0174255D01*
X0077959Y0174396D01*
X0077763Y0174531D01*
X0077564Y0174663D01*
X0077363Y0174789D01*
X0077158Y0174910D01*
X0076950Y0175027D01*
X0076740Y0175138D01*
X0076527Y0175245D01*
X0076312Y0175346D01*
X0076095Y0175443D01*
X0075875Y0175534D01*
X0075653Y0175619D01*
X0075429Y0175700D01*
X0075203Y0175775D01*
X0074975Y0175845D01*
X0074746Y0175909D01*
X0074516Y0175968D01*
X0074284Y0176021D01*
X0074051Y0176069D01*
X0073816Y0176112D01*
X0073581Y0176148D01*
X0073345Y0176179D01*
X0073109Y0176205D01*
X0072871Y0176225D01*
X0072634Y0176239D01*
X0072396Y0176247D01*
X0072158Y0176250D01*
X0118143Y0096195D02*
X0118143Y0096195D01*
X0118508Y0095562D02*
X0121500Y0095562D01*
X0121500Y0093964D02*
X0119431Y0093964D01*
X0120213Y0092365D02*
X0121500Y0092365D01*
X0116300Y0087108D02*
X0116300Y0086250D01*
X0116300Y0087108D02*
X0116297Y0087346D01*
X0116289Y0087584D01*
X0116275Y0087821D01*
X0116255Y0088059D01*
X0116229Y0088295D01*
X0116198Y0088531D01*
X0116162Y0088766D01*
X0116119Y0089001D01*
X0116071Y0089234D01*
X0116018Y0089466D01*
X0115959Y0089696D01*
X0115895Y0089925D01*
X0115825Y0090153D01*
X0115750Y0090379D01*
X0115669Y0090603D01*
X0115584Y0090825D01*
X0115493Y0091045D01*
X0115396Y0091262D01*
X0115295Y0091477D01*
X0115188Y0091690D01*
X0115077Y0091900D01*
X0114960Y0092108D01*
X0114839Y0092313D01*
X0114713Y0092514D01*
X0114581Y0092713D01*
X0114446Y0092909D01*
X0114305Y0093101D01*
X0114161Y0093290D01*
X0114011Y0093475D01*
X0113857Y0093657D01*
X0113700Y0093835D01*
X0113537Y0094009D01*
X0113371Y0094179D01*
X0101300Y0061250D02*
X0151300Y0061250D01*
X0151440Y0061248D01*
X0151580Y0061242D01*
X0151720Y0061232D01*
X0151860Y0061219D01*
X0151999Y0061201D01*
X0152138Y0061179D01*
X0152275Y0061154D01*
X0152413Y0061125D01*
X0152549Y0061092D01*
X0152684Y0061055D01*
X0152818Y0061014D01*
X0152951Y0060969D01*
X0153083Y0060921D01*
X0153213Y0060869D01*
X0153342Y0060814D01*
X0153469Y0060755D01*
X0153595Y0060692D01*
X0153719Y0060626D01*
X0153840Y0060557D01*
X0153960Y0060484D01*
X0154078Y0060407D01*
X0154193Y0060328D01*
X0154307Y0060245D01*
X0154417Y0060159D01*
X0154526Y0060070D01*
X0154632Y0059978D01*
X0154735Y0059883D01*
X0154836Y0059786D01*
X0154933Y0059685D01*
X0155028Y0059582D01*
X0155120Y0059476D01*
X0155209Y0059367D01*
X0155295Y0059257D01*
X0155378Y0059143D01*
X0155457Y0059028D01*
X0155534Y0058910D01*
X0155607Y0058790D01*
X0155676Y0058669D01*
X0155742Y0058545D01*
X0155805Y0058419D01*
X0155864Y0058292D01*
X0155919Y0058163D01*
X0155971Y0058033D01*
X0156019Y0057901D01*
X0156064Y0057768D01*
X0156105Y0057634D01*
X0156142Y0057499D01*
X0156175Y0057363D01*
X0156204Y0057225D01*
X0156229Y0057088D01*
X0156251Y0056949D01*
X0156269Y0056810D01*
X0156282Y0056670D01*
X0156292Y0056530D01*
X0156298Y0056390D01*
X0156300Y0056250D01*
X0156300Y0055935D01*
X0151887Y0051050D02*
X0150726Y0052211D01*
X0150092Y0053741D01*
X0150042Y0053642D01*
X0149637Y0053085D01*
X0149150Y0052598D01*
X0148593Y0052193D01*
X0147979Y0051881D01*
X0147324Y0051668D01*
X0146644Y0051560D01*
X0146300Y0051560D01*
X0146300Y0055935D01*
X0146300Y0055935D01*
X0146300Y0051560D01*
X0145956Y0051560D01*
X0145276Y0051668D01*
X0144621Y0051881D01*
X0144007Y0052193D01*
X0143450Y0052598D01*
X0142963Y0053085D01*
X0142558Y0053642D01*
X0142508Y0053741D01*
X0141874Y0052211D01*
X0140713Y0051050D01*
X0151887Y0051050D01*
X0150647Y0052402D02*
X0148881Y0052402D01*
X0146300Y0052402D02*
X0146300Y0052402D01*
X0146300Y0054001D02*
X0146300Y0054001D01*
X0146300Y0055599D02*
X0146300Y0055599D01*
X0143719Y0052402D02*
X0141953Y0052402D01*
X0131615Y0051250D02*
X0080985Y0051250D01*
X0080851Y0051252D01*
X0080718Y0051258D01*
X0080584Y0051267D01*
X0080451Y0051281D01*
X0080318Y0051298D01*
X0080186Y0051319D01*
X0080055Y0051343D01*
X0079924Y0051372D01*
X0079794Y0051404D01*
X0079665Y0051440D01*
X0079537Y0051479D01*
X0079411Y0051522D01*
X0079285Y0051569D01*
X0079161Y0051620D01*
X0079039Y0051673D01*
X0078918Y0051731D01*
X0078799Y0051791D01*
X0078681Y0051856D01*
X0078566Y0051923D01*
X0078452Y0051994D01*
X0078341Y0052068D01*
X0078231Y0052145D01*
X0078124Y0052225D01*
X0078019Y0052308D01*
X0077917Y0052394D01*
X0077817Y0052483D01*
X0077720Y0052575D01*
X0077625Y0052670D01*
X0077533Y0052767D01*
X0077444Y0052867D01*
X0077358Y0052969D01*
X0077275Y0053074D01*
X0077195Y0053181D01*
X0077118Y0053291D01*
X0077044Y0053402D01*
X0076973Y0053516D01*
X0076906Y0053631D01*
X0076841Y0053749D01*
X0076781Y0053868D01*
X0076723Y0053989D01*
X0076670Y0054111D01*
X0076619Y0054235D01*
X0076572Y0054361D01*
X0076529Y0054487D01*
X0076490Y0054615D01*
X0076454Y0054744D01*
X0076422Y0054874D01*
X0076393Y0055005D01*
X0076369Y0055136D01*
X0076348Y0055268D01*
X0076331Y0055401D01*
X0076317Y0055534D01*
X0076308Y0055668D01*
X0076302Y0055801D01*
X0076300Y0055935D01*
X0070757Y0055935D01*
X0068800Y0051250D02*
X0036300Y0051250D01*
X0041300Y0046250D02*
X0046300Y0046250D01*
X0041300Y0046250D02*
X0041160Y0046248D01*
X0041020Y0046242D01*
X0040880Y0046232D01*
X0040740Y0046219D01*
X0040601Y0046201D01*
X0040462Y0046179D01*
X0040325Y0046154D01*
X0040187Y0046125D01*
X0040051Y0046092D01*
X0039916Y0046055D01*
X0039782Y0046014D01*
X0039649Y0045969D01*
X0039517Y0045921D01*
X0039387Y0045869D01*
X0039258Y0045814D01*
X0039131Y0045755D01*
X0039005Y0045692D01*
X0038881Y0045626D01*
X0038760Y0045557D01*
X0038640Y0045484D01*
X0038522Y0045407D01*
X0038407Y0045328D01*
X0038293Y0045245D01*
X0038183Y0045159D01*
X0038074Y0045070D01*
X0037968Y0044978D01*
X0037865Y0044883D01*
X0037764Y0044786D01*
X0037667Y0044685D01*
X0037572Y0044582D01*
X0037480Y0044476D01*
X0037391Y0044367D01*
X0037305Y0044257D01*
X0037222Y0044143D01*
X0037143Y0044028D01*
X0037066Y0043910D01*
X0036993Y0043790D01*
X0036924Y0043669D01*
X0036858Y0043545D01*
X0036795Y0043419D01*
X0036736Y0043292D01*
X0036681Y0043163D01*
X0036629Y0043033D01*
X0036581Y0042901D01*
X0036536Y0042768D01*
X0036495Y0042634D01*
X0036458Y0042499D01*
X0036425Y0042363D01*
X0036396Y0042225D01*
X0036371Y0042088D01*
X0036349Y0041949D01*
X0036331Y0041810D01*
X0036318Y0041670D01*
X0036308Y0041530D01*
X0036302Y0041390D01*
X0036300Y0041250D01*
X0036300Y0026250D01*
X0036303Y0026008D01*
X0036312Y0025767D01*
X0036326Y0025526D01*
X0036347Y0025285D01*
X0036373Y0025045D01*
X0036405Y0024805D01*
X0036443Y0024566D01*
X0036486Y0024329D01*
X0036536Y0024092D01*
X0036591Y0023857D01*
X0036651Y0023623D01*
X0036718Y0023391D01*
X0036789Y0023160D01*
X0036867Y0022931D01*
X0036950Y0022704D01*
X0037038Y0022479D01*
X0037132Y0022256D01*
X0037231Y0022036D01*
X0037336Y0021818D01*
X0037445Y0021603D01*
X0037560Y0021390D01*
X0037680Y0021180D01*
X0037805Y0020974D01*
X0037935Y0020770D01*
X0038070Y0020569D01*
X0038210Y0020372D01*
X0038354Y0020178D01*
X0038503Y0019988D01*
X0038657Y0019802D01*
X0038815Y0019619D01*
X0038977Y0019440D01*
X0039144Y0019265D01*
X0039315Y0019094D01*
X0039490Y0018927D01*
X0039669Y0018765D01*
X0039852Y0018607D01*
X0040038Y0018453D01*
X0040228Y0018304D01*
X0040422Y0018160D01*
X0040619Y0018020D01*
X0040820Y0017885D01*
X0041024Y0017755D01*
X0041230Y0017630D01*
X0041440Y0017510D01*
X0041653Y0017395D01*
X0041868Y0017286D01*
X0042086Y0017181D01*
X0042306Y0017082D01*
X0042529Y0016988D01*
X0042754Y0016900D01*
X0042981Y0016817D01*
X0043210Y0016739D01*
X0043441Y0016668D01*
X0043673Y0016601D01*
X0043907Y0016541D01*
X0044142Y0016486D01*
X0044379Y0016436D01*
X0044616Y0016393D01*
X0044855Y0016355D01*
X0045095Y0016323D01*
X0045335Y0016297D01*
X0045576Y0016276D01*
X0045817Y0016262D01*
X0046058Y0016253D01*
X0046300Y0016250D01*
X0072158Y0016250D01*
X0079229Y0013321D02*
X0086300Y0006250D01*
X0106300Y0006250D02*
X0106294Y0006733D01*
X0106277Y0007216D01*
X0106247Y0007699D01*
X0106207Y0008180D01*
X0106154Y0008661D01*
X0106090Y0009140D01*
X0106015Y0009617D01*
X0105927Y0010093D01*
X0105829Y0010566D01*
X0105719Y0011036D01*
X0105598Y0011504D01*
X0105465Y0011969D01*
X0105321Y0012430D01*
X0105166Y0012888D01*
X0105000Y0013342D01*
X0104823Y0013792D01*
X0104636Y0014237D01*
X0104437Y0014678D01*
X0104229Y0015114D01*
X0104009Y0015544D01*
X0103779Y0015970D01*
X0103539Y0016389D01*
X0103289Y0016803D01*
X0103029Y0017210D01*
X0102760Y0017611D01*
X0102480Y0018006D01*
X0102192Y0018393D01*
X0101893Y0018774D01*
X0101586Y0019147D01*
X0101270Y0019512D01*
X0100945Y0019870D01*
X0100612Y0020220D01*
X0100270Y0020562D01*
X0099920Y0020895D01*
X0099562Y0021220D01*
X0099197Y0021536D01*
X0098824Y0021843D01*
X0098443Y0022142D01*
X0098056Y0022430D01*
X0097661Y0022710D01*
X0097260Y0022979D01*
X0096853Y0023239D01*
X0096439Y0023489D01*
X0096020Y0023729D01*
X0095594Y0023959D01*
X0095164Y0024179D01*
X0094728Y0024387D01*
X0094287Y0024586D01*
X0093842Y0024773D01*
X0093392Y0024950D01*
X0092938Y0025116D01*
X0092480Y0025271D01*
X0092019Y0025415D01*
X0091554Y0025548D01*
X0091086Y0025669D01*
X0090616Y0025779D01*
X0090143Y0025877D01*
X0089667Y0025965D01*
X0089190Y0026040D01*
X0088711Y0026104D01*
X0088230Y0026157D01*
X0087749Y0026197D01*
X0087266Y0026227D01*
X0086783Y0026244D01*
X0086300Y0026250D01*
X0056300Y0026250D01*
X0046300Y0036250D02*
X0046302Y0036390D01*
X0046308Y0036530D01*
X0046318Y0036670D01*
X0046331Y0036810D01*
X0046349Y0036949D01*
X0046371Y0037088D01*
X0046396Y0037225D01*
X0046425Y0037363D01*
X0046458Y0037499D01*
X0046495Y0037634D01*
X0046536Y0037768D01*
X0046581Y0037901D01*
X0046629Y0038033D01*
X0046681Y0038163D01*
X0046736Y0038292D01*
X0046795Y0038419D01*
X0046858Y0038545D01*
X0046924Y0038669D01*
X0046993Y0038790D01*
X0047066Y0038910D01*
X0047143Y0039028D01*
X0047222Y0039143D01*
X0047305Y0039257D01*
X0047391Y0039367D01*
X0047480Y0039476D01*
X0047572Y0039582D01*
X0047667Y0039685D01*
X0047764Y0039786D01*
X0047865Y0039883D01*
X0047968Y0039978D01*
X0048074Y0040070D01*
X0048183Y0040159D01*
X0048293Y0040245D01*
X0048407Y0040328D01*
X0048522Y0040407D01*
X0048640Y0040484D01*
X0048760Y0040557D01*
X0048881Y0040626D01*
X0049005Y0040692D01*
X0049131Y0040755D01*
X0049258Y0040814D01*
X0049387Y0040869D01*
X0049517Y0040921D01*
X0049649Y0040969D01*
X0049782Y0041014D01*
X0049916Y0041055D01*
X0050051Y0041092D01*
X0050187Y0041125D01*
X0050325Y0041154D01*
X0050462Y0041179D01*
X0050601Y0041201D01*
X0050740Y0041219D01*
X0050880Y0041232D01*
X0051020Y0041242D01*
X0051160Y0041248D01*
X0051300Y0041250D01*
X0082158Y0041250D01*
X0089229Y0038321D02*
X0113371Y0014179D01*
X0116765Y0017573D02*
X0116170Y0018168D01*
X0093229Y0041109D01*
X0092888Y0041450D01*
X0110212Y0041450D01*
X0109643Y0040074D01*
X0109643Y0037426D01*
X0110656Y0034979D01*
X0112529Y0033106D01*
X0114976Y0032093D01*
X0117624Y0032093D01*
X0118962Y0032646D01*
X0119566Y0032202D01*
X0120629Y0030873D01*
X0121312Y0029314D01*
X0121568Y0027632D01*
X0121555Y0027336D01*
X0121500Y0027205D01*
X0121500Y0026516D01*
X0121424Y0025831D01*
X0121500Y0025569D01*
X0121500Y0011250D01*
X0120598Y0011250D01*
X0120481Y0011367D01*
X0120091Y0012820D01*
X0120091Y0012820D01*
X0118143Y0016195D01*
X0118143Y0016195D01*
X0116765Y0017573D01*
X0117103Y0017235D02*
X0121500Y0017235D01*
X0121500Y0015637D02*
X0118465Y0015637D01*
X0119388Y0014038D02*
X0121500Y0014038D01*
X0121500Y0012440D02*
X0120193Y0012440D01*
X0116300Y0007108D02*
X0116300Y0006250D01*
X0126300Y0006250D02*
X0126300Y0026250D01*
X0121500Y0026826D02*
X0107512Y0026826D01*
X0109111Y0025228D02*
X0121500Y0025228D01*
X0121500Y0023629D02*
X0110709Y0023629D01*
X0112308Y0022031D02*
X0121500Y0022031D01*
X0121500Y0020432D02*
X0113906Y0020432D01*
X0115505Y0018834D02*
X0121500Y0018834D01*
X0131100Y0018834D02*
X0140254Y0018834D01*
X0140726Y0019974D02*
X0139725Y0017558D01*
X0139725Y0014942D01*
X0140726Y0012526D01*
X0142002Y0011250D01*
X0140598Y0011250D01*
X0140024Y0011824D01*
X0137608Y0012825D01*
X0134992Y0012825D01*
X0132576Y0011824D01*
X0132002Y0011250D01*
X0131100Y0011250D01*
X0131100Y0025984D01*
X0131305Y0027829D01*
X0130666Y0032025D01*
X0128963Y0035912D01*
X0128963Y0035912D01*
X0126311Y0039227D01*
X0123289Y0041450D01*
X0161300Y0041450D01*
X0161331Y0041448D01*
X0161391Y0041428D01*
X0161441Y0041391D01*
X0161478Y0041341D01*
X0161498Y0041281D01*
X0161500Y0041250D01*
X0161500Y0020748D01*
X0161300Y0020548D01*
X0160024Y0021824D01*
X0157608Y0022825D01*
X0154992Y0022825D01*
X0152576Y0021824D01*
X0151300Y0020548D01*
X0150024Y0021824D01*
X0147608Y0022825D01*
X0144992Y0022825D01*
X0142576Y0021824D01*
X0140726Y0019974D01*
X0141184Y0020432D02*
X0131100Y0020432D01*
X0131100Y0022031D02*
X0143075Y0022031D01*
X0139725Y0017235D02*
X0131100Y0017235D01*
X0131100Y0015637D02*
X0139725Y0015637D01*
X0140100Y0014038D02*
X0131100Y0014038D01*
X0131100Y0012440D02*
X0134062Y0012440D01*
X0138538Y0012440D02*
X0140812Y0012440D01*
X0149525Y0022031D02*
X0153075Y0022031D01*
X0159525Y0022031D02*
X0161500Y0022031D01*
X0161500Y0023629D02*
X0131100Y0023629D01*
X0131100Y0025228D02*
X0161500Y0025228D01*
X0161500Y0026826D02*
X0131194Y0026826D01*
X0131214Y0028425D02*
X0161500Y0028425D01*
X0161500Y0030023D02*
X0130971Y0030023D01*
X0130727Y0031622D02*
X0161500Y0031622D01*
X0161500Y0033220D02*
X0130142Y0033220D01*
X0130666Y0032025D02*
X0130666Y0032025D01*
X0129442Y0034819D02*
X0161500Y0034819D01*
X0161500Y0036417D02*
X0128559Y0036417D01*
X0127280Y0038016D02*
X0161500Y0038016D01*
X0161500Y0039614D02*
X0125784Y0039614D01*
X0126311Y0039227D02*
X0126311Y0039227D01*
X0123612Y0041213D02*
X0161500Y0041213D01*
X0166300Y0041250D02*
X0166298Y0041390D01*
X0166292Y0041530D01*
X0166282Y0041670D01*
X0166269Y0041810D01*
X0166251Y0041949D01*
X0166229Y0042088D01*
X0166204Y0042225D01*
X0166175Y0042363D01*
X0166142Y0042499D01*
X0166105Y0042634D01*
X0166064Y0042768D01*
X0166019Y0042901D01*
X0165971Y0043033D01*
X0165919Y0043163D01*
X0165864Y0043292D01*
X0165805Y0043419D01*
X0165742Y0043545D01*
X0165676Y0043669D01*
X0165607Y0043790D01*
X0165534Y0043910D01*
X0165457Y0044028D01*
X0165378Y0044143D01*
X0165295Y0044257D01*
X0165209Y0044367D01*
X0165120Y0044476D01*
X0165028Y0044582D01*
X0164933Y0044685D01*
X0164836Y0044786D01*
X0164735Y0044883D01*
X0164632Y0044978D01*
X0164526Y0045070D01*
X0164417Y0045159D01*
X0164307Y0045245D01*
X0164193Y0045328D01*
X0164078Y0045407D01*
X0163960Y0045484D01*
X0163840Y0045557D01*
X0163719Y0045626D01*
X0163595Y0045692D01*
X0163469Y0045755D01*
X0163342Y0045814D01*
X0163213Y0045869D01*
X0163083Y0045921D01*
X0162951Y0045969D01*
X0162818Y0046014D01*
X0162684Y0046055D01*
X0162549Y0046092D01*
X0162413Y0046125D01*
X0162275Y0046154D01*
X0162138Y0046179D01*
X0161999Y0046201D01*
X0161860Y0046219D01*
X0161720Y0046232D01*
X0161580Y0046242D01*
X0161440Y0046248D01*
X0161300Y0046250D01*
X0073800Y0046250D01*
X0073702Y0046252D01*
X0073604Y0046258D01*
X0073506Y0046267D01*
X0073409Y0046281D01*
X0073312Y0046298D01*
X0073216Y0046319D01*
X0073121Y0046344D01*
X0073027Y0046372D01*
X0072935Y0046405D01*
X0072843Y0046440D01*
X0072753Y0046480D01*
X0072665Y0046522D01*
X0072578Y0046569D01*
X0072494Y0046618D01*
X0072411Y0046671D01*
X0072331Y0046727D01*
X0072252Y0046787D01*
X0072176Y0046849D01*
X0072103Y0046914D01*
X0072032Y0046982D01*
X0071964Y0047053D01*
X0071899Y0047126D01*
X0071837Y0047202D01*
X0071777Y0047281D01*
X0071721Y0047361D01*
X0071668Y0047444D01*
X0071619Y0047528D01*
X0071572Y0047615D01*
X0071530Y0047703D01*
X0071490Y0047793D01*
X0071455Y0047885D01*
X0071422Y0047977D01*
X0071394Y0048071D01*
X0071369Y0048166D01*
X0071348Y0048262D01*
X0071331Y0048359D01*
X0071317Y0048456D01*
X0071308Y0048554D01*
X0071302Y0048652D01*
X0071300Y0048750D01*
X0071298Y0048848D01*
X0071292Y0048946D01*
X0071283Y0049044D01*
X0071269Y0049141D01*
X0071252Y0049238D01*
X0071231Y0049334D01*
X0071206Y0049429D01*
X0071178Y0049523D01*
X0071145Y0049615D01*
X0071110Y0049707D01*
X0071070Y0049797D01*
X0071028Y0049885D01*
X0070981Y0049972D01*
X0070932Y0050056D01*
X0070879Y0050139D01*
X0070823Y0050219D01*
X0070763Y0050298D01*
X0070701Y0050374D01*
X0070636Y0050447D01*
X0070568Y0050518D01*
X0070497Y0050586D01*
X0070424Y0050651D01*
X0070348Y0050713D01*
X0070269Y0050773D01*
X0070189Y0050829D01*
X0070106Y0050882D01*
X0070022Y0050931D01*
X0069935Y0050978D01*
X0069847Y0051020D01*
X0069757Y0051060D01*
X0069665Y0051095D01*
X0069573Y0051128D01*
X0069479Y0051156D01*
X0069384Y0051181D01*
X0069288Y0051202D01*
X0069191Y0051219D01*
X0069094Y0051233D01*
X0068996Y0051242D01*
X0068898Y0051248D01*
X0068800Y0051250D01*
X0063686Y0058864D02*
X0061300Y0061250D01*
X0051300Y0061250D01*
X0051160Y0061248D01*
X0051020Y0061242D01*
X0050880Y0061232D01*
X0050740Y0061219D01*
X0050601Y0061201D01*
X0050462Y0061179D01*
X0050325Y0061154D01*
X0050187Y0061125D01*
X0050051Y0061092D01*
X0049916Y0061055D01*
X0049782Y0061014D01*
X0049649Y0060969D01*
X0049517Y0060921D01*
X0049387Y0060869D01*
X0049258Y0060814D01*
X0049131Y0060755D01*
X0049005Y0060692D01*
X0048881Y0060626D01*
X0048760Y0060557D01*
X0048640Y0060484D01*
X0048522Y0060407D01*
X0048407Y0060328D01*
X0048293Y0060245D01*
X0048183Y0060159D01*
X0048074Y0060070D01*
X0047968Y0059978D01*
X0047865Y0059883D01*
X0047764Y0059786D01*
X0047667Y0059685D01*
X0047572Y0059582D01*
X0047480Y0059476D01*
X0047391Y0059367D01*
X0047305Y0059257D01*
X0047222Y0059143D01*
X0047143Y0059028D01*
X0047066Y0058910D01*
X0046993Y0058790D01*
X0046924Y0058669D01*
X0046858Y0058545D01*
X0046795Y0058419D01*
X0046736Y0058292D01*
X0046681Y0058163D01*
X0046629Y0058033D01*
X0046581Y0057901D01*
X0046536Y0057768D01*
X0046495Y0057634D01*
X0046458Y0057499D01*
X0046425Y0057363D01*
X0046396Y0057225D01*
X0046371Y0057088D01*
X0046349Y0056949D01*
X0046331Y0056810D01*
X0046318Y0056670D01*
X0046308Y0056530D01*
X0046302Y0056390D01*
X0046300Y0056250D01*
X0036300Y0051250D02*
X0036058Y0051253D01*
X0035817Y0051262D01*
X0035576Y0051276D01*
X0035335Y0051297D01*
X0035095Y0051323D01*
X0034855Y0051355D01*
X0034616Y0051393D01*
X0034379Y0051436D01*
X0034142Y0051486D01*
X0033907Y0051541D01*
X0033673Y0051601D01*
X0033441Y0051668D01*
X0033210Y0051739D01*
X0032981Y0051817D01*
X0032754Y0051900D01*
X0032529Y0051988D01*
X0032306Y0052082D01*
X0032086Y0052181D01*
X0031868Y0052286D01*
X0031653Y0052395D01*
X0031440Y0052510D01*
X0031230Y0052630D01*
X0031024Y0052755D01*
X0030820Y0052885D01*
X0030619Y0053020D01*
X0030422Y0053160D01*
X0030228Y0053304D01*
X0030038Y0053453D01*
X0029852Y0053607D01*
X0029669Y0053765D01*
X0029490Y0053927D01*
X0029315Y0054094D01*
X0029144Y0054265D01*
X0028977Y0054440D01*
X0028815Y0054619D01*
X0028657Y0054802D01*
X0028503Y0054988D01*
X0028354Y0055178D01*
X0028210Y0055372D01*
X0028070Y0055569D01*
X0027935Y0055770D01*
X0027805Y0055974D01*
X0027680Y0056180D01*
X0027560Y0056390D01*
X0027445Y0056603D01*
X0027336Y0056818D01*
X0027231Y0057036D01*
X0027132Y0057256D01*
X0027038Y0057479D01*
X0026950Y0057704D01*
X0026867Y0057931D01*
X0026789Y0058160D01*
X0026718Y0058391D01*
X0026651Y0058623D01*
X0026591Y0058857D01*
X0026536Y0059092D01*
X0026486Y0059329D01*
X0026443Y0059566D01*
X0026405Y0059805D01*
X0026373Y0060045D01*
X0026347Y0060285D01*
X0026326Y0060526D01*
X0026312Y0060767D01*
X0026303Y0061008D01*
X0026300Y0061250D01*
X0026300Y0066250D01*
X0063686Y0058864D02*
X0063856Y0058698D01*
X0064030Y0058535D01*
X0064208Y0058378D01*
X0064390Y0058224D01*
X0064575Y0058074D01*
X0064764Y0057930D01*
X0064956Y0057789D01*
X0065152Y0057654D01*
X0065351Y0057522D01*
X0065552Y0057396D01*
X0065757Y0057275D01*
X0065965Y0057158D01*
X0066175Y0057047D01*
X0066388Y0056940D01*
X0066603Y0056839D01*
X0066820Y0056742D01*
X0067040Y0056651D01*
X0067262Y0056566D01*
X0067486Y0056485D01*
X0067712Y0056410D01*
X0067940Y0056340D01*
X0068169Y0056276D01*
X0068399Y0056217D01*
X0068631Y0056164D01*
X0068864Y0056116D01*
X0069099Y0056073D01*
X0069334Y0056037D01*
X0069570Y0056006D01*
X0069806Y0055980D01*
X0070044Y0055960D01*
X0070281Y0055946D01*
X0070519Y0055938D01*
X0070757Y0055935D01*
X0071300Y0061250D02*
X0091300Y0061250D01*
X0091440Y0061248D01*
X0091580Y0061242D01*
X0091720Y0061232D01*
X0091860Y0061219D01*
X0091999Y0061201D01*
X0092138Y0061179D01*
X0092275Y0061154D01*
X0092413Y0061125D01*
X0092549Y0061092D01*
X0092684Y0061055D01*
X0092818Y0061014D01*
X0092951Y0060969D01*
X0093083Y0060921D01*
X0093213Y0060869D01*
X0093342Y0060814D01*
X0093469Y0060755D01*
X0093595Y0060692D01*
X0093719Y0060626D01*
X0093840Y0060557D01*
X0093960Y0060484D01*
X0094078Y0060407D01*
X0094193Y0060328D01*
X0094307Y0060245D01*
X0094417Y0060159D01*
X0094526Y0060070D01*
X0094632Y0059978D01*
X0094735Y0059883D01*
X0094836Y0059786D01*
X0094933Y0059685D01*
X0095028Y0059582D01*
X0095120Y0059476D01*
X0095209Y0059367D01*
X0095295Y0059257D01*
X0095378Y0059143D01*
X0095457Y0059028D01*
X0095534Y0058910D01*
X0095607Y0058790D01*
X0095676Y0058669D01*
X0095742Y0058545D01*
X0095805Y0058419D01*
X0095864Y0058292D01*
X0095919Y0058163D01*
X0095971Y0058033D01*
X0096019Y0057901D01*
X0096064Y0057768D01*
X0096105Y0057634D01*
X0096142Y0057499D01*
X0096175Y0057363D01*
X0096204Y0057225D01*
X0096229Y0057088D01*
X0096251Y0056949D01*
X0096269Y0056810D01*
X0096282Y0056670D01*
X0096292Y0056530D01*
X0096298Y0056390D01*
X0096300Y0056250D01*
X0096300Y0055935D01*
X0096300Y0056250D01*
X0096302Y0056390D01*
X0096308Y0056530D01*
X0096318Y0056670D01*
X0096331Y0056810D01*
X0096349Y0056949D01*
X0096371Y0057088D01*
X0096396Y0057225D01*
X0096425Y0057363D01*
X0096458Y0057499D01*
X0096495Y0057634D01*
X0096536Y0057768D01*
X0096581Y0057901D01*
X0096629Y0058033D01*
X0096681Y0058163D01*
X0096736Y0058292D01*
X0096795Y0058419D01*
X0096858Y0058545D01*
X0096924Y0058669D01*
X0096993Y0058790D01*
X0097066Y0058910D01*
X0097143Y0059028D01*
X0097222Y0059143D01*
X0097305Y0059257D01*
X0097391Y0059367D01*
X0097480Y0059476D01*
X0097572Y0059582D01*
X0097667Y0059685D01*
X0097764Y0059786D01*
X0097865Y0059883D01*
X0097968Y0059978D01*
X0098074Y0060070D01*
X0098183Y0060159D01*
X0098293Y0060245D01*
X0098407Y0060328D01*
X0098522Y0060407D01*
X0098640Y0060484D01*
X0098760Y0060557D01*
X0098881Y0060626D01*
X0099005Y0060692D01*
X0099131Y0060755D01*
X0099258Y0060814D01*
X0099387Y0060869D01*
X0099517Y0060921D01*
X0099649Y0060969D01*
X0099782Y0061014D01*
X0099916Y0061055D01*
X0100051Y0061092D01*
X0100187Y0061125D01*
X0100325Y0061154D01*
X0100462Y0061179D01*
X0100601Y0061201D01*
X0100740Y0061219D01*
X0100880Y0061232D01*
X0101020Y0061242D01*
X0101160Y0061248D01*
X0101300Y0061250D01*
X0093125Y0041213D02*
X0110114Y0041213D01*
X0109643Y0039614D02*
X0094724Y0039614D01*
X0096322Y0038016D02*
X0109643Y0038016D01*
X0110060Y0036417D02*
X0097921Y0036417D01*
X0099519Y0034819D02*
X0110816Y0034819D01*
X0112415Y0033220D02*
X0101118Y0033220D01*
X0102716Y0031622D02*
X0120030Y0031622D01*
X0121001Y0030023D02*
X0104315Y0030023D01*
X0105914Y0028425D02*
X0121447Y0028425D01*
X0126300Y0026250D02*
X0126327Y0026522D01*
X0126347Y0026795D01*
X0126361Y0027068D01*
X0126368Y0027342D01*
X0126368Y0027615D01*
X0126362Y0027889D01*
X0126350Y0028162D01*
X0126330Y0028435D01*
X0126304Y0028707D01*
X0126272Y0028979D01*
X0126233Y0029249D01*
X0126187Y0029519D01*
X0126135Y0029788D01*
X0126077Y0030055D01*
X0126012Y0030320D01*
X0125941Y0030585D01*
X0125863Y0030847D01*
X0125779Y0031107D01*
X0125689Y0031365D01*
X0125592Y0031621D01*
X0125489Y0031875D01*
X0125381Y0032126D01*
X0125266Y0032374D01*
X0125145Y0032619D01*
X0125018Y0032862D01*
X0124886Y0033101D01*
X0124748Y0033337D01*
X0124604Y0033570D01*
X0124454Y0033799D01*
X0124299Y0034024D01*
X0124139Y0034246D01*
X0123973Y0034464D01*
X0123803Y0034677D01*
X0123627Y0034887D01*
X0123446Y0035092D01*
X0123260Y0035292D01*
X0123069Y0035488D01*
X0122874Y0035680D01*
X0122674Y0035867D01*
X0122469Y0036048D01*
X0122261Y0036225D01*
X0122048Y0036397D01*
X0121831Y0036563D01*
X0121610Y0036724D01*
X0121385Y0036880D01*
X0121156Y0037031D01*
X0120924Y0037175D01*
X0120689Y0037315D01*
X0120450Y0037448D01*
X0120208Y0037575D01*
X0119963Y0037697D01*
X0119715Y0037813D01*
X0119465Y0037923D01*
X0119211Y0038026D01*
X0118956Y0038124D01*
X0118698Y0038215D01*
X0118438Y0038300D01*
X0118176Y0038379D01*
X0117912Y0038451D01*
X0117647Y0038517D01*
X0117380Y0038577D01*
X0117112Y0038630D01*
X0116842Y0038676D01*
X0116571Y0038716D01*
X0116300Y0038750D01*
X0131615Y0051250D02*
X0131749Y0051252D01*
X0131882Y0051258D01*
X0132016Y0051267D01*
X0132149Y0051281D01*
X0132282Y0051298D01*
X0132414Y0051319D01*
X0132545Y0051343D01*
X0132676Y0051372D01*
X0132806Y0051404D01*
X0132935Y0051440D01*
X0133063Y0051479D01*
X0133189Y0051522D01*
X0133315Y0051569D01*
X0133439Y0051620D01*
X0133561Y0051673D01*
X0133682Y0051731D01*
X0133801Y0051791D01*
X0133919Y0051856D01*
X0134034Y0051923D01*
X0134148Y0051994D01*
X0134259Y0052068D01*
X0134369Y0052145D01*
X0134476Y0052225D01*
X0134581Y0052308D01*
X0134683Y0052394D01*
X0134783Y0052483D01*
X0134880Y0052575D01*
X0134975Y0052670D01*
X0135067Y0052767D01*
X0135156Y0052867D01*
X0135242Y0052969D01*
X0135325Y0053074D01*
X0135405Y0053181D01*
X0135482Y0053291D01*
X0135556Y0053402D01*
X0135627Y0053516D01*
X0135694Y0053631D01*
X0135759Y0053749D01*
X0135819Y0053868D01*
X0135877Y0053989D01*
X0135930Y0054111D01*
X0135981Y0054235D01*
X0136028Y0054361D01*
X0136071Y0054487D01*
X0136110Y0054615D01*
X0136146Y0054744D01*
X0136178Y0054874D01*
X0136207Y0055005D01*
X0136231Y0055136D01*
X0136252Y0055268D01*
X0136269Y0055401D01*
X0136283Y0055534D01*
X0136292Y0055668D01*
X0136298Y0055801D01*
X0136300Y0055935D01*
X0166300Y0041250D02*
X0166542Y0041253D01*
X0166783Y0041262D01*
X0167024Y0041276D01*
X0167265Y0041297D01*
X0167505Y0041323D01*
X0167745Y0041355D01*
X0167984Y0041393D01*
X0168221Y0041436D01*
X0168458Y0041486D01*
X0168693Y0041541D01*
X0168927Y0041601D01*
X0169159Y0041668D01*
X0169390Y0041739D01*
X0169619Y0041817D01*
X0169846Y0041900D01*
X0170071Y0041988D01*
X0170294Y0042082D01*
X0170514Y0042181D01*
X0170732Y0042286D01*
X0170947Y0042395D01*
X0171160Y0042510D01*
X0171370Y0042630D01*
X0171576Y0042755D01*
X0171780Y0042885D01*
X0171981Y0043020D01*
X0172178Y0043160D01*
X0172372Y0043304D01*
X0172562Y0043453D01*
X0172748Y0043607D01*
X0172931Y0043765D01*
X0173110Y0043927D01*
X0173285Y0044094D01*
X0173456Y0044265D01*
X0173623Y0044440D01*
X0173785Y0044619D01*
X0173943Y0044802D01*
X0174097Y0044988D01*
X0174246Y0045178D01*
X0174390Y0045372D01*
X0174530Y0045569D01*
X0174665Y0045770D01*
X0174795Y0045974D01*
X0174920Y0046180D01*
X0175040Y0046390D01*
X0175155Y0046603D01*
X0175264Y0046818D01*
X0175369Y0047036D01*
X0175468Y0047256D01*
X0175562Y0047479D01*
X0175650Y0047704D01*
X0175733Y0047931D01*
X0175811Y0048160D01*
X0175882Y0048391D01*
X0175949Y0048623D01*
X0176009Y0048857D01*
X0176064Y0049092D01*
X0176114Y0049329D01*
X0176157Y0049566D01*
X0176195Y0049805D01*
X0176227Y0050045D01*
X0176253Y0050285D01*
X0176274Y0050526D01*
X0176288Y0050767D01*
X0176297Y0051008D01*
X0176300Y0051250D01*
X0179683Y0044830D02*
X0201877Y0044830D01*
X0201086Y0044039D01*
X0200051Y0041540D01*
X0200051Y0038834D01*
X0201086Y0036335D01*
X0201172Y0036250D01*
X0201086Y0036165D01*
X0200051Y0033666D01*
X0200051Y0030960D01*
X0201086Y0028461D01*
X0202999Y0026548D01*
X0204043Y0026116D01*
X0203854Y0025979D01*
X0203342Y0025467D01*
X0202917Y0024881D01*
X0202588Y0024236D01*
X0202364Y0023548D01*
X0202251Y0022833D01*
X0202251Y0022570D01*
X0206751Y0022570D01*
X0206751Y0022370D01*
X0206951Y0022370D01*
X0206951Y0017884D01*
X0206673Y0017403D01*
X0205969Y0014775D01*
X0205969Y0012055D01*
X0206185Y0011250D01*
X0180598Y0011250D01*
X0180024Y0011824D01*
X0179584Y0012006D01*
X0179980Y0012235D01*
X0180315Y0012570D01*
X0180552Y0012980D01*
X0180675Y0013438D01*
X0180675Y0016250D01*
X0180675Y0019062D01*
X0180552Y0019520D01*
X0180315Y0019930D01*
X0179980Y0020265D01*
X0179570Y0020502D01*
X0179112Y0020625D01*
X0176300Y0020625D01*
X0176300Y0016250D01*
X0176300Y0016250D01*
X0180675Y0016250D01*
X0176300Y0016250D01*
X0176300Y0016250D01*
X0176300Y0020625D01*
X0173488Y0020625D01*
X0173030Y0020502D01*
X0172620Y0020265D01*
X0172285Y0019930D01*
X0172056Y0019534D01*
X0171874Y0019974D01*
X0171100Y0020748D01*
X0171100Y0037214D01*
X0172013Y0037459D01*
X0175387Y0039407D01*
X0178143Y0042163D01*
X0179683Y0044830D01*
X0179440Y0044410D02*
X0201457Y0044410D01*
X0200578Y0042811D02*
X0178517Y0042811D01*
X0178143Y0042163D02*
X0178143Y0042163D01*
X0177193Y0041213D02*
X0200051Y0041213D01*
X0200051Y0039614D02*
X0175595Y0039614D01*
X0172978Y0038016D02*
X0200390Y0038016D01*
X0201052Y0036417D02*
X0171100Y0036417D01*
X0172013Y0037459D02*
X0172013Y0037459D01*
X0171100Y0034819D02*
X0200529Y0034819D01*
X0200051Y0033220D02*
X0171100Y0033220D01*
X0171100Y0031622D02*
X0200051Y0031622D01*
X0200439Y0030023D02*
X0171100Y0030023D01*
X0171100Y0028425D02*
X0201123Y0028425D01*
X0202721Y0026826D02*
X0171100Y0026826D01*
X0171100Y0025228D02*
X0203169Y0025228D01*
X0202391Y0023629D02*
X0171100Y0023629D01*
X0171100Y0022031D02*
X0202263Y0022031D01*
X0202251Y0022108D02*
X0202364Y0021393D01*
X0202588Y0020705D01*
X0202917Y0020060D01*
X0203342Y0019474D01*
X0203854Y0018962D01*
X0204440Y0018536D01*
X0205085Y0018207D01*
X0205774Y0017984D01*
X0206489Y0017870D01*
X0206751Y0017870D01*
X0206751Y0022370D01*
X0202251Y0022370D01*
X0202251Y0022108D01*
X0202727Y0020432D02*
X0179691Y0020432D01*
X0180675Y0018834D02*
X0204031Y0018834D01*
X0206751Y0018834D02*
X0206951Y0018834D01*
X0206951Y0020432D02*
X0206751Y0020432D01*
X0206751Y0022031D02*
X0206951Y0022031D01*
X0206628Y0017235D02*
X0180675Y0017235D01*
X0180675Y0015637D02*
X0206200Y0015637D01*
X0205969Y0014038D02*
X0180675Y0014038D01*
X0180185Y0012440D02*
X0205969Y0012440D01*
X0176300Y0017235D02*
X0176300Y0017235D01*
X0176300Y0018834D02*
X0176300Y0018834D01*
X0176300Y0020432D02*
X0176300Y0020432D01*
X0172909Y0020432D02*
X0171416Y0020432D01*
X0166300Y0016250D02*
X0166300Y0041250D01*
X0196300Y0056250D02*
X0196300Y0056250D01*
X0200675Y0056250D01*
X0200675Y0059062D01*
X0200552Y0059520D01*
X0200315Y0059930D01*
X0199980Y0060265D01*
X0199584Y0060494D01*
X0200024Y0060676D01*
X0200598Y0061250D01*
X0206185Y0061250D01*
X0205969Y0060445D01*
X0205969Y0057725D01*
X0206209Y0056830D01*
X0205499Y0056830D01*
X0202999Y0055794D01*
X0202435Y0055230D01*
X0200675Y0055230D01*
X0200675Y0056250D01*
X0196300Y0056250D01*
X0200675Y0055599D02*
X0202804Y0055599D01*
X0200675Y0057198D02*
X0206110Y0057198D01*
X0205969Y0058796D02*
X0200675Y0058796D01*
X0199755Y0060395D02*
X0205969Y0060395D01*
X0205969Y0092365D02*
X0180110Y0092365D01*
X0180675Y0093964D02*
X0205969Y0093964D01*
X0206180Y0095562D02*
X0180675Y0095562D01*
X0180675Y0096250D02*
X0176300Y0096250D01*
X0176300Y0096250D01*
X0176300Y0100625D01*
X0176300Y0096250D01*
X0180675Y0096250D01*
X0180675Y0097161D02*
X0206608Y0097161D01*
X0206751Y0098759D02*
X0206951Y0098759D01*
X0206951Y0100358D02*
X0206751Y0100358D01*
X0206751Y0101956D02*
X0206951Y0101956D01*
X0204133Y0098759D02*
X0180675Y0098759D01*
X0179820Y0100358D02*
X0202765Y0100358D01*
X0176300Y0100358D02*
X0176300Y0100358D01*
X0176300Y0098759D02*
X0176300Y0098759D01*
X0176300Y0097161D02*
X0176300Y0097161D01*
X0176300Y0096250D02*
X0176300Y0096250D01*
X0089229Y0038321D02*
X0089059Y0038487D01*
X0088885Y0038650D01*
X0088707Y0038807D01*
X0088525Y0038961D01*
X0088340Y0039111D01*
X0088151Y0039255D01*
X0087959Y0039396D01*
X0087763Y0039531D01*
X0087564Y0039663D01*
X0087363Y0039789D01*
X0087158Y0039910D01*
X0086950Y0040027D01*
X0086740Y0040138D01*
X0086527Y0040245D01*
X0086312Y0040346D01*
X0086095Y0040443D01*
X0085875Y0040534D01*
X0085653Y0040619D01*
X0085429Y0040700D01*
X0085203Y0040775D01*
X0084975Y0040845D01*
X0084746Y0040909D01*
X0084516Y0040968D01*
X0084284Y0041021D01*
X0084051Y0041069D01*
X0083816Y0041112D01*
X0083581Y0041148D01*
X0083345Y0041179D01*
X0083109Y0041205D01*
X0082871Y0041225D01*
X0082634Y0041239D01*
X0082396Y0041247D01*
X0082158Y0041250D01*
X0071300Y0061250D02*
X0071160Y0061252D01*
X0071020Y0061258D01*
X0070880Y0061268D01*
X0070740Y0061281D01*
X0070601Y0061299D01*
X0070462Y0061321D01*
X0070325Y0061346D01*
X0070187Y0061375D01*
X0070051Y0061408D01*
X0069916Y0061445D01*
X0069782Y0061486D01*
X0069649Y0061531D01*
X0069517Y0061579D01*
X0069387Y0061631D01*
X0069258Y0061686D01*
X0069131Y0061745D01*
X0069005Y0061808D01*
X0068881Y0061874D01*
X0068760Y0061943D01*
X0068640Y0062016D01*
X0068522Y0062093D01*
X0068407Y0062172D01*
X0068293Y0062255D01*
X0068183Y0062341D01*
X0068074Y0062430D01*
X0067968Y0062522D01*
X0067865Y0062617D01*
X0067764Y0062714D01*
X0067667Y0062815D01*
X0067572Y0062918D01*
X0067480Y0063024D01*
X0067391Y0063133D01*
X0067305Y0063243D01*
X0067222Y0063357D01*
X0067143Y0063472D01*
X0067066Y0063590D01*
X0066993Y0063710D01*
X0066924Y0063831D01*
X0066858Y0063955D01*
X0066795Y0064081D01*
X0066736Y0064208D01*
X0066681Y0064337D01*
X0066629Y0064467D01*
X0066581Y0064599D01*
X0066536Y0064732D01*
X0066495Y0064866D01*
X0066458Y0065001D01*
X0066425Y0065137D01*
X0066396Y0065275D01*
X0066371Y0065412D01*
X0066349Y0065551D01*
X0066331Y0065690D01*
X0066318Y0065830D01*
X0066308Y0065970D01*
X0066302Y0066110D01*
X0066300Y0066250D01*
X0079229Y0093321D02*
X0079059Y0093487D01*
X0078885Y0093650D01*
X0078707Y0093807D01*
X0078525Y0093961D01*
X0078340Y0094111D01*
X0078151Y0094255D01*
X0077959Y0094396D01*
X0077763Y0094531D01*
X0077564Y0094663D01*
X0077363Y0094789D01*
X0077158Y0094910D01*
X0076950Y0095027D01*
X0076740Y0095138D01*
X0076527Y0095245D01*
X0076312Y0095346D01*
X0076095Y0095443D01*
X0075875Y0095534D01*
X0075653Y0095619D01*
X0075429Y0095700D01*
X0075203Y0095775D01*
X0074975Y0095845D01*
X0074746Y0095909D01*
X0074516Y0095968D01*
X0074284Y0096021D01*
X0074051Y0096069D01*
X0073816Y0096112D01*
X0073581Y0096148D01*
X0073345Y0096179D01*
X0073109Y0096205D01*
X0072871Y0096225D01*
X0072634Y0096239D01*
X0072396Y0096247D01*
X0072158Y0096250D01*
X0113371Y0014179D02*
X0113537Y0014009D01*
X0113700Y0013835D01*
X0113857Y0013657D01*
X0114011Y0013475D01*
X0114161Y0013290D01*
X0114305Y0013101D01*
X0114446Y0012909D01*
X0114581Y0012713D01*
X0114713Y0012514D01*
X0114839Y0012313D01*
X0114960Y0012108D01*
X0115077Y0011900D01*
X0115188Y0011690D01*
X0115295Y0011477D01*
X0115396Y0011262D01*
X0115493Y0011045D01*
X0115584Y0010825D01*
X0115669Y0010603D01*
X0115750Y0010379D01*
X0115825Y0010153D01*
X0115895Y0009925D01*
X0115959Y0009696D01*
X0116018Y0009466D01*
X0116071Y0009234D01*
X0116119Y0009001D01*
X0116162Y0008766D01*
X0116198Y0008531D01*
X0116229Y0008295D01*
X0116255Y0008059D01*
X0116275Y0007821D01*
X0116289Y0007584D01*
X0116297Y0007346D01*
X0116300Y0007108D01*
X0079229Y0013321D02*
X0079059Y0013487D01*
X0078885Y0013650D01*
X0078707Y0013807D01*
X0078525Y0013961D01*
X0078340Y0014111D01*
X0078151Y0014255D01*
X0077959Y0014396D01*
X0077763Y0014531D01*
X0077564Y0014663D01*
X0077363Y0014789D01*
X0077158Y0014910D01*
X0076950Y0015027D01*
X0076740Y0015138D01*
X0076527Y0015245D01*
X0076312Y0015346D01*
X0076095Y0015443D01*
X0075875Y0015534D01*
X0075653Y0015619D01*
X0075429Y0015700D01*
X0075203Y0015775D01*
X0074975Y0015845D01*
X0074746Y0015909D01*
X0074516Y0015968D01*
X0074284Y0016021D01*
X0074051Y0016069D01*
X0073816Y0016112D01*
X0073581Y0016148D01*
X0073345Y0016179D01*
X0073109Y0016205D01*
X0072871Y0016225D01*
X0072634Y0016239D01*
X0072396Y0016247D01*
X0072158Y0016250D01*
D16*
X0101300Y0036250D03*
X0116300Y0038750D03*
X0116300Y0056250D03*
X0141300Y0031250D03*
X0141300Y0111250D03*
X0116300Y0118750D03*
X0101300Y0116250D03*
X0116300Y0136250D03*
X0141300Y0191250D03*
X0116300Y0198750D03*
X0101300Y0196250D03*
X0116300Y0216250D03*
D17*
X0176300Y0216250D02*
X0176300Y0211250D01*
X0177520Y0210030D01*
X0206851Y0210030D01*
X0176300Y0136250D02*
X0176300Y0131250D01*
X0177520Y0130030D01*
X0206851Y0130030D01*
X0176300Y0056250D02*
X0176300Y0051250D01*
X0177520Y0050030D01*
X0206851Y0050030D01*
M02*
