G75*
%MOIN*%
%OFA0B0*%
%FSLAX25Y25*%
%IPPOS*%
%LPD*%
%AMOC8*
5,1,8,0,0,1.08239X$1,22.5*
%
%ADD10C,0.00000*%
%ADD11R,0.05550X0.05550*%
%ADD12C,0.05550*%
%ADD13C,0.06000*%
%ADD14C,0.13061*%
%ADD15C,0.04731*%
%ADD16C,0.05715*%
D10*
X0001300Y0001250D02*
X0001300Y0231211D01*
X0226339Y0231250D01*
X0226300Y0001250D01*
X0001300Y0001250D01*
X0214529Y0027392D02*
X0214531Y0027485D01*
X0214537Y0027577D01*
X0214547Y0027669D01*
X0214561Y0027760D01*
X0214578Y0027851D01*
X0214600Y0027941D01*
X0214625Y0028030D01*
X0214654Y0028118D01*
X0214687Y0028204D01*
X0214724Y0028289D01*
X0214764Y0028373D01*
X0214808Y0028454D01*
X0214855Y0028534D01*
X0214905Y0028612D01*
X0214959Y0028687D01*
X0215016Y0028760D01*
X0215076Y0028830D01*
X0215139Y0028898D01*
X0215205Y0028963D01*
X0215273Y0029025D01*
X0215344Y0029085D01*
X0215418Y0029141D01*
X0215494Y0029194D01*
X0215572Y0029243D01*
X0215652Y0029290D01*
X0215734Y0029332D01*
X0215818Y0029372D01*
X0215903Y0029407D01*
X0215990Y0029439D01*
X0216078Y0029468D01*
X0216167Y0029492D01*
X0216257Y0029513D01*
X0216348Y0029529D01*
X0216440Y0029542D01*
X0216532Y0029551D01*
X0216625Y0029556D01*
X0216717Y0029557D01*
X0216810Y0029554D01*
X0216902Y0029547D01*
X0216994Y0029536D01*
X0217085Y0029521D01*
X0217176Y0029503D01*
X0217266Y0029480D01*
X0217354Y0029454D01*
X0217442Y0029424D01*
X0217528Y0029390D01*
X0217612Y0029353D01*
X0217695Y0029311D01*
X0217776Y0029267D01*
X0217856Y0029219D01*
X0217933Y0029168D01*
X0218007Y0029113D01*
X0218080Y0029055D01*
X0218150Y0028995D01*
X0218217Y0028931D01*
X0218281Y0028865D01*
X0218343Y0028795D01*
X0218401Y0028724D01*
X0218456Y0028650D01*
X0218508Y0028573D01*
X0218557Y0028494D01*
X0218603Y0028414D01*
X0218645Y0028331D01*
X0218683Y0028247D01*
X0218718Y0028161D01*
X0218749Y0028074D01*
X0218776Y0027986D01*
X0218799Y0027896D01*
X0218819Y0027806D01*
X0218835Y0027715D01*
X0218847Y0027623D01*
X0218855Y0027531D01*
X0218859Y0027438D01*
X0218859Y0027346D01*
X0218855Y0027253D01*
X0218847Y0027161D01*
X0218835Y0027069D01*
X0218819Y0026978D01*
X0218799Y0026888D01*
X0218776Y0026798D01*
X0218749Y0026710D01*
X0218718Y0026623D01*
X0218683Y0026537D01*
X0218645Y0026453D01*
X0218603Y0026370D01*
X0218557Y0026290D01*
X0218508Y0026211D01*
X0218456Y0026134D01*
X0218401Y0026060D01*
X0218343Y0025989D01*
X0218281Y0025919D01*
X0218217Y0025853D01*
X0218150Y0025789D01*
X0218080Y0025729D01*
X0218007Y0025671D01*
X0217933Y0025616D01*
X0217856Y0025565D01*
X0217777Y0025517D01*
X0217695Y0025473D01*
X0217612Y0025431D01*
X0217528Y0025394D01*
X0217442Y0025360D01*
X0217354Y0025330D01*
X0217266Y0025304D01*
X0217176Y0025281D01*
X0217085Y0025263D01*
X0216994Y0025248D01*
X0216902Y0025237D01*
X0216810Y0025230D01*
X0216717Y0025227D01*
X0216625Y0025228D01*
X0216532Y0025233D01*
X0216440Y0025242D01*
X0216348Y0025255D01*
X0216257Y0025271D01*
X0216167Y0025292D01*
X0216078Y0025316D01*
X0215990Y0025345D01*
X0215903Y0025377D01*
X0215818Y0025412D01*
X0215734Y0025452D01*
X0215652Y0025494D01*
X0215572Y0025541D01*
X0215494Y0025590D01*
X0215418Y0025643D01*
X0215344Y0025699D01*
X0215273Y0025759D01*
X0215205Y0025821D01*
X0215139Y0025886D01*
X0215076Y0025954D01*
X0215016Y0026024D01*
X0214959Y0026097D01*
X0214905Y0026172D01*
X0214855Y0026250D01*
X0214808Y0026330D01*
X0214764Y0026411D01*
X0214724Y0026495D01*
X0214687Y0026580D01*
X0214654Y0026666D01*
X0214625Y0026754D01*
X0214600Y0026843D01*
X0214578Y0026933D01*
X0214561Y0027024D01*
X0214547Y0027115D01*
X0214537Y0027207D01*
X0214531Y0027299D01*
X0214529Y0027392D01*
X0214529Y0045108D02*
X0214531Y0045201D01*
X0214537Y0045293D01*
X0214547Y0045385D01*
X0214561Y0045476D01*
X0214578Y0045567D01*
X0214600Y0045657D01*
X0214625Y0045746D01*
X0214654Y0045834D01*
X0214687Y0045920D01*
X0214724Y0046005D01*
X0214764Y0046089D01*
X0214808Y0046170D01*
X0214855Y0046250D01*
X0214905Y0046328D01*
X0214959Y0046403D01*
X0215016Y0046476D01*
X0215076Y0046546D01*
X0215139Y0046614D01*
X0215205Y0046679D01*
X0215273Y0046741D01*
X0215344Y0046801D01*
X0215418Y0046857D01*
X0215494Y0046910D01*
X0215572Y0046959D01*
X0215652Y0047006D01*
X0215734Y0047048D01*
X0215818Y0047088D01*
X0215903Y0047123D01*
X0215990Y0047155D01*
X0216078Y0047184D01*
X0216167Y0047208D01*
X0216257Y0047229D01*
X0216348Y0047245D01*
X0216440Y0047258D01*
X0216532Y0047267D01*
X0216625Y0047272D01*
X0216717Y0047273D01*
X0216810Y0047270D01*
X0216902Y0047263D01*
X0216994Y0047252D01*
X0217085Y0047237D01*
X0217176Y0047219D01*
X0217266Y0047196D01*
X0217354Y0047170D01*
X0217442Y0047140D01*
X0217528Y0047106D01*
X0217612Y0047069D01*
X0217695Y0047027D01*
X0217776Y0046983D01*
X0217856Y0046935D01*
X0217933Y0046884D01*
X0218007Y0046829D01*
X0218080Y0046771D01*
X0218150Y0046711D01*
X0218217Y0046647D01*
X0218281Y0046581D01*
X0218343Y0046511D01*
X0218401Y0046440D01*
X0218456Y0046366D01*
X0218508Y0046289D01*
X0218557Y0046210D01*
X0218603Y0046130D01*
X0218645Y0046047D01*
X0218683Y0045963D01*
X0218718Y0045877D01*
X0218749Y0045790D01*
X0218776Y0045702D01*
X0218799Y0045612D01*
X0218819Y0045522D01*
X0218835Y0045431D01*
X0218847Y0045339D01*
X0218855Y0045247D01*
X0218859Y0045154D01*
X0218859Y0045062D01*
X0218855Y0044969D01*
X0218847Y0044877D01*
X0218835Y0044785D01*
X0218819Y0044694D01*
X0218799Y0044604D01*
X0218776Y0044514D01*
X0218749Y0044426D01*
X0218718Y0044339D01*
X0218683Y0044253D01*
X0218645Y0044169D01*
X0218603Y0044086D01*
X0218557Y0044006D01*
X0218508Y0043927D01*
X0218456Y0043850D01*
X0218401Y0043776D01*
X0218343Y0043705D01*
X0218281Y0043635D01*
X0218217Y0043569D01*
X0218150Y0043505D01*
X0218080Y0043445D01*
X0218007Y0043387D01*
X0217933Y0043332D01*
X0217856Y0043281D01*
X0217777Y0043233D01*
X0217695Y0043189D01*
X0217612Y0043147D01*
X0217528Y0043110D01*
X0217442Y0043076D01*
X0217354Y0043046D01*
X0217266Y0043020D01*
X0217176Y0042997D01*
X0217085Y0042979D01*
X0216994Y0042964D01*
X0216902Y0042953D01*
X0216810Y0042946D01*
X0216717Y0042943D01*
X0216625Y0042944D01*
X0216532Y0042949D01*
X0216440Y0042958D01*
X0216348Y0042971D01*
X0216257Y0042987D01*
X0216167Y0043008D01*
X0216078Y0043032D01*
X0215990Y0043061D01*
X0215903Y0043093D01*
X0215818Y0043128D01*
X0215734Y0043168D01*
X0215652Y0043210D01*
X0215572Y0043257D01*
X0215494Y0043306D01*
X0215418Y0043359D01*
X0215344Y0043415D01*
X0215273Y0043475D01*
X0215205Y0043537D01*
X0215139Y0043602D01*
X0215076Y0043670D01*
X0215016Y0043740D01*
X0214959Y0043813D01*
X0214905Y0043888D01*
X0214855Y0043966D01*
X0214808Y0044046D01*
X0214764Y0044127D01*
X0214724Y0044211D01*
X0214687Y0044296D01*
X0214654Y0044382D01*
X0214625Y0044470D01*
X0214600Y0044559D01*
X0214578Y0044649D01*
X0214561Y0044740D01*
X0214547Y0044831D01*
X0214537Y0044923D01*
X0214531Y0045015D01*
X0214529Y0045108D01*
X0214529Y0107392D02*
X0214531Y0107485D01*
X0214537Y0107577D01*
X0214547Y0107669D01*
X0214561Y0107760D01*
X0214578Y0107851D01*
X0214600Y0107941D01*
X0214625Y0108030D01*
X0214654Y0108118D01*
X0214687Y0108204D01*
X0214724Y0108289D01*
X0214764Y0108373D01*
X0214808Y0108454D01*
X0214855Y0108534D01*
X0214905Y0108612D01*
X0214959Y0108687D01*
X0215016Y0108760D01*
X0215076Y0108830D01*
X0215139Y0108898D01*
X0215205Y0108963D01*
X0215273Y0109025D01*
X0215344Y0109085D01*
X0215418Y0109141D01*
X0215494Y0109194D01*
X0215572Y0109243D01*
X0215652Y0109290D01*
X0215734Y0109332D01*
X0215818Y0109372D01*
X0215903Y0109407D01*
X0215990Y0109439D01*
X0216078Y0109468D01*
X0216167Y0109492D01*
X0216257Y0109513D01*
X0216348Y0109529D01*
X0216440Y0109542D01*
X0216532Y0109551D01*
X0216625Y0109556D01*
X0216717Y0109557D01*
X0216810Y0109554D01*
X0216902Y0109547D01*
X0216994Y0109536D01*
X0217085Y0109521D01*
X0217176Y0109503D01*
X0217266Y0109480D01*
X0217354Y0109454D01*
X0217442Y0109424D01*
X0217528Y0109390D01*
X0217612Y0109353D01*
X0217695Y0109311D01*
X0217776Y0109267D01*
X0217856Y0109219D01*
X0217933Y0109168D01*
X0218007Y0109113D01*
X0218080Y0109055D01*
X0218150Y0108995D01*
X0218217Y0108931D01*
X0218281Y0108865D01*
X0218343Y0108795D01*
X0218401Y0108724D01*
X0218456Y0108650D01*
X0218508Y0108573D01*
X0218557Y0108494D01*
X0218603Y0108414D01*
X0218645Y0108331D01*
X0218683Y0108247D01*
X0218718Y0108161D01*
X0218749Y0108074D01*
X0218776Y0107986D01*
X0218799Y0107896D01*
X0218819Y0107806D01*
X0218835Y0107715D01*
X0218847Y0107623D01*
X0218855Y0107531D01*
X0218859Y0107438D01*
X0218859Y0107346D01*
X0218855Y0107253D01*
X0218847Y0107161D01*
X0218835Y0107069D01*
X0218819Y0106978D01*
X0218799Y0106888D01*
X0218776Y0106798D01*
X0218749Y0106710D01*
X0218718Y0106623D01*
X0218683Y0106537D01*
X0218645Y0106453D01*
X0218603Y0106370D01*
X0218557Y0106290D01*
X0218508Y0106211D01*
X0218456Y0106134D01*
X0218401Y0106060D01*
X0218343Y0105989D01*
X0218281Y0105919D01*
X0218217Y0105853D01*
X0218150Y0105789D01*
X0218080Y0105729D01*
X0218007Y0105671D01*
X0217933Y0105616D01*
X0217856Y0105565D01*
X0217777Y0105517D01*
X0217695Y0105473D01*
X0217612Y0105431D01*
X0217528Y0105394D01*
X0217442Y0105360D01*
X0217354Y0105330D01*
X0217266Y0105304D01*
X0217176Y0105281D01*
X0217085Y0105263D01*
X0216994Y0105248D01*
X0216902Y0105237D01*
X0216810Y0105230D01*
X0216717Y0105227D01*
X0216625Y0105228D01*
X0216532Y0105233D01*
X0216440Y0105242D01*
X0216348Y0105255D01*
X0216257Y0105271D01*
X0216167Y0105292D01*
X0216078Y0105316D01*
X0215990Y0105345D01*
X0215903Y0105377D01*
X0215818Y0105412D01*
X0215734Y0105452D01*
X0215652Y0105494D01*
X0215572Y0105541D01*
X0215494Y0105590D01*
X0215418Y0105643D01*
X0215344Y0105699D01*
X0215273Y0105759D01*
X0215205Y0105821D01*
X0215139Y0105886D01*
X0215076Y0105954D01*
X0215016Y0106024D01*
X0214959Y0106097D01*
X0214905Y0106172D01*
X0214855Y0106250D01*
X0214808Y0106330D01*
X0214764Y0106411D01*
X0214724Y0106495D01*
X0214687Y0106580D01*
X0214654Y0106666D01*
X0214625Y0106754D01*
X0214600Y0106843D01*
X0214578Y0106933D01*
X0214561Y0107024D01*
X0214547Y0107115D01*
X0214537Y0107207D01*
X0214531Y0107299D01*
X0214529Y0107392D01*
X0214529Y0125108D02*
X0214531Y0125201D01*
X0214537Y0125293D01*
X0214547Y0125385D01*
X0214561Y0125476D01*
X0214578Y0125567D01*
X0214600Y0125657D01*
X0214625Y0125746D01*
X0214654Y0125834D01*
X0214687Y0125920D01*
X0214724Y0126005D01*
X0214764Y0126089D01*
X0214808Y0126170D01*
X0214855Y0126250D01*
X0214905Y0126328D01*
X0214959Y0126403D01*
X0215016Y0126476D01*
X0215076Y0126546D01*
X0215139Y0126614D01*
X0215205Y0126679D01*
X0215273Y0126741D01*
X0215344Y0126801D01*
X0215418Y0126857D01*
X0215494Y0126910D01*
X0215572Y0126959D01*
X0215652Y0127006D01*
X0215734Y0127048D01*
X0215818Y0127088D01*
X0215903Y0127123D01*
X0215990Y0127155D01*
X0216078Y0127184D01*
X0216167Y0127208D01*
X0216257Y0127229D01*
X0216348Y0127245D01*
X0216440Y0127258D01*
X0216532Y0127267D01*
X0216625Y0127272D01*
X0216717Y0127273D01*
X0216810Y0127270D01*
X0216902Y0127263D01*
X0216994Y0127252D01*
X0217085Y0127237D01*
X0217176Y0127219D01*
X0217266Y0127196D01*
X0217354Y0127170D01*
X0217442Y0127140D01*
X0217528Y0127106D01*
X0217612Y0127069D01*
X0217695Y0127027D01*
X0217776Y0126983D01*
X0217856Y0126935D01*
X0217933Y0126884D01*
X0218007Y0126829D01*
X0218080Y0126771D01*
X0218150Y0126711D01*
X0218217Y0126647D01*
X0218281Y0126581D01*
X0218343Y0126511D01*
X0218401Y0126440D01*
X0218456Y0126366D01*
X0218508Y0126289D01*
X0218557Y0126210D01*
X0218603Y0126130D01*
X0218645Y0126047D01*
X0218683Y0125963D01*
X0218718Y0125877D01*
X0218749Y0125790D01*
X0218776Y0125702D01*
X0218799Y0125612D01*
X0218819Y0125522D01*
X0218835Y0125431D01*
X0218847Y0125339D01*
X0218855Y0125247D01*
X0218859Y0125154D01*
X0218859Y0125062D01*
X0218855Y0124969D01*
X0218847Y0124877D01*
X0218835Y0124785D01*
X0218819Y0124694D01*
X0218799Y0124604D01*
X0218776Y0124514D01*
X0218749Y0124426D01*
X0218718Y0124339D01*
X0218683Y0124253D01*
X0218645Y0124169D01*
X0218603Y0124086D01*
X0218557Y0124006D01*
X0218508Y0123927D01*
X0218456Y0123850D01*
X0218401Y0123776D01*
X0218343Y0123705D01*
X0218281Y0123635D01*
X0218217Y0123569D01*
X0218150Y0123505D01*
X0218080Y0123445D01*
X0218007Y0123387D01*
X0217933Y0123332D01*
X0217856Y0123281D01*
X0217777Y0123233D01*
X0217695Y0123189D01*
X0217612Y0123147D01*
X0217528Y0123110D01*
X0217442Y0123076D01*
X0217354Y0123046D01*
X0217266Y0123020D01*
X0217176Y0122997D01*
X0217085Y0122979D01*
X0216994Y0122964D01*
X0216902Y0122953D01*
X0216810Y0122946D01*
X0216717Y0122943D01*
X0216625Y0122944D01*
X0216532Y0122949D01*
X0216440Y0122958D01*
X0216348Y0122971D01*
X0216257Y0122987D01*
X0216167Y0123008D01*
X0216078Y0123032D01*
X0215990Y0123061D01*
X0215903Y0123093D01*
X0215818Y0123128D01*
X0215734Y0123168D01*
X0215652Y0123210D01*
X0215572Y0123257D01*
X0215494Y0123306D01*
X0215418Y0123359D01*
X0215344Y0123415D01*
X0215273Y0123475D01*
X0215205Y0123537D01*
X0215139Y0123602D01*
X0215076Y0123670D01*
X0215016Y0123740D01*
X0214959Y0123813D01*
X0214905Y0123888D01*
X0214855Y0123966D01*
X0214808Y0124046D01*
X0214764Y0124127D01*
X0214724Y0124211D01*
X0214687Y0124296D01*
X0214654Y0124382D01*
X0214625Y0124470D01*
X0214600Y0124559D01*
X0214578Y0124649D01*
X0214561Y0124740D01*
X0214547Y0124831D01*
X0214537Y0124923D01*
X0214531Y0125015D01*
X0214529Y0125108D01*
X0214529Y0187392D02*
X0214531Y0187485D01*
X0214537Y0187577D01*
X0214547Y0187669D01*
X0214561Y0187760D01*
X0214578Y0187851D01*
X0214600Y0187941D01*
X0214625Y0188030D01*
X0214654Y0188118D01*
X0214687Y0188204D01*
X0214724Y0188289D01*
X0214764Y0188373D01*
X0214808Y0188454D01*
X0214855Y0188534D01*
X0214905Y0188612D01*
X0214959Y0188687D01*
X0215016Y0188760D01*
X0215076Y0188830D01*
X0215139Y0188898D01*
X0215205Y0188963D01*
X0215273Y0189025D01*
X0215344Y0189085D01*
X0215418Y0189141D01*
X0215494Y0189194D01*
X0215572Y0189243D01*
X0215652Y0189290D01*
X0215734Y0189332D01*
X0215818Y0189372D01*
X0215903Y0189407D01*
X0215990Y0189439D01*
X0216078Y0189468D01*
X0216167Y0189492D01*
X0216257Y0189513D01*
X0216348Y0189529D01*
X0216440Y0189542D01*
X0216532Y0189551D01*
X0216625Y0189556D01*
X0216717Y0189557D01*
X0216810Y0189554D01*
X0216902Y0189547D01*
X0216994Y0189536D01*
X0217085Y0189521D01*
X0217176Y0189503D01*
X0217266Y0189480D01*
X0217354Y0189454D01*
X0217442Y0189424D01*
X0217528Y0189390D01*
X0217612Y0189353D01*
X0217695Y0189311D01*
X0217776Y0189267D01*
X0217856Y0189219D01*
X0217933Y0189168D01*
X0218007Y0189113D01*
X0218080Y0189055D01*
X0218150Y0188995D01*
X0218217Y0188931D01*
X0218281Y0188865D01*
X0218343Y0188795D01*
X0218401Y0188724D01*
X0218456Y0188650D01*
X0218508Y0188573D01*
X0218557Y0188494D01*
X0218603Y0188414D01*
X0218645Y0188331D01*
X0218683Y0188247D01*
X0218718Y0188161D01*
X0218749Y0188074D01*
X0218776Y0187986D01*
X0218799Y0187896D01*
X0218819Y0187806D01*
X0218835Y0187715D01*
X0218847Y0187623D01*
X0218855Y0187531D01*
X0218859Y0187438D01*
X0218859Y0187346D01*
X0218855Y0187253D01*
X0218847Y0187161D01*
X0218835Y0187069D01*
X0218819Y0186978D01*
X0218799Y0186888D01*
X0218776Y0186798D01*
X0218749Y0186710D01*
X0218718Y0186623D01*
X0218683Y0186537D01*
X0218645Y0186453D01*
X0218603Y0186370D01*
X0218557Y0186290D01*
X0218508Y0186211D01*
X0218456Y0186134D01*
X0218401Y0186060D01*
X0218343Y0185989D01*
X0218281Y0185919D01*
X0218217Y0185853D01*
X0218150Y0185789D01*
X0218080Y0185729D01*
X0218007Y0185671D01*
X0217933Y0185616D01*
X0217856Y0185565D01*
X0217777Y0185517D01*
X0217695Y0185473D01*
X0217612Y0185431D01*
X0217528Y0185394D01*
X0217442Y0185360D01*
X0217354Y0185330D01*
X0217266Y0185304D01*
X0217176Y0185281D01*
X0217085Y0185263D01*
X0216994Y0185248D01*
X0216902Y0185237D01*
X0216810Y0185230D01*
X0216717Y0185227D01*
X0216625Y0185228D01*
X0216532Y0185233D01*
X0216440Y0185242D01*
X0216348Y0185255D01*
X0216257Y0185271D01*
X0216167Y0185292D01*
X0216078Y0185316D01*
X0215990Y0185345D01*
X0215903Y0185377D01*
X0215818Y0185412D01*
X0215734Y0185452D01*
X0215652Y0185494D01*
X0215572Y0185541D01*
X0215494Y0185590D01*
X0215418Y0185643D01*
X0215344Y0185699D01*
X0215273Y0185759D01*
X0215205Y0185821D01*
X0215139Y0185886D01*
X0215076Y0185954D01*
X0215016Y0186024D01*
X0214959Y0186097D01*
X0214905Y0186172D01*
X0214855Y0186250D01*
X0214808Y0186330D01*
X0214764Y0186411D01*
X0214724Y0186495D01*
X0214687Y0186580D01*
X0214654Y0186666D01*
X0214625Y0186754D01*
X0214600Y0186843D01*
X0214578Y0186933D01*
X0214561Y0187024D01*
X0214547Y0187115D01*
X0214537Y0187207D01*
X0214531Y0187299D01*
X0214529Y0187392D01*
X0214529Y0205108D02*
X0214531Y0205201D01*
X0214537Y0205293D01*
X0214547Y0205385D01*
X0214561Y0205476D01*
X0214578Y0205567D01*
X0214600Y0205657D01*
X0214625Y0205746D01*
X0214654Y0205834D01*
X0214687Y0205920D01*
X0214724Y0206005D01*
X0214764Y0206089D01*
X0214808Y0206170D01*
X0214855Y0206250D01*
X0214905Y0206328D01*
X0214959Y0206403D01*
X0215016Y0206476D01*
X0215076Y0206546D01*
X0215139Y0206614D01*
X0215205Y0206679D01*
X0215273Y0206741D01*
X0215344Y0206801D01*
X0215418Y0206857D01*
X0215494Y0206910D01*
X0215572Y0206959D01*
X0215652Y0207006D01*
X0215734Y0207048D01*
X0215818Y0207088D01*
X0215903Y0207123D01*
X0215990Y0207155D01*
X0216078Y0207184D01*
X0216167Y0207208D01*
X0216257Y0207229D01*
X0216348Y0207245D01*
X0216440Y0207258D01*
X0216532Y0207267D01*
X0216625Y0207272D01*
X0216717Y0207273D01*
X0216810Y0207270D01*
X0216902Y0207263D01*
X0216994Y0207252D01*
X0217085Y0207237D01*
X0217176Y0207219D01*
X0217266Y0207196D01*
X0217354Y0207170D01*
X0217442Y0207140D01*
X0217528Y0207106D01*
X0217612Y0207069D01*
X0217695Y0207027D01*
X0217776Y0206983D01*
X0217856Y0206935D01*
X0217933Y0206884D01*
X0218007Y0206829D01*
X0218080Y0206771D01*
X0218150Y0206711D01*
X0218217Y0206647D01*
X0218281Y0206581D01*
X0218343Y0206511D01*
X0218401Y0206440D01*
X0218456Y0206366D01*
X0218508Y0206289D01*
X0218557Y0206210D01*
X0218603Y0206130D01*
X0218645Y0206047D01*
X0218683Y0205963D01*
X0218718Y0205877D01*
X0218749Y0205790D01*
X0218776Y0205702D01*
X0218799Y0205612D01*
X0218819Y0205522D01*
X0218835Y0205431D01*
X0218847Y0205339D01*
X0218855Y0205247D01*
X0218859Y0205154D01*
X0218859Y0205062D01*
X0218855Y0204969D01*
X0218847Y0204877D01*
X0218835Y0204785D01*
X0218819Y0204694D01*
X0218799Y0204604D01*
X0218776Y0204514D01*
X0218749Y0204426D01*
X0218718Y0204339D01*
X0218683Y0204253D01*
X0218645Y0204169D01*
X0218603Y0204086D01*
X0218557Y0204006D01*
X0218508Y0203927D01*
X0218456Y0203850D01*
X0218401Y0203776D01*
X0218343Y0203705D01*
X0218281Y0203635D01*
X0218217Y0203569D01*
X0218150Y0203505D01*
X0218080Y0203445D01*
X0218007Y0203387D01*
X0217933Y0203332D01*
X0217856Y0203281D01*
X0217777Y0203233D01*
X0217695Y0203189D01*
X0217612Y0203147D01*
X0217528Y0203110D01*
X0217442Y0203076D01*
X0217354Y0203046D01*
X0217266Y0203020D01*
X0217176Y0202997D01*
X0217085Y0202979D01*
X0216994Y0202964D01*
X0216902Y0202953D01*
X0216810Y0202946D01*
X0216717Y0202943D01*
X0216625Y0202944D01*
X0216532Y0202949D01*
X0216440Y0202958D01*
X0216348Y0202971D01*
X0216257Y0202987D01*
X0216167Y0203008D01*
X0216078Y0203032D01*
X0215990Y0203061D01*
X0215903Y0203093D01*
X0215818Y0203128D01*
X0215734Y0203168D01*
X0215652Y0203210D01*
X0215572Y0203257D01*
X0215494Y0203306D01*
X0215418Y0203359D01*
X0215344Y0203415D01*
X0215273Y0203475D01*
X0215205Y0203537D01*
X0215139Y0203602D01*
X0215076Y0203670D01*
X0215016Y0203740D01*
X0214959Y0203813D01*
X0214905Y0203888D01*
X0214855Y0203966D01*
X0214808Y0204046D01*
X0214764Y0204127D01*
X0214724Y0204211D01*
X0214687Y0204296D01*
X0214654Y0204382D01*
X0214625Y0204470D01*
X0214600Y0204559D01*
X0214578Y0204649D01*
X0214561Y0204740D01*
X0214547Y0204831D01*
X0214537Y0204923D01*
X0214531Y0205015D01*
X0214529Y0205108D01*
D11*
X0196300Y0216250D03*
X0186300Y0216250D03*
X0176300Y0216250D03*
X0176300Y0176250D03*
X0176300Y0136250D03*
X0186300Y0136250D03*
X0196300Y0136250D03*
X0176300Y0096250D03*
X0176300Y0056250D03*
X0186300Y0056250D03*
X0196300Y0056250D03*
X0176300Y0016250D03*
X0056300Y0056250D03*
X0006300Y0066250D03*
X0006300Y0086250D03*
X0056300Y0136250D03*
X0006300Y0146250D03*
X0006300Y0166250D03*
X0056300Y0216250D03*
X0006300Y0226250D03*
X0006300Y0006250D03*
D12*
X0016300Y0006250D03*
X0026300Y0006250D03*
X0036300Y0006250D03*
X0046300Y0006250D03*
X0056300Y0006250D03*
X0066300Y0006250D03*
X0076300Y0006250D03*
X0086300Y0006250D03*
X0096300Y0006250D03*
X0106300Y0006250D03*
X0116300Y0006250D03*
X0126300Y0006250D03*
X0136300Y0006250D03*
X0146300Y0006250D03*
X0146300Y0016250D03*
X0156300Y0016250D03*
X0166300Y0016250D03*
X0166300Y0006250D03*
X0156300Y0006250D03*
X0176300Y0006250D03*
X0186300Y0006250D03*
X0196300Y0006250D03*
X0166300Y0055935D03*
X0156300Y0055935D03*
X0146300Y0055935D03*
X0136300Y0055935D03*
X0136300Y0066250D03*
X0146300Y0066250D03*
X0156300Y0066250D03*
X0166300Y0066250D03*
X0176300Y0066250D03*
X0186300Y0066250D03*
X0196300Y0066250D03*
X0196300Y0086250D03*
X0186300Y0086250D03*
X0176300Y0086250D03*
X0166300Y0086250D03*
X0156300Y0086250D03*
X0156300Y0096250D03*
X0166300Y0096250D03*
X0146300Y0096250D03*
X0146300Y0086250D03*
X0136300Y0086250D03*
X0126300Y0086250D03*
X0116300Y0086250D03*
X0106300Y0086250D03*
X0096300Y0086250D03*
X0086300Y0086250D03*
X0076300Y0086250D03*
X0066300Y0086250D03*
X0056300Y0086250D03*
X0046300Y0086250D03*
X0036300Y0086250D03*
X0026300Y0086250D03*
X0016300Y0086250D03*
X0016300Y0066250D03*
X0026300Y0066250D03*
X0036300Y0066250D03*
X0046300Y0066250D03*
X0056300Y0066250D03*
X0066300Y0066250D03*
X0076300Y0066250D03*
X0086300Y0066250D03*
X0096300Y0066250D03*
X0106300Y0066250D03*
X0116300Y0066250D03*
X0126300Y0066250D03*
X0106300Y0055935D03*
X0096300Y0055935D03*
X0086300Y0055935D03*
X0076300Y0055935D03*
X0056300Y0046250D03*
X0046300Y0046250D03*
X0046300Y0036250D03*
X0056300Y0036250D03*
X0056300Y0026250D03*
X0046300Y0026250D03*
X0046300Y0056250D03*
X0046300Y0106250D03*
X0056300Y0106250D03*
X0056300Y0116250D03*
X0046300Y0116250D03*
X0046300Y0126250D03*
X0056300Y0126250D03*
X0046300Y0136250D03*
X0046300Y0146250D03*
X0056300Y0146250D03*
X0066300Y0146250D03*
X0076300Y0146250D03*
X0086300Y0146250D03*
X0096300Y0146250D03*
X0106300Y0146250D03*
X0116300Y0146250D03*
X0126300Y0146250D03*
X0136300Y0146250D03*
X0146300Y0146250D03*
X0156300Y0146250D03*
X0166300Y0146250D03*
X0176300Y0146250D03*
X0186300Y0146250D03*
X0196300Y0146250D03*
X0196300Y0166250D03*
X0186300Y0166250D03*
X0176300Y0166250D03*
X0166300Y0166250D03*
X0156300Y0166250D03*
X0156300Y0176250D03*
X0166300Y0176250D03*
X0146300Y0176250D03*
X0146300Y0166250D03*
X0136300Y0166250D03*
X0126300Y0166250D03*
X0116300Y0166250D03*
X0106300Y0166250D03*
X0096300Y0166250D03*
X0086300Y0166250D03*
X0076300Y0166250D03*
X0066300Y0166250D03*
X0056300Y0166250D03*
X0046300Y0166250D03*
X0036300Y0166250D03*
X0026300Y0166250D03*
X0016300Y0166250D03*
X0016300Y0146250D03*
X0026300Y0146250D03*
X0036300Y0146250D03*
X0076300Y0135935D03*
X0086300Y0135935D03*
X0096300Y0135935D03*
X0106300Y0135935D03*
X0136300Y0135935D03*
X0146300Y0135935D03*
X0156300Y0135935D03*
X0166300Y0135935D03*
X0166300Y0215935D03*
X0156300Y0215935D03*
X0146300Y0215935D03*
X0136300Y0215935D03*
X0136300Y0226250D03*
X0146300Y0226250D03*
X0156300Y0226250D03*
X0166300Y0226250D03*
X0176300Y0226250D03*
X0186300Y0226250D03*
X0196300Y0226250D03*
X0126300Y0226250D03*
X0116300Y0226250D03*
X0106300Y0226250D03*
X0096300Y0226250D03*
X0086300Y0226250D03*
X0076300Y0226250D03*
X0066300Y0226250D03*
X0056300Y0226250D03*
X0046300Y0226250D03*
X0046300Y0216250D03*
X0036300Y0226250D03*
X0026300Y0226250D03*
X0016300Y0226250D03*
X0046300Y0206250D03*
X0056300Y0206250D03*
X0056300Y0196250D03*
X0046300Y0196250D03*
X0046300Y0186250D03*
X0056300Y0186250D03*
X0076300Y0215935D03*
X0086300Y0215935D03*
X0096300Y0215935D03*
X0106300Y0215935D03*
D13*
X0206851Y0210030D03*
X0206851Y0200187D03*
X0206851Y0192313D03*
X0206851Y0182470D03*
X0206851Y0130030D03*
X0206851Y0120187D03*
X0206851Y0112313D03*
X0206851Y0102470D03*
X0206851Y0050030D03*
X0206851Y0040187D03*
X0206851Y0032313D03*
X0206851Y0022470D03*
D14*
X0216300Y0013415D03*
X0216300Y0059085D03*
X0216300Y0093415D03*
X0216300Y0139085D03*
X0216300Y0173415D03*
X0216300Y0219085D03*
D15*
X0216694Y0205108D03*
X0216694Y0187392D03*
X0216694Y0125108D03*
X0216694Y0107392D03*
X0216694Y0045108D03*
X0216694Y0027392D03*
D16*
X0141300Y0031250D03*
X0116300Y0038750D03*
X0101300Y0036250D03*
X0116300Y0056250D03*
X0141300Y0111250D03*
X0116300Y0118750D03*
X0101300Y0116250D03*
X0116300Y0136250D03*
X0141300Y0191250D03*
X0116300Y0198750D03*
X0101300Y0196250D03*
X0116300Y0216250D03*
M02*
