G75*
%MOIN*%
%OFA0B0*%
%FSLAX25Y25*%
%IPPOS*%
%LPD*%
%AMOC8*
5,1,8,0,0,1.08239X$1,22.5*
%
%ADD10C,0.00000*%
%ADD11C,0.00500*%
%ADD12C,0.00300*%
%ADD13C,0.00200*%
%ADD14C,0.00400*%
D10*
X0001250Y0001250D02*
X0001250Y0071211D01*
X0201250Y0071211D01*
X0201250Y0001250D01*
X0001250Y0001250D01*
D11*
X0036250Y0016250D02*
X0036250Y0061250D01*
X0041250Y0061250D01*
X0041250Y0021250D01*
X0041250Y0016250D01*
X0036250Y0016250D01*
X0041250Y0016250D02*
X0061250Y0016250D01*
X0061250Y0021250D01*
X0041250Y0021250D01*
X0061250Y0021250D02*
X0061250Y0051250D01*
X0051250Y0051250D01*
X0051250Y0061250D01*
X0061250Y0061250D01*
X0061250Y0051250D01*
X0051250Y0061250D02*
X0041250Y0061250D01*
X0070699Y0062156D02*
X0070699Y0010344D01*
X0111801Y0010344D01*
X0111801Y0062156D01*
X0070699Y0062156D01*
X0130699Y0062156D02*
X0130699Y0010344D01*
X0171801Y0010344D01*
X0171801Y0062156D01*
X0130699Y0062156D01*
X0171250Y0061250D02*
X0171250Y0041250D01*
X0201250Y0041250D01*
X0201250Y0061250D01*
X0171250Y0061250D01*
X0181250Y0021250D02*
X0141250Y0021250D01*
X0141250Y0011250D01*
X0181250Y0011250D01*
X0181250Y0021250D01*
D12*
X0166102Y0021667D02*
X0165135Y0022635D01*
X0166102Y0023602D01*
X0163200Y0023602D01*
X0163200Y0024614D02*
X0163200Y0026549D01*
X0164651Y0025581D02*
X0164651Y0024614D01*
X0166102Y0024614D02*
X0163200Y0024614D01*
X0166102Y0024614D02*
X0166102Y0026549D01*
X0165619Y0027560D02*
X0166102Y0028044D01*
X0166102Y0029012D01*
X0165619Y0029495D01*
X0165135Y0029495D01*
X0163200Y0027560D01*
X0163200Y0029495D01*
X0163684Y0030507D02*
X0164167Y0030507D01*
X0164651Y0030991D01*
X0164651Y0031958D01*
X0164167Y0032442D01*
X0163684Y0032442D01*
X0163200Y0031958D01*
X0163200Y0030991D01*
X0163684Y0030507D01*
X0164651Y0030991D02*
X0165135Y0030507D01*
X0165619Y0030507D01*
X0166102Y0030991D01*
X0166102Y0031958D01*
X0165619Y0032442D01*
X0165135Y0032442D01*
X0164651Y0031958D01*
X0163684Y0033453D02*
X0165619Y0035388D01*
X0163684Y0035388D01*
X0163200Y0034905D01*
X0163200Y0033937D01*
X0163684Y0033453D01*
X0165619Y0033453D01*
X0166102Y0033937D01*
X0166102Y0034905D01*
X0165619Y0035388D01*
X0156102Y0034905D02*
X0156102Y0033453D01*
X0153200Y0033453D01*
X0154167Y0033453D02*
X0154167Y0034905D01*
X0154651Y0035388D01*
X0155619Y0035388D01*
X0156102Y0034905D01*
X0156102Y0032442D02*
X0156102Y0030507D01*
X0153200Y0030507D01*
X0153200Y0032442D01*
X0154651Y0031474D02*
X0154651Y0030507D01*
X0156102Y0029495D02*
X0153200Y0029495D01*
X0155135Y0028528D02*
X0156102Y0029495D01*
X0155135Y0028528D02*
X0156102Y0027560D01*
X0153200Y0027560D01*
X0153684Y0026549D02*
X0153200Y0026065D01*
X0153200Y0024614D01*
X0156102Y0024614D01*
X0156102Y0026065D01*
X0155619Y0026549D01*
X0155135Y0026549D01*
X0154651Y0026065D01*
X0154651Y0024614D01*
X0154651Y0023602D02*
X0154651Y0021667D01*
X0155619Y0020656D02*
X0156102Y0020656D01*
X0155619Y0020656D02*
X0154651Y0019688D01*
X0153200Y0019688D01*
X0154651Y0019688D02*
X0155619Y0018721D01*
X0156102Y0018721D01*
X0155619Y0017709D02*
X0156102Y0017226D01*
X0156102Y0016258D01*
X0155619Y0015774D01*
X0153684Y0015774D01*
X0153200Y0016258D01*
X0153200Y0017226D01*
X0153684Y0017709D01*
X0154651Y0017709D01*
X0154651Y0016742D01*
X0163200Y0018721D02*
X0163200Y0020172D01*
X0163684Y0020656D01*
X0164167Y0020656D01*
X0164651Y0020172D01*
X0164651Y0018721D01*
X0163200Y0018721D02*
X0166102Y0018721D01*
X0166102Y0020172D01*
X0165619Y0020656D01*
X0165135Y0020656D01*
X0164651Y0020172D01*
X0163200Y0021667D02*
X0166102Y0021667D01*
X0154651Y0026065D02*
X0154167Y0026549D01*
X0153684Y0026549D01*
X0091102Y0026065D02*
X0089651Y0024614D01*
X0089651Y0026549D01*
X0088200Y0026065D02*
X0091102Y0026065D01*
X0090619Y0027560D02*
X0088684Y0027560D01*
X0090619Y0029495D01*
X0088684Y0029495D01*
X0088200Y0029012D01*
X0088200Y0028044D01*
X0088684Y0027560D01*
X0090619Y0027560D02*
X0091102Y0028044D01*
X0091102Y0029012D01*
X0090619Y0029495D01*
X0090619Y0030507D02*
X0088684Y0030507D01*
X0090619Y0032442D01*
X0088684Y0032442D01*
X0088200Y0031958D01*
X0088200Y0030991D01*
X0088684Y0030507D01*
X0090619Y0030507D02*
X0091102Y0030991D01*
X0091102Y0031958D01*
X0090619Y0032442D01*
X0090619Y0033453D02*
X0090135Y0033453D01*
X0089651Y0033937D01*
X0089651Y0035388D01*
X0088684Y0035388D02*
X0090619Y0035388D01*
X0091102Y0034905D01*
X0091102Y0033937D01*
X0090619Y0033453D01*
X0088684Y0033453D02*
X0088200Y0033937D01*
X0088200Y0034905D01*
X0088684Y0035388D01*
X0076102Y0034905D02*
X0076102Y0033937D01*
X0075619Y0033453D01*
X0075135Y0033453D01*
X0074651Y0033937D01*
X0074651Y0035388D01*
X0073684Y0035388D02*
X0075619Y0035388D01*
X0076102Y0034905D01*
X0073684Y0035388D02*
X0073200Y0034905D01*
X0073200Y0033937D01*
X0073684Y0033453D01*
X0074651Y0032442D02*
X0074651Y0030507D01*
X0076102Y0031958D01*
X0073200Y0031958D01*
X0074651Y0029495D02*
X0074651Y0027560D01*
X0075619Y0026549D02*
X0076102Y0026549D01*
X0075619Y0026549D02*
X0074651Y0025581D01*
X0073200Y0025581D01*
X0074651Y0025581D02*
X0075619Y0024614D01*
X0076102Y0024614D01*
X0075619Y0023602D02*
X0076102Y0023119D01*
X0076102Y0022151D01*
X0075619Y0021667D01*
X0073684Y0021667D01*
X0073200Y0022151D01*
X0073200Y0023119D01*
X0073684Y0023602D01*
X0074651Y0023602D01*
X0074651Y0022635D01*
X0088200Y0023119D02*
X0091102Y0023119D01*
X0089651Y0021667D01*
X0089651Y0023602D01*
X0088200Y0020656D02*
X0091102Y0018721D01*
X0090135Y0017709D02*
X0088200Y0017709D01*
X0088200Y0018721D02*
X0091102Y0020656D01*
X0090135Y0017709D02*
X0091102Y0016742D01*
X0090135Y0015774D01*
X0088200Y0015774D01*
X0088200Y0014763D02*
X0091102Y0014763D01*
X0090135Y0013795D01*
X0091102Y0012828D01*
X0088200Y0012828D01*
X0089651Y0015774D02*
X0089651Y0017709D01*
X0040102Y0028233D02*
X0039135Y0027265D01*
X0037200Y0027265D01*
X0038651Y0027265D02*
X0038651Y0029200D01*
X0039135Y0029200D02*
X0037200Y0029200D01*
X0037200Y0030212D02*
X0039135Y0030212D01*
X0039135Y0031663D01*
X0038651Y0032147D01*
X0037200Y0032147D01*
X0039135Y0033159D02*
X0039135Y0034126D01*
X0039619Y0033642D02*
X0037684Y0033642D01*
X0037200Y0034126D01*
X0037200Y0035123D02*
X0037200Y0035607D01*
X0037684Y0035607D01*
X0037684Y0035123D01*
X0037200Y0035123D01*
X0037684Y0036596D02*
X0037200Y0037080D01*
X0037200Y0038047D01*
X0037684Y0038531D01*
X0038167Y0038531D01*
X0038651Y0038047D01*
X0038651Y0037080D01*
X0039135Y0036596D01*
X0039619Y0036596D01*
X0040102Y0037080D01*
X0040102Y0038047D01*
X0039619Y0038531D01*
X0039135Y0039543D02*
X0039135Y0040026D01*
X0037200Y0040026D01*
X0037200Y0039543D02*
X0037200Y0040510D01*
X0040102Y0040026D02*
X0040586Y0040026D01*
X0038651Y0041507D02*
X0037684Y0041507D01*
X0037200Y0041991D01*
X0037200Y0043442D01*
X0040102Y0043442D01*
X0039135Y0043442D02*
X0039135Y0041991D01*
X0038651Y0041507D01*
X0038651Y0044453D02*
X0037684Y0044453D01*
X0037200Y0044937D01*
X0037200Y0045905D01*
X0038167Y0046388D02*
X0038167Y0044453D01*
X0038651Y0044453D02*
X0039135Y0044937D01*
X0039135Y0045905D01*
X0038651Y0046388D01*
X0038167Y0046388D01*
X0039135Y0029200D02*
X0040102Y0028233D01*
D13*
X0041737Y0019552D02*
X0041737Y0017350D01*
X0042471Y0017350D02*
X0041003Y0017350D01*
X0039527Y0017717D02*
X0039527Y0019185D01*
X0040261Y0018451D02*
X0038793Y0018451D01*
X0041737Y0019552D02*
X0042471Y0018818D01*
X0043213Y0019185D02*
X0043213Y0017717D01*
X0043580Y0017350D01*
X0044314Y0017350D01*
X0044681Y0017717D01*
X0043213Y0019185D01*
X0043580Y0019552D01*
X0044314Y0019552D01*
X0044681Y0019185D01*
X0044681Y0017717D01*
X0045423Y0017350D02*
X0046891Y0017350D01*
X0046891Y0019552D01*
X0048000Y0019552D02*
X0049101Y0018451D01*
X0047633Y0018451D01*
X0048000Y0017350D02*
X0048000Y0019552D01*
X0049843Y0019185D02*
X0049843Y0018818D01*
X0051310Y0017350D01*
X0049843Y0017350D01*
X0049843Y0019185D02*
X0050210Y0019552D01*
X0050944Y0019552D01*
X0051310Y0019185D01*
X0054262Y0019552D02*
X0055730Y0019552D01*
X0055730Y0017350D01*
X0056472Y0017350D02*
X0057206Y0018084D01*
X0056839Y0018084D02*
X0057940Y0018084D01*
X0057940Y0017350D02*
X0057940Y0019552D01*
X0056839Y0019552D01*
X0056472Y0019185D01*
X0056472Y0018451D01*
X0056839Y0018084D01*
X0055730Y0018451D02*
X0054996Y0018451D01*
X0058682Y0018451D02*
X0058682Y0017350D01*
X0060150Y0017350D02*
X0060150Y0018818D01*
X0059049Y0018818D01*
X0058682Y0018451D01*
X0143950Y0012374D02*
X0146152Y0012374D01*
X0146152Y0011640D02*
X0146152Y0013108D01*
X0151450Y0013108D02*
X0152184Y0012374D01*
X0152184Y0012741D02*
X0152184Y0011640D01*
X0151450Y0011640D02*
X0153652Y0011640D01*
X0153652Y0012741D01*
X0153285Y0013108D01*
X0152551Y0013108D01*
X0152184Y0012741D01*
X0161450Y0012741D02*
X0161450Y0012007D01*
X0161817Y0011640D01*
X0162551Y0011640D02*
X0162918Y0012374D01*
X0162918Y0012741D01*
X0162551Y0013108D01*
X0161817Y0013108D01*
X0161450Y0012741D01*
X0162551Y0011640D02*
X0163652Y0011640D01*
X0163652Y0013108D01*
X0171450Y0012741D02*
X0171450Y0012007D01*
X0171817Y0011640D01*
X0173285Y0011640D01*
X0173652Y0012007D01*
X0173652Y0012741D01*
X0173285Y0013108D01*
X0172551Y0013108D02*
X0172551Y0012374D01*
X0172551Y0013108D02*
X0171817Y0013108D01*
X0171450Y0012741D01*
D14*
X0108554Y0019173D02*
X0108554Y0020707D01*
X0108554Y0019940D02*
X0103950Y0019940D01*
X0103950Y0019173D02*
X0103950Y0020707D01*
X0103950Y0022242D02*
X0108554Y0022242D01*
X0103950Y0025311D01*
X0108554Y0025311D01*
X0108554Y0026846D02*
X0108554Y0029915D01*
X0108554Y0028381D02*
X0103950Y0028381D01*
X0098554Y0027613D02*
X0098554Y0029148D01*
X0097787Y0029915D01*
X0094717Y0026846D01*
X0093950Y0027613D01*
X0093950Y0029148D01*
X0094717Y0029915D01*
X0097787Y0029915D01*
X0098554Y0027613D02*
X0097787Y0026846D01*
X0094717Y0026846D01*
X0093950Y0025311D02*
X0097019Y0025311D01*
X0098554Y0023777D01*
X0097019Y0022242D01*
X0093950Y0022242D01*
X0096252Y0022242D02*
X0096252Y0025311D01*
X0097019Y0037638D02*
X0096252Y0038406D01*
X0096252Y0039940D01*
X0095485Y0040707D01*
X0094717Y0040707D01*
X0093950Y0039940D01*
X0093950Y0038406D01*
X0094717Y0037638D01*
X0097019Y0037638D02*
X0097787Y0037638D01*
X0098554Y0038406D01*
X0098554Y0039940D01*
X0097787Y0040707D01*
X0097787Y0042242D02*
X0094717Y0042242D01*
X0093950Y0043009D01*
X0093950Y0044544D01*
X0094717Y0045311D01*
X0093950Y0046846D02*
X0093950Y0049915D01*
X0088554Y0049148D02*
X0088554Y0046846D01*
X0083950Y0046846D01*
X0083950Y0049148D01*
X0084717Y0049915D01*
X0087787Y0049915D01*
X0088554Y0049148D01*
X0093950Y0046846D02*
X0098554Y0046846D01*
X0097787Y0045311D02*
X0098554Y0044544D01*
X0098554Y0043009D01*
X0097787Y0042242D01*
X0103950Y0042242D02*
X0103950Y0044544D01*
X0104717Y0045311D01*
X0107787Y0045311D01*
X0108554Y0044544D01*
X0108554Y0042242D01*
X0103950Y0042242D01*
X0104717Y0040707D02*
X0103950Y0039940D01*
X0103950Y0038406D01*
X0104717Y0037638D01*
X0106252Y0038406D02*
X0106252Y0039940D01*
X0105485Y0040707D01*
X0104717Y0040707D01*
X0107787Y0040707D02*
X0108554Y0039940D01*
X0108554Y0038406D01*
X0107787Y0037638D01*
X0107019Y0037638D01*
X0106252Y0038406D01*
X0088554Y0038406D02*
X0087787Y0037638D01*
X0084717Y0037638D01*
X0083950Y0038406D01*
X0083950Y0039940D01*
X0084717Y0040707D01*
X0086252Y0040707D01*
X0086252Y0039173D01*
X0087787Y0040707D02*
X0088554Y0039940D01*
X0088554Y0038406D01*
X0078554Y0039173D02*
X0075485Y0039173D01*
X0073950Y0040707D01*
X0075485Y0042242D01*
X0078554Y0042242D01*
X0078554Y0043777D02*
X0078554Y0045311D01*
X0078554Y0044544D02*
X0073950Y0044544D01*
X0073950Y0043777D02*
X0073950Y0045311D01*
X0073950Y0046846D02*
X0078554Y0046846D01*
X0073950Y0049915D01*
X0078554Y0049915D01*
X0083950Y0045311D02*
X0088554Y0045311D01*
X0088554Y0042242D02*
X0083950Y0045311D01*
X0083950Y0042242D02*
X0088554Y0042242D01*
X0103950Y0046846D02*
X0107019Y0046846D01*
X0108554Y0048381D01*
X0107019Y0049915D01*
X0103950Y0049915D01*
X0106252Y0049915D02*
X0106252Y0046846D01*
X0133950Y0046846D02*
X0138554Y0046846D01*
X0133950Y0049915D01*
X0138554Y0049915D01*
X0143950Y0049148D02*
X0144717Y0049915D01*
X0147787Y0049915D01*
X0148554Y0049148D01*
X0148554Y0046846D01*
X0143950Y0046846D01*
X0143950Y0049148D01*
X0143950Y0045311D02*
X0148554Y0045311D01*
X0148554Y0042242D02*
X0143950Y0045311D01*
X0138554Y0045311D02*
X0138554Y0043777D01*
X0138554Y0044544D02*
X0133950Y0044544D01*
X0133950Y0043777D02*
X0133950Y0045311D01*
X0135485Y0042242D02*
X0138554Y0042242D01*
X0135485Y0042242D02*
X0133950Y0040707D01*
X0135485Y0039173D01*
X0138554Y0039173D01*
X0143950Y0038406D02*
X0143950Y0039940D01*
X0144717Y0040707D01*
X0146252Y0040707D01*
X0146252Y0039173D01*
X0147787Y0040707D02*
X0148554Y0039940D01*
X0148554Y0038406D01*
X0147787Y0037638D01*
X0144717Y0037638D01*
X0143950Y0038406D01*
X0153950Y0038406D02*
X0154717Y0037638D01*
X0153950Y0038406D02*
X0153950Y0039940D01*
X0154717Y0040707D01*
X0155485Y0040707D01*
X0156252Y0039940D01*
X0156252Y0038406D01*
X0157019Y0037638D01*
X0157787Y0037638D01*
X0158554Y0038406D01*
X0158554Y0039940D01*
X0157787Y0040707D01*
X0157787Y0042242D02*
X0154717Y0042242D01*
X0153950Y0043009D01*
X0153950Y0044544D01*
X0154717Y0045311D01*
X0157787Y0045311D02*
X0158554Y0044544D01*
X0158554Y0043009D01*
X0157787Y0042242D01*
X0163950Y0042242D02*
X0163950Y0044544D01*
X0164717Y0045311D01*
X0167787Y0045311D01*
X0168554Y0044544D01*
X0168554Y0042242D01*
X0163950Y0042242D01*
X0164717Y0040707D02*
X0163950Y0039940D01*
X0163950Y0038406D01*
X0164717Y0037638D01*
X0166252Y0038406D02*
X0166252Y0039940D01*
X0165485Y0040707D01*
X0164717Y0040707D01*
X0167787Y0040707D02*
X0168554Y0039940D01*
X0168554Y0038406D01*
X0167787Y0037638D01*
X0167019Y0037638D01*
X0166252Y0038406D01*
X0173950Y0043009D02*
X0174717Y0042242D01*
X0173950Y0043009D02*
X0173950Y0044544D01*
X0174717Y0045311D01*
X0176252Y0045311D01*
X0177019Y0044544D01*
X0177019Y0043777D01*
X0176252Y0042242D01*
X0178554Y0042242D01*
X0178554Y0045311D01*
X0178554Y0046846D02*
X0175485Y0046846D01*
X0173950Y0048381D01*
X0175485Y0049915D01*
X0178554Y0049915D01*
X0183950Y0049148D02*
X0183950Y0047613D01*
X0184717Y0046846D01*
X0186252Y0047613D02*
X0186252Y0049148D01*
X0185485Y0049915D01*
X0184717Y0049915D01*
X0183950Y0049148D01*
X0186252Y0047613D02*
X0187019Y0046846D01*
X0187787Y0046846D01*
X0188554Y0047613D01*
X0188554Y0049148D01*
X0187787Y0049915D01*
X0193950Y0050113D02*
X0194717Y0049346D01*
X0196252Y0049346D01*
X0197019Y0050113D01*
X0197019Y0052415D01*
X0198554Y0052415D02*
X0193950Y0052415D01*
X0193950Y0050113D01*
X0193950Y0047811D02*
X0196252Y0047811D01*
X0197019Y0047044D01*
X0197019Y0044742D01*
X0193950Y0044742D01*
X0194717Y0043207D02*
X0196252Y0043207D01*
X0196252Y0041673D01*
X0194717Y0043207D02*
X0193950Y0042440D01*
X0193950Y0040906D01*
X0194717Y0040138D01*
X0197787Y0040138D01*
X0198554Y0040906D01*
X0198554Y0042440D01*
X0197787Y0043207D01*
X0168554Y0048381D02*
X0167019Y0049915D01*
X0163950Y0049915D01*
X0166252Y0049915D02*
X0166252Y0046846D01*
X0167019Y0046846D02*
X0168554Y0048381D01*
X0167019Y0046846D02*
X0163950Y0046846D01*
X0158554Y0046846D02*
X0153950Y0046846D01*
X0153950Y0049915D01*
X0148554Y0042242D02*
X0143950Y0042242D01*
M02*
