G75*
%MOIN*%
%OFA0B0*%
%FSLAX25Y25*%
%IPPOS*%
%LPD*%
%AMOC8*
5,1,8,0,0,1.08239X$1,22.5*
%
%ADD10C,0.00000*%
%ADD11C,0.05200*%
%ADD12R,0.05150X0.05150*%
%ADD13C,0.05150*%
%ADD14C,0.05937*%
%ADD15C,0.07050*%
%ADD16C,0.01600*%
%ADD17C,0.05906*%
%ADD18R,0.05000X0.05000*%
%ADD19C,0.04724*%
%ADD20C,0.03200*%
%ADD21C,0.05315*%
D10*
X0023540Y0001000D02*
X0023540Y0235980D01*
X0338501Y0235980D01*
X0338501Y0001000D01*
X0023540Y0001000D01*
X0027634Y0011000D02*
X0027636Y0011153D01*
X0027642Y0011307D01*
X0027652Y0011460D01*
X0027666Y0011612D01*
X0027684Y0011765D01*
X0027706Y0011916D01*
X0027731Y0012067D01*
X0027761Y0012218D01*
X0027795Y0012368D01*
X0027832Y0012516D01*
X0027873Y0012664D01*
X0027918Y0012810D01*
X0027967Y0012956D01*
X0028020Y0013100D01*
X0028076Y0013242D01*
X0028136Y0013383D01*
X0028200Y0013523D01*
X0028267Y0013661D01*
X0028338Y0013797D01*
X0028413Y0013931D01*
X0028490Y0014063D01*
X0028572Y0014193D01*
X0028656Y0014321D01*
X0028744Y0014447D01*
X0028835Y0014570D01*
X0028929Y0014691D01*
X0029027Y0014809D01*
X0029127Y0014925D01*
X0029231Y0015038D01*
X0029337Y0015149D01*
X0029446Y0015257D01*
X0029558Y0015362D01*
X0029672Y0015463D01*
X0029790Y0015562D01*
X0029909Y0015658D01*
X0030031Y0015751D01*
X0030156Y0015840D01*
X0030283Y0015927D01*
X0030412Y0016009D01*
X0030543Y0016089D01*
X0030676Y0016165D01*
X0030811Y0016238D01*
X0030948Y0016307D01*
X0031087Y0016372D01*
X0031227Y0016434D01*
X0031369Y0016492D01*
X0031512Y0016547D01*
X0031657Y0016598D01*
X0031803Y0016645D01*
X0031950Y0016688D01*
X0032098Y0016727D01*
X0032247Y0016763D01*
X0032397Y0016794D01*
X0032548Y0016822D01*
X0032699Y0016846D01*
X0032852Y0016866D01*
X0033004Y0016882D01*
X0033157Y0016894D01*
X0033310Y0016902D01*
X0033463Y0016906D01*
X0033617Y0016906D01*
X0033770Y0016902D01*
X0033923Y0016894D01*
X0034076Y0016882D01*
X0034228Y0016866D01*
X0034381Y0016846D01*
X0034532Y0016822D01*
X0034683Y0016794D01*
X0034833Y0016763D01*
X0034982Y0016727D01*
X0035130Y0016688D01*
X0035277Y0016645D01*
X0035423Y0016598D01*
X0035568Y0016547D01*
X0035711Y0016492D01*
X0035853Y0016434D01*
X0035993Y0016372D01*
X0036132Y0016307D01*
X0036269Y0016238D01*
X0036404Y0016165D01*
X0036537Y0016089D01*
X0036668Y0016009D01*
X0036797Y0015927D01*
X0036924Y0015840D01*
X0037049Y0015751D01*
X0037171Y0015658D01*
X0037290Y0015562D01*
X0037408Y0015463D01*
X0037522Y0015362D01*
X0037634Y0015257D01*
X0037743Y0015149D01*
X0037849Y0015038D01*
X0037953Y0014925D01*
X0038053Y0014809D01*
X0038151Y0014691D01*
X0038245Y0014570D01*
X0038336Y0014447D01*
X0038424Y0014321D01*
X0038508Y0014193D01*
X0038590Y0014063D01*
X0038667Y0013931D01*
X0038742Y0013797D01*
X0038813Y0013661D01*
X0038880Y0013523D01*
X0038944Y0013383D01*
X0039004Y0013242D01*
X0039060Y0013100D01*
X0039113Y0012956D01*
X0039162Y0012810D01*
X0039207Y0012664D01*
X0039248Y0012516D01*
X0039285Y0012368D01*
X0039319Y0012218D01*
X0039349Y0012067D01*
X0039374Y0011916D01*
X0039396Y0011765D01*
X0039414Y0011612D01*
X0039428Y0011460D01*
X0039438Y0011307D01*
X0039444Y0011153D01*
X0039446Y0011000D01*
X0039444Y0010847D01*
X0039438Y0010693D01*
X0039428Y0010540D01*
X0039414Y0010388D01*
X0039396Y0010235D01*
X0039374Y0010084D01*
X0039349Y0009933D01*
X0039319Y0009782D01*
X0039285Y0009632D01*
X0039248Y0009484D01*
X0039207Y0009336D01*
X0039162Y0009190D01*
X0039113Y0009044D01*
X0039060Y0008900D01*
X0039004Y0008758D01*
X0038944Y0008617D01*
X0038880Y0008477D01*
X0038813Y0008339D01*
X0038742Y0008203D01*
X0038667Y0008069D01*
X0038590Y0007937D01*
X0038508Y0007807D01*
X0038424Y0007679D01*
X0038336Y0007553D01*
X0038245Y0007430D01*
X0038151Y0007309D01*
X0038053Y0007191D01*
X0037953Y0007075D01*
X0037849Y0006962D01*
X0037743Y0006851D01*
X0037634Y0006743D01*
X0037522Y0006638D01*
X0037408Y0006537D01*
X0037290Y0006438D01*
X0037171Y0006342D01*
X0037049Y0006249D01*
X0036924Y0006160D01*
X0036797Y0006073D01*
X0036668Y0005991D01*
X0036537Y0005911D01*
X0036404Y0005835D01*
X0036269Y0005762D01*
X0036132Y0005693D01*
X0035993Y0005628D01*
X0035853Y0005566D01*
X0035711Y0005508D01*
X0035568Y0005453D01*
X0035423Y0005402D01*
X0035277Y0005355D01*
X0035130Y0005312D01*
X0034982Y0005273D01*
X0034833Y0005237D01*
X0034683Y0005206D01*
X0034532Y0005178D01*
X0034381Y0005154D01*
X0034228Y0005134D01*
X0034076Y0005118D01*
X0033923Y0005106D01*
X0033770Y0005098D01*
X0033617Y0005094D01*
X0033463Y0005094D01*
X0033310Y0005098D01*
X0033157Y0005106D01*
X0033004Y0005118D01*
X0032852Y0005134D01*
X0032699Y0005154D01*
X0032548Y0005178D01*
X0032397Y0005206D01*
X0032247Y0005237D01*
X0032098Y0005273D01*
X0031950Y0005312D01*
X0031803Y0005355D01*
X0031657Y0005402D01*
X0031512Y0005453D01*
X0031369Y0005508D01*
X0031227Y0005566D01*
X0031087Y0005628D01*
X0030948Y0005693D01*
X0030811Y0005762D01*
X0030676Y0005835D01*
X0030543Y0005911D01*
X0030412Y0005991D01*
X0030283Y0006073D01*
X0030156Y0006160D01*
X0030031Y0006249D01*
X0029909Y0006342D01*
X0029790Y0006438D01*
X0029672Y0006537D01*
X0029558Y0006638D01*
X0029446Y0006743D01*
X0029337Y0006851D01*
X0029231Y0006962D01*
X0029127Y0007075D01*
X0029027Y0007191D01*
X0028929Y0007309D01*
X0028835Y0007430D01*
X0028744Y0007553D01*
X0028656Y0007679D01*
X0028572Y0007807D01*
X0028490Y0007937D01*
X0028413Y0008069D01*
X0028338Y0008203D01*
X0028267Y0008339D01*
X0028200Y0008477D01*
X0028136Y0008617D01*
X0028076Y0008758D01*
X0028020Y0008900D01*
X0027967Y0009044D01*
X0027918Y0009190D01*
X0027873Y0009336D01*
X0027832Y0009484D01*
X0027795Y0009632D01*
X0027761Y0009782D01*
X0027731Y0009933D01*
X0027706Y0010084D01*
X0027684Y0010235D01*
X0027666Y0010388D01*
X0027652Y0010540D01*
X0027642Y0010693D01*
X0027636Y0010847D01*
X0027634Y0011000D01*
X0322634Y0011000D02*
X0322636Y0011153D01*
X0322642Y0011307D01*
X0322652Y0011460D01*
X0322666Y0011612D01*
X0322684Y0011765D01*
X0322706Y0011916D01*
X0322731Y0012067D01*
X0322761Y0012218D01*
X0322795Y0012368D01*
X0322832Y0012516D01*
X0322873Y0012664D01*
X0322918Y0012810D01*
X0322967Y0012956D01*
X0323020Y0013100D01*
X0323076Y0013242D01*
X0323136Y0013383D01*
X0323200Y0013523D01*
X0323267Y0013661D01*
X0323338Y0013797D01*
X0323413Y0013931D01*
X0323490Y0014063D01*
X0323572Y0014193D01*
X0323656Y0014321D01*
X0323744Y0014447D01*
X0323835Y0014570D01*
X0323929Y0014691D01*
X0324027Y0014809D01*
X0324127Y0014925D01*
X0324231Y0015038D01*
X0324337Y0015149D01*
X0324446Y0015257D01*
X0324558Y0015362D01*
X0324672Y0015463D01*
X0324790Y0015562D01*
X0324909Y0015658D01*
X0325031Y0015751D01*
X0325156Y0015840D01*
X0325283Y0015927D01*
X0325412Y0016009D01*
X0325543Y0016089D01*
X0325676Y0016165D01*
X0325811Y0016238D01*
X0325948Y0016307D01*
X0326087Y0016372D01*
X0326227Y0016434D01*
X0326369Y0016492D01*
X0326512Y0016547D01*
X0326657Y0016598D01*
X0326803Y0016645D01*
X0326950Y0016688D01*
X0327098Y0016727D01*
X0327247Y0016763D01*
X0327397Y0016794D01*
X0327548Y0016822D01*
X0327699Y0016846D01*
X0327852Y0016866D01*
X0328004Y0016882D01*
X0328157Y0016894D01*
X0328310Y0016902D01*
X0328463Y0016906D01*
X0328617Y0016906D01*
X0328770Y0016902D01*
X0328923Y0016894D01*
X0329076Y0016882D01*
X0329228Y0016866D01*
X0329381Y0016846D01*
X0329532Y0016822D01*
X0329683Y0016794D01*
X0329833Y0016763D01*
X0329982Y0016727D01*
X0330130Y0016688D01*
X0330277Y0016645D01*
X0330423Y0016598D01*
X0330568Y0016547D01*
X0330711Y0016492D01*
X0330853Y0016434D01*
X0330993Y0016372D01*
X0331132Y0016307D01*
X0331269Y0016238D01*
X0331404Y0016165D01*
X0331537Y0016089D01*
X0331668Y0016009D01*
X0331797Y0015927D01*
X0331924Y0015840D01*
X0332049Y0015751D01*
X0332171Y0015658D01*
X0332290Y0015562D01*
X0332408Y0015463D01*
X0332522Y0015362D01*
X0332634Y0015257D01*
X0332743Y0015149D01*
X0332849Y0015038D01*
X0332953Y0014925D01*
X0333053Y0014809D01*
X0333151Y0014691D01*
X0333245Y0014570D01*
X0333336Y0014447D01*
X0333424Y0014321D01*
X0333508Y0014193D01*
X0333590Y0014063D01*
X0333667Y0013931D01*
X0333742Y0013797D01*
X0333813Y0013661D01*
X0333880Y0013523D01*
X0333944Y0013383D01*
X0334004Y0013242D01*
X0334060Y0013100D01*
X0334113Y0012956D01*
X0334162Y0012810D01*
X0334207Y0012664D01*
X0334248Y0012516D01*
X0334285Y0012368D01*
X0334319Y0012218D01*
X0334349Y0012067D01*
X0334374Y0011916D01*
X0334396Y0011765D01*
X0334414Y0011612D01*
X0334428Y0011460D01*
X0334438Y0011307D01*
X0334444Y0011153D01*
X0334446Y0011000D01*
X0334444Y0010847D01*
X0334438Y0010693D01*
X0334428Y0010540D01*
X0334414Y0010388D01*
X0334396Y0010235D01*
X0334374Y0010084D01*
X0334349Y0009933D01*
X0334319Y0009782D01*
X0334285Y0009632D01*
X0334248Y0009484D01*
X0334207Y0009336D01*
X0334162Y0009190D01*
X0334113Y0009044D01*
X0334060Y0008900D01*
X0334004Y0008758D01*
X0333944Y0008617D01*
X0333880Y0008477D01*
X0333813Y0008339D01*
X0333742Y0008203D01*
X0333667Y0008069D01*
X0333590Y0007937D01*
X0333508Y0007807D01*
X0333424Y0007679D01*
X0333336Y0007553D01*
X0333245Y0007430D01*
X0333151Y0007309D01*
X0333053Y0007191D01*
X0332953Y0007075D01*
X0332849Y0006962D01*
X0332743Y0006851D01*
X0332634Y0006743D01*
X0332522Y0006638D01*
X0332408Y0006537D01*
X0332290Y0006438D01*
X0332171Y0006342D01*
X0332049Y0006249D01*
X0331924Y0006160D01*
X0331797Y0006073D01*
X0331668Y0005991D01*
X0331537Y0005911D01*
X0331404Y0005835D01*
X0331269Y0005762D01*
X0331132Y0005693D01*
X0330993Y0005628D01*
X0330853Y0005566D01*
X0330711Y0005508D01*
X0330568Y0005453D01*
X0330423Y0005402D01*
X0330277Y0005355D01*
X0330130Y0005312D01*
X0329982Y0005273D01*
X0329833Y0005237D01*
X0329683Y0005206D01*
X0329532Y0005178D01*
X0329381Y0005154D01*
X0329228Y0005134D01*
X0329076Y0005118D01*
X0328923Y0005106D01*
X0328770Y0005098D01*
X0328617Y0005094D01*
X0328463Y0005094D01*
X0328310Y0005098D01*
X0328157Y0005106D01*
X0328004Y0005118D01*
X0327852Y0005134D01*
X0327699Y0005154D01*
X0327548Y0005178D01*
X0327397Y0005206D01*
X0327247Y0005237D01*
X0327098Y0005273D01*
X0326950Y0005312D01*
X0326803Y0005355D01*
X0326657Y0005402D01*
X0326512Y0005453D01*
X0326369Y0005508D01*
X0326227Y0005566D01*
X0326087Y0005628D01*
X0325948Y0005693D01*
X0325811Y0005762D01*
X0325676Y0005835D01*
X0325543Y0005911D01*
X0325412Y0005991D01*
X0325283Y0006073D01*
X0325156Y0006160D01*
X0325031Y0006249D01*
X0324909Y0006342D01*
X0324790Y0006438D01*
X0324672Y0006537D01*
X0324558Y0006638D01*
X0324446Y0006743D01*
X0324337Y0006851D01*
X0324231Y0006962D01*
X0324127Y0007075D01*
X0324027Y0007191D01*
X0323929Y0007309D01*
X0323835Y0007430D01*
X0323744Y0007553D01*
X0323656Y0007679D01*
X0323572Y0007807D01*
X0323490Y0007937D01*
X0323413Y0008069D01*
X0323338Y0008203D01*
X0323267Y0008339D01*
X0323200Y0008477D01*
X0323136Y0008617D01*
X0323076Y0008758D01*
X0323020Y0008900D01*
X0322967Y0009044D01*
X0322918Y0009190D01*
X0322873Y0009336D01*
X0322832Y0009484D01*
X0322795Y0009632D01*
X0322761Y0009782D01*
X0322731Y0009933D01*
X0322706Y0010084D01*
X0322684Y0010235D01*
X0322666Y0010388D01*
X0322652Y0010540D01*
X0322642Y0010693D01*
X0322636Y0010847D01*
X0322634Y0011000D01*
X0322634Y0146000D02*
X0322636Y0146153D01*
X0322642Y0146307D01*
X0322652Y0146460D01*
X0322666Y0146612D01*
X0322684Y0146765D01*
X0322706Y0146916D01*
X0322731Y0147067D01*
X0322761Y0147218D01*
X0322795Y0147368D01*
X0322832Y0147516D01*
X0322873Y0147664D01*
X0322918Y0147810D01*
X0322967Y0147956D01*
X0323020Y0148100D01*
X0323076Y0148242D01*
X0323136Y0148383D01*
X0323200Y0148523D01*
X0323267Y0148661D01*
X0323338Y0148797D01*
X0323413Y0148931D01*
X0323490Y0149063D01*
X0323572Y0149193D01*
X0323656Y0149321D01*
X0323744Y0149447D01*
X0323835Y0149570D01*
X0323929Y0149691D01*
X0324027Y0149809D01*
X0324127Y0149925D01*
X0324231Y0150038D01*
X0324337Y0150149D01*
X0324446Y0150257D01*
X0324558Y0150362D01*
X0324672Y0150463D01*
X0324790Y0150562D01*
X0324909Y0150658D01*
X0325031Y0150751D01*
X0325156Y0150840D01*
X0325283Y0150927D01*
X0325412Y0151009D01*
X0325543Y0151089D01*
X0325676Y0151165D01*
X0325811Y0151238D01*
X0325948Y0151307D01*
X0326087Y0151372D01*
X0326227Y0151434D01*
X0326369Y0151492D01*
X0326512Y0151547D01*
X0326657Y0151598D01*
X0326803Y0151645D01*
X0326950Y0151688D01*
X0327098Y0151727D01*
X0327247Y0151763D01*
X0327397Y0151794D01*
X0327548Y0151822D01*
X0327699Y0151846D01*
X0327852Y0151866D01*
X0328004Y0151882D01*
X0328157Y0151894D01*
X0328310Y0151902D01*
X0328463Y0151906D01*
X0328617Y0151906D01*
X0328770Y0151902D01*
X0328923Y0151894D01*
X0329076Y0151882D01*
X0329228Y0151866D01*
X0329381Y0151846D01*
X0329532Y0151822D01*
X0329683Y0151794D01*
X0329833Y0151763D01*
X0329982Y0151727D01*
X0330130Y0151688D01*
X0330277Y0151645D01*
X0330423Y0151598D01*
X0330568Y0151547D01*
X0330711Y0151492D01*
X0330853Y0151434D01*
X0330993Y0151372D01*
X0331132Y0151307D01*
X0331269Y0151238D01*
X0331404Y0151165D01*
X0331537Y0151089D01*
X0331668Y0151009D01*
X0331797Y0150927D01*
X0331924Y0150840D01*
X0332049Y0150751D01*
X0332171Y0150658D01*
X0332290Y0150562D01*
X0332408Y0150463D01*
X0332522Y0150362D01*
X0332634Y0150257D01*
X0332743Y0150149D01*
X0332849Y0150038D01*
X0332953Y0149925D01*
X0333053Y0149809D01*
X0333151Y0149691D01*
X0333245Y0149570D01*
X0333336Y0149447D01*
X0333424Y0149321D01*
X0333508Y0149193D01*
X0333590Y0149063D01*
X0333667Y0148931D01*
X0333742Y0148797D01*
X0333813Y0148661D01*
X0333880Y0148523D01*
X0333944Y0148383D01*
X0334004Y0148242D01*
X0334060Y0148100D01*
X0334113Y0147956D01*
X0334162Y0147810D01*
X0334207Y0147664D01*
X0334248Y0147516D01*
X0334285Y0147368D01*
X0334319Y0147218D01*
X0334349Y0147067D01*
X0334374Y0146916D01*
X0334396Y0146765D01*
X0334414Y0146612D01*
X0334428Y0146460D01*
X0334438Y0146307D01*
X0334444Y0146153D01*
X0334446Y0146000D01*
X0334444Y0145847D01*
X0334438Y0145693D01*
X0334428Y0145540D01*
X0334414Y0145388D01*
X0334396Y0145235D01*
X0334374Y0145084D01*
X0334349Y0144933D01*
X0334319Y0144782D01*
X0334285Y0144632D01*
X0334248Y0144484D01*
X0334207Y0144336D01*
X0334162Y0144190D01*
X0334113Y0144044D01*
X0334060Y0143900D01*
X0334004Y0143758D01*
X0333944Y0143617D01*
X0333880Y0143477D01*
X0333813Y0143339D01*
X0333742Y0143203D01*
X0333667Y0143069D01*
X0333590Y0142937D01*
X0333508Y0142807D01*
X0333424Y0142679D01*
X0333336Y0142553D01*
X0333245Y0142430D01*
X0333151Y0142309D01*
X0333053Y0142191D01*
X0332953Y0142075D01*
X0332849Y0141962D01*
X0332743Y0141851D01*
X0332634Y0141743D01*
X0332522Y0141638D01*
X0332408Y0141537D01*
X0332290Y0141438D01*
X0332171Y0141342D01*
X0332049Y0141249D01*
X0331924Y0141160D01*
X0331797Y0141073D01*
X0331668Y0140991D01*
X0331537Y0140911D01*
X0331404Y0140835D01*
X0331269Y0140762D01*
X0331132Y0140693D01*
X0330993Y0140628D01*
X0330853Y0140566D01*
X0330711Y0140508D01*
X0330568Y0140453D01*
X0330423Y0140402D01*
X0330277Y0140355D01*
X0330130Y0140312D01*
X0329982Y0140273D01*
X0329833Y0140237D01*
X0329683Y0140206D01*
X0329532Y0140178D01*
X0329381Y0140154D01*
X0329228Y0140134D01*
X0329076Y0140118D01*
X0328923Y0140106D01*
X0328770Y0140098D01*
X0328617Y0140094D01*
X0328463Y0140094D01*
X0328310Y0140098D01*
X0328157Y0140106D01*
X0328004Y0140118D01*
X0327852Y0140134D01*
X0327699Y0140154D01*
X0327548Y0140178D01*
X0327397Y0140206D01*
X0327247Y0140237D01*
X0327098Y0140273D01*
X0326950Y0140312D01*
X0326803Y0140355D01*
X0326657Y0140402D01*
X0326512Y0140453D01*
X0326369Y0140508D01*
X0326227Y0140566D01*
X0326087Y0140628D01*
X0325948Y0140693D01*
X0325811Y0140762D01*
X0325676Y0140835D01*
X0325543Y0140911D01*
X0325412Y0140991D01*
X0325283Y0141073D01*
X0325156Y0141160D01*
X0325031Y0141249D01*
X0324909Y0141342D01*
X0324790Y0141438D01*
X0324672Y0141537D01*
X0324558Y0141638D01*
X0324446Y0141743D01*
X0324337Y0141851D01*
X0324231Y0141962D01*
X0324127Y0142075D01*
X0324027Y0142191D01*
X0323929Y0142309D01*
X0323835Y0142430D01*
X0323744Y0142553D01*
X0323656Y0142679D01*
X0323572Y0142807D01*
X0323490Y0142937D01*
X0323413Y0143069D01*
X0323338Y0143203D01*
X0323267Y0143339D01*
X0323200Y0143477D01*
X0323136Y0143617D01*
X0323076Y0143758D01*
X0323020Y0143900D01*
X0322967Y0144044D01*
X0322918Y0144190D01*
X0322873Y0144336D01*
X0322832Y0144484D01*
X0322795Y0144632D01*
X0322761Y0144782D01*
X0322731Y0144933D01*
X0322706Y0145084D01*
X0322684Y0145235D01*
X0322666Y0145388D01*
X0322652Y0145540D01*
X0322642Y0145693D01*
X0322636Y0145847D01*
X0322634Y0146000D01*
X0322634Y0176000D02*
X0322636Y0176153D01*
X0322642Y0176307D01*
X0322652Y0176460D01*
X0322666Y0176612D01*
X0322684Y0176765D01*
X0322706Y0176916D01*
X0322731Y0177067D01*
X0322761Y0177218D01*
X0322795Y0177368D01*
X0322832Y0177516D01*
X0322873Y0177664D01*
X0322918Y0177810D01*
X0322967Y0177956D01*
X0323020Y0178100D01*
X0323076Y0178242D01*
X0323136Y0178383D01*
X0323200Y0178523D01*
X0323267Y0178661D01*
X0323338Y0178797D01*
X0323413Y0178931D01*
X0323490Y0179063D01*
X0323572Y0179193D01*
X0323656Y0179321D01*
X0323744Y0179447D01*
X0323835Y0179570D01*
X0323929Y0179691D01*
X0324027Y0179809D01*
X0324127Y0179925D01*
X0324231Y0180038D01*
X0324337Y0180149D01*
X0324446Y0180257D01*
X0324558Y0180362D01*
X0324672Y0180463D01*
X0324790Y0180562D01*
X0324909Y0180658D01*
X0325031Y0180751D01*
X0325156Y0180840D01*
X0325283Y0180927D01*
X0325412Y0181009D01*
X0325543Y0181089D01*
X0325676Y0181165D01*
X0325811Y0181238D01*
X0325948Y0181307D01*
X0326087Y0181372D01*
X0326227Y0181434D01*
X0326369Y0181492D01*
X0326512Y0181547D01*
X0326657Y0181598D01*
X0326803Y0181645D01*
X0326950Y0181688D01*
X0327098Y0181727D01*
X0327247Y0181763D01*
X0327397Y0181794D01*
X0327548Y0181822D01*
X0327699Y0181846D01*
X0327852Y0181866D01*
X0328004Y0181882D01*
X0328157Y0181894D01*
X0328310Y0181902D01*
X0328463Y0181906D01*
X0328617Y0181906D01*
X0328770Y0181902D01*
X0328923Y0181894D01*
X0329076Y0181882D01*
X0329228Y0181866D01*
X0329381Y0181846D01*
X0329532Y0181822D01*
X0329683Y0181794D01*
X0329833Y0181763D01*
X0329982Y0181727D01*
X0330130Y0181688D01*
X0330277Y0181645D01*
X0330423Y0181598D01*
X0330568Y0181547D01*
X0330711Y0181492D01*
X0330853Y0181434D01*
X0330993Y0181372D01*
X0331132Y0181307D01*
X0331269Y0181238D01*
X0331404Y0181165D01*
X0331537Y0181089D01*
X0331668Y0181009D01*
X0331797Y0180927D01*
X0331924Y0180840D01*
X0332049Y0180751D01*
X0332171Y0180658D01*
X0332290Y0180562D01*
X0332408Y0180463D01*
X0332522Y0180362D01*
X0332634Y0180257D01*
X0332743Y0180149D01*
X0332849Y0180038D01*
X0332953Y0179925D01*
X0333053Y0179809D01*
X0333151Y0179691D01*
X0333245Y0179570D01*
X0333336Y0179447D01*
X0333424Y0179321D01*
X0333508Y0179193D01*
X0333590Y0179063D01*
X0333667Y0178931D01*
X0333742Y0178797D01*
X0333813Y0178661D01*
X0333880Y0178523D01*
X0333944Y0178383D01*
X0334004Y0178242D01*
X0334060Y0178100D01*
X0334113Y0177956D01*
X0334162Y0177810D01*
X0334207Y0177664D01*
X0334248Y0177516D01*
X0334285Y0177368D01*
X0334319Y0177218D01*
X0334349Y0177067D01*
X0334374Y0176916D01*
X0334396Y0176765D01*
X0334414Y0176612D01*
X0334428Y0176460D01*
X0334438Y0176307D01*
X0334444Y0176153D01*
X0334446Y0176000D01*
X0334444Y0175847D01*
X0334438Y0175693D01*
X0334428Y0175540D01*
X0334414Y0175388D01*
X0334396Y0175235D01*
X0334374Y0175084D01*
X0334349Y0174933D01*
X0334319Y0174782D01*
X0334285Y0174632D01*
X0334248Y0174484D01*
X0334207Y0174336D01*
X0334162Y0174190D01*
X0334113Y0174044D01*
X0334060Y0173900D01*
X0334004Y0173758D01*
X0333944Y0173617D01*
X0333880Y0173477D01*
X0333813Y0173339D01*
X0333742Y0173203D01*
X0333667Y0173069D01*
X0333590Y0172937D01*
X0333508Y0172807D01*
X0333424Y0172679D01*
X0333336Y0172553D01*
X0333245Y0172430D01*
X0333151Y0172309D01*
X0333053Y0172191D01*
X0332953Y0172075D01*
X0332849Y0171962D01*
X0332743Y0171851D01*
X0332634Y0171743D01*
X0332522Y0171638D01*
X0332408Y0171537D01*
X0332290Y0171438D01*
X0332171Y0171342D01*
X0332049Y0171249D01*
X0331924Y0171160D01*
X0331797Y0171073D01*
X0331668Y0170991D01*
X0331537Y0170911D01*
X0331404Y0170835D01*
X0331269Y0170762D01*
X0331132Y0170693D01*
X0330993Y0170628D01*
X0330853Y0170566D01*
X0330711Y0170508D01*
X0330568Y0170453D01*
X0330423Y0170402D01*
X0330277Y0170355D01*
X0330130Y0170312D01*
X0329982Y0170273D01*
X0329833Y0170237D01*
X0329683Y0170206D01*
X0329532Y0170178D01*
X0329381Y0170154D01*
X0329228Y0170134D01*
X0329076Y0170118D01*
X0328923Y0170106D01*
X0328770Y0170098D01*
X0328617Y0170094D01*
X0328463Y0170094D01*
X0328310Y0170098D01*
X0328157Y0170106D01*
X0328004Y0170118D01*
X0327852Y0170134D01*
X0327699Y0170154D01*
X0327548Y0170178D01*
X0327397Y0170206D01*
X0327247Y0170237D01*
X0327098Y0170273D01*
X0326950Y0170312D01*
X0326803Y0170355D01*
X0326657Y0170402D01*
X0326512Y0170453D01*
X0326369Y0170508D01*
X0326227Y0170566D01*
X0326087Y0170628D01*
X0325948Y0170693D01*
X0325811Y0170762D01*
X0325676Y0170835D01*
X0325543Y0170911D01*
X0325412Y0170991D01*
X0325283Y0171073D01*
X0325156Y0171160D01*
X0325031Y0171249D01*
X0324909Y0171342D01*
X0324790Y0171438D01*
X0324672Y0171537D01*
X0324558Y0171638D01*
X0324446Y0171743D01*
X0324337Y0171851D01*
X0324231Y0171962D01*
X0324127Y0172075D01*
X0324027Y0172191D01*
X0323929Y0172309D01*
X0323835Y0172430D01*
X0323744Y0172553D01*
X0323656Y0172679D01*
X0323572Y0172807D01*
X0323490Y0172937D01*
X0323413Y0173069D01*
X0323338Y0173203D01*
X0323267Y0173339D01*
X0323200Y0173477D01*
X0323136Y0173617D01*
X0323076Y0173758D01*
X0323020Y0173900D01*
X0322967Y0174044D01*
X0322918Y0174190D01*
X0322873Y0174336D01*
X0322832Y0174484D01*
X0322795Y0174632D01*
X0322761Y0174782D01*
X0322731Y0174933D01*
X0322706Y0175084D01*
X0322684Y0175235D01*
X0322666Y0175388D01*
X0322652Y0175540D01*
X0322642Y0175693D01*
X0322636Y0175847D01*
X0322634Y0176000D01*
X0322634Y0226000D02*
X0322636Y0226153D01*
X0322642Y0226307D01*
X0322652Y0226460D01*
X0322666Y0226612D01*
X0322684Y0226765D01*
X0322706Y0226916D01*
X0322731Y0227067D01*
X0322761Y0227218D01*
X0322795Y0227368D01*
X0322832Y0227516D01*
X0322873Y0227664D01*
X0322918Y0227810D01*
X0322967Y0227956D01*
X0323020Y0228100D01*
X0323076Y0228242D01*
X0323136Y0228383D01*
X0323200Y0228523D01*
X0323267Y0228661D01*
X0323338Y0228797D01*
X0323413Y0228931D01*
X0323490Y0229063D01*
X0323572Y0229193D01*
X0323656Y0229321D01*
X0323744Y0229447D01*
X0323835Y0229570D01*
X0323929Y0229691D01*
X0324027Y0229809D01*
X0324127Y0229925D01*
X0324231Y0230038D01*
X0324337Y0230149D01*
X0324446Y0230257D01*
X0324558Y0230362D01*
X0324672Y0230463D01*
X0324790Y0230562D01*
X0324909Y0230658D01*
X0325031Y0230751D01*
X0325156Y0230840D01*
X0325283Y0230927D01*
X0325412Y0231009D01*
X0325543Y0231089D01*
X0325676Y0231165D01*
X0325811Y0231238D01*
X0325948Y0231307D01*
X0326087Y0231372D01*
X0326227Y0231434D01*
X0326369Y0231492D01*
X0326512Y0231547D01*
X0326657Y0231598D01*
X0326803Y0231645D01*
X0326950Y0231688D01*
X0327098Y0231727D01*
X0327247Y0231763D01*
X0327397Y0231794D01*
X0327548Y0231822D01*
X0327699Y0231846D01*
X0327852Y0231866D01*
X0328004Y0231882D01*
X0328157Y0231894D01*
X0328310Y0231902D01*
X0328463Y0231906D01*
X0328617Y0231906D01*
X0328770Y0231902D01*
X0328923Y0231894D01*
X0329076Y0231882D01*
X0329228Y0231866D01*
X0329381Y0231846D01*
X0329532Y0231822D01*
X0329683Y0231794D01*
X0329833Y0231763D01*
X0329982Y0231727D01*
X0330130Y0231688D01*
X0330277Y0231645D01*
X0330423Y0231598D01*
X0330568Y0231547D01*
X0330711Y0231492D01*
X0330853Y0231434D01*
X0330993Y0231372D01*
X0331132Y0231307D01*
X0331269Y0231238D01*
X0331404Y0231165D01*
X0331537Y0231089D01*
X0331668Y0231009D01*
X0331797Y0230927D01*
X0331924Y0230840D01*
X0332049Y0230751D01*
X0332171Y0230658D01*
X0332290Y0230562D01*
X0332408Y0230463D01*
X0332522Y0230362D01*
X0332634Y0230257D01*
X0332743Y0230149D01*
X0332849Y0230038D01*
X0332953Y0229925D01*
X0333053Y0229809D01*
X0333151Y0229691D01*
X0333245Y0229570D01*
X0333336Y0229447D01*
X0333424Y0229321D01*
X0333508Y0229193D01*
X0333590Y0229063D01*
X0333667Y0228931D01*
X0333742Y0228797D01*
X0333813Y0228661D01*
X0333880Y0228523D01*
X0333944Y0228383D01*
X0334004Y0228242D01*
X0334060Y0228100D01*
X0334113Y0227956D01*
X0334162Y0227810D01*
X0334207Y0227664D01*
X0334248Y0227516D01*
X0334285Y0227368D01*
X0334319Y0227218D01*
X0334349Y0227067D01*
X0334374Y0226916D01*
X0334396Y0226765D01*
X0334414Y0226612D01*
X0334428Y0226460D01*
X0334438Y0226307D01*
X0334444Y0226153D01*
X0334446Y0226000D01*
X0334444Y0225847D01*
X0334438Y0225693D01*
X0334428Y0225540D01*
X0334414Y0225388D01*
X0334396Y0225235D01*
X0334374Y0225084D01*
X0334349Y0224933D01*
X0334319Y0224782D01*
X0334285Y0224632D01*
X0334248Y0224484D01*
X0334207Y0224336D01*
X0334162Y0224190D01*
X0334113Y0224044D01*
X0334060Y0223900D01*
X0334004Y0223758D01*
X0333944Y0223617D01*
X0333880Y0223477D01*
X0333813Y0223339D01*
X0333742Y0223203D01*
X0333667Y0223069D01*
X0333590Y0222937D01*
X0333508Y0222807D01*
X0333424Y0222679D01*
X0333336Y0222553D01*
X0333245Y0222430D01*
X0333151Y0222309D01*
X0333053Y0222191D01*
X0332953Y0222075D01*
X0332849Y0221962D01*
X0332743Y0221851D01*
X0332634Y0221743D01*
X0332522Y0221638D01*
X0332408Y0221537D01*
X0332290Y0221438D01*
X0332171Y0221342D01*
X0332049Y0221249D01*
X0331924Y0221160D01*
X0331797Y0221073D01*
X0331668Y0220991D01*
X0331537Y0220911D01*
X0331404Y0220835D01*
X0331269Y0220762D01*
X0331132Y0220693D01*
X0330993Y0220628D01*
X0330853Y0220566D01*
X0330711Y0220508D01*
X0330568Y0220453D01*
X0330423Y0220402D01*
X0330277Y0220355D01*
X0330130Y0220312D01*
X0329982Y0220273D01*
X0329833Y0220237D01*
X0329683Y0220206D01*
X0329532Y0220178D01*
X0329381Y0220154D01*
X0329228Y0220134D01*
X0329076Y0220118D01*
X0328923Y0220106D01*
X0328770Y0220098D01*
X0328617Y0220094D01*
X0328463Y0220094D01*
X0328310Y0220098D01*
X0328157Y0220106D01*
X0328004Y0220118D01*
X0327852Y0220134D01*
X0327699Y0220154D01*
X0327548Y0220178D01*
X0327397Y0220206D01*
X0327247Y0220237D01*
X0327098Y0220273D01*
X0326950Y0220312D01*
X0326803Y0220355D01*
X0326657Y0220402D01*
X0326512Y0220453D01*
X0326369Y0220508D01*
X0326227Y0220566D01*
X0326087Y0220628D01*
X0325948Y0220693D01*
X0325811Y0220762D01*
X0325676Y0220835D01*
X0325543Y0220911D01*
X0325412Y0220991D01*
X0325283Y0221073D01*
X0325156Y0221160D01*
X0325031Y0221249D01*
X0324909Y0221342D01*
X0324790Y0221438D01*
X0324672Y0221537D01*
X0324558Y0221638D01*
X0324446Y0221743D01*
X0324337Y0221851D01*
X0324231Y0221962D01*
X0324127Y0222075D01*
X0324027Y0222191D01*
X0323929Y0222309D01*
X0323835Y0222430D01*
X0323744Y0222553D01*
X0323656Y0222679D01*
X0323572Y0222807D01*
X0323490Y0222937D01*
X0323413Y0223069D01*
X0323338Y0223203D01*
X0323267Y0223339D01*
X0323200Y0223477D01*
X0323136Y0223617D01*
X0323076Y0223758D01*
X0323020Y0223900D01*
X0322967Y0224044D01*
X0322918Y0224190D01*
X0322873Y0224336D01*
X0322832Y0224484D01*
X0322795Y0224632D01*
X0322761Y0224782D01*
X0322731Y0224933D01*
X0322706Y0225084D01*
X0322684Y0225235D01*
X0322666Y0225388D01*
X0322652Y0225540D01*
X0322642Y0225693D01*
X0322636Y0225847D01*
X0322634Y0226000D01*
D11*
X0318540Y0123600D02*
X0318540Y0118400D01*
X0308540Y0118400D02*
X0308540Y0123600D01*
X0298540Y0123600D02*
X0298540Y0118400D01*
X0288540Y0118400D02*
X0288540Y0123600D01*
X0278540Y0123600D02*
X0278540Y0118400D01*
X0268540Y0118400D02*
X0268540Y0123600D01*
X0258540Y0123600D02*
X0258540Y0118400D01*
X0248540Y0118400D02*
X0248540Y0123600D01*
X0238540Y0123600D02*
X0238540Y0118400D01*
X0218540Y0118400D02*
X0218540Y0123600D01*
X0208540Y0123600D02*
X0208540Y0118400D01*
X0198540Y0118400D02*
X0198540Y0123600D01*
X0188540Y0123600D02*
X0188540Y0118400D01*
X0178540Y0118400D02*
X0178540Y0123600D01*
X0168540Y0123600D02*
X0168540Y0118400D01*
X0158540Y0118400D02*
X0158540Y0123600D01*
X0148540Y0123600D02*
X0148540Y0118400D01*
X0138540Y0118400D02*
X0138540Y0123600D01*
X0118540Y0123600D02*
X0118540Y0118400D01*
X0108540Y0118400D02*
X0108540Y0123600D01*
X0098540Y0123600D02*
X0098540Y0118400D01*
X0088540Y0118400D02*
X0088540Y0123600D01*
X0078540Y0123600D02*
X0078540Y0118400D01*
X0068540Y0118400D02*
X0068540Y0123600D01*
X0058540Y0123600D02*
X0058540Y0118400D01*
X0048540Y0118400D02*
X0048540Y0123600D01*
X0038540Y0123600D02*
X0038540Y0118400D01*
X0038540Y0093600D02*
X0038540Y0088400D01*
X0048540Y0088400D02*
X0048540Y0093600D01*
X0058540Y0093600D02*
X0058540Y0088400D01*
X0068540Y0088400D02*
X0068540Y0093600D01*
X0078540Y0093600D02*
X0078540Y0088400D01*
X0088540Y0088400D02*
X0088540Y0093600D01*
X0098540Y0093600D02*
X0098540Y0088400D01*
X0108540Y0088400D02*
X0108540Y0093600D01*
X0118540Y0093600D02*
X0118540Y0088400D01*
X0138540Y0088400D02*
X0138540Y0093600D01*
X0148540Y0093600D02*
X0148540Y0088400D01*
X0158540Y0088400D02*
X0158540Y0093600D01*
X0168540Y0093600D02*
X0168540Y0088400D01*
X0178540Y0088400D02*
X0178540Y0093600D01*
X0188540Y0093600D02*
X0188540Y0088400D01*
X0198540Y0088400D02*
X0198540Y0093600D01*
X0208540Y0093600D02*
X0208540Y0088400D01*
X0218540Y0088400D02*
X0218540Y0093600D01*
X0238540Y0093600D02*
X0238540Y0088400D01*
X0248540Y0088400D02*
X0248540Y0093600D01*
X0258540Y0093600D02*
X0258540Y0088400D01*
X0268540Y0088400D02*
X0268540Y0093600D01*
X0278540Y0093600D02*
X0278540Y0088400D01*
X0288540Y0088400D02*
X0288540Y0093600D01*
X0298540Y0093600D02*
X0298540Y0088400D01*
X0308540Y0088400D02*
X0308540Y0093600D01*
X0318540Y0093600D02*
X0318540Y0088400D01*
D12*
X0283540Y0031000D03*
X0283540Y0021000D03*
X0113540Y0011000D03*
X0113540Y0071000D03*
X0123540Y0171000D03*
X0173540Y0221000D03*
X0123540Y0231000D03*
X0293540Y0221000D03*
X0303540Y0221000D03*
X0313540Y0221000D03*
X0293540Y0181000D03*
D13*
X0283540Y0181000D03*
X0273540Y0181000D03*
X0263540Y0181000D03*
X0263540Y0171000D03*
X0253540Y0171000D03*
X0243540Y0171000D03*
X0233540Y0171000D03*
X0223540Y0171000D03*
X0213540Y0171000D03*
X0203540Y0171000D03*
X0193540Y0171000D03*
X0183540Y0171000D03*
X0173540Y0171000D03*
X0163540Y0171000D03*
X0153540Y0171000D03*
X0143540Y0171000D03*
X0133540Y0171000D03*
X0163540Y0191000D03*
X0173540Y0191000D03*
X0173540Y0201000D03*
X0163540Y0201000D03*
X0163540Y0211000D03*
X0173540Y0211000D03*
X0163540Y0221000D03*
X0163540Y0231000D03*
X0153540Y0231000D03*
X0143540Y0231000D03*
X0133540Y0231000D03*
X0173540Y0231000D03*
X0183540Y0231000D03*
X0193540Y0231000D03*
X0203540Y0231000D03*
X0213540Y0231000D03*
X0223540Y0231000D03*
X0233540Y0231000D03*
X0243540Y0231000D03*
X0253540Y0231000D03*
X0263540Y0231000D03*
X0273540Y0231000D03*
X0283540Y0231000D03*
X0293540Y0231000D03*
X0303540Y0231000D03*
X0313540Y0231000D03*
X0283540Y0220685D03*
X0273540Y0220685D03*
X0263540Y0220685D03*
X0253540Y0220685D03*
X0223540Y0220685D03*
X0213540Y0220685D03*
X0203540Y0220685D03*
X0193540Y0220685D03*
X0273540Y0171000D03*
X0283540Y0171000D03*
X0293540Y0171000D03*
X0303540Y0171000D03*
X0313540Y0171000D03*
X0303540Y0071000D03*
X0293540Y0071000D03*
X0283540Y0071000D03*
X0273540Y0071000D03*
X0263540Y0071000D03*
X0253540Y0071000D03*
X0243540Y0071000D03*
X0233540Y0071000D03*
X0223540Y0071000D03*
X0213540Y0071000D03*
X0203540Y0071000D03*
X0193540Y0071000D03*
X0183540Y0071000D03*
X0173540Y0071000D03*
X0163540Y0071000D03*
X0153540Y0071000D03*
X0143540Y0071000D03*
X0133540Y0071000D03*
X0123540Y0071000D03*
X0123540Y0011000D03*
X0133540Y0011000D03*
X0143540Y0011000D03*
X0153540Y0011000D03*
X0163540Y0011000D03*
X0173540Y0011000D03*
X0183540Y0011000D03*
X0193540Y0011000D03*
X0203540Y0011000D03*
X0213540Y0011000D03*
X0223540Y0011000D03*
X0233540Y0011000D03*
X0243540Y0011000D03*
X0253540Y0011000D03*
X0263540Y0011000D03*
X0273540Y0011000D03*
X0283540Y0011000D03*
X0293540Y0011000D03*
X0303540Y0011000D03*
X0293540Y0031000D03*
X0293540Y0041000D03*
X0283540Y0041000D03*
X0283540Y0051000D03*
X0293540Y0051000D03*
X0293540Y0061000D03*
X0283540Y0061000D03*
X0273540Y0021000D03*
X0263540Y0021000D03*
X0253540Y0021000D03*
D14*
X0248540Y0138031D02*
X0248540Y0143969D01*
X0238540Y0143969D02*
X0238540Y0138031D01*
X0258540Y0138031D02*
X0258540Y0143969D01*
X0268540Y0143969D02*
X0268540Y0138031D01*
X0278540Y0138031D02*
X0278540Y0143969D01*
X0288540Y0143969D02*
X0288540Y0138031D01*
X0298540Y0138031D02*
X0298540Y0143969D01*
X0308540Y0143969D02*
X0308540Y0138031D01*
X0208540Y0138031D02*
X0208540Y0143969D01*
X0198540Y0143969D02*
X0198540Y0138031D01*
X0188540Y0138031D02*
X0188540Y0143969D01*
X0178540Y0143969D02*
X0178540Y0138031D01*
X0168540Y0138031D02*
X0168540Y0143969D01*
X0158540Y0143969D02*
X0158540Y0138031D01*
X0148540Y0138031D02*
X0148540Y0143969D01*
X0138540Y0143969D02*
X0138540Y0138031D01*
X0108540Y0138031D02*
X0108540Y0143969D01*
X0098540Y0143969D02*
X0098540Y0138031D01*
X0088540Y0138031D02*
X0088540Y0143969D01*
X0078540Y0143969D02*
X0078540Y0138031D01*
X0068540Y0138031D02*
X0068540Y0143969D01*
X0058540Y0143969D02*
X0058540Y0138031D01*
X0048540Y0138031D02*
X0048540Y0143969D01*
X0038540Y0143969D02*
X0038540Y0138031D01*
D15*
X0063698Y0029525D02*
X0063698Y0022475D01*
X0083383Y0022475D02*
X0083383Y0029525D01*
D16*
X0083008Y0029773D02*
X0083758Y0029773D01*
X0083758Y0028175D02*
X0083008Y0028175D01*
X0083008Y0026576D02*
X0083758Y0026576D01*
X0083758Y0026375D02*
X0083008Y0026375D01*
X0083008Y0034850D01*
X0082964Y0034850D01*
X0082136Y0034719D01*
X0081339Y0034460D01*
X0080592Y0034079D01*
X0079914Y0033587D01*
X0079321Y0032994D01*
X0078829Y0032316D01*
X0078448Y0031569D01*
X0078189Y0030772D01*
X0078058Y0029944D01*
X0078058Y0026375D01*
X0083008Y0026375D01*
X0083008Y0025625D01*
X0083758Y0025625D01*
X0083758Y0026375D01*
X0088708Y0026375D01*
X0088708Y0029944D01*
X0088577Y0030772D01*
X0088318Y0031569D01*
X0087937Y0032316D01*
X0087445Y0032994D01*
X0086852Y0033587D01*
X0086174Y0034079D01*
X0085427Y0034460D01*
X0084630Y0034719D01*
X0083802Y0034850D01*
X0083758Y0034850D01*
X0083758Y0026375D01*
X0083758Y0025625D02*
X0088708Y0025625D01*
X0088708Y0022056D01*
X0088577Y0021228D01*
X0088318Y0020431D01*
X0087937Y0019684D01*
X0087445Y0019006D01*
X0086852Y0018413D01*
X0086174Y0017921D01*
X0085427Y0017540D01*
X0084630Y0017281D01*
X0083802Y0017150D01*
X0083758Y0017150D01*
X0083758Y0025625D01*
X0083758Y0024978D02*
X0083008Y0024978D01*
X0083008Y0025625D02*
X0083008Y0017150D01*
X0082964Y0017150D01*
X0082136Y0017281D01*
X0081339Y0017540D01*
X0080592Y0017921D01*
X0079914Y0018413D01*
X0079321Y0019006D01*
X0078829Y0019684D01*
X0078448Y0020431D01*
X0078189Y0021228D01*
X0078058Y0022056D01*
X0078058Y0025625D01*
X0083008Y0025625D01*
X0083008Y0023379D02*
X0083758Y0023379D01*
X0083758Y0021781D02*
X0083008Y0021781D01*
X0083008Y0020182D02*
X0083758Y0020182D01*
X0083758Y0018584D02*
X0083008Y0018584D01*
X0079744Y0018584D02*
X0069317Y0018584D01*
X0069399Y0018666D02*
X0070423Y0021137D01*
X0070423Y0030863D01*
X0069399Y0033334D01*
X0067507Y0035226D01*
X0065036Y0036250D01*
X0062360Y0036250D01*
X0059888Y0035226D01*
X0057997Y0033334D01*
X0057996Y0033333D01*
X0033940Y0057388D01*
X0033940Y0084798D01*
X0035255Y0083483D01*
X0037387Y0082600D01*
X0039694Y0082600D01*
X0041826Y0083483D01*
X0043457Y0085115D01*
X0043540Y0085315D01*
X0043623Y0085115D01*
X0045255Y0083483D01*
X0047387Y0082600D01*
X0049694Y0082600D01*
X0051826Y0083483D01*
X0053457Y0085115D01*
X0053540Y0085315D01*
X0053623Y0085115D01*
X0055255Y0083483D01*
X0057387Y0082600D01*
X0059694Y0082600D01*
X0061826Y0083483D01*
X0063457Y0085115D01*
X0063540Y0085315D01*
X0063623Y0085115D01*
X0064540Y0084198D01*
X0064540Y0070204D01*
X0065149Y0068734D01*
X0066275Y0067609D01*
X0094540Y0039343D01*
X0094540Y0020204D01*
X0095149Y0018734D01*
X0096275Y0017609D01*
X0097745Y0017000D01*
X0141883Y0017000D01*
X0142192Y0016692D01*
X0140269Y0015896D01*
X0138645Y0014271D01*
X0138540Y0014019D01*
X0138436Y0014271D01*
X0136812Y0015896D01*
X0134689Y0016775D01*
X0132392Y0016775D01*
X0130269Y0015896D01*
X0128645Y0014271D01*
X0128540Y0014019D01*
X0128436Y0014271D01*
X0126812Y0015896D01*
X0124689Y0016775D01*
X0122392Y0016775D01*
X0120269Y0015896D01*
X0119101Y0014728D01*
X0118828Y0015387D01*
X0117928Y0016288D01*
X0116752Y0016775D01*
X0110329Y0016775D01*
X0109153Y0016288D01*
X0108253Y0015387D01*
X0107766Y0014211D01*
X0107766Y0007789D01*
X0108253Y0006613D01*
X0108865Y0006000D01*
X0043540Y0006000D01*
X0043540Y0021000D01*
X0028540Y0021000D01*
X0028540Y0049212D01*
X0055821Y0021931D01*
X0056973Y0021454D01*
X0056973Y0021137D01*
X0057997Y0018666D01*
X0059888Y0016774D01*
X0062360Y0015750D01*
X0065036Y0015750D01*
X0067507Y0016774D01*
X0069399Y0018666D01*
X0070027Y0020182D02*
X0078575Y0020182D01*
X0078101Y0021781D02*
X0070423Y0021781D01*
X0070423Y0023379D02*
X0078058Y0023379D01*
X0078058Y0024978D02*
X0070423Y0024978D01*
X0070423Y0026576D02*
X0078058Y0026576D01*
X0078058Y0028175D02*
X0070423Y0028175D01*
X0070423Y0029773D02*
X0078058Y0029773D01*
X0078384Y0031372D02*
X0070212Y0031372D01*
X0069550Y0032970D02*
X0079304Y0032970D01*
X0081674Y0034569D02*
X0068165Y0034569D01*
X0065235Y0036167D02*
X0094540Y0036167D01*
X0094540Y0034569D02*
X0085092Y0034569D01*
X0083758Y0034569D02*
X0083008Y0034569D01*
X0083008Y0032970D02*
X0083758Y0032970D01*
X0083758Y0031372D02*
X0083008Y0031372D01*
X0087462Y0032970D02*
X0094540Y0032970D01*
X0094540Y0031372D02*
X0088382Y0031372D01*
X0088708Y0029773D02*
X0094540Y0029773D01*
X0094540Y0028175D02*
X0088708Y0028175D01*
X0088708Y0026576D02*
X0094540Y0026576D01*
X0094540Y0024978D02*
X0088708Y0024978D01*
X0088708Y0023379D02*
X0094540Y0023379D01*
X0094540Y0021781D02*
X0088664Y0021781D01*
X0088191Y0020182D02*
X0094550Y0020182D01*
X0095300Y0018584D02*
X0087022Y0018584D01*
X0098540Y0021000D02*
X0098540Y0041000D01*
X0068540Y0071000D01*
X0068540Y0091000D01*
X0064540Y0084123D02*
X0062465Y0084123D01*
X0064540Y0082524D02*
X0033940Y0082524D01*
X0033940Y0080926D02*
X0064540Y0080926D01*
X0064540Y0079327D02*
X0033940Y0079327D01*
X0033940Y0077729D02*
X0064540Y0077729D01*
X0064540Y0076130D02*
X0033940Y0076130D01*
X0033940Y0074532D02*
X0064540Y0074532D01*
X0064540Y0072933D02*
X0033940Y0072933D01*
X0033940Y0071334D02*
X0064540Y0071334D01*
X0064734Y0069736D02*
X0033940Y0069736D01*
X0033940Y0068137D02*
X0065746Y0068137D01*
X0067345Y0066539D02*
X0033940Y0066539D01*
X0033940Y0064940D02*
X0068943Y0064940D01*
X0070542Y0063342D02*
X0033940Y0063342D01*
X0033940Y0061743D02*
X0072140Y0061743D01*
X0073739Y0060145D02*
X0033940Y0060145D01*
X0033940Y0058546D02*
X0075337Y0058546D01*
X0076936Y0056948D02*
X0034381Y0056948D01*
X0035979Y0055349D02*
X0078534Y0055349D01*
X0080133Y0053751D02*
X0037578Y0053751D01*
X0039176Y0052152D02*
X0081731Y0052152D01*
X0083330Y0050554D02*
X0040775Y0050554D01*
X0042373Y0048955D02*
X0084928Y0048955D01*
X0086527Y0047357D02*
X0043972Y0047357D01*
X0045570Y0045758D02*
X0088125Y0045758D01*
X0089724Y0044160D02*
X0047169Y0044160D01*
X0048767Y0042561D02*
X0091322Y0042561D01*
X0092921Y0040963D02*
X0050366Y0040963D01*
X0051964Y0039364D02*
X0094519Y0039364D01*
X0094540Y0037766D02*
X0053563Y0037766D01*
X0055161Y0036167D02*
X0062160Y0036167D01*
X0059231Y0034569D02*
X0056760Y0034569D01*
X0047979Y0029773D02*
X0028540Y0029773D01*
X0028540Y0028175D02*
X0049577Y0028175D01*
X0051176Y0026576D02*
X0028540Y0026576D01*
X0028540Y0024978D02*
X0052774Y0024978D01*
X0054373Y0023379D02*
X0028540Y0023379D01*
X0028540Y0021781D02*
X0056184Y0021781D01*
X0057368Y0020182D02*
X0043540Y0020182D01*
X0043540Y0018584D02*
X0058079Y0018584D01*
X0059677Y0016985D02*
X0043540Y0016985D01*
X0043540Y0015387D02*
X0108252Y0015387D01*
X0107766Y0013788D02*
X0043540Y0013788D01*
X0043540Y0012190D02*
X0107766Y0012190D01*
X0107766Y0010591D02*
X0043540Y0010591D01*
X0043540Y0008993D02*
X0107766Y0008993D01*
X0107929Y0007394D02*
X0043540Y0007394D01*
X0067719Y0016985D02*
X0141898Y0016985D01*
X0139760Y0015387D02*
X0137321Y0015387D01*
X0129760Y0015387D02*
X0127321Y0015387D01*
X0119760Y0015387D02*
X0118828Y0015387D01*
X0103540Y0026000D02*
X0103540Y0041000D01*
X0078540Y0066000D01*
X0078540Y0091000D01*
X0088540Y0091000D02*
X0088540Y0061000D01*
X0108540Y0041000D01*
X0108540Y0031000D01*
X0153540Y0031000D01*
X0173540Y0011000D01*
X0163540Y0011000D02*
X0148540Y0026000D01*
X0103540Y0026000D01*
X0098540Y0021000D02*
X0143540Y0021000D01*
X0153540Y0011000D01*
X0175220Y0024978D02*
X0201861Y0024978D01*
X0203460Y0026576D02*
X0173621Y0026576D01*
X0172022Y0028175D02*
X0205058Y0028175D01*
X0206657Y0029773D02*
X0170424Y0029773D01*
X0170390Y0031285D02*
X0172434Y0030438D01*
X0174647Y0030438D01*
X0176691Y0031285D01*
X0178256Y0032849D01*
X0179103Y0034894D01*
X0179103Y0037106D01*
X0178256Y0039151D01*
X0176691Y0040715D01*
X0174647Y0041562D01*
X0173635Y0041562D01*
X0171931Y0043266D01*
X0170806Y0044391D01*
X0169336Y0045000D01*
X0125197Y0045000D01*
X0117540Y0052657D01*
X0117540Y0065552D01*
X0117928Y0065712D01*
X0118828Y0066613D01*
X0119315Y0067789D01*
X0119315Y0069847D01*
X0119486Y0069321D01*
X0119799Y0068707D01*
X0120203Y0068150D01*
X0120690Y0067663D01*
X0121247Y0067258D01*
X0121861Y0066946D01*
X0122516Y0066733D01*
X0123196Y0066625D01*
X0123540Y0066625D01*
X0123540Y0071000D01*
X0123540Y0075375D01*
X0123196Y0075375D01*
X0122516Y0075267D01*
X0121861Y0075054D01*
X0121247Y0074742D01*
X0120690Y0074337D01*
X0120203Y0073850D01*
X0119799Y0073293D01*
X0119486Y0072679D01*
X0119315Y0072153D01*
X0119315Y0074211D01*
X0118828Y0075387D01*
X0117928Y0076288D01*
X0116752Y0076775D01*
X0110329Y0076775D01*
X0109153Y0076288D01*
X0108253Y0075387D01*
X0107766Y0074211D01*
X0107766Y0067789D01*
X0108253Y0066613D01*
X0109153Y0065712D01*
X0109540Y0065552D01*
X0109540Y0050657D01*
X0102540Y0057657D01*
X0102540Y0084198D01*
X0103457Y0085115D01*
X0103540Y0085315D01*
X0103623Y0085115D01*
X0105255Y0083483D01*
X0107387Y0082600D01*
X0109694Y0082600D01*
X0111826Y0083483D01*
X0113457Y0085115D01*
X0114311Y0087177D01*
X0114463Y0086711D01*
X0114777Y0086094D01*
X0115184Y0085534D01*
X0115674Y0085044D01*
X0116234Y0084637D01*
X0116851Y0084322D01*
X0117510Y0084108D01*
X0118194Y0084000D01*
X0118540Y0084000D01*
X0118540Y0091000D01*
X0118540Y0091000D01*
X0118540Y0096200D01*
X0118540Y0096200D01*
X0118540Y0091000D01*
X0118540Y0091000D01*
X0118540Y0096000D01*
X0118540Y0095312D02*
X0118540Y0095312D01*
X0118540Y0093714D02*
X0118540Y0093714D01*
X0118540Y0092115D02*
X0118540Y0092115D01*
X0118540Y0091000D02*
X0122940Y0091000D01*
X0122940Y0093946D01*
X0122832Y0094630D01*
X0122618Y0095289D01*
X0122304Y0095906D01*
X0122090Y0096200D01*
X0133339Y0096200D01*
X0132740Y0094754D01*
X0132740Y0087246D01*
X0133623Y0085115D01*
X0135255Y0083483D01*
X0137387Y0082600D01*
X0139694Y0082600D01*
X0141826Y0083483D01*
X0143457Y0085115D01*
X0143540Y0085315D01*
X0143623Y0085115D01*
X0145255Y0083483D01*
X0147387Y0082600D01*
X0149694Y0082600D01*
X0151826Y0083483D01*
X0153457Y0085115D01*
X0153540Y0085315D01*
X0153623Y0085115D01*
X0155255Y0083483D01*
X0157387Y0082600D01*
X0159694Y0082600D01*
X0161826Y0083483D01*
X0163457Y0085115D01*
X0163540Y0085315D01*
X0163623Y0085115D01*
X0165255Y0083483D01*
X0167387Y0082600D01*
X0169694Y0082600D01*
X0171826Y0083483D01*
X0173457Y0085115D01*
X0173540Y0085315D01*
X0173623Y0085115D01*
X0175255Y0083483D01*
X0177387Y0082600D01*
X0179694Y0082600D01*
X0181826Y0083483D01*
X0183457Y0085115D01*
X0183540Y0085315D01*
X0183623Y0085115D01*
X0185255Y0083483D01*
X0187387Y0082600D01*
X0189694Y0082600D01*
X0191826Y0083483D01*
X0193457Y0085115D01*
X0193540Y0085315D01*
X0193623Y0085115D01*
X0195255Y0083483D01*
X0197387Y0082600D01*
X0199694Y0082600D01*
X0201826Y0083483D01*
X0203457Y0085115D01*
X0203540Y0085315D01*
X0203623Y0085115D01*
X0205255Y0083483D01*
X0207387Y0082600D01*
X0209694Y0082600D01*
X0211826Y0083483D01*
X0213457Y0085115D01*
X0214311Y0087177D01*
X0214463Y0086711D01*
X0214777Y0086094D01*
X0215184Y0085534D01*
X0215674Y0085044D01*
X0216234Y0084637D01*
X0216851Y0084322D01*
X0217510Y0084108D01*
X0218194Y0084000D01*
X0218540Y0084000D01*
X0218540Y0091000D01*
X0218540Y0091000D01*
X0218540Y0084000D01*
X0218887Y0084000D01*
X0219571Y0084108D01*
X0220229Y0084322D01*
X0220846Y0084637D01*
X0221407Y0085044D01*
X0221896Y0085534D01*
X0222304Y0086094D01*
X0222618Y0086711D01*
X0222832Y0087370D01*
X0222940Y0088054D01*
X0222940Y0091000D01*
X0222940Y0093946D01*
X0222832Y0094630D01*
X0222618Y0095289D01*
X0222304Y0095906D01*
X0222090Y0096200D01*
X0233339Y0096200D01*
X0232740Y0094754D01*
X0232740Y0087246D01*
X0233623Y0085115D01*
X0233738Y0085000D01*
X0222745Y0085000D01*
X0221275Y0084391D01*
X0220149Y0083266D01*
X0213658Y0076775D01*
X0212392Y0076775D01*
X0210269Y0075896D01*
X0208645Y0074271D01*
X0208540Y0074019D01*
X0208436Y0074271D01*
X0206812Y0075896D01*
X0204689Y0076775D01*
X0202392Y0076775D01*
X0200269Y0075896D01*
X0198645Y0074271D01*
X0198540Y0074019D01*
X0198436Y0074271D01*
X0196812Y0075896D01*
X0194689Y0076775D01*
X0192392Y0076775D01*
X0190269Y0075896D01*
X0188645Y0074271D01*
X0188540Y0074019D01*
X0188436Y0074271D01*
X0186812Y0075896D01*
X0184689Y0076775D01*
X0182392Y0076775D01*
X0180269Y0075896D01*
X0178645Y0074271D01*
X0178540Y0074019D01*
X0178436Y0074271D01*
X0176812Y0075896D01*
X0174689Y0076775D01*
X0172392Y0076775D01*
X0170269Y0075896D01*
X0168645Y0074271D01*
X0168540Y0074019D01*
X0168436Y0074271D01*
X0166812Y0075896D01*
X0164689Y0076775D01*
X0162392Y0076775D01*
X0160269Y0075896D01*
X0158645Y0074271D01*
X0158540Y0074019D01*
X0158436Y0074271D01*
X0156812Y0075896D01*
X0154689Y0076775D01*
X0152392Y0076775D01*
X0150269Y0075896D01*
X0148645Y0074271D01*
X0148540Y0074019D01*
X0148436Y0074271D01*
X0146812Y0075896D01*
X0144689Y0076775D01*
X0142392Y0076775D01*
X0140269Y0075896D01*
X0138645Y0074271D01*
X0138540Y0074019D01*
X0138436Y0074271D01*
X0136812Y0075896D01*
X0134689Y0076775D01*
X0132392Y0076775D01*
X0130269Y0075896D01*
X0128645Y0074271D01*
X0127766Y0072151D01*
X0127595Y0072679D01*
X0127282Y0073293D01*
X0126877Y0073850D01*
X0126390Y0074337D01*
X0125833Y0074742D01*
X0125220Y0075054D01*
X0124565Y0075267D01*
X0123885Y0075375D01*
X0123540Y0075375D01*
X0123540Y0071000D01*
X0123540Y0071000D01*
X0123540Y0071000D01*
X0118540Y0076000D01*
X0118540Y0091000D01*
X0118540Y0084000D01*
X0118887Y0084000D01*
X0119571Y0084108D01*
X0120229Y0084322D01*
X0120846Y0084637D01*
X0121407Y0085044D01*
X0121896Y0085534D01*
X0122304Y0086094D01*
X0122618Y0086711D01*
X0122832Y0087370D01*
X0122940Y0088054D01*
X0122940Y0091000D01*
X0118540Y0091000D01*
X0118540Y0091000D01*
X0118540Y0090517D02*
X0118540Y0090517D01*
X0118540Y0088918D02*
X0118540Y0088918D01*
X0118540Y0087320D02*
X0118540Y0087320D01*
X0118540Y0085721D02*
X0118540Y0085721D01*
X0118540Y0084123D02*
X0118540Y0084123D01*
X0117466Y0084123D02*
X0112465Y0084123D01*
X0113709Y0085721D02*
X0115048Y0085721D01*
X0119615Y0084123D02*
X0134615Y0084123D01*
X0133372Y0085721D02*
X0122033Y0085721D01*
X0122816Y0087320D02*
X0132740Y0087320D01*
X0132740Y0088918D02*
X0122940Y0088918D01*
X0122940Y0090517D02*
X0132740Y0090517D01*
X0132740Y0092115D02*
X0122940Y0092115D01*
X0122940Y0093714D02*
X0132740Y0093714D01*
X0132972Y0095312D02*
X0122606Y0095312D01*
X0123340Y0105800D02*
X0123340Y0114998D01*
X0123457Y0115115D01*
X0124340Y0117246D01*
X0124340Y0124754D01*
X0123457Y0126885D01*
X0121826Y0128517D01*
X0119694Y0129400D01*
X0117387Y0129400D01*
X0115255Y0128517D01*
X0113623Y0126885D01*
X0113540Y0126685D01*
X0113457Y0126885D01*
X0111826Y0128517D01*
X0109694Y0129400D01*
X0107387Y0129400D01*
X0105255Y0128517D01*
X0103623Y0126885D01*
X0103540Y0126685D01*
X0103457Y0126885D01*
X0101826Y0128517D01*
X0099694Y0129400D01*
X0097387Y0129400D01*
X0095255Y0128517D01*
X0093623Y0126885D01*
X0093540Y0126685D01*
X0093457Y0126885D01*
X0091826Y0128517D01*
X0089694Y0129400D01*
X0087387Y0129400D01*
X0085255Y0128517D01*
X0083623Y0126885D01*
X0083540Y0126685D01*
X0083457Y0126885D01*
X0081826Y0128517D01*
X0079694Y0129400D01*
X0077387Y0129400D01*
X0075255Y0128517D01*
X0073623Y0126885D01*
X0073540Y0126685D01*
X0073457Y0126885D01*
X0071826Y0128517D01*
X0069694Y0129400D01*
X0067387Y0129400D01*
X0065255Y0128517D01*
X0063623Y0126885D01*
X0063540Y0126685D01*
X0063457Y0126885D01*
X0061826Y0128517D01*
X0059694Y0129400D01*
X0057387Y0129400D01*
X0055255Y0128517D01*
X0053623Y0126885D01*
X0053540Y0126685D01*
X0053457Y0126885D01*
X0051826Y0128517D01*
X0049694Y0129400D01*
X0047387Y0129400D01*
X0045255Y0128517D01*
X0043623Y0126885D01*
X0043540Y0126685D01*
X0043457Y0126885D01*
X0041826Y0128517D01*
X0039694Y0129400D01*
X0037387Y0129400D01*
X0035255Y0128517D01*
X0033623Y0126885D01*
X0032740Y0124754D01*
X0032740Y0117246D01*
X0033623Y0115115D01*
X0035255Y0113483D01*
X0037387Y0112600D01*
X0039694Y0112600D01*
X0041826Y0113483D01*
X0043457Y0115115D01*
X0043540Y0115315D01*
X0043623Y0115115D01*
X0045255Y0113483D01*
X0047387Y0112600D01*
X0049694Y0112600D01*
X0051826Y0113483D01*
X0053457Y0115115D01*
X0053540Y0115315D01*
X0053623Y0115115D01*
X0055255Y0113483D01*
X0057387Y0112600D01*
X0059694Y0112600D01*
X0061826Y0113483D01*
X0063457Y0115115D01*
X0063540Y0115315D01*
X0063623Y0115115D01*
X0065255Y0113483D01*
X0067387Y0112600D01*
X0069694Y0112600D01*
X0071826Y0113483D01*
X0073457Y0115115D01*
X0073540Y0115315D01*
X0073623Y0115115D01*
X0075255Y0113483D01*
X0077387Y0112600D01*
X0079694Y0112600D01*
X0081826Y0113483D01*
X0083457Y0115115D01*
X0083540Y0115315D01*
X0083623Y0115115D01*
X0085255Y0113483D01*
X0087387Y0112600D01*
X0089694Y0112600D01*
X0091826Y0113483D01*
X0093457Y0115115D01*
X0093540Y0115315D01*
X0093623Y0115115D01*
X0095255Y0113483D01*
X0097387Y0112600D01*
X0099694Y0112600D01*
X0101826Y0113483D01*
X0103457Y0115115D01*
X0103540Y0115315D01*
X0103623Y0115115D01*
X0105255Y0113483D01*
X0107387Y0112600D01*
X0109694Y0112600D01*
X0111826Y0113483D01*
X0113457Y0115115D01*
X0113540Y0115315D01*
X0113623Y0115115D01*
X0113740Y0114998D01*
X0113740Y0105800D01*
X0103266Y0105800D01*
X0102853Y0106213D01*
X0101677Y0106700D01*
X0095404Y0106700D01*
X0094228Y0106213D01*
X0093815Y0105800D01*
X0093266Y0105800D01*
X0092853Y0106213D01*
X0091677Y0106700D01*
X0085404Y0106700D01*
X0084800Y0106450D01*
X0028540Y0106450D01*
X0028540Y0151000D01*
X0313540Y0151000D01*
X0313540Y0147692D01*
X0312035Y0149198D01*
X0309767Y0150137D01*
X0307313Y0150137D01*
X0305046Y0149198D01*
X0303540Y0147692D01*
X0302035Y0149198D01*
X0299767Y0150137D01*
X0297313Y0150137D01*
X0295046Y0149198D01*
X0293540Y0147692D01*
X0292035Y0149198D01*
X0289767Y0150137D01*
X0287313Y0150137D01*
X0285046Y0149198D01*
X0283540Y0147692D01*
X0282035Y0149198D01*
X0279767Y0150137D01*
X0277313Y0150137D01*
X0275046Y0149198D01*
X0273540Y0147692D01*
X0272035Y0149198D01*
X0269767Y0150137D01*
X0267313Y0150137D01*
X0265046Y0149198D01*
X0263540Y0147692D01*
X0262035Y0149198D01*
X0259767Y0150137D01*
X0257313Y0150137D01*
X0255046Y0149198D01*
X0253540Y0147692D01*
X0252035Y0149198D01*
X0249767Y0150137D01*
X0247313Y0150137D01*
X0245046Y0149198D01*
X0243540Y0147692D01*
X0242035Y0149198D01*
X0239767Y0150137D01*
X0237313Y0150137D01*
X0235046Y0149198D01*
X0233311Y0147463D01*
X0232372Y0145195D01*
X0232372Y0136804D01*
X0233311Y0134537D01*
X0235046Y0132802D01*
X0237313Y0131863D01*
X0239767Y0131863D01*
X0242035Y0132802D01*
X0243540Y0134308D01*
X0245046Y0132802D01*
X0247313Y0131863D01*
X0249767Y0131863D01*
X0252035Y0132802D01*
X0253540Y0134308D01*
X0255046Y0132802D01*
X0257313Y0131863D01*
X0259767Y0131863D01*
X0262035Y0132802D01*
X0263540Y0134308D01*
X0265046Y0132802D01*
X0267313Y0131863D01*
X0269767Y0131863D01*
X0272035Y0132802D01*
X0273540Y0134308D01*
X0275046Y0132802D01*
X0277313Y0131863D01*
X0279767Y0131863D01*
X0282035Y0132802D01*
X0283540Y0134308D01*
X0285046Y0132802D01*
X0287313Y0131863D01*
X0289767Y0131863D01*
X0292035Y0132802D01*
X0293540Y0134308D01*
X0295046Y0132802D01*
X0297313Y0131863D01*
X0299767Y0131863D01*
X0302035Y0132802D01*
X0303540Y0134308D01*
X0305046Y0132802D01*
X0307313Y0131863D01*
X0309767Y0131863D01*
X0312035Y0132802D01*
X0313540Y0134308D01*
X0313540Y0131000D01*
X0333540Y0131000D01*
X0333540Y0026000D01*
X0313540Y0026000D01*
X0313540Y0006000D01*
X0286560Y0006000D01*
X0286812Y0006104D01*
X0288436Y0007729D01*
X0289314Y0009849D01*
X0289486Y0009321D01*
X0289799Y0008707D01*
X0290203Y0008150D01*
X0290690Y0007663D01*
X0291247Y0007258D01*
X0291861Y0006946D01*
X0292516Y0006733D01*
X0293196Y0006625D01*
X0293540Y0006625D01*
X0293540Y0011000D01*
X0293540Y0011000D01*
X0293540Y0006625D01*
X0293885Y0006625D01*
X0294565Y0006733D01*
X0295220Y0006946D01*
X0295833Y0007258D01*
X0296390Y0007663D01*
X0296877Y0008150D01*
X0297282Y0008707D01*
X0297595Y0009321D01*
X0297807Y0009976D01*
X0297915Y0010656D01*
X0297915Y0011000D01*
X0297915Y0011344D01*
X0297807Y0012024D01*
X0297595Y0012679D01*
X0297282Y0013293D01*
X0296877Y0013850D01*
X0296390Y0014337D01*
X0295833Y0014742D01*
X0295220Y0015054D01*
X0294565Y0015267D01*
X0293885Y0015375D01*
X0293572Y0015375D01*
X0295806Y0017609D01*
X0296931Y0018734D01*
X0297540Y0020204D01*
X0297540Y0026833D01*
X0298436Y0027729D01*
X0299315Y0029851D01*
X0299315Y0032149D01*
X0298436Y0034271D01*
X0296812Y0035896D01*
X0296560Y0036000D01*
X0296812Y0036104D01*
X0298436Y0037729D01*
X0299315Y0039851D01*
X0299315Y0042149D01*
X0298436Y0044271D01*
X0296812Y0045896D01*
X0296560Y0046000D01*
X0296812Y0046104D01*
X0298436Y0047729D01*
X0299315Y0049851D01*
X0299315Y0052149D01*
X0298436Y0054271D01*
X0296812Y0055896D01*
X0296560Y0056000D01*
X0296812Y0056104D01*
X0298436Y0057729D01*
X0299315Y0059851D01*
X0299315Y0062149D01*
X0298436Y0064271D01*
X0296812Y0065896D01*
X0296560Y0066000D01*
X0296812Y0066104D01*
X0298436Y0067729D01*
X0298540Y0067981D01*
X0298645Y0067729D01*
X0300269Y0066104D01*
X0302392Y0065225D01*
X0304689Y0065225D01*
X0306812Y0066104D01*
X0308436Y0067729D01*
X0309315Y0069851D01*
X0309315Y0072149D01*
X0308436Y0074271D01*
X0306812Y0075896D01*
X0304689Y0076775D01*
X0302392Y0076775D01*
X0300269Y0075896D01*
X0298645Y0074271D01*
X0298540Y0074019D01*
X0298436Y0074271D01*
X0296812Y0075896D01*
X0294889Y0076692D01*
X0301577Y0083380D01*
X0301826Y0083483D01*
X0303457Y0085115D01*
X0303540Y0085315D01*
X0303623Y0085115D01*
X0305255Y0083483D01*
X0307387Y0082600D01*
X0309694Y0082600D01*
X0311826Y0083483D01*
X0313457Y0085115D01*
X0314311Y0087177D01*
X0314463Y0086711D01*
X0314777Y0086094D01*
X0315184Y0085534D01*
X0315674Y0085044D01*
X0316234Y0084637D01*
X0316851Y0084322D01*
X0317510Y0084108D01*
X0318194Y0084000D01*
X0318540Y0084000D01*
X0318540Y0091000D01*
X0318540Y0091000D01*
X0318540Y0084000D01*
X0318887Y0084000D01*
X0319571Y0084108D01*
X0320229Y0084322D01*
X0320846Y0084637D01*
X0321407Y0085044D01*
X0321896Y0085534D01*
X0322304Y0086094D01*
X0322618Y0086711D01*
X0322832Y0087370D01*
X0322940Y0088054D01*
X0322940Y0091000D01*
X0322940Y0093946D01*
X0322832Y0094630D01*
X0322618Y0095289D01*
X0322304Y0095906D01*
X0321896Y0096466D01*
X0321407Y0096956D01*
X0321336Y0097007D01*
X0322610Y0098281D01*
X0323340Y0100045D01*
X0323340Y0114998D01*
X0323457Y0115115D01*
X0324340Y0117246D01*
X0324340Y0124754D01*
X0323457Y0126885D01*
X0321826Y0128517D01*
X0319694Y0129400D01*
X0317387Y0129400D01*
X0315255Y0128517D01*
X0313623Y0126885D01*
X0313540Y0126685D01*
X0313457Y0126885D01*
X0311826Y0128517D01*
X0309694Y0129400D01*
X0307387Y0129400D01*
X0305255Y0128517D01*
X0303623Y0126885D01*
X0303540Y0126685D01*
X0303457Y0126885D01*
X0301826Y0128517D01*
X0299694Y0129400D01*
X0297387Y0129400D01*
X0295255Y0128517D01*
X0293623Y0126885D01*
X0293540Y0126685D01*
X0293457Y0126885D01*
X0291826Y0128517D01*
X0289694Y0129400D01*
X0287387Y0129400D01*
X0285255Y0128517D01*
X0283623Y0126885D01*
X0283540Y0126685D01*
X0283457Y0126885D01*
X0281826Y0128517D01*
X0279694Y0129400D01*
X0277387Y0129400D01*
X0275255Y0128517D01*
X0273623Y0126885D01*
X0273540Y0126685D01*
X0273457Y0126885D01*
X0271826Y0128517D01*
X0269694Y0129400D01*
X0267387Y0129400D01*
X0265255Y0128517D01*
X0263623Y0126885D01*
X0263540Y0126685D01*
X0263457Y0126885D01*
X0261826Y0128517D01*
X0259694Y0129400D01*
X0257387Y0129400D01*
X0255255Y0128517D01*
X0253623Y0126885D01*
X0253540Y0126685D01*
X0253457Y0126885D01*
X0251826Y0128517D01*
X0249694Y0129400D01*
X0247387Y0129400D01*
X0245255Y0128517D01*
X0243623Y0126885D01*
X0243540Y0126685D01*
X0243457Y0126885D01*
X0241826Y0128517D01*
X0239694Y0129400D01*
X0237387Y0129400D01*
X0235255Y0128517D01*
X0233623Y0126885D01*
X0232740Y0124754D01*
X0232740Y0117246D01*
X0233623Y0115115D01*
X0235255Y0113483D01*
X0237387Y0112600D01*
X0239694Y0112600D01*
X0241826Y0113483D01*
X0243457Y0115115D01*
X0243540Y0115315D01*
X0243623Y0115115D01*
X0245255Y0113483D01*
X0247387Y0112600D01*
X0249694Y0112600D01*
X0251826Y0113483D01*
X0253457Y0115115D01*
X0253540Y0115315D01*
X0253623Y0115115D01*
X0255255Y0113483D01*
X0257387Y0112600D01*
X0259694Y0112600D01*
X0261826Y0113483D01*
X0263457Y0115115D01*
X0263540Y0115315D01*
X0263623Y0115115D01*
X0265255Y0113483D01*
X0267387Y0112600D01*
X0269694Y0112600D01*
X0271826Y0113483D01*
X0273457Y0115115D01*
X0273540Y0115315D01*
X0273623Y0115115D01*
X0275255Y0113483D01*
X0277387Y0112600D01*
X0279694Y0112600D01*
X0281826Y0113483D01*
X0283457Y0115115D01*
X0283540Y0115315D01*
X0283623Y0115115D01*
X0285255Y0113483D01*
X0287387Y0112600D01*
X0289694Y0112600D01*
X0291826Y0113483D01*
X0293457Y0115115D01*
X0293540Y0115315D01*
X0293623Y0115115D01*
X0295255Y0113483D01*
X0297387Y0112600D01*
X0299694Y0112600D01*
X0301826Y0113483D01*
X0303457Y0115115D01*
X0303540Y0115315D01*
X0303623Y0115115D01*
X0305255Y0113483D01*
X0307387Y0112600D01*
X0309694Y0112600D01*
X0311826Y0113483D01*
X0313457Y0115115D01*
X0313540Y0115315D01*
X0313623Y0115115D01*
X0313740Y0114998D01*
X0313740Y0105800D01*
X0313266Y0105800D01*
X0312853Y0106213D01*
X0311677Y0106700D01*
X0305404Y0106700D01*
X0304228Y0106213D01*
X0303815Y0105800D01*
X0303266Y0105800D01*
X0302853Y0106213D01*
X0301677Y0106700D01*
X0295404Y0106700D01*
X0294228Y0106213D01*
X0293815Y0105800D01*
X0293266Y0105800D01*
X0292853Y0106213D01*
X0291677Y0106700D01*
X0285404Y0106700D01*
X0284228Y0106213D01*
X0283815Y0105800D01*
X0283266Y0105800D01*
X0282853Y0106213D01*
X0281677Y0106700D01*
X0275404Y0106700D01*
X0274228Y0106213D01*
X0273815Y0105800D01*
X0263266Y0105800D01*
X0262853Y0106213D01*
X0261677Y0106700D01*
X0255404Y0106700D01*
X0254228Y0106213D01*
X0253815Y0105800D01*
X0253266Y0105800D01*
X0252853Y0106213D01*
X0251677Y0106700D01*
X0245404Y0106700D01*
X0244228Y0106213D01*
X0243815Y0105800D01*
X0243266Y0105800D01*
X0242853Y0106213D01*
X0241677Y0106700D01*
X0235404Y0106700D01*
X0234228Y0106213D01*
X0233815Y0105800D01*
X0223340Y0105800D01*
X0223340Y0114998D01*
X0223457Y0115115D01*
X0224340Y0117246D01*
X0224340Y0124754D01*
X0223457Y0126885D01*
X0221826Y0128517D01*
X0219694Y0129400D01*
X0217387Y0129400D01*
X0215255Y0128517D01*
X0213623Y0126885D01*
X0213540Y0126685D01*
X0213457Y0126885D01*
X0211826Y0128517D01*
X0209694Y0129400D01*
X0207387Y0129400D01*
X0205255Y0128517D01*
X0203623Y0126885D01*
X0203540Y0126685D01*
X0203457Y0126885D01*
X0201826Y0128517D01*
X0199694Y0129400D01*
X0197387Y0129400D01*
X0195255Y0128517D01*
X0193623Y0126885D01*
X0193540Y0126685D01*
X0193457Y0126885D01*
X0191826Y0128517D01*
X0189694Y0129400D01*
X0187387Y0129400D01*
X0185255Y0128517D01*
X0183623Y0126885D01*
X0183540Y0126685D01*
X0183457Y0126885D01*
X0181826Y0128517D01*
X0179694Y0129400D01*
X0177387Y0129400D01*
X0175255Y0128517D01*
X0173623Y0126885D01*
X0173540Y0126685D01*
X0173457Y0126885D01*
X0171826Y0128517D01*
X0169694Y0129400D01*
X0167387Y0129400D01*
X0165255Y0128517D01*
X0163623Y0126885D01*
X0163540Y0126685D01*
X0163457Y0126885D01*
X0161826Y0128517D01*
X0159694Y0129400D01*
X0157387Y0129400D01*
X0155255Y0128517D01*
X0153623Y0126885D01*
X0153540Y0126685D01*
X0153457Y0126885D01*
X0151826Y0128517D01*
X0149694Y0129400D01*
X0147387Y0129400D01*
X0145255Y0128517D01*
X0143623Y0126885D01*
X0143540Y0126685D01*
X0143457Y0126885D01*
X0141826Y0128517D01*
X0139694Y0129400D01*
X0137387Y0129400D01*
X0135255Y0128517D01*
X0133623Y0126885D01*
X0132740Y0124754D01*
X0132740Y0117246D01*
X0133623Y0115115D01*
X0135255Y0113483D01*
X0137387Y0112600D01*
X0139694Y0112600D01*
X0141826Y0113483D01*
X0143457Y0115115D01*
X0143540Y0115315D01*
X0143623Y0115115D01*
X0145255Y0113483D01*
X0147387Y0112600D01*
X0149694Y0112600D01*
X0151826Y0113483D01*
X0153457Y0115115D01*
X0153540Y0115315D01*
X0153623Y0115115D01*
X0155255Y0113483D01*
X0157387Y0112600D01*
X0159694Y0112600D01*
X0161826Y0113483D01*
X0163457Y0115115D01*
X0163540Y0115315D01*
X0163623Y0115115D01*
X0165255Y0113483D01*
X0167387Y0112600D01*
X0169694Y0112600D01*
X0171826Y0113483D01*
X0173457Y0115115D01*
X0173540Y0115315D01*
X0173623Y0115115D01*
X0175255Y0113483D01*
X0177387Y0112600D01*
X0179694Y0112600D01*
X0181826Y0113483D01*
X0183457Y0115115D01*
X0183540Y0115315D01*
X0183623Y0115115D01*
X0185255Y0113483D01*
X0187387Y0112600D01*
X0189694Y0112600D01*
X0191826Y0113483D01*
X0193457Y0115115D01*
X0193540Y0115315D01*
X0193623Y0115115D01*
X0195255Y0113483D01*
X0197387Y0112600D01*
X0199694Y0112600D01*
X0201826Y0113483D01*
X0203457Y0115115D01*
X0203540Y0115315D01*
X0203623Y0115115D01*
X0205255Y0113483D01*
X0207387Y0112600D01*
X0209694Y0112600D01*
X0211826Y0113483D01*
X0213457Y0115115D01*
X0213540Y0115315D01*
X0213623Y0115115D01*
X0213740Y0114998D01*
X0213740Y0105800D01*
X0213266Y0105800D01*
X0212853Y0106213D01*
X0211677Y0106700D01*
X0205404Y0106700D01*
X0204228Y0106213D01*
X0203815Y0105800D01*
X0163266Y0105800D01*
X0162853Y0106213D01*
X0161677Y0106700D01*
X0155404Y0106700D01*
X0154228Y0106213D01*
X0153815Y0105800D01*
X0153266Y0105800D01*
X0152853Y0106213D01*
X0151677Y0106700D01*
X0145404Y0106700D01*
X0144228Y0106213D01*
X0143815Y0105800D01*
X0123340Y0105800D01*
X0123340Y0106502D02*
X0144925Y0106502D01*
X0152155Y0106502D02*
X0154925Y0106502D01*
X0162155Y0106502D02*
X0204925Y0106502D01*
X0212155Y0106502D02*
X0213740Y0106502D01*
X0213740Y0108100D02*
X0123340Y0108100D01*
X0123340Y0109699D02*
X0213740Y0109699D01*
X0213740Y0111297D02*
X0123340Y0111297D01*
X0123340Y0112896D02*
X0136673Y0112896D01*
X0134244Y0114494D02*
X0123340Y0114494D01*
X0123863Y0116093D02*
X0133218Y0116093D01*
X0132740Y0117691D02*
X0124340Y0117691D01*
X0124340Y0119290D02*
X0132740Y0119290D01*
X0132740Y0120888D02*
X0124340Y0120888D01*
X0124340Y0122487D02*
X0132740Y0122487D01*
X0132740Y0124085D02*
X0124340Y0124085D01*
X0123955Y0125684D02*
X0133126Y0125684D01*
X0134020Y0127282D02*
X0123060Y0127282D01*
X0120947Y0128881D02*
X0136133Y0128881D01*
X0137313Y0131863D02*
X0135046Y0132802D01*
X0133311Y0134537D01*
X0132372Y0136804D01*
X0132372Y0145195D01*
X0133311Y0147463D01*
X0135046Y0149198D01*
X0137313Y0150137D01*
X0139767Y0150137D01*
X0142035Y0149198D01*
X0143540Y0147692D01*
X0145046Y0149198D01*
X0147313Y0150137D01*
X0149767Y0150137D01*
X0152035Y0149198D01*
X0153540Y0147692D01*
X0155046Y0149198D01*
X0157313Y0150137D01*
X0159767Y0150137D01*
X0162035Y0149198D01*
X0163540Y0147692D01*
X0165046Y0149198D01*
X0167313Y0150137D01*
X0169767Y0150137D01*
X0172035Y0149198D01*
X0173540Y0147692D01*
X0175046Y0149198D01*
X0177313Y0150137D01*
X0179767Y0150137D01*
X0182035Y0149198D01*
X0183540Y0147692D01*
X0185046Y0149198D01*
X0187313Y0150137D01*
X0189767Y0150137D01*
X0192035Y0149198D01*
X0193540Y0147692D01*
X0195046Y0149198D01*
X0197313Y0150137D01*
X0199767Y0150137D01*
X0202035Y0149198D01*
X0203540Y0147692D01*
X0205046Y0149198D01*
X0207313Y0150137D01*
X0209767Y0150137D01*
X0212035Y0149198D01*
X0213770Y0147463D01*
X0214709Y0145195D01*
X0214709Y0136804D01*
X0213770Y0134537D01*
X0212035Y0132802D01*
X0209767Y0131863D01*
X0207313Y0131863D01*
X0205046Y0132802D01*
X0203540Y0134308D01*
X0202035Y0132802D01*
X0199767Y0131863D01*
X0197313Y0131863D01*
X0195046Y0132802D01*
X0193540Y0134308D01*
X0192035Y0132802D01*
X0189767Y0131863D01*
X0187313Y0131863D01*
X0185046Y0132802D01*
X0183540Y0134308D01*
X0182035Y0132802D01*
X0179767Y0131863D01*
X0177313Y0131863D01*
X0175046Y0132802D01*
X0173540Y0134308D01*
X0172035Y0132802D01*
X0169767Y0131863D01*
X0167313Y0131863D01*
X0165046Y0132802D01*
X0163540Y0134308D01*
X0162035Y0132802D01*
X0159767Y0131863D01*
X0157313Y0131863D01*
X0155046Y0132802D01*
X0153540Y0134308D01*
X0152035Y0132802D01*
X0149767Y0131863D01*
X0147313Y0131863D01*
X0145046Y0132802D01*
X0143540Y0134308D01*
X0142035Y0132802D01*
X0139767Y0131863D01*
X0137313Y0131863D01*
X0136794Y0132078D02*
X0110286Y0132078D01*
X0109767Y0131863D02*
X0112035Y0132802D01*
X0113770Y0134537D01*
X0114709Y0136804D01*
X0114709Y0145195D01*
X0113770Y0147463D01*
X0112035Y0149198D01*
X0109767Y0150137D01*
X0107313Y0150137D01*
X0105046Y0149198D01*
X0103540Y0147692D01*
X0102035Y0149198D01*
X0099767Y0150137D01*
X0097313Y0150137D01*
X0095046Y0149198D01*
X0093540Y0147692D01*
X0092035Y0149198D01*
X0089767Y0150137D01*
X0087313Y0150137D01*
X0085046Y0149198D01*
X0083540Y0147692D01*
X0082035Y0149198D01*
X0079767Y0150137D01*
X0077313Y0150137D01*
X0075046Y0149198D01*
X0073540Y0147692D01*
X0072035Y0149198D01*
X0069767Y0150137D01*
X0067313Y0150137D01*
X0065046Y0149198D01*
X0063540Y0147692D01*
X0062035Y0149198D01*
X0059767Y0150137D01*
X0057313Y0150137D01*
X0055046Y0149198D01*
X0053540Y0147692D01*
X0052035Y0149198D01*
X0049767Y0150137D01*
X0047313Y0150137D01*
X0045046Y0149198D01*
X0043540Y0147692D01*
X0042035Y0149198D01*
X0039767Y0150137D01*
X0037313Y0150137D01*
X0035046Y0149198D01*
X0033311Y0147463D01*
X0032372Y0145195D01*
X0032372Y0136804D01*
X0033311Y0134537D01*
X0035046Y0132802D01*
X0037313Y0131863D01*
X0039767Y0131863D01*
X0042035Y0132802D01*
X0043540Y0134308D01*
X0045046Y0132802D01*
X0047313Y0131863D01*
X0049767Y0131863D01*
X0052035Y0132802D01*
X0053540Y0134308D01*
X0055046Y0132802D01*
X0057313Y0131863D01*
X0059767Y0131863D01*
X0062035Y0132802D01*
X0063540Y0134308D01*
X0065046Y0132802D01*
X0067313Y0131863D01*
X0069767Y0131863D01*
X0072035Y0132802D01*
X0073540Y0134308D01*
X0075046Y0132802D01*
X0077313Y0131863D01*
X0079767Y0131863D01*
X0082035Y0132802D01*
X0083540Y0134308D01*
X0085046Y0132802D01*
X0087313Y0131863D01*
X0089767Y0131863D01*
X0092035Y0132802D01*
X0093540Y0134308D01*
X0095046Y0132802D01*
X0097313Y0131863D01*
X0099767Y0131863D01*
X0102035Y0132802D01*
X0103540Y0134308D01*
X0105046Y0132802D01*
X0107313Y0131863D01*
X0109767Y0131863D01*
X0106794Y0132078D02*
X0100286Y0132078D01*
X0102909Y0133676D02*
X0104172Y0133676D01*
X0106133Y0128881D02*
X0100947Y0128881D01*
X0103060Y0127282D02*
X0104020Y0127282D01*
X0110947Y0128881D02*
X0116133Y0128881D01*
X0114020Y0127282D02*
X0113060Y0127282D01*
X0118540Y0121000D02*
X0118540Y0111000D01*
X0113740Y0111297D02*
X0028540Y0111297D01*
X0028540Y0109699D02*
X0113740Y0109699D01*
X0113740Y0108100D02*
X0028540Y0108100D01*
X0028540Y0106502D02*
X0084925Y0106502D01*
X0092155Y0106502D02*
X0094925Y0106502D01*
X0096673Y0112896D02*
X0090408Y0112896D01*
X0092837Y0114494D02*
X0094244Y0114494D01*
X0100408Y0112896D02*
X0106673Y0112896D01*
X0104244Y0114494D02*
X0102837Y0114494D01*
X0110408Y0112896D02*
X0113740Y0112896D01*
X0113740Y0114494D02*
X0112837Y0114494D01*
X0113740Y0106502D02*
X0102155Y0106502D01*
X0086673Y0112896D02*
X0080408Y0112896D01*
X0082837Y0114494D02*
X0084244Y0114494D01*
X0076673Y0112896D02*
X0070408Y0112896D01*
X0072837Y0114494D02*
X0074244Y0114494D01*
X0066673Y0112896D02*
X0060408Y0112896D01*
X0062837Y0114494D02*
X0064244Y0114494D01*
X0056673Y0112896D02*
X0050408Y0112896D01*
X0052837Y0114494D02*
X0054244Y0114494D01*
X0046673Y0112896D02*
X0040408Y0112896D01*
X0042837Y0114494D02*
X0044244Y0114494D01*
X0036673Y0112896D02*
X0028540Y0112896D01*
X0028540Y0114494D02*
X0034244Y0114494D01*
X0033218Y0116093D02*
X0028540Y0116093D01*
X0028540Y0117691D02*
X0032740Y0117691D01*
X0032740Y0119290D02*
X0028540Y0119290D01*
X0028540Y0120888D02*
X0032740Y0120888D01*
X0032740Y0122487D02*
X0028540Y0122487D01*
X0028540Y0124085D02*
X0032740Y0124085D01*
X0033126Y0125684D02*
X0028540Y0125684D01*
X0028540Y0127282D02*
X0034020Y0127282D01*
X0036133Y0128881D02*
X0028540Y0128881D01*
X0028540Y0130479D02*
X0333540Y0130479D01*
X0333540Y0128881D02*
X0320947Y0128881D01*
X0323060Y0127282D02*
X0333540Y0127282D01*
X0333540Y0125684D02*
X0323955Y0125684D01*
X0324340Y0124085D02*
X0333540Y0124085D01*
X0333540Y0122487D02*
X0324340Y0122487D01*
X0324340Y0120888D02*
X0333540Y0120888D01*
X0333540Y0119290D02*
X0324340Y0119290D01*
X0324340Y0117691D02*
X0333540Y0117691D01*
X0333540Y0116093D02*
X0323863Y0116093D01*
X0323340Y0114494D02*
X0333540Y0114494D01*
X0333540Y0112896D02*
X0323340Y0112896D01*
X0323340Y0111297D02*
X0333540Y0111297D01*
X0333540Y0109699D02*
X0323340Y0109699D01*
X0323340Y0108100D02*
X0333540Y0108100D01*
X0333540Y0106502D02*
X0323340Y0106502D01*
X0323340Y0104903D02*
X0333540Y0104903D01*
X0333540Y0103305D02*
X0323340Y0103305D01*
X0323340Y0101706D02*
X0333540Y0101706D01*
X0333540Y0100108D02*
X0323340Y0100108D01*
X0322704Y0098509D02*
X0333540Y0098509D01*
X0333540Y0096911D02*
X0321452Y0096911D01*
X0322606Y0095312D02*
X0333540Y0095312D01*
X0333540Y0093714D02*
X0322940Y0093714D01*
X0322940Y0092115D02*
X0333540Y0092115D01*
X0333540Y0090517D02*
X0322940Y0090517D01*
X0322940Y0091000D02*
X0318540Y0091000D01*
X0322940Y0091000D01*
X0322940Y0088918D02*
X0333540Y0088918D01*
X0333540Y0087320D02*
X0322816Y0087320D01*
X0322033Y0085721D02*
X0333540Y0085721D01*
X0333540Y0084123D02*
X0319615Y0084123D01*
X0318540Y0084123D02*
X0318540Y0084123D01*
X0317466Y0084123D02*
X0312465Y0084123D01*
X0313709Y0085721D02*
X0315048Y0085721D01*
X0318540Y0085721D02*
X0318540Y0085721D01*
X0318540Y0087320D02*
X0318540Y0087320D01*
X0318540Y0088918D02*
X0318540Y0088918D01*
X0318540Y0090517D02*
X0318540Y0090517D01*
X0318540Y0091000D02*
X0318540Y0091000D01*
X0304615Y0084123D02*
X0302465Y0084123D01*
X0300721Y0082524D02*
X0333540Y0082524D01*
X0333540Y0080926D02*
X0299123Y0080926D01*
X0297524Y0079327D02*
X0333540Y0079327D01*
X0333540Y0077729D02*
X0295926Y0077729D01*
X0296246Y0076130D02*
X0300835Y0076130D01*
X0298905Y0074532D02*
X0298176Y0074532D01*
X0297246Y0066539D02*
X0299835Y0066539D01*
X0297767Y0064940D02*
X0333540Y0064940D01*
X0333540Y0063342D02*
X0298821Y0063342D01*
X0299315Y0061743D02*
X0333540Y0061743D01*
X0333540Y0060145D02*
X0299315Y0060145D01*
X0298775Y0058546D02*
X0333540Y0058546D01*
X0333540Y0056948D02*
X0297655Y0056948D01*
X0297358Y0055349D02*
X0333540Y0055349D01*
X0333540Y0053751D02*
X0298651Y0053751D01*
X0299314Y0052152D02*
X0333540Y0052152D01*
X0333540Y0050554D02*
X0299315Y0050554D01*
X0298944Y0048955D02*
X0333540Y0048955D01*
X0333540Y0047357D02*
X0298064Y0047357D01*
X0296949Y0045758D02*
X0333540Y0045758D01*
X0333540Y0044160D02*
X0298482Y0044160D01*
X0299144Y0042561D02*
X0333540Y0042561D01*
X0333540Y0040963D02*
X0299315Y0040963D01*
X0299113Y0039364D02*
X0333540Y0039364D01*
X0333540Y0037766D02*
X0298451Y0037766D01*
X0296874Y0036167D02*
X0333540Y0036167D01*
X0333540Y0034569D02*
X0298138Y0034569D01*
X0298975Y0032970D02*
X0333540Y0032970D01*
X0333540Y0031372D02*
X0299315Y0031372D01*
X0299283Y0029773D02*
X0333540Y0029773D01*
X0333540Y0028175D02*
X0298621Y0028175D01*
X0297540Y0026576D02*
X0333540Y0026576D01*
X0313540Y0024978D02*
X0297540Y0024978D01*
X0297540Y0023379D02*
X0313540Y0023379D01*
X0313540Y0021781D02*
X0297540Y0021781D01*
X0297531Y0020182D02*
X0313540Y0020182D01*
X0313540Y0018584D02*
X0296781Y0018584D01*
X0295182Y0016985D02*
X0313540Y0016985D01*
X0313540Y0015387D02*
X0293584Y0015387D01*
X0296922Y0013788D02*
X0300158Y0013788D01*
X0300203Y0013850D02*
X0299799Y0013293D01*
X0299486Y0012679D01*
X0299273Y0012024D01*
X0299166Y0011344D01*
X0299166Y0011000D01*
X0299166Y0010656D01*
X0299273Y0009976D01*
X0299486Y0009321D01*
X0299799Y0008707D01*
X0300203Y0008150D01*
X0300690Y0007663D01*
X0301247Y0007258D01*
X0301861Y0006946D01*
X0302516Y0006733D01*
X0303196Y0006625D01*
X0303540Y0006625D01*
X0303540Y0011000D01*
X0303540Y0011000D01*
X0299166Y0011000D01*
X0303540Y0011000D01*
X0303540Y0015375D01*
X0303196Y0015375D01*
X0302516Y0015267D01*
X0301861Y0015054D01*
X0301247Y0014742D01*
X0300690Y0014337D01*
X0300203Y0013850D01*
X0299327Y0012190D02*
X0297754Y0012190D01*
X0297915Y0011000D02*
X0293540Y0011000D01*
X0293540Y0011000D01*
X0297915Y0011000D01*
X0297905Y0010591D02*
X0299176Y0010591D01*
X0299653Y0008993D02*
X0297427Y0008993D01*
X0296020Y0007394D02*
X0301061Y0007394D01*
X0303540Y0007394D02*
X0303540Y0007394D01*
X0303540Y0006625D02*
X0303885Y0006625D01*
X0304565Y0006733D01*
X0305220Y0006946D01*
X0305833Y0007258D01*
X0306390Y0007663D01*
X0306877Y0008150D01*
X0307282Y0008707D01*
X0307595Y0009321D01*
X0307807Y0009976D01*
X0307915Y0010656D01*
X0307915Y0011000D01*
X0307915Y0011344D01*
X0307807Y0012024D01*
X0307595Y0012679D01*
X0307282Y0013293D01*
X0306877Y0013850D01*
X0306390Y0014337D01*
X0305833Y0014742D01*
X0305220Y0015054D01*
X0304565Y0015267D01*
X0303885Y0015375D01*
X0303540Y0015375D01*
X0303540Y0011000D01*
X0303540Y0011000D01*
X0303540Y0011000D01*
X0303540Y0006625D01*
X0303540Y0008993D02*
X0303540Y0008993D01*
X0303540Y0010591D02*
X0303540Y0010591D01*
X0303540Y0011000D02*
X0303540Y0011000D01*
X0307915Y0011000D01*
X0303540Y0011000D01*
X0303540Y0012190D02*
X0303540Y0012190D01*
X0303540Y0013788D02*
X0303540Y0013788D01*
X0306922Y0013788D02*
X0313540Y0013788D01*
X0313540Y0012190D02*
X0307754Y0012190D01*
X0307905Y0010591D02*
X0313540Y0010591D01*
X0313540Y0008993D02*
X0307427Y0008993D01*
X0306020Y0007394D02*
X0313540Y0007394D01*
X0293540Y0007394D02*
X0293540Y0007394D01*
X0293540Y0008993D02*
X0293540Y0008993D01*
X0293540Y0010591D02*
X0293540Y0010591D01*
X0291061Y0007394D02*
X0288101Y0007394D01*
X0288959Y0008993D02*
X0289653Y0008993D01*
X0283540Y0011000D02*
X0293540Y0021000D01*
X0293540Y0031000D01*
X0289540Y0026833D02*
X0289540Y0022657D01*
X0287915Y0021032D01*
X0287915Y0023812D01*
X0287792Y0024270D01*
X0287555Y0024680D01*
X0287220Y0025015D01*
X0286810Y0025252D01*
X0286352Y0025375D01*
X0283540Y0025375D01*
X0280729Y0025375D01*
X0280271Y0025252D01*
X0279860Y0025015D01*
X0279525Y0024680D01*
X0279288Y0024270D01*
X0279166Y0023812D01*
X0279166Y0022510D01*
X0278436Y0024271D01*
X0276812Y0025896D01*
X0274689Y0026775D01*
X0272392Y0026775D01*
X0270269Y0025896D01*
X0268645Y0024271D01*
X0268540Y0024019D01*
X0268436Y0024271D01*
X0266812Y0025896D01*
X0264689Y0026775D01*
X0262392Y0026775D01*
X0260269Y0025896D01*
X0258645Y0024271D01*
X0258540Y0024019D01*
X0258436Y0024271D01*
X0256812Y0025896D01*
X0254689Y0026775D01*
X0252392Y0026775D01*
X0250269Y0025896D01*
X0248645Y0024271D01*
X0247766Y0022149D01*
X0247766Y0019851D01*
X0248645Y0017729D01*
X0250269Y0016104D01*
X0250521Y0016000D01*
X0250269Y0015896D01*
X0248645Y0014271D01*
X0248540Y0014019D01*
X0248436Y0014271D01*
X0246812Y0015896D01*
X0244689Y0016775D01*
X0242392Y0016775D01*
X0240269Y0015896D01*
X0238645Y0014271D01*
X0238540Y0014019D01*
X0238436Y0014271D01*
X0236812Y0015896D01*
X0234689Y0016775D01*
X0232392Y0016775D01*
X0230269Y0015896D01*
X0228645Y0014271D01*
X0228540Y0014019D01*
X0228436Y0014271D01*
X0226812Y0015896D01*
X0224689Y0016775D01*
X0222392Y0016775D01*
X0220269Y0015896D01*
X0218645Y0014271D01*
X0218540Y0014019D01*
X0218436Y0014271D01*
X0216812Y0015896D01*
X0214889Y0016692D01*
X0235197Y0037000D01*
X0279374Y0037000D01*
X0280269Y0036104D01*
X0282031Y0035375D01*
X0280729Y0035375D01*
X0280271Y0035252D01*
X0279860Y0035015D01*
X0279525Y0034680D01*
X0279288Y0034270D01*
X0279166Y0033812D01*
X0279166Y0031000D01*
X0279166Y0028188D01*
X0279288Y0027730D01*
X0279525Y0027320D01*
X0279860Y0026985D01*
X0280271Y0026748D01*
X0280729Y0026625D01*
X0283540Y0026625D01*
X0283540Y0031000D01*
X0283540Y0031000D01*
X0279166Y0031000D01*
X0283540Y0031000D01*
X0283540Y0031000D01*
X0283540Y0026625D01*
X0286352Y0026625D01*
X0286810Y0026748D01*
X0287220Y0026985D01*
X0287555Y0027320D01*
X0287792Y0027730D01*
X0287915Y0028188D01*
X0287915Y0029490D01*
X0288645Y0027729D01*
X0289540Y0026833D01*
X0289540Y0026576D02*
X0275169Y0026576D01*
X0277729Y0024978D02*
X0279823Y0024978D01*
X0279166Y0023379D02*
X0278805Y0023379D01*
X0283540Y0023379D02*
X0283540Y0023379D01*
X0283540Y0021781D02*
X0283540Y0021781D01*
X0283540Y0021000D02*
X0283540Y0025375D01*
X0283540Y0021000D01*
X0283540Y0021000D01*
X0287915Y0021781D02*
X0288664Y0021781D01*
X0287915Y0023379D02*
X0289540Y0023379D01*
X0289540Y0024978D02*
X0287258Y0024978D01*
X0287912Y0028175D02*
X0288460Y0028175D01*
X0283540Y0028175D02*
X0283540Y0028175D01*
X0283540Y0029773D02*
X0283540Y0029773D01*
X0279166Y0029773D02*
X0227970Y0029773D01*
X0226372Y0028175D02*
X0279169Y0028175D01*
X0283540Y0024978D02*
X0283540Y0024978D01*
X0279166Y0031372D02*
X0229569Y0031372D01*
X0231167Y0032970D02*
X0279166Y0032970D01*
X0279461Y0034569D02*
X0232766Y0034569D01*
X0234364Y0036167D02*
X0280206Y0036167D01*
X0283540Y0041000D02*
X0233540Y0041000D01*
X0203540Y0011000D01*
X0193540Y0011000D02*
X0238540Y0056000D01*
X0288540Y0056000D01*
X0293540Y0061000D01*
X0288540Y0066000D02*
X0288540Y0076000D01*
X0298540Y0086000D01*
X0298540Y0091000D01*
X0288540Y0091000D02*
X0288540Y0086000D01*
X0278540Y0076000D01*
X0248540Y0076000D01*
X0243540Y0071000D01*
X0239835Y0066539D02*
X0237246Y0066539D01*
X0236812Y0066104D02*
X0238436Y0067729D01*
X0238540Y0067981D01*
X0238645Y0067729D01*
X0240269Y0066104D01*
X0242392Y0065225D01*
X0244689Y0065225D01*
X0246812Y0066104D01*
X0248436Y0067729D01*
X0248540Y0067981D01*
X0248645Y0067729D01*
X0250269Y0066104D01*
X0252392Y0065225D01*
X0253658Y0065225D01*
X0258884Y0060000D01*
X0237745Y0060000D01*
X0236275Y0059391D01*
X0235149Y0058266D01*
X0193658Y0016775D01*
X0192392Y0016775D01*
X0190269Y0015896D01*
X0188645Y0014271D01*
X0188540Y0014019D01*
X0188436Y0014271D01*
X0186812Y0015896D01*
X0184689Y0016775D01*
X0183422Y0016775D01*
X0163197Y0037000D01*
X0166883Y0037000D01*
X0167978Y0035905D01*
X0167978Y0034894D01*
X0168825Y0032849D01*
X0170390Y0031285D01*
X0170302Y0031372D02*
X0168825Y0031372D01*
X0168775Y0032970D02*
X0167227Y0032970D01*
X0168113Y0034569D02*
X0165628Y0034569D01*
X0164030Y0036167D02*
X0167716Y0036167D01*
X0168540Y0041000D02*
X0123540Y0041000D01*
X0113540Y0051000D01*
X0113540Y0071000D01*
X0118754Y0066539D02*
X0129835Y0066539D01*
X0130269Y0066104D02*
X0132392Y0065225D01*
X0134689Y0065225D01*
X0136812Y0066104D01*
X0138436Y0067729D01*
X0138540Y0067981D01*
X0138645Y0067729D01*
X0140269Y0066104D01*
X0142392Y0065225D01*
X0144689Y0065225D01*
X0146812Y0066104D01*
X0148436Y0067729D01*
X0148540Y0067981D01*
X0148645Y0067729D01*
X0150269Y0066104D01*
X0152392Y0065225D01*
X0154689Y0065225D01*
X0156812Y0066104D01*
X0158436Y0067729D01*
X0158540Y0067981D01*
X0158645Y0067729D01*
X0160269Y0066104D01*
X0162392Y0065225D01*
X0164689Y0065225D01*
X0166812Y0066104D01*
X0168436Y0067729D01*
X0168540Y0067981D01*
X0168645Y0067729D01*
X0170269Y0066104D01*
X0172392Y0065225D01*
X0174689Y0065225D01*
X0176812Y0066104D01*
X0178436Y0067729D01*
X0178540Y0067981D01*
X0178645Y0067729D01*
X0180269Y0066104D01*
X0182392Y0065225D01*
X0184689Y0065225D01*
X0186812Y0066104D01*
X0188436Y0067729D01*
X0188540Y0067981D01*
X0188645Y0067729D01*
X0190269Y0066104D01*
X0192392Y0065225D01*
X0194689Y0065225D01*
X0196812Y0066104D01*
X0198436Y0067729D01*
X0198540Y0067981D01*
X0198645Y0067729D01*
X0200269Y0066104D01*
X0202392Y0065225D01*
X0204689Y0065225D01*
X0206812Y0066104D01*
X0208436Y0067729D01*
X0208540Y0067981D01*
X0208645Y0067729D01*
X0210269Y0066104D01*
X0212392Y0065225D01*
X0214689Y0065225D01*
X0216812Y0066104D01*
X0218436Y0067729D01*
X0218540Y0067981D01*
X0218645Y0067729D01*
X0220269Y0066104D01*
X0222392Y0065225D01*
X0224689Y0065225D01*
X0226812Y0066104D01*
X0228436Y0067729D01*
X0228540Y0067981D01*
X0228645Y0067729D01*
X0230269Y0066104D01*
X0232392Y0065225D01*
X0234689Y0065225D01*
X0236812Y0066104D01*
X0229835Y0066539D02*
X0227246Y0066539D01*
X0223540Y0071000D02*
X0228540Y0076000D01*
X0238540Y0076000D01*
X0242290Y0079750D01*
X0262290Y0079750D01*
X0268540Y0086000D01*
X0268540Y0091000D01*
X0258540Y0091000D02*
X0258540Y0086000D01*
X0256040Y0083500D01*
X0238540Y0083500D01*
X0236040Y0081000D01*
X0223540Y0081000D01*
X0213540Y0071000D01*
X0209835Y0066539D02*
X0207246Y0066539D01*
X0217246Y0066539D02*
X0219835Y0066539D01*
X0208905Y0074532D02*
X0208176Y0074532D01*
X0206246Y0076130D02*
X0210835Y0076130D01*
X0214612Y0077729D02*
X0102540Y0077729D01*
X0102540Y0079327D02*
X0216211Y0079327D01*
X0217809Y0080926D02*
X0102540Y0080926D01*
X0102540Y0082524D02*
X0219408Y0082524D01*
X0220149Y0083266D02*
X0220149Y0083266D01*
X0219615Y0084123D02*
X0221006Y0084123D01*
X0222033Y0085721D02*
X0233372Y0085721D01*
X0232740Y0087320D02*
X0222816Y0087320D01*
X0222940Y0088918D02*
X0232740Y0088918D01*
X0232740Y0090517D02*
X0222940Y0090517D01*
X0222940Y0091000D02*
X0218540Y0091000D01*
X0222940Y0091000D01*
X0222940Y0092115D02*
X0232740Y0092115D01*
X0232740Y0093714D02*
X0222940Y0093714D01*
X0222606Y0095312D02*
X0232972Y0095312D01*
X0234925Y0106502D02*
X0223340Y0106502D01*
X0223340Y0108100D02*
X0313740Y0108100D01*
X0313740Y0106502D02*
X0312155Y0106502D01*
X0313740Y0109699D02*
X0223340Y0109699D01*
X0223340Y0111297D02*
X0313740Y0111297D01*
X0313740Y0112896D02*
X0310408Y0112896D01*
X0312837Y0114494D02*
X0313740Y0114494D01*
X0318540Y0111000D02*
X0318540Y0121000D01*
X0314020Y0127282D02*
X0313060Y0127282D01*
X0310947Y0128881D02*
X0316133Y0128881D01*
X0313540Y0132078D02*
X0310286Y0132078D01*
X0312909Y0133676D02*
X0313540Y0133676D01*
X0306794Y0132078D02*
X0300286Y0132078D01*
X0302909Y0133676D02*
X0304172Y0133676D01*
X0306133Y0128881D02*
X0300947Y0128881D01*
X0303060Y0127282D02*
X0304020Y0127282D01*
X0296133Y0128881D02*
X0290947Y0128881D01*
X0293060Y0127282D02*
X0294020Y0127282D01*
X0296794Y0132078D02*
X0290286Y0132078D01*
X0292909Y0133676D02*
X0294172Y0133676D01*
X0286794Y0132078D02*
X0280286Y0132078D01*
X0282909Y0133676D02*
X0284172Y0133676D01*
X0286133Y0128881D02*
X0280947Y0128881D01*
X0283060Y0127282D02*
X0284020Y0127282D01*
X0276133Y0128881D02*
X0270947Y0128881D01*
X0273060Y0127282D02*
X0274020Y0127282D01*
X0276794Y0132078D02*
X0270286Y0132078D01*
X0272909Y0133676D02*
X0274172Y0133676D01*
X0266794Y0132078D02*
X0260286Y0132078D01*
X0262909Y0133676D02*
X0264172Y0133676D01*
X0266133Y0128881D02*
X0260947Y0128881D01*
X0263060Y0127282D02*
X0264020Y0127282D01*
X0256133Y0128881D02*
X0250947Y0128881D01*
X0253060Y0127282D02*
X0254020Y0127282D01*
X0256794Y0132078D02*
X0250286Y0132078D01*
X0252909Y0133676D02*
X0254172Y0133676D01*
X0246794Y0132078D02*
X0240286Y0132078D01*
X0242909Y0133676D02*
X0244172Y0133676D01*
X0246133Y0128881D02*
X0240947Y0128881D01*
X0243060Y0127282D02*
X0244020Y0127282D01*
X0236133Y0128881D02*
X0220947Y0128881D01*
X0223060Y0127282D02*
X0234020Y0127282D01*
X0233126Y0125684D02*
X0223955Y0125684D01*
X0224340Y0124085D02*
X0232740Y0124085D01*
X0232740Y0122487D02*
X0224340Y0122487D01*
X0224340Y0120888D02*
X0232740Y0120888D01*
X0232740Y0119290D02*
X0224340Y0119290D01*
X0224340Y0117691D02*
X0232740Y0117691D01*
X0233218Y0116093D02*
X0223863Y0116093D01*
X0223340Y0114494D02*
X0234244Y0114494D01*
X0236673Y0112896D02*
X0223340Y0112896D01*
X0218540Y0111000D02*
X0218540Y0121000D01*
X0214020Y0127282D02*
X0213060Y0127282D01*
X0210947Y0128881D02*
X0216133Y0128881D01*
X0212909Y0133676D02*
X0234172Y0133676D01*
X0233005Y0135275D02*
X0214075Y0135275D01*
X0214709Y0136873D02*
X0232372Y0136873D01*
X0232372Y0138472D02*
X0214709Y0138472D01*
X0214709Y0140070D02*
X0232372Y0140070D01*
X0232372Y0141669D02*
X0214709Y0141669D01*
X0214709Y0143268D02*
X0232372Y0143268D01*
X0232372Y0144866D02*
X0214709Y0144866D01*
X0214183Y0146465D02*
X0232898Y0146465D01*
X0233911Y0148063D02*
X0213169Y0148063D01*
X0210915Y0149662D02*
X0236166Y0149662D01*
X0240915Y0149662D02*
X0246166Y0149662D01*
X0243911Y0148063D02*
X0243169Y0148063D01*
X0250915Y0149662D02*
X0256166Y0149662D01*
X0253911Y0148063D02*
X0253169Y0148063D01*
X0260915Y0149662D02*
X0266166Y0149662D01*
X0263911Y0148063D02*
X0263169Y0148063D01*
X0270915Y0149662D02*
X0276166Y0149662D01*
X0273911Y0148063D02*
X0273169Y0148063D01*
X0280915Y0149662D02*
X0286166Y0149662D01*
X0283911Y0148063D02*
X0283169Y0148063D01*
X0290915Y0149662D02*
X0296166Y0149662D01*
X0293911Y0148063D02*
X0293169Y0148063D01*
X0300915Y0149662D02*
X0306166Y0149662D01*
X0303911Y0148063D02*
X0303169Y0148063D01*
X0310915Y0149662D02*
X0313540Y0149662D01*
X0313540Y0148063D02*
X0313169Y0148063D01*
X0313540Y0176000D02*
X0297839Y0176000D01*
X0297265Y0176574D01*
X0296824Y0176756D01*
X0297220Y0176985D01*
X0297555Y0177320D01*
X0297792Y0177730D01*
X0297915Y0178188D01*
X0297915Y0181000D01*
X0297915Y0183812D01*
X0297792Y0184270D01*
X0297555Y0184680D01*
X0297220Y0185015D01*
X0296810Y0185252D01*
X0296352Y0185375D01*
X0293540Y0185375D01*
X0290729Y0185375D01*
X0290271Y0185252D01*
X0289860Y0185015D01*
X0289525Y0184680D01*
X0289297Y0184284D01*
X0289114Y0184724D01*
X0288340Y0185498D01*
X0288340Y0201964D01*
X0289253Y0202209D01*
X0292628Y0204157D01*
X0295383Y0206913D01*
X0297332Y0210287D01*
X0297332Y0210287D01*
X0298340Y0214052D01*
X0298340Y0215017D01*
X0298381Y0215034D01*
X0298540Y0215194D01*
X0298700Y0215034D01*
X0300170Y0214425D01*
X0306911Y0214425D01*
X0308381Y0215034D01*
X0309506Y0216159D01*
X0309852Y0216993D01*
X0309860Y0216985D01*
X0310271Y0216748D01*
X0310729Y0216625D01*
X0313540Y0216625D01*
X0313540Y0221000D01*
X0313540Y0221000D01*
X0313540Y0176000D01*
X0313540Y0176836D02*
X0296963Y0176836D01*
X0297915Y0178435D02*
X0313540Y0178435D01*
X0313540Y0180033D02*
X0297915Y0180033D01*
X0297915Y0181000D02*
X0293540Y0181000D01*
X0293540Y0185375D01*
X0293540Y0181000D01*
X0293540Y0181000D01*
X0297915Y0181000D01*
X0297915Y0181632D02*
X0313540Y0181632D01*
X0313540Y0183230D02*
X0297915Y0183230D01*
X0297407Y0184829D02*
X0313540Y0184829D01*
X0313540Y0186427D02*
X0288340Y0186427D01*
X0288340Y0188026D02*
X0313540Y0188026D01*
X0313540Y0189624D02*
X0288340Y0189624D01*
X0288340Y0191223D02*
X0313540Y0191223D01*
X0313540Y0192821D02*
X0288340Y0192821D01*
X0288340Y0194420D02*
X0313540Y0194420D01*
X0313540Y0196018D02*
X0288340Y0196018D01*
X0288340Y0197617D02*
X0313540Y0197617D01*
X0313540Y0199215D02*
X0288340Y0199215D01*
X0288340Y0200814D02*
X0313540Y0200814D01*
X0313540Y0202412D02*
X0289606Y0202412D01*
X0289253Y0202209D02*
X0289253Y0202209D01*
X0292375Y0204011D02*
X0313540Y0204011D01*
X0313540Y0205609D02*
X0294080Y0205609D01*
X0295383Y0206913D02*
X0295383Y0206913D01*
X0295554Y0207208D02*
X0313540Y0207208D01*
X0313540Y0208806D02*
X0296477Y0208806D01*
X0297363Y0210405D02*
X0313540Y0210405D01*
X0313540Y0212003D02*
X0297792Y0212003D01*
X0298220Y0213602D02*
X0313540Y0213602D01*
X0313540Y0215201D02*
X0308547Y0215201D01*
X0309771Y0216799D02*
X0310182Y0216799D01*
X0313540Y0216799D02*
X0313540Y0216799D01*
X0313540Y0218398D02*
X0313540Y0218398D01*
X0313540Y0219996D02*
X0313540Y0219996D01*
X0293540Y0221000D02*
X0293540Y0216000D01*
X0293537Y0215758D01*
X0293528Y0215517D01*
X0293514Y0215276D01*
X0293493Y0215035D01*
X0293467Y0214795D01*
X0293435Y0214555D01*
X0293397Y0214316D01*
X0293354Y0214079D01*
X0293304Y0213842D01*
X0293249Y0213607D01*
X0293189Y0213373D01*
X0293122Y0213141D01*
X0293051Y0212910D01*
X0292973Y0212681D01*
X0292890Y0212454D01*
X0292802Y0212229D01*
X0292708Y0212006D01*
X0292609Y0211786D01*
X0292504Y0211568D01*
X0292395Y0211353D01*
X0292280Y0211140D01*
X0292160Y0210930D01*
X0292035Y0210724D01*
X0291905Y0210520D01*
X0291770Y0210319D01*
X0291630Y0210122D01*
X0291486Y0209928D01*
X0291337Y0209738D01*
X0291183Y0209552D01*
X0291025Y0209369D01*
X0290863Y0209190D01*
X0290696Y0209015D01*
X0290525Y0208844D01*
X0290350Y0208677D01*
X0290171Y0208515D01*
X0289988Y0208357D01*
X0289802Y0208203D01*
X0289612Y0208054D01*
X0289418Y0207910D01*
X0289221Y0207770D01*
X0289020Y0207635D01*
X0288816Y0207505D01*
X0288610Y0207380D01*
X0288400Y0207260D01*
X0288187Y0207145D01*
X0287972Y0207036D01*
X0287754Y0206931D01*
X0287534Y0206832D01*
X0287311Y0206738D01*
X0287086Y0206650D01*
X0286859Y0206567D01*
X0286630Y0206489D01*
X0286399Y0206418D01*
X0286167Y0206351D01*
X0285933Y0206291D01*
X0285698Y0206236D01*
X0285461Y0206186D01*
X0285224Y0206143D01*
X0284985Y0206105D01*
X0284745Y0206073D01*
X0284505Y0206047D01*
X0284264Y0206026D01*
X0284023Y0206012D01*
X0283782Y0206003D01*
X0283540Y0206000D01*
X0283540Y0181000D01*
X0278740Y0185498D02*
X0278540Y0185298D01*
X0277265Y0186574D01*
X0274848Y0187575D01*
X0272233Y0187575D01*
X0269816Y0186574D01*
X0268540Y0185298D01*
X0267265Y0186574D01*
X0264848Y0187575D01*
X0262233Y0187575D01*
X0259816Y0186574D01*
X0257966Y0184724D01*
X0256966Y0182308D01*
X0256966Y0179692D01*
X0257966Y0177276D01*
X0259242Y0176000D01*
X0257839Y0176000D01*
X0257265Y0176574D01*
X0254848Y0177575D01*
X0252233Y0177575D01*
X0249816Y0176574D01*
X0249242Y0176000D01*
X0248340Y0176000D01*
X0248340Y0190734D01*
X0248545Y0192579D01*
X0247906Y0196775D01*
X0246203Y0200662D01*
X0246203Y0200662D01*
X0243552Y0203977D01*
X0243552Y0203977D01*
X0243552Y0203977D01*
X0240529Y0206200D01*
X0278540Y0206200D01*
X0278572Y0206198D01*
X0278631Y0206178D01*
X0278682Y0206141D01*
X0278719Y0206091D01*
X0278738Y0206031D01*
X0278740Y0206000D01*
X0278740Y0185498D01*
X0278740Y0186427D02*
X0277411Y0186427D01*
X0278740Y0188026D02*
X0248340Y0188026D01*
X0248340Y0189624D02*
X0278740Y0189624D01*
X0278740Y0191223D02*
X0248395Y0191223D01*
X0248545Y0192579D02*
X0248545Y0192579D01*
X0248508Y0192821D02*
X0278740Y0192821D01*
X0278740Y0194420D02*
X0248265Y0194420D01*
X0248022Y0196018D02*
X0278740Y0196018D01*
X0278740Y0197617D02*
X0247537Y0197617D01*
X0247906Y0196775D02*
X0247906Y0196775D01*
X0246837Y0199215D02*
X0278740Y0199215D01*
X0278740Y0200814D02*
X0246082Y0200814D01*
X0244803Y0202412D02*
X0278740Y0202412D01*
X0278740Y0204011D02*
X0243505Y0204011D01*
X0241332Y0205609D02*
X0278740Y0205609D01*
X0283540Y0206000D02*
X0283538Y0206140D01*
X0283532Y0206280D01*
X0283522Y0206420D01*
X0283509Y0206560D01*
X0283491Y0206699D01*
X0283469Y0206838D01*
X0283444Y0206975D01*
X0283415Y0207113D01*
X0283382Y0207249D01*
X0283345Y0207384D01*
X0283304Y0207518D01*
X0283259Y0207651D01*
X0283211Y0207783D01*
X0283159Y0207913D01*
X0283104Y0208042D01*
X0283045Y0208169D01*
X0282982Y0208295D01*
X0282916Y0208419D01*
X0282847Y0208540D01*
X0282774Y0208660D01*
X0282697Y0208778D01*
X0282618Y0208893D01*
X0282535Y0209007D01*
X0282449Y0209117D01*
X0282360Y0209226D01*
X0282268Y0209332D01*
X0282173Y0209435D01*
X0282076Y0209536D01*
X0281975Y0209633D01*
X0281872Y0209728D01*
X0281766Y0209820D01*
X0281657Y0209909D01*
X0281547Y0209995D01*
X0281433Y0210078D01*
X0281318Y0210157D01*
X0281200Y0210234D01*
X0281080Y0210307D01*
X0280959Y0210376D01*
X0280835Y0210442D01*
X0280709Y0210505D01*
X0280582Y0210564D01*
X0280453Y0210619D01*
X0280323Y0210671D01*
X0280191Y0210719D01*
X0280058Y0210764D01*
X0279924Y0210805D01*
X0279789Y0210842D01*
X0279653Y0210875D01*
X0279515Y0210904D01*
X0279378Y0210929D01*
X0279239Y0210951D01*
X0279100Y0210969D01*
X0278960Y0210982D01*
X0278820Y0210992D01*
X0278680Y0210998D01*
X0278540Y0211000D01*
X0191040Y0211000D01*
X0190942Y0211002D01*
X0190844Y0211008D01*
X0190746Y0211017D01*
X0190649Y0211031D01*
X0190552Y0211048D01*
X0190456Y0211069D01*
X0190361Y0211094D01*
X0190267Y0211122D01*
X0190175Y0211155D01*
X0190083Y0211190D01*
X0189993Y0211230D01*
X0189905Y0211272D01*
X0189818Y0211319D01*
X0189734Y0211368D01*
X0189651Y0211421D01*
X0189571Y0211477D01*
X0189492Y0211537D01*
X0189416Y0211599D01*
X0189343Y0211664D01*
X0189272Y0211732D01*
X0189204Y0211803D01*
X0189139Y0211876D01*
X0189077Y0211952D01*
X0189017Y0212031D01*
X0188961Y0212111D01*
X0188908Y0212194D01*
X0188859Y0212278D01*
X0188812Y0212365D01*
X0188770Y0212453D01*
X0188730Y0212543D01*
X0188695Y0212635D01*
X0188662Y0212727D01*
X0188634Y0212821D01*
X0188609Y0212916D01*
X0188588Y0213012D01*
X0188571Y0213109D01*
X0188557Y0213206D01*
X0188548Y0213304D01*
X0188542Y0213402D01*
X0188540Y0213500D01*
X0188538Y0213598D01*
X0188532Y0213696D01*
X0188523Y0213794D01*
X0188509Y0213891D01*
X0188492Y0213988D01*
X0188471Y0214084D01*
X0188446Y0214179D01*
X0188418Y0214273D01*
X0188385Y0214365D01*
X0188350Y0214457D01*
X0188310Y0214547D01*
X0188268Y0214635D01*
X0188221Y0214722D01*
X0188172Y0214806D01*
X0188119Y0214889D01*
X0188063Y0214969D01*
X0188003Y0215048D01*
X0187941Y0215124D01*
X0187876Y0215197D01*
X0187808Y0215268D01*
X0187737Y0215336D01*
X0187664Y0215401D01*
X0187588Y0215463D01*
X0187509Y0215523D01*
X0187429Y0215579D01*
X0187346Y0215632D01*
X0187262Y0215681D01*
X0187175Y0215728D01*
X0187087Y0215770D01*
X0186997Y0215810D01*
X0186905Y0215845D01*
X0186813Y0215878D01*
X0186719Y0215906D01*
X0186624Y0215931D01*
X0186528Y0215952D01*
X0186431Y0215969D01*
X0186334Y0215983D01*
X0186236Y0215992D01*
X0186138Y0215998D01*
X0186040Y0216000D01*
X0153540Y0216000D01*
X0158540Y0211000D02*
X0163540Y0211000D01*
X0158540Y0211000D02*
X0158400Y0210998D01*
X0158260Y0210992D01*
X0158120Y0210982D01*
X0157980Y0210969D01*
X0157841Y0210951D01*
X0157702Y0210929D01*
X0157565Y0210904D01*
X0157427Y0210875D01*
X0157291Y0210842D01*
X0157156Y0210805D01*
X0157022Y0210764D01*
X0156889Y0210719D01*
X0156757Y0210671D01*
X0156627Y0210619D01*
X0156498Y0210564D01*
X0156371Y0210505D01*
X0156245Y0210442D01*
X0156121Y0210376D01*
X0156000Y0210307D01*
X0155880Y0210234D01*
X0155762Y0210157D01*
X0155647Y0210078D01*
X0155533Y0209995D01*
X0155423Y0209909D01*
X0155314Y0209820D01*
X0155208Y0209728D01*
X0155105Y0209633D01*
X0155004Y0209536D01*
X0154907Y0209435D01*
X0154812Y0209332D01*
X0154720Y0209226D01*
X0154631Y0209117D01*
X0154545Y0209007D01*
X0154462Y0208893D01*
X0154383Y0208778D01*
X0154306Y0208660D01*
X0154233Y0208540D01*
X0154164Y0208419D01*
X0154098Y0208295D01*
X0154035Y0208169D01*
X0153976Y0208042D01*
X0153921Y0207913D01*
X0153869Y0207783D01*
X0153821Y0207651D01*
X0153776Y0207518D01*
X0153735Y0207384D01*
X0153698Y0207249D01*
X0153665Y0207113D01*
X0153636Y0206975D01*
X0153611Y0206838D01*
X0153589Y0206699D01*
X0153571Y0206560D01*
X0153558Y0206420D01*
X0153548Y0206280D01*
X0153542Y0206140D01*
X0153540Y0206000D01*
X0153540Y0191000D01*
X0153543Y0190758D01*
X0153552Y0190517D01*
X0153566Y0190276D01*
X0153587Y0190035D01*
X0153613Y0189795D01*
X0153645Y0189555D01*
X0153683Y0189316D01*
X0153726Y0189079D01*
X0153776Y0188842D01*
X0153831Y0188607D01*
X0153891Y0188373D01*
X0153958Y0188141D01*
X0154029Y0187910D01*
X0154107Y0187681D01*
X0154190Y0187454D01*
X0154278Y0187229D01*
X0154372Y0187006D01*
X0154471Y0186786D01*
X0154576Y0186568D01*
X0154685Y0186353D01*
X0154800Y0186140D01*
X0154920Y0185930D01*
X0155045Y0185724D01*
X0155175Y0185520D01*
X0155310Y0185319D01*
X0155450Y0185122D01*
X0155594Y0184928D01*
X0155743Y0184738D01*
X0155897Y0184552D01*
X0156055Y0184369D01*
X0156217Y0184190D01*
X0156384Y0184015D01*
X0156555Y0183844D01*
X0156730Y0183677D01*
X0156909Y0183515D01*
X0157092Y0183357D01*
X0157278Y0183203D01*
X0157468Y0183054D01*
X0157662Y0182910D01*
X0157859Y0182770D01*
X0158060Y0182635D01*
X0158264Y0182505D01*
X0158470Y0182380D01*
X0158680Y0182260D01*
X0158893Y0182145D01*
X0159108Y0182036D01*
X0159326Y0181931D01*
X0159546Y0181832D01*
X0159769Y0181738D01*
X0159994Y0181650D01*
X0160221Y0181567D01*
X0160450Y0181489D01*
X0160681Y0181418D01*
X0160913Y0181351D01*
X0161147Y0181291D01*
X0161382Y0181236D01*
X0161619Y0181186D01*
X0161856Y0181143D01*
X0162095Y0181105D01*
X0162335Y0181073D01*
X0162575Y0181047D01*
X0162816Y0181026D01*
X0163057Y0181012D01*
X0163298Y0181003D01*
X0163540Y0181000D01*
X0189398Y0181000D01*
X0196469Y0178071D02*
X0203540Y0171000D01*
X0223540Y0171000D02*
X0223534Y0171483D01*
X0223517Y0171966D01*
X0223487Y0172449D01*
X0223447Y0172930D01*
X0223394Y0173411D01*
X0223330Y0173890D01*
X0223255Y0174367D01*
X0223167Y0174843D01*
X0223069Y0175316D01*
X0222959Y0175786D01*
X0222838Y0176254D01*
X0222705Y0176719D01*
X0222561Y0177180D01*
X0222406Y0177638D01*
X0222240Y0178092D01*
X0222063Y0178542D01*
X0221876Y0178987D01*
X0221677Y0179428D01*
X0221469Y0179864D01*
X0221249Y0180294D01*
X0221019Y0180720D01*
X0220779Y0181139D01*
X0220529Y0181553D01*
X0220269Y0181960D01*
X0220000Y0182361D01*
X0219720Y0182756D01*
X0219432Y0183143D01*
X0219133Y0183524D01*
X0218826Y0183897D01*
X0218510Y0184262D01*
X0218185Y0184620D01*
X0217852Y0184970D01*
X0217510Y0185312D01*
X0217160Y0185645D01*
X0216802Y0185970D01*
X0216437Y0186286D01*
X0216064Y0186593D01*
X0215683Y0186892D01*
X0215296Y0187180D01*
X0214901Y0187460D01*
X0214500Y0187729D01*
X0214093Y0187989D01*
X0213679Y0188239D01*
X0213260Y0188479D01*
X0212834Y0188709D01*
X0212404Y0188929D01*
X0211968Y0189137D01*
X0211527Y0189336D01*
X0211082Y0189523D01*
X0210632Y0189700D01*
X0210178Y0189866D01*
X0209720Y0190021D01*
X0209259Y0190165D01*
X0208794Y0190298D01*
X0208326Y0190419D01*
X0207856Y0190529D01*
X0207383Y0190627D01*
X0206907Y0190715D01*
X0206430Y0190790D01*
X0205951Y0190854D01*
X0205470Y0190907D01*
X0204989Y0190947D01*
X0204506Y0190977D01*
X0204023Y0190994D01*
X0203540Y0191000D01*
X0173540Y0191000D01*
X0163540Y0201000D02*
X0163542Y0201140D01*
X0163548Y0201280D01*
X0163558Y0201420D01*
X0163571Y0201560D01*
X0163589Y0201699D01*
X0163611Y0201838D01*
X0163636Y0201975D01*
X0163665Y0202113D01*
X0163698Y0202249D01*
X0163735Y0202384D01*
X0163776Y0202518D01*
X0163821Y0202651D01*
X0163869Y0202783D01*
X0163921Y0202913D01*
X0163976Y0203042D01*
X0164035Y0203169D01*
X0164098Y0203295D01*
X0164164Y0203419D01*
X0164233Y0203540D01*
X0164306Y0203660D01*
X0164383Y0203778D01*
X0164462Y0203893D01*
X0164545Y0204007D01*
X0164631Y0204117D01*
X0164720Y0204226D01*
X0164812Y0204332D01*
X0164907Y0204435D01*
X0165004Y0204536D01*
X0165105Y0204633D01*
X0165208Y0204728D01*
X0165314Y0204820D01*
X0165423Y0204909D01*
X0165533Y0204995D01*
X0165647Y0205078D01*
X0165762Y0205157D01*
X0165880Y0205234D01*
X0166000Y0205307D01*
X0166121Y0205376D01*
X0166245Y0205442D01*
X0166371Y0205505D01*
X0166498Y0205564D01*
X0166627Y0205619D01*
X0166757Y0205671D01*
X0166889Y0205719D01*
X0167022Y0205764D01*
X0167156Y0205805D01*
X0167291Y0205842D01*
X0167427Y0205875D01*
X0167565Y0205904D01*
X0167702Y0205929D01*
X0167841Y0205951D01*
X0167980Y0205969D01*
X0168120Y0205982D01*
X0168260Y0205992D01*
X0168400Y0205998D01*
X0168540Y0206000D01*
X0199398Y0206000D01*
X0206469Y0203071D02*
X0230611Y0178929D01*
X0234006Y0182323D02*
X0234006Y0182323D01*
X0233405Y0182923D01*
X0210474Y0205854D01*
X0210129Y0206200D01*
X0227453Y0206200D01*
X0226883Y0204824D01*
X0226883Y0202176D01*
X0227896Y0199729D01*
X0229769Y0197856D01*
X0232216Y0196843D01*
X0234865Y0196843D01*
X0236202Y0197396D01*
X0236806Y0196952D01*
X0237869Y0195623D01*
X0238552Y0194064D01*
X0238808Y0192382D01*
X0238795Y0192086D01*
X0238740Y0191955D01*
X0238740Y0191266D01*
X0238664Y0190581D01*
X0238740Y0190319D01*
X0238740Y0176000D01*
X0237839Y0176000D01*
X0237721Y0176117D01*
X0237332Y0177570D01*
X0237332Y0177570D01*
X0235383Y0180945D01*
X0234006Y0182323D01*
X0234697Y0181632D02*
X0238740Y0181632D01*
X0238740Y0183230D02*
X0233098Y0183230D01*
X0231500Y0184829D02*
X0238740Y0184829D01*
X0238740Y0186427D02*
X0229901Y0186427D01*
X0228303Y0188026D02*
X0238740Y0188026D01*
X0238740Y0189624D02*
X0226704Y0189624D01*
X0225106Y0191223D02*
X0238736Y0191223D01*
X0238741Y0192821D02*
X0223507Y0192821D01*
X0221909Y0194420D02*
X0238396Y0194420D01*
X0237553Y0196018D02*
X0220310Y0196018D01*
X0218712Y0197617D02*
X0230347Y0197617D01*
X0228410Y0199215D02*
X0217113Y0199215D01*
X0215515Y0200814D02*
X0227447Y0200814D01*
X0226883Y0202412D02*
X0213916Y0202412D01*
X0212318Y0204011D02*
X0226883Y0204011D01*
X0227208Y0205609D02*
X0210719Y0205609D01*
X0206469Y0203071D02*
X0206299Y0203237D01*
X0206125Y0203400D01*
X0205947Y0203557D01*
X0205765Y0203711D01*
X0205580Y0203861D01*
X0205391Y0204005D01*
X0205199Y0204146D01*
X0205003Y0204281D01*
X0204804Y0204413D01*
X0204603Y0204539D01*
X0204398Y0204660D01*
X0204190Y0204777D01*
X0203980Y0204888D01*
X0203767Y0204995D01*
X0203552Y0205096D01*
X0203335Y0205193D01*
X0203115Y0205284D01*
X0202893Y0205369D01*
X0202669Y0205450D01*
X0202443Y0205525D01*
X0202215Y0205595D01*
X0201986Y0205659D01*
X0201756Y0205718D01*
X0201524Y0205771D01*
X0201291Y0205819D01*
X0201056Y0205862D01*
X0200821Y0205898D01*
X0200585Y0205929D01*
X0200349Y0205955D01*
X0200111Y0205975D01*
X0199874Y0205989D01*
X0199636Y0205997D01*
X0199398Y0206000D01*
X0198225Y0216000D02*
X0248855Y0216000D01*
X0248989Y0216002D01*
X0249122Y0216008D01*
X0249256Y0216017D01*
X0249389Y0216031D01*
X0249522Y0216048D01*
X0249654Y0216069D01*
X0249785Y0216093D01*
X0249916Y0216122D01*
X0250046Y0216154D01*
X0250175Y0216190D01*
X0250303Y0216229D01*
X0250429Y0216272D01*
X0250555Y0216319D01*
X0250679Y0216370D01*
X0250801Y0216423D01*
X0250922Y0216481D01*
X0251041Y0216541D01*
X0251159Y0216606D01*
X0251274Y0216673D01*
X0251388Y0216744D01*
X0251499Y0216818D01*
X0251609Y0216895D01*
X0251716Y0216975D01*
X0251821Y0217058D01*
X0251923Y0217144D01*
X0252023Y0217233D01*
X0252120Y0217325D01*
X0252215Y0217420D01*
X0252307Y0217517D01*
X0252396Y0217617D01*
X0252482Y0217719D01*
X0252565Y0217824D01*
X0252645Y0217931D01*
X0252722Y0218041D01*
X0252796Y0218152D01*
X0252867Y0218266D01*
X0252934Y0218381D01*
X0252999Y0218499D01*
X0253059Y0218618D01*
X0253117Y0218739D01*
X0253170Y0218861D01*
X0253221Y0218985D01*
X0253268Y0219111D01*
X0253311Y0219237D01*
X0253350Y0219365D01*
X0253386Y0219494D01*
X0253418Y0219624D01*
X0253447Y0219755D01*
X0253471Y0219886D01*
X0253492Y0220018D01*
X0253509Y0220151D01*
X0253523Y0220284D01*
X0253532Y0220418D01*
X0253538Y0220551D01*
X0253540Y0220685D01*
X0259709Y0218398D02*
X0259796Y0218398D01*
X0259799Y0218392D02*
X0260203Y0217835D01*
X0260690Y0217348D01*
X0261247Y0216943D01*
X0261861Y0216631D01*
X0262516Y0216418D01*
X0263196Y0216310D01*
X0263540Y0216310D01*
X0263540Y0220685D01*
X0263540Y0220685D01*
X0263540Y0216310D01*
X0263885Y0216310D01*
X0264565Y0216418D01*
X0265220Y0216631D01*
X0265833Y0216943D01*
X0266390Y0217348D01*
X0266877Y0217835D01*
X0267282Y0218392D01*
X0267333Y0218491D01*
X0267966Y0216961D01*
X0269127Y0215800D01*
X0257953Y0215800D01*
X0259114Y0216961D01*
X0259748Y0218491D01*
X0259799Y0218392D01*
X0258952Y0216799D02*
X0261531Y0216799D01*
X0263540Y0216799D02*
X0263540Y0216799D01*
X0263540Y0218398D02*
X0263540Y0218398D01*
X0263540Y0219996D02*
X0263540Y0219996D01*
X0265550Y0216799D02*
X0268128Y0216799D01*
X0267371Y0218398D02*
X0267285Y0218398D01*
X0273540Y0221000D02*
X0273538Y0221140D01*
X0273532Y0221280D01*
X0273522Y0221420D01*
X0273509Y0221560D01*
X0273491Y0221699D01*
X0273469Y0221838D01*
X0273444Y0221975D01*
X0273415Y0222113D01*
X0273382Y0222249D01*
X0273345Y0222384D01*
X0273304Y0222518D01*
X0273259Y0222651D01*
X0273211Y0222783D01*
X0273159Y0222913D01*
X0273104Y0223042D01*
X0273045Y0223169D01*
X0272982Y0223295D01*
X0272916Y0223419D01*
X0272847Y0223540D01*
X0272774Y0223660D01*
X0272697Y0223778D01*
X0272618Y0223893D01*
X0272535Y0224007D01*
X0272449Y0224117D01*
X0272360Y0224226D01*
X0272268Y0224332D01*
X0272173Y0224435D01*
X0272076Y0224536D01*
X0271975Y0224633D01*
X0271872Y0224728D01*
X0271766Y0224820D01*
X0271657Y0224909D01*
X0271547Y0224995D01*
X0271433Y0225078D01*
X0271318Y0225157D01*
X0271200Y0225234D01*
X0271080Y0225307D01*
X0270959Y0225376D01*
X0270835Y0225442D01*
X0270709Y0225505D01*
X0270582Y0225564D01*
X0270453Y0225619D01*
X0270323Y0225671D01*
X0270191Y0225719D01*
X0270058Y0225764D01*
X0269924Y0225805D01*
X0269789Y0225842D01*
X0269653Y0225875D01*
X0269515Y0225904D01*
X0269378Y0225929D01*
X0269239Y0225951D01*
X0269100Y0225969D01*
X0268960Y0225982D01*
X0268820Y0225992D01*
X0268680Y0225998D01*
X0268540Y0226000D01*
X0218540Y0226000D01*
X0218400Y0225998D01*
X0218260Y0225992D01*
X0218120Y0225982D01*
X0217980Y0225969D01*
X0217841Y0225951D01*
X0217702Y0225929D01*
X0217565Y0225904D01*
X0217427Y0225875D01*
X0217291Y0225842D01*
X0217156Y0225805D01*
X0217022Y0225764D01*
X0216889Y0225719D01*
X0216757Y0225671D01*
X0216627Y0225619D01*
X0216498Y0225564D01*
X0216371Y0225505D01*
X0216245Y0225442D01*
X0216121Y0225376D01*
X0216000Y0225307D01*
X0215880Y0225234D01*
X0215762Y0225157D01*
X0215647Y0225078D01*
X0215533Y0224995D01*
X0215423Y0224909D01*
X0215314Y0224820D01*
X0215208Y0224728D01*
X0215105Y0224633D01*
X0215004Y0224536D01*
X0214907Y0224435D01*
X0214812Y0224332D01*
X0214720Y0224226D01*
X0214631Y0224117D01*
X0214545Y0224007D01*
X0214462Y0223893D01*
X0214383Y0223778D01*
X0214306Y0223660D01*
X0214233Y0223540D01*
X0214164Y0223419D01*
X0214098Y0223295D01*
X0214035Y0223169D01*
X0213976Y0223042D01*
X0213921Y0222913D01*
X0213869Y0222783D01*
X0213821Y0222651D01*
X0213776Y0222518D01*
X0213735Y0222384D01*
X0213698Y0222249D01*
X0213665Y0222113D01*
X0213636Y0221975D01*
X0213611Y0221838D01*
X0213589Y0221699D01*
X0213571Y0221560D01*
X0213558Y0221420D01*
X0213548Y0221280D01*
X0213542Y0221140D01*
X0213540Y0221000D01*
X0213540Y0220685D01*
X0213540Y0221000D02*
X0213538Y0221140D01*
X0213532Y0221280D01*
X0213522Y0221420D01*
X0213509Y0221560D01*
X0213491Y0221699D01*
X0213469Y0221838D01*
X0213444Y0221975D01*
X0213415Y0222113D01*
X0213382Y0222249D01*
X0213345Y0222384D01*
X0213304Y0222518D01*
X0213259Y0222651D01*
X0213211Y0222783D01*
X0213159Y0222913D01*
X0213104Y0223042D01*
X0213045Y0223169D01*
X0212982Y0223295D01*
X0212916Y0223419D01*
X0212847Y0223540D01*
X0212774Y0223660D01*
X0212697Y0223778D01*
X0212618Y0223893D01*
X0212535Y0224007D01*
X0212449Y0224117D01*
X0212360Y0224226D01*
X0212268Y0224332D01*
X0212173Y0224435D01*
X0212076Y0224536D01*
X0211975Y0224633D01*
X0211872Y0224728D01*
X0211766Y0224820D01*
X0211657Y0224909D01*
X0211547Y0224995D01*
X0211433Y0225078D01*
X0211318Y0225157D01*
X0211200Y0225234D01*
X0211080Y0225307D01*
X0210959Y0225376D01*
X0210835Y0225442D01*
X0210709Y0225505D01*
X0210582Y0225564D01*
X0210453Y0225619D01*
X0210323Y0225671D01*
X0210191Y0225719D01*
X0210058Y0225764D01*
X0209924Y0225805D01*
X0209789Y0225842D01*
X0209653Y0225875D01*
X0209515Y0225904D01*
X0209378Y0225929D01*
X0209239Y0225951D01*
X0209100Y0225969D01*
X0208960Y0225982D01*
X0208820Y0225992D01*
X0208680Y0225998D01*
X0208540Y0226000D01*
X0188540Y0226000D01*
X0187997Y0220685D02*
X0187759Y0220688D01*
X0187521Y0220696D01*
X0187284Y0220710D01*
X0187046Y0220730D01*
X0186810Y0220756D01*
X0186574Y0220787D01*
X0186339Y0220823D01*
X0186104Y0220866D01*
X0185871Y0220914D01*
X0185639Y0220967D01*
X0185409Y0221026D01*
X0185180Y0221090D01*
X0184952Y0221160D01*
X0184726Y0221235D01*
X0184502Y0221316D01*
X0184280Y0221401D01*
X0184060Y0221492D01*
X0183843Y0221589D01*
X0183628Y0221690D01*
X0183415Y0221797D01*
X0183205Y0221908D01*
X0182997Y0222025D01*
X0182792Y0222146D01*
X0182591Y0222272D01*
X0182392Y0222404D01*
X0182196Y0222539D01*
X0182004Y0222680D01*
X0181815Y0222824D01*
X0181630Y0222974D01*
X0181448Y0223128D01*
X0181270Y0223285D01*
X0181096Y0223448D01*
X0180926Y0223614D01*
X0178540Y0226000D01*
X0168540Y0226000D01*
X0168400Y0225998D01*
X0168260Y0225992D01*
X0168120Y0225982D01*
X0167980Y0225969D01*
X0167841Y0225951D01*
X0167702Y0225929D01*
X0167565Y0225904D01*
X0167427Y0225875D01*
X0167291Y0225842D01*
X0167156Y0225805D01*
X0167022Y0225764D01*
X0166889Y0225719D01*
X0166757Y0225671D01*
X0166627Y0225619D01*
X0166498Y0225564D01*
X0166371Y0225505D01*
X0166245Y0225442D01*
X0166121Y0225376D01*
X0166000Y0225307D01*
X0165880Y0225234D01*
X0165762Y0225157D01*
X0165647Y0225078D01*
X0165533Y0224995D01*
X0165423Y0224909D01*
X0165314Y0224820D01*
X0165208Y0224728D01*
X0165105Y0224633D01*
X0165004Y0224536D01*
X0164907Y0224435D01*
X0164812Y0224332D01*
X0164720Y0224226D01*
X0164631Y0224117D01*
X0164545Y0224007D01*
X0164462Y0223893D01*
X0164383Y0223778D01*
X0164306Y0223660D01*
X0164233Y0223540D01*
X0164164Y0223419D01*
X0164098Y0223295D01*
X0164035Y0223169D01*
X0163976Y0223042D01*
X0163921Y0222913D01*
X0163869Y0222783D01*
X0163821Y0222651D01*
X0163776Y0222518D01*
X0163735Y0222384D01*
X0163698Y0222249D01*
X0163665Y0222113D01*
X0163636Y0221975D01*
X0163611Y0221838D01*
X0163589Y0221699D01*
X0163571Y0221560D01*
X0163558Y0221420D01*
X0163548Y0221280D01*
X0163542Y0221140D01*
X0163540Y0221000D01*
X0153540Y0216000D02*
X0153298Y0216003D01*
X0153057Y0216012D01*
X0152816Y0216026D01*
X0152575Y0216047D01*
X0152335Y0216073D01*
X0152095Y0216105D01*
X0151856Y0216143D01*
X0151619Y0216186D01*
X0151382Y0216236D01*
X0151147Y0216291D01*
X0150913Y0216351D01*
X0150681Y0216418D01*
X0150450Y0216489D01*
X0150221Y0216567D01*
X0149994Y0216650D01*
X0149769Y0216738D01*
X0149546Y0216832D01*
X0149326Y0216931D01*
X0149108Y0217036D01*
X0148893Y0217145D01*
X0148680Y0217260D01*
X0148470Y0217380D01*
X0148264Y0217505D01*
X0148060Y0217635D01*
X0147859Y0217770D01*
X0147662Y0217910D01*
X0147468Y0218054D01*
X0147278Y0218203D01*
X0147092Y0218357D01*
X0146909Y0218515D01*
X0146730Y0218677D01*
X0146555Y0218844D01*
X0146384Y0219015D01*
X0146217Y0219190D01*
X0146055Y0219369D01*
X0145897Y0219552D01*
X0145743Y0219738D01*
X0145594Y0219928D01*
X0145450Y0220122D01*
X0145310Y0220319D01*
X0145175Y0220520D01*
X0145045Y0220724D01*
X0144920Y0220930D01*
X0144800Y0221140D01*
X0144685Y0221353D01*
X0144576Y0221568D01*
X0144471Y0221786D01*
X0144372Y0222006D01*
X0144278Y0222229D01*
X0144190Y0222454D01*
X0144107Y0222681D01*
X0144029Y0222910D01*
X0143958Y0223141D01*
X0143891Y0223373D01*
X0143831Y0223607D01*
X0143776Y0223842D01*
X0143726Y0224079D01*
X0143683Y0224316D01*
X0143645Y0224555D01*
X0143613Y0224795D01*
X0143587Y0225035D01*
X0143566Y0225276D01*
X0143552Y0225517D01*
X0143543Y0225758D01*
X0143540Y0226000D01*
X0143540Y0231000D01*
X0183540Y0231000D02*
X0183542Y0230860D01*
X0183548Y0230720D01*
X0183558Y0230580D01*
X0183571Y0230440D01*
X0183589Y0230301D01*
X0183611Y0230162D01*
X0183636Y0230025D01*
X0183665Y0229887D01*
X0183698Y0229751D01*
X0183735Y0229616D01*
X0183776Y0229482D01*
X0183821Y0229349D01*
X0183869Y0229217D01*
X0183921Y0229087D01*
X0183976Y0228958D01*
X0184035Y0228831D01*
X0184098Y0228705D01*
X0184164Y0228581D01*
X0184233Y0228460D01*
X0184306Y0228340D01*
X0184383Y0228222D01*
X0184462Y0228107D01*
X0184545Y0227993D01*
X0184631Y0227883D01*
X0184720Y0227774D01*
X0184812Y0227668D01*
X0184907Y0227565D01*
X0185004Y0227464D01*
X0185105Y0227367D01*
X0185208Y0227272D01*
X0185314Y0227180D01*
X0185423Y0227091D01*
X0185533Y0227005D01*
X0185647Y0226922D01*
X0185762Y0226843D01*
X0185880Y0226766D01*
X0186000Y0226693D01*
X0186121Y0226624D01*
X0186245Y0226558D01*
X0186371Y0226495D01*
X0186498Y0226436D01*
X0186627Y0226381D01*
X0186757Y0226329D01*
X0186889Y0226281D01*
X0187022Y0226236D01*
X0187156Y0226195D01*
X0187291Y0226158D01*
X0187427Y0226125D01*
X0187565Y0226096D01*
X0187702Y0226071D01*
X0187841Y0226049D01*
X0187980Y0226031D01*
X0188120Y0226018D01*
X0188260Y0226008D01*
X0188400Y0226002D01*
X0188540Y0226000D01*
X0187997Y0220685D02*
X0193540Y0220685D01*
X0193542Y0220551D01*
X0193548Y0220418D01*
X0193557Y0220284D01*
X0193571Y0220151D01*
X0193588Y0220018D01*
X0193609Y0219886D01*
X0193633Y0219755D01*
X0193662Y0219624D01*
X0193694Y0219494D01*
X0193730Y0219365D01*
X0193769Y0219237D01*
X0193812Y0219111D01*
X0193859Y0218985D01*
X0193910Y0218861D01*
X0193963Y0218739D01*
X0194021Y0218618D01*
X0194081Y0218499D01*
X0194146Y0218381D01*
X0194213Y0218266D01*
X0194284Y0218152D01*
X0194358Y0218041D01*
X0194435Y0217931D01*
X0194515Y0217824D01*
X0194598Y0217719D01*
X0194684Y0217617D01*
X0194773Y0217517D01*
X0194865Y0217420D01*
X0194960Y0217325D01*
X0195057Y0217233D01*
X0195157Y0217144D01*
X0195259Y0217058D01*
X0195364Y0216975D01*
X0195471Y0216895D01*
X0195581Y0216818D01*
X0195692Y0216744D01*
X0195806Y0216673D01*
X0195921Y0216606D01*
X0196039Y0216541D01*
X0196158Y0216481D01*
X0196279Y0216423D01*
X0196401Y0216370D01*
X0196525Y0216319D01*
X0196651Y0216272D01*
X0196777Y0216229D01*
X0196905Y0216190D01*
X0197034Y0216154D01*
X0197164Y0216122D01*
X0197295Y0216093D01*
X0197426Y0216069D01*
X0197558Y0216048D01*
X0197691Y0216031D01*
X0197824Y0216017D01*
X0197958Y0216008D01*
X0198091Y0216002D01*
X0198225Y0216000D01*
X0233540Y0203500D02*
X0233811Y0203466D01*
X0234082Y0203426D01*
X0234352Y0203380D01*
X0234620Y0203327D01*
X0234887Y0203267D01*
X0235152Y0203201D01*
X0235416Y0203129D01*
X0235678Y0203050D01*
X0235938Y0202965D01*
X0236196Y0202874D01*
X0236451Y0202776D01*
X0236705Y0202673D01*
X0236955Y0202563D01*
X0237203Y0202447D01*
X0237448Y0202325D01*
X0237690Y0202198D01*
X0237929Y0202065D01*
X0238164Y0201925D01*
X0238396Y0201781D01*
X0238625Y0201630D01*
X0238850Y0201474D01*
X0239071Y0201313D01*
X0239288Y0201147D01*
X0239501Y0200975D01*
X0239709Y0200798D01*
X0239914Y0200617D01*
X0240114Y0200430D01*
X0240309Y0200238D01*
X0240500Y0200042D01*
X0240686Y0199842D01*
X0240867Y0199637D01*
X0241043Y0199427D01*
X0241213Y0199214D01*
X0241379Y0198996D01*
X0241539Y0198774D01*
X0241694Y0198549D01*
X0241844Y0198320D01*
X0241988Y0198087D01*
X0242126Y0197851D01*
X0242258Y0197612D01*
X0242385Y0197369D01*
X0242506Y0197124D01*
X0242621Y0196876D01*
X0242729Y0196625D01*
X0242832Y0196371D01*
X0242929Y0196115D01*
X0243019Y0195857D01*
X0243103Y0195597D01*
X0243181Y0195335D01*
X0243252Y0195070D01*
X0243317Y0194805D01*
X0243375Y0194538D01*
X0243427Y0194269D01*
X0243473Y0193999D01*
X0243512Y0193729D01*
X0243544Y0193457D01*
X0243570Y0193185D01*
X0243590Y0192912D01*
X0243602Y0192639D01*
X0243608Y0192365D01*
X0243608Y0192092D01*
X0243601Y0191818D01*
X0243587Y0191545D01*
X0243567Y0191272D01*
X0243540Y0191000D01*
X0243540Y0171000D01*
X0238740Y0176836D02*
X0237528Y0176836D01*
X0236833Y0178435D02*
X0238740Y0178435D01*
X0238740Y0180033D02*
X0235910Y0180033D01*
X0235383Y0180945D02*
X0235383Y0180945D01*
X0233540Y0171858D02*
X0233540Y0171000D01*
X0233540Y0171858D02*
X0233537Y0172096D01*
X0233529Y0172334D01*
X0233515Y0172571D01*
X0233495Y0172809D01*
X0233469Y0173045D01*
X0233438Y0173281D01*
X0233402Y0173516D01*
X0233359Y0173751D01*
X0233311Y0173984D01*
X0233258Y0174216D01*
X0233199Y0174446D01*
X0233135Y0174675D01*
X0233065Y0174903D01*
X0232990Y0175129D01*
X0232909Y0175353D01*
X0232824Y0175575D01*
X0232733Y0175795D01*
X0232636Y0176012D01*
X0232535Y0176227D01*
X0232428Y0176440D01*
X0232317Y0176650D01*
X0232200Y0176858D01*
X0232079Y0177063D01*
X0231953Y0177264D01*
X0231821Y0177463D01*
X0231686Y0177659D01*
X0231545Y0177851D01*
X0231401Y0178040D01*
X0231251Y0178225D01*
X0231097Y0178407D01*
X0230940Y0178585D01*
X0230777Y0178759D01*
X0230611Y0178929D01*
X0248340Y0178435D02*
X0257486Y0178435D01*
X0256966Y0180033D02*
X0248340Y0180033D01*
X0248340Y0181632D02*
X0256966Y0181632D01*
X0257348Y0183230D02*
X0248340Y0183230D01*
X0248340Y0184829D02*
X0258071Y0184829D01*
X0259669Y0186427D02*
X0248340Y0186427D01*
X0248340Y0176836D02*
X0250450Y0176836D01*
X0256631Y0176836D02*
X0258406Y0176836D01*
X0267411Y0186427D02*
X0269669Y0186427D01*
X0289010Y0184829D02*
X0289674Y0184829D01*
X0293540Y0184829D02*
X0293540Y0184829D01*
X0293540Y0183230D02*
X0293540Y0183230D01*
X0293540Y0181632D02*
X0293540Y0181632D01*
X0293540Y0181000D02*
X0293540Y0181000D01*
X0292628Y0204157D02*
X0292628Y0204157D01*
X0273540Y0220685D02*
X0273540Y0221000D01*
X0196469Y0178071D02*
X0196299Y0178237D01*
X0196125Y0178400D01*
X0195947Y0178557D01*
X0195765Y0178711D01*
X0195580Y0178861D01*
X0195391Y0179005D01*
X0195199Y0179146D01*
X0195003Y0179281D01*
X0194804Y0179413D01*
X0194603Y0179539D01*
X0194398Y0179660D01*
X0194190Y0179777D01*
X0193980Y0179888D01*
X0193767Y0179995D01*
X0193552Y0180096D01*
X0193335Y0180193D01*
X0193115Y0180284D01*
X0192893Y0180369D01*
X0192669Y0180450D01*
X0192443Y0180525D01*
X0192215Y0180595D01*
X0191986Y0180659D01*
X0191756Y0180718D01*
X0191524Y0180771D01*
X0191291Y0180819D01*
X0191056Y0180862D01*
X0190821Y0180898D01*
X0190585Y0180929D01*
X0190349Y0180955D01*
X0190111Y0180975D01*
X0189874Y0180989D01*
X0189636Y0180997D01*
X0189398Y0181000D01*
X0190915Y0149662D02*
X0196166Y0149662D01*
X0193911Y0148063D02*
X0193169Y0148063D01*
X0186166Y0149662D02*
X0180915Y0149662D01*
X0183169Y0148063D02*
X0183911Y0148063D01*
X0176166Y0149662D02*
X0170915Y0149662D01*
X0173169Y0148063D02*
X0173911Y0148063D01*
X0166166Y0149662D02*
X0160915Y0149662D01*
X0163169Y0148063D02*
X0163911Y0148063D01*
X0156166Y0149662D02*
X0150915Y0149662D01*
X0153169Y0148063D02*
X0153911Y0148063D01*
X0146166Y0149662D02*
X0140915Y0149662D01*
X0143169Y0148063D02*
X0143911Y0148063D01*
X0136166Y0149662D02*
X0110915Y0149662D01*
X0113169Y0148063D02*
X0133911Y0148063D01*
X0132898Y0146465D02*
X0114183Y0146465D01*
X0114709Y0144866D02*
X0132372Y0144866D01*
X0132372Y0143268D02*
X0114709Y0143268D01*
X0114709Y0141669D02*
X0132372Y0141669D01*
X0132372Y0140070D02*
X0114709Y0140070D01*
X0114709Y0138472D02*
X0132372Y0138472D01*
X0132372Y0136873D02*
X0114709Y0136873D01*
X0114075Y0135275D02*
X0133005Y0135275D01*
X0134172Y0133676D02*
X0112909Y0133676D01*
X0096794Y0132078D02*
X0090286Y0132078D01*
X0092909Y0133676D02*
X0094172Y0133676D01*
X0096133Y0128881D02*
X0090947Y0128881D01*
X0093060Y0127282D02*
X0094020Y0127282D01*
X0086133Y0128881D02*
X0080947Y0128881D01*
X0083060Y0127282D02*
X0084020Y0127282D01*
X0086794Y0132078D02*
X0080286Y0132078D01*
X0082909Y0133676D02*
X0084172Y0133676D01*
X0076794Y0132078D02*
X0070286Y0132078D01*
X0072909Y0133676D02*
X0074172Y0133676D01*
X0076133Y0128881D02*
X0070947Y0128881D01*
X0073060Y0127282D02*
X0074020Y0127282D01*
X0066133Y0128881D02*
X0060947Y0128881D01*
X0063060Y0127282D02*
X0064020Y0127282D01*
X0066794Y0132078D02*
X0060286Y0132078D01*
X0062909Y0133676D02*
X0064172Y0133676D01*
X0056794Y0132078D02*
X0050286Y0132078D01*
X0052909Y0133676D02*
X0054172Y0133676D01*
X0056133Y0128881D02*
X0050947Y0128881D01*
X0053060Y0127282D02*
X0054020Y0127282D01*
X0046133Y0128881D02*
X0040947Y0128881D01*
X0043060Y0127282D02*
X0044020Y0127282D01*
X0046794Y0132078D02*
X0040286Y0132078D01*
X0042909Y0133676D02*
X0044172Y0133676D01*
X0036794Y0132078D02*
X0028540Y0132078D01*
X0028540Y0133676D02*
X0034172Y0133676D01*
X0033005Y0135275D02*
X0028540Y0135275D01*
X0028540Y0136873D02*
X0032372Y0136873D01*
X0032372Y0138472D02*
X0028540Y0138472D01*
X0028540Y0140070D02*
X0032372Y0140070D01*
X0032372Y0141669D02*
X0028540Y0141669D01*
X0028540Y0143268D02*
X0032372Y0143268D01*
X0032372Y0144866D02*
X0028540Y0144866D01*
X0028540Y0146465D02*
X0032898Y0146465D01*
X0033911Y0148063D02*
X0028540Y0148063D01*
X0028540Y0149662D02*
X0036166Y0149662D01*
X0040915Y0149662D02*
X0046166Y0149662D01*
X0043911Y0148063D02*
X0043169Y0148063D01*
X0050915Y0149662D02*
X0056166Y0149662D01*
X0053911Y0148063D02*
X0053169Y0148063D01*
X0060915Y0149662D02*
X0066166Y0149662D01*
X0063911Y0148063D02*
X0063169Y0148063D01*
X0070915Y0149662D02*
X0076166Y0149662D01*
X0073911Y0148063D02*
X0073169Y0148063D01*
X0080915Y0149662D02*
X0086166Y0149662D01*
X0083911Y0148063D02*
X0083169Y0148063D01*
X0090915Y0149662D02*
X0096166Y0149662D01*
X0093911Y0148063D02*
X0093169Y0148063D01*
X0100915Y0149662D02*
X0106166Y0149662D01*
X0103911Y0148063D02*
X0103169Y0148063D01*
X0140286Y0132078D02*
X0146794Y0132078D01*
X0144172Y0133676D02*
X0142909Y0133676D01*
X0140947Y0128881D02*
X0146133Y0128881D01*
X0144020Y0127282D02*
X0143060Y0127282D01*
X0150947Y0128881D02*
X0156133Y0128881D01*
X0154020Y0127282D02*
X0153060Y0127282D01*
X0150286Y0132078D02*
X0156794Y0132078D01*
X0154172Y0133676D02*
X0152909Y0133676D01*
X0160286Y0132078D02*
X0166794Y0132078D01*
X0164172Y0133676D02*
X0162909Y0133676D01*
X0160947Y0128881D02*
X0166133Y0128881D01*
X0164020Y0127282D02*
X0163060Y0127282D01*
X0170947Y0128881D02*
X0176133Y0128881D01*
X0174020Y0127282D02*
X0173060Y0127282D01*
X0170286Y0132078D02*
X0176794Y0132078D01*
X0174172Y0133676D02*
X0172909Y0133676D01*
X0180286Y0132078D02*
X0186794Y0132078D01*
X0184172Y0133676D02*
X0182909Y0133676D01*
X0180947Y0128881D02*
X0186133Y0128881D01*
X0184020Y0127282D02*
X0183060Y0127282D01*
X0190947Y0128881D02*
X0196133Y0128881D01*
X0194020Y0127282D02*
X0193060Y0127282D01*
X0190286Y0132078D02*
X0196794Y0132078D01*
X0194172Y0133676D02*
X0192909Y0133676D01*
X0200286Y0132078D02*
X0206794Y0132078D01*
X0204172Y0133676D02*
X0202909Y0133676D01*
X0200947Y0128881D02*
X0206133Y0128881D01*
X0204020Y0127282D02*
X0203060Y0127282D01*
X0210286Y0132078D02*
X0236794Y0132078D01*
X0242837Y0114494D02*
X0244244Y0114494D01*
X0246673Y0112896D02*
X0240408Y0112896D01*
X0242155Y0106502D02*
X0244925Y0106502D01*
X0252155Y0106502D02*
X0254925Y0106502D01*
X0262155Y0106502D02*
X0274925Y0106502D01*
X0276673Y0112896D02*
X0270408Y0112896D01*
X0272837Y0114494D02*
X0274244Y0114494D01*
X0280408Y0112896D02*
X0286673Y0112896D01*
X0284244Y0114494D02*
X0282837Y0114494D01*
X0290408Y0112896D02*
X0296673Y0112896D01*
X0294244Y0114494D02*
X0292837Y0114494D01*
X0300408Y0112896D02*
X0306673Y0112896D01*
X0304244Y0114494D02*
X0302837Y0114494D01*
X0302155Y0106502D02*
X0304925Y0106502D01*
X0294925Y0106502D02*
X0292155Y0106502D01*
X0284925Y0106502D02*
X0282155Y0106502D01*
X0266673Y0112896D02*
X0260408Y0112896D01*
X0262837Y0114494D02*
X0264244Y0114494D01*
X0256673Y0112896D02*
X0250408Y0112896D01*
X0252837Y0114494D02*
X0254244Y0114494D01*
X0218540Y0091000D02*
X0218540Y0091000D01*
X0218540Y0090517D02*
X0218540Y0090517D01*
X0218540Y0088918D02*
X0218540Y0088918D01*
X0218540Y0087320D02*
X0218540Y0087320D01*
X0218540Y0085721D02*
X0218540Y0085721D01*
X0218540Y0084123D02*
X0218540Y0084123D01*
X0217466Y0084123D02*
X0212465Y0084123D01*
X0213709Y0085721D02*
X0215048Y0085721D01*
X0204615Y0084123D02*
X0202465Y0084123D01*
X0194615Y0084123D02*
X0192465Y0084123D01*
X0184615Y0084123D02*
X0182465Y0084123D01*
X0174615Y0084123D02*
X0172465Y0084123D01*
X0164615Y0084123D02*
X0162465Y0084123D01*
X0154615Y0084123D02*
X0152465Y0084123D01*
X0144615Y0084123D02*
X0142465Y0084123D01*
X0140835Y0076130D02*
X0136246Y0076130D01*
X0138176Y0074532D02*
X0138905Y0074532D01*
X0130835Y0076130D02*
X0118085Y0076130D01*
X0119183Y0074532D02*
X0120958Y0074532D01*
X0119615Y0072933D02*
X0119315Y0072933D01*
X0119315Y0069736D02*
X0119351Y0069736D01*
X0119315Y0068137D02*
X0120216Y0068137D01*
X0123540Y0068137D02*
X0123540Y0068137D01*
X0123540Y0066625D02*
X0123885Y0066625D01*
X0124565Y0066733D01*
X0125220Y0066946D01*
X0125833Y0067258D01*
X0126390Y0067663D01*
X0126877Y0068150D01*
X0127282Y0068707D01*
X0127595Y0069321D01*
X0127766Y0069849D01*
X0128645Y0067729D01*
X0130269Y0066104D01*
X0128475Y0068137D02*
X0126865Y0068137D01*
X0127730Y0069736D02*
X0127813Y0069736D01*
X0128090Y0072933D02*
X0127465Y0072933D01*
X0126122Y0074532D02*
X0128905Y0074532D01*
X0123540Y0074532D02*
X0123540Y0074532D01*
X0123540Y0072933D02*
X0123540Y0072933D01*
X0123540Y0071334D02*
X0123540Y0071334D01*
X0123540Y0071000D02*
X0123540Y0066625D01*
X0123540Y0069736D02*
X0123540Y0069736D01*
X0117540Y0064940D02*
X0253943Y0064940D01*
X0255542Y0063342D02*
X0117540Y0063342D01*
X0117540Y0061743D02*
X0257140Y0061743D01*
X0258739Y0060145D02*
X0117540Y0060145D01*
X0117540Y0058546D02*
X0235430Y0058546D01*
X0233831Y0056948D02*
X0117540Y0056948D01*
X0117540Y0055349D02*
X0232233Y0055349D01*
X0230634Y0053751D02*
X0117540Y0053751D01*
X0118045Y0052152D02*
X0229036Y0052152D01*
X0227437Y0050554D02*
X0119643Y0050554D01*
X0121242Y0048955D02*
X0225839Y0048955D01*
X0224240Y0047357D02*
X0122840Y0047357D01*
X0124439Y0045758D02*
X0222642Y0045758D01*
X0221043Y0044160D02*
X0171037Y0044160D01*
X0172636Y0042561D02*
X0219445Y0042561D01*
X0217846Y0040963D02*
X0176094Y0040963D01*
X0178042Y0039364D02*
X0216248Y0039364D01*
X0214649Y0037766D02*
X0178829Y0037766D01*
X0179103Y0036167D02*
X0213051Y0036167D01*
X0211452Y0034569D02*
X0178968Y0034569D01*
X0178306Y0032970D02*
X0209854Y0032970D01*
X0208255Y0031372D02*
X0176778Y0031372D01*
X0173540Y0036000D02*
X0168540Y0041000D01*
X0158540Y0036000D02*
X0118540Y0036000D01*
X0098540Y0056000D01*
X0098540Y0091000D01*
X0102540Y0084123D02*
X0104615Y0084123D01*
X0102540Y0076130D02*
X0108995Y0076130D01*
X0107898Y0074532D02*
X0102540Y0074532D01*
X0102540Y0072933D02*
X0107766Y0072933D01*
X0107766Y0071334D02*
X0102540Y0071334D01*
X0102540Y0069736D02*
X0107766Y0069736D01*
X0107766Y0068137D02*
X0102540Y0068137D01*
X0102540Y0066539D02*
X0108326Y0066539D01*
X0109540Y0064940D02*
X0102540Y0064940D01*
X0102540Y0063342D02*
X0109540Y0063342D01*
X0109540Y0061743D02*
X0102540Y0061743D01*
X0102540Y0060145D02*
X0109540Y0060145D01*
X0109540Y0058546D02*
X0102540Y0058546D01*
X0103249Y0056948D02*
X0109540Y0056948D01*
X0109540Y0055349D02*
X0104848Y0055349D01*
X0106446Y0053751D02*
X0109540Y0053751D01*
X0109540Y0052152D02*
X0108045Y0052152D01*
X0137246Y0066539D02*
X0139835Y0066539D01*
X0147246Y0066539D02*
X0149835Y0066539D01*
X0157246Y0066539D02*
X0159835Y0066539D01*
X0167246Y0066539D02*
X0169835Y0066539D01*
X0177246Y0066539D02*
X0179835Y0066539D01*
X0187246Y0066539D02*
X0189835Y0066539D01*
X0197246Y0066539D02*
X0199835Y0066539D01*
X0198905Y0074532D02*
X0198176Y0074532D01*
X0196246Y0076130D02*
X0200835Y0076130D01*
X0190835Y0076130D02*
X0186246Y0076130D01*
X0188176Y0074532D02*
X0188905Y0074532D01*
X0180835Y0076130D02*
X0176246Y0076130D01*
X0178176Y0074532D02*
X0178905Y0074532D01*
X0170835Y0076130D02*
X0166246Y0076130D01*
X0168176Y0074532D02*
X0168905Y0074532D01*
X0160835Y0076130D02*
X0156246Y0076130D01*
X0158176Y0074532D02*
X0158905Y0074532D01*
X0150835Y0076130D02*
X0146246Y0076130D01*
X0148176Y0074532D02*
X0148905Y0074532D01*
X0150408Y0112896D02*
X0156673Y0112896D01*
X0154244Y0114494D02*
X0152837Y0114494D01*
X0146673Y0112896D02*
X0140408Y0112896D01*
X0142837Y0114494D02*
X0144244Y0114494D01*
X0160408Y0112896D02*
X0166673Y0112896D01*
X0164244Y0114494D02*
X0162837Y0114494D01*
X0170408Y0112896D02*
X0176673Y0112896D01*
X0174244Y0114494D02*
X0172837Y0114494D01*
X0180408Y0112896D02*
X0186673Y0112896D01*
X0184244Y0114494D02*
X0182837Y0114494D01*
X0190408Y0112896D02*
X0196673Y0112896D01*
X0194244Y0114494D02*
X0192837Y0114494D01*
X0200408Y0112896D02*
X0206673Y0112896D01*
X0204244Y0114494D02*
X0202837Y0114494D01*
X0210408Y0112896D02*
X0213740Y0112896D01*
X0213740Y0114494D02*
X0212837Y0114494D01*
X0203911Y0148063D02*
X0203169Y0148063D01*
X0200915Y0149662D02*
X0206166Y0149662D01*
X0306246Y0076130D02*
X0333540Y0076130D01*
X0333540Y0074532D02*
X0308176Y0074532D01*
X0308990Y0072933D02*
X0333540Y0072933D01*
X0333540Y0071334D02*
X0309315Y0071334D01*
X0309267Y0069736D02*
X0333540Y0069736D01*
X0333540Y0068137D02*
X0308605Y0068137D01*
X0307246Y0066539D02*
X0333540Y0066539D01*
X0288540Y0066000D02*
X0278540Y0066000D01*
X0273540Y0061000D01*
X0263540Y0061000D01*
X0253540Y0071000D01*
X0249835Y0066539D02*
X0247246Y0066539D01*
X0251912Y0026576D02*
X0224773Y0026576D01*
X0223175Y0024978D02*
X0249351Y0024978D01*
X0248275Y0023379D02*
X0221576Y0023379D01*
X0219978Y0021781D02*
X0247766Y0021781D01*
X0247766Y0020182D02*
X0218379Y0020182D01*
X0216781Y0018584D02*
X0248291Y0018584D01*
X0249388Y0016985D02*
X0215182Y0016985D01*
X0217321Y0015387D02*
X0219760Y0015387D01*
X0227321Y0015387D02*
X0229760Y0015387D01*
X0237321Y0015387D02*
X0239760Y0015387D01*
X0247321Y0015387D02*
X0249760Y0015387D01*
X0257729Y0024978D02*
X0259351Y0024978D01*
X0261912Y0026576D02*
X0255169Y0026576D01*
X0265169Y0026576D02*
X0271912Y0026576D01*
X0269351Y0024978D02*
X0267729Y0024978D01*
X0200263Y0023379D02*
X0176818Y0023379D01*
X0178417Y0021781D02*
X0198664Y0021781D01*
X0197066Y0020182D02*
X0180015Y0020182D01*
X0181614Y0018584D02*
X0195467Y0018584D01*
X0193869Y0016985D02*
X0183212Y0016985D01*
X0187321Y0015387D02*
X0189760Y0015387D01*
X0183540Y0011000D02*
X0158540Y0036000D01*
X0054615Y0084123D02*
X0052465Y0084123D01*
X0044615Y0084123D02*
X0042465Y0084123D01*
X0034615Y0084123D02*
X0033940Y0084123D01*
X0028797Y0048955D02*
X0028540Y0048955D01*
X0028540Y0047357D02*
X0030395Y0047357D01*
X0031994Y0045758D02*
X0028540Y0045758D01*
X0028540Y0044160D02*
X0033592Y0044160D01*
X0035191Y0042561D02*
X0028540Y0042561D01*
X0028540Y0040963D02*
X0036789Y0040963D01*
X0038388Y0039364D02*
X0028540Y0039364D01*
X0028540Y0037766D02*
X0039986Y0037766D01*
X0041585Y0036167D02*
X0028540Y0036167D01*
X0028540Y0034569D02*
X0043183Y0034569D01*
X0044782Y0032970D02*
X0028540Y0032970D01*
X0028540Y0031372D02*
X0046380Y0031372D01*
D17*
X0033540Y0031000D03*
X0123540Y0141000D03*
X0223540Y0141000D03*
X0323540Y0036000D03*
D18*
X0308540Y0101000D03*
X0298540Y0101000D03*
X0288540Y0101000D03*
X0278540Y0101000D03*
X0278540Y0111000D03*
X0288540Y0111000D03*
X0298540Y0111000D03*
X0308540Y0111000D03*
X0258540Y0111000D03*
X0248540Y0111000D03*
X0238540Y0111000D03*
X0238540Y0101000D03*
X0248540Y0101000D03*
X0258540Y0101000D03*
X0208540Y0101000D03*
X0208540Y0111000D03*
X0158540Y0111000D03*
X0148540Y0111000D03*
X0148540Y0101000D03*
X0158540Y0101000D03*
X0098540Y0101000D03*
X0088540Y0101000D03*
X0088540Y0111000D03*
X0098540Y0111000D03*
D19*
X0173540Y0036000D03*
D20*
X0158540Y0101000D02*
X0148540Y0101000D01*
X0118540Y0101000D01*
X0118540Y0121000D01*
X0118540Y0101000D02*
X0098540Y0101000D01*
X0088540Y0101000D01*
X0087890Y0101650D01*
X0029140Y0101650D01*
X0029140Y0055400D01*
X0058540Y0026000D01*
X0063698Y0026000D01*
X0158540Y0101000D02*
X0208540Y0101000D01*
X0218540Y0101000D01*
X0238540Y0101000D01*
X0248540Y0101000D01*
X0258540Y0101000D01*
X0278540Y0101000D01*
X0288540Y0101000D01*
X0298540Y0101000D01*
X0308540Y0101000D01*
X0318540Y0101000D01*
X0318540Y0121000D01*
X0218540Y0121000D02*
X0218540Y0101000D01*
D21*
X0258540Y0196000D03*
X0233540Y0203500D03*
X0218540Y0201000D03*
X0233540Y0221000D03*
M02*
