G75*
%MOIN*%
%OFA0B0*%
%FSLAX25Y25*%
%IPPOS*%
%LPD*%
%AMOC8*
5,1,8,0,0,1.08239X$1,22.5*
%
%ADD10C,0.00000*%
%ADD11C,0.00800*%
%ADD12C,0.00600*%
%ADD13C,0.00500*%
%ADD14C,0.00300*%
%ADD15C,0.00200*%
%ADD16C,0.00400*%
D10*
X0023540Y0001000D02*
X0023540Y0235980D01*
X0338501Y0235980D01*
X0338501Y0001000D01*
X0023540Y0001000D01*
X0027634Y0011000D02*
X0027636Y0011153D01*
X0027642Y0011307D01*
X0027652Y0011460D01*
X0027666Y0011612D01*
X0027684Y0011765D01*
X0027706Y0011916D01*
X0027731Y0012067D01*
X0027761Y0012218D01*
X0027795Y0012368D01*
X0027832Y0012516D01*
X0027873Y0012664D01*
X0027918Y0012810D01*
X0027967Y0012956D01*
X0028020Y0013100D01*
X0028076Y0013242D01*
X0028136Y0013383D01*
X0028200Y0013523D01*
X0028267Y0013661D01*
X0028338Y0013797D01*
X0028413Y0013931D01*
X0028490Y0014063D01*
X0028572Y0014193D01*
X0028656Y0014321D01*
X0028744Y0014447D01*
X0028835Y0014570D01*
X0028929Y0014691D01*
X0029027Y0014809D01*
X0029127Y0014925D01*
X0029231Y0015038D01*
X0029337Y0015149D01*
X0029446Y0015257D01*
X0029558Y0015362D01*
X0029672Y0015463D01*
X0029790Y0015562D01*
X0029909Y0015658D01*
X0030031Y0015751D01*
X0030156Y0015840D01*
X0030283Y0015927D01*
X0030412Y0016009D01*
X0030543Y0016089D01*
X0030676Y0016165D01*
X0030811Y0016238D01*
X0030948Y0016307D01*
X0031087Y0016372D01*
X0031227Y0016434D01*
X0031369Y0016492D01*
X0031512Y0016547D01*
X0031657Y0016598D01*
X0031803Y0016645D01*
X0031950Y0016688D01*
X0032098Y0016727D01*
X0032247Y0016763D01*
X0032397Y0016794D01*
X0032548Y0016822D01*
X0032699Y0016846D01*
X0032852Y0016866D01*
X0033004Y0016882D01*
X0033157Y0016894D01*
X0033310Y0016902D01*
X0033463Y0016906D01*
X0033617Y0016906D01*
X0033770Y0016902D01*
X0033923Y0016894D01*
X0034076Y0016882D01*
X0034228Y0016866D01*
X0034381Y0016846D01*
X0034532Y0016822D01*
X0034683Y0016794D01*
X0034833Y0016763D01*
X0034982Y0016727D01*
X0035130Y0016688D01*
X0035277Y0016645D01*
X0035423Y0016598D01*
X0035568Y0016547D01*
X0035711Y0016492D01*
X0035853Y0016434D01*
X0035993Y0016372D01*
X0036132Y0016307D01*
X0036269Y0016238D01*
X0036404Y0016165D01*
X0036537Y0016089D01*
X0036668Y0016009D01*
X0036797Y0015927D01*
X0036924Y0015840D01*
X0037049Y0015751D01*
X0037171Y0015658D01*
X0037290Y0015562D01*
X0037408Y0015463D01*
X0037522Y0015362D01*
X0037634Y0015257D01*
X0037743Y0015149D01*
X0037849Y0015038D01*
X0037953Y0014925D01*
X0038053Y0014809D01*
X0038151Y0014691D01*
X0038245Y0014570D01*
X0038336Y0014447D01*
X0038424Y0014321D01*
X0038508Y0014193D01*
X0038590Y0014063D01*
X0038667Y0013931D01*
X0038742Y0013797D01*
X0038813Y0013661D01*
X0038880Y0013523D01*
X0038944Y0013383D01*
X0039004Y0013242D01*
X0039060Y0013100D01*
X0039113Y0012956D01*
X0039162Y0012810D01*
X0039207Y0012664D01*
X0039248Y0012516D01*
X0039285Y0012368D01*
X0039319Y0012218D01*
X0039349Y0012067D01*
X0039374Y0011916D01*
X0039396Y0011765D01*
X0039414Y0011612D01*
X0039428Y0011460D01*
X0039438Y0011307D01*
X0039444Y0011153D01*
X0039446Y0011000D01*
X0039444Y0010847D01*
X0039438Y0010693D01*
X0039428Y0010540D01*
X0039414Y0010388D01*
X0039396Y0010235D01*
X0039374Y0010084D01*
X0039349Y0009933D01*
X0039319Y0009782D01*
X0039285Y0009632D01*
X0039248Y0009484D01*
X0039207Y0009336D01*
X0039162Y0009190D01*
X0039113Y0009044D01*
X0039060Y0008900D01*
X0039004Y0008758D01*
X0038944Y0008617D01*
X0038880Y0008477D01*
X0038813Y0008339D01*
X0038742Y0008203D01*
X0038667Y0008069D01*
X0038590Y0007937D01*
X0038508Y0007807D01*
X0038424Y0007679D01*
X0038336Y0007553D01*
X0038245Y0007430D01*
X0038151Y0007309D01*
X0038053Y0007191D01*
X0037953Y0007075D01*
X0037849Y0006962D01*
X0037743Y0006851D01*
X0037634Y0006743D01*
X0037522Y0006638D01*
X0037408Y0006537D01*
X0037290Y0006438D01*
X0037171Y0006342D01*
X0037049Y0006249D01*
X0036924Y0006160D01*
X0036797Y0006073D01*
X0036668Y0005991D01*
X0036537Y0005911D01*
X0036404Y0005835D01*
X0036269Y0005762D01*
X0036132Y0005693D01*
X0035993Y0005628D01*
X0035853Y0005566D01*
X0035711Y0005508D01*
X0035568Y0005453D01*
X0035423Y0005402D01*
X0035277Y0005355D01*
X0035130Y0005312D01*
X0034982Y0005273D01*
X0034833Y0005237D01*
X0034683Y0005206D01*
X0034532Y0005178D01*
X0034381Y0005154D01*
X0034228Y0005134D01*
X0034076Y0005118D01*
X0033923Y0005106D01*
X0033770Y0005098D01*
X0033617Y0005094D01*
X0033463Y0005094D01*
X0033310Y0005098D01*
X0033157Y0005106D01*
X0033004Y0005118D01*
X0032852Y0005134D01*
X0032699Y0005154D01*
X0032548Y0005178D01*
X0032397Y0005206D01*
X0032247Y0005237D01*
X0032098Y0005273D01*
X0031950Y0005312D01*
X0031803Y0005355D01*
X0031657Y0005402D01*
X0031512Y0005453D01*
X0031369Y0005508D01*
X0031227Y0005566D01*
X0031087Y0005628D01*
X0030948Y0005693D01*
X0030811Y0005762D01*
X0030676Y0005835D01*
X0030543Y0005911D01*
X0030412Y0005991D01*
X0030283Y0006073D01*
X0030156Y0006160D01*
X0030031Y0006249D01*
X0029909Y0006342D01*
X0029790Y0006438D01*
X0029672Y0006537D01*
X0029558Y0006638D01*
X0029446Y0006743D01*
X0029337Y0006851D01*
X0029231Y0006962D01*
X0029127Y0007075D01*
X0029027Y0007191D01*
X0028929Y0007309D01*
X0028835Y0007430D01*
X0028744Y0007553D01*
X0028656Y0007679D01*
X0028572Y0007807D01*
X0028490Y0007937D01*
X0028413Y0008069D01*
X0028338Y0008203D01*
X0028267Y0008339D01*
X0028200Y0008477D01*
X0028136Y0008617D01*
X0028076Y0008758D01*
X0028020Y0008900D01*
X0027967Y0009044D01*
X0027918Y0009190D01*
X0027873Y0009336D01*
X0027832Y0009484D01*
X0027795Y0009632D01*
X0027761Y0009782D01*
X0027731Y0009933D01*
X0027706Y0010084D01*
X0027684Y0010235D01*
X0027666Y0010388D01*
X0027652Y0010540D01*
X0027642Y0010693D01*
X0027636Y0010847D01*
X0027634Y0011000D01*
X0322634Y0011000D02*
X0322636Y0011153D01*
X0322642Y0011307D01*
X0322652Y0011460D01*
X0322666Y0011612D01*
X0322684Y0011765D01*
X0322706Y0011916D01*
X0322731Y0012067D01*
X0322761Y0012218D01*
X0322795Y0012368D01*
X0322832Y0012516D01*
X0322873Y0012664D01*
X0322918Y0012810D01*
X0322967Y0012956D01*
X0323020Y0013100D01*
X0323076Y0013242D01*
X0323136Y0013383D01*
X0323200Y0013523D01*
X0323267Y0013661D01*
X0323338Y0013797D01*
X0323413Y0013931D01*
X0323490Y0014063D01*
X0323572Y0014193D01*
X0323656Y0014321D01*
X0323744Y0014447D01*
X0323835Y0014570D01*
X0323929Y0014691D01*
X0324027Y0014809D01*
X0324127Y0014925D01*
X0324231Y0015038D01*
X0324337Y0015149D01*
X0324446Y0015257D01*
X0324558Y0015362D01*
X0324672Y0015463D01*
X0324790Y0015562D01*
X0324909Y0015658D01*
X0325031Y0015751D01*
X0325156Y0015840D01*
X0325283Y0015927D01*
X0325412Y0016009D01*
X0325543Y0016089D01*
X0325676Y0016165D01*
X0325811Y0016238D01*
X0325948Y0016307D01*
X0326087Y0016372D01*
X0326227Y0016434D01*
X0326369Y0016492D01*
X0326512Y0016547D01*
X0326657Y0016598D01*
X0326803Y0016645D01*
X0326950Y0016688D01*
X0327098Y0016727D01*
X0327247Y0016763D01*
X0327397Y0016794D01*
X0327548Y0016822D01*
X0327699Y0016846D01*
X0327852Y0016866D01*
X0328004Y0016882D01*
X0328157Y0016894D01*
X0328310Y0016902D01*
X0328463Y0016906D01*
X0328617Y0016906D01*
X0328770Y0016902D01*
X0328923Y0016894D01*
X0329076Y0016882D01*
X0329228Y0016866D01*
X0329381Y0016846D01*
X0329532Y0016822D01*
X0329683Y0016794D01*
X0329833Y0016763D01*
X0329982Y0016727D01*
X0330130Y0016688D01*
X0330277Y0016645D01*
X0330423Y0016598D01*
X0330568Y0016547D01*
X0330711Y0016492D01*
X0330853Y0016434D01*
X0330993Y0016372D01*
X0331132Y0016307D01*
X0331269Y0016238D01*
X0331404Y0016165D01*
X0331537Y0016089D01*
X0331668Y0016009D01*
X0331797Y0015927D01*
X0331924Y0015840D01*
X0332049Y0015751D01*
X0332171Y0015658D01*
X0332290Y0015562D01*
X0332408Y0015463D01*
X0332522Y0015362D01*
X0332634Y0015257D01*
X0332743Y0015149D01*
X0332849Y0015038D01*
X0332953Y0014925D01*
X0333053Y0014809D01*
X0333151Y0014691D01*
X0333245Y0014570D01*
X0333336Y0014447D01*
X0333424Y0014321D01*
X0333508Y0014193D01*
X0333590Y0014063D01*
X0333667Y0013931D01*
X0333742Y0013797D01*
X0333813Y0013661D01*
X0333880Y0013523D01*
X0333944Y0013383D01*
X0334004Y0013242D01*
X0334060Y0013100D01*
X0334113Y0012956D01*
X0334162Y0012810D01*
X0334207Y0012664D01*
X0334248Y0012516D01*
X0334285Y0012368D01*
X0334319Y0012218D01*
X0334349Y0012067D01*
X0334374Y0011916D01*
X0334396Y0011765D01*
X0334414Y0011612D01*
X0334428Y0011460D01*
X0334438Y0011307D01*
X0334444Y0011153D01*
X0334446Y0011000D01*
X0334444Y0010847D01*
X0334438Y0010693D01*
X0334428Y0010540D01*
X0334414Y0010388D01*
X0334396Y0010235D01*
X0334374Y0010084D01*
X0334349Y0009933D01*
X0334319Y0009782D01*
X0334285Y0009632D01*
X0334248Y0009484D01*
X0334207Y0009336D01*
X0334162Y0009190D01*
X0334113Y0009044D01*
X0334060Y0008900D01*
X0334004Y0008758D01*
X0333944Y0008617D01*
X0333880Y0008477D01*
X0333813Y0008339D01*
X0333742Y0008203D01*
X0333667Y0008069D01*
X0333590Y0007937D01*
X0333508Y0007807D01*
X0333424Y0007679D01*
X0333336Y0007553D01*
X0333245Y0007430D01*
X0333151Y0007309D01*
X0333053Y0007191D01*
X0332953Y0007075D01*
X0332849Y0006962D01*
X0332743Y0006851D01*
X0332634Y0006743D01*
X0332522Y0006638D01*
X0332408Y0006537D01*
X0332290Y0006438D01*
X0332171Y0006342D01*
X0332049Y0006249D01*
X0331924Y0006160D01*
X0331797Y0006073D01*
X0331668Y0005991D01*
X0331537Y0005911D01*
X0331404Y0005835D01*
X0331269Y0005762D01*
X0331132Y0005693D01*
X0330993Y0005628D01*
X0330853Y0005566D01*
X0330711Y0005508D01*
X0330568Y0005453D01*
X0330423Y0005402D01*
X0330277Y0005355D01*
X0330130Y0005312D01*
X0329982Y0005273D01*
X0329833Y0005237D01*
X0329683Y0005206D01*
X0329532Y0005178D01*
X0329381Y0005154D01*
X0329228Y0005134D01*
X0329076Y0005118D01*
X0328923Y0005106D01*
X0328770Y0005098D01*
X0328617Y0005094D01*
X0328463Y0005094D01*
X0328310Y0005098D01*
X0328157Y0005106D01*
X0328004Y0005118D01*
X0327852Y0005134D01*
X0327699Y0005154D01*
X0327548Y0005178D01*
X0327397Y0005206D01*
X0327247Y0005237D01*
X0327098Y0005273D01*
X0326950Y0005312D01*
X0326803Y0005355D01*
X0326657Y0005402D01*
X0326512Y0005453D01*
X0326369Y0005508D01*
X0326227Y0005566D01*
X0326087Y0005628D01*
X0325948Y0005693D01*
X0325811Y0005762D01*
X0325676Y0005835D01*
X0325543Y0005911D01*
X0325412Y0005991D01*
X0325283Y0006073D01*
X0325156Y0006160D01*
X0325031Y0006249D01*
X0324909Y0006342D01*
X0324790Y0006438D01*
X0324672Y0006537D01*
X0324558Y0006638D01*
X0324446Y0006743D01*
X0324337Y0006851D01*
X0324231Y0006962D01*
X0324127Y0007075D01*
X0324027Y0007191D01*
X0323929Y0007309D01*
X0323835Y0007430D01*
X0323744Y0007553D01*
X0323656Y0007679D01*
X0323572Y0007807D01*
X0323490Y0007937D01*
X0323413Y0008069D01*
X0323338Y0008203D01*
X0323267Y0008339D01*
X0323200Y0008477D01*
X0323136Y0008617D01*
X0323076Y0008758D01*
X0323020Y0008900D01*
X0322967Y0009044D01*
X0322918Y0009190D01*
X0322873Y0009336D01*
X0322832Y0009484D01*
X0322795Y0009632D01*
X0322761Y0009782D01*
X0322731Y0009933D01*
X0322706Y0010084D01*
X0322684Y0010235D01*
X0322666Y0010388D01*
X0322652Y0010540D01*
X0322642Y0010693D01*
X0322636Y0010847D01*
X0322634Y0011000D01*
X0322634Y0146000D02*
X0322636Y0146153D01*
X0322642Y0146307D01*
X0322652Y0146460D01*
X0322666Y0146612D01*
X0322684Y0146765D01*
X0322706Y0146916D01*
X0322731Y0147067D01*
X0322761Y0147218D01*
X0322795Y0147368D01*
X0322832Y0147516D01*
X0322873Y0147664D01*
X0322918Y0147810D01*
X0322967Y0147956D01*
X0323020Y0148100D01*
X0323076Y0148242D01*
X0323136Y0148383D01*
X0323200Y0148523D01*
X0323267Y0148661D01*
X0323338Y0148797D01*
X0323413Y0148931D01*
X0323490Y0149063D01*
X0323572Y0149193D01*
X0323656Y0149321D01*
X0323744Y0149447D01*
X0323835Y0149570D01*
X0323929Y0149691D01*
X0324027Y0149809D01*
X0324127Y0149925D01*
X0324231Y0150038D01*
X0324337Y0150149D01*
X0324446Y0150257D01*
X0324558Y0150362D01*
X0324672Y0150463D01*
X0324790Y0150562D01*
X0324909Y0150658D01*
X0325031Y0150751D01*
X0325156Y0150840D01*
X0325283Y0150927D01*
X0325412Y0151009D01*
X0325543Y0151089D01*
X0325676Y0151165D01*
X0325811Y0151238D01*
X0325948Y0151307D01*
X0326087Y0151372D01*
X0326227Y0151434D01*
X0326369Y0151492D01*
X0326512Y0151547D01*
X0326657Y0151598D01*
X0326803Y0151645D01*
X0326950Y0151688D01*
X0327098Y0151727D01*
X0327247Y0151763D01*
X0327397Y0151794D01*
X0327548Y0151822D01*
X0327699Y0151846D01*
X0327852Y0151866D01*
X0328004Y0151882D01*
X0328157Y0151894D01*
X0328310Y0151902D01*
X0328463Y0151906D01*
X0328617Y0151906D01*
X0328770Y0151902D01*
X0328923Y0151894D01*
X0329076Y0151882D01*
X0329228Y0151866D01*
X0329381Y0151846D01*
X0329532Y0151822D01*
X0329683Y0151794D01*
X0329833Y0151763D01*
X0329982Y0151727D01*
X0330130Y0151688D01*
X0330277Y0151645D01*
X0330423Y0151598D01*
X0330568Y0151547D01*
X0330711Y0151492D01*
X0330853Y0151434D01*
X0330993Y0151372D01*
X0331132Y0151307D01*
X0331269Y0151238D01*
X0331404Y0151165D01*
X0331537Y0151089D01*
X0331668Y0151009D01*
X0331797Y0150927D01*
X0331924Y0150840D01*
X0332049Y0150751D01*
X0332171Y0150658D01*
X0332290Y0150562D01*
X0332408Y0150463D01*
X0332522Y0150362D01*
X0332634Y0150257D01*
X0332743Y0150149D01*
X0332849Y0150038D01*
X0332953Y0149925D01*
X0333053Y0149809D01*
X0333151Y0149691D01*
X0333245Y0149570D01*
X0333336Y0149447D01*
X0333424Y0149321D01*
X0333508Y0149193D01*
X0333590Y0149063D01*
X0333667Y0148931D01*
X0333742Y0148797D01*
X0333813Y0148661D01*
X0333880Y0148523D01*
X0333944Y0148383D01*
X0334004Y0148242D01*
X0334060Y0148100D01*
X0334113Y0147956D01*
X0334162Y0147810D01*
X0334207Y0147664D01*
X0334248Y0147516D01*
X0334285Y0147368D01*
X0334319Y0147218D01*
X0334349Y0147067D01*
X0334374Y0146916D01*
X0334396Y0146765D01*
X0334414Y0146612D01*
X0334428Y0146460D01*
X0334438Y0146307D01*
X0334444Y0146153D01*
X0334446Y0146000D01*
X0334444Y0145847D01*
X0334438Y0145693D01*
X0334428Y0145540D01*
X0334414Y0145388D01*
X0334396Y0145235D01*
X0334374Y0145084D01*
X0334349Y0144933D01*
X0334319Y0144782D01*
X0334285Y0144632D01*
X0334248Y0144484D01*
X0334207Y0144336D01*
X0334162Y0144190D01*
X0334113Y0144044D01*
X0334060Y0143900D01*
X0334004Y0143758D01*
X0333944Y0143617D01*
X0333880Y0143477D01*
X0333813Y0143339D01*
X0333742Y0143203D01*
X0333667Y0143069D01*
X0333590Y0142937D01*
X0333508Y0142807D01*
X0333424Y0142679D01*
X0333336Y0142553D01*
X0333245Y0142430D01*
X0333151Y0142309D01*
X0333053Y0142191D01*
X0332953Y0142075D01*
X0332849Y0141962D01*
X0332743Y0141851D01*
X0332634Y0141743D01*
X0332522Y0141638D01*
X0332408Y0141537D01*
X0332290Y0141438D01*
X0332171Y0141342D01*
X0332049Y0141249D01*
X0331924Y0141160D01*
X0331797Y0141073D01*
X0331668Y0140991D01*
X0331537Y0140911D01*
X0331404Y0140835D01*
X0331269Y0140762D01*
X0331132Y0140693D01*
X0330993Y0140628D01*
X0330853Y0140566D01*
X0330711Y0140508D01*
X0330568Y0140453D01*
X0330423Y0140402D01*
X0330277Y0140355D01*
X0330130Y0140312D01*
X0329982Y0140273D01*
X0329833Y0140237D01*
X0329683Y0140206D01*
X0329532Y0140178D01*
X0329381Y0140154D01*
X0329228Y0140134D01*
X0329076Y0140118D01*
X0328923Y0140106D01*
X0328770Y0140098D01*
X0328617Y0140094D01*
X0328463Y0140094D01*
X0328310Y0140098D01*
X0328157Y0140106D01*
X0328004Y0140118D01*
X0327852Y0140134D01*
X0327699Y0140154D01*
X0327548Y0140178D01*
X0327397Y0140206D01*
X0327247Y0140237D01*
X0327098Y0140273D01*
X0326950Y0140312D01*
X0326803Y0140355D01*
X0326657Y0140402D01*
X0326512Y0140453D01*
X0326369Y0140508D01*
X0326227Y0140566D01*
X0326087Y0140628D01*
X0325948Y0140693D01*
X0325811Y0140762D01*
X0325676Y0140835D01*
X0325543Y0140911D01*
X0325412Y0140991D01*
X0325283Y0141073D01*
X0325156Y0141160D01*
X0325031Y0141249D01*
X0324909Y0141342D01*
X0324790Y0141438D01*
X0324672Y0141537D01*
X0324558Y0141638D01*
X0324446Y0141743D01*
X0324337Y0141851D01*
X0324231Y0141962D01*
X0324127Y0142075D01*
X0324027Y0142191D01*
X0323929Y0142309D01*
X0323835Y0142430D01*
X0323744Y0142553D01*
X0323656Y0142679D01*
X0323572Y0142807D01*
X0323490Y0142937D01*
X0323413Y0143069D01*
X0323338Y0143203D01*
X0323267Y0143339D01*
X0323200Y0143477D01*
X0323136Y0143617D01*
X0323076Y0143758D01*
X0323020Y0143900D01*
X0322967Y0144044D01*
X0322918Y0144190D01*
X0322873Y0144336D01*
X0322832Y0144484D01*
X0322795Y0144632D01*
X0322761Y0144782D01*
X0322731Y0144933D01*
X0322706Y0145084D01*
X0322684Y0145235D01*
X0322666Y0145388D01*
X0322652Y0145540D01*
X0322642Y0145693D01*
X0322636Y0145847D01*
X0322634Y0146000D01*
X0322634Y0176000D02*
X0322636Y0176153D01*
X0322642Y0176307D01*
X0322652Y0176460D01*
X0322666Y0176612D01*
X0322684Y0176765D01*
X0322706Y0176916D01*
X0322731Y0177067D01*
X0322761Y0177218D01*
X0322795Y0177368D01*
X0322832Y0177516D01*
X0322873Y0177664D01*
X0322918Y0177810D01*
X0322967Y0177956D01*
X0323020Y0178100D01*
X0323076Y0178242D01*
X0323136Y0178383D01*
X0323200Y0178523D01*
X0323267Y0178661D01*
X0323338Y0178797D01*
X0323413Y0178931D01*
X0323490Y0179063D01*
X0323572Y0179193D01*
X0323656Y0179321D01*
X0323744Y0179447D01*
X0323835Y0179570D01*
X0323929Y0179691D01*
X0324027Y0179809D01*
X0324127Y0179925D01*
X0324231Y0180038D01*
X0324337Y0180149D01*
X0324446Y0180257D01*
X0324558Y0180362D01*
X0324672Y0180463D01*
X0324790Y0180562D01*
X0324909Y0180658D01*
X0325031Y0180751D01*
X0325156Y0180840D01*
X0325283Y0180927D01*
X0325412Y0181009D01*
X0325543Y0181089D01*
X0325676Y0181165D01*
X0325811Y0181238D01*
X0325948Y0181307D01*
X0326087Y0181372D01*
X0326227Y0181434D01*
X0326369Y0181492D01*
X0326512Y0181547D01*
X0326657Y0181598D01*
X0326803Y0181645D01*
X0326950Y0181688D01*
X0327098Y0181727D01*
X0327247Y0181763D01*
X0327397Y0181794D01*
X0327548Y0181822D01*
X0327699Y0181846D01*
X0327852Y0181866D01*
X0328004Y0181882D01*
X0328157Y0181894D01*
X0328310Y0181902D01*
X0328463Y0181906D01*
X0328617Y0181906D01*
X0328770Y0181902D01*
X0328923Y0181894D01*
X0329076Y0181882D01*
X0329228Y0181866D01*
X0329381Y0181846D01*
X0329532Y0181822D01*
X0329683Y0181794D01*
X0329833Y0181763D01*
X0329982Y0181727D01*
X0330130Y0181688D01*
X0330277Y0181645D01*
X0330423Y0181598D01*
X0330568Y0181547D01*
X0330711Y0181492D01*
X0330853Y0181434D01*
X0330993Y0181372D01*
X0331132Y0181307D01*
X0331269Y0181238D01*
X0331404Y0181165D01*
X0331537Y0181089D01*
X0331668Y0181009D01*
X0331797Y0180927D01*
X0331924Y0180840D01*
X0332049Y0180751D01*
X0332171Y0180658D01*
X0332290Y0180562D01*
X0332408Y0180463D01*
X0332522Y0180362D01*
X0332634Y0180257D01*
X0332743Y0180149D01*
X0332849Y0180038D01*
X0332953Y0179925D01*
X0333053Y0179809D01*
X0333151Y0179691D01*
X0333245Y0179570D01*
X0333336Y0179447D01*
X0333424Y0179321D01*
X0333508Y0179193D01*
X0333590Y0179063D01*
X0333667Y0178931D01*
X0333742Y0178797D01*
X0333813Y0178661D01*
X0333880Y0178523D01*
X0333944Y0178383D01*
X0334004Y0178242D01*
X0334060Y0178100D01*
X0334113Y0177956D01*
X0334162Y0177810D01*
X0334207Y0177664D01*
X0334248Y0177516D01*
X0334285Y0177368D01*
X0334319Y0177218D01*
X0334349Y0177067D01*
X0334374Y0176916D01*
X0334396Y0176765D01*
X0334414Y0176612D01*
X0334428Y0176460D01*
X0334438Y0176307D01*
X0334444Y0176153D01*
X0334446Y0176000D01*
X0334444Y0175847D01*
X0334438Y0175693D01*
X0334428Y0175540D01*
X0334414Y0175388D01*
X0334396Y0175235D01*
X0334374Y0175084D01*
X0334349Y0174933D01*
X0334319Y0174782D01*
X0334285Y0174632D01*
X0334248Y0174484D01*
X0334207Y0174336D01*
X0334162Y0174190D01*
X0334113Y0174044D01*
X0334060Y0173900D01*
X0334004Y0173758D01*
X0333944Y0173617D01*
X0333880Y0173477D01*
X0333813Y0173339D01*
X0333742Y0173203D01*
X0333667Y0173069D01*
X0333590Y0172937D01*
X0333508Y0172807D01*
X0333424Y0172679D01*
X0333336Y0172553D01*
X0333245Y0172430D01*
X0333151Y0172309D01*
X0333053Y0172191D01*
X0332953Y0172075D01*
X0332849Y0171962D01*
X0332743Y0171851D01*
X0332634Y0171743D01*
X0332522Y0171638D01*
X0332408Y0171537D01*
X0332290Y0171438D01*
X0332171Y0171342D01*
X0332049Y0171249D01*
X0331924Y0171160D01*
X0331797Y0171073D01*
X0331668Y0170991D01*
X0331537Y0170911D01*
X0331404Y0170835D01*
X0331269Y0170762D01*
X0331132Y0170693D01*
X0330993Y0170628D01*
X0330853Y0170566D01*
X0330711Y0170508D01*
X0330568Y0170453D01*
X0330423Y0170402D01*
X0330277Y0170355D01*
X0330130Y0170312D01*
X0329982Y0170273D01*
X0329833Y0170237D01*
X0329683Y0170206D01*
X0329532Y0170178D01*
X0329381Y0170154D01*
X0329228Y0170134D01*
X0329076Y0170118D01*
X0328923Y0170106D01*
X0328770Y0170098D01*
X0328617Y0170094D01*
X0328463Y0170094D01*
X0328310Y0170098D01*
X0328157Y0170106D01*
X0328004Y0170118D01*
X0327852Y0170134D01*
X0327699Y0170154D01*
X0327548Y0170178D01*
X0327397Y0170206D01*
X0327247Y0170237D01*
X0327098Y0170273D01*
X0326950Y0170312D01*
X0326803Y0170355D01*
X0326657Y0170402D01*
X0326512Y0170453D01*
X0326369Y0170508D01*
X0326227Y0170566D01*
X0326087Y0170628D01*
X0325948Y0170693D01*
X0325811Y0170762D01*
X0325676Y0170835D01*
X0325543Y0170911D01*
X0325412Y0170991D01*
X0325283Y0171073D01*
X0325156Y0171160D01*
X0325031Y0171249D01*
X0324909Y0171342D01*
X0324790Y0171438D01*
X0324672Y0171537D01*
X0324558Y0171638D01*
X0324446Y0171743D01*
X0324337Y0171851D01*
X0324231Y0171962D01*
X0324127Y0172075D01*
X0324027Y0172191D01*
X0323929Y0172309D01*
X0323835Y0172430D01*
X0323744Y0172553D01*
X0323656Y0172679D01*
X0323572Y0172807D01*
X0323490Y0172937D01*
X0323413Y0173069D01*
X0323338Y0173203D01*
X0323267Y0173339D01*
X0323200Y0173477D01*
X0323136Y0173617D01*
X0323076Y0173758D01*
X0323020Y0173900D01*
X0322967Y0174044D01*
X0322918Y0174190D01*
X0322873Y0174336D01*
X0322832Y0174484D01*
X0322795Y0174632D01*
X0322761Y0174782D01*
X0322731Y0174933D01*
X0322706Y0175084D01*
X0322684Y0175235D01*
X0322666Y0175388D01*
X0322652Y0175540D01*
X0322642Y0175693D01*
X0322636Y0175847D01*
X0322634Y0176000D01*
X0322634Y0226000D02*
X0322636Y0226153D01*
X0322642Y0226307D01*
X0322652Y0226460D01*
X0322666Y0226612D01*
X0322684Y0226765D01*
X0322706Y0226916D01*
X0322731Y0227067D01*
X0322761Y0227218D01*
X0322795Y0227368D01*
X0322832Y0227516D01*
X0322873Y0227664D01*
X0322918Y0227810D01*
X0322967Y0227956D01*
X0323020Y0228100D01*
X0323076Y0228242D01*
X0323136Y0228383D01*
X0323200Y0228523D01*
X0323267Y0228661D01*
X0323338Y0228797D01*
X0323413Y0228931D01*
X0323490Y0229063D01*
X0323572Y0229193D01*
X0323656Y0229321D01*
X0323744Y0229447D01*
X0323835Y0229570D01*
X0323929Y0229691D01*
X0324027Y0229809D01*
X0324127Y0229925D01*
X0324231Y0230038D01*
X0324337Y0230149D01*
X0324446Y0230257D01*
X0324558Y0230362D01*
X0324672Y0230463D01*
X0324790Y0230562D01*
X0324909Y0230658D01*
X0325031Y0230751D01*
X0325156Y0230840D01*
X0325283Y0230927D01*
X0325412Y0231009D01*
X0325543Y0231089D01*
X0325676Y0231165D01*
X0325811Y0231238D01*
X0325948Y0231307D01*
X0326087Y0231372D01*
X0326227Y0231434D01*
X0326369Y0231492D01*
X0326512Y0231547D01*
X0326657Y0231598D01*
X0326803Y0231645D01*
X0326950Y0231688D01*
X0327098Y0231727D01*
X0327247Y0231763D01*
X0327397Y0231794D01*
X0327548Y0231822D01*
X0327699Y0231846D01*
X0327852Y0231866D01*
X0328004Y0231882D01*
X0328157Y0231894D01*
X0328310Y0231902D01*
X0328463Y0231906D01*
X0328617Y0231906D01*
X0328770Y0231902D01*
X0328923Y0231894D01*
X0329076Y0231882D01*
X0329228Y0231866D01*
X0329381Y0231846D01*
X0329532Y0231822D01*
X0329683Y0231794D01*
X0329833Y0231763D01*
X0329982Y0231727D01*
X0330130Y0231688D01*
X0330277Y0231645D01*
X0330423Y0231598D01*
X0330568Y0231547D01*
X0330711Y0231492D01*
X0330853Y0231434D01*
X0330993Y0231372D01*
X0331132Y0231307D01*
X0331269Y0231238D01*
X0331404Y0231165D01*
X0331537Y0231089D01*
X0331668Y0231009D01*
X0331797Y0230927D01*
X0331924Y0230840D01*
X0332049Y0230751D01*
X0332171Y0230658D01*
X0332290Y0230562D01*
X0332408Y0230463D01*
X0332522Y0230362D01*
X0332634Y0230257D01*
X0332743Y0230149D01*
X0332849Y0230038D01*
X0332953Y0229925D01*
X0333053Y0229809D01*
X0333151Y0229691D01*
X0333245Y0229570D01*
X0333336Y0229447D01*
X0333424Y0229321D01*
X0333508Y0229193D01*
X0333590Y0229063D01*
X0333667Y0228931D01*
X0333742Y0228797D01*
X0333813Y0228661D01*
X0333880Y0228523D01*
X0333944Y0228383D01*
X0334004Y0228242D01*
X0334060Y0228100D01*
X0334113Y0227956D01*
X0334162Y0227810D01*
X0334207Y0227664D01*
X0334248Y0227516D01*
X0334285Y0227368D01*
X0334319Y0227218D01*
X0334349Y0227067D01*
X0334374Y0226916D01*
X0334396Y0226765D01*
X0334414Y0226612D01*
X0334428Y0226460D01*
X0334438Y0226307D01*
X0334444Y0226153D01*
X0334446Y0226000D01*
X0334444Y0225847D01*
X0334438Y0225693D01*
X0334428Y0225540D01*
X0334414Y0225388D01*
X0334396Y0225235D01*
X0334374Y0225084D01*
X0334349Y0224933D01*
X0334319Y0224782D01*
X0334285Y0224632D01*
X0334248Y0224484D01*
X0334207Y0224336D01*
X0334162Y0224190D01*
X0334113Y0224044D01*
X0334060Y0223900D01*
X0334004Y0223758D01*
X0333944Y0223617D01*
X0333880Y0223477D01*
X0333813Y0223339D01*
X0333742Y0223203D01*
X0333667Y0223069D01*
X0333590Y0222937D01*
X0333508Y0222807D01*
X0333424Y0222679D01*
X0333336Y0222553D01*
X0333245Y0222430D01*
X0333151Y0222309D01*
X0333053Y0222191D01*
X0332953Y0222075D01*
X0332849Y0221962D01*
X0332743Y0221851D01*
X0332634Y0221743D01*
X0332522Y0221638D01*
X0332408Y0221537D01*
X0332290Y0221438D01*
X0332171Y0221342D01*
X0332049Y0221249D01*
X0331924Y0221160D01*
X0331797Y0221073D01*
X0331668Y0220991D01*
X0331537Y0220911D01*
X0331404Y0220835D01*
X0331269Y0220762D01*
X0331132Y0220693D01*
X0330993Y0220628D01*
X0330853Y0220566D01*
X0330711Y0220508D01*
X0330568Y0220453D01*
X0330423Y0220402D01*
X0330277Y0220355D01*
X0330130Y0220312D01*
X0329982Y0220273D01*
X0329833Y0220237D01*
X0329683Y0220206D01*
X0329532Y0220178D01*
X0329381Y0220154D01*
X0329228Y0220134D01*
X0329076Y0220118D01*
X0328923Y0220106D01*
X0328770Y0220098D01*
X0328617Y0220094D01*
X0328463Y0220094D01*
X0328310Y0220098D01*
X0328157Y0220106D01*
X0328004Y0220118D01*
X0327852Y0220134D01*
X0327699Y0220154D01*
X0327548Y0220178D01*
X0327397Y0220206D01*
X0327247Y0220237D01*
X0327098Y0220273D01*
X0326950Y0220312D01*
X0326803Y0220355D01*
X0326657Y0220402D01*
X0326512Y0220453D01*
X0326369Y0220508D01*
X0326227Y0220566D01*
X0326087Y0220628D01*
X0325948Y0220693D01*
X0325811Y0220762D01*
X0325676Y0220835D01*
X0325543Y0220911D01*
X0325412Y0220991D01*
X0325283Y0221073D01*
X0325156Y0221160D01*
X0325031Y0221249D01*
X0324909Y0221342D01*
X0324790Y0221438D01*
X0324672Y0221537D01*
X0324558Y0221638D01*
X0324446Y0221743D01*
X0324337Y0221851D01*
X0324231Y0221962D01*
X0324127Y0222075D01*
X0324027Y0222191D01*
X0323929Y0222309D01*
X0323835Y0222430D01*
X0323744Y0222553D01*
X0323656Y0222679D01*
X0323572Y0222807D01*
X0323490Y0222937D01*
X0323413Y0223069D01*
X0323338Y0223203D01*
X0323267Y0223339D01*
X0323200Y0223477D01*
X0323136Y0223617D01*
X0323076Y0223758D01*
X0323020Y0223900D01*
X0322967Y0224044D01*
X0322918Y0224190D01*
X0322873Y0224336D01*
X0322832Y0224484D01*
X0322795Y0224632D01*
X0322761Y0224782D01*
X0322731Y0224933D01*
X0322706Y0225084D01*
X0322684Y0225235D01*
X0322666Y0225388D01*
X0322652Y0225540D01*
X0322642Y0225693D01*
X0322636Y0225847D01*
X0322634Y0226000D01*
D11*
X0157398Y0057143D02*
X0157398Y0055608D01*
X0157398Y0052539D02*
X0157398Y0046400D01*
X0158932Y0046400D02*
X0155863Y0046400D01*
X0151259Y0047935D02*
X0149725Y0046400D01*
X0151259Y0047935D02*
X0151259Y0054073D01*
X0149725Y0052539D02*
X0152794Y0052539D01*
X0157398Y0052539D02*
X0158932Y0052539D01*
X0162002Y0052539D02*
X0166606Y0052539D01*
X0168140Y0051004D01*
X0168140Y0047935D01*
X0166606Y0046400D01*
X0162002Y0046400D01*
X0162002Y0044865D02*
X0162002Y0052539D01*
X0162002Y0044865D02*
X0163536Y0043331D01*
X0165071Y0043331D01*
X0146655Y0046400D02*
X0146655Y0055608D01*
X0145121Y0052539D02*
X0142051Y0052539D01*
X0140517Y0051004D01*
X0140517Y0046400D01*
X0137447Y0047935D02*
X0135913Y0046400D01*
X0131309Y0046400D01*
X0131309Y0052539D01*
X0128240Y0052539D02*
X0123636Y0052539D01*
X0122101Y0051004D01*
X0122101Y0047935D01*
X0123636Y0046400D01*
X0128240Y0046400D01*
X0128240Y0055608D01*
X0137447Y0052539D02*
X0137447Y0047935D01*
X0145121Y0052539D02*
X0146655Y0051004D01*
X0119032Y0047935D02*
X0119032Y0046400D01*
X0117497Y0046400D01*
X0117497Y0047935D01*
X0119032Y0047935D01*
X0114428Y0047935D02*
X0112893Y0046400D01*
X0108289Y0046400D01*
X0105220Y0047935D02*
X0103685Y0046400D01*
X0100616Y0046400D01*
X0099081Y0047935D01*
X0099081Y0051004D01*
X0100616Y0052539D01*
X0103685Y0052539D01*
X0105220Y0051004D01*
X0105220Y0047935D01*
X0108289Y0052539D02*
X0112893Y0052539D01*
X0114428Y0051004D01*
X0114428Y0047935D01*
X0096012Y0046400D02*
X0096012Y0052539D01*
X0094477Y0052539D01*
X0092943Y0051004D01*
X0091408Y0052539D01*
X0089874Y0051004D01*
X0089874Y0046400D01*
X0092943Y0046400D02*
X0092943Y0051004D01*
X0086804Y0046400D02*
X0080666Y0055608D01*
X0077596Y0052539D02*
X0077596Y0047935D01*
X0076062Y0046400D01*
X0074527Y0047935D01*
X0072992Y0046400D01*
X0071458Y0047935D01*
X0071458Y0052539D01*
X0066854Y0052539D02*
X0063785Y0052539D01*
X0062250Y0051004D01*
X0062250Y0046400D01*
X0066854Y0046400D01*
X0068389Y0047935D01*
X0066854Y0049469D01*
X0062250Y0049469D01*
X0059181Y0051004D02*
X0057646Y0052539D01*
X0053042Y0052539D01*
X0049973Y0051004D02*
X0048438Y0052539D01*
X0043834Y0052539D01*
X0040765Y0051004D02*
X0037696Y0051004D01*
X0039230Y0054073D02*
X0037696Y0055608D01*
X0039230Y0054073D02*
X0039230Y0046400D01*
X0034626Y0046400D02*
X0031557Y0046400D01*
X0033092Y0046400D02*
X0033092Y0052539D01*
X0034626Y0052539D01*
X0033092Y0055608D02*
X0033092Y0057143D01*
X0028488Y0055608D02*
X0026953Y0055608D01*
X0026953Y0046400D01*
X0025419Y0046400D02*
X0028488Y0046400D01*
X0022349Y0047935D02*
X0020815Y0046400D01*
X0016211Y0046400D01*
X0016211Y0051004D01*
X0017745Y0052539D01*
X0020815Y0052539D01*
X0020815Y0049469D02*
X0016211Y0049469D01*
X0013141Y0046400D02*
X0007003Y0055608D01*
X0020815Y0049469D02*
X0022349Y0047935D01*
X0043834Y0047935D02*
X0045369Y0049469D01*
X0048438Y0049469D01*
X0049973Y0051004D01*
X0053042Y0047935D02*
X0054577Y0049469D01*
X0057646Y0049469D01*
X0059181Y0051004D01*
X0059181Y0046400D02*
X0054577Y0046400D01*
X0053042Y0047935D01*
X0049973Y0046400D02*
X0045369Y0046400D01*
X0043834Y0047935D01*
D12*
X0076079Y0016455D02*
X0076079Y0010050D01*
X0079282Y0010050D01*
X0080349Y0011118D01*
X0080349Y0013253D01*
X0079282Y0014320D01*
X0076079Y0014320D01*
X0082525Y0013253D02*
X0082525Y0010050D01*
X0082525Y0013253D02*
X0083592Y0014320D01*
X0086795Y0014320D01*
X0086795Y0010050D01*
X0088970Y0011118D02*
X0088970Y0013253D01*
X0091105Y0013253D01*
X0088970Y0015388D02*
X0090038Y0016455D01*
X0092173Y0016455D01*
X0093240Y0015388D01*
X0093240Y0011118D01*
X0092173Y0010050D01*
X0090038Y0010050D01*
X0088970Y0011118D01*
X0092147Y0070050D02*
X0091079Y0071118D01*
X0091079Y0072185D01*
X0092147Y0073253D01*
X0093214Y0073253D01*
X0092147Y0073253D02*
X0091079Y0074320D01*
X0091079Y0075388D01*
X0092147Y0076455D01*
X0094282Y0076455D01*
X0095349Y0075388D01*
X0097525Y0074320D02*
X0099660Y0070050D01*
X0101795Y0074320D01*
X0103970Y0074320D02*
X0105038Y0073253D01*
X0103970Y0072185D01*
X0103970Y0071118D01*
X0105038Y0070050D01*
X0107173Y0070050D01*
X0108240Y0071118D01*
X0106105Y0073253D02*
X0105038Y0073253D01*
X0103970Y0074320D02*
X0103970Y0075388D01*
X0105038Y0076455D01*
X0107173Y0076455D01*
X0108240Y0075388D01*
X0095349Y0071118D02*
X0094282Y0070050D01*
X0092147Y0070050D01*
X0237525Y0021820D02*
X0241795Y0017550D01*
X0246105Y0017550D02*
X0246105Y0023955D01*
X0248240Y0023955D02*
X0243970Y0023955D01*
X0241795Y0021820D02*
X0237525Y0017550D01*
X0289829Y0017550D02*
X0293032Y0017550D01*
X0294099Y0018618D01*
X0294099Y0020753D01*
X0293032Y0021820D01*
X0289829Y0021820D01*
X0289829Y0023955D02*
X0289829Y0017550D01*
X0296275Y0017550D02*
X0296275Y0020753D01*
X0297342Y0021820D01*
X0300545Y0021820D01*
X0300545Y0017550D01*
X0302720Y0018618D02*
X0302720Y0020753D01*
X0304855Y0020753D01*
X0302720Y0022888D02*
X0303788Y0023955D01*
X0305923Y0023955D01*
X0306990Y0022888D01*
X0306990Y0018618D01*
X0305923Y0017550D01*
X0303788Y0017550D01*
X0302720Y0018618D01*
D13*
X0303540Y0026000D02*
X0298540Y0026000D01*
X0298540Y0066000D01*
X0298540Y0071000D01*
X0303540Y0071000D01*
X0303540Y0026000D01*
X0298540Y0026000D02*
X0288540Y0026000D01*
X0288540Y0036000D01*
X0278540Y0036000D01*
X0278540Y0066000D01*
X0278540Y0071000D01*
X0298540Y0071000D01*
X0298540Y0066000D02*
X0278540Y0066000D01*
X0278540Y0036000D02*
X0278540Y0026000D01*
X0288540Y0026000D01*
X0289092Y0175094D02*
X0247989Y0175094D01*
X0247989Y0226906D01*
X0289092Y0226906D01*
X0289092Y0175094D01*
X0298540Y0176000D02*
X0298540Y0186000D01*
X0258540Y0186000D01*
X0258540Y0176000D01*
X0298540Y0176000D01*
X0288540Y0206000D02*
X0288540Y0226000D01*
X0318540Y0226000D01*
X0318540Y0206000D01*
X0288540Y0206000D01*
X0229092Y0226906D02*
X0229092Y0175094D01*
X0187989Y0175094D01*
X0187989Y0226906D01*
X0229092Y0226906D01*
X0178540Y0226000D02*
X0178540Y0216000D01*
X0168540Y0216000D01*
X0168540Y0226000D01*
X0178540Y0226000D01*
X0168540Y0226000D02*
X0158540Y0226000D01*
X0153540Y0226000D01*
X0153540Y0181000D01*
X0158540Y0181000D01*
X0158540Y0186000D01*
X0178540Y0186000D01*
X0178540Y0181000D01*
X0158540Y0181000D01*
X0158540Y0186000D02*
X0158540Y0226000D01*
X0178540Y0216000D02*
X0178540Y0186000D01*
D14*
X0190490Y0186901D02*
X0190490Y0187869D01*
X0190974Y0188352D01*
X0191942Y0188352D01*
X0191942Y0187385D01*
X0192909Y0188352D02*
X0193393Y0187869D01*
X0193393Y0186901D01*
X0192909Y0186417D01*
X0190974Y0186417D01*
X0190490Y0186901D01*
X0192909Y0189364D02*
X0191942Y0190331D01*
X0190490Y0190331D01*
X0191942Y0190331D02*
X0192909Y0191299D01*
X0193393Y0191299D01*
X0191942Y0192310D02*
X0191942Y0194245D01*
X0191942Y0195257D02*
X0191942Y0197192D01*
X0192425Y0198203D02*
X0191942Y0198687D01*
X0191942Y0200138D01*
X0192909Y0200138D02*
X0193393Y0199655D01*
X0193393Y0198687D01*
X0192909Y0198203D01*
X0192425Y0198203D01*
X0190974Y0198203D02*
X0190490Y0198687D01*
X0190490Y0199655D01*
X0190974Y0200138D01*
X0192909Y0200138D01*
X0193393Y0196708D02*
X0191942Y0195257D01*
X0190490Y0196708D02*
X0193393Y0196708D01*
X0193393Y0189364D02*
X0192909Y0189364D01*
X0205490Y0190815D02*
X0208393Y0190815D01*
X0206942Y0189364D01*
X0206942Y0191299D01*
X0205974Y0192310D02*
X0207909Y0192310D01*
X0208393Y0192794D01*
X0208393Y0193762D01*
X0207909Y0194245D01*
X0205974Y0192310D01*
X0205490Y0192794D01*
X0205490Y0193762D01*
X0205974Y0194245D01*
X0207909Y0194245D01*
X0207909Y0195257D02*
X0205974Y0195257D01*
X0207909Y0197192D01*
X0205974Y0197192D01*
X0205490Y0196708D01*
X0205490Y0195741D01*
X0205974Y0195257D01*
X0207909Y0195257D02*
X0208393Y0195741D01*
X0208393Y0196708D01*
X0207909Y0197192D01*
X0207909Y0198203D02*
X0207425Y0198203D01*
X0206942Y0198687D01*
X0206942Y0200138D01*
X0207909Y0200138D02*
X0205974Y0200138D01*
X0205490Y0199655D01*
X0205490Y0198687D01*
X0205974Y0198203D01*
X0207909Y0198203D02*
X0208393Y0198687D01*
X0208393Y0199655D01*
X0207909Y0200138D01*
X0206942Y0188352D02*
X0206942Y0186417D01*
X0208393Y0187869D01*
X0205490Y0187869D01*
X0205490Y0185406D02*
X0208393Y0183471D01*
X0207425Y0182459D02*
X0205490Y0182459D01*
X0205490Y0183471D02*
X0208393Y0185406D01*
X0207425Y0182459D02*
X0208393Y0181492D01*
X0207425Y0180524D01*
X0205490Y0180524D01*
X0205490Y0179513D02*
X0208393Y0179513D01*
X0207425Y0178545D01*
X0208393Y0177578D01*
X0205490Y0177578D01*
X0206942Y0180524D02*
X0206942Y0182459D01*
X0157393Y0192983D02*
X0156425Y0192015D01*
X0154490Y0192015D01*
X0155942Y0192015D02*
X0155942Y0193950D01*
X0156425Y0193950D02*
X0154490Y0193950D01*
X0154490Y0194962D02*
X0156425Y0194962D01*
X0156425Y0196413D01*
X0155942Y0196897D01*
X0154490Y0196897D01*
X0154974Y0198392D02*
X0154490Y0198876D01*
X0154974Y0198392D02*
X0156909Y0198392D01*
X0156425Y0197909D02*
X0156425Y0198876D01*
X0154974Y0199873D02*
X0154974Y0200357D01*
X0154490Y0200357D01*
X0154490Y0199873D01*
X0154974Y0199873D01*
X0154974Y0201346D02*
X0154490Y0201830D01*
X0154490Y0202797D01*
X0154974Y0203281D01*
X0155458Y0203281D01*
X0155942Y0202797D01*
X0155942Y0201830D01*
X0156425Y0201346D01*
X0156909Y0201346D01*
X0157393Y0201830D01*
X0157393Y0202797D01*
X0156909Y0203281D01*
X0156425Y0204293D02*
X0156425Y0204776D01*
X0154490Y0204776D01*
X0154490Y0204293D02*
X0154490Y0205260D01*
X0154974Y0206257D02*
X0155942Y0206257D01*
X0156425Y0206741D01*
X0156425Y0208192D01*
X0157393Y0208192D02*
X0154490Y0208192D01*
X0154490Y0206741D01*
X0154974Y0206257D01*
X0157393Y0204776D02*
X0157877Y0204776D01*
X0155942Y0209203D02*
X0156425Y0209687D01*
X0156425Y0210655D01*
X0155942Y0211138D01*
X0155458Y0211138D01*
X0155458Y0209203D01*
X0154974Y0209203D02*
X0155942Y0209203D01*
X0154974Y0209203D02*
X0154490Y0209687D01*
X0154490Y0210655D01*
X0156425Y0193950D02*
X0157393Y0192983D01*
X0270490Y0192310D02*
X0273393Y0192310D01*
X0272425Y0193278D01*
X0273393Y0194245D01*
X0270490Y0194245D01*
X0270490Y0195257D02*
X0270490Y0197192D01*
X0270490Y0198203D02*
X0273393Y0198203D01*
X0273393Y0199655D01*
X0272909Y0200138D01*
X0271942Y0200138D01*
X0271458Y0199655D01*
X0271458Y0198203D01*
X0271942Y0196224D02*
X0271942Y0195257D01*
X0273393Y0195257D02*
X0270490Y0195257D01*
X0273393Y0195257D02*
X0273393Y0197192D01*
X0280490Y0196708D02*
X0280490Y0195741D01*
X0280974Y0195257D01*
X0281458Y0195257D01*
X0281942Y0195741D01*
X0281942Y0196708D01*
X0281458Y0197192D01*
X0280974Y0197192D01*
X0280490Y0196708D01*
X0281942Y0196708D02*
X0282425Y0197192D01*
X0282909Y0197192D01*
X0283393Y0196708D01*
X0283393Y0195741D01*
X0282909Y0195257D01*
X0282425Y0195257D01*
X0281942Y0195741D01*
X0282425Y0194245D02*
X0280490Y0192310D01*
X0280490Y0194245D01*
X0282425Y0194245D02*
X0282909Y0194245D01*
X0283393Y0193762D01*
X0283393Y0192794D01*
X0282909Y0192310D01*
X0283393Y0191299D02*
X0283393Y0189364D01*
X0280490Y0189364D01*
X0280490Y0191299D01*
X0281942Y0190331D02*
X0281942Y0189364D01*
X0283393Y0188352D02*
X0280490Y0188352D01*
X0280490Y0186417D02*
X0283393Y0186417D01*
X0282425Y0187385D01*
X0283393Y0188352D01*
X0282909Y0185406D02*
X0282425Y0185406D01*
X0281942Y0184922D01*
X0281942Y0183471D01*
X0283393Y0183471D02*
X0283393Y0184922D01*
X0282909Y0185406D01*
X0281942Y0184922D02*
X0281458Y0185406D01*
X0280974Y0185406D01*
X0280490Y0184922D01*
X0280490Y0183471D01*
X0283393Y0183471D01*
X0273393Y0183471D02*
X0272909Y0183471D01*
X0271942Y0184438D01*
X0270490Y0184438D01*
X0271942Y0184438D02*
X0272909Y0185406D01*
X0273393Y0185406D01*
X0271942Y0186417D02*
X0271942Y0188352D01*
X0271942Y0189364D02*
X0271942Y0190815D01*
X0271458Y0191299D01*
X0270974Y0191299D01*
X0270490Y0190815D01*
X0270490Y0189364D01*
X0273393Y0189364D01*
X0273393Y0190815D01*
X0272909Y0191299D01*
X0272425Y0191299D01*
X0271942Y0190815D01*
X0280490Y0198687D02*
X0280974Y0198203D01*
X0282909Y0200138D01*
X0280974Y0200138D01*
X0280490Y0199655D01*
X0280490Y0198687D01*
X0280974Y0198203D02*
X0282909Y0198203D01*
X0283393Y0198687D01*
X0283393Y0199655D01*
X0282909Y0200138D01*
X0272909Y0182459D02*
X0273393Y0181976D01*
X0273393Y0181008D01*
X0272909Y0180524D01*
X0270974Y0180524D01*
X0270490Y0181008D01*
X0270490Y0181976D01*
X0270974Y0182459D01*
X0271942Y0182459D01*
X0271942Y0181492D01*
X0300658Y0059273D02*
X0300658Y0057338D01*
X0301142Y0057338D02*
X0301625Y0057822D01*
X0301625Y0058789D01*
X0301142Y0059273D01*
X0300658Y0059273D01*
X0299690Y0058789D02*
X0299690Y0057822D01*
X0300174Y0057338D01*
X0301142Y0057338D01*
X0301625Y0056326D02*
X0301625Y0054875D01*
X0301142Y0054391D01*
X0300174Y0054391D01*
X0299690Y0054875D01*
X0299690Y0056326D01*
X0302593Y0056326D01*
X0302593Y0052911D02*
X0303077Y0052911D01*
X0301625Y0052911D02*
X0299690Y0052911D01*
X0299690Y0052427D02*
X0299690Y0053395D01*
X0301625Y0052911D02*
X0301625Y0052427D01*
X0302109Y0051416D02*
X0302593Y0050932D01*
X0302593Y0049964D01*
X0302109Y0049481D01*
X0301625Y0049481D01*
X0301142Y0049964D01*
X0301142Y0050932D01*
X0300658Y0051416D01*
X0300174Y0051416D01*
X0299690Y0050932D01*
X0299690Y0049964D01*
X0300174Y0049481D01*
X0300174Y0048491D02*
X0299690Y0048491D01*
X0299690Y0048007D01*
X0300174Y0048007D01*
X0300174Y0048491D01*
X0299690Y0047011D02*
X0300174Y0046527D01*
X0302109Y0046527D01*
X0301625Y0046043D02*
X0301625Y0047011D01*
X0301142Y0045031D02*
X0299690Y0045031D01*
X0301142Y0045031D02*
X0301625Y0044548D01*
X0301625Y0043097D01*
X0299690Y0043097D01*
X0299690Y0042085D02*
X0301625Y0042085D01*
X0302593Y0041117D01*
X0301625Y0040150D01*
X0299690Y0040150D01*
X0301142Y0040150D02*
X0301142Y0042085D01*
D15*
X0301539Y0067700D02*
X0301539Y0069168D01*
X0300438Y0069168D01*
X0300071Y0068801D01*
X0300071Y0067700D01*
X0299329Y0067700D02*
X0299329Y0069902D01*
X0298228Y0069902D01*
X0297861Y0069535D01*
X0297861Y0068801D01*
X0298228Y0068434D01*
X0299329Y0068434D01*
X0298595Y0068434D02*
X0297861Y0067700D01*
X0297119Y0067700D02*
X0297119Y0069902D01*
X0295652Y0069902D01*
X0296386Y0068801D02*
X0297119Y0068801D01*
X0292700Y0069535D02*
X0292333Y0069902D01*
X0291599Y0069902D01*
X0291232Y0069535D01*
X0291232Y0069168D01*
X0292700Y0067700D01*
X0291232Y0067700D01*
X0290490Y0068801D02*
X0289022Y0068801D01*
X0289389Y0069902D02*
X0290490Y0068801D01*
X0289389Y0067700D02*
X0289389Y0069902D01*
X0288280Y0069902D02*
X0288280Y0067700D01*
X0286812Y0067700D01*
X0286070Y0068067D02*
X0284602Y0069535D01*
X0284602Y0068067D01*
X0284969Y0067700D01*
X0285703Y0067700D01*
X0286070Y0068067D01*
X0286070Y0069535D01*
X0285703Y0069902D01*
X0284969Y0069902D01*
X0284602Y0069535D01*
X0283860Y0069168D02*
X0283126Y0069902D01*
X0283126Y0067700D01*
X0283860Y0067700D02*
X0282392Y0067700D01*
X0281650Y0068801D02*
X0280182Y0068801D01*
X0280916Y0069535D02*
X0280916Y0068067D01*
X0280942Y0176390D02*
X0279841Y0176390D01*
X0280208Y0177124D01*
X0280208Y0177491D01*
X0279841Y0177858D01*
X0279107Y0177858D01*
X0278740Y0177491D01*
X0278740Y0176757D01*
X0279107Y0176390D01*
X0280942Y0176390D02*
X0280942Y0177858D01*
X0288740Y0177491D02*
X0289107Y0177858D01*
X0289841Y0177858D01*
X0289841Y0177124D01*
X0289107Y0176390D02*
X0288740Y0176757D01*
X0288740Y0177491D01*
X0289107Y0176390D02*
X0290575Y0176390D01*
X0290942Y0176757D01*
X0290942Y0177491D01*
X0290575Y0177858D01*
X0270942Y0177491D02*
X0270575Y0177858D01*
X0269841Y0177858D01*
X0269474Y0177491D01*
X0269474Y0176390D01*
X0268740Y0176390D02*
X0270942Y0176390D01*
X0270942Y0177491D01*
X0269474Y0177124D02*
X0268740Y0177858D01*
X0263442Y0177858D02*
X0263442Y0176390D01*
X0263442Y0177124D02*
X0261240Y0177124D01*
X0177440Y0182100D02*
X0177440Y0183568D01*
X0176339Y0183568D01*
X0175972Y0183201D01*
X0175972Y0182100D01*
X0175230Y0182100D02*
X0175230Y0184302D01*
X0174130Y0184302D01*
X0173763Y0183935D01*
X0173763Y0183201D01*
X0174130Y0182834D01*
X0175230Y0182834D01*
X0174497Y0182834D02*
X0173763Y0182100D01*
X0173021Y0182100D02*
X0173021Y0184302D01*
X0171553Y0184302D01*
X0172287Y0183201D02*
X0173021Y0183201D01*
X0168601Y0183935D02*
X0168234Y0184302D01*
X0167500Y0184302D01*
X0167133Y0183935D01*
X0167133Y0183568D01*
X0168601Y0182100D01*
X0167133Y0182100D01*
X0166391Y0183201D02*
X0164923Y0183201D01*
X0165290Y0184302D02*
X0166391Y0183201D01*
X0165290Y0182100D02*
X0165290Y0184302D01*
X0164181Y0184302D02*
X0164181Y0182100D01*
X0162713Y0182100D01*
X0161971Y0182467D02*
X0160503Y0183935D01*
X0160503Y0182467D01*
X0160870Y0182100D01*
X0161604Y0182100D01*
X0161971Y0182467D01*
X0161971Y0183935D01*
X0161604Y0184302D01*
X0160870Y0184302D01*
X0160503Y0183935D01*
X0159761Y0183568D02*
X0159027Y0184302D01*
X0159027Y0182100D01*
X0159761Y0182100D02*
X0158293Y0182100D01*
X0157551Y0183201D02*
X0156084Y0183201D01*
X0156817Y0183935D02*
X0156817Y0182467D01*
D16*
X0191240Y0205457D02*
X0192775Y0206992D01*
X0195844Y0206992D01*
X0195844Y0208527D02*
X0195844Y0210061D01*
X0195844Y0209294D02*
X0191240Y0209294D01*
X0191240Y0208527D02*
X0191240Y0210061D01*
X0191240Y0211596D02*
X0195844Y0211596D01*
X0191240Y0214665D01*
X0195844Y0214665D01*
X0201240Y0213898D02*
X0201240Y0211596D01*
X0205844Y0211596D01*
X0205844Y0213898D01*
X0205077Y0214665D01*
X0202008Y0214665D01*
X0201240Y0213898D01*
X0201240Y0210061D02*
X0205844Y0210061D01*
X0205844Y0206992D02*
X0201240Y0206992D01*
X0202008Y0205457D02*
X0203542Y0205457D01*
X0203542Y0203923D01*
X0202008Y0205457D02*
X0201240Y0204690D01*
X0201240Y0203156D01*
X0202008Y0202388D01*
X0205077Y0202388D01*
X0205844Y0203156D01*
X0205844Y0204690D01*
X0205077Y0205457D01*
X0205844Y0206992D02*
X0201240Y0210061D01*
X0195844Y0203923D02*
X0192775Y0203923D01*
X0191240Y0205457D01*
X0211240Y0204690D02*
X0211240Y0203156D01*
X0212008Y0202388D01*
X0213542Y0203156D02*
X0213542Y0204690D01*
X0212775Y0205457D01*
X0212008Y0205457D01*
X0211240Y0204690D01*
X0212008Y0206992D02*
X0211240Y0207759D01*
X0211240Y0209294D01*
X0212008Y0210061D01*
X0211240Y0211596D02*
X0211240Y0214665D01*
X0211240Y0211596D02*
X0215844Y0211596D01*
X0215077Y0210061D02*
X0215844Y0209294D01*
X0215844Y0207759D01*
X0215077Y0206992D01*
X0212008Y0206992D01*
X0215077Y0205457D02*
X0215844Y0204690D01*
X0215844Y0203156D01*
X0215077Y0202388D01*
X0214310Y0202388D01*
X0213542Y0203156D01*
X0221240Y0203156D02*
X0222008Y0202388D01*
X0221240Y0203156D02*
X0221240Y0204690D01*
X0222008Y0205457D01*
X0222775Y0205457D01*
X0223542Y0204690D01*
X0223542Y0203156D01*
X0224310Y0202388D01*
X0225077Y0202388D01*
X0225844Y0203156D01*
X0225844Y0204690D01*
X0225077Y0205457D01*
X0225844Y0206992D02*
X0221240Y0206992D01*
X0221240Y0209294D01*
X0222008Y0210061D01*
X0225077Y0210061D01*
X0225844Y0209294D01*
X0225844Y0206992D01*
X0224310Y0211596D02*
X0221240Y0211596D01*
X0223542Y0211596D02*
X0223542Y0214665D01*
X0224310Y0214665D02*
X0221240Y0214665D01*
X0224310Y0214665D02*
X0225844Y0213131D01*
X0224310Y0211596D01*
X0225844Y0194665D02*
X0225844Y0191596D01*
X0225844Y0190061D02*
X0221240Y0190061D01*
X0225844Y0186992D01*
X0221240Y0186992D01*
X0221240Y0185457D02*
X0221240Y0183923D01*
X0221240Y0184690D02*
X0225844Y0184690D01*
X0225844Y0183923D02*
X0225844Y0185457D01*
X0225844Y0193131D02*
X0221240Y0193131D01*
X0215844Y0193898D02*
X0215077Y0194665D01*
X0212008Y0191596D01*
X0211240Y0192363D01*
X0211240Y0193898D01*
X0212008Y0194665D01*
X0215077Y0194665D01*
X0215844Y0193898D02*
X0215844Y0192363D01*
X0215077Y0191596D01*
X0212008Y0191596D01*
X0211240Y0190061D02*
X0214310Y0190061D01*
X0215844Y0188527D01*
X0214310Y0186992D01*
X0211240Y0186992D01*
X0213542Y0186992D02*
X0213542Y0190061D01*
X0251240Y0205457D02*
X0252775Y0203923D01*
X0255844Y0203923D01*
X0252775Y0206992D02*
X0251240Y0205457D01*
X0252775Y0206992D02*
X0255844Y0206992D01*
X0255844Y0208527D02*
X0255844Y0210061D01*
X0255844Y0209294D02*
X0251240Y0209294D01*
X0251240Y0208527D02*
X0251240Y0210061D01*
X0251240Y0211596D02*
X0255844Y0211596D01*
X0251240Y0214665D01*
X0255844Y0214665D01*
X0261240Y0213898D02*
X0261240Y0211596D01*
X0265844Y0211596D01*
X0265844Y0213898D01*
X0265077Y0214665D01*
X0262008Y0214665D01*
X0261240Y0213898D01*
X0261240Y0210061D02*
X0265844Y0210061D01*
X0265844Y0206992D02*
X0261240Y0210061D01*
X0261240Y0206992D02*
X0265844Y0206992D01*
X0265077Y0205457D02*
X0265844Y0204690D01*
X0265844Y0203156D01*
X0265077Y0202388D01*
X0262008Y0202388D01*
X0261240Y0203156D01*
X0261240Y0204690D01*
X0262008Y0205457D01*
X0263542Y0205457D01*
X0263542Y0203923D01*
X0271240Y0204690D02*
X0271240Y0203156D01*
X0272008Y0202388D01*
X0273542Y0203156D02*
X0273542Y0204690D01*
X0272775Y0205457D01*
X0272008Y0205457D01*
X0271240Y0204690D01*
X0272008Y0206992D02*
X0271240Y0207759D01*
X0271240Y0209294D01*
X0272008Y0210061D01*
X0271240Y0211596D02*
X0271240Y0214665D01*
X0271240Y0211596D02*
X0275844Y0211596D01*
X0275077Y0210061D02*
X0275844Y0209294D01*
X0275844Y0207759D01*
X0275077Y0206992D01*
X0272008Y0206992D01*
X0275077Y0205457D02*
X0275844Y0204690D01*
X0275844Y0203156D01*
X0275077Y0202388D01*
X0274310Y0202388D01*
X0273542Y0203156D01*
X0281240Y0203156D02*
X0282008Y0202388D01*
X0281240Y0203156D02*
X0281240Y0204690D01*
X0282008Y0205457D01*
X0282775Y0205457D01*
X0283542Y0204690D01*
X0283542Y0203156D01*
X0284310Y0202388D01*
X0285077Y0202388D01*
X0285844Y0203156D01*
X0285844Y0204690D01*
X0285077Y0205457D01*
X0285844Y0206992D02*
X0281240Y0206992D01*
X0281240Y0209294D01*
X0282008Y0210061D01*
X0285077Y0210061D01*
X0285844Y0209294D01*
X0285844Y0206992D01*
X0291240Y0207759D02*
X0291240Y0209294D01*
X0292008Y0210061D01*
X0293542Y0210061D01*
X0294310Y0209294D01*
X0294310Y0208527D01*
X0293542Y0206992D01*
X0295844Y0206992D01*
X0295844Y0210061D01*
X0295844Y0211596D02*
X0292775Y0211596D01*
X0291240Y0213131D01*
X0292775Y0214665D01*
X0295844Y0214665D01*
X0301240Y0213898D02*
X0301240Y0212363D01*
X0302008Y0211596D01*
X0303542Y0212363D02*
X0303542Y0213898D01*
X0302775Y0214665D01*
X0302008Y0214665D01*
X0301240Y0213898D01*
X0303542Y0212363D02*
X0304310Y0211596D01*
X0305077Y0211596D01*
X0305844Y0212363D01*
X0305844Y0213898D01*
X0305077Y0214665D01*
X0311240Y0214863D02*
X0312008Y0214096D01*
X0313542Y0214096D01*
X0314310Y0214863D01*
X0314310Y0217165D01*
X0315844Y0217165D02*
X0311240Y0217165D01*
X0311240Y0214863D01*
X0311240Y0212561D02*
X0313542Y0212561D01*
X0314310Y0211794D01*
X0314310Y0209492D01*
X0311240Y0209492D01*
X0312008Y0207957D02*
X0313542Y0207957D01*
X0313542Y0206423D01*
X0312008Y0207957D02*
X0311240Y0207190D01*
X0311240Y0205656D01*
X0312008Y0204888D01*
X0315077Y0204888D01*
X0315844Y0205656D01*
X0315844Y0207190D01*
X0315077Y0207957D01*
X0292008Y0206992D02*
X0291240Y0207759D01*
X0285844Y0213131D02*
X0284310Y0211596D01*
X0281240Y0211596D01*
X0283542Y0211596D02*
X0283542Y0214665D01*
X0284310Y0214665D02*
X0281240Y0214665D01*
X0284310Y0214665D02*
X0285844Y0213131D01*
M02*
