G75*
%MOIN*%
%OFA0B0*%
%FSLAX25Y25*%
%IPPOS*%
%LPD*%
%AMOC8*
5,1,8,0,0,1.08239X$1,22.5*
%
%ADD10C,0.00000*%
%ADD11C,0.05200*%
%ADD12R,0.05150X0.05150*%
%ADD13C,0.05150*%
%ADD14C,0.05937*%
%ADD15C,0.07050*%
%ADD16C,0.03200*%
%ADD17C,0.01600*%
%ADD18C,0.05906*%
%ADD19R,0.05000X0.05000*%
%ADD20C,0.04724*%
D10*
X0023540Y0001000D02*
X0023540Y0155980D01*
X0338501Y0155980D01*
X0338501Y0001000D01*
X0023540Y0001000D01*
X0027634Y0011000D02*
X0027636Y0011153D01*
X0027642Y0011307D01*
X0027652Y0011460D01*
X0027666Y0011612D01*
X0027684Y0011765D01*
X0027706Y0011916D01*
X0027731Y0012067D01*
X0027761Y0012218D01*
X0027795Y0012368D01*
X0027832Y0012516D01*
X0027873Y0012664D01*
X0027918Y0012810D01*
X0027967Y0012956D01*
X0028020Y0013100D01*
X0028076Y0013242D01*
X0028136Y0013383D01*
X0028200Y0013523D01*
X0028267Y0013661D01*
X0028338Y0013797D01*
X0028413Y0013931D01*
X0028490Y0014063D01*
X0028572Y0014193D01*
X0028656Y0014321D01*
X0028744Y0014447D01*
X0028835Y0014570D01*
X0028929Y0014691D01*
X0029027Y0014809D01*
X0029127Y0014925D01*
X0029231Y0015038D01*
X0029337Y0015149D01*
X0029446Y0015257D01*
X0029558Y0015362D01*
X0029672Y0015463D01*
X0029790Y0015562D01*
X0029909Y0015658D01*
X0030031Y0015751D01*
X0030156Y0015840D01*
X0030283Y0015927D01*
X0030412Y0016009D01*
X0030543Y0016089D01*
X0030676Y0016165D01*
X0030811Y0016238D01*
X0030948Y0016307D01*
X0031087Y0016372D01*
X0031227Y0016434D01*
X0031369Y0016492D01*
X0031512Y0016547D01*
X0031657Y0016598D01*
X0031803Y0016645D01*
X0031950Y0016688D01*
X0032098Y0016727D01*
X0032247Y0016763D01*
X0032397Y0016794D01*
X0032548Y0016822D01*
X0032699Y0016846D01*
X0032852Y0016866D01*
X0033004Y0016882D01*
X0033157Y0016894D01*
X0033310Y0016902D01*
X0033463Y0016906D01*
X0033617Y0016906D01*
X0033770Y0016902D01*
X0033923Y0016894D01*
X0034076Y0016882D01*
X0034228Y0016866D01*
X0034381Y0016846D01*
X0034532Y0016822D01*
X0034683Y0016794D01*
X0034833Y0016763D01*
X0034982Y0016727D01*
X0035130Y0016688D01*
X0035277Y0016645D01*
X0035423Y0016598D01*
X0035568Y0016547D01*
X0035711Y0016492D01*
X0035853Y0016434D01*
X0035993Y0016372D01*
X0036132Y0016307D01*
X0036269Y0016238D01*
X0036404Y0016165D01*
X0036537Y0016089D01*
X0036668Y0016009D01*
X0036797Y0015927D01*
X0036924Y0015840D01*
X0037049Y0015751D01*
X0037171Y0015658D01*
X0037290Y0015562D01*
X0037408Y0015463D01*
X0037522Y0015362D01*
X0037634Y0015257D01*
X0037743Y0015149D01*
X0037849Y0015038D01*
X0037953Y0014925D01*
X0038053Y0014809D01*
X0038151Y0014691D01*
X0038245Y0014570D01*
X0038336Y0014447D01*
X0038424Y0014321D01*
X0038508Y0014193D01*
X0038590Y0014063D01*
X0038667Y0013931D01*
X0038742Y0013797D01*
X0038813Y0013661D01*
X0038880Y0013523D01*
X0038944Y0013383D01*
X0039004Y0013242D01*
X0039060Y0013100D01*
X0039113Y0012956D01*
X0039162Y0012810D01*
X0039207Y0012664D01*
X0039248Y0012516D01*
X0039285Y0012368D01*
X0039319Y0012218D01*
X0039349Y0012067D01*
X0039374Y0011916D01*
X0039396Y0011765D01*
X0039414Y0011612D01*
X0039428Y0011460D01*
X0039438Y0011307D01*
X0039444Y0011153D01*
X0039446Y0011000D01*
X0039444Y0010847D01*
X0039438Y0010693D01*
X0039428Y0010540D01*
X0039414Y0010388D01*
X0039396Y0010235D01*
X0039374Y0010084D01*
X0039349Y0009933D01*
X0039319Y0009782D01*
X0039285Y0009632D01*
X0039248Y0009484D01*
X0039207Y0009336D01*
X0039162Y0009190D01*
X0039113Y0009044D01*
X0039060Y0008900D01*
X0039004Y0008758D01*
X0038944Y0008617D01*
X0038880Y0008477D01*
X0038813Y0008339D01*
X0038742Y0008203D01*
X0038667Y0008069D01*
X0038590Y0007937D01*
X0038508Y0007807D01*
X0038424Y0007679D01*
X0038336Y0007553D01*
X0038245Y0007430D01*
X0038151Y0007309D01*
X0038053Y0007191D01*
X0037953Y0007075D01*
X0037849Y0006962D01*
X0037743Y0006851D01*
X0037634Y0006743D01*
X0037522Y0006638D01*
X0037408Y0006537D01*
X0037290Y0006438D01*
X0037171Y0006342D01*
X0037049Y0006249D01*
X0036924Y0006160D01*
X0036797Y0006073D01*
X0036668Y0005991D01*
X0036537Y0005911D01*
X0036404Y0005835D01*
X0036269Y0005762D01*
X0036132Y0005693D01*
X0035993Y0005628D01*
X0035853Y0005566D01*
X0035711Y0005508D01*
X0035568Y0005453D01*
X0035423Y0005402D01*
X0035277Y0005355D01*
X0035130Y0005312D01*
X0034982Y0005273D01*
X0034833Y0005237D01*
X0034683Y0005206D01*
X0034532Y0005178D01*
X0034381Y0005154D01*
X0034228Y0005134D01*
X0034076Y0005118D01*
X0033923Y0005106D01*
X0033770Y0005098D01*
X0033617Y0005094D01*
X0033463Y0005094D01*
X0033310Y0005098D01*
X0033157Y0005106D01*
X0033004Y0005118D01*
X0032852Y0005134D01*
X0032699Y0005154D01*
X0032548Y0005178D01*
X0032397Y0005206D01*
X0032247Y0005237D01*
X0032098Y0005273D01*
X0031950Y0005312D01*
X0031803Y0005355D01*
X0031657Y0005402D01*
X0031512Y0005453D01*
X0031369Y0005508D01*
X0031227Y0005566D01*
X0031087Y0005628D01*
X0030948Y0005693D01*
X0030811Y0005762D01*
X0030676Y0005835D01*
X0030543Y0005911D01*
X0030412Y0005991D01*
X0030283Y0006073D01*
X0030156Y0006160D01*
X0030031Y0006249D01*
X0029909Y0006342D01*
X0029790Y0006438D01*
X0029672Y0006537D01*
X0029558Y0006638D01*
X0029446Y0006743D01*
X0029337Y0006851D01*
X0029231Y0006962D01*
X0029127Y0007075D01*
X0029027Y0007191D01*
X0028929Y0007309D01*
X0028835Y0007430D01*
X0028744Y0007553D01*
X0028656Y0007679D01*
X0028572Y0007807D01*
X0028490Y0007937D01*
X0028413Y0008069D01*
X0028338Y0008203D01*
X0028267Y0008339D01*
X0028200Y0008477D01*
X0028136Y0008617D01*
X0028076Y0008758D01*
X0028020Y0008900D01*
X0027967Y0009044D01*
X0027918Y0009190D01*
X0027873Y0009336D01*
X0027832Y0009484D01*
X0027795Y0009632D01*
X0027761Y0009782D01*
X0027731Y0009933D01*
X0027706Y0010084D01*
X0027684Y0010235D01*
X0027666Y0010388D01*
X0027652Y0010540D01*
X0027642Y0010693D01*
X0027636Y0010847D01*
X0027634Y0011000D01*
X0322634Y0011000D02*
X0322636Y0011153D01*
X0322642Y0011307D01*
X0322652Y0011460D01*
X0322666Y0011612D01*
X0322684Y0011765D01*
X0322706Y0011916D01*
X0322731Y0012067D01*
X0322761Y0012218D01*
X0322795Y0012368D01*
X0322832Y0012516D01*
X0322873Y0012664D01*
X0322918Y0012810D01*
X0322967Y0012956D01*
X0323020Y0013100D01*
X0323076Y0013242D01*
X0323136Y0013383D01*
X0323200Y0013523D01*
X0323267Y0013661D01*
X0323338Y0013797D01*
X0323413Y0013931D01*
X0323490Y0014063D01*
X0323572Y0014193D01*
X0323656Y0014321D01*
X0323744Y0014447D01*
X0323835Y0014570D01*
X0323929Y0014691D01*
X0324027Y0014809D01*
X0324127Y0014925D01*
X0324231Y0015038D01*
X0324337Y0015149D01*
X0324446Y0015257D01*
X0324558Y0015362D01*
X0324672Y0015463D01*
X0324790Y0015562D01*
X0324909Y0015658D01*
X0325031Y0015751D01*
X0325156Y0015840D01*
X0325283Y0015927D01*
X0325412Y0016009D01*
X0325543Y0016089D01*
X0325676Y0016165D01*
X0325811Y0016238D01*
X0325948Y0016307D01*
X0326087Y0016372D01*
X0326227Y0016434D01*
X0326369Y0016492D01*
X0326512Y0016547D01*
X0326657Y0016598D01*
X0326803Y0016645D01*
X0326950Y0016688D01*
X0327098Y0016727D01*
X0327247Y0016763D01*
X0327397Y0016794D01*
X0327548Y0016822D01*
X0327699Y0016846D01*
X0327852Y0016866D01*
X0328004Y0016882D01*
X0328157Y0016894D01*
X0328310Y0016902D01*
X0328463Y0016906D01*
X0328617Y0016906D01*
X0328770Y0016902D01*
X0328923Y0016894D01*
X0329076Y0016882D01*
X0329228Y0016866D01*
X0329381Y0016846D01*
X0329532Y0016822D01*
X0329683Y0016794D01*
X0329833Y0016763D01*
X0329982Y0016727D01*
X0330130Y0016688D01*
X0330277Y0016645D01*
X0330423Y0016598D01*
X0330568Y0016547D01*
X0330711Y0016492D01*
X0330853Y0016434D01*
X0330993Y0016372D01*
X0331132Y0016307D01*
X0331269Y0016238D01*
X0331404Y0016165D01*
X0331537Y0016089D01*
X0331668Y0016009D01*
X0331797Y0015927D01*
X0331924Y0015840D01*
X0332049Y0015751D01*
X0332171Y0015658D01*
X0332290Y0015562D01*
X0332408Y0015463D01*
X0332522Y0015362D01*
X0332634Y0015257D01*
X0332743Y0015149D01*
X0332849Y0015038D01*
X0332953Y0014925D01*
X0333053Y0014809D01*
X0333151Y0014691D01*
X0333245Y0014570D01*
X0333336Y0014447D01*
X0333424Y0014321D01*
X0333508Y0014193D01*
X0333590Y0014063D01*
X0333667Y0013931D01*
X0333742Y0013797D01*
X0333813Y0013661D01*
X0333880Y0013523D01*
X0333944Y0013383D01*
X0334004Y0013242D01*
X0334060Y0013100D01*
X0334113Y0012956D01*
X0334162Y0012810D01*
X0334207Y0012664D01*
X0334248Y0012516D01*
X0334285Y0012368D01*
X0334319Y0012218D01*
X0334349Y0012067D01*
X0334374Y0011916D01*
X0334396Y0011765D01*
X0334414Y0011612D01*
X0334428Y0011460D01*
X0334438Y0011307D01*
X0334444Y0011153D01*
X0334446Y0011000D01*
X0334444Y0010847D01*
X0334438Y0010693D01*
X0334428Y0010540D01*
X0334414Y0010388D01*
X0334396Y0010235D01*
X0334374Y0010084D01*
X0334349Y0009933D01*
X0334319Y0009782D01*
X0334285Y0009632D01*
X0334248Y0009484D01*
X0334207Y0009336D01*
X0334162Y0009190D01*
X0334113Y0009044D01*
X0334060Y0008900D01*
X0334004Y0008758D01*
X0333944Y0008617D01*
X0333880Y0008477D01*
X0333813Y0008339D01*
X0333742Y0008203D01*
X0333667Y0008069D01*
X0333590Y0007937D01*
X0333508Y0007807D01*
X0333424Y0007679D01*
X0333336Y0007553D01*
X0333245Y0007430D01*
X0333151Y0007309D01*
X0333053Y0007191D01*
X0332953Y0007075D01*
X0332849Y0006962D01*
X0332743Y0006851D01*
X0332634Y0006743D01*
X0332522Y0006638D01*
X0332408Y0006537D01*
X0332290Y0006438D01*
X0332171Y0006342D01*
X0332049Y0006249D01*
X0331924Y0006160D01*
X0331797Y0006073D01*
X0331668Y0005991D01*
X0331537Y0005911D01*
X0331404Y0005835D01*
X0331269Y0005762D01*
X0331132Y0005693D01*
X0330993Y0005628D01*
X0330853Y0005566D01*
X0330711Y0005508D01*
X0330568Y0005453D01*
X0330423Y0005402D01*
X0330277Y0005355D01*
X0330130Y0005312D01*
X0329982Y0005273D01*
X0329833Y0005237D01*
X0329683Y0005206D01*
X0329532Y0005178D01*
X0329381Y0005154D01*
X0329228Y0005134D01*
X0329076Y0005118D01*
X0328923Y0005106D01*
X0328770Y0005098D01*
X0328617Y0005094D01*
X0328463Y0005094D01*
X0328310Y0005098D01*
X0328157Y0005106D01*
X0328004Y0005118D01*
X0327852Y0005134D01*
X0327699Y0005154D01*
X0327548Y0005178D01*
X0327397Y0005206D01*
X0327247Y0005237D01*
X0327098Y0005273D01*
X0326950Y0005312D01*
X0326803Y0005355D01*
X0326657Y0005402D01*
X0326512Y0005453D01*
X0326369Y0005508D01*
X0326227Y0005566D01*
X0326087Y0005628D01*
X0325948Y0005693D01*
X0325811Y0005762D01*
X0325676Y0005835D01*
X0325543Y0005911D01*
X0325412Y0005991D01*
X0325283Y0006073D01*
X0325156Y0006160D01*
X0325031Y0006249D01*
X0324909Y0006342D01*
X0324790Y0006438D01*
X0324672Y0006537D01*
X0324558Y0006638D01*
X0324446Y0006743D01*
X0324337Y0006851D01*
X0324231Y0006962D01*
X0324127Y0007075D01*
X0324027Y0007191D01*
X0323929Y0007309D01*
X0323835Y0007430D01*
X0323744Y0007553D01*
X0323656Y0007679D01*
X0323572Y0007807D01*
X0323490Y0007937D01*
X0323413Y0008069D01*
X0323338Y0008203D01*
X0323267Y0008339D01*
X0323200Y0008477D01*
X0323136Y0008617D01*
X0323076Y0008758D01*
X0323020Y0008900D01*
X0322967Y0009044D01*
X0322918Y0009190D01*
X0322873Y0009336D01*
X0322832Y0009484D01*
X0322795Y0009632D01*
X0322761Y0009782D01*
X0322731Y0009933D01*
X0322706Y0010084D01*
X0322684Y0010235D01*
X0322666Y0010388D01*
X0322652Y0010540D01*
X0322642Y0010693D01*
X0322636Y0010847D01*
X0322634Y0011000D01*
X0322634Y0146000D02*
X0322636Y0146153D01*
X0322642Y0146307D01*
X0322652Y0146460D01*
X0322666Y0146612D01*
X0322684Y0146765D01*
X0322706Y0146916D01*
X0322731Y0147067D01*
X0322761Y0147218D01*
X0322795Y0147368D01*
X0322832Y0147516D01*
X0322873Y0147664D01*
X0322918Y0147810D01*
X0322967Y0147956D01*
X0323020Y0148100D01*
X0323076Y0148242D01*
X0323136Y0148383D01*
X0323200Y0148523D01*
X0323267Y0148661D01*
X0323338Y0148797D01*
X0323413Y0148931D01*
X0323490Y0149063D01*
X0323572Y0149193D01*
X0323656Y0149321D01*
X0323744Y0149447D01*
X0323835Y0149570D01*
X0323929Y0149691D01*
X0324027Y0149809D01*
X0324127Y0149925D01*
X0324231Y0150038D01*
X0324337Y0150149D01*
X0324446Y0150257D01*
X0324558Y0150362D01*
X0324672Y0150463D01*
X0324790Y0150562D01*
X0324909Y0150658D01*
X0325031Y0150751D01*
X0325156Y0150840D01*
X0325283Y0150927D01*
X0325412Y0151009D01*
X0325543Y0151089D01*
X0325676Y0151165D01*
X0325811Y0151238D01*
X0325948Y0151307D01*
X0326087Y0151372D01*
X0326227Y0151434D01*
X0326369Y0151492D01*
X0326512Y0151547D01*
X0326657Y0151598D01*
X0326803Y0151645D01*
X0326950Y0151688D01*
X0327098Y0151727D01*
X0327247Y0151763D01*
X0327397Y0151794D01*
X0327548Y0151822D01*
X0327699Y0151846D01*
X0327852Y0151866D01*
X0328004Y0151882D01*
X0328157Y0151894D01*
X0328310Y0151902D01*
X0328463Y0151906D01*
X0328617Y0151906D01*
X0328770Y0151902D01*
X0328923Y0151894D01*
X0329076Y0151882D01*
X0329228Y0151866D01*
X0329381Y0151846D01*
X0329532Y0151822D01*
X0329683Y0151794D01*
X0329833Y0151763D01*
X0329982Y0151727D01*
X0330130Y0151688D01*
X0330277Y0151645D01*
X0330423Y0151598D01*
X0330568Y0151547D01*
X0330711Y0151492D01*
X0330853Y0151434D01*
X0330993Y0151372D01*
X0331132Y0151307D01*
X0331269Y0151238D01*
X0331404Y0151165D01*
X0331537Y0151089D01*
X0331668Y0151009D01*
X0331797Y0150927D01*
X0331924Y0150840D01*
X0332049Y0150751D01*
X0332171Y0150658D01*
X0332290Y0150562D01*
X0332408Y0150463D01*
X0332522Y0150362D01*
X0332634Y0150257D01*
X0332743Y0150149D01*
X0332849Y0150038D01*
X0332953Y0149925D01*
X0333053Y0149809D01*
X0333151Y0149691D01*
X0333245Y0149570D01*
X0333336Y0149447D01*
X0333424Y0149321D01*
X0333508Y0149193D01*
X0333590Y0149063D01*
X0333667Y0148931D01*
X0333742Y0148797D01*
X0333813Y0148661D01*
X0333880Y0148523D01*
X0333944Y0148383D01*
X0334004Y0148242D01*
X0334060Y0148100D01*
X0334113Y0147956D01*
X0334162Y0147810D01*
X0334207Y0147664D01*
X0334248Y0147516D01*
X0334285Y0147368D01*
X0334319Y0147218D01*
X0334349Y0147067D01*
X0334374Y0146916D01*
X0334396Y0146765D01*
X0334414Y0146612D01*
X0334428Y0146460D01*
X0334438Y0146307D01*
X0334444Y0146153D01*
X0334446Y0146000D01*
X0334444Y0145847D01*
X0334438Y0145693D01*
X0334428Y0145540D01*
X0334414Y0145388D01*
X0334396Y0145235D01*
X0334374Y0145084D01*
X0334349Y0144933D01*
X0334319Y0144782D01*
X0334285Y0144632D01*
X0334248Y0144484D01*
X0334207Y0144336D01*
X0334162Y0144190D01*
X0334113Y0144044D01*
X0334060Y0143900D01*
X0334004Y0143758D01*
X0333944Y0143617D01*
X0333880Y0143477D01*
X0333813Y0143339D01*
X0333742Y0143203D01*
X0333667Y0143069D01*
X0333590Y0142937D01*
X0333508Y0142807D01*
X0333424Y0142679D01*
X0333336Y0142553D01*
X0333245Y0142430D01*
X0333151Y0142309D01*
X0333053Y0142191D01*
X0332953Y0142075D01*
X0332849Y0141962D01*
X0332743Y0141851D01*
X0332634Y0141743D01*
X0332522Y0141638D01*
X0332408Y0141537D01*
X0332290Y0141438D01*
X0332171Y0141342D01*
X0332049Y0141249D01*
X0331924Y0141160D01*
X0331797Y0141073D01*
X0331668Y0140991D01*
X0331537Y0140911D01*
X0331404Y0140835D01*
X0331269Y0140762D01*
X0331132Y0140693D01*
X0330993Y0140628D01*
X0330853Y0140566D01*
X0330711Y0140508D01*
X0330568Y0140453D01*
X0330423Y0140402D01*
X0330277Y0140355D01*
X0330130Y0140312D01*
X0329982Y0140273D01*
X0329833Y0140237D01*
X0329683Y0140206D01*
X0329532Y0140178D01*
X0329381Y0140154D01*
X0329228Y0140134D01*
X0329076Y0140118D01*
X0328923Y0140106D01*
X0328770Y0140098D01*
X0328617Y0140094D01*
X0328463Y0140094D01*
X0328310Y0140098D01*
X0328157Y0140106D01*
X0328004Y0140118D01*
X0327852Y0140134D01*
X0327699Y0140154D01*
X0327548Y0140178D01*
X0327397Y0140206D01*
X0327247Y0140237D01*
X0327098Y0140273D01*
X0326950Y0140312D01*
X0326803Y0140355D01*
X0326657Y0140402D01*
X0326512Y0140453D01*
X0326369Y0140508D01*
X0326227Y0140566D01*
X0326087Y0140628D01*
X0325948Y0140693D01*
X0325811Y0140762D01*
X0325676Y0140835D01*
X0325543Y0140911D01*
X0325412Y0140991D01*
X0325283Y0141073D01*
X0325156Y0141160D01*
X0325031Y0141249D01*
X0324909Y0141342D01*
X0324790Y0141438D01*
X0324672Y0141537D01*
X0324558Y0141638D01*
X0324446Y0141743D01*
X0324337Y0141851D01*
X0324231Y0141962D01*
X0324127Y0142075D01*
X0324027Y0142191D01*
X0323929Y0142309D01*
X0323835Y0142430D01*
X0323744Y0142553D01*
X0323656Y0142679D01*
X0323572Y0142807D01*
X0323490Y0142937D01*
X0323413Y0143069D01*
X0323338Y0143203D01*
X0323267Y0143339D01*
X0323200Y0143477D01*
X0323136Y0143617D01*
X0323076Y0143758D01*
X0323020Y0143900D01*
X0322967Y0144044D01*
X0322918Y0144190D01*
X0322873Y0144336D01*
X0322832Y0144484D01*
X0322795Y0144632D01*
X0322761Y0144782D01*
X0322731Y0144933D01*
X0322706Y0145084D01*
X0322684Y0145235D01*
X0322666Y0145388D01*
X0322652Y0145540D01*
X0322642Y0145693D01*
X0322636Y0145847D01*
X0322634Y0146000D01*
D11*
X0318540Y0123600D02*
X0318540Y0118400D01*
X0308540Y0118400D02*
X0308540Y0123600D01*
X0298540Y0123600D02*
X0298540Y0118400D01*
X0288540Y0118400D02*
X0288540Y0123600D01*
X0278540Y0123600D02*
X0278540Y0118400D01*
X0268540Y0118400D02*
X0268540Y0123600D01*
X0258540Y0123600D02*
X0258540Y0118400D01*
X0248540Y0118400D02*
X0248540Y0123600D01*
X0238540Y0123600D02*
X0238540Y0118400D01*
X0218540Y0118400D02*
X0218540Y0123600D01*
X0208540Y0123600D02*
X0208540Y0118400D01*
X0198540Y0118400D02*
X0198540Y0123600D01*
X0188540Y0123600D02*
X0188540Y0118400D01*
X0178540Y0118400D02*
X0178540Y0123600D01*
X0168540Y0123600D02*
X0168540Y0118400D01*
X0158540Y0118400D02*
X0158540Y0123600D01*
X0148540Y0123600D02*
X0148540Y0118400D01*
X0138540Y0118400D02*
X0138540Y0123600D01*
X0118540Y0123600D02*
X0118540Y0118400D01*
X0108540Y0118400D02*
X0108540Y0123600D01*
X0098540Y0123600D02*
X0098540Y0118400D01*
X0088540Y0118400D02*
X0088540Y0123600D01*
X0078540Y0123600D02*
X0078540Y0118400D01*
X0068540Y0118400D02*
X0068540Y0123600D01*
X0058540Y0123600D02*
X0058540Y0118400D01*
X0048540Y0118400D02*
X0048540Y0123600D01*
X0038540Y0123600D02*
X0038540Y0118400D01*
X0038540Y0093600D02*
X0038540Y0088400D01*
X0048540Y0088400D02*
X0048540Y0093600D01*
X0058540Y0093600D02*
X0058540Y0088400D01*
X0068540Y0088400D02*
X0068540Y0093600D01*
X0078540Y0093600D02*
X0078540Y0088400D01*
X0088540Y0088400D02*
X0088540Y0093600D01*
X0098540Y0093600D02*
X0098540Y0088400D01*
X0108540Y0088400D02*
X0108540Y0093600D01*
X0118540Y0093600D02*
X0118540Y0088400D01*
X0138540Y0088400D02*
X0138540Y0093600D01*
X0148540Y0093600D02*
X0148540Y0088400D01*
X0158540Y0088400D02*
X0158540Y0093600D01*
X0168540Y0093600D02*
X0168540Y0088400D01*
X0178540Y0088400D02*
X0178540Y0093600D01*
X0188540Y0093600D02*
X0188540Y0088400D01*
X0198540Y0088400D02*
X0198540Y0093600D01*
X0208540Y0093600D02*
X0208540Y0088400D01*
X0218540Y0088400D02*
X0218540Y0093600D01*
X0238540Y0093600D02*
X0238540Y0088400D01*
X0248540Y0088400D02*
X0248540Y0093600D01*
X0258540Y0093600D02*
X0258540Y0088400D01*
X0268540Y0088400D02*
X0268540Y0093600D01*
X0278540Y0093600D02*
X0278540Y0088400D01*
X0288540Y0088400D02*
X0288540Y0093600D01*
X0298540Y0093600D02*
X0298540Y0088400D01*
X0308540Y0088400D02*
X0308540Y0093600D01*
X0318540Y0093600D02*
X0318540Y0088400D01*
D12*
X0283540Y0031000D03*
X0283540Y0021000D03*
X0113540Y0011000D03*
X0113540Y0071000D03*
D13*
X0123540Y0071000D03*
X0133540Y0071000D03*
X0143540Y0071000D03*
X0153540Y0071000D03*
X0163540Y0071000D03*
X0173540Y0071000D03*
X0183540Y0071000D03*
X0193540Y0071000D03*
X0203540Y0071000D03*
X0213540Y0071000D03*
X0223540Y0071000D03*
X0233540Y0071000D03*
X0243540Y0071000D03*
X0253540Y0071000D03*
X0263540Y0071000D03*
X0273540Y0071000D03*
X0283540Y0071000D03*
X0293540Y0071000D03*
X0303540Y0071000D03*
X0293540Y0061000D03*
X0283540Y0061000D03*
X0283540Y0051000D03*
X0293540Y0051000D03*
X0293540Y0041000D03*
X0283540Y0041000D03*
X0293540Y0031000D03*
X0273540Y0021000D03*
X0263540Y0021000D03*
X0253540Y0021000D03*
X0253540Y0011000D03*
X0243540Y0011000D03*
X0233540Y0011000D03*
X0223540Y0011000D03*
X0213540Y0011000D03*
X0203540Y0011000D03*
X0193540Y0011000D03*
X0183540Y0011000D03*
X0173540Y0011000D03*
X0163540Y0011000D03*
X0153540Y0011000D03*
X0143540Y0011000D03*
X0133540Y0011000D03*
X0123540Y0011000D03*
X0263540Y0011000D03*
X0273540Y0011000D03*
X0283540Y0011000D03*
X0293540Y0011000D03*
X0303540Y0011000D03*
D14*
X0298540Y0138031D02*
X0298540Y0143969D01*
X0288540Y0143969D02*
X0288540Y0138031D01*
X0278540Y0138031D02*
X0278540Y0143969D01*
X0268540Y0143969D02*
X0268540Y0138031D01*
X0258540Y0138031D02*
X0258540Y0143969D01*
X0248540Y0143969D02*
X0248540Y0138031D01*
X0238540Y0138031D02*
X0238540Y0143969D01*
X0208540Y0143969D02*
X0208540Y0138031D01*
X0198540Y0138031D02*
X0198540Y0143969D01*
X0188540Y0143969D02*
X0188540Y0138031D01*
X0178540Y0138031D02*
X0178540Y0143969D01*
X0168540Y0143969D02*
X0168540Y0138031D01*
X0158540Y0138031D02*
X0158540Y0143969D01*
X0148540Y0143969D02*
X0148540Y0138031D01*
X0138540Y0138031D02*
X0138540Y0143969D01*
X0108540Y0143969D02*
X0108540Y0138031D01*
X0098540Y0138031D02*
X0098540Y0143969D01*
X0088540Y0143969D02*
X0088540Y0138031D01*
X0078540Y0138031D02*
X0078540Y0143969D01*
X0068540Y0143969D02*
X0068540Y0138031D01*
X0058540Y0138031D02*
X0058540Y0143969D01*
X0048540Y0143969D02*
X0048540Y0138031D01*
X0038540Y0138031D02*
X0038540Y0143969D01*
X0308540Y0143969D02*
X0308540Y0138031D01*
D15*
X0083383Y0029525D02*
X0083383Y0022475D01*
X0063698Y0022475D02*
X0063698Y0029525D01*
D16*
X0253540Y0021000D02*
X0253540Y0011000D01*
X0263540Y0011000D02*
X0263540Y0021000D01*
X0283540Y0021000D02*
X0293540Y0011000D01*
X0303540Y0011000D01*
X0303540Y0021000D01*
X0318540Y0036000D01*
X0318540Y0091000D01*
X0308540Y0121000D02*
X0308540Y0141000D01*
X0298540Y0141000D02*
X0298540Y0121000D01*
X0288540Y0121000D02*
X0288540Y0141000D01*
X0278540Y0141000D02*
X0278540Y0121000D01*
X0268540Y0121000D02*
X0268540Y0141000D01*
X0258540Y0141000D02*
X0258540Y0121000D01*
X0248540Y0121000D02*
X0248540Y0141000D01*
X0238540Y0141000D02*
X0238540Y0121000D01*
X0208540Y0121000D02*
X0208540Y0141000D01*
X0198540Y0141000D02*
X0198540Y0121000D01*
X0188540Y0121000D02*
X0188540Y0141000D01*
X0178540Y0141000D02*
X0178540Y0121000D01*
X0168540Y0121000D02*
X0168540Y0141000D01*
X0158540Y0141000D02*
X0158540Y0121000D01*
X0148540Y0121000D02*
X0148540Y0141000D01*
X0138540Y0141000D02*
X0138540Y0121000D01*
X0108540Y0121000D02*
X0108540Y0141000D01*
X0098540Y0141000D02*
X0098540Y0121000D01*
X0088540Y0121000D02*
X0088540Y0141000D01*
X0078540Y0141000D02*
X0078540Y0121000D01*
X0068540Y0121000D02*
X0068540Y0141000D01*
X0058540Y0141000D02*
X0058540Y0121000D01*
X0048540Y0121000D02*
X0048540Y0141000D01*
X0038540Y0141000D02*
X0038540Y0121000D01*
D17*
X0032740Y0120888D02*
X0028540Y0120888D01*
X0028540Y0122487D02*
X0032740Y0122487D01*
X0032740Y0124085D02*
X0028540Y0124085D01*
X0028540Y0125684D02*
X0033126Y0125684D01*
X0032740Y0124754D02*
X0033623Y0126885D01*
X0033740Y0127002D01*
X0033740Y0134108D01*
X0033311Y0134537D01*
X0032372Y0136804D01*
X0032372Y0145195D01*
X0033311Y0147463D01*
X0035046Y0149198D01*
X0037313Y0150137D01*
X0039767Y0150137D01*
X0042035Y0149198D01*
X0043540Y0147692D01*
X0045046Y0149198D01*
X0047313Y0150137D01*
X0049767Y0150137D01*
X0052035Y0149198D01*
X0053540Y0147692D01*
X0055046Y0149198D01*
X0057313Y0150137D01*
X0059767Y0150137D01*
X0062035Y0149198D01*
X0063540Y0147692D01*
X0065046Y0149198D01*
X0067313Y0150137D01*
X0069767Y0150137D01*
X0072035Y0149198D01*
X0073540Y0147692D01*
X0075046Y0149198D01*
X0077313Y0150137D01*
X0079767Y0150137D01*
X0082035Y0149198D01*
X0083540Y0147692D01*
X0085046Y0149198D01*
X0087313Y0150137D01*
X0089767Y0150137D01*
X0092035Y0149198D01*
X0093540Y0147692D01*
X0095046Y0149198D01*
X0097313Y0150137D01*
X0099767Y0150137D01*
X0102035Y0149198D01*
X0103540Y0147692D01*
X0105046Y0149198D01*
X0107313Y0150137D01*
X0109767Y0150137D01*
X0112035Y0149198D01*
X0113770Y0147463D01*
X0114709Y0145195D01*
X0114709Y0136804D01*
X0113770Y0134537D01*
X0113340Y0134108D01*
X0113340Y0127002D01*
X0113457Y0126885D01*
X0113540Y0126685D01*
X0113623Y0126885D01*
X0115255Y0128517D01*
X0117387Y0129400D01*
X0119694Y0129400D01*
X0121826Y0128517D01*
X0123457Y0126885D01*
X0124340Y0124754D01*
X0124340Y0117246D01*
X0123457Y0115115D01*
X0121826Y0113483D01*
X0119694Y0112600D01*
X0117387Y0112600D01*
X0115255Y0113483D01*
X0113623Y0115115D01*
X0113540Y0115315D01*
X0113457Y0115115D01*
X0111826Y0113483D01*
X0109694Y0112600D01*
X0107387Y0112600D01*
X0105255Y0113483D01*
X0103623Y0115115D01*
X0103540Y0115315D01*
X0103457Y0115115D01*
X0101826Y0113483D01*
X0099694Y0112600D01*
X0097387Y0112600D01*
X0095255Y0113483D01*
X0093623Y0115115D01*
X0093540Y0115315D01*
X0093457Y0115115D01*
X0091826Y0113483D01*
X0089694Y0112600D01*
X0087387Y0112600D01*
X0085255Y0113483D01*
X0083623Y0115115D01*
X0083540Y0115315D01*
X0083457Y0115115D01*
X0081826Y0113483D01*
X0079694Y0112600D01*
X0077387Y0112600D01*
X0075255Y0113483D01*
X0073623Y0115115D01*
X0073540Y0115315D01*
X0073457Y0115115D01*
X0071826Y0113483D01*
X0069694Y0112600D01*
X0067387Y0112600D01*
X0065255Y0113483D01*
X0063623Y0115115D01*
X0063540Y0115315D01*
X0063457Y0115115D01*
X0061826Y0113483D01*
X0059694Y0112600D01*
X0057387Y0112600D01*
X0055255Y0113483D01*
X0053623Y0115115D01*
X0053540Y0115315D01*
X0053457Y0115115D01*
X0051826Y0113483D01*
X0049694Y0112600D01*
X0047387Y0112600D01*
X0045255Y0113483D01*
X0043623Y0115115D01*
X0043540Y0115315D01*
X0043457Y0115115D01*
X0041826Y0113483D01*
X0039694Y0112600D01*
X0037387Y0112600D01*
X0035255Y0113483D01*
X0033623Y0115115D01*
X0032740Y0117246D01*
X0032740Y0124754D01*
X0033740Y0127282D02*
X0028540Y0127282D01*
X0028540Y0128881D02*
X0033740Y0128881D01*
X0033740Y0130479D02*
X0028540Y0130479D01*
X0028540Y0132078D02*
X0033740Y0132078D01*
X0033740Y0133676D02*
X0028540Y0133676D01*
X0028540Y0135275D02*
X0033005Y0135275D01*
X0032372Y0136873D02*
X0028540Y0136873D01*
X0028540Y0138472D02*
X0032372Y0138472D01*
X0032372Y0140070D02*
X0028540Y0140070D01*
X0028540Y0141669D02*
X0032372Y0141669D01*
X0032372Y0143268D02*
X0028540Y0143268D01*
X0028540Y0144866D02*
X0032372Y0144866D01*
X0032898Y0146465D02*
X0028540Y0146465D01*
X0028540Y0148063D02*
X0033911Y0148063D01*
X0036166Y0149662D02*
X0028540Y0149662D01*
X0028540Y0151000D02*
X0313540Y0151000D01*
X0313540Y0147692D01*
X0312035Y0149198D01*
X0309767Y0150137D01*
X0307313Y0150137D01*
X0305046Y0149198D01*
X0303540Y0147692D01*
X0302035Y0149198D01*
X0299767Y0150137D01*
X0297313Y0150137D01*
X0295046Y0149198D01*
X0293540Y0147692D01*
X0292035Y0149198D01*
X0289767Y0150137D01*
X0287313Y0150137D01*
X0285046Y0149198D01*
X0283540Y0147692D01*
X0282035Y0149198D01*
X0279767Y0150137D01*
X0277313Y0150137D01*
X0275046Y0149198D01*
X0273540Y0147692D01*
X0272035Y0149198D01*
X0269767Y0150137D01*
X0267313Y0150137D01*
X0265046Y0149198D01*
X0263540Y0147692D01*
X0262035Y0149198D01*
X0259767Y0150137D01*
X0257313Y0150137D01*
X0255046Y0149198D01*
X0253540Y0147692D01*
X0252035Y0149198D01*
X0249767Y0150137D01*
X0247313Y0150137D01*
X0245046Y0149198D01*
X0243540Y0147692D01*
X0242035Y0149198D01*
X0239767Y0150137D01*
X0237313Y0150137D01*
X0235046Y0149198D01*
X0233311Y0147463D01*
X0232372Y0145195D01*
X0232372Y0136804D01*
X0233311Y0134537D01*
X0233740Y0134108D01*
X0233740Y0127002D01*
X0233623Y0126885D01*
X0232740Y0124754D01*
X0232740Y0117246D01*
X0233623Y0115115D01*
X0235255Y0113483D01*
X0237387Y0112600D01*
X0239694Y0112600D01*
X0241826Y0113483D01*
X0243457Y0115115D01*
X0243540Y0115315D01*
X0243623Y0115115D01*
X0245255Y0113483D01*
X0247387Y0112600D01*
X0249694Y0112600D01*
X0251826Y0113483D01*
X0253457Y0115115D01*
X0253540Y0115315D01*
X0253623Y0115115D01*
X0255255Y0113483D01*
X0257387Y0112600D01*
X0259694Y0112600D01*
X0261826Y0113483D01*
X0263457Y0115115D01*
X0263540Y0115315D01*
X0263623Y0115115D01*
X0265255Y0113483D01*
X0267387Y0112600D01*
X0269694Y0112600D01*
X0271826Y0113483D01*
X0273457Y0115115D01*
X0273540Y0115315D01*
X0273623Y0115115D01*
X0275255Y0113483D01*
X0277387Y0112600D01*
X0279694Y0112600D01*
X0281826Y0113483D01*
X0283457Y0115115D01*
X0283540Y0115315D01*
X0283623Y0115115D01*
X0285255Y0113483D01*
X0287387Y0112600D01*
X0289694Y0112600D01*
X0291826Y0113483D01*
X0293457Y0115115D01*
X0293540Y0115315D01*
X0293623Y0115115D01*
X0295255Y0113483D01*
X0297387Y0112600D01*
X0299694Y0112600D01*
X0301826Y0113483D01*
X0303457Y0115115D01*
X0303540Y0115315D01*
X0303623Y0115115D01*
X0305255Y0113483D01*
X0307387Y0112600D01*
X0309694Y0112600D01*
X0311826Y0113483D01*
X0313457Y0115115D01*
X0313540Y0115315D01*
X0313623Y0115115D01*
X0315255Y0113483D01*
X0317387Y0112600D01*
X0319694Y0112600D01*
X0321826Y0113483D01*
X0323457Y0115115D01*
X0324340Y0117246D01*
X0324340Y0124754D01*
X0323457Y0126885D01*
X0321826Y0128517D01*
X0319694Y0129400D01*
X0317387Y0129400D01*
X0315255Y0128517D01*
X0313623Y0126885D01*
X0313540Y0126685D01*
X0313457Y0126885D01*
X0313340Y0127002D01*
X0313340Y0134108D01*
X0313540Y0134308D01*
X0313540Y0131000D01*
X0333540Y0131000D01*
X0333540Y0026000D01*
X0313540Y0026000D01*
X0313540Y0006000D01*
X0286560Y0006000D01*
X0286812Y0006104D01*
X0288436Y0007729D01*
X0289314Y0009849D01*
X0289486Y0009321D01*
X0289799Y0008707D01*
X0290203Y0008150D01*
X0290690Y0007663D01*
X0291247Y0007258D01*
X0291861Y0006946D01*
X0292516Y0006733D01*
X0293196Y0006625D01*
X0293540Y0006625D01*
X0293540Y0011000D01*
X0293540Y0015375D01*
X0293196Y0015375D01*
X0292516Y0015267D01*
X0291861Y0015054D01*
X0291247Y0014742D01*
X0290690Y0014337D01*
X0290203Y0013850D01*
X0289799Y0013293D01*
X0289486Y0012679D01*
X0289314Y0012151D01*
X0288436Y0014271D01*
X0286812Y0015896D01*
X0285050Y0016625D01*
X0286352Y0016625D01*
X0286810Y0016748D01*
X0287220Y0016985D01*
X0287555Y0017320D01*
X0287792Y0017730D01*
X0287915Y0018188D01*
X0287915Y0021000D01*
X0287915Y0023812D01*
X0287792Y0024270D01*
X0287555Y0024680D01*
X0287220Y0025015D01*
X0286810Y0025252D01*
X0286352Y0025375D01*
X0283540Y0025375D01*
X0280729Y0025375D01*
X0280271Y0025252D01*
X0279860Y0025015D01*
X0279525Y0024680D01*
X0279288Y0024270D01*
X0279166Y0023812D01*
X0279166Y0022510D01*
X0278436Y0024271D01*
X0277540Y0025167D01*
X0277540Y0031796D01*
X0276931Y0033266D01*
X0261931Y0048266D01*
X0260806Y0049391D01*
X0259336Y0050000D01*
X0155197Y0050000D01*
X0137952Y0067245D01*
X0138436Y0067729D01*
X0138540Y0067981D01*
X0138645Y0067729D01*
X0140269Y0066104D01*
X0142392Y0065225D01*
X0144689Y0065225D01*
X0146812Y0066104D01*
X0148436Y0067729D01*
X0148540Y0067981D01*
X0148645Y0067729D01*
X0150269Y0066104D01*
X0152392Y0065225D01*
X0154689Y0065225D01*
X0156812Y0066104D01*
X0158436Y0067729D01*
X0158540Y0067981D01*
X0158645Y0067729D01*
X0160269Y0066104D01*
X0162392Y0065225D01*
X0164689Y0065225D01*
X0166812Y0066104D01*
X0168436Y0067729D01*
X0168540Y0067981D01*
X0168645Y0067729D01*
X0170269Y0066104D01*
X0172392Y0065225D01*
X0174689Y0065225D01*
X0176812Y0066104D01*
X0178436Y0067729D01*
X0178540Y0067981D01*
X0178645Y0067729D01*
X0180269Y0066104D01*
X0182392Y0065225D01*
X0184689Y0065225D01*
X0186812Y0066104D01*
X0188436Y0067729D01*
X0188540Y0067981D01*
X0188645Y0067729D01*
X0190269Y0066104D01*
X0192392Y0065225D01*
X0194689Y0065225D01*
X0196812Y0066104D01*
X0198436Y0067729D01*
X0198540Y0067981D01*
X0198645Y0067729D01*
X0200269Y0066104D01*
X0202392Y0065225D01*
X0204689Y0065225D01*
X0206812Y0066104D01*
X0208436Y0067729D01*
X0208540Y0067981D01*
X0208645Y0067729D01*
X0210269Y0066104D01*
X0212392Y0065225D01*
X0214689Y0065225D01*
X0216812Y0066104D01*
X0218436Y0067729D01*
X0218540Y0067981D01*
X0218645Y0067729D01*
X0220269Y0066104D01*
X0222392Y0065225D01*
X0224689Y0065225D01*
X0226812Y0066104D01*
X0228436Y0067729D01*
X0228540Y0067981D01*
X0228645Y0067729D01*
X0230269Y0066104D01*
X0232392Y0065225D01*
X0234689Y0065225D01*
X0236812Y0066104D01*
X0238436Y0067729D01*
X0238540Y0067981D01*
X0238645Y0067729D01*
X0240269Y0066104D01*
X0242392Y0065225D01*
X0244689Y0065225D01*
X0246812Y0066104D01*
X0248436Y0067729D01*
X0248540Y0067981D01*
X0248645Y0067729D01*
X0250269Y0066104D01*
X0252392Y0065225D01*
X0254689Y0065225D01*
X0256812Y0066104D01*
X0258436Y0067729D01*
X0258540Y0067981D01*
X0258645Y0067729D01*
X0260269Y0066104D01*
X0262392Y0065225D01*
X0264689Y0065225D01*
X0266812Y0066104D01*
X0268436Y0067729D01*
X0268540Y0067981D01*
X0268645Y0067729D01*
X0269540Y0066833D01*
X0269540Y0060204D01*
X0270149Y0058734D01*
X0275149Y0053734D01*
X0276275Y0052609D01*
X0277745Y0052000D01*
X0277766Y0052000D01*
X0277766Y0049851D01*
X0278645Y0047729D01*
X0280269Y0046104D01*
X0280521Y0046000D01*
X0280269Y0045896D01*
X0278645Y0044271D01*
X0277766Y0042149D01*
X0277766Y0039851D01*
X0278645Y0037729D01*
X0280269Y0036104D01*
X0282031Y0035375D01*
X0280729Y0035375D01*
X0280271Y0035252D01*
X0279860Y0035015D01*
X0279525Y0034680D01*
X0279288Y0034270D01*
X0279166Y0033812D01*
X0279166Y0031000D01*
X0279166Y0028188D01*
X0279288Y0027730D01*
X0279525Y0027320D01*
X0279860Y0026985D01*
X0280271Y0026748D01*
X0280729Y0026625D01*
X0283540Y0026625D01*
X0283540Y0031000D01*
X0283540Y0031000D01*
X0279166Y0031000D01*
X0283540Y0031000D01*
X0283540Y0031000D01*
X0283540Y0021000D01*
X0283540Y0025375D01*
X0283540Y0021000D01*
X0283540Y0021000D01*
X0287915Y0021000D01*
X0283540Y0021000D01*
X0283540Y0021000D01*
X0283540Y0021781D02*
X0283540Y0021781D01*
X0283540Y0023379D02*
X0283540Y0023379D01*
X0283540Y0024978D02*
X0283540Y0024978D01*
X0283540Y0026625D02*
X0286352Y0026625D01*
X0286810Y0026748D01*
X0287220Y0026985D01*
X0287555Y0027320D01*
X0287792Y0027730D01*
X0287915Y0028188D01*
X0287915Y0029490D01*
X0288645Y0027729D01*
X0290269Y0026104D01*
X0292392Y0025225D01*
X0294689Y0025225D01*
X0296812Y0026104D01*
X0298436Y0027729D01*
X0299315Y0029851D01*
X0299315Y0032149D01*
X0298436Y0034271D01*
X0296812Y0035896D01*
X0296560Y0036000D01*
X0296812Y0036104D01*
X0297707Y0037000D01*
X0304336Y0037000D01*
X0305806Y0037609D01*
X0306931Y0038734D01*
X0311931Y0043734D01*
X0312540Y0045204D01*
X0312540Y0066796D01*
X0311931Y0068266D01*
X0310806Y0069391D01*
X0309315Y0070882D01*
X0309315Y0072149D01*
X0308436Y0074271D01*
X0306812Y0075896D01*
X0304689Y0076775D01*
X0302392Y0076775D01*
X0300269Y0075896D01*
X0298645Y0074271D01*
X0298540Y0074019D01*
X0298436Y0074271D01*
X0297952Y0074755D01*
X0306263Y0083066D01*
X0307387Y0082600D01*
X0309694Y0082600D01*
X0311826Y0083483D01*
X0313457Y0085115D01*
X0314311Y0087177D01*
X0314463Y0086711D01*
X0314777Y0086094D01*
X0315184Y0085534D01*
X0315674Y0085044D01*
X0316234Y0084637D01*
X0316851Y0084322D01*
X0317510Y0084108D01*
X0318194Y0084000D01*
X0318540Y0084000D01*
X0318540Y0091000D01*
X0318540Y0098000D01*
X0318194Y0098000D01*
X0317510Y0097892D01*
X0316851Y0097678D01*
X0316234Y0097363D01*
X0315674Y0096956D01*
X0315184Y0096466D01*
X0314777Y0095906D01*
X0314463Y0095289D01*
X0314311Y0094823D01*
X0313602Y0096536D01*
X0313753Y0096687D01*
X0314240Y0097863D01*
X0314240Y0104137D01*
X0313753Y0105313D01*
X0312853Y0106213D01*
X0311677Y0106700D01*
X0305404Y0106700D01*
X0304228Y0106213D01*
X0303540Y0105525D01*
X0302853Y0106213D01*
X0301677Y0106700D01*
X0295404Y0106700D01*
X0294228Y0106213D01*
X0293540Y0105525D01*
X0292853Y0106213D01*
X0291677Y0106700D01*
X0285404Y0106700D01*
X0284228Y0106213D01*
X0283540Y0105525D01*
X0282853Y0106213D01*
X0281677Y0106700D01*
X0275404Y0106700D01*
X0274228Y0106213D01*
X0273328Y0105313D01*
X0272840Y0104137D01*
X0272840Y0097863D01*
X0273096Y0097247D01*
X0271826Y0098517D01*
X0269694Y0099400D01*
X0267387Y0099400D01*
X0265255Y0098517D01*
X0263985Y0097247D01*
X0264240Y0097863D01*
X0264240Y0104137D01*
X0263753Y0105313D01*
X0262853Y0106213D01*
X0261677Y0106700D01*
X0255404Y0106700D01*
X0254228Y0106213D01*
X0253540Y0105525D01*
X0252853Y0106213D01*
X0251677Y0106700D01*
X0245404Y0106700D01*
X0244228Y0106213D01*
X0243540Y0105525D01*
X0242853Y0106213D01*
X0241677Y0106700D01*
X0235404Y0106700D01*
X0234228Y0106213D01*
X0233328Y0105313D01*
X0232840Y0104137D01*
X0232840Y0097863D01*
X0233328Y0096687D01*
X0233479Y0096536D01*
X0232740Y0094754D01*
X0232740Y0091196D01*
X0225770Y0085000D01*
X0221346Y0085000D01*
X0221407Y0085044D01*
X0221896Y0085534D01*
X0222304Y0086094D01*
X0222618Y0086711D01*
X0222832Y0087370D01*
X0222940Y0088054D01*
X0222940Y0091000D01*
X0222940Y0093946D01*
X0222832Y0094630D01*
X0222618Y0095289D01*
X0222304Y0095906D01*
X0221896Y0096466D01*
X0221407Y0096956D01*
X0220846Y0097363D01*
X0220229Y0097678D01*
X0219571Y0097892D01*
X0218887Y0098000D01*
X0218540Y0098000D01*
X0218194Y0098000D01*
X0217510Y0097892D01*
X0216851Y0097678D01*
X0216234Y0097363D01*
X0215674Y0096956D01*
X0215184Y0096466D01*
X0214777Y0095906D01*
X0214463Y0095289D01*
X0214311Y0094823D01*
X0213602Y0096536D01*
X0213753Y0096687D01*
X0214240Y0097863D01*
X0214240Y0104137D01*
X0213753Y0105313D01*
X0212853Y0106213D01*
X0211677Y0106700D01*
X0205404Y0106700D01*
X0204228Y0106213D01*
X0203328Y0105313D01*
X0202840Y0104137D01*
X0202840Y0097863D01*
X0203096Y0097247D01*
X0201826Y0098517D01*
X0199694Y0099400D01*
X0197387Y0099400D01*
X0195255Y0098517D01*
X0193623Y0096885D01*
X0193540Y0096685D01*
X0193457Y0096885D01*
X0191826Y0098517D01*
X0189694Y0099400D01*
X0187387Y0099400D01*
X0185255Y0098517D01*
X0183623Y0096885D01*
X0183540Y0096685D01*
X0183457Y0096885D01*
X0181826Y0098517D01*
X0179694Y0099400D01*
X0177387Y0099400D01*
X0175255Y0098517D01*
X0173623Y0096885D01*
X0173540Y0096685D01*
X0173457Y0096885D01*
X0171826Y0098517D01*
X0169694Y0099400D01*
X0167387Y0099400D01*
X0165255Y0098517D01*
X0163985Y0097247D01*
X0164240Y0097863D01*
X0164240Y0104137D01*
X0163753Y0105313D01*
X0162853Y0106213D01*
X0161677Y0106700D01*
X0155404Y0106700D01*
X0154228Y0106213D01*
X0153540Y0105525D01*
X0152853Y0106213D01*
X0151677Y0106700D01*
X0145404Y0106700D01*
X0144228Y0106213D01*
X0143328Y0105313D01*
X0142840Y0104137D01*
X0142840Y0097863D01*
X0143096Y0097247D01*
X0141826Y0098517D01*
X0139694Y0099400D01*
X0137387Y0099400D01*
X0135255Y0098517D01*
X0133623Y0096885D01*
X0132842Y0095000D01*
X0127745Y0095000D01*
X0126275Y0094391D01*
X0125149Y0093266D01*
X0122940Y0091057D01*
X0122940Y0093946D01*
X0122832Y0094630D01*
X0122618Y0095289D01*
X0122304Y0095906D01*
X0121896Y0096466D01*
X0121407Y0096956D01*
X0120846Y0097363D01*
X0120229Y0097678D01*
X0119571Y0097892D01*
X0118887Y0098000D01*
X0118540Y0098000D01*
X0118194Y0098000D01*
X0117510Y0097892D01*
X0116851Y0097678D01*
X0116234Y0097363D01*
X0115674Y0096956D01*
X0115184Y0096466D01*
X0114777Y0095906D01*
X0114463Y0095289D01*
X0114311Y0094823D01*
X0113457Y0096885D01*
X0111826Y0098517D01*
X0109694Y0099400D01*
X0107387Y0099400D01*
X0105255Y0098517D01*
X0103985Y0097247D01*
X0104240Y0097863D01*
X0104240Y0104137D01*
X0103753Y0105313D01*
X0102853Y0106213D01*
X0101677Y0106700D01*
X0095404Y0106700D01*
X0094228Y0106213D01*
X0093540Y0105525D01*
X0092853Y0106213D01*
X0091677Y0106700D01*
X0085404Y0106700D01*
X0084228Y0106213D01*
X0083328Y0105313D01*
X0082840Y0104137D01*
X0082840Y0097863D01*
X0083096Y0097247D01*
X0081826Y0098517D01*
X0079694Y0099400D01*
X0077387Y0099400D01*
X0075255Y0098517D01*
X0073623Y0096885D01*
X0073540Y0096685D01*
X0073457Y0096885D01*
X0071826Y0098517D01*
X0069694Y0099400D01*
X0067387Y0099400D01*
X0065255Y0098517D01*
X0063623Y0096885D01*
X0063540Y0096685D01*
X0063457Y0096885D01*
X0061826Y0098517D01*
X0059694Y0099400D01*
X0057387Y0099400D01*
X0055255Y0098517D01*
X0053623Y0096885D01*
X0053540Y0096685D01*
X0053457Y0096885D01*
X0051826Y0098517D01*
X0049694Y0099400D01*
X0047387Y0099400D01*
X0045255Y0098517D01*
X0043623Y0096885D01*
X0043540Y0096685D01*
X0043457Y0096885D01*
X0041826Y0098517D01*
X0039694Y0099400D01*
X0037387Y0099400D01*
X0035255Y0098517D01*
X0033623Y0096885D01*
X0032740Y0094754D01*
X0032740Y0087246D01*
X0033623Y0085115D01*
X0034540Y0084198D01*
X0034540Y0060204D01*
X0035149Y0058734D01*
X0052525Y0041359D01*
X0053995Y0040750D01*
X0079383Y0040750D01*
X0085930Y0034204D01*
X0085427Y0034460D01*
X0084630Y0034719D01*
X0083802Y0034850D01*
X0083758Y0034850D01*
X0083758Y0026375D01*
X0088708Y0026375D01*
X0088708Y0029944D01*
X0088577Y0030772D01*
X0088318Y0031569D01*
X0088061Y0032072D01*
X0099540Y0020593D01*
X0099540Y0016454D01*
X0100149Y0014984D01*
X0101275Y0013859D01*
X0102745Y0013250D01*
X0107766Y0013250D01*
X0107766Y0007789D01*
X0108253Y0006613D01*
X0108865Y0006000D01*
X0043540Y0006000D01*
X0043540Y0021000D01*
X0028540Y0021000D01*
X0028540Y0151000D01*
X0040915Y0149662D02*
X0046166Y0149662D01*
X0043911Y0148063D02*
X0043169Y0148063D01*
X0050915Y0149662D02*
X0056166Y0149662D01*
X0053911Y0148063D02*
X0053169Y0148063D01*
X0060915Y0149662D02*
X0066166Y0149662D01*
X0063911Y0148063D02*
X0063169Y0148063D01*
X0070915Y0149662D02*
X0076166Y0149662D01*
X0073911Y0148063D02*
X0073169Y0148063D01*
X0080915Y0149662D02*
X0086166Y0149662D01*
X0083911Y0148063D02*
X0083169Y0148063D01*
X0090915Y0149662D02*
X0096166Y0149662D01*
X0093911Y0148063D02*
X0093169Y0148063D01*
X0100915Y0149662D02*
X0106166Y0149662D01*
X0103911Y0148063D02*
X0103169Y0148063D01*
X0110915Y0149662D02*
X0136166Y0149662D01*
X0135046Y0149198D02*
X0137313Y0150137D01*
X0139767Y0150137D01*
X0142035Y0149198D01*
X0143540Y0147692D01*
X0145046Y0149198D01*
X0147313Y0150137D01*
X0149767Y0150137D01*
X0152035Y0149198D01*
X0153540Y0147692D01*
X0155046Y0149198D01*
X0157313Y0150137D01*
X0159767Y0150137D01*
X0162035Y0149198D01*
X0163540Y0147692D01*
X0165046Y0149198D01*
X0167313Y0150137D01*
X0169767Y0150137D01*
X0172035Y0149198D01*
X0173540Y0147692D01*
X0175046Y0149198D01*
X0177313Y0150137D01*
X0179767Y0150137D01*
X0182035Y0149198D01*
X0183540Y0147692D01*
X0185046Y0149198D01*
X0187313Y0150137D01*
X0189767Y0150137D01*
X0192035Y0149198D01*
X0193540Y0147692D01*
X0195046Y0149198D01*
X0197313Y0150137D01*
X0199767Y0150137D01*
X0202035Y0149198D01*
X0203540Y0147692D01*
X0205046Y0149198D01*
X0207313Y0150137D01*
X0209767Y0150137D01*
X0212035Y0149198D01*
X0213770Y0147463D01*
X0214709Y0145195D01*
X0214709Y0136804D01*
X0213770Y0134537D01*
X0213340Y0134108D01*
X0213340Y0127002D01*
X0213457Y0126885D01*
X0213540Y0126685D01*
X0213623Y0126885D01*
X0215255Y0128517D01*
X0217387Y0129400D01*
X0219694Y0129400D01*
X0221826Y0128517D01*
X0223457Y0126885D01*
X0224340Y0124754D01*
X0224340Y0117246D01*
X0223457Y0115115D01*
X0221826Y0113483D01*
X0219694Y0112600D01*
X0217387Y0112600D01*
X0215255Y0113483D01*
X0213623Y0115115D01*
X0213540Y0115315D01*
X0213457Y0115115D01*
X0211826Y0113483D01*
X0209694Y0112600D01*
X0207387Y0112600D01*
X0205255Y0113483D01*
X0203623Y0115115D01*
X0203540Y0115315D01*
X0203457Y0115115D01*
X0201826Y0113483D01*
X0199694Y0112600D01*
X0197387Y0112600D01*
X0195255Y0113483D01*
X0193623Y0115115D01*
X0193540Y0115315D01*
X0193457Y0115115D01*
X0191826Y0113483D01*
X0189694Y0112600D01*
X0187387Y0112600D01*
X0185255Y0113483D01*
X0183623Y0115115D01*
X0183540Y0115315D01*
X0183457Y0115115D01*
X0181826Y0113483D01*
X0179694Y0112600D01*
X0177387Y0112600D01*
X0175255Y0113483D01*
X0173623Y0115115D01*
X0173540Y0115315D01*
X0173457Y0115115D01*
X0171826Y0113483D01*
X0169694Y0112600D01*
X0167387Y0112600D01*
X0165255Y0113483D01*
X0163623Y0115115D01*
X0163540Y0115315D01*
X0163457Y0115115D01*
X0161826Y0113483D01*
X0159694Y0112600D01*
X0157387Y0112600D01*
X0155255Y0113483D01*
X0153623Y0115115D01*
X0153540Y0115315D01*
X0153457Y0115115D01*
X0151826Y0113483D01*
X0149694Y0112600D01*
X0147387Y0112600D01*
X0145255Y0113483D01*
X0143623Y0115115D01*
X0143540Y0115315D01*
X0143457Y0115115D01*
X0141826Y0113483D01*
X0139694Y0112600D01*
X0137387Y0112600D01*
X0135255Y0113483D01*
X0133623Y0115115D01*
X0132740Y0117246D01*
X0132740Y0124754D01*
X0133623Y0126885D01*
X0133740Y0127002D01*
X0133740Y0134108D01*
X0133311Y0134537D01*
X0132372Y0136804D01*
X0132372Y0145195D01*
X0133311Y0147463D01*
X0135046Y0149198D01*
X0133911Y0148063D02*
X0113169Y0148063D01*
X0114183Y0146465D02*
X0132898Y0146465D01*
X0132372Y0144866D02*
X0114709Y0144866D01*
X0114709Y0143268D02*
X0132372Y0143268D01*
X0132372Y0141669D02*
X0114709Y0141669D01*
X0114709Y0140070D02*
X0132372Y0140070D01*
X0132372Y0138472D02*
X0114709Y0138472D01*
X0114709Y0136873D02*
X0132372Y0136873D01*
X0133005Y0135275D02*
X0114075Y0135275D01*
X0113340Y0133676D02*
X0133740Y0133676D01*
X0133740Y0132078D02*
X0113340Y0132078D01*
X0113340Y0130479D02*
X0133740Y0130479D01*
X0133740Y0128881D02*
X0120947Y0128881D01*
X0123060Y0127282D02*
X0133740Y0127282D01*
X0133126Y0125684D02*
X0123955Y0125684D01*
X0124340Y0124085D02*
X0132740Y0124085D01*
X0132740Y0122487D02*
X0124340Y0122487D01*
X0124340Y0120888D02*
X0132740Y0120888D01*
X0132740Y0119290D02*
X0124340Y0119290D01*
X0124340Y0117691D02*
X0132740Y0117691D01*
X0133218Y0116093D02*
X0123863Y0116093D01*
X0122837Y0114494D02*
X0134244Y0114494D01*
X0136673Y0112896D02*
X0120408Y0112896D01*
X0116673Y0112896D02*
X0110408Y0112896D01*
X0112837Y0114494D02*
X0114244Y0114494D01*
X0106673Y0112896D02*
X0100408Y0112896D01*
X0102837Y0114494D02*
X0104244Y0114494D01*
X0096673Y0112896D02*
X0090408Y0112896D01*
X0092837Y0114494D02*
X0094244Y0114494D01*
X0086673Y0112896D02*
X0080408Y0112896D01*
X0082837Y0114494D02*
X0084244Y0114494D01*
X0076673Y0112896D02*
X0070408Y0112896D01*
X0072837Y0114494D02*
X0074244Y0114494D01*
X0066673Y0112896D02*
X0060408Y0112896D01*
X0062837Y0114494D02*
X0064244Y0114494D01*
X0056673Y0112896D02*
X0050408Y0112896D01*
X0052837Y0114494D02*
X0054244Y0114494D01*
X0046673Y0112896D02*
X0040408Y0112896D01*
X0042837Y0114494D02*
X0044244Y0114494D01*
X0036673Y0112896D02*
X0028540Y0112896D01*
X0028540Y0114494D02*
X0034244Y0114494D01*
X0033218Y0116093D02*
X0028540Y0116093D01*
X0028540Y0117691D02*
X0032740Y0117691D01*
X0032740Y0119290D02*
X0028540Y0119290D01*
X0028540Y0111297D02*
X0333540Y0111297D01*
X0333540Y0109699D02*
X0028540Y0109699D01*
X0028540Y0108100D02*
X0333540Y0108100D01*
X0333540Y0106502D02*
X0312155Y0106502D01*
X0313923Y0104903D02*
X0333540Y0104903D01*
X0333540Y0103305D02*
X0314240Y0103305D01*
X0314240Y0101706D02*
X0333540Y0101706D01*
X0333540Y0100108D02*
X0314240Y0100108D01*
X0314240Y0098509D02*
X0333540Y0098509D01*
X0333540Y0096911D02*
X0321452Y0096911D01*
X0321407Y0096956D02*
X0320846Y0097363D01*
X0320229Y0097678D01*
X0319571Y0097892D01*
X0318887Y0098000D01*
X0318540Y0098000D01*
X0318540Y0091000D01*
X0318540Y0091000D01*
X0318540Y0091000D01*
X0318540Y0084000D01*
X0318887Y0084000D01*
X0319571Y0084108D01*
X0320229Y0084322D01*
X0320846Y0084637D01*
X0321407Y0085044D01*
X0321896Y0085534D01*
X0322304Y0086094D01*
X0322618Y0086711D01*
X0322832Y0087370D01*
X0322940Y0088054D01*
X0322940Y0091000D01*
X0322940Y0093946D01*
X0322832Y0094630D01*
X0322618Y0095289D01*
X0322304Y0095906D01*
X0321896Y0096466D01*
X0321407Y0096956D01*
X0322606Y0095312D02*
X0333540Y0095312D01*
X0333540Y0093714D02*
X0322940Y0093714D01*
X0322940Y0092115D02*
X0333540Y0092115D01*
X0333540Y0090517D02*
X0322940Y0090517D01*
X0322940Y0091000D02*
X0318540Y0091000D01*
X0322940Y0091000D01*
X0322940Y0088918D02*
X0333540Y0088918D01*
X0333540Y0087320D02*
X0322816Y0087320D01*
X0322033Y0085721D02*
X0333540Y0085721D01*
X0333540Y0084123D02*
X0319615Y0084123D01*
X0318540Y0084123D02*
X0318540Y0084123D01*
X0317466Y0084123D02*
X0312465Y0084123D01*
X0313709Y0085721D02*
X0315048Y0085721D01*
X0318540Y0085721D02*
X0318540Y0085721D01*
X0318540Y0087320D02*
X0318540Y0087320D01*
X0318540Y0088918D02*
X0318540Y0088918D01*
X0318540Y0090517D02*
X0318540Y0090517D01*
X0318540Y0091000D02*
X0318540Y0091000D01*
X0318540Y0092115D02*
X0318540Y0092115D01*
X0318540Y0093714D02*
X0318540Y0093714D01*
X0318540Y0095312D02*
X0318540Y0095312D01*
X0318540Y0096911D02*
X0318540Y0096911D01*
X0315628Y0096911D02*
X0313846Y0096911D01*
X0314109Y0095312D02*
X0314474Y0095312D01*
X0308540Y0091000D02*
X0293540Y0076000D01*
X0268540Y0076000D01*
X0263540Y0071000D01*
X0259835Y0066539D02*
X0257246Y0066539D01*
X0249835Y0066539D02*
X0247246Y0066539D01*
X0239835Y0066539D02*
X0237246Y0066539D01*
X0229835Y0066539D02*
X0227246Y0066539D01*
X0219835Y0066539D02*
X0217246Y0066539D01*
X0209835Y0066539D02*
X0207246Y0066539D01*
X0203540Y0071000D02*
X0208540Y0076000D01*
X0231040Y0076000D01*
X0236040Y0081000D01*
X0237290Y0081000D01*
X0248540Y0091000D01*
X0238540Y0091000D02*
X0227290Y0081000D01*
X0208540Y0081000D01*
X0203540Y0076000D01*
X0198540Y0076000D01*
X0193540Y0071000D01*
X0193540Y0076000D02*
X0188540Y0076000D01*
X0183540Y0071000D01*
X0183540Y0076000D02*
X0178540Y0076000D01*
X0173540Y0071000D01*
X0173540Y0076000D02*
X0168540Y0076000D01*
X0163540Y0071000D01*
X0163540Y0076000D02*
X0158540Y0076000D01*
X0153540Y0071000D01*
X0153540Y0076000D02*
X0148540Y0076000D01*
X0143540Y0071000D01*
X0139835Y0066539D02*
X0138658Y0066539D01*
X0140257Y0064940D02*
X0269540Y0064940D01*
X0269540Y0063342D02*
X0141855Y0063342D01*
X0143454Y0061743D02*
X0269540Y0061743D01*
X0269565Y0060145D02*
X0145052Y0060145D01*
X0146651Y0058546D02*
X0270337Y0058546D01*
X0271936Y0056948D02*
X0148249Y0056948D01*
X0149848Y0055349D02*
X0273534Y0055349D01*
X0275133Y0053751D02*
X0151446Y0053751D01*
X0153045Y0052152D02*
X0277377Y0052152D01*
X0277766Y0050554D02*
X0154643Y0050554D01*
X0153540Y0046000D02*
X0133540Y0066000D01*
X0133540Y0071000D01*
X0128540Y0076000D02*
X0128540Y0059750D01*
X0158540Y0029750D01*
X0243540Y0029750D01*
X0243540Y0011000D01*
X0233540Y0011000D02*
X0233053Y0011000D01*
X0232728Y0023825D01*
X0218481Y0023825D01*
X0209681Y0023875D01*
X0156040Y0023875D01*
X0113915Y0066000D01*
X0108540Y0066000D01*
X0108540Y0076000D01*
X0119293Y0076000D01*
X0127667Y0083124D01*
X0136768Y0083124D01*
X0136842Y0083050D01*
X0141840Y0083050D01*
X0148540Y0091000D01*
X0138540Y0091000D02*
X0128540Y0091000D01*
X0118540Y0081000D01*
X0108540Y0081000D01*
X0102290Y0074750D01*
X0102290Y0067250D01*
X0148540Y0021000D01*
X0148540Y0020325D01*
X0223728Y0020325D01*
X0223728Y0011000D01*
X0223540Y0011000D01*
X0213540Y0011000D02*
X0213540Y0016000D01*
X0143540Y0016000D01*
X0093540Y0066000D01*
X0093540Y0076000D01*
X0108540Y0091000D01*
X0114109Y0095312D02*
X0114474Y0095312D01*
X0113432Y0096911D02*
X0115628Y0096911D01*
X0118540Y0096911D02*
X0118540Y0096911D01*
X0118540Y0098000D02*
X0118540Y0091000D01*
X0118540Y0091000D01*
X0118540Y0098000D01*
X0121452Y0096911D02*
X0133649Y0096911D01*
X0132972Y0095312D02*
X0122606Y0095312D01*
X0122940Y0093714D02*
X0125597Y0093714D01*
X0123999Y0092115D02*
X0122940Y0092115D01*
X0118540Y0092115D02*
X0118540Y0092115D01*
X0118540Y0093714D02*
X0118540Y0093714D01*
X0118540Y0095312D02*
X0118540Y0095312D01*
X0111834Y0098509D02*
X0135247Y0098509D01*
X0141834Y0098509D02*
X0142840Y0098509D01*
X0142840Y0100108D02*
X0104240Y0100108D01*
X0104240Y0101706D02*
X0142840Y0101706D01*
X0142840Y0103305D02*
X0104240Y0103305D01*
X0103923Y0104903D02*
X0143158Y0104903D01*
X0144925Y0106502D02*
X0102155Y0106502D01*
X0094925Y0106502D02*
X0092155Y0106502D01*
X0084925Y0106502D02*
X0028540Y0106502D01*
X0028540Y0104903D02*
X0083158Y0104903D01*
X0082840Y0103305D02*
X0028540Y0103305D01*
X0028540Y0101706D02*
X0082840Y0101706D01*
X0082840Y0100108D02*
X0028540Y0100108D01*
X0028540Y0098509D02*
X0035247Y0098509D01*
X0033649Y0096911D02*
X0028540Y0096911D01*
X0028540Y0095312D02*
X0032972Y0095312D01*
X0032740Y0093714D02*
X0028540Y0093714D01*
X0028540Y0092115D02*
X0032740Y0092115D01*
X0032740Y0090517D02*
X0028540Y0090517D01*
X0028540Y0088918D02*
X0032740Y0088918D01*
X0032740Y0087320D02*
X0028540Y0087320D01*
X0028540Y0085721D02*
X0033372Y0085721D01*
X0034540Y0084123D02*
X0028540Y0084123D01*
X0028540Y0082524D02*
X0034540Y0082524D01*
X0034540Y0080926D02*
X0028540Y0080926D01*
X0028540Y0079327D02*
X0034540Y0079327D01*
X0034540Y0077729D02*
X0028540Y0077729D01*
X0028540Y0076130D02*
X0034540Y0076130D01*
X0034540Y0074532D02*
X0028540Y0074532D01*
X0028540Y0072933D02*
X0034540Y0072933D01*
X0034540Y0071334D02*
X0028540Y0071334D01*
X0028540Y0069736D02*
X0034540Y0069736D01*
X0034540Y0068137D02*
X0028540Y0068137D01*
X0028540Y0066539D02*
X0034540Y0066539D01*
X0034540Y0064940D02*
X0028540Y0064940D01*
X0028540Y0063342D02*
X0034540Y0063342D01*
X0034540Y0061743D02*
X0028540Y0061743D01*
X0028540Y0060145D02*
X0034565Y0060145D01*
X0035337Y0058546D02*
X0028540Y0058546D01*
X0028540Y0056948D02*
X0036936Y0056948D01*
X0038534Y0055349D02*
X0028540Y0055349D01*
X0028540Y0053751D02*
X0040133Y0053751D01*
X0041731Y0052152D02*
X0028540Y0052152D01*
X0028540Y0050554D02*
X0043330Y0050554D01*
X0044928Y0048955D02*
X0028540Y0048955D01*
X0028540Y0047357D02*
X0046527Y0047357D01*
X0048125Y0045758D02*
X0028540Y0045758D01*
X0028540Y0044160D02*
X0049724Y0044160D01*
X0051322Y0042561D02*
X0028540Y0042561D01*
X0028540Y0040963D02*
X0053481Y0040963D01*
X0054790Y0044750D02*
X0038540Y0061000D01*
X0038540Y0091000D01*
X0048540Y0091000D02*
X0048540Y0071000D01*
X0063540Y0071000D01*
X0113540Y0021000D01*
X0121040Y0021000D01*
X0133540Y0011000D01*
X0123540Y0011000D02*
X0117290Y0017250D01*
X0103540Y0017250D01*
X0103540Y0022250D01*
X0081040Y0044750D01*
X0054790Y0044750D01*
X0059888Y0035226D02*
X0062360Y0036250D01*
X0065036Y0036250D01*
X0067507Y0035226D01*
X0069399Y0033334D01*
X0070423Y0030863D01*
X0070423Y0021137D01*
X0069399Y0018666D01*
X0067507Y0016774D01*
X0065036Y0015750D01*
X0062360Y0015750D01*
X0059888Y0016774D01*
X0057997Y0018666D01*
X0056973Y0021137D01*
X0056973Y0030863D01*
X0057997Y0033334D01*
X0059888Y0035226D01*
X0059231Y0034569D02*
X0028540Y0034569D01*
X0028540Y0036167D02*
X0062160Y0036167D01*
X0065235Y0036167D02*
X0083966Y0036167D01*
X0083758Y0034569D02*
X0083008Y0034569D01*
X0083008Y0034850D02*
X0082964Y0034850D01*
X0082136Y0034719D01*
X0081339Y0034460D01*
X0080592Y0034079D01*
X0079914Y0033587D01*
X0079321Y0032994D01*
X0078829Y0032316D01*
X0078448Y0031569D01*
X0078189Y0030772D01*
X0078058Y0029944D01*
X0078058Y0026375D01*
X0083008Y0026375D01*
X0083008Y0034850D01*
X0081674Y0034569D02*
X0068165Y0034569D01*
X0069550Y0032970D02*
X0079304Y0032970D01*
X0083008Y0032970D02*
X0083758Y0032970D01*
X0085092Y0034569D02*
X0085565Y0034569D01*
X0082368Y0037766D02*
X0028540Y0037766D01*
X0028540Y0039364D02*
X0080769Y0039364D01*
X0083008Y0031372D02*
X0083758Y0031372D01*
X0083758Y0029773D02*
X0083008Y0029773D01*
X0083008Y0028175D02*
X0083758Y0028175D01*
X0083758Y0026576D02*
X0083008Y0026576D01*
X0083008Y0026375D02*
X0083758Y0026375D01*
X0083758Y0025625D01*
X0088708Y0025625D01*
X0088708Y0022056D01*
X0088577Y0021228D01*
X0088318Y0020431D01*
X0087937Y0019684D01*
X0087445Y0019006D01*
X0086852Y0018413D01*
X0086174Y0017921D01*
X0085427Y0017540D01*
X0084630Y0017281D01*
X0083802Y0017150D01*
X0083758Y0017150D01*
X0083758Y0025625D01*
X0083008Y0025625D01*
X0083008Y0017150D01*
X0082964Y0017150D01*
X0082136Y0017281D01*
X0081339Y0017540D01*
X0080592Y0017921D01*
X0079914Y0018413D01*
X0079321Y0019006D01*
X0078829Y0019684D01*
X0078448Y0020431D01*
X0078189Y0021228D01*
X0078058Y0022056D01*
X0078058Y0025625D01*
X0083008Y0025625D01*
X0083008Y0026375D01*
X0083008Y0024978D02*
X0083758Y0024978D01*
X0083758Y0023379D02*
X0083008Y0023379D01*
X0083008Y0021781D02*
X0083758Y0021781D01*
X0083758Y0020182D02*
X0083008Y0020182D01*
X0083008Y0018584D02*
X0083758Y0018584D01*
X0087022Y0018584D02*
X0099540Y0018584D01*
X0099540Y0020182D02*
X0088191Y0020182D01*
X0088664Y0021781D02*
X0098353Y0021781D01*
X0096754Y0023379D02*
X0088708Y0023379D01*
X0088708Y0024978D02*
X0095156Y0024978D01*
X0093557Y0026576D02*
X0088708Y0026576D01*
X0088708Y0028175D02*
X0091959Y0028175D01*
X0090360Y0029773D02*
X0088708Y0029773D01*
X0088762Y0031372D02*
X0088382Y0031372D01*
X0078384Y0031372D02*
X0070212Y0031372D01*
X0070423Y0029773D02*
X0078058Y0029773D01*
X0078058Y0028175D02*
X0070423Y0028175D01*
X0070423Y0026576D02*
X0078058Y0026576D01*
X0078058Y0024978D02*
X0070423Y0024978D01*
X0070423Y0023379D02*
X0078058Y0023379D01*
X0078101Y0021781D02*
X0070423Y0021781D01*
X0070027Y0020182D02*
X0078575Y0020182D01*
X0079744Y0018584D02*
X0069317Y0018584D01*
X0067719Y0016985D02*
X0099540Y0016985D01*
X0099983Y0015387D02*
X0043540Y0015387D01*
X0043540Y0016985D02*
X0059677Y0016985D01*
X0058079Y0018584D02*
X0043540Y0018584D01*
X0043540Y0020182D02*
X0057368Y0020182D01*
X0056973Y0021781D02*
X0028540Y0021781D01*
X0028540Y0023379D02*
X0056973Y0023379D01*
X0056973Y0024978D02*
X0028540Y0024978D01*
X0028540Y0026576D02*
X0056973Y0026576D01*
X0056973Y0028175D02*
X0028540Y0028175D01*
X0028540Y0029773D02*
X0056973Y0029773D01*
X0057184Y0031372D02*
X0028540Y0031372D01*
X0028540Y0032970D02*
X0057846Y0032970D01*
X0043540Y0013788D02*
X0101446Y0013788D01*
X0107766Y0012190D02*
X0043540Y0012190D01*
X0043540Y0010591D02*
X0107766Y0010591D01*
X0107766Y0008993D02*
X0043540Y0008993D01*
X0043540Y0007394D02*
X0107929Y0007394D01*
X0124790Y0024750D02*
X0068540Y0081000D01*
X0058540Y0081000D01*
X0058540Y0091000D01*
X0053649Y0096911D02*
X0053432Y0096911D01*
X0051834Y0098509D02*
X0055247Y0098509D01*
X0061834Y0098509D02*
X0065247Y0098509D01*
X0063649Y0096911D02*
X0063432Y0096911D01*
X0071834Y0098509D02*
X0075247Y0098509D01*
X0073649Y0096911D02*
X0073432Y0096911D01*
X0081834Y0098509D02*
X0082840Y0098509D01*
X0104240Y0098509D02*
X0105247Y0098509D01*
X0140408Y0112896D02*
X0146673Y0112896D01*
X0144244Y0114494D02*
X0142837Y0114494D01*
X0150408Y0112896D02*
X0156673Y0112896D01*
X0154244Y0114494D02*
X0152837Y0114494D01*
X0160408Y0112896D02*
X0166673Y0112896D01*
X0164244Y0114494D02*
X0162837Y0114494D01*
X0170408Y0112896D02*
X0176673Y0112896D01*
X0174244Y0114494D02*
X0172837Y0114494D01*
X0180408Y0112896D02*
X0186673Y0112896D01*
X0184244Y0114494D02*
X0182837Y0114494D01*
X0190408Y0112896D02*
X0196673Y0112896D01*
X0194244Y0114494D02*
X0192837Y0114494D01*
X0200408Y0112896D02*
X0206673Y0112896D01*
X0204244Y0114494D02*
X0202837Y0114494D01*
X0210408Y0112896D02*
X0216673Y0112896D01*
X0214244Y0114494D02*
X0212837Y0114494D01*
X0220408Y0112896D02*
X0236673Y0112896D01*
X0234244Y0114494D02*
X0222837Y0114494D01*
X0223863Y0116093D02*
X0233218Y0116093D01*
X0232740Y0117691D02*
X0224340Y0117691D01*
X0224340Y0119290D02*
X0232740Y0119290D01*
X0232740Y0120888D02*
X0224340Y0120888D01*
X0224340Y0122487D02*
X0232740Y0122487D01*
X0232740Y0124085D02*
X0224340Y0124085D01*
X0223955Y0125684D02*
X0233126Y0125684D01*
X0233740Y0127282D02*
X0223060Y0127282D01*
X0220947Y0128881D02*
X0233740Y0128881D01*
X0233740Y0130479D02*
X0213340Y0130479D01*
X0213340Y0128881D02*
X0216133Y0128881D01*
X0214020Y0127282D02*
X0213340Y0127282D01*
X0213340Y0132078D02*
X0233740Y0132078D01*
X0233740Y0133676D02*
X0213340Y0133676D01*
X0214075Y0135275D02*
X0233005Y0135275D01*
X0232372Y0136873D02*
X0214709Y0136873D01*
X0214709Y0138472D02*
X0232372Y0138472D01*
X0232372Y0140070D02*
X0214709Y0140070D01*
X0214709Y0141669D02*
X0232372Y0141669D01*
X0232372Y0143268D02*
X0214709Y0143268D01*
X0214709Y0144866D02*
X0232372Y0144866D01*
X0232898Y0146465D02*
X0214183Y0146465D01*
X0213169Y0148063D02*
X0233911Y0148063D01*
X0236166Y0149662D02*
X0210915Y0149662D01*
X0206166Y0149662D02*
X0200915Y0149662D01*
X0203169Y0148063D02*
X0203911Y0148063D01*
X0196166Y0149662D02*
X0190915Y0149662D01*
X0193169Y0148063D02*
X0193911Y0148063D01*
X0186166Y0149662D02*
X0180915Y0149662D01*
X0183169Y0148063D02*
X0183911Y0148063D01*
X0176166Y0149662D02*
X0170915Y0149662D01*
X0173169Y0148063D02*
X0173911Y0148063D01*
X0166166Y0149662D02*
X0160915Y0149662D01*
X0163169Y0148063D02*
X0163911Y0148063D01*
X0156166Y0149662D02*
X0150915Y0149662D01*
X0153169Y0148063D02*
X0153911Y0148063D01*
X0146166Y0149662D02*
X0140915Y0149662D01*
X0143169Y0148063D02*
X0143911Y0148063D01*
X0116133Y0128881D02*
X0113340Y0128881D01*
X0113340Y0127282D02*
X0114020Y0127282D01*
X0152155Y0106502D02*
X0154925Y0106502D01*
X0162155Y0106502D02*
X0204925Y0106502D01*
X0203158Y0104903D02*
X0163923Y0104903D01*
X0164240Y0103305D02*
X0202840Y0103305D01*
X0202840Y0101706D02*
X0164240Y0101706D01*
X0164240Y0100108D02*
X0202840Y0100108D01*
X0202840Y0098509D02*
X0201834Y0098509D01*
X0195247Y0098509D02*
X0191834Y0098509D01*
X0193432Y0096911D02*
X0193649Y0096911D01*
X0185247Y0098509D02*
X0181834Y0098509D01*
X0183432Y0096911D02*
X0183649Y0096911D01*
X0175247Y0098509D02*
X0171834Y0098509D01*
X0173432Y0096911D02*
X0173649Y0096911D01*
X0165247Y0098509D02*
X0164240Y0098509D01*
X0168540Y0091000D02*
X0153540Y0076000D01*
X0147290Y0078500D02*
X0158540Y0091000D01*
X0163540Y0076000D02*
X0178540Y0091000D01*
X0188540Y0091000D02*
X0173540Y0076000D01*
X0183540Y0076000D02*
X0198540Y0091000D01*
X0208540Y0091000D02*
X0193540Y0076000D01*
X0189835Y0066539D02*
X0187246Y0066539D01*
X0179835Y0066539D02*
X0177246Y0066539D01*
X0169835Y0066539D02*
X0167246Y0066539D01*
X0159835Y0066539D02*
X0157246Y0066539D01*
X0149835Y0066539D02*
X0147246Y0066539D01*
X0132290Y0078500D02*
X0128540Y0076000D01*
X0132290Y0078500D02*
X0147290Y0078500D01*
X0123540Y0071000D02*
X0123540Y0066625D01*
X0123540Y0071000D01*
X0123540Y0071000D01*
X0123540Y0069736D02*
X0123540Y0069736D01*
X0123540Y0068137D02*
X0123540Y0068137D01*
X0123540Y0066625D02*
X0123885Y0066625D01*
X0124540Y0066729D01*
X0124540Y0061032D01*
X0118866Y0066706D01*
X0119315Y0067789D01*
X0119315Y0069847D01*
X0119486Y0069321D01*
X0119799Y0068707D01*
X0120203Y0068150D01*
X0120690Y0067663D01*
X0121247Y0067258D01*
X0121861Y0066946D01*
X0122516Y0066733D01*
X0123196Y0066625D01*
X0123540Y0066625D01*
X0124540Y0066539D02*
X0119033Y0066539D01*
X0119315Y0068137D02*
X0120216Y0068137D01*
X0119351Y0069736D02*
X0119315Y0069736D01*
X0120632Y0064940D02*
X0124540Y0064940D01*
X0124540Y0063342D02*
X0122230Y0063342D01*
X0123829Y0061743D02*
X0124540Y0061743D01*
X0153540Y0046000D02*
X0258540Y0046000D01*
X0273540Y0031000D01*
X0273540Y0021000D01*
X0277729Y0024978D02*
X0279823Y0024978D01*
X0279166Y0023379D02*
X0278805Y0023379D01*
X0277540Y0026576D02*
X0289797Y0026576D01*
X0288460Y0028175D02*
X0287912Y0028175D01*
X0283540Y0028175D02*
X0283540Y0028175D01*
X0283540Y0026625D02*
X0283540Y0031000D01*
X0283540Y0029773D02*
X0283540Y0029773D01*
X0279166Y0029773D02*
X0277540Y0029773D01*
X0277540Y0028175D02*
X0279169Y0028175D01*
X0279166Y0031372D02*
X0277540Y0031372D01*
X0277054Y0032970D02*
X0279166Y0032970D01*
X0279461Y0034569D02*
X0275628Y0034569D01*
X0274030Y0036167D02*
X0280206Y0036167D01*
X0278629Y0037766D02*
X0272431Y0037766D01*
X0270833Y0039364D02*
X0277967Y0039364D01*
X0277766Y0040963D02*
X0269234Y0040963D01*
X0267636Y0042561D02*
X0277936Y0042561D01*
X0278599Y0044160D02*
X0266037Y0044160D01*
X0264439Y0045758D02*
X0280132Y0045758D01*
X0279017Y0047357D02*
X0262840Y0047357D01*
X0261242Y0048955D02*
X0278137Y0048955D01*
X0283540Y0051000D02*
X0288540Y0046000D01*
X0298540Y0046000D01*
X0303540Y0051000D01*
X0303540Y0061000D01*
X0293540Y0071000D01*
X0298176Y0074532D02*
X0298905Y0074532D01*
X0299327Y0076130D02*
X0300835Y0076130D01*
X0300926Y0077729D02*
X0333540Y0077729D01*
X0333540Y0079327D02*
X0302524Y0079327D01*
X0304123Y0080926D02*
X0333540Y0080926D01*
X0333540Y0082524D02*
X0305721Y0082524D01*
X0306246Y0076130D02*
X0333540Y0076130D01*
X0333540Y0074532D02*
X0308176Y0074532D01*
X0308990Y0072933D02*
X0333540Y0072933D01*
X0333540Y0071334D02*
X0309315Y0071334D01*
X0310461Y0069736D02*
X0333540Y0069736D01*
X0333540Y0068137D02*
X0311985Y0068137D01*
X0312540Y0066539D02*
X0333540Y0066539D01*
X0333540Y0064940D02*
X0312540Y0064940D01*
X0312540Y0063342D02*
X0333540Y0063342D01*
X0333540Y0061743D02*
X0312540Y0061743D01*
X0312540Y0060145D02*
X0333540Y0060145D01*
X0333540Y0058546D02*
X0312540Y0058546D01*
X0312540Y0056948D02*
X0333540Y0056948D01*
X0333540Y0055349D02*
X0312540Y0055349D01*
X0312540Y0053751D02*
X0333540Y0053751D01*
X0333540Y0052152D02*
X0312540Y0052152D01*
X0312540Y0050554D02*
X0333540Y0050554D01*
X0333540Y0048955D02*
X0312540Y0048955D01*
X0312540Y0047357D02*
X0333540Y0047357D01*
X0333540Y0045758D02*
X0312540Y0045758D01*
X0312108Y0044160D02*
X0333540Y0044160D01*
X0333540Y0042561D02*
X0310758Y0042561D01*
X0309160Y0040963D02*
X0333540Y0040963D01*
X0333540Y0039364D02*
X0307561Y0039364D01*
X0306931Y0038734D02*
X0306931Y0038734D01*
X0305963Y0037766D02*
X0333540Y0037766D01*
X0333540Y0036167D02*
X0296874Y0036167D01*
X0298138Y0034569D02*
X0333540Y0034569D01*
X0333540Y0032970D02*
X0298975Y0032970D01*
X0299315Y0031372D02*
X0333540Y0031372D01*
X0333540Y0029773D02*
X0299283Y0029773D01*
X0298621Y0028175D02*
X0333540Y0028175D01*
X0333540Y0026576D02*
X0297283Y0026576D01*
X0287915Y0023379D02*
X0313540Y0023379D01*
X0313540Y0021781D02*
X0287915Y0021781D01*
X0287915Y0020182D02*
X0313540Y0020182D01*
X0313540Y0018584D02*
X0287915Y0018584D01*
X0287221Y0016985D02*
X0313540Y0016985D01*
X0313540Y0015387D02*
X0287321Y0015387D01*
X0288636Y0013788D02*
X0290158Y0013788D01*
X0289327Y0012190D02*
X0289298Y0012190D01*
X0293540Y0012190D02*
X0293540Y0012190D01*
X0293540Y0011000D02*
X0293540Y0011000D01*
X0293540Y0011000D01*
X0293540Y0015375D01*
X0293885Y0015375D01*
X0294565Y0015267D01*
X0295220Y0015054D01*
X0295833Y0014742D01*
X0296390Y0014337D01*
X0296877Y0013850D01*
X0297282Y0013293D01*
X0297595Y0012679D01*
X0297807Y0012024D01*
X0297915Y0011344D01*
X0297915Y0011000D01*
X0293540Y0011000D01*
X0293540Y0006625D01*
X0293885Y0006625D01*
X0294565Y0006733D01*
X0295220Y0006946D01*
X0295833Y0007258D01*
X0296390Y0007663D01*
X0296877Y0008150D01*
X0297282Y0008707D01*
X0297595Y0009321D01*
X0297807Y0009976D01*
X0297915Y0010656D01*
X0297915Y0011000D01*
X0293540Y0011000D01*
X0293540Y0011000D01*
X0293540Y0010591D02*
X0293540Y0010591D01*
X0293540Y0008993D02*
X0293540Y0008993D01*
X0293540Y0007394D02*
X0293540Y0007394D01*
X0291061Y0007394D02*
X0288101Y0007394D01*
X0288959Y0008993D02*
X0289653Y0008993D01*
X0283540Y0011000D02*
X0278540Y0016000D01*
X0268540Y0016000D01*
X0268540Y0026000D01*
X0258540Y0036000D01*
X0173540Y0036000D01*
X0143540Y0011000D02*
X0126040Y0024750D01*
X0124790Y0024750D01*
X0197246Y0066539D02*
X0199835Y0066539D01*
X0233540Y0071000D02*
X0243540Y0081000D01*
X0273540Y0081000D01*
X0278540Y0091000D01*
X0272840Y0098509D02*
X0271834Y0098509D01*
X0272840Y0100108D02*
X0264240Y0100108D01*
X0264240Y0101706D02*
X0272840Y0101706D01*
X0272840Y0103305D02*
X0264240Y0103305D01*
X0263923Y0104903D02*
X0273158Y0104903D01*
X0274925Y0106502D02*
X0262155Y0106502D01*
X0254925Y0106502D02*
X0252155Y0106502D01*
X0244925Y0106502D02*
X0242155Y0106502D01*
X0234925Y0106502D02*
X0212155Y0106502D01*
X0213923Y0104903D02*
X0233158Y0104903D01*
X0232840Y0103305D02*
X0214240Y0103305D01*
X0214240Y0101706D02*
X0232840Y0101706D01*
X0232840Y0100108D02*
X0214240Y0100108D01*
X0214240Y0098509D02*
X0232840Y0098509D01*
X0233235Y0096911D02*
X0221452Y0096911D01*
X0222606Y0095312D02*
X0232972Y0095312D01*
X0232740Y0093714D02*
X0222940Y0093714D01*
X0222940Y0092115D02*
X0232740Y0092115D01*
X0231976Y0090517D02*
X0222940Y0090517D01*
X0222940Y0091000D02*
X0218540Y0091000D01*
X0218540Y0098000D01*
X0218540Y0091000D01*
X0218540Y0091000D01*
X0222940Y0091000D01*
X0222940Y0088918D02*
X0230177Y0088918D01*
X0228379Y0087320D02*
X0222816Y0087320D01*
X0222033Y0085721D02*
X0226581Y0085721D01*
X0218540Y0091000D02*
X0218540Y0091000D01*
X0218540Y0092115D02*
X0218540Y0092115D01*
X0218540Y0093714D02*
X0218540Y0093714D01*
X0218540Y0095312D02*
X0218540Y0095312D01*
X0218540Y0096911D02*
X0218540Y0096911D01*
X0215628Y0096911D02*
X0213846Y0096911D01*
X0214109Y0095312D02*
X0214474Y0095312D01*
X0240408Y0112896D02*
X0246673Y0112896D01*
X0244244Y0114494D02*
X0242837Y0114494D01*
X0250408Y0112896D02*
X0256673Y0112896D01*
X0254244Y0114494D02*
X0252837Y0114494D01*
X0260408Y0112896D02*
X0266673Y0112896D01*
X0264244Y0114494D02*
X0262837Y0114494D01*
X0270408Y0112896D02*
X0276673Y0112896D01*
X0274244Y0114494D02*
X0272837Y0114494D01*
X0280408Y0112896D02*
X0286673Y0112896D01*
X0284244Y0114494D02*
X0282837Y0114494D01*
X0290408Y0112896D02*
X0296673Y0112896D01*
X0294244Y0114494D02*
X0292837Y0114494D01*
X0300408Y0112896D02*
X0306673Y0112896D01*
X0304244Y0114494D02*
X0302837Y0114494D01*
X0310408Y0112896D02*
X0316673Y0112896D01*
X0314244Y0114494D02*
X0312837Y0114494D01*
X0320408Y0112896D02*
X0333540Y0112896D01*
X0333540Y0114494D02*
X0322837Y0114494D01*
X0323863Y0116093D02*
X0333540Y0116093D01*
X0333540Y0117691D02*
X0324340Y0117691D01*
X0324340Y0119290D02*
X0333540Y0119290D01*
X0333540Y0120888D02*
X0324340Y0120888D01*
X0324340Y0122487D02*
X0333540Y0122487D01*
X0333540Y0124085D02*
X0324340Y0124085D01*
X0323955Y0125684D02*
X0333540Y0125684D01*
X0333540Y0127282D02*
X0323060Y0127282D01*
X0320947Y0128881D02*
X0333540Y0128881D01*
X0333540Y0130479D02*
X0313340Y0130479D01*
X0313340Y0128881D02*
X0316133Y0128881D01*
X0314020Y0127282D02*
X0313340Y0127282D01*
X0313340Y0132078D02*
X0313540Y0132078D01*
X0313540Y0133676D02*
X0313340Y0133676D01*
X0313169Y0148063D02*
X0313540Y0148063D01*
X0313540Y0149662D02*
X0310915Y0149662D01*
X0306166Y0149662D02*
X0300915Y0149662D01*
X0303169Y0148063D02*
X0303911Y0148063D01*
X0296166Y0149662D02*
X0290915Y0149662D01*
X0293169Y0148063D02*
X0293911Y0148063D01*
X0286166Y0149662D02*
X0280915Y0149662D01*
X0283169Y0148063D02*
X0283911Y0148063D01*
X0276166Y0149662D02*
X0270915Y0149662D01*
X0273169Y0148063D02*
X0273911Y0148063D01*
X0266166Y0149662D02*
X0260915Y0149662D01*
X0263169Y0148063D02*
X0263911Y0148063D01*
X0256166Y0149662D02*
X0250915Y0149662D01*
X0253169Y0148063D02*
X0253911Y0148063D01*
X0246166Y0149662D02*
X0240915Y0149662D01*
X0243169Y0148063D02*
X0243911Y0148063D01*
X0282155Y0106502D02*
X0284925Y0106502D01*
X0292155Y0106502D02*
X0294925Y0106502D01*
X0302155Y0106502D02*
X0304925Y0106502D01*
X0265247Y0098509D02*
X0264240Y0098509D01*
X0273540Y0071000D02*
X0273540Y0061000D01*
X0278540Y0056000D01*
X0288540Y0056000D01*
X0293540Y0051000D01*
X0303540Y0041000D02*
X0308540Y0046000D01*
X0308540Y0066000D01*
X0303540Y0071000D01*
X0310806Y0069391D02*
X0310806Y0069391D01*
X0283540Y0071000D02*
X0283540Y0061000D01*
X0269540Y0066539D02*
X0267246Y0066539D01*
X0293540Y0041000D02*
X0303540Y0041000D01*
X0313540Y0024978D02*
X0287258Y0024978D01*
X0300203Y0013850D02*
X0300690Y0014337D01*
X0301247Y0014742D01*
X0301861Y0015054D01*
X0302516Y0015267D01*
X0303196Y0015375D01*
X0303540Y0015375D01*
X0303540Y0011000D01*
X0303540Y0011000D01*
X0299166Y0011000D01*
X0299166Y0010656D01*
X0299273Y0009976D01*
X0299486Y0009321D01*
X0299799Y0008707D01*
X0300203Y0008150D01*
X0300690Y0007663D01*
X0301247Y0007258D01*
X0301861Y0006946D01*
X0302516Y0006733D01*
X0303196Y0006625D01*
X0303540Y0006625D01*
X0303540Y0011000D01*
X0299166Y0011000D01*
X0299166Y0011344D01*
X0299273Y0012024D01*
X0299486Y0012679D01*
X0299799Y0013293D01*
X0300203Y0013850D01*
X0300158Y0013788D02*
X0296922Y0013788D01*
X0297754Y0012190D02*
X0299327Y0012190D01*
X0299176Y0010591D02*
X0297905Y0010591D01*
X0297427Y0008993D02*
X0299653Y0008993D01*
X0301061Y0007394D02*
X0296020Y0007394D01*
X0303540Y0007394D02*
X0303540Y0007394D01*
X0303540Y0006625D02*
X0303885Y0006625D01*
X0304565Y0006733D01*
X0305220Y0006946D01*
X0305833Y0007258D01*
X0306390Y0007663D01*
X0306877Y0008150D01*
X0307282Y0008707D01*
X0307595Y0009321D01*
X0307807Y0009976D01*
X0307915Y0010656D01*
X0307915Y0011000D01*
X0307915Y0011344D01*
X0307807Y0012024D01*
X0307595Y0012679D01*
X0307282Y0013293D01*
X0306877Y0013850D01*
X0306390Y0014337D01*
X0305833Y0014742D01*
X0305220Y0015054D01*
X0304565Y0015267D01*
X0303885Y0015375D01*
X0303540Y0015375D01*
X0303540Y0011000D01*
X0303540Y0011000D01*
X0303540Y0011000D01*
X0303540Y0006625D01*
X0303540Y0008993D02*
X0303540Y0008993D01*
X0303540Y0010591D02*
X0303540Y0010591D01*
X0303540Y0011000D02*
X0303540Y0011000D01*
X0307915Y0011000D01*
X0303540Y0011000D01*
X0303540Y0012190D02*
X0303540Y0012190D01*
X0303540Y0013788D02*
X0303540Y0013788D01*
X0306922Y0013788D02*
X0313540Y0013788D01*
X0313540Y0012190D02*
X0307754Y0012190D01*
X0307905Y0010591D02*
X0313540Y0010591D01*
X0313540Y0008993D02*
X0307427Y0008993D01*
X0306020Y0007394D02*
X0313540Y0007394D01*
X0293540Y0013788D02*
X0293540Y0013788D01*
X0045247Y0098509D02*
X0041834Y0098509D01*
X0043432Y0096911D02*
X0043649Y0096911D01*
D18*
X0123540Y0141000D03*
X0223540Y0141000D03*
X0323540Y0036000D03*
X0033540Y0031000D03*
D19*
X0088540Y0101000D03*
X0098540Y0101000D03*
X0098540Y0111000D03*
X0088540Y0111000D03*
X0148540Y0111000D03*
X0158540Y0111000D03*
X0158540Y0101000D03*
X0148540Y0101000D03*
X0208540Y0101000D03*
X0208540Y0111000D03*
X0238540Y0111000D03*
X0248540Y0111000D03*
X0258540Y0111000D03*
X0258540Y0101000D03*
X0248540Y0101000D03*
X0238540Y0101000D03*
X0278540Y0101000D03*
X0288540Y0101000D03*
X0298540Y0101000D03*
X0308540Y0101000D03*
X0308540Y0111000D03*
X0298540Y0111000D03*
X0288540Y0111000D03*
X0278540Y0111000D03*
D20*
X0173540Y0036000D03*
M02*
