%
M48
M72
T01C0.03150
T02C0.03200
T03C0.03937
T04C0.04700
T05C0.11811
%
T01
X113540Y11000
X123540Y11000
X133540Y11000
X143540Y11000
X153540Y11000
X163540Y11000
X173540Y11000
X183540Y11000
X193540Y11000
X203540Y11000
X213540Y11000
X223540Y11000
X233540Y11000
X243540Y11000
X253540Y11000
X263540Y11000
X273540Y11000
X283540Y11000
X293540Y11000
X303540Y11000
X283540Y21000
X273540Y21000
X263540Y21000
X253540Y21000
X283540Y31000
X293540Y31000
X293540Y41000
X283540Y41000
X283540Y51000
X293540Y51000
X293540Y61000
X283540Y61000
X283540Y71000
X273540Y71000
X263540Y71000
X253540Y71000
X243540Y71000
X233540Y71000
X223540Y71000
X213540Y71000
X203540Y71000
X193540Y71000
X183540Y71000
X173540Y71000
X163540Y71000
X153540Y71000
X143540Y71000
X133540Y71000
X123540Y71000
X113540Y71000
X98540Y101000
X88540Y101000
X88540Y111000
X98540Y111000
X148540Y111000
X158540Y111000
X158540Y101000
X148540Y101000
X208540Y101000
X208540Y111000
X238540Y111000
X248540Y111000
X258540Y111000
X258540Y101000
X248540Y101000
X238540Y101000
X278540Y101000
X288540Y101000
X298540Y101000
X308540Y101000
X308540Y111000
X298540Y111000
X288540Y111000
X278540Y111000
X293540Y71000
X303540Y71000
X173540Y36000
T02
X168540Y91000
X158540Y91000
X148540Y91000
X138540Y91000
X118540Y91000
X108540Y91000
X98540Y91000
X88540Y91000
X78540Y91000
X68540Y91000
X58540Y91000
X48540Y91000
X38540Y91000
X38540Y121000
X48540Y121000
X58540Y121000
X68540Y121000
X78540Y121000
X88540Y121000
X98540Y121000
X108540Y121000
X118540Y121000
X138540Y121000
X148540Y121000
X158540Y121000
X168540Y121000
X178540Y121000
X188540Y121000
X198540Y121000
X208540Y121000
X218540Y121000
X238540Y121000
X248540Y121000
X258540Y121000
X268540Y121000
X278540Y121000
X288540Y121000
X298540Y121000
X308540Y121000
X318540Y121000
X318540Y91000
X308540Y91000
X298540Y91000
X288540Y91000
X278540Y91000
X268540Y91000
X258540Y91000
X248540Y91000
X238540Y91000
X218540Y91000
X208540Y91000
X198540Y91000
X188540Y91000
X178540Y91000
T03
X178540Y141000
X168540Y141000
X158540Y141000
X148540Y141000
X138540Y141000
X123540Y141000
X108540Y141000
X98540Y141000
X88540Y141000
X78540Y141000
X68540Y141000
X58540Y141000
X48540Y141000
X38540Y141000
X188540Y141000
X198540Y141000
X208540Y141000
X223540Y141000
X238540Y141000
X248540Y141000
X258540Y141000
X268540Y141000
X278540Y141000
X288540Y141000
X298540Y141000
X308540Y141000
X323540Y36000
X33540Y31000
T04
X63698Y26000
X83383Y26000
T05
X33540Y11000
X328540Y11000
X328540Y146000
M30
