G75*
%MOIN*%
%OFA0B0*%
%FSLAX25Y25*%
%IPPOS*%
%LPD*%
%AMOC8*
5,1,8,0,0,1.08239X$1,22.5*
%
%ADD10C,0.00000*%
%ADD11C,0.00300*%
%ADD12C,0.00600*%
%ADD13C,0.00500*%
%ADD14C,0.00400*%
%ADD15C,0.01000*%
%ADD16C,0.00200*%
D10*
X0023540Y0001000D02*
X0023540Y0155980D01*
X0338501Y0155980D01*
X0338501Y0001000D01*
X0023540Y0001000D01*
X0027634Y0011000D02*
X0027636Y0011153D01*
X0027642Y0011307D01*
X0027652Y0011460D01*
X0027666Y0011612D01*
X0027684Y0011765D01*
X0027706Y0011916D01*
X0027731Y0012067D01*
X0027761Y0012218D01*
X0027795Y0012368D01*
X0027832Y0012516D01*
X0027873Y0012664D01*
X0027918Y0012810D01*
X0027967Y0012956D01*
X0028020Y0013100D01*
X0028076Y0013242D01*
X0028136Y0013383D01*
X0028200Y0013523D01*
X0028267Y0013661D01*
X0028338Y0013797D01*
X0028413Y0013931D01*
X0028490Y0014063D01*
X0028572Y0014193D01*
X0028656Y0014321D01*
X0028744Y0014447D01*
X0028835Y0014570D01*
X0028929Y0014691D01*
X0029027Y0014809D01*
X0029127Y0014925D01*
X0029231Y0015038D01*
X0029337Y0015149D01*
X0029446Y0015257D01*
X0029558Y0015362D01*
X0029672Y0015463D01*
X0029790Y0015562D01*
X0029909Y0015658D01*
X0030031Y0015751D01*
X0030156Y0015840D01*
X0030283Y0015927D01*
X0030412Y0016009D01*
X0030543Y0016089D01*
X0030676Y0016165D01*
X0030811Y0016238D01*
X0030948Y0016307D01*
X0031087Y0016372D01*
X0031227Y0016434D01*
X0031369Y0016492D01*
X0031512Y0016547D01*
X0031657Y0016598D01*
X0031803Y0016645D01*
X0031950Y0016688D01*
X0032098Y0016727D01*
X0032247Y0016763D01*
X0032397Y0016794D01*
X0032548Y0016822D01*
X0032699Y0016846D01*
X0032852Y0016866D01*
X0033004Y0016882D01*
X0033157Y0016894D01*
X0033310Y0016902D01*
X0033463Y0016906D01*
X0033617Y0016906D01*
X0033770Y0016902D01*
X0033923Y0016894D01*
X0034076Y0016882D01*
X0034228Y0016866D01*
X0034381Y0016846D01*
X0034532Y0016822D01*
X0034683Y0016794D01*
X0034833Y0016763D01*
X0034982Y0016727D01*
X0035130Y0016688D01*
X0035277Y0016645D01*
X0035423Y0016598D01*
X0035568Y0016547D01*
X0035711Y0016492D01*
X0035853Y0016434D01*
X0035993Y0016372D01*
X0036132Y0016307D01*
X0036269Y0016238D01*
X0036404Y0016165D01*
X0036537Y0016089D01*
X0036668Y0016009D01*
X0036797Y0015927D01*
X0036924Y0015840D01*
X0037049Y0015751D01*
X0037171Y0015658D01*
X0037290Y0015562D01*
X0037408Y0015463D01*
X0037522Y0015362D01*
X0037634Y0015257D01*
X0037743Y0015149D01*
X0037849Y0015038D01*
X0037953Y0014925D01*
X0038053Y0014809D01*
X0038151Y0014691D01*
X0038245Y0014570D01*
X0038336Y0014447D01*
X0038424Y0014321D01*
X0038508Y0014193D01*
X0038590Y0014063D01*
X0038667Y0013931D01*
X0038742Y0013797D01*
X0038813Y0013661D01*
X0038880Y0013523D01*
X0038944Y0013383D01*
X0039004Y0013242D01*
X0039060Y0013100D01*
X0039113Y0012956D01*
X0039162Y0012810D01*
X0039207Y0012664D01*
X0039248Y0012516D01*
X0039285Y0012368D01*
X0039319Y0012218D01*
X0039349Y0012067D01*
X0039374Y0011916D01*
X0039396Y0011765D01*
X0039414Y0011612D01*
X0039428Y0011460D01*
X0039438Y0011307D01*
X0039444Y0011153D01*
X0039446Y0011000D01*
X0039444Y0010847D01*
X0039438Y0010693D01*
X0039428Y0010540D01*
X0039414Y0010388D01*
X0039396Y0010235D01*
X0039374Y0010084D01*
X0039349Y0009933D01*
X0039319Y0009782D01*
X0039285Y0009632D01*
X0039248Y0009484D01*
X0039207Y0009336D01*
X0039162Y0009190D01*
X0039113Y0009044D01*
X0039060Y0008900D01*
X0039004Y0008758D01*
X0038944Y0008617D01*
X0038880Y0008477D01*
X0038813Y0008339D01*
X0038742Y0008203D01*
X0038667Y0008069D01*
X0038590Y0007937D01*
X0038508Y0007807D01*
X0038424Y0007679D01*
X0038336Y0007553D01*
X0038245Y0007430D01*
X0038151Y0007309D01*
X0038053Y0007191D01*
X0037953Y0007075D01*
X0037849Y0006962D01*
X0037743Y0006851D01*
X0037634Y0006743D01*
X0037522Y0006638D01*
X0037408Y0006537D01*
X0037290Y0006438D01*
X0037171Y0006342D01*
X0037049Y0006249D01*
X0036924Y0006160D01*
X0036797Y0006073D01*
X0036668Y0005991D01*
X0036537Y0005911D01*
X0036404Y0005835D01*
X0036269Y0005762D01*
X0036132Y0005693D01*
X0035993Y0005628D01*
X0035853Y0005566D01*
X0035711Y0005508D01*
X0035568Y0005453D01*
X0035423Y0005402D01*
X0035277Y0005355D01*
X0035130Y0005312D01*
X0034982Y0005273D01*
X0034833Y0005237D01*
X0034683Y0005206D01*
X0034532Y0005178D01*
X0034381Y0005154D01*
X0034228Y0005134D01*
X0034076Y0005118D01*
X0033923Y0005106D01*
X0033770Y0005098D01*
X0033617Y0005094D01*
X0033463Y0005094D01*
X0033310Y0005098D01*
X0033157Y0005106D01*
X0033004Y0005118D01*
X0032852Y0005134D01*
X0032699Y0005154D01*
X0032548Y0005178D01*
X0032397Y0005206D01*
X0032247Y0005237D01*
X0032098Y0005273D01*
X0031950Y0005312D01*
X0031803Y0005355D01*
X0031657Y0005402D01*
X0031512Y0005453D01*
X0031369Y0005508D01*
X0031227Y0005566D01*
X0031087Y0005628D01*
X0030948Y0005693D01*
X0030811Y0005762D01*
X0030676Y0005835D01*
X0030543Y0005911D01*
X0030412Y0005991D01*
X0030283Y0006073D01*
X0030156Y0006160D01*
X0030031Y0006249D01*
X0029909Y0006342D01*
X0029790Y0006438D01*
X0029672Y0006537D01*
X0029558Y0006638D01*
X0029446Y0006743D01*
X0029337Y0006851D01*
X0029231Y0006962D01*
X0029127Y0007075D01*
X0029027Y0007191D01*
X0028929Y0007309D01*
X0028835Y0007430D01*
X0028744Y0007553D01*
X0028656Y0007679D01*
X0028572Y0007807D01*
X0028490Y0007937D01*
X0028413Y0008069D01*
X0028338Y0008203D01*
X0028267Y0008339D01*
X0028200Y0008477D01*
X0028136Y0008617D01*
X0028076Y0008758D01*
X0028020Y0008900D01*
X0027967Y0009044D01*
X0027918Y0009190D01*
X0027873Y0009336D01*
X0027832Y0009484D01*
X0027795Y0009632D01*
X0027761Y0009782D01*
X0027731Y0009933D01*
X0027706Y0010084D01*
X0027684Y0010235D01*
X0027666Y0010388D01*
X0027652Y0010540D01*
X0027642Y0010693D01*
X0027636Y0010847D01*
X0027634Y0011000D01*
X0322634Y0011000D02*
X0322636Y0011153D01*
X0322642Y0011307D01*
X0322652Y0011460D01*
X0322666Y0011612D01*
X0322684Y0011765D01*
X0322706Y0011916D01*
X0322731Y0012067D01*
X0322761Y0012218D01*
X0322795Y0012368D01*
X0322832Y0012516D01*
X0322873Y0012664D01*
X0322918Y0012810D01*
X0322967Y0012956D01*
X0323020Y0013100D01*
X0323076Y0013242D01*
X0323136Y0013383D01*
X0323200Y0013523D01*
X0323267Y0013661D01*
X0323338Y0013797D01*
X0323413Y0013931D01*
X0323490Y0014063D01*
X0323572Y0014193D01*
X0323656Y0014321D01*
X0323744Y0014447D01*
X0323835Y0014570D01*
X0323929Y0014691D01*
X0324027Y0014809D01*
X0324127Y0014925D01*
X0324231Y0015038D01*
X0324337Y0015149D01*
X0324446Y0015257D01*
X0324558Y0015362D01*
X0324672Y0015463D01*
X0324790Y0015562D01*
X0324909Y0015658D01*
X0325031Y0015751D01*
X0325156Y0015840D01*
X0325283Y0015927D01*
X0325412Y0016009D01*
X0325543Y0016089D01*
X0325676Y0016165D01*
X0325811Y0016238D01*
X0325948Y0016307D01*
X0326087Y0016372D01*
X0326227Y0016434D01*
X0326369Y0016492D01*
X0326512Y0016547D01*
X0326657Y0016598D01*
X0326803Y0016645D01*
X0326950Y0016688D01*
X0327098Y0016727D01*
X0327247Y0016763D01*
X0327397Y0016794D01*
X0327548Y0016822D01*
X0327699Y0016846D01*
X0327852Y0016866D01*
X0328004Y0016882D01*
X0328157Y0016894D01*
X0328310Y0016902D01*
X0328463Y0016906D01*
X0328617Y0016906D01*
X0328770Y0016902D01*
X0328923Y0016894D01*
X0329076Y0016882D01*
X0329228Y0016866D01*
X0329381Y0016846D01*
X0329532Y0016822D01*
X0329683Y0016794D01*
X0329833Y0016763D01*
X0329982Y0016727D01*
X0330130Y0016688D01*
X0330277Y0016645D01*
X0330423Y0016598D01*
X0330568Y0016547D01*
X0330711Y0016492D01*
X0330853Y0016434D01*
X0330993Y0016372D01*
X0331132Y0016307D01*
X0331269Y0016238D01*
X0331404Y0016165D01*
X0331537Y0016089D01*
X0331668Y0016009D01*
X0331797Y0015927D01*
X0331924Y0015840D01*
X0332049Y0015751D01*
X0332171Y0015658D01*
X0332290Y0015562D01*
X0332408Y0015463D01*
X0332522Y0015362D01*
X0332634Y0015257D01*
X0332743Y0015149D01*
X0332849Y0015038D01*
X0332953Y0014925D01*
X0333053Y0014809D01*
X0333151Y0014691D01*
X0333245Y0014570D01*
X0333336Y0014447D01*
X0333424Y0014321D01*
X0333508Y0014193D01*
X0333590Y0014063D01*
X0333667Y0013931D01*
X0333742Y0013797D01*
X0333813Y0013661D01*
X0333880Y0013523D01*
X0333944Y0013383D01*
X0334004Y0013242D01*
X0334060Y0013100D01*
X0334113Y0012956D01*
X0334162Y0012810D01*
X0334207Y0012664D01*
X0334248Y0012516D01*
X0334285Y0012368D01*
X0334319Y0012218D01*
X0334349Y0012067D01*
X0334374Y0011916D01*
X0334396Y0011765D01*
X0334414Y0011612D01*
X0334428Y0011460D01*
X0334438Y0011307D01*
X0334444Y0011153D01*
X0334446Y0011000D01*
X0334444Y0010847D01*
X0334438Y0010693D01*
X0334428Y0010540D01*
X0334414Y0010388D01*
X0334396Y0010235D01*
X0334374Y0010084D01*
X0334349Y0009933D01*
X0334319Y0009782D01*
X0334285Y0009632D01*
X0334248Y0009484D01*
X0334207Y0009336D01*
X0334162Y0009190D01*
X0334113Y0009044D01*
X0334060Y0008900D01*
X0334004Y0008758D01*
X0333944Y0008617D01*
X0333880Y0008477D01*
X0333813Y0008339D01*
X0333742Y0008203D01*
X0333667Y0008069D01*
X0333590Y0007937D01*
X0333508Y0007807D01*
X0333424Y0007679D01*
X0333336Y0007553D01*
X0333245Y0007430D01*
X0333151Y0007309D01*
X0333053Y0007191D01*
X0332953Y0007075D01*
X0332849Y0006962D01*
X0332743Y0006851D01*
X0332634Y0006743D01*
X0332522Y0006638D01*
X0332408Y0006537D01*
X0332290Y0006438D01*
X0332171Y0006342D01*
X0332049Y0006249D01*
X0331924Y0006160D01*
X0331797Y0006073D01*
X0331668Y0005991D01*
X0331537Y0005911D01*
X0331404Y0005835D01*
X0331269Y0005762D01*
X0331132Y0005693D01*
X0330993Y0005628D01*
X0330853Y0005566D01*
X0330711Y0005508D01*
X0330568Y0005453D01*
X0330423Y0005402D01*
X0330277Y0005355D01*
X0330130Y0005312D01*
X0329982Y0005273D01*
X0329833Y0005237D01*
X0329683Y0005206D01*
X0329532Y0005178D01*
X0329381Y0005154D01*
X0329228Y0005134D01*
X0329076Y0005118D01*
X0328923Y0005106D01*
X0328770Y0005098D01*
X0328617Y0005094D01*
X0328463Y0005094D01*
X0328310Y0005098D01*
X0328157Y0005106D01*
X0328004Y0005118D01*
X0327852Y0005134D01*
X0327699Y0005154D01*
X0327548Y0005178D01*
X0327397Y0005206D01*
X0327247Y0005237D01*
X0327098Y0005273D01*
X0326950Y0005312D01*
X0326803Y0005355D01*
X0326657Y0005402D01*
X0326512Y0005453D01*
X0326369Y0005508D01*
X0326227Y0005566D01*
X0326087Y0005628D01*
X0325948Y0005693D01*
X0325811Y0005762D01*
X0325676Y0005835D01*
X0325543Y0005911D01*
X0325412Y0005991D01*
X0325283Y0006073D01*
X0325156Y0006160D01*
X0325031Y0006249D01*
X0324909Y0006342D01*
X0324790Y0006438D01*
X0324672Y0006537D01*
X0324558Y0006638D01*
X0324446Y0006743D01*
X0324337Y0006851D01*
X0324231Y0006962D01*
X0324127Y0007075D01*
X0324027Y0007191D01*
X0323929Y0007309D01*
X0323835Y0007430D01*
X0323744Y0007553D01*
X0323656Y0007679D01*
X0323572Y0007807D01*
X0323490Y0007937D01*
X0323413Y0008069D01*
X0323338Y0008203D01*
X0323267Y0008339D01*
X0323200Y0008477D01*
X0323136Y0008617D01*
X0323076Y0008758D01*
X0323020Y0008900D01*
X0322967Y0009044D01*
X0322918Y0009190D01*
X0322873Y0009336D01*
X0322832Y0009484D01*
X0322795Y0009632D01*
X0322761Y0009782D01*
X0322731Y0009933D01*
X0322706Y0010084D01*
X0322684Y0010235D01*
X0322666Y0010388D01*
X0322652Y0010540D01*
X0322642Y0010693D01*
X0322636Y0010847D01*
X0322634Y0011000D01*
X0322634Y0146000D02*
X0322636Y0146153D01*
X0322642Y0146307D01*
X0322652Y0146460D01*
X0322666Y0146612D01*
X0322684Y0146765D01*
X0322706Y0146916D01*
X0322731Y0147067D01*
X0322761Y0147218D01*
X0322795Y0147368D01*
X0322832Y0147516D01*
X0322873Y0147664D01*
X0322918Y0147810D01*
X0322967Y0147956D01*
X0323020Y0148100D01*
X0323076Y0148242D01*
X0323136Y0148383D01*
X0323200Y0148523D01*
X0323267Y0148661D01*
X0323338Y0148797D01*
X0323413Y0148931D01*
X0323490Y0149063D01*
X0323572Y0149193D01*
X0323656Y0149321D01*
X0323744Y0149447D01*
X0323835Y0149570D01*
X0323929Y0149691D01*
X0324027Y0149809D01*
X0324127Y0149925D01*
X0324231Y0150038D01*
X0324337Y0150149D01*
X0324446Y0150257D01*
X0324558Y0150362D01*
X0324672Y0150463D01*
X0324790Y0150562D01*
X0324909Y0150658D01*
X0325031Y0150751D01*
X0325156Y0150840D01*
X0325283Y0150927D01*
X0325412Y0151009D01*
X0325543Y0151089D01*
X0325676Y0151165D01*
X0325811Y0151238D01*
X0325948Y0151307D01*
X0326087Y0151372D01*
X0326227Y0151434D01*
X0326369Y0151492D01*
X0326512Y0151547D01*
X0326657Y0151598D01*
X0326803Y0151645D01*
X0326950Y0151688D01*
X0327098Y0151727D01*
X0327247Y0151763D01*
X0327397Y0151794D01*
X0327548Y0151822D01*
X0327699Y0151846D01*
X0327852Y0151866D01*
X0328004Y0151882D01*
X0328157Y0151894D01*
X0328310Y0151902D01*
X0328463Y0151906D01*
X0328617Y0151906D01*
X0328770Y0151902D01*
X0328923Y0151894D01*
X0329076Y0151882D01*
X0329228Y0151866D01*
X0329381Y0151846D01*
X0329532Y0151822D01*
X0329683Y0151794D01*
X0329833Y0151763D01*
X0329982Y0151727D01*
X0330130Y0151688D01*
X0330277Y0151645D01*
X0330423Y0151598D01*
X0330568Y0151547D01*
X0330711Y0151492D01*
X0330853Y0151434D01*
X0330993Y0151372D01*
X0331132Y0151307D01*
X0331269Y0151238D01*
X0331404Y0151165D01*
X0331537Y0151089D01*
X0331668Y0151009D01*
X0331797Y0150927D01*
X0331924Y0150840D01*
X0332049Y0150751D01*
X0332171Y0150658D01*
X0332290Y0150562D01*
X0332408Y0150463D01*
X0332522Y0150362D01*
X0332634Y0150257D01*
X0332743Y0150149D01*
X0332849Y0150038D01*
X0332953Y0149925D01*
X0333053Y0149809D01*
X0333151Y0149691D01*
X0333245Y0149570D01*
X0333336Y0149447D01*
X0333424Y0149321D01*
X0333508Y0149193D01*
X0333590Y0149063D01*
X0333667Y0148931D01*
X0333742Y0148797D01*
X0333813Y0148661D01*
X0333880Y0148523D01*
X0333944Y0148383D01*
X0334004Y0148242D01*
X0334060Y0148100D01*
X0334113Y0147956D01*
X0334162Y0147810D01*
X0334207Y0147664D01*
X0334248Y0147516D01*
X0334285Y0147368D01*
X0334319Y0147218D01*
X0334349Y0147067D01*
X0334374Y0146916D01*
X0334396Y0146765D01*
X0334414Y0146612D01*
X0334428Y0146460D01*
X0334438Y0146307D01*
X0334444Y0146153D01*
X0334446Y0146000D01*
X0334444Y0145847D01*
X0334438Y0145693D01*
X0334428Y0145540D01*
X0334414Y0145388D01*
X0334396Y0145235D01*
X0334374Y0145084D01*
X0334349Y0144933D01*
X0334319Y0144782D01*
X0334285Y0144632D01*
X0334248Y0144484D01*
X0334207Y0144336D01*
X0334162Y0144190D01*
X0334113Y0144044D01*
X0334060Y0143900D01*
X0334004Y0143758D01*
X0333944Y0143617D01*
X0333880Y0143477D01*
X0333813Y0143339D01*
X0333742Y0143203D01*
X0333667Y0143069D01*
X0333590Y0142937D01*
X0333508Y0142807D01*
X0333424Y0142679D01*
X0333336Y0142553D01*
X0333245Y0142430D01*
X0333151Y0142309D01*
X0333053Y0142191D01*
X0332953Y0142075D01*
X0332849Y0141962D01*
X0332743Y0141851D01*
X0332634Y0141743D01*
X0332522Y0141638D01*
X0332408Y0141537D01*
X0332290Y0141438D01*
X0332171Y0141342D01*
X0332049Y0141249D01*
X0331924Y0141160D01*
X0331797Y0141073D01*
X0331668Y0140991D01*
X0331537Y0140911D01*
X0331404Y0140835D01*
X0331269Y0140762D01*
X0331132Y0140693D01*
X0330993Y0140628D01*
X0330853Y0140566D01*
X0330711Y0140508D01*
X0330568Y0140453D01*
X0330423Y0140402D01*
X0330277Y0140355D01*
X0330130Y0140312D01*
X0329982Y0140273D01*
X0329833Y0140237D01*
X0329683Y0140206D01*
X0329532Y0140178D01*
X0329381Y0140154D01*
X0329228Y0140134D01*
X0329076Y0140118D01*
X0328923Y0140106D01*
X0328770Y0140098D01*
X0328617Y0140094D01*
X0328463Y0140094D01*
X0328310Y0140098D01*
X0328157Y0140106D01*
X0328004Y0140118D01*
X0327852Y0140134D01*
X0327699Y0140154D01*
X0327548Y0140178D01*
X0327397Y0140206D01*
X0327247Y0140237D01*
X0327098Y0140273D01*
X0326950Y0140312D01*
X0326803Y0140355D01*
X0326657Y0140402D01*
X0326512Y0140453D01*
X0326369Y0140508D01*
X0326227Y0140566D01*
X0326087Y0140628D01*
X0325948Y0140693D01*
X0325811Y0140762D01*
X0325676Y0140835D01*
X0325543Y0140911D01*
X0325412Y0140991D01*
X0325283Y0141073D01*
X0325156Y0141160D01*
X0325031Y0141249D01*
X0324909Y0141342D01*
X0324790Y0141438D01*
X0324672Y0141537D01*
X0324558Y0141638D01*
X0324446Y0141743D01*
X0324337Y0141851D01*
X0324231Y0141962D01*
X0324127Y0142075D01*
X0324027Y0142191D01*
X0323929Y0142309D01*
X0323835Y0142430D01*
X0323744Y0142553D01*
X0323656Y0142679D01*
X0323572Y0142807D01*
X0323490Y0142937D01*
X0323413Y0143069D01*
X0323338Y0143203D01*
X0323267Y0143339D01*
X0323200Y0143477D01*
X0323136Y0143617D01*
X0323076Y0143758D01*
X0323020Y0143900D01*
X0322967Y0144044D01*
X0322918Y0144190D01*
X0322873Y0144336D01*
X0322832Y0144484D01*
X0322795Y0144632D01*
X0322761Y0144782D01*
X0322731Y0144933D01*
X0322706Y0145084D01*
X0322684Y0145235D01*
X0322666Y0145388D01*
X0322652Y0145540D01*
X0322642Y0145693D01*
X0322636Y0145847D01*
X0322634Y0146000D01*
D11*
X0324308Y0129853D02*
X0325542Y0129853D01*
X0326159Y0129236D01*
X0323690Y0126767D01*
X0324308Y0126150D01*
X0325542Y0126150D01*
X0326159Y0126767D01*
X0326159Y0129236D01*
X0324308Y0129853D02*
X0323690Y0129236D01*
X0323690Y0126767D01*
X0316041Y0084853D02*
X0316041Y0081150D01*
X0314807Y0081150D02*
X0317275Y0081150D01*
X0313592Y0081150D02*
X0311123Y0081150D01*
X0309909Y0081150D02*
X0309909Y0084853D01*
X0308675Y0083619D01*
X0307440Y0084853D01*
X0307440Y0081150D01*
X0306025Y0081119D02*
X0306025Y0081736D01*
X0305408Y0082353D01*
X0304174Y0082353D01*
X0303557Y0081736D01*
X0301108Y0082353D02*
X0299873Y0081119D01*
X0298659Y0082353D02*
X0298659Y0078650D01*
X0299873Y0078650D02*
X0302342Y0078650D01*
X0303557Y0078650D02*
X0306025Y0081119D01*
X0306025Y0078650D02*
X0303557Y0078650D01*
X0301108Y0078650D02*
X0301108Y0082353D01*
X0298659Y0082353D02*
X0297425Y0081119D01*
X0296190Y0082353D01*
X0296190Y0078650D01*
X0294158Y0081150D02*
X0292924Y0081150D01*
X0292307Y0081767D01*
X0291092Y0081150D02*
X0288623Y0081150D01*
X0287409Y0081150D02*
X0287409Y0084853D01*
X0286175Y0083619D01*
X0284940Y0084853D01*
X0284940Y0081150D01*
X0283525Y0080502D02*
X0281057Y0080502D01*
X0282908Y0082353D01*
X0282908Y0078650D01*
X0279842Y0078650D02*
X0277373Y0078650D01*
X0276159Y0078650D02*
X0276159Y0082353D01*
X0274925Y0081119D01*
X0273690Y0082353D01*
X0273690Y0078650D01*
X0272275Y0081150D02*
X0269807Y0081150D01*
X0272275Y0083619D01*
X0272275Y0084236D01*
X0271658Y0084853D01*
X0270424Y0084853D01*
X0269807Y0084236D01*
X0267358Y0084853D02*
X0267358Y0081150D01*
X0268592Y0081150D02*
X0266123Y0081150D01*
X0264909Y0081150D02*
X0264909Y0083619D01*
X0263675Y0084853D01*
X0262440Y0083619D01*
X0262440Y0081150D01*
X0261041Y0082353D02*
X0261041Y0078650D01*
X0259807Y0078650D02*
X0262275Y0078650D01*
X0259807Y0081119D02*
X0261041Y0082353D01*
X0262440Y0083002D02*
X0264909Y0083002D01*
X0266123Y0083619D02*
X0267358Y0084853D01*
X0258592Y0081736D02*
X0257975Y0082353D01*
X0256741Y0082353D01*
X0256123Y0081736D01*
X0254909Y0082353D02*
X0254909Y0078650D01*
X0256123Y0078650D02*
X0258592Y0081119D01*
X0258592Y0081736D01*
X0254909Y0082353D02*
X0253675Y0081119D01*
X0252440Y0082353D01*
X0252440Y0078650D01*
X0252275Y0081150D02*
X0249807Y0081150D01*
X0252275Y0083619D01*
X0252275Y0084236D01*
X0251658Y0084853D01*
X0250424Y0084853D01*
X0249807Y0084236D01*
X0248592Y0084236D02*
X0247975Y0084853D01*
X0246741Y0084853D01*
X0246123Y0084236D01*
X0244909Y0084853D02*
X0244909Y0081150D01*
X0246123Y0081150D02*
X0248592Y0083619D01*
X0248592Y0084236D01*
X0244909Y0084853D02*
X0243675Y0083619D01*
X0242440Y0084853D01*
X0242440Y0081150D01*
X0239775Y0079900D02*
X0237307Y0079900D01*
X0238541Y0079900D02*
X0238541Y0083603D01*
X0237307Y0082369D01*
X0236092Y0082369D02*
X0235475Y0081752D01*
X0236092Y0081134D01*
X0236092Y0080517D01*
X0235475Y0079900D01*
X0234241Y0079900D01*
X0233623Y0080517D01*
X0232409Y0079900D02*
X0232409Y0083603D01*
X0231175Y0082369D01*
X0229940Y0083603D01*
X0229940Y0079900D01*
X0233623Y0082986D02*
X0234241Y0083603D01*
X0235475Y0083603D01*
X0236092Y0082986D01*
X0236092Y0082369D01*
X0235475Y0081752D02*
X0234858Y0081752D01*
X0246123Y0081150D02*
X0248592Y0081150D01*
X0256123Y0078650D02*
X0258592Y0078650D01*
X0277373Y0081119D02*
X0278608Y0082353D01*
X0278608Y0078650D01*
X0288623Y0083619D02*
X0289858Y0084853D01*
X0289858Y0081150D01*
X0293541Y0083002D02*
X0294158Y0083002D01*
X0294775Y0082384D01*
X0294775Y0081767D01*
X0294158Y0081150D01*
X0294158Y0083002D02*
X0294775Y0083619D01*
X0294775Y0084236D01*
X0294158Y0084853D01*
X0292924Y0084853D01*
X0292307Y0084236D01*
X0311123Y0083619D02*
X0312358Y0084853D01*
X0312358Y0081150D01*
X0314807Y0083619D02*
X0316041Y0084853D01*
X0226159Y0126767D02*
X0226159Y0127384D01*
X0225542Y0128002D01*
X0224308Y0128002D01*
X0223690Y0128619D01*
X0223690Y0129236D01*
X0224308Y0129853D01*
X0225542Y0129853D01*
X0226159Y0129236D01*
X0226159Y0128619D01*
X0225542Y0128002D01*
X0224308Y0128002D02*
X0223690Y0127384D01*
X0223690Y0126767D01*
X0224308Y0126150D01*
X0225542Y0126150D01*
X0226159Y0126767D01*
X0215408Y0084853D02*
X0214174Y0084853D01*
X0213557Y0084236D01*
X0212342Y0084236D02*
X0212342Y0083619D01*
X0211725Y0083002D01*
X0212342Y0082384D01*
X0212342Y0081767D01*
X0211725Y0081150D01*
X0210491Y0081150D01*
X0209873Y0081767D01*
X0208659Y0081150D02*
X0208659Y0084853D01*
X0207425Y0083619D01*
X0206190Y0084853D01*
X0206190Y0081150D01*
X0202342Y0082353D02*
X0201108Y0081736D01*
X0199873Y0080502D01*
X0201725Y0080502D01*
X0202342Y0079884D01*
X0202342Y0079267D01*
X0201725Y0078650D01*
X0200491Y0078650D01*
X0199873Y0079267D01*
X0199873Y0080502D01*
X0198659Y0081119D02*
X0198042Y0080502D01*
X0196190Y0080502D01*
X0196190Y0082353D02*
X0196190Y0078650D01*
X0198042Y0078650D01*
X0198659Y0079267D01*
X0198659Y0079884D01*
X0198042Y0080502D01*
X0198659Y0081119D02*
X0198659Y0081736D01*
X0198042Y0082353D01*
X0196190Y0082353D01*
X0192342Y0084236D02*
X0189873Y0081767D01*
X0189873Y0081150D01*
X0188659Y0081767D02*
X0188042Y0081150D01*
X0186190Y0081150D01*
X0186190Y0084853D01*
X0188042Y0084853D01*
X0188659Y0084236D01*
X0188659Y0083619D01*
X0188042Y0083002D01*
X0186190Y0083002D01*
X0188042Y0083002D02*
X0188659Y0082384D01*
X0188659Y0081767D01*
X0192342Y0084236D02*
X0192342Y0084853D01*
X0189873Y0084853D01*
X0182342Y0081736D02*
X0182342Y0081119D01*
X0181725Y0080502D01*
X0180491Y0080502D01*
X0179873Y0081119D01*
X0179873Y0081736D01*
X0180491Y0082353D01*
X0181725Y0082353D01*
X0182342Y0081736D01*
X0181725Y0080502D02*
X0182342Y0079884D01*
X0182342Y0079267D01*
X0181725Y0078650D01*
X0180491Y0078650D01*
X0179873Y0079267D01*
X0179873Y0079884D01*
X0180491Y0080502D01*
X0178659Y0081119D02*
X0178659Y0081736D01*
X0178042Y0082353D01*
X0176190Y0082353D01*
X0176190Y0078650D01*
X0178042Y0078650D01*
X0178659Y0079267D01*
X0178659Y0079884D01*
X0178042Y0080502D01*
X0176190Y0080502D01*
X0178042Y0080502D02*
X0178659Y0081119D01*
X0172342Y0081767D02*
X0172342Y0084236D01*
X0171725Y0084853D01*
X0170491Y0084853D01*
X0169873Y0084236D01*
X0169873Y0083619D01*
X0170491Y0083002D01*
X0172342Y0083002D01*
X0172342Y0081767D02*
X0171725Y0081150D01*
X0170491Y0081150D01*
X0169873Y0081767D01*
X0168659Y0081767D02*
X0168042Y0081150D01*
X0166190Y0081150D01*
X0166190Y0084853D01*
X0168042Y0084853D01*
X0168659Y0084236D01*
X0168659Y0083619D01*
X0168042Y0083002D01*
X0166190Y0083002D01*
X0168042Y0083002D02*
X0168659Y0082384D01*
X0168659Y0081767D01*
X0163525Y0080502D02*
X0161057Y0080502D01*
X0162908Y0082353D01*
X0162908Y0078650D01*
X0159842Y0079267D02*
X0159225Y0078650D01*
X0157991Y0078650D01*
X0157373Y0079267D01*
X0156159Y0078650D02*
X0156159Y0082353D01*
X0154925Y0081119D01*
X0153690Y0082353D01*
X0153690Y0078650D01*
X0151658Y0081150D02*
X0150424Y0081150D01*
X0149807Y0081767D01*
X0148592Y0081767D02*
X0147975Y0081150D01*
X0146741Y0081150D01*
X0146123Y0081767D01*
X0144909Y0081150D02*
X0144909Y0084853D01*
X0143675Y0083619D01*
X0142440Y0084853D01*
X0142440Y0081150D01*
X0139842Y0081736D02*
X0137373Y0079267D01*
X0137373Y0078650D01*
X0136159Y0078650D02*
X0136159Y0081119D01*
X0134925Y0082353D01*
X0133690Y0081119D01*
X0133690Y0078650D01*
X0133690Y0080502D02*
X0136159Y0080502D01*
X0137373Y0082353D02*
X0139842Y0082353D01*
X0139842Y0081736D01*
X0146123Y0084236D02*
X0146741Y0084853D01*
X0147975Y0084853D01*
X0148592Y0084236D01*
X0148592Y0083619D01*
X0147975Y0083002D01*
X0148592Y0082384D01*
X0148592Y0081767D01*
X0147975Y0083002D02*
X0147358Y0083002D01*
X0149807Y0084236D02*
X0150424Y0084853D01*
X0151658Y0084853D01*
X0152275Y0084236D01*
X0152275Y0083619D01*
X0151658Y0083002D01*
X0152275Y0082384D01*
X0152275Y0081767D01*
X0151658Y0081150D01*
X0151658Y0083002D02*
X0151041Y0083002D01*
X0157373Y0081736D02*
X0157991Y0082353D01*
X0159225Y0082353D01*
X0159842Y0081736D01*
X0159842Y0081119D01*
X0159225Y0080502D01*
X0159842Y0079884D01*
X0159842Y0079267D01*
X0159225Y0080502D02*
X0158608Y0080502D01*
X0114842Y0081767D02*
X0114225Y0081150D01*
X0112991Y0081150D01*
X0112373Y0081767D01*
X0112373Y0083002D01*
X0114225Y0083002D01*
X0114842Y0082384D01*
X0114842Y0081767D01*
X0113608Y0084236D02*
X0112373Y0083002D01*
X0111159Y0083002D02*
X0108690Y0083002D01*
X0108690Y0083619D02*
X0108690Y0081150D01*
X0111159Y0081150D02*
X0111159Y0083619D01*
X0109925Y0084853D01*
X0108690Y0083619D01*
X0105408Y0082353D02*
X0103557Y0080502D01*
X0106025Y0080502D01*
X0105408Y0082353D02*
X0105408Y0078650D01*
X0102342Y0078650D02*
X0099873Y0078650D01*
X0102342Y0081119D01*
X0102342Y0081736D01*
X0101725Y0082353D01*
X0100491Y0082353D01*
X0099873Y0081736D01*
X0098659Y0082353D02*
X0098659Y0078650D01*
X0096190Y0078650D02*
X0096190Y0082353D01*
X0097425Y0081119D01*
X0098659Y0082353D01*
X0093525Y0082384D02*
X0093525Y0081767D01*
X0092908Y0081150D01*
X0091674Y0081150D01*
X0091057Y0081767D01*
X0089842Y0081150D02*
X0087373Y0081150D01*
X0089842Y0083619D01*
X0089842Y0084236D01*
X0089225Y0084853D01*
X0087991Y0084853D01*
X0087373Y0084236D01*
X0086159Y0084853D02*
X0084925Y0083619D01*
X0083690Y0084853D01*
X0083690Y0081150D01*
X0086159Y0081150D02*
X0086159Y0084853D01*
X0091057Y0084236D02*
X0091674Y0084853D01*
X0092908Y0084853D01*
X0093525Y0084236D01*
X0093525Y0083619D01*
X0092908Y0083002D01*
X0093525Y0082384D01*
X0092908Y0083002D02*
X0092291Y0083002D01*
X0081092Y0078650D02*
X0078623Y0078650D01*
X0077409Y0078650D02*
X0077409Y0081119D01*
X0076175Y0082353D01*
X0074940Y0081119D01*
X0074940Y0078650D01*
X0074940Y0080502D02*
X0077409Y0080502D01*
X0078623Y0081119D02*
X0079858Y0082353D01*
X0079858Y0078650D01*
X0072342Y0081767D02*
X0071725Y0081150D01*
X0070491Y0081150D01*
X0069873Y0081767D01*
X0072342Y0084236D01*
X0072342Y0081767D01*
X0069873Y0081767D02*
X0069873Y0084236D01*
X0070491Y0084853D01*
X0071725Y0084853D01*
X0072342Y0084236D01*
X0068659Y0083619D02*
X0068659Y0081150D01*
X0068659Y0083002D02*
X0066190Y0083002D01*
X0066190Y0083619D02*
X0066190Y0081150D01*
X0064775Y0080502D02*
X0064775Y0079267D01*
X0064158Y0078650D01*
X0062924Y0078650D01*
X0062307Y0079267D01*
X0062307Y0080502D02*
X0063541Y0081119D01*
X0064158Y0081119D01*
X0064775Y0080502D01*
X0064775Y0082353D02*
X0062307Y0082353D01*
X0062307Y0080502D01*
X0061092Y0078650D02*
X0058623Y0078650D01*
X0059858Y0078650D02*
X0059858Y0082353D01*
X0058623Y0081119D01*
X0057409Y0081736D02*
X0056792Y0082353D01*
X0055558Y0082353D01*
X0054940Y0081736D01*
X0054940Y0079267D01*
X0055558Y0078650D01*
X0056792Y0078650D01*
X0057409Y0079267D01*
X0052908Y0081150D02*
X0052908Y0084853D01*
X0051057Y0083002D01*
X0053525Y0083002D01*
X0049842Y0081150D02*
X0047373Y0081150D01*
X0048608Y0081150D02*
X0048608Y0084853D01*
X0047373Y0083619D01*
X0046159Y0084236D02*
X0045542Y0084853D01*
X0044308Y0084853D01*
X0043690Y0084236D01*
X0043690Y0081767D01*
X0044308Y0081150D01*
X0045542Y0081150D01*
X0046159Y0081767D01*
X0041025Y0081736D02*
X0041025Y0081119D01*
X0040408Y0080502D01*
X0041025Y0079884D01*
X0041025Y0079267D01*
X0040408Y0078650D01*
X0039174Y0078650D01*
X0038557Y0079267D01*
X0037342Y0078650D02*
X0034873Y0078650D01*
X0036108Y0078650D02*
X0036108Y0082353D01*
X0034873Y0081119D01*
X0033659Y0081736D02*
X0033042Y0082353D01*
X0031808Y0082353D01*
X0031190Y0081736D01*
X0031190Y0079267D01*
X0031808Y0078650D01*
X0033042Y0078650D01*
X0033659Y0079267D01*
X0038557Y0081736D02*
X0039174Y0082353D01*
X0040408Y0082353D01*
X0041025Y0081736D01*
X0040408Y0080502D02*
X0039791Y0080502D01*
X0066190Y0083619D02*
X0067425Y0084853D01*
X0068659Y0083619D01*
X0113608Y0084236D02*
X0114842Y0084853D01*
X0123690Y0126150D02*
X0126159Y0126150D01*
X0124925Y0126150D02*
X0124925Y0129853D01*
X0123690Y0128619D01*
X0127373Y0128002D02*
X0127373Y0126767D01*
X0127991Y0126150D01*
X0129225Y0126150D01*
X0129842Y0126767D01*
X0129842Y0127384D01*
X0129225Y0128002D01*
X0127373Y0128002D01*
X0128608Y0129236D01*
X0129842Y0129853D01*
X0209873Y0084236D02*
X0210491Y0084853D01*
X0211725Y0084853D01*
X0212342Y0084236D01*
X0211725Y0083002D02*
X0211108Y0083002D01*
X0213557Y0081150D02*
X0216025Y0083619D01*
X0216025Y0084236D01*
X0215408Y0084853D01*
X0216025Y0081150D02*
X0213557Y0081150D01*
X0108525Y0029236D02*
X0107908Y0029853D01*
X0106057Y0029853D01*
X0106057Y0026150D01*
X0107908Y0026150D01*
X0108525Y0026767D01*
X0108525Y0029236D01*
X0104842Y0029853D02*
X0104842Y0026150D01*
X0102373Y0029853D01*
X0102373Y0026150D01*
X0101159Y0026767D02*
X0101159Y0028002D01*
X0099925Y0028002D01*
X0101159Y0029236D02*
X0100542Y0029853D01*
X0099308Y0029853D01*
X0098690Y0029236D01*
X0098690Y0026767D01*
X0099308Y0026150D01*
X0100542Y0026150D01*
X0101159Y0026767D01*
X0047342Y0026767D02*
X0046725Y0026150D01*
X0044873Y0026150D01*
X0044873Y0029853D01*
X0046725Y0029853D01*
X0047342Y0029236D01*
X0047342Y0026767D01*
X0043659Y0028002D02*
X0041190Y0028002D01*
X0042425Y0029236D02*
X0042425Y0026767D01*
D12*
X0053883Y0033098D02*
X0053883Y0007098D01*
X0093182Y0007098D01*
X0093182Y0006299D01*
X0053883Y0006299D01*
X0053883Y0007098D01*
X0061683Y0012300D02*
X0061685Y0012389D01*
X0061691Y0012478D01*
X0061701Y0012567D01*
X0061715Y0012655D01*
X0061732Y0012742D01*
X0061754Y0012828D01*
X0061780Y0012914D01*
X0061809Y0012998D01*
X0061842Y0013081D01*
X0061878Y0013162D01*
X0061919Y0013242D01*
X0061962Y0013319D01*
X0062009Y0013395D01*
X0062060Y0013468D01*
X0062113Y0013539D01*
X0062170Y0013608D01*
X0062230Y0013674D01*
X0062293Y0013738D01*
X0062358Y0013798D01*
X0062426Y0013856D01*
X0062497Y0013910D01*
X0062570Y0013961D01*
X0062645Y0014009D01*
X0062722Y0014054D01*
X0062801Y0014095D01*
X0062882Y0014132D01*
X0062964Y0014166D01*
X0063048Y0014197D01*
X0063133Y0014223D01*
X0063219Y0014246D01*
X0063306Y0014264D01*
X0063394Y0014279D01*
X0063483Y0014290D01*
X0063572Y0014297D01*
X0063661Y0014300D01*
X0063750Y0014299D01*
X0063839Y0014294D01*
X0063927Y0014285D01*
X0064016Y0014272D01*
X0064103Y0014255D01*
X0064190Y0014235D01*
X0064276Y0014210D01*
X0064360Y0014182D01*
X0064443Y0014150D01*
X0064525Y0014114D01*
X0064605Y0014075D01*
X0064683Y0014032D01*
X0064759Y0013986D01*
X0064833Y0013936D01*
X0064905Y0013883D01*
X0064974Y0013827D01*
X0065041Y0013768D01*
X0065105Y0013706D01*
X0065166Y0013642D01*
X0065225Y0013574D01*
X0065280Y0013504D01*
X0065332Y0013432D01*
X0065381Y0013357D01*
X0065426Y0013281D01*
X0065468Y0013202D01*
X0065506Y0013122D01*
X0065541Y0013040D01*
X0065572Y0012956D01*
X0065600Y0012871D01*
X0065623Y0012785D01*
X0065643Y0012698D01*
X0065659Y0012611D01*
X0065671Y0012522D01*
X0065679Y0012434D01*
X0065683Y0012345D01*
X0065683Y0012255D01*
X0065679Y0012166D01*
X0065671Y0012078D01*
X0065659Y0011989D01*
X0065643Y0011902D01*
X0065623Y0011815D01*
X0065600Y0011729D01*
X0065572Y0011644D01*
X0065541Y0011560D01*
X0065506Y0011478D01*
X0065468Y0011398D01*
X0065426Y0011319D01*
X0065381Y0011243D01*
X0065332Y0011168D01*
X0065280Y0011096D01*
X0065225Y0011026D01*
X0065166Y0010958D01*
X0065105Y0010894D01*
X0065041Y0010832D01*
X0064974Y0010773D01*
X0064905Y0010717D01*
X0064833Y0010664D01*
X0064759Y0010614D01*
X0064683Y0010568D01*
X0064605Y0010525D01*
X0064525Y0010486D01*
X0064443Y0010450D01*
X0064360Y0010418D01*
X0064276Y0010390D01*
X0064190Y0010365D01*
X0064103Y0010345D01*
X0064016Y0010328D01*
X0063927Y0010315D01*
X0063839Y0010306D01*
X0063750Y0010301D01*
X0063661Y0010300D01*
X0063572Y0010303D01*
X0063483Y0010310D01*
X0063394Y0010321D01*
X0063306Y0010336D01*
X0063219Y0010354D01*
X0063133Y0010377D01*
X0063048Y0010403D01*
X0062964Y0010434D01*
X0062882Y0010468D01*
X0062801Y0010505D01*
X0062722Y0010546D01*
X0062645Y0010591D01*
X0062570Y0010639D01*
X0062497Y0010690D01*
X0062426Y0010744D01*
X0062358Y0010802D01*
X0062293Y0010862D01*
X0062230Y0010926D01*
X0062170Y0010992D01*
X0062113Y0011061D01*
X0062060Y0011132D01*
X0062009Y0011205D01*
X0061962Y0011281D01*
X0061919Y0011358D01*
X0061878Y0011438D01*
X0061842Y0011519D01*
X0061809Y0011602D01*
X0061780Y0011686D01*
X0061754Y0011772D01*
X0061732Y0011858D01*
X0061715Y0011945D01*
X0061701Y0012033D01*
X0061691Y0012122D01*
X0061685Y0012211D01*
X0061683Y0012300D01*
X0081383Y0012300D02*
X0081385Y0012389D01*
X0081391Y0012478D01*
X0081401Y0012567D01*
X0081415Y0012655D01*
X0081432Y0012742D01*
X0081454Y0012828D01*
X0081480Y0012914D01*
X0081509Y0012998D01*
X0081542Y0013081D01*
X0081578Y0013162D01*
X0081619Y0013242D01*
X0081662Y0013319D01*
X0081709Y0013395D01*
X0081760Y0013468D01*
X0081813Y0013539D01*
X0081870Y0013608D01*
X0081930Y0013674D01*
X0081993Y0013738D01*
X0082058Y0013798D01*
X0082126Y0013856D01*
X0082197Y0013910D01*
X0082270Y0013961D01*
X0082345Y0014009D01*
X0082422Y0014054D01*
X0082501Y0014095D01*
X0082582Y0014132D01*
X0082664Y0014166D01*
X0082748Y0014197D01*
X0082833Y0014223D01*
X0082919Y0014246D01*
X0083006Y0014264D01*
X0083094Y0014279D01*
X0083183Y0014290D01*
X0083272Y0014297D01*
X0083361Y0014300D01*
X0083450Y0014299D01*
X0083539Y0014294D01*
X0083627Y0014285D01*
X0083716Y0014272D01*
X0083803Y0014255D01*
X0083890Y0014235D01*
X0083976Y0014210D01*
X0084060Y0014182D01*
X0084143Y0014150D01*
X0084225Y0014114D01*
X0084305Y0014075D01*
X0084383Y0014032D01*
X0084459Y0013986D01*
X0084533Y0013936D01*
X0084605Y0013883D01*
X0084674Y0013827D01*
X0084741Y0013768D01*
X0084805Y0013706D01*
X0084866Y0013642D01*
X0084925Y0013574D01*
X0084980Y0013504D01*
X0085032Y0013432D01*
X0085081Y0013357D01*
X0085126Y0013281D01*
X0085168Y0013202D01*
X0085206Y0013122D01*
X0085241Y0013040D01*
X0085272Y0012956D01*
X0085300Y0012871D01*
X0085323Y0012785D01*
X0085343Y0012698D01*
X0085359Y0012611D01*
X0085371Y0012522D01*
X0085379Y0012434D01*
X0085383Y0012345D01*
X0085383Y0012255D01*
X0085379Y0012166D01*
X0085371Y0012078D01*
X0085359Y0011989D01*
X0085343Y0011902D01*
X0085323Y0011815D01*
X0085300Y0011729D01*
X0085272Y0011644D01*
X0085241Y0011560D01*
X0085206Y0011478D01*
X0085168Y0011398D01*
X0085126Y0011319D01*
X0085081Y0011243D01*
X0085032Y0011168D01*
X0084980Y0011096D01*
X0084925Y0011026D01*
X0084866Y0010958D01*
X0084805Y0010894D01*
X0084741Y0010832D01*
X0084674Y0010773D01*
X0084605Y0010717D01*
X0084533Y0010664D01*
X0084459Y0010614D01*
X0084383Y0010568D01*
X0084305Y0010525D01*
X0084225Y0010486D01*
X0084143Y0010450D01*
X0084060Y0010418D01*
X0083976Y0010390D01*
X0083890Y0010365D01*
X0083803Y0010345D01*
X0083716Y0010328D01*
X0083627Y0010315D01*
X0083539Y0010306D01*
X0083450Y0010301D01*
X0083361Y0010300D01*
X0083272Y0010303D01*
X0083183Y0010310D01*
X0083094Y0010321D01*
X0083006Y0010336D01*
X0082919Y0010354D01*
X0082833Y0010377D01*
X0082748Y0010403D01*
X0082664Y0010434D01*
X0082582Y0010468D01*
X0082501Y0010505D01*
X0082422Y0010546D01*
X0082345Y0010591D01*
X0082270Y0010639D01*
X0082197Y0010690D01*
X0082126Y0010744D01*
X0082058Y0010802D01*
X0081993Y0010862D01*
X0081930Y0010926D01*
X0081870Y0010992D01*
X0081813Y0011061D01*
X0081760Y0011132D01*
X0081709Y0011205D01*
X0081662Y0011281D01*
X0081619Y0011358D01*
X0081578Y0011438D01*
X0081542Y0011519D01*
X0081509Y0011602D01*
X0081480Y0011686D01*
X0081454Y0011772D01*
X0081432Y0011858D01*
X0081415Y0011945D01*
X0081401Y0012033D01*
X0081391Y0012122D01*
X0081385Y0012211D01*
X0081383Y0012300D01*
X0093182Y0007098D02*
X0093182Y0033098D01*
X0086883Y0033098D01*
X0093182Y0033098D02*
X0093182Y0042500D01*
X0053883Y0042500D01*
X0053883Y0033098D01*
X0060182Y0033098D01*
X0067182Y0033098D02*
X0079883Y0033098D01*
X0078959Y0061300D02*
X0083229Y0061300D01*
X0085404Y0061300D02*
X0085404Y0067705D01*
X0089675Y0061300D01*
X0089675Y0067705D01*
X0091850Y0064503D02*
X0096120Y0064503D01*
X0098295Y0063435D02*
X0101498Y0063435D01*
X0102566Y0064503D01*
X0102566Y0066638D01*
X0101498Y0067705D01*
X0098295Y0067705D01*
X0098295Y0061300D01*
X0100430Y0063435D02*
X0102566Y0061300D01*
X0104741Y0061300D02*
X0104741Y0067705D01*
X0109011Y0067705D01*
X0106876Y0064503D02*
X0104741Y0064503D01*
X0078959Y0067705D02*
X0078959Y0061300D01*
X0076784Y0062368D02*
X0076784Y0067705D01*
X0072513Y0067705D02*
X0072513Y0062368D01*
X0073581Y0061300D01*
X0075716Y0061300D01*
X0076784Y0062368D01*
X0070338Y0064503D02*
X0066068Y0064503D01*
X0063893Y0065570D02*
X0063893Y0066638D01*
X0062825Y0067705D01*
X0060690Y0067705D01*
X0059622Y0066638D01*
X0057447Y0066638D02*
X0057447Y0065570D01*
X0056380Y0064503D01*
X0057447Y0063435D01*
X0057447Y0062368D01*
X0056380Y0061300D01*
X0054244Y0061300D01*
X0053177Y0062368D01*
X0051002Y0061300D02*
X0051002Y0067705D01*
X0048866Y0065570D01*
X0046731Y0067705D01*
X0046731Y0061300D01*
X0042421Y0061300D02*
X0042421Y0067705D01*
X0040286Y0067705D02*
X0044556Y0067705D01*
X0038111Y0066638D02*
X0037043Y0067705D01*
X0034908Y0067705D01*
X0033840Y0066638D01*
X0033840Y0065570D01*
X0034908Y0064503D01*
X0037043Y0064503D01*
X0038111Y0063435D01*
X0038111Y0062368D01*
X0037043Y0061300D01*
X0034908Y0061300D01*
X0033840Y0062368D01*
X0053177Y0066638D02*
X0054244Y0067705D01*
X0056380Y0067705D01*
X0057447Y0066638D01*
X0056380Y0064503D02*
X0055312Y0064503D01*
X0059622Y0061300D02*
X0063893Y0065570D01*
X0063893Y0061300D02*
X0059622Y0061300D01*
X0033540Y0094500D02*
X0033540Y0102000D01*
X0033666Y0102002D01*
X0033791Y0102008D01*
X0033916Y0102018D01*
X0034041Y0102032D01*
X0034166Y0102049D01*
X0034290Y0102071D01*
X0034413Y0102096D01*
X0034535Y0102126D01*
X0034656Y0102159D01*
X0034776Y0102196D01*
X0034895Y0102236D01*
X0035012Y0102281D01*
X0035129Y0102329D01*
X0035243Y0102381D01*
X0035356Y0102436D01*
X0035467Y0102495D01*
X0035576Y0102557D01*
X0035683Y0102623D01*
X0035788Y0102692D01*
X0035891Y0102764D01*
X0035992Y0102839D01*
X0036090Y0102918D01*
X0036185Y0103000D01*
X0036278Y0103084D01*
X0036368Y0103172D01*
X0036456Y0103262D01*
X0036540Y0103355D01*
X0036622Y0103450D01*
X0036701Y0103548D01*
X0036776Y0103649D01*
X0036848Y0103752D01*
X0036917Y0103857D01*
X0036983Y0103964D01*
X0037045Y0104073D01*
X0037104Y0104184D01*
X0037159Y0104297D01*
X0037211Y0104411D01*
X0037259Y0104528D01*
X0037304Y0104645D01*
X0037344Y0104764D01*
X0037381Y0104884D01*
X0037414Y0105005D01*
X0037444Y0105127D01*
X0037469Y0105250D01*
X0037491Y0105374D01*
X0037508Y0105499D01*
X0037522Y0105624D01*
X0037532Y0105749D01*
X0037538Y0105874D01*
X0037540Y0106000D01*
X0037538Y0106126D01*
X0037532Y0106251D01*
X0037522Y0106376D01*
X0037508Y0106501D01*
X0037491Y0106626D01*
X0037469Y0106750D01*
X0037444Y0106873D01*
X0037414Y0106995D01*
X0037381Y0107116D01*
X0037344Y0107236D01*
X0037304Y0107355D01*
X0037259Y0107472D01*
X0037211Y0107589D01*
X0037159Y0107703D01*
X0037104Y0107816D01*
X0037045Y0107927D01*
X0036983Y0108036D01*
X0036917Y0108143D01*
X0036848Y0108248D01*
X0036776Y0108351D01*
X0036701Y0108452D01*
X0036622Y0108550D01*
X0036540Y0108645D01*
X0036456Y0108738D01*
X0036368Y0108828D01*
X0036278Y0108916D01*
X0036185Y0109000D01*
X0036090Y0109082D01*
X0035992Y0109161D01*
X0035891Y0109236D01*
X0035788Y0109308D01*
X0035683Y0109377D01*
X0035576Y0109443D01*
X0035467Y0109505D01*
X0035356Y0109564D01*
X0035243Y0109619D01*
X0035129Y0109671D01*
X0035012Y0109719D01*
X0034895Y0109764D01*
X0034776Y0109804D01*
X0034656Y0109841D01*
X0034535Y0109874D01*
X0034413Y0109904D01*
X0034290Y0109929D01*
X0034166Y0109951D01*
X0034041Y0109968D01*
X0033916Y0109982D01*
X0033791Y0109992D01*
X0033666Y0109998D01*
X0033540Y0110000D01*
X0033540Y0117500D01*
X0123540Y0117500D01*
X0123540Y0094500D01*
X0033540Y0094500D01*
X0133540Y0094500D02*
X0133540Y0102000D01*
X0133666Y0102002D01*
X0133791Y0102008D01*
X0133916Y0102018D01*
X0134041Y0102032D01*
X0134166Y0102049D01*
X0134290Y0102071D01*
X0134413Y0102096D01*
X0134535Y0102126D01*
X0134656Y0102159D01*
X0134776Y0102196D01*
X0134895Y0102236D01*
X0135012Y0102281D01*
X0135129Y0102329D01*
X0135243Y0102381D01*
X0135356Y0102436D01*
X0135467Y0102495D01*
X0135576Y0102557D01*
X0135683Y0102623D01*
X0135788Y0102692D01*
X0135891Y0102764D01*
X0135992Y0102839D01*
X0136090Y0102918D01*
X0136185Y0103000D01*
X0136278Y0103084D01*
X0136368Y0103172D01*
X0136456Y0103262D01*
X0136540Y0103355D01*
X0136622Y0103450D01*
X0136701Y0103548D01*
X0136776Y0103649D01*
X0136848Y0103752D01*
X0136917Y0103857D01*
X0136983Y0103964D01*
X0137045Y0104073D01*
X0137104Y0104184D01*
X0137159Y0104297D01*
X0137211Y0104411D01*
X0137259Y0104528D01*
X0137304Y0104645D01*
X0137344Y0104764D01*
X0137381Y0104884D01*
X0137414Y0105005D01*
X0137444Y0105127D01*
X0137469Y0105250D01*
X0137491Y0105374D01*
X0137508Y0105499D01*
X0137522Y0105624D01*
X0137532Y0105749D01*
X0137538Y0105874D01*
X0137540Y0106000D01*
X0137538Y0106126D01*
X0137532Y0106251D01*
X0137522Y0106376D01*
X0137508Y0106501D01*
X0137491Y0106626D01*
X0137469Y0106750D01*
X0137444Y0106873D01*
X0137414Y0106995D01*
X0137381Y0107116D01*
X0137344Y0107236D01*
X0137304Y0107355D01*
X0137259Y0107472D01*
X0137211Y0107589D01*
X0137159Y0107703D01*
X0137104Y0107816D01*
X0137045Y0107927D01*
X0136983Y0108036D01*
X0136917Y0108143D01*
X0136848Y0108248D01*
X0136776Y0108351D01*
X0136701Y0108452D01*
X0136622Y0108550D01*
X0136540Y0108645D01*
X0136456Y0108738D01*
X0136368Y0108828D01*
X0136278Y0108916D01*
X0136185Y0109000D01*
X0136090Y0109082D01*
X0135992Y0109161D01*
X0135891Y0109236D01*
X0135788Y0109308D01*
X0135683Y0109377D01*
X0135576Y0109443D01*
X0135467Y0109505D01*
X0135356Y0109564D01*
X0135243Y0109619D01*
X0135129Y0109671D01*
X0135012Y0109719D01*
X0134895Y0109764D01*
X0134776Y0109804D01*
X0134656Y0109841D01*
X0134535Y0109874D01*
X0134413Y0109904D01*
X0134290Y0109929D01*
X0134166Y0109951D01*
X0134041Y0109968D01*
X0133916Y0109982D01*
X0133791Y0109992D01*
X0133666Y0109998D01*
X0133540Y0110000D01*
X0133540Y0117500D01*
X0223540Y0117500D01*
X0223540Y0094500D01*
X0133540Y0094500D01*
X0233540Y0094500D02*
X0233540Y0102000D01*
X0233666Y0102002D01*
X0233791Y0102008D01*
X0233916Y0102018D01*
X0234041Y0102032D01*
X0234166Y0102049D01*
X0234290Y0102071D01*
X0234413Y0102096D01*
X0234535Y0102126D01*
X0234656Y0102159D01*
X0234776Y0102196D01*
X0234895Y0102236D01*
X0235012Y0102281D01*
X0235129Y0102329D01*
X0235243Y0102381D01*
X0235356Y0102436D01*
X0235467Y0102495D01*
X0235576Y0102557D01*
X0235683Y0102623D01*
X0235788Y0102692D01*
X0235891Y0102764D01*
X0235992Y0102839D01*
X0236090Y0102918D01*
X0236185Y0103000D01*
X0236278Y0103084D01*
X0236368Y0103172D01*
X0236456Y0103262D01*
X0236540Y0103355D01*
X0236622Y0103450D01*
X0236701Y0103548D01*
X0236776Y0103649D01*
X0236848Y0103752D01*
X0236917Y0103857D01*
X0236983Y0103964D01*
X0237045Y0104073D01*
X0237104Y0104184D01*
X0237159Y0104297D01*
X0237211Y0104411D01*
X0237259Y0104528D01*
X0237304Y0104645D01*
X0237344Y0104764D01*
X0237381Y0104884D01*
X0237414Y0105005D01*
X0237444Y0105127D01*
X0237469Y0105250D01*
X0237491Y0105374D01*
X0237508Y0105499D01*
X0237522Y0105624D01*
X0237532Y0105749D01*
X0237538Y0105874D01*
X0237540Y0106000D01*
X0237538Y0106126D01*
X0237532Y0106251D01*
X0237522Y0106376D01*
X0237508Y0106501D01*
X0237491Y0106626D01*
X0237469Y0106750D01*
X0237444Y0106873D01*
X0237414Y0106995D01*
X0237381Y0107116D01*
X0237344Y0107236D01*
X0237304Y0107355D01*
X0237259Y0107472D01*
X0237211Y0107589D01*
X0237159Y0107703D01*
X0237104Y0107816D01*
X0237045Y0107927D01*
X0236983Y0108036D01*
X0236917Y0108143D01*
X0236848Y0108248D01*
X0236776Y0108351D01*
X0236701Y0108452D01*
X0236622Y0108550D01*
X0236540Y0108645D01*
X0236456Y0108738D01*
X0236368Y0108828D01*
X0236278Y0108916D01*
X0236185Y0109000D01*
X0236090Y0109082D01*
X0235992Y0109161D01*
X0235891Y0109236D01*
X0235788Y0109308D01*
X0235683Y0109377D01*
X0235576Y0109443D01*
X0235467Y0109505D01*
X0235356Y0109564D01*
X0235243Y0109619D01*
X0235129Y0109671D01*
X0235012Y0109719D01*
X0234895Y0109764D01*
X0234776Y0109804D01*
X0234656Y0109841D01*
X0234535Y0109874D01*
X0234413Y0109904D01*
X0234290Y0109929D01*
X0234166Y0109951D01*
X0234041Y0109968D01*
X0233916Y0109982D01*
X0233791Y0109992D01*
X0233666Y0109998D01*
X0233540Y0110000D01*
X0233540Y0117500D01*
X0323540Y0117500D01*
X0323540Y0094500D01*
X0233540Y0094500D01*
D13*
X0232290Y0094250D02*
X0232290Y0095751D01*
X0232290Y0095001D02*
X0227787Y0095001D01*
X0227787Y0095751D02*
X0227787Y0094250D01*
X0228537Y0097319D02*
X0231540Y0097319D01*
X0232290Y0098070D01*
X0232290Y0099571D01*
X0231540Y0100322D01*
X0232290Y0101923D02*
X0232290Y0104926D01*
X0232290Y0103424D02*
X0227787Y0103424D01*
X0229288Y0101923D01*
X0228537Y0100322D02*
X0227787Y0099571D01*
X0227787Y0098070D01*
X0228537Y0097319D01*
X0308540Y0076000D02*
X0308540Y0066000D01*
X0108540Y0066000D01*
X0108540Y0076000D01*
X0308540Y0076000D01*
X0308540Y0056000D02*
X0293540Y0056000D01*
X0293540Y0026000D01*
X0308540Y0026000D01*
X0308540Y0056000D01*
X0248540Y0051000D02*
X0248542Y0051141D01*
X0248548Y0051282D01*
X0248558Y0051422D01*
X0248572Y0051562D01*
X0248590Y0051702D01*
X0248611Y0051841D01*
X0248637Y0051980D01*
X0248666Y0052118D01*
X0248700Y0052254D01*
X0248737Y0052390D01*
X0248778Y0052525D01*
X0248823Y0052659D01*
X0248872Y0052791D01*
X0248924Y0052922D01*
X0248980Y0053051D01*
X0249040Y0053178D01*
X0249103Y0053304D01*
X0249169Y0053428D01*
X0249240Y0053551D01*
X0249313Y0053671D01*
X0249390Y0053789D01*
X0249470Y0053905D01*
X0249554Y0054018D01*
X0249640Y0054129D01*
X0249730Y0054238D01*
X0249823Y0054344D01*
X0249918Y0054447D01*
X0250017Y0054548D01*
X0250118Y0054646D01*
X0250222Y0054741D01*
X0250329Y0054833D01*
X0250438Y0054922D01*
X0250550Y0055007D01*
X0250664Y0055090D01*
X0250780Y0055170D01*
X0250899Y0055246D01*
X0251020Y0055318D01*
X0251142Y0055388D01*
X0251267Y0055453D01*
X0251393Y0055516D01*
X0251521Y0055574D01*
X0251651Y0055629D01*
X0251782Y0055681D01*
X0251915Y0055728D01*
X0252049Y0055772D01*
X0252184Y0055813D01*
X0252320Y0055849D01*
X0252457Y0055881D01*
X0252595Y0055910D01*
X0252733Y0055935D01*
X0252873Y0055955D01*
X0253013Y0055972D01*
X0253153Y0055985D01*
X0253294Y0055994D01*
X0253434Y0055999D01*
X0253575Y0056000D01*
X0253716Y0055997D01*
X0253857Y0055990D01*
X0253997Y0055979D01*
X0254137Y0055964D01*
X0254277Y0055945D01*
X0254416Y0055923D01*
X0254554Y0055896D01*
X0254692Y0055866D01*
X0254828Y0055831D01*
X0254964Y0055793D01*
X0255098Y0055751D01*
X0255232Y0055705D01*
X0255364Y0055656D01*
X0255494Y0055602D01*
X0255623Y0055545D01*
X0255750Y0055485D01*
X0255876Y0055421D01*
X0255999Y0055353D01*
X0256121Y0055282D01*
X0256241Y0055208D01*
X0256358Y0055130D01*
X0256473Y0055049D01*
X0256586Y0054965D01*
X0256697Y0054878D01*
X0256805Y0054787D01*
X0256910Y0054694D01*
X0257013Y0054597D01*
X0257113Y0054498D01*
X0257210Y0054396D01*
X0257304Y0054291D01*
X0257395Y0054184D01*
X0257483Y0054074D01*
X0257568Y0053962D01*
X0257650Y0053847D01*
X0257729Y0053730D01*
X0257804Y0053611D01*
X0257876Y0053490D01*
X0257944Y0053367D01*
X0258009Y0053242D01*
X0258071Y0053115D01*
X0258128Y0052986D01*
X0258183Y0052856D01*
X0258233Y0052725D01*
X0258280Y0052592D01*
X0258323Y0052458D01*
X0258362Y0052322D01*
X0258397Y0052186D01*
X0258429Y0052049D01*
X0258456Y0051911D01*
X0258480Y0051772D01*
X0258500Y0051632D01*
X0258516Y0051492D01*
X0258528Y0051352D01*
X0258536Y0051211D01*
X0258540Y0051070D01*
X0258540Y0050930D01*
X0258536Y0050789D01*
X0258528Y0050648D01*
X0258516Y0050508D01*
X0258500Y0050368D01*
X0258480Y0050228D01*
X0258456Y0050089D01*
X0258429Y0049951D01*
X0258397Y0049814D01*
X0258362Y0049678D01*
X0258323Y0049542D01*
X0258280Y0049408D01*
X0258233Y0049275D01*
X0258183Y0049144D01*
X0258128Y0049014D01*
X0258071Y0048885D01*
X0258009Y0048758D01*
X0257944Y0048633D01*
X0257876Y0048510D01*
X0257804Y0048389D01*
X0257729Y0048270D01*
X0257650Y0048153D01*
X0257568Y0048038D01*
X0257483Y0047926D01*
X0257395Y0047816D01*
X0257304Y0047709D01*
X0257210Y0047604D01*
X0257113Y0047502D01*
X0257013Y0047403D01*
X0256910Y0047306D01*
X0256805Y0047213D01*
X0256697Y0047122D01*
X0256586Y0047035D01*
X0256473Y0046951D01*
X0256358Y0046870D01*
X0256241Y0046792D01*
X0256121Y0046718D01*
X0255999Y0046647D01*
X0255876Y0046579D01*
X0255750Y0046515D01*
X0255623Y0046455D01*
X0255494Y0046398D01*
X0255364Y0046344D01*
X0255232Y0046295D01*
X0255098Y0046249D01*
X0254964Y0046207D01*
X0254828Y0046169D01*
X0254692Y0046134D01*
X0254554Y0046104D01*
X0254416Y0046077D01*
X0254277Y0046055D01*
X0254137Y0046036D01*
X0253997Y0046021D01*
X0253857Y0046010D01*
X0253716Y0046003D01*
X0253575Y0046000D01*
X0253434Y0046001D01*
X0253294Y0046006D01*
X0253153Y0046015D01*
X0253013Y0046028D01*
X0252873Y0046045D01*
X0252733Y0046065D01*
X0252595Y0046090D01*
X0252457Y0046119D01*
X0252320Y0046151D01*
X0252184Y0046187D01*
X0252049Y0046228D01*
X0251915Y0046272D01*
X0251782Y0046319D01*
X0251651Y0046371D01*
X0251521Y0046426D01*
X0251393Y0046484D01*
X0251267Y0046547D01*
X0251142Y0046612D01*
X0251020Y0046682D01*
X0250899Y0046754D01*
X0250780Y0046830D01*
X0250664Y0046910D01*
X0250550Y0046993D01*
X0250438Y0047078D01*
X0250329Y0047167D01*
X0250222Y0047259D01*
X0250118Y0047354D01*
X0250017Y0047452D01*
X0249918Y0047553D01*
X0249823Y0047656D01*
X0249730Y0047762D01*
X0249640Y0047871D01*
X0249554Y0047982D01*
X0249470Y0048095D01*
X0249390Y0048211D01*
X0249313Y0048329D01*
X0249240Y0048449D01*
X0249169Y0048572D01*
X0249103Y0048696D01*
X0249040Y0048822D01*
X0248980Y0048949D01*
X0248924Y0049078D01*
X0248872Y0049209D01*
X0248823Y0049341D01*
X0248778Y0049475D01*
X0248737Y0049610D01*
X0248700Y0049746D01*
X0248666Y0049882D01*
X0248637Y0050020D01*
X0248611Y0050159D01*
X0248590Y0050298D01*
X0248572Y0050438D01*
X0248558Y0050578D01*
X0248548Y0050718D01*
X0248542Y0050859D01*
X0248540Y0051000D01*
X0248540Y0026000D02*
X0288540Y0026000D01*
X0288540Y0016000D01*
X0248540Y0016000D01*
X0248540Y0026000D01*
X0308540Y0016000D02*
X0308540Y0006000D01*
X0108540Y0006000D01*
X0108540Y0016000D01*
X0308540Y0016000D01*
X0132290Y0094250D02*
X0132290Y0095751D01*
X0132290Y0095001D02*
X0127787Y0095001D01*
X0127787Y0095751D02*
X0127787Y0094250D01*
X0128537Y0097319D02*
X0131540Y0097319D01*
X0132290Y0098070D01*
X0132290Y0099571D01*
X0131540Y0100322D01*
X0132290Y0101923D02*
X0129288Y0104926D01*
X0128537Y0104926D01*
X0127787Y0104175D01*
X0127787Y0102674D01*
X0128537Y0101923D01*
X0128537Y0100322D02*
X0127787Y0099571D01*
X0127787Y0098070D01*
X0128537Y0097319D01*
X0132290Y0101923D02*
X0132290Y0104926D01*
X0047290Y0104571D02*
X0047290Y0103070D01*
X0046540Y0102319D01*
X0043537Y0102319D01*
X0042787Y0103070D01*
X0042787Y0104571D01*
X0043537Y0105322D01*
X0043537Y0106923D02*
X0042787Y0107674D01*
X0042787Y0109175D01*
X0043537Y0109926D01*
X0044288Y0109926D01*
X0045038Y0109175D01*
X0045789Y0109926D01*
X0046540Y0109926D01*
X0047290Y0109175D01*
X0047290Y0107674D01*
X0046540Y0106923D01*
X0046540Y0105322D02*
X0047290Y0104571D01*
X0047290Y0100751D02*
X0047290Y0099250D01*
X0047290Y0100001D02*
X0042787Y0100001D01*
X0042787Y0100751D02*
X0042787Y0099250D01*
X0045038Y0108424D02*
X0045038Y0109175D01*
X0079725Y0040454D02*
X0082728Y0035950D01*
X0079725Y0035950D02*
X0082728Y0040454D01*
X0084329Y0038202D02*
X0087331Y0038202D01*
X0086581Y0040454D02*
X0084329Y0038202D01*
X0086581Y0035950D02*
X0086581Y0040454D01*
X0088530Y0018254D02*
X0088530Y0013750D01*
X0087029Y0013750D02*
X0090031Y0013750D01*
X0087029Y0016753D02*
X0088530Y0018254D01*
X0070531Y0017503D02*
X0070531Y0016753D01*
X0067529Y0013750D01*
X0070531Y0013750D01*
X0070531Y0017503D02*
X0069781Y0018254D01*
X0068280Y0018254D01*
X0067529Y0017503D01*
D14*
X0111236Y0018700D02*
X0114306Y0018700D01*
X0115840Y0020235D01*
X0114306Y0021769D01*
X0111236Y0021769D01*
X0111236Y0023304D02*
X0115840Y0023304D01*
X0115840Y0025606D01*
X0115073Y0026373D01*
X0113538Y0026373D01*
X0112771Y0025606D01*
X0112771Y0023304D01*
X0116236Y0033700D02*
X0116236Y0036002D01*
X0117004Y0036769D01*
X0118538Y0036769D01*
X0119306Y0036002D01*
X0119306Y0033700D01*
X0120840Y0033700D02*
X0116236Y0033700D01*
X0117771Y0038304D02*
X0120840Y0038304D01*
X0119306Y0038304D02*
X0117771Y0039839D01*
X0117771Y0040606D01*
X0118538Y0042141D02*
X0120073Y0042141D01*
X0120840Y0042908D01*
X0120840Y0045210D01*
X0121608Y0045210D02*
X0117771Y0045210D01*
X0117771Y0042908D01*
X0118538Y0042141D01*
X0122375Y0043675D02*
X0122375Y0044442D01*
X0121608Y0045210D01*
X0115073Y0056200D02*
X0115840Y0056967D01*
X0115840Y0058502D01*
X0115073Y0059269D01*
X0114306Y0059269D01*
X0113538Y0058502D01*
X0113538Y0057735D01*
X0113538Y0058502D02*
X0112771Y0059269D01*
X0112004Y0059269D01*
X0111236Y0058502D01*
X0111236Y0056967D01*
X0112004Y0056200D01*
X0115073Y0060804D02*
X0115073Y0061571D01*
X0115840Y0061571D01*
X0115840Y0060804D01*
X0115073Y0060804D01*
X0115073Y0063106D02*
X0115840Y0063873D01*
X0115840Y0065408D01*
X0115073Y0066175D01*
X0114306Y0066175D01*
X0113538Y0065408D01*
X0113538Y0064641D01*
X0113538Y0065408D02*
X0112771Y0066175D01*
X0112004Y0066175D01*
X0111236Y0065408D01*
X0111236Y0063873D01*
X0112004Y0063106D01*
X0121236Y0061002D02*
X0121236Y0059467D01*
X0122004Y0058700D01*
X0125073Y0058700D01*
X0125840Y0059467D01*
X0125840Y0061002D01*
X0125073Y0061769D01*
X0123538Y0061769D01*
X0123538Y0060235D01*
X0122004Y0061769D02*
X0121236Y0061002D01*
X0131236Y0060804D02*
X0134306Y0060804D01*
X0135840Y0062339D01*
X0134306Y0063873D01*
X0131236Y0063873D01*
X0131236Y0059269D02*
X0131236Y0056200D01*
X0133538Y0056200D01*
X0132771Y0057735D01*
X0132771Y0058502D01*
X0133538Y0059269D01*
X0135073Y0059269D01*
X0135840Y0058502D01*
X0135840Y0056967D01*
X0135073Y0056200D01*
X0271236Y0021002D02*
X0271236Y0018700D01*
X0275840Y0018700D01*
X0274306Y0018700D02*
X0274306Y0021002D01*
X0273538Y0021769D01*
X0272004Y0021769D01*
X0271236Y0021002D01*
X0274306Y0020235D02*
X0275840Y0021769D01*
X0281236Y0021002D02*
X0281236Y0019467D01*
X0282004Y0018700D01*
X0283538Y0020235D02*
X0283538Y0021002D01*
X0284306Y0021769D01*
X0285073Y0021769D01*
X0285840Y0021002D01*
X0285840Y0019467D01*
X0285073Y0018700D01*
X0283538Y0021002D02*
X0282771Y0021769D01*
X0282004Y0021769D01*
X0281236Y0021002D01*
X0285073Y0023304D02*
X0285073Y0024071D01*
X0285840Y0024071D01*
X0285840Y0023304D01*
X0285073Y0023304D01*
X0285073Y0025606D02*
X0285840Y0026373D01*
X0285840Y0027908D01*
X0285073Y0028675D01*
X0284306Y0028675D01*
X0283538Y0027908D01*
X0283538Y0027141D01*
X0283538Y0027908D02*
X0282771Y0028675D01*
X0282004Y0028675D01*
X0281236Y0027908D01*
X0281236Y0026373D01*
X0282004Y0025606D01*
X0291236Y0021002D02*
X0291236Y0019467D01*
X0292004Y0018700D01*
X0295073Y0018700D01*
X0295840Y0019467D01*
X0295840Y0021002D01*
X0295073Y0021769D01*
X0293538Y0021769D01*
X0293538Y0020235D01*
X0292004Y0021769D02*
X0291236Y0021002D01*
X0301236Y0021002D02*
X0301236Y0019467D01*
X0302004Y0018700D01*
X0305073Y0018700D01*
X0305840Y0019467D01*
X0305840Y0021002D01*
X0305073Y0021769D01*
X0303538Y0021769D01*
X0303538Y0020235D01*
X0302004Y0021769D02*
X0301236Y0021002D01*
X0302573Y0033700D02*
X0298736Y0033700D01*
X0298736Y0036769D02*
X0302573Y0036769D01*
X0303340Y0036002D01*
X0303340Y0034467D01*
X0302573Y0033700D01*
X0302573Y0038304D02*
X0303340Y0039071D01*
X0303340Y0040606D01*
X0302573Y0041373D01*
X0301806Y0041373D01*
X0301038Y0040606D01*
X0301038Y0039071D01*
X0300271Y0038304D01*
X0299504Y0038304D01*
X0298736Y0039071D01*
X0298736Y0040606D01*
X0299504Y0041373D01*
X0298736Y0042908D02*
X0298736Y0045210D01*
X0299504Y0045977D01*
X0300271Y0045977D01*
X0301038Y0045210D01*
X0301038Y0042908D01*
X0303340Y0042908D02*
X0298736Y0042908D01*
X0301038Y0045210D02*
X0301806Y0045977D01*
X0302573Y0045977D01*
X0303340Y0045210D01*
X0303340Y0042908D01*
X0276725Y0148700D02*
X0275524Y0148700D01*
X0274923Y0149301D01*
X0273642Y0148700D02*
X0271240Y0152303D01*
X0273642Y0152303D02*
X0271240Y0148700D01*
X0274923Y0151703D02*
X0275524Y0152303D01*
X0276725Y0152303D01*
X0277326Y0151703D01*
X0277326Y0151102D01*
X0276725Y0150502D01*
X0277326Y0149901D01*
X0277326Y0149301D01*
X0276725Y0148700D01*
X0276725Y0150502D02*
X0276125Y0150502D01*
X0177326Y0151102D02*
X0177326Y0151703D01*
X0176725Y0152303D01*
X0175524Y0152303D01*
X0174923Y0151703D01*
X0173642Y0152303D02*
X0171240Y0148700D01*
X0173642Y0148700D02*
X0171240Y0152303D01*
X0174923Y0148700D02*
X0177326Y0151102D01*
X0177326Y0148700D02*
X0174923Y0148700D01*
X0077326Y0148700D02*
X0074923Y0148700D01*
X0076125Y0148700D02*
X0076125Y0152303D01*
X0074923Y0151102D01*
X0073642Y0152303D02*
X0071240Y0148700D01*
X0073642Y0148700D02*
X0071240Y0152303D01*
D15*
X0033540Y0153500D02*
X0033540Y0146000D01*
X0113540Y0146000D01*
X0113540Y0128500D01*
X0033540Y0128500D01*
X0033540Y0146000D01*
X0033540Y0153500D02*
X0113540Y0153500D01*
X0113540Y0146000D01*
X0133540Y0146000D02*
X0213540Y0146000D01*
X0213540Y0128500D01*
X0133540Y0128500D01*
X0133540Y0146000D01*
X0133540Y0153500D01*
X0213540Y0153500D01*
X0213540Y0146000D01*
X0233540Y0146000D02*
X0313540Y0146000D01*
X0313540Y0128500D01*
X0233540Y0128500D01*
X0233540Y0146000D01*
X0233540Y0153500D01*
X0313540Y0153500D01*
X0313540Y0146000D01*
D16*
X0280573Y0025068D02*
X0279839Y0025068D01*
X0279839Y0024334D01*
X0279105Y0025068D02*
X0278738Y0024701D01*
X0278738Y0023967D01*
X0279105Y0023600D01*
X0280573Y0023600D01*
X0280940Y0023967D01*
X0280940Y0024701D01*
X0280573Y0025068D01*
X0270940Y0024701D02*
X0270940Y0023967D01*
X0270573Y0023600D01*
X0269839Y0023600D02*
X0269472Y0024334D01*
X0269472Y0024701D01*
X0269839Y0025068D01*
X0270573Y0025068D01*
X0270940Y0024701D01*
X0269839Y0023600D02*
X0268738Y0023600D01*
X0268738Y0025068D01*
X0260940Y0025068D02*
X0260206Y0024334D01*
X0260206Y0024701D02*
X0260206Y0023600D01*
X0260940Y0023600D02*
X0258738Y0023600D01*
X0258738Y0024701D01*
X0259105Y0025068D01*
X0259839Y0025068D01*
X0260206Y0024701D01*
X0253440Y0024334D02*
X0251238Y0024334D01*
X0251238Y0023600D02*
X0251238Y0025068D01*
M02*
