G75*
%MOIN*%
%OFA0B0*%
%FSLAX25Y25*%
%IPPOS*%
%LPD*%
%AMOC8*
5,1,8,0,0,1.08239X$1,22.5*
%
%ADD10C,0.00000*%
%ADD11C,0.05200*%
%ADD12R,0.05150X0.05150*%
%ADD13C,0.05150*%
%ADD14C,0.05937*%
%ADD15C,0.07050*%
%ADD16C,0.01600*%
%ADD17C,0.05906*%
%ADD18R,0.05000X0.05000*%
%ADD19C,0.04724*%
%ADD20C,0.03200*%
D10*
X0023540Y0001000D02*
X0023540Y0155980D01*
X0338501Y0155980D01*
X0338501Y0001000D01*
X0023540Y0001000D01*
X0027634Y0011000D02*
X0027636Y0011153D01*
X0027642Y0011307D01*
X0027652Y0011460D01*
X0027666Y0011612D01*
X0027684Y0011765D01*
X0027706Y0011916D01*
X0027731Y0012067D01*
X0027761Y0012218D01*
X0027795Y0012368D01*
X0027832Y0012516D01*
X0027873Y0012664D01*
X0027918Y0012810D01*
X0027967Y0012956D01*
X0028020Y0013100D01*
X0028076Y0013242D01*
X0028136Y0013383D01*
X0028200Y0013523D01*
X0028267Y0013661D01*
X0028338Y0013797D01*
X0028413Y0013931D01*
X0028490Y0014063D01*
X0028572Y0014193D01*
X0028656Y0014321D01*
X0028744Y0014447D01*
X0028835Y0014570D01*
X0028929Y0014691D01*
X0029027Y0014809D01*
X0029127Y0014925D01*
X0029231Y0015038D01*
X0029337Y0015149D01*
X0029446Y0015257D01*
X0029558Y0015362D01*
X0029672Y0015463D01*
X0029790Y0015562D01*
X0029909Y0015658D01*
X0030031Y0015751D01*
X0030156Y0015840D01*
X0030283Y0015927D01*
X0030412Y0016009D01*
X0030543Y0016089D01*
X0030676Y0016165D01*
X0030811Y0016238D01*
X0030948Y0016307D01*
X0031087Y0016372D01*
X0031227Y0016434D01*
X0031369Y0016492D01*
X0031512Y0016547D01*
X0031657Y0016598D01*
X0031803Y0016645D01*
X0031950Y0016688D01*
X0032098Y0016727D01*
X0032247Y0016763D01*
X0032397Y0016794D01*
X0032548Y0016822D01*
X0032699Y0016846D01*
X0032852Y0016866D01*
X0033004Y0016882D01*
X0033157Y0016894D01*
X0033310Y0016902D01*
X0033463Y0016906D01*
X0033617Y0016906D01*
X0033770Y0016902D01*
X0033923Y0016894D01*
X0034076Y0016882D01*
X0034228Y0016866D01*
X0034381Y0016846D01*
X0034532Y0016822D01*
X0034683Y0016794D01*
X0034833Y0016763D01*
X0034982Y0016727D01*
X0035130Y0016688D01*
X0035277Y0016645D01*
X0035423Y0016598D01*
X0035568Y0016547D01*
X0035711Y0016492D01*
X0035853Y0016434D01*
X0035993Y0016372D01*
X0036132Y0016307D01*
X0036269Y0016238D01*
X0036404Y0016165D01*
X0036537Y0016089D01*
X0036668Y0016009D01*
X0036797Y0015927D01*
X0036924Y0015840D01*
X0037049Y0015751D01*
X0037171Y0015658D01*
X0037290Y0015562D01*
X0037408Y0015463D01*
X0037522Y0015362D01*
X0037634Y0015257D01*
X0037743Y0015149D01*
X0037849Y0015038D01*
X0037953Y0014925D01*
X0038053Y0014809D01*
X0038151Y0014691D01*
X0038245Y0014570D01*
X0038336Y0014447D01*
X0038424Y0014321D01*
X0038508Y0014193D01*
X0038590Y0014063D01*
X0038667Y0013931D01*
X0038742Y0013797D01*
X0038813Y0013661D01*
X0038880Y0013523D01*
X0038944Y0013383D01*
X0039004Y0013242D01*
X0039060Y0013100D01*
X0039113Y0012956D01*
X0039162Y0012810D01*
X0039207Y0012664D01*
X0039248Y0012516D01*
X0039285Y0012368D01*
X0039319Y0012218D01*
X0039349Y0012067D01*
X0039374Y0011916D01*
X0039396Y0011765D01*
X0039414Y0011612D01*
X0039428Y0011460D01*
X0039438Y0011307D01*
X0039444Y0011153D01*
X0039446Y0011000D01*
X0039444Y0010847D01*
X0039438Y0010693D01*
X0039428Y0010540D01*
X0039414Y0010388D01*
X0039396Y0010235D01*
X0039374Y0010084D01*
X0039349Y0009933D01*
X0039319Y0009782D01*
X0039285Y0009632D01*
X0039248Y0009484D01*
X0039207Y0009336D01*
X0039162Y0009190D01*
X0039113Y0009044D01*
X0039060Y0008900D01*
X0039004Y0008758D01*
X0038944Y0008617D01*
X0038880Y0008477D01*
X0038813Y0008339D01*
X0038742Y0008203D01*
X0038667Y0008069D01*
X0038590Y0007937D01*
X0038508Y0007807D01*
X0038424Y0007679D01*
X0038336Y0007553D01*
X0038245Y0007430D01*
X0038151Y0007309D01*
X0038053Y0007191D01*
X0037953Y0007075D01*
X0037849Y0006962D01*
X0037743Y0006851D01*
X0037634Y0006743D01*
X0037522Y0006638D01*
X0037408Y0006537D01*
X0037290Y0006438D01*
X0037171Y0006342D01*
X0037049Y0006249D01*
X0036924Y0006160D01*
X0036797Y0006073D01*
X0036668Y0005991D01*
X0036537Y0005911D01*
X0036404Y0005835D01*
X0036269Y0005762D01*
X0036132Y0005693D01*
X0035993Y0005628D01*
X0035853Y0005566D01*
X0035711Y0005508D01*
X0035568Y0005453D01*
X0035423Y0005402D01*
X0035277Y0005355D01*
X0035130Y0005312D01*
X0034982Y0005273D01*
X0034833Y0005237D01*
X0034683Y0005206D01*
X0034532Y0005178D01*
X0034381Y0005154D01*
X0034228Y0005134D01*
X0034076Y0005118D01*
X0033923Y0005106D01*
X0033770Y0005098D01*
X0033617Y0005094D01*
X0033463Y0005094D01*
X0033310Y0005098D01*
X0033157Y0005106D01*
X0033004Y0005118D01*
X0032852Y0005134D01*
X0032699Y0005154D01*
X0032548Y0005178D01*
X0032397Y0005206D01*
X0032247Y0005237D01*
X0032098Y0005273D01*
X0031950Y0005312D01*
X0031803Y0005355D01*
X0031657Y0005402D01*
X0031512Y0005453D01*
X0031369Y0005508D01*
X0031227Y0005566D01*
X0031087Y0005628D01*
X0030948Y0005693D01*
X0030811Y0005762D01*
X0030676Y0005835D01*
X0030543Y0005911D01*
X0030412Y0005991D01*
X0030283Y0006073D01*
X0030156Y0006160D01*
X0030031Y0006249D01*
X0029909Y0006342D01*
X0029790Y0006438D01*
X0029672Y0006537D01*
X0029558Y0006638D01*
X0029446Y0006743D01*
X0029337Y0006851D01*
X0029231Y0006962D01*
X0029127Y0007075D01*
X0029027Y0007191D01*
X0028929Y0007309D01*
X0028835Y0007430D01*
X0028744Y0007553D01*
X0028656Y0007679D01*
X0028572Y0007807D01*
X0028490Y0007937D01*
X0028413Y0008069D01*
X0028338Y0008203D01*
X0028267Y0008339D01*
X0028200Y0008477D01*
X0028136Y0008617D01*
X0028076Y0008758D01*
X0028020Y0008900D01*
X0027967Y0009044D01*
X0027918Y0009190D01*
X0027873Y0009336D01*
X0027832Y0009484D01*
X0027795Y0009632D01*
X0027761Y0009782D01*
X0027731Y0009933D01*
X0027706Y0010084D01*
X0027684Y0010235D01*
X0027666Y0010388D01*
X0027652Y0010540D01*
X0027642Y0010693D01*
X0027636Y0010847D01*
X0027634Y0011000D01*
X0322634Y0011000D02*
X0322636Y0011153D01*
X0322642Y0011307D01*
X0322652Y0011460D01*
X0322666Y0011612D01*
X0322684Y0011765D01*
X0322706Y0011916D01*
X0322731Y0012067D01*
X0322761Y0012218D01*
X0322795Y0012368D01*
X0322832Y0012516D01*
X0322873Y0012664D01*
X0322918Y0012810D01*
X0322967Y0012956D01*
X0323020Y0013100D01*
X0323076Y0013242D01*
X0323136Y0013383D01*
X0323200Y0013523D01*
X0323267Y0013661D01*
X0323338Y0013797D01*
X0323413Y0013931D01*
X0323490Y0014063D01*
X0323572Y0014193D01*
X0323656Y0014321D01*
X0323744Y0014447D01*
X0323835Y0014570D01*
X0323929Y0014691D01*
X0324027Y0014809D01*
X0324127Y0014925D01*
X0324231Y0015038D01*
X0324337Y0015149D01*
X0324446Y0015257D01*
X0324558Y0015362D01*
X0324672Y0015463D01*
X0324790Y0015562D01*
X0324909Y0015658D01*
X0325031Y0015751D01*
X0325156Y0015840D01*
X0325283Y0015927D01*
X0325412Y0016009D01*
X0325543Y0016089D01*
X0325676Y0016165D01*
X0325811Y0016238D01*
X0325948Y0016307D01*
X0326087Y0016372D01*
X0326227Y0016434D01*
X0326369Y0016492D01*
X0326512Y0016547D01*
X0326657Y0016598D01*
X0326803Y0016645D01*
X0326950Y0016688D01*
X0327098Y0016727D01*
X0327247Y0016763D01*
X0327397Y0016794D01*
X0327548Y0016822D01*
X0327699Y0016846D01*
X0327852Y0016866D01*
X0328004Y0016882D01*
X0328157Y0016894D01*
X0328310Y0016902D01*
X0328463Y0016906D01*
X0328617Y0016906D01*
X0328770Y0016902D01*
X0328923Y0016894D01*
X0329076Y0016882D01*
X0329228Y0016866D01*
X0329381Y0016846D01*
X0329532Y0016822D01*
X0329683Y0016794D01*
X0329833Y0016763D01*
X0329982Y0016727D01*
X0330130Y0016688D01*
X0330277Y0016645D01*
X0330423Y0016598D01*
X0330568Y0016547D01*
X0330711Y0016492D01*
X0330853Y0016434D01*
X0330993Y0016372D01*
X0331132Y0016307D01*
X0331269Y0016238D01*
X0331404Y0016165D01*
X0331537Y0016089D01*
X0331668Y0016009D01*
X0331797Y0015927D01*
X0331924Y0015840D01*
X0332049Y0015751D01*
X0332171Y0015658D01*
X0332290Y0015562D01*
X0332408Y0015463D01*
X0332522Y0015362D01*
X0332634Y0015257D01*
X0332743Y0015149D01*
X0332849Y0015038D01*
X0332953Y0014925D01*
X0333053Y0014809D01*
X0333151Y0014691D01*
X0333245Y0014570D01*
X0333336Y0014447D01*
X0333424Y0014321D01*
X0333508Y0014193D01*
X0333590Y0014063D01*
X0333667Y0013931D01*
X0333742Y0013797D01*
X0333813Y0013661D01*
X0333880Y0013523D01*
X0333944Y0013383D01*
X0334004Y0013242D01*
X0334060Y0013100D01*
X0334113Y0012956D01*
X0334162Y0012810D01*
X0334207Y0012664D01*
X0334248Y0012516D01*
X0334285Y0012368D01*
X0334319Y0012218D01*
X0334349Y0012067D01*
X0334374Y0011916D01*
X0334396Y0011765D01*
X0334414Y0011612D01*
X0334428Y0011460D01*
X0334438Y0011307D01*
X0334444Y0011153D01*
X0334446Y0011000D01*
X0334444Y0010847D01*
X0334438Y0010693D01*
X0334428Y0010540D01*
X0334414Y0010388D01*
X0334396Y0010235D01*
X0334374Y0010084D01*
X0334349Y0009933D01*
X0334319Y0009782D01*
X0334285Y0009632D01*
X0334248Y0009484D01*
X0334207Y0009336D01*
X0334162Y0009190D01*
X0334113Y0009044D01*
X0334060Y0008900D01*
X0334004Y0008758D01*
X0333944Y0008617D01*
X0333880Y0008477D01*
X0333813Y0008339D01*
X0333742Y0008203D01*
X0333667Y0008069D01*
X0333590Y0007937D01*
X0333508Y0007807D01*
X0333424Y0007679D01*
X0333336Y0007553D01*
X0333245Y0007430D01*
X0333151Y0007309D01*
X0333053Y0007191D01*
X0332953Y0007075D01*
X0332849Y0006962D01*
X0332743Y0006851D01*
X0332634Y0006743D01*
X0332522Y0006638D01*
X0332408Y0006537D01*
X0332290Y0006438D01*
X0332171Y0006342D01*
X0332049Y0006249D01*
X0331924Y0006160D01*
X0331797Y0006073D01*
X0331668Y0005991D01*
X0331537Y0005911D01*
X0331404Y0005835D01*
X0331269Y0005762D01*
X0331132Y0005693D01*
X0330993Y0005628D01*
X0330853Y0005566D01*
X0330711Y0005508D01*
X0330568Y0005453D01*
X0330423Y0005402D01*
X0330277Y0005355D01*
X0330130Y0005312D01*
X0329982Y0005273D01*
X0329833Y0005237D01*
X0329683Y0005206D01*
X0329532Y0005178D01*
X0329381Y0005154D01*
X0329228Y0005134D01*
X0329076Y0005118D01*
X0328923Y0005106D01*
X0328770Y0005098D01*
X0328617Y0005094D01*
X0328463Y0005094D01*
X0328310Y0005098D01*
X0328157Y0005106D01*
X0328004Y0005118D01*
X0327852Y0005134D01*
X0327699Y0005154D01*
X0327548Y0005178D01*
X0327397Y0005206D01*
X0327247Y0005237D01*
X0327098Y0005273D01*
X0326950Y0005312D01*
X0326803Y0005355D01*
X0326657Y0005402D01*
X0326512Y0005453D01*
X0326369Y0005508D01*
X0326227Y0005566D01*
X0326087Y0005628D01*
X0325948Y0005693D01*
X0325811Y0005762D01*
X0325676Y0005835D01*
X0325543Y0005911D01*
X0325412Y0005991D01*
X0325283Y0006073D01*
X0325156Y0006160D01*
X0325031Y0006249D01*
X0324909Y0006342D01*
X0324790Y0006438D01*
X0324672Y0006537D01*
X0324558Y0006638D01*
X0324446Y0006743D01*
X0324337Y0006851D01*
X0324231Y0006962D01*
X0324127Y0007075D01*
X0324027Y0007191D01*
X0323929Y0007309D01*
X0323835Y0007430D01*
X0323744Y0007553D01*
X0323656Y0007679D01*
X0323572Y0007807D01*
X0323490Y0007937D01*
X0323413Y0008069D01*
X0323338Y0008203D01*
X0323267Y0008339D01*
X0323200Y0008477D01*
X0323136Y0008617D01*
X0323076Y0008758D01*
X0323020Y0008900D01*
X0322967Y0009044D01*
X0322918Y0009190D01*
X0322873Y0009336D01*
X0322832Y0009484D01*
X0322795Y0009632D01*
X0322761Y0009782D01*
X0322731Y0009933D01*
X0322706Y0010084D01*
X0322684Y0010235D01*
X0322666Y0010388D01*
X0322652Y0010540D01*
X0322642Y0010693D01*
X0322636Y0010847D01*
X0322634Y0011000D01*
X0322634Y0146000D02*
X0322636Y0146153D01*
X0322642Y0146307D01*
X0322652Y0146460D01*
X0322666Y0146612D01*
X0322684Y0146765D01*
X0322706Y0146916D01*
X0322731Y0147067D01*
X0322761Y0147218D01*
X0322795Y0147368D01*
X0322832Y0147516D01*
X0322873Y0147664D01*
X0322918Y0147810D01*
X0322967Y0147956D01*
X0323020Y0148100D01*
X0323076Y0148242D01*
X0323136Y0148383D01*
X0323200Y0148523D01*
X0323267Y0148661D01*
X0323338Y0148797D01*
X0323413Y0148931D01*
X0323490Y0149063D01*
X0323572Y0149193D01*
X0323656Y0149321D01*
X0323744Y0149447D01*
X0323835Y0149570D01*
X0323929Y0149691D01*
X0324027Y0149809D01*
X0324127Y0149925D01*
X0324231Y0150038D01*
X0324337Y0150149D01*
X0324446Y0150257D01*
X0324558Y0150362D01*
X0324672Y0150463D01*
X0324790Y0150562D01*
X0324909Y0150658D01*
X0325031Y0150751D01*
X0325156Y0150840D01*
X0325283Y0150927D01*
X0325412Y0151009D01*
X0325543Y0151089D01*
X0325676Y0151165D01*
X0325811Y0151238D01*
X0325948Y0151307D01*
X0326087Y0151372D01*
X0326227Y0151434D01*
X0326369Y0151492D01*
X0326512Y0151547D01*
X0326657Y0151598D01*
X0326803Y0151645D01*
X0326950Y0151688D01*
X0327098Y0151727D01*
X0327247Y0151763D01*
X0327397Y0151794D01*
X0327548Y0151822D01*
X0327699Y0151846D01*
X0327852Y0151866D01*
X0328004Y0151882D01*
X0328157Y0151894D01*
X0328310Y0151902D01*
X0328463Y0151906D01*
X0328617Y0151906D01*
X0328770Y0151902D01*
X0328923Y0151894D01*
X0329076Y0151882D01*
X0329228Y0151866D01*
X0329381Y0151846D01*
X0329532Y0151822D01*
X0329683Y0151794D01*
X0329833Y0151763D01*
X0329982Y0151727D01*
X0330130Y0151688D01*
X0330277Y0151645D01*
X0330423Y0151598D01*
X0330568Y0151547D01*
X0330711Y0151492D01*
X0330853Y0151434D01*
X0330993Y0151372D01*
X0331132Y0151307D01*
X0331269Y0151238D01*
X0331404Y0151165D01*
X0331537Y0151089D01*
X0331668Y0151009D01*
X0331797Y0150927D01*
X0331924Y0150840D01*
X0332049Y0150751D01*
X0332171Y0150658D01*
X0332290Y0150562D01*
X0332408Y0150463D01*
X0332522Y0150362D01*
X0332634Y0150257D01*
X0332743Y0150149D01*
X0332849Y0150038D01*
X0332953Y0149925D01*
X0333053Y0149809D01*
X0333151Y0149691D01*
X0333245Y0149570D01*
X0333336Y0149447D01*
X0333424Y0149321D01*
X0333508Y0149193D01*
X0333590Y0149063D01*
X0333667Y0148931D01*
X0333742Y0148797D01*
X0333813Y0148661D01*
X0333880Y0148523D01*
X0333944Y0148383D01*
X0334004Y0148242D01*
X0334060Y0148100D01*
X0334113Y0147956D01*
X0334162Y0147810D01*
X0334207Y0147664D01*
X0334248Y0147516D01*
X0334285Y0147368D01*
X0334319Y0147218D01*
X0334349Y0147067D01*
X0334374Y0146916D01*
X0334396Y0146765D01*
X0334414Y0146612D01*
X0334428Y0146460D01*
X0334438Y0146307D01*
X0334444Y0146153D01*
X0334446Y0146000D01*
X0334444Y0145847D01*
X0334438Y0145693D01*
X0334428Y0145540D01*
X0334414Y0145388D01*
X0334396Y0145235D01*
X0334374Y0145084D01*
X0334349Y0144933D01*
X0334319Y0144782D01*
X0334285Y0144632D01*
X0334248Y0144484D01*
X0334207Y0144336D01*
X0334162Y0144190D01*
X0334113Y0144044D01*
X0334060Y0143900D01*
X0334004Y0143758D01*
X0333944Y0143617D01*
X0333880Y0143477D01*
X0333813Y0143339D01*
X0333742Y0143203D01*
X0333667Y0143069D01*
X0333590Y0142937D01*
X0333508Y0142807D01*
X0333424Y0142679D01*
X0333336Y0142553D01*
X0333245Y0142430D01*
X0333151Y0142309D01*
X0333053Y0142191D01*
X0332953Y0142075D01*
X0332849Y0141962D01*
X0332743Y0141851D01*
X0332634Y0141743D01*
X0332522Y0141638D01*
X0332408Y0141537D01*
X0332290Y0141438D01*
X0332171Y0141342D01*
X0332049Y0141249D01*
X0331924Y0141160D01*
X0331797Y0141073D01*
X0331668Y0140991D01*
X0331537Y0140911D01*
X0331404Y0140835D01*
X0331269Y0140762D01*
X0331132Y0140693D01*
X0330993Y0140628D01*
X0330853Y0140566D01*
X0330711Y0140508D01*
X0330568Y0140453D01*
X0330423Y0140402D01*
X0330277Y0140355D01*
X0330130Y0140312D01*
X0329982Y0140273D01*
X0329833Y0140237D01*
X0329683Y0140206D01*
X0329532Y0140178D01*
X0329381Y0140154D01*
X0329228Y0140134D01*
X0329076Y0140118D01*
X0328923Y0140106D01*
X0328770Y0140098D01*
X0328617Y0140094D01*
X0328463Y0140094D01*
X0328310Y0140098D01*
X0328157Y0140106D01*
X0328004Y0140118D01*
X0327852Y0140134D01*
X0327699Y0140154D01*
X0327548Y0140178D01*
X0327397Y0140206D01*
X0327247Y0140237D01*
X0327098Y0140273D01*
X0326950Y0140312D01*
X0326803Y0140355D01*
X0326657Y0140402D01*
X0326512Y0140453D01*
X0326369Y0140508D01*
X0326227Y0140566D01*
X0326087Y0140628D01*
X0325948Y0140693D01*
X0325811Y0140762D01*
X0325676Y0140835D01*
X0325543Y0140911D01*
X0325412Y0140991D01*
X0325283Y0141073D01*
X0325156Y0141160D01*
X0325031Y0141249D01*
X0324909Y0141342D01*
X0324790Y0141438D01*
X0324672Y0141537D01*
X0324558Y0141638D01*
X0324446Y0141743D01*
X0324337Y0141851D01*
X0324231Y0141962D01*
X0324127Y0142075D01*
X0324027Y0142191D01*
X0323929Y0142309D01*
X0323835Y0142430D01*
X0323744Y0142553D01*
X0323656Y0142679D01*
X0323572Y0142807D01*
X0323490Y0142937D01*
X0323413Y0143069D01*
X0323338Y0143203D01*
X0323267Y0143339D01*
X0323200Y0143477D01*
X0323136Y0143617D01*
X0323076Y0143758D01*
X0323020Y0143900D01*
X0322967Y0144044D01*
X0322918Y0144190D01*
X0322873Y0144336D01*
X0322832Y0144484D01*
X0322795Y0144632D01*
X0322761Y0144782D01*
X0322731Y0144933D01*
X0322706Y0145084D01*
X0322684Y0145235D01*
X0322666Y0145388D01*
X0322652Y0145540D01*
X0322642Y0145693D01*
X0322636Y0145847D01*
X0322634Y0146000D01*
D11*
X0318540Y0123600D02*
X0318540Y0118400D01*
X0308540Y0118400D02*
X0308540Y0123600D01*
X0298540Y0123600D02*
X0298540Y0118400D01*
X0288540Y0118400D02*
X0288540Y0123600D01*
X0278540Y0123600D02*
X0278540Y0118400D01*
X0268540Y0118400D02*
X0268540Y0123600D01*
X0258540Y0123600D02*
X0258540Y0118400D01*
X0248540Y0118400D02*
X0248540Y0123600D01*
X0238540Y0123600D02*
X0238540Y0118400D01*
X0218540Y0118400D02*
X0218540Y0123600D01*
X0208540Y0123600D02*
X0208540Y0118400D01*
X0198540Y0118400D02*
X0198540Y0123600D01*
X0188540Y0123600D02*
X0188540Y0118400D01*
X0178540Y0118400D02*
X0178540Y0123600D01*
X0168540Y0123600D02*
X0168540Y0118400D01*
X0158540Y0118400D02*
X0158540Y0123600D01*
X0148540Y0123600D02*
X0148540Y0118400D01*
X0138540Y0118400D02*
X0138540Y0123600D01*
X0118540Y0123600D02*
X0118540Y0118400D01*
X0108540Y0118400D02*
X0108540Y0123600D01*
X0098540Y0123600D02*
X0098540Y0118400D01*
X0088540Y0118400D02*
X0088540Y0123600D01*
X0078540Y0123600D02*
X0078540Y0118400D01*
X0068540Y0118400D02*
X0068540Y0123600D01*
X0058540Y0123600D02*
X0058540Y0118400D01*
X0048540Y0118400D02*
X0048540Y0123600D01*
X0038540Y0123600D02*
X0038540Y0118400D01*
X0038540Y0093600D02*
X0038540Y0088400D01*
X0048540Y0088400D02*
X0048540Y0093600D01*
X0058540Y0093600D02*
X0058540Y0088400D01*
X0068540Y0088400D02*
X0068540Y0093600D01*
X0078540Y0093600D02*
X0078540Y0088400D01*
X0088540Y0088400D02*
X0088540Y0093600D01*
X0098540Y0093600D02*
X0098540Y0088400D01*
X0108540Y0088400D02*
X0108540Y0093600D01*
X0118540Y0093600D02*
X0118540Y0088400D01*
X0138540Y0088400D02*
X0138540Y0093600D01*
X0148540Y0093600D02*
X0148540Y0088400D01*
X0158540Y0088400D02*
X0158540Y0093600D01*
X0168540Y0093600D02*
X0168540Y0088400D01*
X0178540Y0088400D02*
X0178540Y0093600D01*
X0188540Y0093600D02*
X0188540Y0088400D01*
X0198540Y0088400D02*
X0198540Y0093600D01*
X0208540Y0093600D02*
X0208540Y0088400D01*
X0218540Y0088400D02*
X0218540Y0093600D01*
X0238540Y0093600D02*
X0238540Y0088400D01*
X0248540Y0088400D02*
X0248540Y0093600D01*
X0258540Y0093600D02*
X0258540Y0088400D01*
X0268540Y0088400D02*
X0268540Y0093600D01*
X0278540Y0093600D02*
X0278540Y0088400D01*
X0288540Y0088400D02*
X0288540Y0093600D01*
X0298540Y0093600D02*
X0298540Y0088400D01*
X0308540Y0088400D02*
X0308540Y0093600D01*
X0318540Y0093600D02*
X0318540Y0088400D01*
D12*
X0283540Y0031000D03*
X0283540Y0021000D03*
X0113540Y0011000D03*
X0113540Y0071000D03*
D13*
X0123540Y0071000D03*
X0133540Y0071000D03*
X0143540Y0071000D03*
X0153540Y0071000D03*
X0163540Y0071000D03*
X0173540Y0071000D03*
X0183540Y0071000D03*
X0193540Y0071000D03*
X0203540Y0071000D03*
X0213540Y0071000D03*
X0223540Y0071000D03*
X0233540Y0071000D03*
X0243540Y0071000D03*
X0253540Y0071000D03*
X0263540Y0071000D03*
X0273540Y0071000D03*
X0283540Y0071000D03*
X0293540Y0071000D03*
X0303540Y0071000D03*
X0293540Y0061000D03*
X0283540Y0061000D03*
X0283540Y0051000D03*
X0293540Y0051000D03*
X0293540Y0041000D03*
X0283540Y0041000D03*
X0293540Y0031000D03*
X0273540Y0021000D03*
X0263540Y0021000D03*
X0253540Y0021000D03*
X0253540Y0011000D03*
X0243540Y0011000D03*
X0233540Y0011000D03*
X0223540Y0011000D03*
X0213540Y0011000D03*
X0203540Y0011000D03*
X0193540Y0011000D03*
X0183540Y0011000D03*
X0173540Y0011000D03*
X0163540Y0011000D03*
X0153540Y0011000D03*
X0143540Y0011000D03*
X0133540Y0011000D03*
X0123540Y0011000D03*
X0263540Y0011000D03*
X0273540Y0011000D03*
X0283540Y0011000D03*
X0293540Y0011000D03*
X0303540Y0011000D03*
D14*
X0298540Y0138031D02*
X0298540Y0143969D01*
X0288540Y0143969D02*
X0288540Y0138031D01*
X0278540Y0138031D02*
X0278540Y0143969D01*
X0268540Y0143969D02*
X0268540Y0138031D01*
X0258540Y0138031D02*
X0258540Y0143969D01*
X0248540Y0143969D02*
X0248540Y0138031D01*
X0238540Y0138031D02*
X0238540Y0143969D01*
X0208540Y0143969D02*
X0208540Y0138031D01*
X0198540Y0138031D02*
X0198540Y0143969D01*
X0188540Y0143969D02*
X0188540Y0138031D01*
X0178540Y0138031D02*
X0178540Y0143969D01*
X0168540Y0143969D02*
X0168540Y0138031D01*
X0158540Y0138031D02*
X0158540Y0143969D01*
X0148540Y0143969D02*
X0148540Y0138031D01*
X0138540Y0138031D02*
X0138540Y0143969D01*
X0108540Y0143969D02*
X0108540Y0138031D01*
X0098540Y0138031D02*
X0098540Y0143969D01*
X0088540Y0143969D02*
X0088540Y0138031D01*
X0078540Y0138031D02*
X0078540Y0143969D01*
X0068540Y0143969D02*
X0068540Y0138031D01*
X0058540Y0138031D02*
X0058540Y0143969D01*
X0048540Y0143969D02*
X0048540Y0138031D01*
X0038540Y0138031D02*
X0038540Y0143969D01*
X0308540Y0143969D02*
X0308540Y0138031D01*
D15*
X0083383Y0029525D02*
X0083383Y0022475D01*
X0063698Y0022475D02*
X0063698Y0029525D01*
D16*
X0070423Y0029773D02*
X0078058Y0029773D01*
X0078058Y0029944D02*
X0078058Y0026375D01*
X0083008Y0026375D01*
X0083008Y0034850D01*
X0082964Y0034850D01*
X0082136Y0034719D01*
X0081339Y0034460D01*
X0080592Y0034079D01*
X0079914Y0033587D01*
X0079321Y0032994D01*
X0078829Y0032316D01*
X0078448Y0031569D01*
X0078189Y0030772D01*
X0078058Y0029944D01*
X0078384Y0031372D02*
X0070212Y0031372D01*
X0070423Y0030863D02*
X0069399Y0033334D01*
X0067507Y0035226D01*
X0065036Y0036250D01*
X0062360Y0036250D01*
X0059888Y0035226D01*
X0057997Y0033334D01*
X0057996Y0033333D01*
X0033940Y0057388D01*
X0033940Y0084798D01*
X0035255Y0083483D01*
X0037387Y0082600D01*
X0039694Y0082600D01*
X0041826Y0083483D01*
X0043457Y0085115D01*
X0043540Y0085315D01*
X0043623Y0085115D01*
X0045255Y0083483D01*
X0047387Y0082600D01*
X0049694Y0082600D01*
X0051826Y0083483D01*
X0053457Y0085115D01*
X0053540Y0085315D01*
X0053623Y0085115D01*
X0055255Y0083483D01*
X0057387Y0082600D01*
X0059694Y0082600D01*
X0061826Y0083483D01*
X0063457Y0085115D01*
X0063540Y0085315D01*
X0063623Y0085115D01*
X0064540Y0084198D01*
X0064540Y0070204D01*
X0065149Y0068734D01*
X0066275Y0067609D01*
X0094540Y0039343D01*
X0094540Y0020204D01*
X0095149Y0018734D01*
X0096275Y0017609D01*
X0097745Y0017000D01*
X0141883Y0017000D01*
X0142192Y0016692D01*
X0140269Y0015896D01*
X0138645Y0014271D01*
X0138540Y0014019D01*
X0138436Y0014271D01*
X0136812Y0015896D01*
X0134689Y0016775D01*
X0132392Y0016775D01*
X0130269Y0015896D01*
X0128645Y0014271D01*
X0128540Y0014019D01*
X0128436Y0014271D01*
X0126812Y0015896D01*
X0124689Y0016775D01*
X0122392Y0016775D01*
X0120269Y0015896D01*
X0119101Y0014728D01*
X0118828Y0015387D01*
X0117928Y0016288D01*
X0116752Y0016775D01*
X0110329Y0016775D01*
X0109153Y0016288D01*
X0108253Y0015387D01*
X0107766Y0014211D01*
X0107766Y0007789D01*
X0108253Y0006613D01*
X0108865Y0006000D01*
X0043540Y0006000D01*
X0043540Y0021000D01*
X0028540Y0021000D01*
X0028540Y0049212D01*
X0055821Y0021931D01*
X0056973Y0021454D01*
X0056973Y0021137D01*
X0057997Y0018666D01*
X0059888Y0016774D01*
X0062360Y0015750D01*
X0065036Y0015750D01*
X0067507Y0016774D01*
X0069399Y0018666D01*
X0070423Y0021137D01*
X0070423Y0030863D01*
X0069550Y0032970D02*
X0079304Y0032970D01*
X0081674Y0034569D02*
X0068165Y0034569D01*
X0065235Y0036167D02*
X0094540Y0036167D01*
X0094540Y0034569D02*
X0085092Y0034569D01*
X0085427Y0034460D02*
X0084630Y0034719D01*
X0083802Y0034850D01*
X0083758Y0034850D01*
X0083758Y0026375D01*
X0088708Y0026375D01*
X0088708Y0029944D01*
X0088577Y0030772D01*
X0088318Y0031569D01*
X0087937Y0032316D01*
X0087445Y0032994D01*
X0086852Y0033587D01*
X0086174Y0034079D01*
X0085427Y0034460D01*
X0083758Y0034569D02*
X0083008Y0034569D01*
X0083008Y0032970D02*
X0083758Y0032970D01*
X0087462Y0032970D02*
X0094540Y0032970D01*
X0094540Y0031372D02*
X0088382Y0031372D01*
X0088708Y0029773D02*
X0094540Y0029773D01*
X0094540Y0028175D02*
X0088708Y0028175D01*
X0088708Y0026576D02*
X0094540Y0026576D01*
X0094540Y0024978D02*
X0088708Y0024978D01*
X0088708Y0025625D02*
X0088708Y0022056D01*
X0088577Y0021228D01*
X0088318Y0020431D01*
X0087937Y0019684D01*
X0087445Y0019006D01*
X0086852Y0018413D01*
X0086174Y0017921D01*
X0085427Y0017540D01*
X0084630Y0017281D01*
X0083802Y0017150D01*
X0083758Y0017150D01*
X0083758Y0025625D01*
X0083758Y0026375D01*
X0083008Y0026375D01*
X0083008Y0025625D01*
X0083758Y0025625D01*
X0088708Y0025625D01*
X0088708Y0023379D02*
X0094540Y0023379D01*
X0094540Y0021781D02*
X0088664Y0021781D01*
X0088191Y0020182D02*
X0094550Y0020182D01*
X0095300Y0018584D02*
X0087022Y0018584D01*
X0083758Y0018584D02*
X0083008Y0018584D01*
X0083008Y0017150D02*
X0083008Y0025625D01*
X0078058Y0025625D01*
X0078058Y0022056D01*
X0078189Y0021228D01*
X0078448Y0020431D01*
X0078829Y0019684D01*
X0079321Y0019006D01*
X0079914Y0018413D01*
X0080592Y0017921D01*
X0081339Y0017540D01*
X0082136Y0017281D01*
X0082964Y0017150D01*
X0083008Y0017150D01*
X0079744Y0018584D02*
X0069317Y0018584D01*
X0070027Y0020182D02*
X0078575Y0020182D01*
X0078101Y0021781D02*
X0070423Y0021781D01*
X0070423Y0023379D02*
X0078058Y0023379D01*
X0078058Y0024978D02*
X0070423Y0024978D01*
X0070423Y0026576D02*
X0078058Y0026576D01*
X0078058Y0028175D02*
X0070423Y0028175D01*
X0083008Y0028175D02*
X0083758Y0028175D01*
X0083758Y0029773D02*
X0083008Y0029773D01*
X0083008Y0031372D02*
X0083758Y0031372D01*
X0083758Y0026576D02*
X0083008Y0026576D01*
X0083008Y0024978D02*
X0083758Y0024978D01*
X0083758Y0023379D02*
X0083008Y0023379D01*
X0083008Y0021781D02*
X0083758Y0021781D01*
X0083758Y0020182D02*
X0083008Y0020182D01*
X0098540Y0021000D02*
X0098540Y0041000D01*
X0068540Y0071000D01*
X0068540Y0091000D01*
X0078540Y0091000D02*
X0078540Y0066000D01*
X0103540Y0041000D01*
X0103540Y0026000D01*
X0148540Y0026000D01*
X0163540Y0011000D01*
X0153540Y0011000D02*
X0143540Y0021000D01*
X0098540Y0021000D01*
X0108252Y0015387D02*
X0043540Y0015387D01*
X0043540Y0016985D02*
X0059677Y0016985D01*
X0058079Y0018584D02*
X0043540Y0018584D01*
X0043540Y0020182D02*
X0057368Y0020182D01*
X0056184Y0021781D02*
X0028540Y0021781D01*
X0028540Y0023379D02*
X0054373Y0023379D01*
X0052774Y0024978D02*
X0028540Y0024978D01*
X0028540Y0026576D02*
X0051176Y0026576D01*
X0049577Y0028175D02*
X0028540Y0028175D01*
X0028540Y0029773D02*
X0047979Y0029773D01*
X0046380Y0031372D02*
X0028540Y0031372D01*
X0028540Y0032970D02*
X0044782Y0032970D01*
X0043183Y0034569D02*
X0028540Y0034569D01*
X0028540Y0036167D02*
X0041585Y0036167D01*
X0039986Y0037766D02*
X0028540Y0037766D01*
X0028540Y0039364D02*
X0038388Y0039364D01*
X0036789Y0040963D02*
X0028540Y0040963D01*
X0028540Y0042561D02*
X0035191Y0042561D01*
X0033592Y0044160D02*
X0028540Y0044160D01*
X0028540Y0045758D02*
X0031994Y0045758D01*
X0030395Y0047357D02*
X0028540Y0047357D01*
X0028540Y0048955D02*
X0028797Y0048955D01*
X0037578Y0053751D02*
X0080133Y0053751D01*
X0081731Y0052152D02*
X0039176Y0052152D01*
X0040775Y0050554D02*
X0083330Y0050554D01*
X0084928Y0048955D02*
X0042373Y0048955D01*
X0043972Y0047357D02*
X0086527Y0047357D01*
X0088125Y0045758D02*
X0045570Y0045758D01*
X0047169Y0044160D02*
X0089724Y0044160D01*
X0091322Y0042561D02*
X0048767Y0042561D01*
X0050366Y0040963D02*
X0092921Y0040963D01*
X0094519Y0039364D02*
X0051964Y0039364D01*
X0053563Y0037766D02*
X0094540Y0037766D01*
X0108540Y0041000D02*
X0088540Y0061000D01*
X0088540Y0091000D01*
X0098540Y0091000D02*
X0098540Y0056000D01*
X0118540Y0036000D01*
X0158540Y0036000D01*
X0183540Y0011000D01*
X0188540Y0014019D02*
X0188436Y0014271D01*
X0186812Y0015896D01*
X0184689Y0016775D01*
X0183422Y0016775D01*
X0163197Y0037000D01*
X0166883Y0037000D01*
X0167978Y0035905D01*
X0167978Y0034894D01*
X0168825Y0032849D01*
X0170390Y0031285D01*
X0172434Y0030438D01*
X0174647Y0030438D01*
X0176691Y0031285D01*
X0178256Y0032849D01*
X0179103Y0034894D01*
X0179103Y0037106D01*
X0178256Y0039151D01*
X0176691Y0040715D01*
X0174647Y0041562D01*
X0173635Y0041562D01*
X0171931Y0043266D01*
X0170806Y0044391D01*
X0169336Y0045000D01*
X0125197Y0045000D01*
X0117540Y0052657D01*
X0117540Y0065552D01*
X0117928Y0065712D01*
X0118828Y0066613D01*
X0119315Y0067789D01*
X0119315Y0069847D01*
X0119486Y0069321D01*
X0119799Y0068707D01*
X0120203Y0068150D01*
X0120690Y0067663D01*
X0121247Y0067258D01*
X0121861Y0066946D01*
X0122516Y0066733D01*
X0123196Y0066625D01*
X0123540Y0066625D01*
X0123540Y0071000D01*
X0123540Y0075375D01*
X0123196Y0075375D01*
X0122516Y0075267D01*
X0121861Y0075054D01*
X0121247Y0074742D01*
X0120690Y0074337D01*
X0120203Y0073850D01*
X0119799Y0073293D01*
X0119486Y0072679D01*
X0119315Y0072153D01*
X0119315Y0074211D01*
X0118828Y0075387D01*
X0117928Y0076288D01*
X0116752Y0076775D01*
X0110329Y0076775D01*
X0109153Y0076288D01*
X0108253Y0075387D01*
X0107766Y0074211D01*
X0107766Y0067789D01*
X0108253Y0066613D01*
X0109153Y0065712D01*
X0109540Y0065552D01*
X0109540Y0050657D01*
X0102540Y0057657D01*
X0102540Y0084198D01*
X0103457Y0085115D01*
X0103540Y0085315D01*
X0103623Y0085115D01*
X0105255Y0083483D01*
X0107387Y0082600D01*
X0109694Y0082600D01*
X0111826Y0083483D01*
X0113457Y0085115D01*
X0114311Y0087177D01*
X0114463Y0086711D01*
X0114777Y0086094D01*
X0115184Y0085534D01*
X0115674Y0085044D01*
X0116234Y0084637D01*
X0116851Y0084322D01*
X0117510Y0084108D01*
X0118194Y0084000D01*
X0118540Y0084000D01*
X0118540Y0091000D01*
X0118540Y0091000D01*
X0118540Y0096200D01*
X0118540Y0096200D01*
X0118540Y0091000D01*
X0118540Y0091000D01*
X0118540Y0096000D01*
X0118540Y0095312D02*
X0118540Y0095312D01*
X0118540Y0093714D02*
X0118540Y0093714D01*
X0118540Y0092115D02*
X0118540Y0092115D01*
X0118540Y0091000D02*
X0122940Y0091000D01*
X0122940Y0093946D01*
X0122832Y0094630D01*
X0122618Y0095289D01*
X0122304Y0095906D01*
X0122090Y0096200D01*
X0133339Y0096200D01*
X0132740Y0094754D01*
X0132740Y0087246D01*
X0133623Y0085115D01*
X0135255Y0083483D01*
X0137387Y0082600D01*
X0139694Y0082600D01*
X0141826Y0083483D01*
X0143457Y0085115D01*
X0143540Y0085315D01*
X0143623Y0085115D01*
X0145255Y0083483D01*
X0147387Y0082600D01*
X0149694Y0082600D01*
X0151826Y0083483D01*
X0153457Y0085115D01*
X0153540Y0085315D01*
X0153623Y0085115D01*
X0155255Y0083483D01*
X0157387Y0082600D01*
X0159694Y0082600D01*
X0161826Y0083483D01*
X0163457Y0085115D01*
X0163540Y0085315D01*
X0163623Y0085115D01*
X0165255Y0083483D01*
X0167387Y0082600D01*
X0169694Y0082600D01*
X0171826Y0083483D01*
X0173457Y0085115D01*
X0173540Y0085315D01*
X0173623Y0085115D01*
X0175255Y0083483D01*
X0177387Y0082600D01*
X0179694Y0082600D01*
X0181826Y0083483D01*
X0183457Y0085115D01*
X0183540Y0085315D01*
X0183623Y0085115D01*
X0185255Y0083483D01*
X0187387Y0082600D01*
X0189694Y0082600D01*
X0191826Y0083483D01*
X0193457Y0085115D01*
X0193540Y0085315D01*
X0193623Y0085115D01*
X0195255Y0083483D01*
X0197387Y0082600D01*
X0199694Y0082600D01*
X0201826Y0083483D01*
X0203457Y0085115D01*
X0203540Y0085315D01*
X0203623Y0085115D01*
X0205255Y0083483D01*
X0207387Y0082600D01*
X0209694Y0082600D01*
X0211826Y0083483D01*
X0213457Y0085115D01*
X0214311Y0087177D01*
X0214463Y0086711D01*
X0214777Y0086094D01*
X0215184Y0085534D01*
X0215674Y0085044D01*
X0216234Y0084637D01*
X0216851Y0084322D01*
X0217510Y0084108D01*
X0218194Y0084000D01*
X0218540Y0084000D01*
X0218540Y0091000D01*
X0218540Y0091000D01*
X0218540Y0084000D01*
X0218887Y0084000D01*
X0219571Y0084108D01*
X0220229Y0084322D01*
X0220846Y0084637D01*
X0221407Y0085044D01*
X0221896Y0085534D01*
X0222304Y0086094D01*
X0222618Y0086711D01*
X0222832Y0087370D01*
X0222940Y0088054D01*
X0222940Y0091000D01*
X0222940Y0093946D01*
X0222832Y0094630D01*
X0222618Y0095289D01*
X0222304Y0095906D01*
X0222090Y0096200D01*
X0233339Y0096200D01*
X0232740Y0094754D01*
X0232740Y0087246D01*
X0233623Y0085115D01*
X0233738Y0085000D01*
X0222745Y0085000D01*
X0221275Y0084391D01*
X0220149Y0083266D01*
X0213658Y0076775D01*
X0212392Y0076775D01*
X0210269Y0075896D01*
X0208645Y0074271D01*
X0208540Y0074019D01*
X0208436Y0074271D01*
X0206812Y0075896D01*
X0204689Y0076775D01*
X0202392Y0076775D01*
X0200269Y0075896D01*
X0198645Y0074271D01*
X0198540Y0074019D01*
X0198436Y0074271D01*
X0196812Y0075896D01*
X0194689Y0076775D01*
X0192392Y0076775D01*
X0190269Y0075896D01*
X0188645Y0074271D01*
X0188540Y0074019D01*
X0188436Y0074271D01*
X0186812Y0075896D01*
X0184689Y0076775D01*
X0182392Y0076775D01*
X0180269Y0075896D01*
X0178645Y0074271D01*
X0178540Y0074019D01*
X0178436Y0074271D01*
X0176812Y0075896D01*
X0174689Y0076775D01*
X0172392Y0076775D01*
X0170269Y0075896D01*
X0168645Y0074271D01*
X0168540Y0074019D01*
X0168436Y0074271D01*
X0166812Y0075896D01*
X0164689Y0076775D01*
X0162392Y0076775D01*
X0160269Y0075896D01*
X0158645Y0074271D01*
X0158540Y0074019D01*
X0158436Y0074271D01*
X0156812Y0075896D01*
X0154689Y0076775D01*
X0152392Y0076775D01*
X0150269Y0075896D01*
X0148645Y0074271D01*
X0148540Y0074019D01*
X0148436Y0074271D01*
X0146812Y0075896D01*
X0144689Y0076775D01*
X0142392Y0076775D01*
X0140269Y0075896D01*
X0138645Y0074271D01*
X0138540Y0074019D01*
X0138436Y0074271D01*
X0136812Y0075896D01*
X0134689Y0076775D01*
X0132392Y0076775D01*
X0130269Y0075896D01*
X0128645Y0074271D01*
X0127766Y0072151D01*
X0127595Y0072679D01*
X0127282Y0073293D01*
X0126877Y0073850D01*
X0126390Y0074337D01*
X0125833Y0074742D01*
X0125220Y0075054D01*
X0124565Y0075267D01*
X0123885Y0075375D01*
X0123540Y0075375D01*
X0123540Y0071000D01*
X0123540Y0071000D01*
X0123540Y0071000D01*
X0118540Y0076000D01*
X0118540Y0091000D01*
X0118540Y0084000D01*
X0118887Y0084000D01*
X0119571Y0084108D01*
X0120229Y0084322D01*
X0120846Y0084637D01*
X0121407Y0085044D01*
X0121896Y0085534D01*
X0122304Y0086094D01*
X0122618Y0086711D01*
X0122832Y0087370D01*
X0122940Y0088054D01*
X0122940Y0091000D01*
X0118540Y0091000D01*
X0118540Y0091000D01*
X0118540Y0090517D02*
X0118540Y0090517D01*
X0118540Y0088918D02*
X0118540Y0088918D01*
X0118540Y0087320D02*
X0118540Y0087320D01*
X0118540Y0085721D02*
X0118540Y0085721D01*
X0118540Y0084123D02*
X0118540Y0084123D01*
X0117466Y0084123D02*
X0112465Y0084123D01*
X0113709Y0085721D02*
X0115048Y0085721D01*
X0119615Y0084123D02*
X0134615Y0084123D01*
X0133372Y0085721D02*
X0122033Y0085721D01*
X0122816Y0087320D02*
X0132740Y0087320D01*
X0132740Y0088918D02*
X0122940Y0088918D01*
X0122940Y0090517D02*
X0132740Y0090517D01*
X0132740Y0092115D02*
X0122940Y0092115D01*
X0122940Y0093714D02*
X0132740Y0093714D01*
X0132972Y0095312D02*
X0122606Y0095312D01*
X0123340Y0105800D02*
X0123340Y0114998D01*
X0123457Y0115115D01*
X0124340Y0117246D01*
X0124340Y0124754D01*
X0123457Y0126885D01*
X0121826Y0128517D01*
X0119694Y0129400D01*
X0117387Y0129400D01*
X0115255Y0128517D01*
X0113623Y0126885D01*
X0113540Y0126685D01*
X0113457Y0126885D01*
X0111826Y0128517D01*
X0109694Y0129400D01*
X0107387Y0129400D01*
X0105255Y0128517D01*
X0103623Y0126885D01*
X0103540Y0126685D01*
X0103457Y0126885D01*
X0101826Y0128517D01*
X0099694Y0129400D01*
X0097387Y0129400D01*
X0095255Y0128517D01*
X0093623Y0126885D01*
X0093540Y0126685D01*
X0093457Y0126885D01*
X0091826Y0128517D01*
X0089694Y0129400D01*
X0087387Y0129400D01*
X0085255Y0128517D01*
X0083623Y0126885D01*
X0083540Y0126685D01*
X0083457Y0126885D01*
X0081826Y0128517D01*
X0079694Y0129400D01*
X0077387Y0129400D01*
X0075255Y0128517D01*
X0073623Y0126885D01*
X0073540Y0126685D01*
X0073457Y0126885D01*
X0071826Y0128517D01*
X0069694Y0129400D01*
X0067387Y0129400D01*
X0065255Y0128517D01*
X0063623Y0126885D01*
X0063540Y0126685D01*
X0063457Y0126885D01*
X0061826Y0128517D01*
X0059694Y0129400D01*
X0057387Y0129400D01*
X0055255Y0128517D01*
X0053623Y0126885D01*
X0053540Y0126685D01*
X0053457Y0126885D01*
X0051826Y0128517D01*
X0049694Y0129400D01*
X0047387Y0129400D01*
X0045255Y0128517D01*
X0043623Y0126885D01*
X0043540Y0126685D01*
X0043457Y0126885D01*
X0041826Y0128517D01*
X0039694Y0129400D01*
X0037387Y0129400D01*
X0035255Y0128517D01*
X0033623Y0126885D01*
X0032740Y0124754D01*
X0032740Y0117246D01*
X0033623Y0115115D01*
X0035255Y0113483D01*
X0037387Y0112600D01*
X0039694Y0112600D01*
X0041826Y0113483D01*
X0043457Y0115115D01*
X0043540Y0115315D01*
X0043623Y0115115D01*
X0045255Y0113483D01*
X0047387Y0112600D01*
X0049694Y0112600D01*
X0051826Y0113483D01*
X0053457Y0115115D01*
X0053540Y0115315D01*
X0053623Y0115115D01*
X0055255Y0113483D01*
X0057387Y0112600D01*
X0059694Y0112600D01*
X0061826Y0113483D01*
X0063457Y0115115D01*
X0063540Y0115315D01*
X0063623Y0115115D01*
X0065255Y0113483D01*
X0067387Y0112600D01*
X0069694Y0112600D01*
X0071826Y0113483D01*
X0073457Y0115115D01*
X0073540Y0115315D01*
X0073623Y0115115D01*
X0075255Y0113483D01*
X0077387Y0112600D01*
X0079694Y0112600D01*
X0081826Y0113483D01*
X0083457Y0115115D01*
X0083540Y0115315D01*
X0083623Y0115115D01*
X0085255Y0113483D01*
X0087387Y0112600D01*
X0089694Y0112600D01*
X0091826Y0113483D01*
X0093457Y0115115D01*
X0093540Y0115315D01*
X0093623Y0115115D01*
X0095255Y0113483D01*
X0097387Y0112600D01*
X0099694Y0112600D01*
X0101826Y0113483D01*
X0103457Y0115115D01*
X0103540Y0115315D01*
X0103623Y0115115D01*
X0105255Y0113483D01*
X0107387Y0112600D01*
X0109694Y0112600D01*
X0111826Y0113483D01*
X0113457Y0115115D01*
X0113540Y0115315D01*
X0113623Y0115115D01*
X0113740Y0114998D01*
X0113740Y0105800D01*
X0103266Y0105800D01*
X0102853Y0106213D01*
X0101677Y0106700D01*
X0095404Y0106700D01*
X0094228Y0106213D01*
X0093815Y0105800D01*
X0093266Y0105800D01*
X0092853Y0106213D01*
X0091677Y0106700D01*
X0085404Y0106700D01*
X0084800Y0106450D01*
X0028540Y0106450D01*
X0028540Y0151000D01*
X0313540Y0151000D01*
X0313540Y0147692D01*
X0312035Y0149198D01*
X0309767Y0150137D01*
X0307313Y0150137D01*
X0305046Y0149198D01*
X0303540Y0147692D01*
X0302035Y0149198D01*
X0299767Y0150137D01*
X0297313Y0150137D01*
X0295046Y0149198D01*
X0293540Y0147692D01*
X0292035Y0149198D01*
X0289767Y0150137D01*
X0287313Y0150137D01*
X0285046Y0149198D01*
X0283540Y0147692D01*
X0282035Y0149198D01*
X0279767Y0150137D01*
X0277313Y0150137D01*
X0275046Y0149198D01*
X0273540Y0147692D01*
X0272035Y0149198D01*
X0269767Y0150137D01*
X0267313Y0150137D01*
X0265046Y0149198D01*
X0263540Y0147692D01*
X0262035Y0149198D01*
X0259767Y0150137D01*
X0257313Y0150137D01*
X0255046Y0149198D01*
X0253540Y0147692D01*
X0252035Y0149198D01*
X0249767Y0150137D01*
X0247313Y0150137D01*
X0245046Y0149198D01*
X0243540Y0147692D01*
X0242035Y0149198D01*
X0239767Y0150137D01*
X0237313Y0150137D01*
X0235046Y0149198D01*
X0233311Y0147463D01*
X0232372Y0145195D01*
X0232372Y0136804D01*
X0233311Y0134537D01*
X0235046Y0132802D01*
X0237313Y0131863D01*
X0239767Y0131863D01*
X0242035Y0132802D01*
X0243540Y0134308D01*
X0245046Y0132802D01*
X0247313Y0131863D01*
X0249767Y0131863D01*
X0252035Y0132802D01*
X0253540Y0134308D01*
X0255046Y0132802D01*
X0257313Y0131863D01*
X0259767Y0131863D01*
X0262035Y0132802D01*
X0263540Y0134308D01*
X0265046Y0132802D01*
X0267313Y0131863D01*
X0269767Y0131863D01*
X0272035Y0132802D01*
X0273540Y0134308D01*
X0275046Y0132802D01*
X0277313Y0131863D01*
X0279767Y0131863D01*
X0282035Y0132802D01*
X0283540Y0134308D01*
X0285046Y0132802D01*
X0287313Y0131863D01*
X0289767Y0131863D01*
X0292035Y0132802D01*
X0293540Y0134308D01*
X0295046Y0132802D01*
X0297313Y0131863D01*
X0299767Y0131863D01*
X0302035Y0132802D01*
X0303540Y0134308D01*
X0305046Y0132802D01*
X0307313Y0131863D01*
X0309767Y0131863D01*
X0312035Y0132802D01*
X0313540Y0134308D01*
X0313540Y0131000D01*
X0333540Y0131000D01*
X0333540Y0026000D01*
X0313540Y0026000D01*
X0313540Y0006000D01*
X0286560Y0006000D01*
X0286812Y0006104D01*
X0288436Y0007729D01*
X0289314Y0009849D01*
X0289486Y0009321D01*
X0289799Y0008707D01*
X0290203Y0008150D01*
X0290690Y0007663D01*
X0291247Y0007258D01*
X0291861Y0006946D01*
X0292516Y0006733D01*
X0293196Y0006625D01*
X0293540Y0006625D01*
X0293540Y0011000D01*
X0293540Y0011000D01*
X0293540Y0006625D01*
X0293885Y0006625D01*
X0294565Y0006733D01*
X0295220Y0006946D01*
X0295833Y0007258D01*
X0296390Y0007663D01*
X0296877Y0008150D01*
X0297282Y0008707D01*
X0297595Y0009321D01*
X0297807Y0009976D01*
X0297915Y0010656D01*
X0297915Y0011000D01*
X0297915Y0011344D01*
X0297807Y0012024D01*
X0297595Y0012679D01*
X0297282Y0013293D01*
X0296877Y0013850D01*
X0296390Y0014337D01*
X0295833Y0014742D01*
X0295220Y0015054D01*
X0294565Y0015267D01*
X0293885Y0015375D01*
X0293572Y0015375D01*
X0296931Y0018734D01*
X0297540Y0020204D01*
X0297540Y0026833D01*
X0298436Y0027729D01*
X0299315Y0029851D01*
X0299315Y0032149D01*
X0298436Y0034271D01*
X0296812Y0035896D01*
X0296560Y0036000D01*
X0296812Y0036104D01*
X0298436Y0037729D01*
X0299315Y0039851D01*
X0299315Y0042149D01*
X0298436Y0044271D01*
X0296812Y0045896D01*
X0296560Y0046000D01*
X0296812Y0046104D01*
X0298436Y0047729D01*
X0299315Y0049851D01*
X0299315Y0052149D01*
X0298436Y0054271D01*
X0296812Y0055896D01*
X0296560Y0056000D01*
X0296812Y0056104D01*
X0298436Y0057729D01*
X0299315Y0059851D01*
X0299315Y0062149D01*
X0298436Y0064271D01*
X0296812Y0065896D01*
X0296560Y0066000D01*
X0296812Y0066104D01*
X0298436Y0067729D01*
X0298540Y0067981D01*
X0298645Y0067729D01*
X0300269Y0066104D01*
X0302392Y0065225D01*
X0304689Y0065225D01*
X0306812Y0066104D01*
X0308436Y0067729D01*
X0309315Y0069851D01*
X0309315Y0072149D01*
X0308436Y0074271D01*
X0306812Y0075896D01*
X0304689Y0076775D01*
X0302392Y0076775D01*
X0300269Y0075896D01*
X0298645Y0074271D01*
X0298540Y0074019D01*
X0298436Y0074271D01*
X0296812Y0075896D01*
X0294889Y0076692D01*
X0300806Y0082609D01*
X0301577Y0083380D01*
X0301826Y0083483D01*
X0303457Y0085115D01*
X0303540Y0085315D01*
X0303623Y0085115D01*
X0305255Y0083483D01*
X0307387Y0082600D01*
X0309694Y0082600D01*
X0311826Y0083483D01*
X0313457Y0085115D01*
X0314311Y0087177D01*
X0314463Y0086711D01*
X0314777Y0086094D01*
X0315184Y0085534D01*
X0315674Y0085044D01*
X0316234Y0084637D01*
X0316851Y0084322D01*
X0317510Y0084108D01*
X0318194Y0084000D01*
X0318540Y0084000D01*
X0318540Y0091000D01*
X0318540Y0091000D01*
X0318540Y0084000D01*
X0318887Y0084000D01*
X0319571Y0084108D01*
X0320229Y0084322D01*
X0320846Y0084637D01*
X0321407Y0085044D01*
X0321896Y0085534D01*
X0322304Y0086094D01*
X0322618Y0086711D01*
X0322832Y0087370D01*
X0322940Y0088054D01*
X0322940Y0091000D01*
X0322940Y0093946D01*
X0322832Y0094630D01*
X0322618Y0095289D01*
X0322304Y0095906D01*
X0321896Y0096466D01*
X0321407Y0096956D01*
X0321336Y0097007D01*
X0322610Y0098281D01*
X0323340Y0100045D01*
X0323340Y0114998D01*
X0323457Y0115115D01*
X0324340Y0117246D01*
X0324340Y0124754D01*
X0323457Y0126885D01*
X0321826Y0128517D01*
X0319694Y0129400D01*
X0317387Y0129400D01*
X0315255Y0128517D01*
X0313623Y0126885D01*
X0313540Y0126685D01*
X0313457Y0126885D01*
X0311826Y0128517D01*
X0309694Y0129400D01*
X0307387Y0129400D01*
X0305255Y0128517D01*
X0303623Y0126885D01*
X0303540Y0126685D01*
X0303457Y0126885D01*
X0301826Y0128517D01*
X0299694Y0129400D01*
X0297387Y0129400D01*
X0295255Y0128517D01*
X0293623Y0126885D01*
X0293540Y0126685D01*
X0293457Y0126885D01*
X0291826Y0128517D01*
X0289694Y0129400D01*
X0287387Y0129400D01*
X0285255Y0128517D01*
X0283623Y0126885D01*
X0283540Y0126685D01*
X0283457Y0126885D01*
X0281826Y0128517D01*
X0279694Y0129400D01*
X0277387Y0129400D01*
X0275255Y0128517D01*
X0273623Y0126885D01*
X0273540Y0126685D01*
X0273457Y0126885D01*
X0271826Y0128517D01*
X0269694Y0129400D01*
X0267387Y0129400D01*
X0265255Y0128517D01*
X0263623Y0126885D01*
X0263540Y0126685D01*
X0263457Y0126885D01*
X0261826Y0128517D01*
X0259694Y0129400D01*
X0257387Y0129400D01*
X0255255Y0128517D01*
X0253623Y0126885D01*
X0253540Y0126685D01*
X0253457Y0126885D01*
X0251826Y0128517D01*
X0249694Y0129400D01*
X0247387Y0129400D01*
X0245255Y0128517D01*
X0243623Y0126885D01*
X0243540Y0126685D01*
X0243457Y0126885D01*
X0241826Y0128517D01*
X0239694Y0129400D01*
X0237387Y0129400D01*
X0235255Y0128517D01*
X0233623Y0126885D01*
X0232740Y0124754D01*
X0232740Y0117246D01*
X0233623Y0115115D01*
X0235255Y0113483D01*
X0237387Y0112600D01*
X0239694Y0112600D01*
X0241826Y0113483D01*
X0243457Y0115115D01*
X0243540Y0115315D01*
X0243623Y0115115D01*
X0245255Y0113483D01*
X0247387Y0112600D01*
X0249694Y0112600D01*
X0251826Y0113483D01*
X0253457Y0115115D01*
X0253540Y0115315D01*
X0253623Y0115115D01*
X0255255Y0113483D01*
X0257387Y0112600D01*
X0259694Y0112600D01*
X0261826Y0113483D01*
X0263457Y0115115D01*
X0263540Y0115315D01*
X0263623Y0115115D01*
X0265255Y0113483D01*
X0267387Y0112600D01*
X0269694Y0112600D01*
X0271826Y0113483D01*
X0273457Y0115115D01*
X0273540Y0115315D01*
X0273623Y0115115D01*
X0275255Y0113483D01*
X0277387Y0112600D01*
X0279694Y0112600D01*
X0281826Y0113483D01*
X0283457Y0115115D01*
X0283540Y0115315D01*
X0283623Y0115115D01*
X0285255Y0113483D01*
X0287387Y0112600D01*
X0289694Y0112600D01*
X0291826Y0113483D01*
X0293457Y0115115D01*
X0293540Y0115315D01*
X0293623Y0115115D01*
X0295255Y0113483D01*
X0297387Y0112600D01*
X0299694Y0112600D01*
X0301826Y0113483D01*
X0303457Y0115115D01*
X0303540Y0115315D01*
X0303623Y0115115D01*
X0305255Y0113483D01*
X0307387Y0112600D01*
X0309694Y0112600D01*
X0311826Y0113483D01*
X0313457Y0115115D01*
X0313540Y0115315D01*
X0313623Y0115115D01*
X0313740Y0114998D01*
X0313740Y0105800D01*
X0313266Y0105800D01*
X0312853Y0106213D01*
X0311677Y0106700D01*
X0305404Y0106700D01*
X0304228Y0106213D01*
X0303815Y0105800D01*
X0303266Y0105800D01*
X0302853Y0106213D01*
X0301677Y0106700D01*
X0295404Y0106700D01*
X0294228Y0106213D01*
X0293815Y0105800D01*
X0293266Y0105800D01*
X0292853Y0106213D01*
X0291677Y0106700D01*
X0285404Y0106700D01*
X0284228Y0106213D01*
X0283815Y0105800D01*
X0283266Y0105800D01*
X0282853Y0106213D01*
X0281677Y0106700D01*
X0275404Y0106700D01*
X0274228Y0106213D01*
X0273815Y0105800D01*
X0263266Y0105800D01*
X0262853Y0106213D01*
X0261677Y0106700D01*
X0255404Y0106700D01*
X0254228Y0106213D01*
X0253815Y0105800D01*
X0253266Y0105800D01*
X0252853Y0106213D01*
X0251677Y0106700D01*
X0245404Y0106700D01*
X0244228Y0106213D01*
X0243815Y0105800D01*
X0243266Y0105800D01*
X0242853Y0106213D01*
X0241677Y0106700D01*
X0235404Y0106700D01*
X0234228Y0106213D01*
X0233815Y0105800D01*
X0223340Y0105800D01*
X0223340Y0114998D01*
X0223457Y0115115D01*
X0224340Y0117246D01*
X0224340Y0124754D01*
X0223457Y0126885D01*
X0221826Y0128517D01*
X0219694Y0129400D01*
X0217387Y0129400D01*
X0215255Y0128517D01*
X0213623Y0126885D01*
X0213540Y0126685D01*
X0213457Y0126885D01*
X0211826Y0128517D01*
X0209694Y0129400D01*
X0207387Y0129400D01*
X0205255Y0128517D01*
X0203623Y0126885D01*
X0203540Y0126685D01*
X0203457Y0126885D01*
X0201826Y0128517D01*
X0199694Y0129400D01*
X0197387Y0129400D01*
X0195255Y0128517D01*
X0193623Y0126885D01*
X0193540Y0126685D01*
X0193457Y0126885D01*
X0191826Y0128517D01*
X0189694Y0129400D01*
X0187387Y0129400D01*
X0185255Y0128517D01*
X0183623Y0126885D01*
X0183540Y0126685D01*
X0183457Y0126885D01*
X0181826Y0128517D01*
X0179694Y0129400D01*
X0177387Y0129400D01*
X0175255Y0128517D01*
X0173623Y0126885D01*
X0173540Y0126685D01*
X0173457Y0126885D01*
X0171826Y0128517D01*
X0169694Y0129400D01*
X0167387Y0129400D01*
X0165255Y0128517D01*
X0163623Y0126885D01*
X0163540Y0126685D01*
X0163457Y0126885D01*
X0161826Y0128517D01*
X0159694Y0129400D01*
X0157387Y0129400D01*
X0155255Y0128517D01*
X0153623Y0126885D01*
X0153540Y0126685D01*
X0153457Y0126885D01*
X0151826Y0128517D01*
X0149694Y0129400D01*
X0147387Y0129400D01*
X0145255Y0128517D01*
X0143623Y0126885D01*
X0143540Y0126685D01*
X0143457Y0126885D01*
X0141826Y0128517D01*
X0139694Y0129400D01*
X0137387Y0129400D01*
X0135255Y0128517D01*
X0133623Y0126885D01*
X0132740Y0124754D01*
X0132740Y0117246D01*
X0133623Y0115115D01*
X0135255Y0113483D01*
X0137387Y0112600D01*
X0139694Y0112600D01*
X0141826Y0113483D01*
X0143457Y0115115D01*
X0143540Y0115315D01*
X0143623Y0115115D01*
X0145255Y0113483D01*
X0147387Y0112600D01*
X0149694Y0112600D01*
X0151826Y0113483D01*
X0153457Y0115115D01*
X0153540Y0115315D01*
X0153623Y0115115D01*
X0155255Y0113483D01*
X0157387Y0112600D01*
X0159694Y0112600D01*
X0161826Y0113483D01*
X0163457Y0115115D01*
X0163540Y0115315D01*
X0163623Y0115115D01*
X0165255Y0113483D01*
X0167387Y0112600D01*
X0169694Y0112600D01*
X0171826Y0113483D01*
X0173457Y0115115D01*
X0173540Y0115315D01*
X0173623Y0115115D01*
X0175255Y0113483D01*
X0177387Y0112600D01*
X0179694Y0112600D01*
X0181826Y0113483D01*
X0183457Y0115115D01*
X0183540Y0115315D01*
X0183623Y0115115D01*
X0185255Y0113483D01*
X0187387Y0112600D01*
X0189694Y0112600D01*
X0191826Y0113483D01*
X0193457Y0115115D01*
X0193540Y0115315D01*
X0193623Y0115115D01*
X0195255Y0113483D01*
X0197387Y0112600D01*
X0199694Y0112600D01*
X0201826Y0113483D01*
X0203457Y0115115D01*
X0203540Y0115315D01*
X0203623Y0115115D01*
X0205255Y0113483D01*
X0207387Y0112600D01*
X0209694Y0112600D01*
X0211826Y0113483D01*
X0213457Y0115115D01*
X0213540Y0115315D01*
X0213623Y0115115D01*
X0213740Y0114998D01*
X0213740Y0105800D01*
X0213266Y0105800D01*
X0212853Y0106213D01*
X0211677Y0106700D01*
X0205404Y0106700D01*
X0204228Y0106213D01*
X0203815Y0105800D01*
X0163266Y0105800D01*
X0162853Y0106213D01*
X0161677Y0106700D01*
X0155404Y0106700D01*
X0154228Y0106213D01*
X0153815Y0105800D01*
X0153266Y0105800D01*
X0152853Y0106213D01*
X0151677Y0106700D01*
X0145404Y0106700D01*
X0144228Y0106213D01*
X0143815Y0105800D01*
X0123340Y0105800D01*
X0123340Y0106502D02*
X0144925Y0106502D01*
X0152155Y0106502D02*
X0154925Y0106502D01*
X0162155Y0106502D02*
X0204925Y0106502D01*
X0212155Y0106502D02*
X0213740Y0106502D01*
X0213740Y0108100D02*
X0123340Y0108100D01*
X0123340Y0109699D02*
X0213740Y0109699D01*
X0213740Y0111297D02*
X0123340Y0111297D01*
X0123340Y0112896D02*
X0136673Y0112896D01*
X0134244Y0114494D02*
X0123340Y0114494D01*
X0123863Y0116093D02*
X0133218Y0116093D01*
X0132740Y0117691D02*
X0124340Y0117691D01*
X0124340Y0119290D02*
X0132740Y0119290D01*
X0132740Y0120888D02*
X0124340Y0120888D01*
X0124340Y0122487D02*
X0132740Y0122487D01*
X0132740Y0124085D02*
X0124340Y0124085D01*
X0123955Y0125684D02*
X0133126Y0125684D01*
X0134020Y0127282D02*
X0123060Y0127282D01*
X0120947Y0128881D02*
X0136133Y0128881D01*
X0140947Y0128881D02*
X0146133Y0128881D01*
X0144020Y0127282D02*
X0143060Y0127282D01*
X0150947Y0128881D02*
X0156133Y0128881D01*
X0154020Y0127282D02*
X0153060Y0127282D01*
X0160947Y0128881D02*
X0166133Y0128881D01*
X0164020Y0127282D02*
X0163060Y0127282D01*
X0170947Y0128881D02*
X0176133Y0128881D01*
X0174020Y0127282D02*
X0173060Y0127282D01*
X0170286Y0132078D02*
X0176794Y0132078D01*
X0177313Y0131863D02*
X0179767Y0131863D01*
X0182035Y0132802D01*
X0183540Y0134308D01*
X0185046Y0132802D01*
X0187313Y0131863D01*
X0189767Y0131863D01*
X0192035Y0132802D01*
X0193540Y0134308D01*
X0195046Y0132802D01*
X0197313Y0131863D01*
X0199767Y0131863D01*
X0202035Y0132802D01*
X0203540Y0134308D01*
X0205046Y0132802D01*
X0207313Y0131863D01*
X0209767Y0131863D01*
X0212035Y0132802D01*
X0213770Y0134537D01*
X0214709Y0136804D01*
X0214709Y0145195D01*
X0213770Y0147463D01*
X0212035Y0149198D01*
X0209767Y0150137D01*
X0207313Y0150137D01*
X0205046Y0149198D01*
X0203540Y0147692D01*
X0202035Y0149198D01*
X0199767Y0150137D01*
X0197313Y0150137D01*
X0195046Y0149198D01*
X0193540Y0147692D01*
X0192035Y0149198D01*
X0189767Y0150137D01*
X0187313Y0150137D01*
X0185046Y0149198D01*
X0183540Y0147692D01*
X0182035Y0149198D01*
X0179767Y0150137D01*
X0177313Y0150137D01*
X0175046Y0149198D01*
X0173540Y0147692D01*
X0172035Y0149198D01*
X0169767Y0150137D01*
X0167313Y0150137D01*
X0165046Y0149198D01*
X0163540Y0147692D01*
X0162035Y0149198D01*
X0159767Y0150137D01*
X0157313Y0150137D01*
X0155046Y0149198D01*
X0153540Y0147692D01*
X0152035Y0149198D01*
X0149767Y0150137D01*
X0147313Y0150137D01*
X0145046Y0149198D01*
X0143540Y0147692D01*
X0142035Y0149198D01*
X0139767Y0150137D01*
X0137313Y0150137D01*
X0135046Y0149198D01*
X0133311Y0147463D01*
X0132372Y0145195D01*
X0132372Y0136804D01*
X0133311Y0134537D01*
X0135046Y0132802D01*
X0137313Y0131863D01*
X0139767Y0131863D01*
X0142035Y0132802D01*
X0143540Y0134308D01*
X0145046Y0132802D01*
X0147313Y0131863D01*
X0149767Y0131863D01*
X0152035Y0132802D01*
X0153540Y0134308D01*
X0155046Y0132802D01*
X0157313Y0131863D01*
X0159767Y0131863D01*
X0162035Y0132802D01*
X0163540Y0134308D01*
X0165046Y0132802D01*
X0167313Y0131863D01*
X0169767Y0131863D01*
X0172035Y0132802D01*
X0173540Y0134308D01*
X0175046Y0132802D01*
X0177313Y0131863D01*
X0180286Y0132078D02*
X0186794Y0132078D01*
X0184172Y0133676D02*
X0182909Y0133676D01*
X0174172Y0133676D02*
X0172909Y0133676D01*
X0166794Y0132078D02*
X0160286Y0132078D01*
X0162909Y0133676D02*
X0164172Y0133676D01*
X0156794Y0132078D02*
X0150286Y0132078D01*
X0152909Y0133676D02*
X0154172Y0133676D01*
X0146794Y0132078D02*
X0140286Y0132078D01*
X0142909Y0133676D02*
X0144172Y0133676D01*
X0136794Y0132078D02*
X0110286Y0132078D01*
X0109767Y0131863D02*
X0112035Y0132802D01*
X0113770Y0134537D01*
X0114709Y0136804D01*
X0114709Y0145195D01*
X0113770Y0147463D01*
X0112035Y0149198D01*
X0109767Y0150137D01*
X0107313Y0150137D01*
X0105046Y0149198D01*
X0103540Y0147692D01*
X0102035Y0149198D01*
X0099767Y0150137D01*
X0097313Y0150137D01*
X0095046Y0149198D01*
X0093540Y0147692D01*
X0092035Y0149198D01*
X0089767Y0150137D01*
X0087313Y0150137D01*
X0085046Y0149198D01*
X0083540Y0147692D01*
X0082035Y0149198D01*
X0079767Y0150137D01*
X0077313Y0150137D01*
X0075046Y0149198D01*
X0073540Y0147692D01*
X0072035Y0149198D01*
X0069767Y0150137D01*
X0067313Y0150137D01*
X0065046Y0149198D01*
X0063540Y0147692D01*
X0062035Y0149198D01*
X0059767Y0150137D01*
X0057313Y0150137D01*
X0055046Y0149198D01*
X0053540Y0147692D01*
X0052035Y0149198D01*
X0049767Y0150137D01*
X0047313Y0150137D01*
X0045046Y0149198D01*
X0043540Y0147692D01*
X0042035Y0149198D01*
X0039767Y0150137D01*
X0037313Y0150137D01*
X0035046Y0149198D01*
X0033311Y0147463D01*
X0032372Y0145195D01*
X0032372Y0136804D01*
X0033311Y0134537D01*
X0035046Y0132802D01*
X0037313Y0131863D01*
X0039767Y0131863D01*
X0042035Y0132802D01*
X0043540Y0134308D01*
X0045046Y0132802D01*
X0047313Y0131863D01*
X0049767Y0131863D01*
X0052035Y0132802D01*
X0053540Y0134308D01*
X0055046Y0132802D01*
X0057313Y0131863D01*
X0059767Y0131863D01*
X0062035Y0132802D01*
X0063540Y0134308D01*
X0065046Y0132802D01*
X0067313Y0131863D01*
X0069767Y0131863D01*
X0072035Y0132802D01*
X0073540Y0134308D01*
X0075046Y0132802D01*
X0077313Y0131863D01*
X0079767Y0131863D01*
X0082035Y0132802D01*
X0083540Y0134308D01*
X0085046Y0132802D01*
X0087313Y0131863D01*
X0089767Y0131863D01*
X0092035Y0132802D01*
X0093540Y0134308D01*
X0095046Y0132802D01*
X0097313Y0131863D01*
X0099767Y0131863D01*
X0102035Y0132802D01*
X0103540Y0134308D01*
X0105046Y0132802D01*
X0107313Y0131863D01*
X0109767Y0131863D01*
X0106794Y0132078D02*
X0100286Y0132078D01*
X0102909Y0133676D02*
X0104172Y0133676D01*
X0096794Y0132078D02*
X0090286Y0132078D01*
X0092909Y0133676D02*
X0094172Y0133676D01*
X0086794Y0132078D02*
X0080286Y0132078D01*
X0082909Y0133676D02*
X0084172Y0133676D01*
X0076794Y0132078D02*
X0070286Y0132078D01*
X0072909Y0133676D02*
X0074172Y0133676D01*
X0066794Y0132078D02*
X0060286Y0132078D01*
X0062909Y0133676D02*
X0064172Y0133676D01*
X0056794Y0132078D02*
X0050286Y0132078D01*
X0052909Y0133676D02*
X0054172Y0133676D01*
X0046794Y0132078D02*
X0040286Y0132078D01*
X0042909Y0133676D02*
X0044172Y0133676D01*
X0046133Y0128881D02*
X0040947Y0128881D01*
X0043060Y0127282D02*
X0044020Y0127282D01*
X0036133Y0128881D02*
X0028540Y0128881D01*
X0028540Y0130479D02*
X0333540Y0130479D01*
X0333540Y0128881D02*
X0320947Y0128881D01*
X0323060Y0127282D02*
X0333540Y0127282D01*
X0333540Y0125684D02*
X0323955Y0125684D01*
X0324340Y0124085D02*
X0333540Y0124085D01*
X0333540Y0122487D02*
X0324340Y0122487D01*
X0324340Y0120888D02*
X0333540Y0120888D01*
X0333540Y0119290D02*
X0324340Y0119290D01*
X0324340Y0117691D02*
X0333540Y0117691D01*
X0333540Y0116093D02*
X0323863Y0116093D01*
X0323340Y0114494D02*
X0333540Y0114494D01*
X0333540Y0112896D02*
X0323340Y0112896D01*
X0323340Y0111297D02*
X0333540Y0111297D01*
X0333540Y0109699D02*
X0323340Y0109699D01*
X0323340Y0108100D02*
X0333540Y0108100D01*
X0333540Y0106502D02*
X0323340Y0106502D01*
X0323340Y0104903D02*
X0333540Y0104903D01*
X0333540Y0103305D02*
X0323340Y0103305D01*
X0323340Y0101706D02*
X0333540Y0101706D01*
X0333540Y0100108D02*
X0323340Y0100108D01*
X0322704Y0098509D02*
X0333540Y0098509D01*
X0333540Y0096911D02*
X0321452Y0096911D01*
X0322606Y0095312D02*
X0333540Y0095312D01*
X0333540Y0093714D02*
X0322940Y0093714D01*
X0322940Y0092115D02*
X0333540Y0092115D01*
X0333540Y0090517D02*
X0322940Y0090517D01*
X0322940Y0091000D02*
X0318540Y0091000D01*
X0322940Y0091000D01*
X0322940Y0088918D02*
X0333540Y0088918D01*
X0333540Y0087320D02*
X0322816Y0087320D01*
X0322033Y0085721D02*
X0333540Y0085721D01*
X0333540Y0084123D02*
X0319615Y0084123D01*
X0318540Y0084123D02*
X0318540Y0084123D01*
X0317466Y0084123D02*
X0312465Y0084123D01*
X0313709Y0085721D02*
X0315048Y0085721D01*
X0318540Y0085721D02*
X0318540Y0085721D01*
X0318540Y0087320D02*
X0318540Y0087320D01*
X0318540Y0088918D02*
X0318540Y0088918D01*
X0318540Y0090517D02*
X0318540Y0090517D01*
X0318540Y0091000D02*
X0318540Y0091000D01*
X0304615Y0084123D02*
X0302465Y0084123D01*
X0300721Y0082524D02*
X0333540Y0082524D01*
X0333540Y0080926D02*
X0299123Y0080926D01*
X0297524Y0079327D02*
X0333540Y0079327D01*
X0333540Y0077729D02*
X0295926Y0077729D01*
X0296246Y0076130D02*
X0300835Y0076130D01*
X0298905Y0074532D02*
X0298176Y0074532D01*
X0306246Y0076130D02*
X0333540Y0076130D01*
X0333540Y0074532D02*
X0308176Y0074532D01*
X0308990Y0072933D02*
X0333540Y0072933D01*
X0333540Y0071334D02*
X0309315Y0071334D01*
X0309267Y0069736D02*
X0333540Y0069736D01*
X0333540Y0068137D02*
X0308605Y0068137D01*
X0307246Y0066539D02*
X0333540Y0066539D01*
X0333540Y0064940D02*
X0297767Y0064940D01*
X0297246Y0066539D02*
X0299835Y0066539D01*
X0298821Y0063342D02*
X0333540Y0063342D01*
X0333540Y0061743D02*
X0299315Y0061743D01*
X0299315Y0060145D02*
X0333540Y0060145D01*
X0333540Y0058546D02*
X0298775Y0058546D01*
X0297655Y0056948D02*
X0333540Y0056948D01*
X0333540Y0055349D02*
X0297358Y0055349D01*
X0298651Y0053751D02*
X0333540Y0053751D01*
X0333540Y0052152D02*
X0299314Y0052152D01*
X0299315Y0050554D02*
X0333540Y0050554D01*
X0333540Y0048955D02*
X0298944Y0048955D01*
X0298064Y0047357D02*
X0333540Y0047357D01*
X0333540Y0045758D02*
X0296949Y0045758D01*
X0298482Y0044160D02*
X0333540Y0044160D01*
X0333540Y0042561D02*
X0299144Y0042561D01*
X0299315Y0040963D02*
X0333540Y0040963D01*
X0333540Y0039364D02*
X0299113Y0039364D01*
X0298451Y0037766D02*
X0333540Y0037766D01*
X0333540Y0036167D02*
X0296874Y0036167D01*
X0298138Y0034569D02*
X0333540Y0034569D01*
X0333540Y0032970D02*
X0298975Y0032970D01*
X0299315Y0031372D02*
X0333540Y0031372D01*
X0333540Y0029773D02*
X0299283Y0029773D01*
X0298621Y0028175D02*
X0333540Y0028175D01*
X0333540Y0026576D02*
X0297540Y0026576D01*
X0297540Y0024978D02*
X0313540Y0024978D01*
X0313540Y0023379D02*
X0297540Y0023379D01*
X0297540Y0021781D02*
X0313540Y0021781D01*
X0313540Y0020182D02*
X0297531Y0020182D01*
X0296781Y0018584D02*
X0313540Y0018584D01*
X0313540Y0016985D02*
X0295182Y0016985D01*
X0293584Y0015387D02*
X0313540Y0015387D01*
X0313540Y0013788D02*
X0306922Y0013788D01*
X0306877Y0013850D02*
X0306390Y0014337D01*
X0305833Y0014742D01*
X0305220Y0015054D01*
X0304565Y0015267D01*
X0303885Y0015375D01*
X0303540Y0015375D01*
X0303196Y0015375D01*
X0302516Y0015267D01*
X0301861Y0015054D01*
X0301247Y0014742D01*
X0300690Y0014337D01*
X0300203Y0013850D01*
X0299799Y0013293D01*
X0299486Y0012679D01*
X0299273Y0012024D01*
X0299166Y0011344D01*
X0299166Y0011000D01*
X0299166Y0010656D01*
X0299273Y0009976D01*
X0299486Y0009321D01*
X0299799Y0008707D01*
X0300203Y0008150D01*
X0300690Y0007663D01*
X0301247Y0007258D01*
X0301861Y0006946D01*
X0302516Y0006733D01*
X0303196Y0006625D01*
X0303540Y0006625D01*
X0303540Y0011000D01*
X0303540Y0011000D01*
X0299166Y0011000D01*
X0303540Y0011000D01*
X0303540Y0015375D01*
X0303540Y0011000D01*
X0303540Y0011000D01*
X0303540Y0011000D01*
X0303540Y0006625D01*
X0303885Y0006625D01*
X0304565Y0006733D01*
X0305220Y0006946D01*
X0305833Y0007258D01*
X0306390Y0007663D01*
X0306877Y0008150D01*
X0307282Y0008707D01*
X0307595Y0009321D01*
X0307807Y0009976D01*
X0307915Y0010656D01*
X0307915Y0011000D01*
X0307915Y0011344D01*
X0307807Y0012024D01*
X0307595Y0012679D01*
X0307282Y0013293D01*
X0306877Y0013850D01*
X0307754Y0012190D02*
X0313540Y0012190D01*
X0313540Y0010591D02*
X0307905Y0010591D01*
X0307915Y0011000D02*
X0303540Y0011000D01*
X0307915Y0011000D01*
X0303540Y0011000D02*
X0303540Y0011000D01*
X0303540Y0010591D02*
X0303540Y0010591D01*
X0303540Y0008993D02*
X0303540Y0008993D01*
X0303540Y0007394D02*
X0303540Y0007394D01*
X0301061Y0007394D02*
X0296020Y0007394D01*
X0297427Y0008993D02*
X0299653Y0008993D01*
X0299176Y0010591D02*
X0297905Y0010591D01*
X0297915Y0011000D02*
X0293540Y0011000D01*
X0297915Y0011000D01*
X0297754Y0012190D02*
X0299327Y0012190D01*
X0300158Y0013788D02*
X0296922Y0013788D01*
X0293540Y0011000D02*
X0293540Y0011000D01*
X0293540Y0010591D02*
X0293540Y0010591D01*
X0293540Y0008993D02*
X0293540Y0008993D01*
X0293540Y0007394D02*
X0293540Y0007394D01*
X0291061Y0007394D02*
X0288101Y0007394D01*
X0288959Y0008993D02*
X0289653Y0008993D01*
X0283540Y0011000D02*
X0293540Y0021000D01*
X0293540Y0031000D01*
X0289540Y0026833D02*
X0289540Y0022657D01*
X0287915Y0021032D01*
X0287915Y0023812D01*
X0287792Y0024270D01*
X0287555Y0024680D01*
X0287220Y0025015D01*
X0286810Y0025252D01*
X0286352Y0025375D01*
X0283540Y0025375D01*
X0280729Y0025375D01*
X0280271Y0025252D01*
X0279860Y0025015D01*
X0279525Y0024680D01*
X0279288Y0024270D01*
X0279166Y0023812D01*
X0279166Y0022510D01*
X0278436Y0024271D01*
X0276812Y0025896D01*
X0274689Y0026775D01*
X0272392Y0026775D01*
X0270269Y0025896D01*
X0268645Y0024271D01*
X0268540Y0024019D01*
X0268436Y0024271D01*
X0266812Y0025896D01*
X0264689Y0026775D01*
X0262392Y0026775D01*
X0260269Y0025896D01*
X0258645Y0024271D01*
X0258540Y0024019D01*
X0258436Y0024271D01*
X0256812Y0025896D01*
X0254689Y0026775D01*
X0252392Y0026775D01*
X0250269Y0025896D01*
X0248645Y0024271D01*
X0247766Y0022149D01*
X0247766Y0019851D01*
X0248645Y0017729D01*
X0250269Y0016104D01*
X0250521Y0016000D01*
X0250269Y0015896D01*
X0248645Y0014271D01*
X0248540Y0014019D01*
X0248436Y0014271D01*
X0246812Y0015896D01*
X0244689Y0016775D01*
X0242392Y0016775D01*
X0240269Y0015896D01*
X0238645Y0014271D01*
X0238540Y0014019D01*
X0238436Y0014271D01*
X0236812Y0015896D01*
X0234689Y0016775D01*
X0232392Y0016775D01*
X0230269Y0015896D01*
X0228645Y0014271D01*
X0228540Y0014019D01*
X0228436Y0014271D01*
X0226812Y0015896D01*
X0224689Y0016775D01*
X0222392Y0016775D01*
X0220269Y0015896D01*
X0218645Y0014271D01*
X0218540Y0014019D01*
X0218436Y0014271D01*
X0216812Y0015896D01*
X0214889Y0016692D01*
X0235197Y0037000D01*
X0279374Y0037000D01*
X0280269Y0036104D01*
X0282031Y0035375D01*
X0280729Y0035375D01*
X0280271Y0035252D01*
X0279860Y0035015D01*
X0279525Y0034680D01*
X0279288Y0034270D01*
X0279166Y0033812D01*
X0279166Y0031000D01*
X0279166Y0028188D01*
X0279288Y0027730D01*
X0279525Y0027320D01*
X0279860Y0026985D01*
X0280271Y0026748D01*
X0280729Y0026625D01*
X0283540Y0026625D01*
X0283540Y0031000D01*
X0283540Y0031000D01*
X0279166Y0031000D01*
X0283540Y0031000D01*
X0283540Y0031000D01*
X0283540Y0026625D01*
X0286352Y0026625D01*
X0286810Y0026748D01*
X0287220Y0026985D01*
X0287555Y0027320D01*
X0287792Y0027730D01*
X0287915Y0028188D01*
X0287915Y0029490D01*
X0288645Y0027729D01*
X0289540Y0026833D01*
X0289540Y0026576D02*
X0275169Y0026576D01*
X0277729Y0024978D02*
X0279823Y0024978D01*
X0279166Y0023379D02*
X0278805Y0023379D01*
X0283540Y0023379D02*
X0283540Y0023379D01*
X0283540Y0021781D02*
X0283540Y0021781D01*
X0283540Y0021000D02*
X0283540Y0025375D01*
X0283540Y0021000D01*
X0283540Y0021000D01*
X0287915Y0021781D02*
X0288664Y0021781D01*
X0287915Y0023379D02*
X0289540Y0023379D01*
X0289540Y0024978D02*
X0287258Y0024978D01*
X0283540Y0024978D02*
X0283540Y0024978D01*
X0283540Y0028175D02*
X0283540Y0028175D01*
X0283540Y0029773D02*
X0283540Y0029773D01*
X0279166Y0029773D02*
X0227970Y0029773D01*
X0226372Y0028175D02*
X0279169Y0028175D01*
X0279166Y0031372D02*
X0229569Y0031372D01*
X0231167Y0032970D02*
X0279166Y0032970D01*
X0279461Y0034569D02*
X0232766Y0034569D01*
X0234364Y0036167D02*
X0280206Y0036167D01*
X0283540Y0041000D02*
X0233540Y0041000D01*
X0203540Y0011000D01*
X0193540Y0011000D02*
X0238540Y0056000D01*
X0288540Y0056000D01*
X0293540Y0061000D01*
X0288540Y0066000D02*
X0278540Y0066000D01*
X0273540Y0061000D01*
X0263540Y0061000D01*
X0253540Y0071000D01*
X0248540Y0067981D02*
X0248645Y0067729D01*
X0250269Y0066104D01*
X0252392Y0065225D01*
X0253658Y0065225D01*
X0258884Y0060000D01*
X0237745Y0060000D01*
X0236275Y0059391D01*
X0235149Y0058266D01*
X0193658Y0016775D01*
X0192392Y0016775D01*
X0190269Y0015896D01*
X0188645Y0014271D01*
X0188540Y0014019D01*
X0187321Y0015387D02*
X0189760Y0015387D01*
X0193869Y0016985D02*
X0183212Y0016985D01*
X0181614Y0018584D02*
X0195467Y0018584D01*
X0197066Y0020182D02*
X0180015Y0020182D01*
X0178417Y0021781D02*
X0198664Y0021781D01*
X0200263Y0023379D02*
X0176818Y0023379D01*
X0175220Y0024978D02*
X0201861Y0024978D01*
X0203460Y0026576D02*
X0173621Y0026576D01*
X0172022Y0028175D02*
X0205058Y0028175D01*
X0206657Y0029773D02*
X0170424Y0029773D01*
X0170302Y0031372D02*
X0168825Y0031372D01*
X0168775Y0032970D02*
X0167227Y0032970D01*
X0168113Y0034569D02*
X0165628Y0034569D01*
X0164030Y0036167D02*
X0167716Y0036167D01*
X0168540Y0041000D02*
X0173540Y0036000D01*
X0179103Y0036167D02*
X0213051Y0036167D01*
X0211452Y0034569D02*
X0178968Y0034569D01*
X0178306Y0032970D02*
X0209854Y0032970D01*
X0208255Y0031372D02*
X0176778Y0031372D01*
X0178829Y0037766D02*
X0214649Y0037766D01*
X0216248Y0039364D02*
X0178042Y0039364D01*
X0176094Y0040963D02*
X0217846Y0040963D01*
X0219445Y0042561D02*
X0172636Y0042561D01*
X0171037Y0044160D02*
X0221043Y0044160D01*
X0222642Y0045758D02*
X0124439Y0045758D01*
X0122840Y0047357D02*
X0224240Y0047357D01*
X0225839Y0048955D02*
X0121242Y0048955D01*
X0119643Y0050554D02*
X0227437Y0050554D01*
X0229036Y0052152D02*
X0118045Y0052152D01*
X0117540Y0053751D02*
X0230634Y0053751D01*
X0232233Y0055349D02*
X0117540Y0055349D01*
X0117540Y0056948D02*
X0233831Y0056948D01*
X0235430Y0058546D02*
X0117540Y0058546D01*
X0117540Y0060145D02*
X0258739Y0060145D01*
X0257140Y0061743D02*
X0117540Y0061743D01*
X0117540Y0063342D02*
X0255542Y0063342D01*
X0253943Y0064940D02*
X0117540Y0064940D01*
X0118754Y0066539D02*
X0129835Y0066539D01*
X0130269Y0066104D02*
X0132392Y0065225D01*
X0134689Y0065225D01*
X0136812Y0066104D01*
X0138436Y0067729D01*
X0138540Y0067981D01*
X0138645Y0067729D01*
X0140269Y0066104D01*
X0142392Y0065225D01*
X0144689Y0065225D01*
X0146812Y0066104D01*
X0148436Y0067729D01*
X0148540Y0067981D01*
X0148645Y0067729D01*
X0150269Y0066104D01*
X0152392Y0065225D01*
X0154689Y0065225D01*
X0156812Y0066104D01*
X0158436Y0067729D01*
X0158540Y0067981D01*
X0158645Y0067729D01*
X0160269Y0066104D01*
X0162392Y0065225D01*
X0164689Y0065225D01*
X0166812Y0066104D01*
X0168436Y0067729D01*
X0168540Y0067981D01*
X0168645Y0067729D01*
X0170269Y0066104D01*
X0172392Y0065225D01*
X0174689Y0065225D01*
X0176812Y0066104D01*
X0178436Y0067729D01*
X0178540Y0067981D01*
X0178645Y0067729D01*
X0180269Y0066104D01*
X0182392Y0065225D01*
X0184689Y0065225D01*
X0186812Y0066104D01*
X0188436Y0067729D01*
X0188540Y0067981D01*
X0188645Y0067729D01*
X0190269Y0066104D01*
X0192392Y0065225D01*
X0194689Y0065225D01*
X0196812Y0066104D01*
X0198436Y0067729D01*
X0198540Y0067981D01*
X0198645Y0067729D01*
X0200269Y0066104D01*
X0202392Y0065225D01*
X0204689Y0065225D01*
X0206812Y0066104D01*
X0208436Y0067729D01*
X0208540Y0067981D01*
X0208645Y0067729D01*
X0210269Y0066104D01*
X0212392Y0065225D01*
X0214689Y0065225D01*
X0216812Y0066104D01*
X0218436Y0067729D01*
X0218540Y0067981D01*
X0218645Y0067729D01*
X0220269Y0066104D01*
X0222392Y0065225D01*
X0224689Y0065225D01*
X0226812Y0066104D01*
X0228436Y0067729D01*
X0228540Y0067981D01*
X0228645Y0067729D01*
X0230269Y0066104D01*
X0232392Y0065225D01*
X0234689Y0065225D01*
X0236812Y0066104D01*
X0238436Y0067729D01*
X0238540Y0067981D01*
X0238645Y0067729D01*
X0240269Y0066104D01*
X0242392Y0065225D01*
X0244689Y0065225D01*
X0246812Y0066104D01*
X0248436Y0067729D01*
X0248540Y0067981D01*
X0247246Y0066539D02*
X0249835Y0066539D01*
X0243540Y0071000D02*
X0248540Y0076000D01*
X0278540Y0076000D01*
X0288540Y0086000D01*
X0288540Y0091000D01*
X0298540Y0091000D02*
X0298540Y0086000D01*
X0288540Y0076000D01*
X0288540Y0066000D01*
X0268540Y0086000D02*
X0262290Y0079750D01*
X0242290Y0079750D01*
X0238540Y0076000D01*
X0228540Y0076000D01*
X0223540Y0071000D01*
X0219835Y0066539D02*
X0217246Y0066539D01*
X0209835Y0066539D02*
X0207246Y0066539D01*
X0199835Y0066539D02*
X0197246Y0066539D01*
X0189835Y0066539D02*
X0187246Y0066539D01*
X0179835Y0066539D02*
X0177246Y0066539D01*
X0169835Y0066539D02*
X0167246Y0066539D01*
X0159835Y0066539D02*
X0157246Y0066539D01*
X0149835Y0066539D02*
X0147246Y0066539D01*
X0139835Y0066539D02*
X0137246Y0066539D01*
X0130269Y0066104D02*
X0128645Y0067729D01*
X0127766Y0069849D01*
X0127595Y0069321D01*
X0127282Y0068707D01*
X0126877Y0068150D01*
X0126390Y0067663D01*
X0125833Y0067258D01*
X0125220Y0066946D01*
X0124565Y0066733D01*
X0123885Y0066625D01*
X0123540Y0066625D01*
X0123540Y0071000D01*
X0123540Y0071334D02*
X0123540Y0071334D01*
X0123540Y0069736D02*
X0123540Y0069736D01*
X0123540Y0068137D02*
X0123540Y0068137D01*
X0120216Y0068137D02*
X0119315Y0068137D01*
X0119315Y0069736D02*
X0119351Y0069736D01*
X0119315Y0072933D02*
X0119615Y0072933D01*
X0119183Y0074532D02*
X0120958Y0074532D01*
X0123540Y0074532D02*
X0123540Y0074532D01*
X0123540Y0072933D02*
X0123540Y0072933D01*
X0126122Y0074532D02*
X0128905Y0074532D01*
X0128090Y0072933D02*
X0127465Y0072933D01*
X0127730Y0069736D02*
X0127813Y0069736D01*
X0128475Y0068137D02*
X0126865Y0068137D01*
X0138176Y0074532D02*
X0138905Y0074532D01*
X0140835Y0076130D02*
X0136246Y0076130D01*
X0130835Y0076130D02*
X0118085Y0076130D01*
X0108995Y0076130D02*
X0102540Y0076130D01*
X0102540Y0074532D02*
X0107898Y0074532D01*
X0107766Y0072933D02*
X0102540Y0072933D01*
X0102540Y0071334D02*
X0107766Y0071334D01*
X0107766Y0069736D02*
X0102540Y0069736D01*
X0102540Y0068137D02*
X0107766Y0068137D01*
X0108326Y0066539D02*
X0102540Y0066539D01*
X0102540Y0064940D02*
X0109540Y0064940D01*
X0109540Y0063342D02*
X0102540Y0063342D01*
X0102540Y0061743D02*
X0109540Y0061743D01*
X0109540Y0060145D02*
X0102540Y0060145D01*
X0102540Y0058546D02*
X0109540Y0058546D01*
X0109540Y0056948D02*
X0103249Y0056948D01*
X0104848Y0055349D02*
X0109540Y0055349D01*
X0109540Y0053751D02*
X0106446Y0053751D01*
X0108045Y0052152D02*
X0109540Y0052152D01*
X0113540Y0051000D02*
X0113540Y0071000D01*
X0102540Y0077729D02*
X0214612Y0077729D01*
X0216211Y0079327D02*
X0102540Y0079327D01*
X0102540Y0080926D02*
X0217809Y0080926D01*
X0219408Y0082524D02*
X0102540Y0082524D01*
X0102540Y0084123D02*
X0104615Y0084123D01*
X0142465Y0084123D02*
X0144615Y0084123D01*
X0152465Y0084123D02*
X0154615Y0084123D01*
X0162465Y0084123D02*
X0164615Y0084123D01*
X0172465Y0084123D02*
X0174615Y0084123D01*
X0182465Y0084123D02*
X0184615Y0084123D01*
X0192465Y0084123D02*
X0194615Y0084123D01*
X0202465Y0084123D02*
X0204615Y0084123D01*
X0212465Y0084123D02*
X0217466Y0084123D01*
X0218540Y0084123D02*
X0218540Y0084123D01*
X0219615Y0084123D02*
X0221006Y0084123D01*
X0222033Y0085721D02*
X0233372Y0085721D01*
X0232740Y0087320D02*
X0222816Y0087320D01*
X0222940Y0088918D02*
X0232740Y0088918D01*
X0232740Y0090517D02*
X0222940Y0090517D01*
X0222940Y0091000D02*
X0218540Y0091000D01*
X0222940Y0091000D01*
X0222940Y0092115D02*
X0232740Y0092115D01*
X0232740Y0093714D02*
X0222940Y0093714D01*
X0222606Y0095312D02*
X0232972Y0095312D01*
X0218540Y0091000D02*
X0218540Y0091000D01*
X0218540Y0090517D02*
X0218540Y0090517D01*
X0218540Y0088918D02*
X0218540Y0088918D01*
X0218540Y0087320D02*
X0218540Y0087320D01*
X0218540Y0085721D02*
X0218540Y0085721D01*
X0215048Y0085721D02*
X0213709Y0085721D01*
X0223540Y0081000D02*
X0236040Y0081000D01*
X0238540Y0083500D01*
X0256040Y0083500D01*
X0258540Y0086000D01*
X0258540Y0091000D01*
X0268540Y0091000D02*
X0268540Y0086000D01*
X0239835Y0066539D02*
X0237246Y0066539D01*
X0229835Y0066539D02*
X0227246Y0066539D01*
X0213540Y0071000D02*
X0223540Y0081000D01*
X0210835Y0076130D02*
X0206246Y0076130D01*
X0208176Y0074532D02*
X0208905Y0074532D01*
X0200835Y0076130D02*
X0196246Y0076130D01*
X0198176Y0074532D02*
X0198905Y0074532D01*
X0190835Y0076130D02*
X0186246Y0076130D01*
X0188176Y0074532D02*
X0188905Y0074532D01*
X0180835Y0076130D02*
X0176246Y0076130D01*
X0178176Y0074532D02*
X0178905Y0074532D01*
X0170835Y0076130D02*
X0166246Y0076130D01*
X0168176Y0074532D02*
X0168905Y0074532D01*
X0160835Y0076130D02*
X0156246Y0076130D01*
X0158176Y0074532D02*
X0158905Y0074532D01*
X0150835Y0076130D02*
X0146246Y0076130D01*
X0148176Y0074532D02*
X0148905Y0074532D01*
X0123540Y0041000D02*
X0113540Y0051000D01*
X0108540Y0041000D02*
X0108540Y0031000D01*
X0153540Y0031000D01*
X0173540Y0011000D01*
X0141898Y0016985D02*
X0067719Y0016985D01*
X0043540Y0013788D02*
X0107766Y0013788D01*
X0107766Y0012190D02*
X0043540Y0012190D01*
X0043540Y0010591D02*
X0107766Y0010591D01*
X0107766Y0008993D02*
X0043540Y0008993D01*
X0043540Y0007394D02*
X0107929Y0007394D01*
X0118828Y0015387D02*
X0119760Y0015387D01*
X0127321Y0015387D02*
X0129760Y0015387D01*
X0137321Y0015387D02*
X0139760Y0015387D01*
X0123540Y0041000D02*
X0168540Y0041000D01*
X0216781Y0018584D02*
X0248291Y0018584D01*
X0247766Y0020182D02*
X0218379Y0020182D01*
X0219978Y0021781D02*
X0247766Y0021781D01*
X0248275Y0023379D02*
X0221576Y0023379D01*
X0223175Y0024978D02*
X0249351Y0024978D01*
X0251912Y0026576D02*
X0224773Y0026576D01*
X0215182Y0016985D02*
X0249388Y0016985D01*
X0249760Y0015387D02*
X0247321Y0015387D01*
X0239760Y0015387D02*
X0237321Y0015387D01*
X0229760Y0015387D02*
X0227321Y0015387D01*
X0219760Y0015387D02*
X0217321Y0015387D01*
X0255169Y0026576D02*
X0261912Y0026576D01*
X0259351Y0024978D02*
X0257729Y0024978D01*
X0265169Y0026576D02*
X0271912Y0026576D01*
X0269351Y0024978D02*
X0267729Y0024978D01*
X0287912Y0028175D02*
X0288460Y0028175D01*
X0303540Y0013788D02*
X0303540Y0013788D01*
X0303540Y0012190D02*
X0303540Y0012190D01*
X0307427Y0008993D02*
X0313540Y0008993D01*
X0313540Y0007394D02*
X0306020Y0007394D01*
X0304925Y0106502D02*
X0302155Y0106502D01*
X0294925Y0106502D02*
X0292155Y0106502D01*
X0284925Y0106502D02*
X0282155Y0106502D01*
X0274925Y0106502D02*
X0262155Y0106502D01*
X0254925Y0106502D02*
X0252155Y0106502D01*
X0244925Y0106502D02*
X0242155Y0106502D01*
X0234925Y0106502D02*
X0223340Y0106502D01*
X0223340Y0108100D02*
X0313740Y0108100D01*
X0313740Y0106502D02*
X0312155Y0106502D01*
X0313740Y0109699D02*
X0223340Y0109699D01*
X0223340Y0111297D02*
X0313740Y0111297D01*
X0313740Y0112896D02*
X0310408Y0112896D01*
X0312837Y0114494D02*
X0313740Y0114494D01*
X0318540Y0111000D02*
X0318540Y0121000D01*
X0314020Y0127282D02*
X0313060Y0127282D01*
X0310947Y0128881D02*
X0316133Y0128881D01*
X0313540Y0132078D02*
X0310286Y0132078D01*
X0312909Y0133676D02*
X0313540Y0133676D01*
X0306794Y0132078D02*
X0300286Y0132078D01*
X0302909Y0133676D02*
X0304172Y0133676D01*
X0296794Y0132078D02*
X0290286Y0132078D01*
X0292909Y0133676D02*
X0294172Y0133676D01*
X0286794Y0132078D02*
X0280286Y0132078D01*
X0282909Y0133676D02*
X0284172Y0133676D01*
X0276794Y0132078D02*
X0270286Y0132078D01*
X0272909Y0133676D02*
X0274172Y0133676D01*
X0266794Y0132078D02*
X0260286Y0132078D01*
X0262909Y0133676D02*
X0264172Y0133676D01*
X0256794Y0132078D02*
X0250286Y0132078D01*
X0252909Y0133676D02*
X0254172Y0133676D01*
X0246794Y0132078D02*
X0240286Y0132078D01*
X0242909Y0133676D02*
X0244172Y0133676D01*
X0236794Y0132078D02*
X0210286Y0132078D01*
X0212909Y0133676D02*
X0234172Y0133676D01*
X0233005Y0135275D02*
X0214075Y0135275D01*
X0214709Y0136873D02*
X0232372Y0136873D01*
X0232372Y0138472D02*
X0214709Y0138472D01*
X0214709Y0140070D02*
X0232372Y0140070D01*
X0232372Y0141669D02*
X0214709Y0141669D01*
X0214709Y0143268D02*
X0232372Y0143268D01*
X0232372Y0144866D02*
X0214709Y0144866D01*
X0214183Y0146465D02*
X0232898Y0146465D01*
X0233911Y0148063D02*
X0213169Y0148063D01*
X0210915Y0149662D02*
X0236166Y0149662D01*
X0240915Y0149662D02*
X0246166Y0149662D01*
X0243911Y0148063D02*
X0243169Y0148063D01*
X0250915Y0149662D02*
X0256166Y0149662D01*
X0253911Y0148063D02*
X0253169Y0148063D01*
X0260915Y0149662D02*
X0266166Y0149662D01*
X0263911Y0148063D02*
X0263169Y0148063D01*
X0270915Y0149662D02*
X0276166Y0149662D01*
X0273911Y0148063D02*
X0273169Y0148063D01*
X0280915Y0149662D02*
X0286166Y0149662D01*
X0283911Y0148063D02*
X0283169Y0148063D01*
X0290915Y0149662D02*
X0296166Y0149662D01*
X0293911Y0148063D02*
X0293169Y0148063D01*
X0300915Y0149662D02*
X0306166Y0149662D01*
X0303911Y0148063D02*
X0303169Y0148063D01*
X0310915Y0149662D02*
X0313540Y0149662D01*
X0313540Y0148063D02*
X0313169Y0148063D01*
X0306133Y0128881D02*
X0300947Y0128881D01*
X0303060Y0127282D02*
X0304020Y0127282D01*
X0296133Y0128881D02*
X0290947Y0128881D01*
X0293060Y0127282D02*
X0294020Y0127282D01*
X0286133Y0128881D02*
X0280947Y0128881D01*
X0283060Y0127282D02*
X0284020Y0127282D01*
X0276133Y0128881D02*
X0270947Y0128881D01*
X0273060Y0127282D02*
X0274020Y0127282D01*
X0266133Y0128881D02*
X0260947Y0128881D01*
X0263060Y0127282D02*
X0264020Y0127282D01*
X0256133Y0128881D02*
X0250947Y0128881D01*
X0253060Y0127282D02*
X0254020Y0127282D01*
X0246133Y0128881D02*
X0240947Y0128881D01*
X0243060Y0127282D02*
X0244020Y0127282D01*
X0236133Y0128881D02*
X0220947Y0128881D01*
X0223060Y0127282D02*
X0234020Y0127282D01*
X0233126Y0125684D02*
X0223955Y0125684D01*
X0224340Y0124085D02*
X0232740Y0124085D01*
X0232740Y0122487D02*
X0224340Y0122487D01*
X0224340Y0120888D02*
X0232740Y0120888D01*
X0232740Y0119290D02*
X0224340Y0119290D01*
X0224340Y0117691D02*
X0232740Y0117691D01*
X0233218Y0116093D02*
X0223863Y0116093D01*
X0223340Y0114494D02*
X0234244Y0114494D01*
X0236673Y0112896D02*
X0223340Y0112896D01*
X0218540Y0111000D02*
X0218540Y0121000D01*
X0214020Y0127282D02*
X0213060Y0127282D01*
X0210947Y0128881D02*
X0216133Y0128881D01*
X0206794Y0132078D02*
X0200286Y0132078D01*
X0202909Y0133676D02*
X0204172Y0133676D01*
X0206133Y0128881D02*
X0200947Y0128881D01*
X0203060Y0127282D02*
X0204020Y0127282D01*
X0196133Y0128881D02*
X0190947Y0128881D01*
X0193060Y0127282D02*
X0194020Y0127282D01*
X0196794Y0132078D02*
X0190286Y0132078D01*
X0192909Y0133676D02*
X0194172Y0133676D01*
X0186133Y0128881D02*
X0180947Y0128881D01*
X0183060Y0127282D02*
X0184020Y0127282D01*
X0184244Y0114494D02*
X0182837Y0114494D01*
X0180408Y0112896D02*
X0186673Y0112896D01*
X0190408Y0112896D02*
X0196673Y0112896D01*
X0194244Y0114494D02*
X0192837Y0114494D01*
X0200408Y0112896D02*
X0206673Y0112896D01*
X0204244Y0114494D02*
X0202837Y0114494D01*
X0210408Y0112896D02*
X0213740Y0112896D01*
X0213740Y0114494D02*
X0212837Y0114494D01*
X0240408Y0112896D02*
X0246673Y0112896D01*
X0244244Y0114494D02*
X0242837Y0114494D01*
X0250408Y0112896D02*
X0256673Y0112896D01*
X0254244Y0114494D02*
X0252837Y0114494D01*
X0260408Y0112896D02*
X0266673Y0112896D01*
X0264244Y0114494D02*
X0262837Y0114494D01*
X0270408Y0112896D02*
X0276673Y0112896D01*
X0274244Y0114494D02*
X0272837Y0114494D01*
X0280408Y0112896D02*
X0286673Y0112896D01*
X0284244Y0114494D02*
X0282837Y0114494D01*
X0290408Y0112896D02*
X0296673Y0112896D01*
X0294244Y0114494D02*
X0292837Y0114494D01*
X0300408Y0112896D02*
X0306673Y0112896D01*
X0304244Y0114494D02*
X0302837Y0114494D01*
X0206166Y0149662D02*
X0200915Y0149662D01*
X0203169Y0148063D02*
X0203911Y0148063D01*
X0196166Y0149662D02*
X0190915Y0149662D01*
X0193169Y0148063D02*
X0193911Y0148063D01*
X0186166Y0149662D02*
X0180915Y0149662D01*
X0183169Y0148063D02*
X0183911Y0148063D01*
X0176166Y0149662D02*
X0170915Y0149662D01*
X0173169Y0148063D02*
X0173911Y0148063D01*
X0166166Y0149662D02*
X0160915Y0149662D01*
X0163169Y0148063D02*
X0163911Y0148063D01*
X0156166Y0149662D02*
X0150915Y0149662D01*
X0153169Y0148063D02*
X0153911Y0148063D01*
X0146166Y0149662D02*
X0140915Y0149662D01*
X0143169Y0148063D02*
X0143911Y0148063D01*
X0136166Y0149662D02*
X0110915Y0149662D01*
X0113169Y0148063D02*
X0133911Y0148063D01*
X0132898Y0146465D02*
X0114183Y0146465D01*
X0114709Y0144866D02*
X0132372Y0144866D01*
X0132372Y0143268D02*
X0114709Y0143268D01*
X0114709Y0141669D02*
X0132372Y0141669D01*
X0132372Y0140070D02*
X0114709Y0140070D01*
X0114709Y0138472D02*
X0132372Y0138472D01*
X0132372Y0136873D02*
X0114709Y0136873D01*
X0114075Y0135275D02*
X0133005Y0135275D01*
X0134172Y0133676D02*
X0112909Y0133676D01*
X0110947Y0128881D02*
X0116133Y0128881D01*
X0114020Y0127282D02*
X0113060Y0127282D01*
X0106133Y0128881D02*
X0100947Y0128881D01*
X0103060Y0127282D02*
X0104020Y0127282D01*
X0096133Y0128881D02*
X0090947Y0128881D01*
X0093060Y0127282D02*
X0094020Y0127282D01*
X0086133Y0128881D02*
X0080947Y0128881D01*
X0083060Y0127282D02*
X0084020Y0127282D01*
X0076133Y0128881D02*
X0070947Y0128881D01*
X0073060Y0127282D02*
X0074020Y0127282D01*
X0066133Y0128881D02*
X0060947Y0128881D01*
X0063060Y0127282D02*
X0064020Y0127282D01*
X0056133Y0128881D02*
X0050947Y0128881D01*
X0053060Y0127282D02*
X0054020Y0127282D01*
X0036794Y0132078D02*
X0028540Y0132078D01*
X0028540Y0133676D02*
X0034172Y0133676D01*
X0033005Y0135275D02*
X0028540Y0135275D01*
X0028540Y0136873D02*
X0032372Y0136873D01*
X0032372Y0138472D02*
X0028540Y0138472D01*
X0028540Y0140070D02*
X0032372Y0140070D01*
X0032372Y0141669D02*
X0028540Y0141669D01*
X0028540Y0143268D02*
X0032372Y0143268D01*
X0032372Y0144866D02*
X0028540Y0144866D01*
X0028540Y0146465D02*
X0032898Y0146465D01*
X0033911Y0148063D02*
X0028540Y0148063D01*
X0028540Y0149662D02*
X0036166Y0149662D01*
X0040915Y0149662D02*
X0046166Y0149662D01*
X0043911Y0148063D02*
X0043169Y0148063D01*
X0050915Y0149662D02*
X0056166Y0149662D01*
X0053911Y0148063D02*
X0053169Y0148063D01*
X0060915Y0149662D02*
X0066166Y0149662D01*
X0063911Y0148063D02*
X0063169Y0148063D01*
X0070915Y0149662D02*
X0076166Y0149662D01*
X0073911Y0148063D02*
X0073169Y0148063D01*
X0080915Y0149662D02*
X0086166Y0149662D01*
X0083911Y0148063D02*
X0083169Y0148063D01*
X0090915Y0149662D02*
X0096166Y0149662D01*
X0093911Y0148063D02*
X0093169Y0148063D01*
X0100915Y0149662D02*
X0106166Y0149662D01*
X0103911Y0148063D02*
X0103169Y0148063D01*
X0118540Y0121000D02*
X0118540Y0111000D01*
X0113740Y0111297D02*
X0028540Y0111297D01*
X0028540Y0109699D02*
X0113740Y0109699D01*
X0113740Y0108100D02*
X0028540Y0108100D01*
X0028540Y0106502D02*
X0084925Y0106502D01*
X0092155Y0106502D02*
X0094925Y0106502D01*
X0102155Y0106502D02*
X0113740Y0106502D01*
X0113740Y0112896D02*
X0110408Y0112896D01*
X0112837Y0114494D02*
X0113740Y0114494D01*
X0106673Y0112896D02*
X0100408Y0112896D01*
X0102837Y0114494D02*
X0104244Y0114494D01*
X0096673Y0112896D02*
X0090408Y0112896D01*
X0092837Y0114494D02*
X0094244Y0114494D01*
X0086673Y0112896D02*
X0080408Y0112896D01*
X0082837Y0114494D02*
X0084244Y0114494D01*
X0076673Y0112896D02*
X0070408Y0112896D01*
X0072837Y0114494D02*
X0074244Y0114494D01*
X0066673Y0112896D02*
X0060408Y0112896D01*
X0062837Y0114494D02*
X0064244Y0114494D01*
X0056673Y0112896D02*
X0050408Y0112896D01*
X0052837Y0114494D02*
X0054244Y0114494D01*
X0046673Y0112896D02*
X0040408Y0112896D01*
X0042837Y0114494D02*
X0044244Y0114494D01*
X0036673Y0112896D02*
X0028540Y0112896D01*
X0028540Y0114494D02*
X0034244Y0114494D01*
X0033218Y0116093D02*
X0028540Y0116093D01*
X0028540Y0117691D02*
X0032740Y0117691D01*
X0032740Y0119290D02*
X0028540Y0119290D01*
X0028540Y0120888D02*
X0032740Y0120888D01*
X0032740Y0122487D02*
X0028540Y0122487D01*
X0028540Y0124085D02*
X0032740Y0124085D01*
X0033126Y0125684D02*
X0028540Y0125684D01*
X0028540Y0127282D02*
X0034020Y0127282D01*
X0033940Y0084123D02*
X0034615Y0084123D01*
X0033940Y0082524D02*
X0064540Y0082524D01*
X0064540Y0080926D02*
X0033940Y0080926D01*
X0033940Y0079327D02*
X0064540Y0079327D01*
X0064540Y0077729D02*
X0033940Y0077729D01*
X0033940Y0076130D02*
X0064540Y0076130D01*
X0064540Y0074532D02*
X0033940Y0074532D01*
X0033940Y0072933D02*
X0064540Y0072933D01*
X0064540Y0071334D02*
X0033940Y0071334D01*
X0033940Y0069736D02*
X0064734Y0069736D01*
X0065746Y0068137D02*
X0033940Y0068137D01*
X0033940Y0066539D02*
X0067345Y0066539D01*
X0068943Y0064940D02*
X0033940Y0064940D01*
X0033940Y0063342D02*
X0070542Y0063342D01*
X0072140Y0061743D02*
X0033940Y0061743D01*
X0033940Y0060145D02*
X0073739Y0060145D01*
X0075337Y0058546D02*
X0033940Y0058546D01*
X0034381Y0056948D02*
X0076936Y0056948D01*
X0078534Y0055349D02*
X0035979Y0055349D01*
X0055161Y0036167D02*
X0062160Y0036167D01*
X0059231Y0034569D02*
X0056760Y0034569D01*
X0054615Y0084123D02*
X0052465Y0084123D01*
X0044615Y0084123D02*
X0042465Y0084123D01*
X0062465Y0084123D02*
X0064540Y0084123D01*
X0140408Y0112896D02*
X0146673Y0112896D01*
X0144244Y0114494D02*
X0142837Y0114494D01*
X0150408Y0112896D02*
X0156673Y0112896D01*
X0154244Y0114494D02*
X0152837Y0114494D01*
X0160408Y0112896D02*
X0166673Y0112896D01*
X0164244Y0114494D02*
X0162837Y0114494D01*
X0170408Y0112896D02*
X0176673Y0112896D01*
X0174244Y0114494D02*
X0172837Y0114494D01*
D17*
X0123540Y0141000D03*
X0223540Y0141000D03*
X0323540Y0036000D03*
X0033540Y0031000D03*
D18*
X0088540Y0101000D03*
X0098540Y0101000D03*
X0098540Y0111000D03*
X0088540Y0111000D03*
X0148540Y0111000D03*
X0158540Y0111000D03*
X0158540Y0101000D03*
X0148540Y0101000D03*
X0208540Y0101000D03*
X0208540Y0111000D03*
X0238540Y0111000D03*
X0248540Y0111000D03*
X0258540Y0111000D03*
X0258540Y0101000D03*
X0248540Y0101000D03*
X0238540Y0101000D03*
X0278540Y0101000D03*
X0288540Y0101000D03*
X0298540Y0101000D03*
X0308540Y0101000D03*
X0308540Y0111000D03*
X0298540Y0111000D03*
X0288540Y0111000D03*
X0278540Y0111000D03*
D19*
X0173540Y0036000D03*
D20*
X0063698Y0026000D02*
X0058540Y0026000D01*
X0029140Y0055400D01*
X0029140Y0101650D01*
X0087890Y0101650D01*
X0088540Y0101000D01*
X0098540Y0101000D01*
X0118540Y0101000D01*
X0148540Y0101000D01*
X0158540Y0101000D01*
X0208540Y0101000D01*
X0218540Y0101000D01*
X0238540Y0101000D01*
X0248540Y0101000D01*
X0258540Y0101000D01*
X0278540Y0101000D01*
X0288540Y0101000D01*
X0298540Y0101000D01*
X0308540Y0101000D01*
X0318540Y0101000D01*
X0318540Y0121000D01*
X0218540Y0121000D02*
X0218540Y0101000D01*
X0118540Y0101000D02*
X0118540Y0121000D01*
M02*
