%
M48
M72
T01C0.03150
T02C0.03543
%
T01
X6250Y6250
X16250Y6250
X26250Y6250
X36250Y6250
X46250Y6250
X56250Y6250
X66250Y6250
X76250Y6250
X86250Y6250
X96250Y6250
X106250Y6250
X116250Y6250
X126250Y6250
X136250Y6250
X146250Y6250
X156250Y6250
X166250Y6250
X176250Y6250
X186250Y6250
X196250Y6250
X176250Y16250
X166250Y16250
X156250Y16250
X146250Y16250
X56250Y26250
X46250Y26250
X46250Y36250
X56250Y36250
X56250Y46250
X46250Y46250
X46250Y56250
X56250Y56250
X76250Y55935
X86250Y55935
X96250Y55935
X106250Y55935
X106250Y66250
X96250Y66250
X86250Y66250
X76250Y66250
X66250Y66250
X56250Y66250
X46250Y66250
X36250Y66250
X26250Y66250
X16250Y66250
X6250Y66250
X116250Y66250
X126250Y66250
X136250Y66250
X146250Y66250
X156250Y66250
X166250Y66250
X176250Y66250
X186250Y66250
X196250Y66250
X196250Y56250
X186250Y56250
X176250Y56250
X166250Y55935
X156250Y55935
X146250Y55935
X136250Y55935
T02
X116250Y56250
X116250Y38750
X101250Y36250
X141250Y31250
M30
